<svg xmlns="http://www.w3.org/2000/svg" width="288.683" height="73.521" viewBox="0 0 288.683 73.521"><g transform="translate(-110 -7570)"><g transform="translate(445.567 11977.598)"><path d="M-232.754-4401.4l.633-5.022,8.365-.111-.613,5.051,1.858.162-.776,5.36H-225.3l-.159,1.709,1.476,2.191-1.158,8.062-1.4-2.455-1.162,5.36-8.3-.069.617-5.046-7.676,5.046,1.7-9.843,7.529-3.646-.076-1.309-6.972.032.844-5.471Z" transform="translate(95.97 1.108)" fill="#fff"/><path d="M-230.292-4406.629l-3.9,25.643h7.469l3.024-19.324h14.194l-2.718,19.254h8.456l3.78-25.573Z" transform="translate(105.163 1.004)" fill="#fff"/><path d="M-228.4-4402.918l-.684,3.864h12.917l.537-3.864Z" transform="translate(110.465 4.854)" fill="#fff"/><path d="M-228.161-4400.541l-2.033,13.2h13.133l1.976-13.2h-13.076m6.5,7.879h-1.895l.471-3h1.883l-.458,3Z" transform="translate(109.314 7.32)" fill="#fff"/><path d="M-170.757-4396.84l.829-4.546h-13.81l.593-5.112h-10.271l-.672,4.79h-6.124l3.4-4.79-8.61-.121-11.536,13.606h9.274l-.536,3.733h12.165l-.6,3.165h-16.992l-.752,5.45h41.981l.664-5.54h-14.341l.383-2.827h11.475l.609-4.558h-11.253l.377-3.251h13.744m-24.463,2.729h-10.04l1.811-2.559H-195l-.218,2.559Z" transform="translate(123.044 1.016)" fill="#fff"/><g transform="translate(-335.567 -4407.597)"><path d="M-329.528-4407.325h10.376c4.845,0,7.581,2.266,6.577,7-.7,3.3-3,5.88-5.811,6.4l-.02.082c2.042.315,4.981,1.228,3.757,7.033-.715,3.343-3.152,7.87-11.059,7.87h-9.859Zm1.693,23.457h2.021a4.232,4.232,0,0,0,4.4-3.7c.6-2.79-.587-3.975-2.653-3.975h-2.141Zm2.577-12.128h1.828a3.762,3.762,0,0,0,3.965-3.335c.316-1.472-.145-3.06-2.573-3.06H-323.9Z" transform="translate(335.567 4407.879)" fill="#fff"/><path d="M-316.417-4378.11c-8.785,0-8.761-5.72-6.844-14.739s4.33-14.748,13.115-14.748c9.46,0,8.512,6.876,6.842,14.748S-306.953-4378.11-316.417-4378.11Zm.907-4.45c2.7,0,3.633-2.5,5.289-10.289s1.795-10.293-.911-10.293c-2.622,0-3.553,2.5-5.21,10.293S-318.132-4382.561-315.51-4382.561Z" transform="translate(347.263 4407.598)" fill="#fff"/><path d="M-301.757-4407.325h8.349l1.041,28.381h-6.919l.116-5.4h-6.793l-2.145,5.4h-6.917Zm2.956,5.175h-.079l-5.034,12.633h4.851Z" transform="translate(356.877 4407.879)" fill="#fff"/><path d="M-295.971-4401.917h-5.966l1.147-5.408h18.6l-1.147,5.408H-289.3l-4.882,22.973h-6.681Z" transform="translate(370.455 4407.879)" fill="#fff"/><path d="M-284.906-4407.325H-273.7c5.686,0,6.888,3.5,6.065,7.4-.884,4.125-2.981,6.156-6.241,6.906l-.02.085c4.128.6,3.8,3.26,3.068,7.07-1.07,5.609-.994,6.162-.122,6.566l-.075.353h-7.2c-.306-.953-.169-2.547.513-5.763,1.047-4.93.591-5.959-1.516-5.959h-2.543l-2.49,11.723h-6.679Zm4.134,11.965h2.066a4.229,4.229,0,0,0,4.207-3.693c.456-2.145-.037-3.576-2.7-3.576h-2.029Z" transform="translate(381.864 4407.879)" fill="#fff"/><path d="M-267.448-4407.325h8.343l1.043,28.381h-6.919l.118-5.4h-6.8l-2.141,5.4h-6.915Zm2.952,5.175h-.083l-5.026,12.633h4.847Z" transform="translate(392.469 4407.879)" fill="#fff"/><path d="M-253.962-4397.186c.88-4.131.793-5.957-1.432-5.957-2.665,0-3.441,2.543-5.028,9.971-1.787,8.429-1.974,10.611.811,10.611,2.459,0,3.343-2.813,4.321-7.229h6.434l-.21.991c-1.3,6.123-3.983,10.688-12.249,10.688-8.543,0-7.858-6.393-6.045-14.941,1.548-7.272,3.49-14.546,12.954-14.546,5.876,0,8.559,2.545,7.139,9.223l-.255,1.189Z" transform="translate(405.141 4407.598)" fill="#fff"/><path d="M-252.619-4407.325H-236.2l-1.149,5.408h-9.739l-1.206,5.687h9.142l-1.155,5.4h-9.14l-1.377,6.479h10.175l-1.145,5.4h-16.857Z" transform="translate(415.355 4407.879)" fill="#fff"/><line x2="122.889" transform="translate(159.795 0.54)" fill="none"/><line x2="122.889" transform="translate(159.795 28.932)" fill="none"/><line y2="28.392" transform="translate(179.143 0.56)" fill="none"/><line y2="28.392" transform="translate(188.494 0.56)" fill="none"/></g></g><text transform="translate(110 7638.522)" fill="#fff" font-size="15" font-family="Helvetica-Bold, Helvetica" font-weight="700" letter-spacing="0.05em"><tspan x="0" y="0">©︎</tspan><tspan y="0" font-family="DIN2014-Bold, 'DIN \32 014'">RAMEN FES 2023 </tspan></text></g></svg>