<svg xmlns="http://www.w3.org/2000/svg" width="395.644" height="136.232" viewBox="0 0 395.644 136.232"><g transform="translate(-3354 -14853.777)"><g transform="translate(3354 14930.889)"><path d="M40.247,510.906c3.165-.124,10.8.124,14.089.869C59.238,512.953,67,516.3,67,525.553c0,8.753-6.271,11.793-9.249,13.282l11.235,20.67H53.219L40.247,536.54v22.966H26.9V511.4Zm0,25.386c8-2.482,11.731-5.092,11.731-9.435,0-2.234-1.8-5.278-7.512-5.278-1.241,0-2.544.066-4.219.19Z" transform="translate(-26.899 -510.875)" fill="#e7b81e"/><path d="M74.031,550.072a78.673,78.673,0,0,1-13.841,1.241c-7.446,0-10.986-1.179-12.6-1.8-4.468-1.741-7.694-6.022-7.694-10.3,0-7.818,9.99-11.731,14.4-13.1l5.9,6.019c-4.1,1.493-5.836,4.033-5.836,6.146s1.865,3.351,3.975,3.351a8.49,8.49,0,0,0,3.289-.745v-8.753c0-5.15-1.179-7.943-7.074-7.943-6.457,0-10.862,2.544-13.844,4.219l2.858-11.235a55.05,55.05,0,0,1,15.144-2.42c15.33,0,15.33,10.242,15.33,16.819Z" transform="translate(4.908 -501.38)" fill="#e7b81e"/><path d="M89.092,514.755c5.464,2.11,9.745,3.971,9.745,13.282V550.01H86.424V532.443c0-5.585-2.792-6.391-4.905-6.95a18.786,18.786,0,0,1,.124,2.544V550.01H69.229V532.443c0-5.647-2.854-6.391-4.716-6.95V550.01H52.1V516.058l12.414-.5v4.778l7.387-5.585c3.475,1.3,6.826,2.668,8.625,6.453Z" transform="translate(34.772 -501.38)" fill="#e7b81e"/><path d="M86.393,539.334a38.842,38.842,0,0,0,5.771.372,33.407,33.407,0,0,0,10.986-1.613l-6.267,13.22c-8.753,0-15.023-1.179-20.484-4.1a16.809,16.809,0,0,1-9-15.02c0-7.632,5.154-17.44,18.56-17.44,8.566,0,13.9,3.227,18.56,13.034ZM89,526.424c-1.675-2.42-3.661-3.723-4.781-3.723-2.172,0-5.4,3.6-5.4,8.129A11.566,11.566,0,0,0,79.068,533Z" transform="translate(72.216 -501.38)" fill="#e7b81e"/><path d="M92.215,550.01H79.8V516.058l12.414-.5v4.1l8.256-4.9a16.485,16.485,0,0,1,10.056,4.9c2.73,2.8,3.351,5.774,3.351,9.559V550.01H101.464V532.567c0-8.129-5.336-8.629-9.249-8.935Z" transform="translate(102.567 -501.38)" fill="#e7b81e"/><path d="M97.891,515.5l12.414-.5c16.633-.683,22.78,11.793,22.78,18.432,0,3.789-1.493,11.483-14.089,17.319l-8.691-6.767v15.954H97.891ZM110.3,542.069c8.749-3.847,8.935-8.253,8.935-9,0-1.307-1.179-6.022-8.935-6.767Z" transform="translate(146.838 -500.827)" fill="#e7b81e"/><path d="M143.528,550.072a78.673,78.673,0,0,1-13.841,1.241c-7.446,0-10.986-1.179-12.6-1.8-4.468-1.741-7.694-6.022-7.694-10.3,0-7.818,9.99-11.731,14.4-13.1l5.9,6.019c-4.1,1.493-5.836,4.033-5.836,6.146s1.865,3.351,3.975,3.351a8.49,8.49,0,0,0,3.289-.745v-8.753c0-5.15-1.179-7.943-7.074-7.943-6.457,0-10.862,2.544-13.844,4.219l2.858-11.235a55.05,55.05,0,0,1,15.144-2.42c15.33,0,15.33,10.242,15.33,16.819Z" transform="translate(174.986 -501.38)" fill="#e7b81e"/><path d="M134.064,550.01H121.65V516.058l12.414-.5v4.905a26.473,26.473,0,0,1,16.885-5.712l-1.986,12.91a18.818,18.818,0,0,0-4.1-.62c-3.785,0-7.574,2.61-10.8,5.585Z" transform="translate(204.982 -501.38)" fill="#e7b81e"/><path d="M144,559.484H131.586v-48.1l12.414-.5v26.192l6.953-11.545,13.779-.5-8.07,13.1c5.092,6.081,7.7,13.717,9.683,21.352H153.683c-1.924-6.577-4.344-13.158-9.683-18.37Z" transform="translate(229.299 -510.854)" fill="#e7b81e"/></g><g transform="translate(3402.003 14916.837)"><path d="M57.219,512.361c-.951,8.122-4.716,11.059-13.293,11.886l-.683-2.21c3.6-.231,6.057-.931,7.67-1.944a8.563,8.563,0,0,0,3.6-5.585H40.824v-2.148Zm-1.262-4.878v2.13H42.313v-2.13Z" transform="translate(-40.824 -505.125)" fill="#e7b81e"/><path d="M64.483,509.486V511.9H46.747v-2.417Z" transform="translate(-26.329 -500.223)" fill="#e7b81e"/><path d="M56.553,510.42a42.151,42.151,0,0,1,5.871,3.7,29.192,29.192,0,0,0,3.037-6.8l2.441.745a37.09,37.09,0,0,1-3.616,7.463,45.681,45.681,0,0,1,4.464,4.051l-1.841,1.986a44.211,44.211,0,0,0-4.071-4.013,23.885,23.885,0,0,1-9.18,7.029l-1.427-1.9a21.145,21.145,0,0,0,8.828-6.57,43.333,43.333,0,0,0-5.933-3.93Z" transform="translate(-12.91 -505.522)" fill="#e7b81e"/><path d="M64.417,512.693a25.547,25.547,0,0,0-6.408-3.041l1.117-2.027a26.174,26.174,0,0,1,6.533,2.916Zm-5.978,8.353c8.208-.6,12.365-4.468,14.741-12.386l2.027,1.448c-1.117,3.33-4.175,12.507-16.292,13.479Z" transform="translate(1.232 -504.775)" fill="#e7b81e"/><path d="M70.818,509.695c-.993,9.032-3.971,13.872-5.15,15.833l-2.313-1.2A33.512,33.512,0,0,0,68.4,509.343Zm7.874,15.44a50.237,50.237,0,0,0-4.878-14.923l2.151-.972a49.866,49.866,0,0,1,5.25,15.254Zm4.63-15.485a2.851,2.851,0,1,1-2.851-2.851A2.857,2.857,0,0,1,83.322,509.65Zm-4.381,0a1.531,1.531,0,1,0,1.531-1.527A1.525,1.525,0,0,0,78.94,509.65Z" transform="translate(14.315 -506.799)" fill="#e7b81e"/><path d="M87.288,509.486V511.9H69.552v-2.417Z" transform="translate(29.481 -500.223)" fill="#e7b81e"/><path d="M76.973,522.1c5.995-1.2,11.266-4.526,12.445-12.383h-6.9a17.2,17.2,0,0,1-5.312,5.5l-1.469-1.737a14.451,14.451,0,0,0,5.25-5.912H92.1c-.865,10.749-6.922,15.151-14.179,16.7Z" transform="translate(44.605 -504.919)" fill="#e7b81e"/></g><path d="M115,.5H0v-1H115Z" transform="translate(3354 14886.837)" fill="#fff"/><path d="M1.632-16.56V0h10.32V-2.832H4.992v-4.32h6.24V-9.984H4.992V-13.7h6.96V-16.56Zm12.288,0L19.7,0h3.048l5.76-16.56H24.84L21.216-5.424,17.592-16.56Zm17.5,0V0h10.32V-2.832h-6.96v-4.32h6.24V-9.984h-6.24V-13.7h6.96V-16.56Zm23.112,0V-6.168L48.048-16.56H45.264V0h3.192V-10.248L54.912,0H57.72V-16.56Zm6.24,0V-13.7h4.56V0h3.36V-13.7h4.56V-16.56Z" transform="translate(3354 14870.337)" fill="#fff"/></g></svg>