<svg xmlns="http://www.w3.org/2000/svg" width="595.296" height="125.439" viewBox="0 0 595.296 125.439"><path d="M21.664,29.832h-11.3V37.32h8.96a2.035,2.035,0,0,0,1.7-.832,2.883,2.883,0,0,0,.64-1.792Zm9.824-2.144a1.783,1.783,0,0,1-.384,1.088,1.216,1.216,0,0,1-1.024.512,15.487,15.487,0,0,1-4.768-.784,26.886,26.886,0,0,1-4.7-2.032,46.634,46.634,0,0,1-4.16-2.56,40.547,40.547,0,0,1-4.128,2.512A43.546,43.546,0,0,1,7.9,28.456H24.736V33.8a4.653,4.653,0,0,1-1.36,3.744A5.8,5.8,0,0,1,19.52,38.7H7.392V28.616a14.917,14.917,0,0,1-1.76.624q-1.12.336-2.24.576a9.026,9.026,0,0,1-1.792.24,1.119,1.119,0,0,1-.272-.048.205.205,0,0,1-.176-.208q0-.16.432-.352T2.5,29.1q.48-.16.64-.224A44.276,44.276,0,0,0,8.9,25.944a42.752,42.752,0,0,0,5.248-3.728q-.992-.768-1.968-1.6t-1.9-1.7l3.456-1.5a12.574,12.574,0,0,0,1.2,1.5q.656.7,1.36,1.376a26.265,26.265,0,0,0,3.424-4.288h-7.36a53.278,53.278,0,0,1-3.968,3.76A21,21,0,0,1,3.808,22.76q-.128.064-.288.128a.856.856,0,0,1-.32.064q-.256,0-.256-.224,0-.16.368-.576T4.1,21.3q.416-.432.576-.592Q5.952,19.3,7.3,17.528T9.84,13.88a30.3,30.3,0,0,0,2-3.6l3.328.864a2.548,2.548,0,0,1,.4.176.386.386,0,0,1,.208.368,1.275,1.275,0,0,1-.272.592q-.272.4-.64.88t-.72.9q-.352.416-.512.576h10.56a.6.6,0,0,1,.352.112.383.383,0,0,1,.16.336.71.71,0,0,1-.08.32q-.08.16-.144.32a17.37,17.37,0,0,1-1.632,2.336,30.918,30.918,0,0,1-2.1,2.32,23.509,23.509,0,0,1-2.128,1.9q.864.7,2.112,1.616t2.672,1.824q1.424.912,2.768,1.6a11.173,11.173,0,0,0,2.4.944,2.53,2.53,0,0,0-.08-.3.861.861,0,0,1-.048-.272,1.608,1.608,0,0,1,.448-1.1,1.38,1.38,0,0,1,1.056-.5,1.433,1.433,0,0,1,1.088.48A1.59,1.59,0,0,1,31.488,27.688Zm28.544-5.216a1.3,1.3,0,0,1-.416.864,7.1,7.1,0,0,1-.736.7,25.3,25.3,0,0,1-2.128,4.416,23.891,23.891,0,0,1-2.928,3.936A17.836,17.836,0,0,1,49.44,35.7a20.987,20.987,0,0,1-5.2,1.968,24.021,24.021,0,0,1-5.488.64l-.064-.224a18.547,18.547,0,0,0,3.088-.8q1.552-.544,2.928-1.184a16.767,16.767,0,0,0,2.384-1.392,14.977,14.977,0,0,0,1.888-1.6q.88-.88,1.872-2a19.532,19.532,0,0,0,1.264-1.68q.688-1.008,1.312-2.144a14.1,14.1,0,0,0,1.008-2.272,6.432,6.432,0,0,0,.384-2.032q0-.448-.4-.48t-.784-.032q-.352,0-.736.032t-.736.1q-2.176.224-4.592.672a17.3,17.3,0,0,0-4.4,1.408q-.16.1-.368.208a.844.844,0,0,1-.4.112,2.907,2.907,0,0,1-2.272-1.008,3.43,3.43,0,0,1-.9-2.352,1.4,1.4,0,0,1,.192-.736,4.147,4.147,0,0,0,1.68.752,8.3,8.3,0,0,0,1.84.24q2.4,0,4.8-.24t4.768-.56q.512-.064,1.024-.16a7.51,7.51,0,0,0,.992-.256,6.1,6.1,0,0,0,1.1-.528,1.945,1.945,0,0,1,.944-.336,2.562,2.562,0,0,1,1.36.528q.784.528,1.584,1.136A1.244,1.244,0,0,1,60.032,22.472Zm-4.256-6.4a.681.681,0,0,1-.416.672,4.551,4.551,0,0,1-.8.288,24.646,24.646,0,0,1-3.36.672,26.612,26.612,0,0,1-3.424.224,9.889,9.889,0,0,1-1.936-.176,4.034,4.034,0,0,1-1.744-.88,6.377,6.377,0,0,1-.96-.976,9.622,9.622,0,0,1-.768-1.136l.064-.064a5.4,5.4,0,0,0,1.424.576,6.715,6.715,0,0,0,1.52.16,14.392,14.392,0,0,0,3.168-.384,28.4,28.4,0,0,0,3.072-.864q.32-.128.64-.224a2.217,2.217,0,0,1,.64-.1,3.294,3.294,0,0,1,1.264.272A3.344,3.344,0,0,1,55.3,14.9,1.624,1.624,0,0,1,55.776,16.072Zm41.568,9.344a1.048,1.048,0,0,1-.416.928,2.261,2.261,0,0,1-.992.368,7.724,7.724,0,0,1-1.056.08q-1.44,0-2.88-.032t-2.88-.032q-2.4,0-4.816.064t-4.816.192q-1.184.064-2.384.208t-2.384.3a4.816,4.816,0,0,0-.8.128,3.286,3.286,0,0,1-.8.1,6.677,6.677,0,0,1-1.712-.224A3.046,3.046,0,0,1,70,26.712a2.188,2.188,0,0,1-.56-1.616,2.816,2.816,0,0,1,.224-.992,1.311,1.311,0,0,1,.64-.768,2.875,2.875,0,0,0,1.552,1.136,6.385,6.385,0,0,0,1.9.3q2.528,0,5.056-.16T83.84,24.2q1.28-.16,2.56-.3a22.34,22.34,0,0,0,2.528-.432q.192-.064.752-.208t1.088-.288a5.168,5.168,0,0,1,.592-.144A16.89,16.89,0,0,1,93.632,23a5.7,5.7,0,0,1,2.144.688,3.912,3.912,0,0,1,.624.416,4.143,4.143,0,0,1,.656.64A1.082,1.082,0,0,1,97.344,25.416Zm29.088,4.32a1.515,1.515,0,0,1-.56,1.168,1.782,1.782,0,0,1-1.2.5,1.527,1.527,0,0,1-.992-.288,6.483,6.483,0,0,1-.768-.768q-.832-.992-1.648-1.808a17.962,17.962,0,0,0-1.776-1.552,28.1,28.1,0,0,1-4.048,4.4,22.569,22.569,0,0,1-4.56,3.056,28.629,28.629,0,0,1-5.6,2.08q-.16.032-.448.1t-.512.1l-.064-.16a23.744,23.744,0,0,0,2.72-1.472,30.763,30.763,0,0,0,2.624-1.792,24.968,24.968,0,0,0,1.92-1.7q1.024-.992,2.032-2.128t1.856-2.3a17.048,17.048,0,0,0,1.36-2.16q-1.344-.9-2.72-1.728t-2.784-1.632Q110.08,21,108.9,20.456l.032-.128a16.4,16.4,0,0,1,1.712.1,14.092,14.092,0,0,1,1.936.352,31.284,31.284,0,0,1,3.04.88,23.407,23.407,0,0,1,2.528,1.008q.288-.544.688-1.392t.816-1.792a17.623,17.623,0,0,0,.688-1.808,4.984,4.984,0,0,0,.272-1.44,1.907,1.907,0,0,0-.432-1.216,2.9,2.9,0,0,0-1.04-.832,4.925,4.925,0,0,1,.992-.544,2.838,2.838,0,0,1,1.088-.224,2.949,2.949,0,0,1,1.7.608,6.03,6.03,0,0,1,1.472,1.472,2.911,2.911,0,0,1,.608,1.664.772.772,0,0,1-.272.528,4.064,4.064,0,0,1-.5.432,31.442,31.442,0,0,1-1.376,3.056q-.768,1.488-1.6,2.992a19.038,19.038,0,0,1,2.288,1.3,8.714,8.714,0,0,1,2.048,1.84A3.774,3.774,0,0,1,126.432,29.736ZM163.168,18.5a29.1,29.1,0,0,1-6.336,9.792,28.677,28.677,0,0,1-5.728,4.448,27.445,27.445,0,0,1-6.688,2.912.549.549,0,0,1-.224.032,1.27,1.27,0,0,1-.576-.128,7.085,7.085,0,0,1-1.344-.736,4.948,4.948,0,0,1-1.184-1.12,2.294,2.294,0,0,1-.48-1.408,4.944,4.944,0,0,1,.128-1.1,4.176,4.176,0,0,1,.384-1.04,7.081,7.081,0,0,0,.8,1.088,1.517,1.517,0,0,0,1.184.544,8.912,8.912,0,0,0,2.816-.544,25.262,25.262,0,0,0,3.248-1.376q1.648-.832,3.12-1.744t2.464-1.616a52.521,52.521,0,0,0,4.48-3.728,33.063,33.063,0,0,0,3.872-4.3ZM148.96,19.56a2.8,2.8,0,0,1-.624,1.824,2.122,2.122,0,0,1-1.744.768,1.132,1.132,0,0,1-1.072-.528,7.4,7.4,0,0,1-.528-1.136,6.171,6.171,0,0,0-1.712-2.528,6.018,6.018,0,0,0-2.736-1.44,3.241,3.241,0,0,1,.88-.256q.56-.1,1.136-.144t.928-.048a10.654,10.654,0,0,1,1.776.16,7.727,7.727,0,0,1,1.792.528,3.408,3.408,0,0,1,1.376,1.056A2.782,2.782,0,0,1,148.96,19.56Zm42.432,10.016H180.128v7.712h9.344a1.6,1.6,0,0,0,1.472-.72,3.054,3.054,0,0,0,.448-1.648Zm5.7-15.072a1.616,1.616,0,0,1-.464,1.136,1.461,1.461,0,0,1-1.1.5H175.552v3.3q0,2.848-.208,5.872a24.924,24.924,0,0,1-1.072,5.776,17.6,17.6,0,0,1-1.056,2.608,17.943,17.943,0,0,1-1.552,2.576,11.6,11.6,0,0,1-1.9,2.08,2.552,2.552,0,0,1-.3.256.617.617,0,0,1-.368.128q-.16,0-.16-.192a.617.617,0,0,1,.08-.3,2.373,2.373,0,0,1,.176-.272,18.1,18.1,0,0,0,1.664-3.6,24.55,24.55,0,0,0,.96-3.856,18.873,18.873,0,0,0,.288-2.416q.064-1.2.128-2.416.1-2.368.1-4.7,0-1.5-.016-3.04t-.016-3.072H182.88l-.7-4.384,3.872.16a.868.868,0,0,1,.464.128.451.451,0,0,1,.208.416,2.2,2.2,0,0,1-.208.688q-.208.5-.512,1.1t-.576,1.136q-.272.528-.4.752h8.736a1.288,1.288,0,0,1-.032-.352,1.694,1.694,0,0,1,1.664-1.664,1.651,1.651,0,0,1,1.184.5A1.574,1.574,0,0,1,197.088,14.5Zm.064,7.2a1.3,1.3,0,0,1-.5,1.088,1.853,1.853,0,0,1-1.168.384H186.56v5.248h7.776v6.048a4.312,4.312,0,0,1-.608,2.5,3.134,3.134,0,0,1-1.7,1.2,8.711,8.711,0,0,1-2.56.336h-12.1V28.424h6.368V17.16h2.816v4.7h7.456a1.825,1.825,0,0,1,.432-1.216,1.414,1.414,0,0,1,1.136-.512,1.584,1.584,0,0,1,1.568,1.568Zm10.08,8.544v6.72h1.5a4.462,4.462,0,0,0,1.968-.384q.784-.384.784-1.76,0-1.152.016-2.288t.016-2.288Zm14.688-.384v-3.68H219.1v3.68Zm0-4.832V21.288H219.1v3.744Zm-7.808,9.376a4.355,4.355,0,0,1-.592,2.56,2.609,2.609,0,0,1-1.68,1.008,14.207,14.207,0,0,1-2.624.208h-4.7V29.1h9.6ZM215.36,25.8a1.051,1.051,0,0,1-.368.832,1.254,1.254,0,0,1-.848.32q-2.784,0-5.568-.016t-5.6-.016V25.608h5.408V22.216h-3.392V21h3.392V18.12h2.688V21h1.7a1.173,1.173,0,0,1,.384-.784,1.128,1.128,0,0,1,.8-.336,1.259,1.259,0,0,1,1.216,1.216.906.906,0,0,1-.464.864,2.053,2.053,0,0,1-1.008.256h-2.624v3.392h1.888a1.169,1.169,0,0,1,.416-.72,1.162,1.162,0,0,1,1.632.064A1.191,1.191,0,0,1,215.36,25.8Zm-.128-7.776q0,.288-.256.288a1.859,1.859,0,0,1-1.056-.528,11.891,11.891,0,0,1-1.3-1.264q-.656-.736-1.184-1.44t-.784-1.056a5.515,5.515,0,0,0-.656.48,4.71,4.71,0,0,0-.592.544,3.863,3.863,0,0,0-.24.416,2.148,2.148,0,0,1-.272.416,9.249,9.249,0,0,1-.5.816q-.272.4-.56.784a20.438,20.438,0,0,1-2.24,2.544q-1.216,1.168-2.56,2.224-.128.1-.48.336a1.171,1.171,0,0,1-.48.24,1.323,1.323,0,0,1-.176-.016q-.112-.016-.112-.112a1.327,1.327,0,0,1,.224-.384q.224-.32.464-.64t.3-.416a36.99,36.99,0,0,0,1.984-3.344,39.1,39.1,0,0,0,1.776-3.84,22.143,22.143,0,0,0,1.136-3.664l3.2.928q-.192.576-.448,1.152t-.544,1.12q.224-.16.768-.56t1.088-.736a1.91,1.91,0,0,1,.736-.336.5.5,0,0,1,.368.144,1.582,1.582,0,0,1,.24.3,3.082,3.082,0,0,1,.352.784q.128.432.256.848.288.8.608,1.584t.672,1.584a2.932,2.932,0,0,0,.16.384A.917.917,0,0,1,215.232,18.024Zm17.92-2.592a1.246,1.246,0,0,1-.448.992,1.529,1.529,0,0,1-1.024.384h-6.912V20.04h6.464q0,3.776.016,7.552t.016,7.552a7.9,7.9,0,0,1-.24,1.984,2.958,2.958,0,0,1-.912,1.52,2.814,2.814,0,0,1-1.92.592,2.228,2.228,0,0,1-1.136-.352,7.5,7.5,0,0,1-1.12-.816q-.528-.464-.912-.848a.369.369,0,0,1-.128-.256.085.085,0,0,1,.1-.1.142.142,0,0,1,.064.016.142.142,0,0,0,.064.016q.512.128.992.24a4.352,4.352,0,0,0,.992.112q.9,0,1.088-.608a4.334,4.334,0,0,0,.192-1.312V21.288h-3.616v3.744h.9a1.251,1.251,0,0,1,.368-.688.949.949,0,0,1,.688-.3,1.038,1.038,0,0,1,1.056,1.056.943.943,0,0,1-.352.88,1.886,1.886,0,0,1-.96.208h-1.7v3.68h.9a1.235,1.235,0,0,1,.352-.7.958.958,0,0,1,.7-.288,1,1,0,0,1,.768.352,1.157,1.157,0,0,1,.32.8.823.823,0,0,1-.384.752,1.6,1.6,0,0,1-.864.24h-1.792v7.84H221.92v-7.84H219.1v7.9h-2.72V20.04h5.5V16.808h-6.656V15.464h6.656V10.632h2.88v4.832h5.44a1.526,1.526,0,0,1,.432-1.072,1.4,1.4,0,0,1,2.08,0A1.489,1.489,0,0,1,233.152,15.432Zm-2.5-4.1q0,.224-.544.8t-1.28,1.216q-.736.64-1.392,1.1a2.185,2.185,0,0,1-.88.464q-.288,0-.288-.32a5.428,5.428,0,0,1,.208-.672q.208-.608.5-1.424t.528-1.536q.24-.72.3-.944.64.16,1.3.368a8.483,8.483,0,0,1,1.232.5.942.942,0,0,1,.24.192A.387.387,0,0,1,230.656,11.336ZM247.68,23.112q-.288.672-.528,1.36t-.5,1.392q-.576,1.6-1.152,3.584a13.258,13.258,0,0,0-.576,3.68,8.362,8.362,0,0,0,.32,2.368,1.129,1.129,0,0,1,.1.448,1.805,1.805,0,0,1-.384,1.136,1.3,1.3,0,0,1-1.088.5,1.64,1.64,0,0,1-1.232-.624,11.471,11.471,0,0,1-.912-1.136,7.961,7.961,0,0,1-1.168-3.024,18.6,18.6,0,0,1-.3-3.248,23.466,23.466,0,0,1,.7-5.744q.7-2.8,1.376-5.616a7.375,7.375,0,0,0,.224-1.856,6.014,6.014,0,0,0-.256-1.68,5.6,5.6,0,0,0-.7-1.552l.032-.032h.064a2.1,2.1,0,0,1,.864.272,11.955,11.955,0,0,1,1.072.608,4.672,4.672,0,0,1,.752.56,5.623,5.623,0,0,1,1.232,1.536,3.842,3.842,0,0,1,.5,1.888,3.457,3.457,0,0,1-.432,1.664q-.432.8-.784,1.568-.48,1.024-1.056,2.5t-.992,2.944a9.778,9.778,0,0,0-.416,2.624q0,.192.048.624a2.912,2.912,0,0,0,.192.784.469.469,0,0,0,.432.352.522.522,0,0,0,.48-.272q.16-.272.288-.5l.624-1.248q.3-.608.624-1.216.608-1.184,1.184-2.368t1.184-2.368ZM263.136,33a1.509,1.509,0,0,1-.656,1.28,4.8,4.8,0,0,1-1.632.736,12.582,12.582,0,0,1-1.92.352q-.944.1-1.52.1a9.713,9.713,0,0,1-4.992-1.168,6.141,6.141,0,0,1-2.656-4.272,4.347,4.347,0,0,1-.08-.624q-.016-.3-.016-.624,0-.128.1-.128a.085.085,0,0,1,.1.1q.1.352.24.752a3.781,3.781,0,0,0,.368.752,4.7,4.7,0,0,0,1.632,1.36,4.31,4.31,0,0,0,2.048.592,19.459,19.459,0,0,0,1.968-.1,9.4,9.4,0,0,0,1.936-.416q.288-.1.56-.208t.56-.208a2.416,2.416,0,0,1,.768-.128,7.049,7.049,0,0,1,1.344.144,3.426,3.426,0,0,1,1.3.528A1.336,1.336,0,0,1,263.136,33Zm-2.272-14.688a1.136,1.136,0,0,1-.688,1.12,7.439,7.439,0,0,1-1.328.48,15.261,15.261,0,0,0-3.2,1.248,24.517,24.517,0,0,0-2.944,1.792l-.128-.1a10.038,10.038,0,0,1,.992-1.232q.608-.656,1.216-1.2a16.981,16.981,0,0,1-2.176-.672,4.092,4.092,0,0,1-1.792-1.312q-.128-.192-.256-.416a1.261,1.261,0,0,1-.16-.448,8.848,8.848,0,0,0,1.136.3,5.857,5.857,0,0,0,1.168.144,8.581,8.581,0,0,0,2.384-.336,10.954,10.954,0,0,0,2.224-.912,3.714,3.714,0,0,1,.464-.224,1.324,1.324,0,0,1,.5-.1,2.509,2.509,0,0,1,.88.208,5.865,5.865,0,0,1,.848.4,3.541,3.541,0,0,1,.64.48A1.066,1.066,0,0,1,260.864,18.312Zm35.616-1.888a1.332,1.332,0,0,1-.416,1.12,1.849,1.849,0,0,1-1.152.32.438.438,0,0,1-.1-.016.526.526,0,0,0-.128-.016q-.416-.064-.784-.128a4.575,4.575,0,0,0-.784-.064,22.588,22.588,0,0,0-2.7.16,7.3,7.3,0,0,0-2.544.8,4.408,4.408,0,0,0-1.7,1.5,8.767,8.767,0,0,0-1.072,2.224,13.593,13.593,0,0,0-.56,2.5,18.375,18.375,0,0,0-.16,2.288,9.869,9.869,0,0,0,.624,3.9A3.662,3.662,0,0,0,287.072,33a10.768,10.768,0,0,0,3.9.576,2.928,2.928,0,0,1,2.816,1.728q.1.192.176.4a1.194,1.194,0,0,1,.08.432,1.071,1.071,0,0,1-.544.992,3.531,3.531,0,0,1-1.248.432,7.9,7.9,0,0,1-1.216.112,13.258,13.258,0,0,1-3.792-.576A8.5,8.5,0,0,1,283.9,35.24a5.469,5.469,0,0,1-1.68-2.7,13.23,13.23,0,0,1-.368-3.184,13.539,13.539,0,0,1,1.52-6.448,25.673,25.673,0,0,1,3.856-5.392,23.959,23.959,0,0,0-4.752,1.7q-2.256,1.088-4.528,2.3a4.136,4.136,0,0,1-.656.32,2.1,2.1,0,0,1-.752.128A3.119,3.119,0,0,1,274.08,20.9a3.7,3.7,0,0,1-.928-2.528,1.926,1.926,0,0,1,.112-.64,4.937,4.937,0,0,1,.24-.576,2.014,2.014,0,0,0,1.136.848,4.688,4.688,0,0,0,1.424.24,16.536,16.536,0,0,0,3.3-.4q1.92-.4,4.016-1.008t3.984-1.28q1.888-.672,3.2-1.184h.416q.544,0,1.44.032a11.242,11.242,0,0,1,1.84.224,4.549,4.549,0,0,1,1.584.608A1.331,1.331,0,0,1,296.48,16.424Zm21.632,20.1q0,.544-.576.544a4.275,4.275,0,0,1-.5-.032,4.519,4.519,0,0,0-.528-.032l-2.016-.064q-1.024-.032-2.048-.032-1.888,0-3.808.1-.288.032-.576.048t-.544.016q-.576,0-.576-.544a.41.41,0,0,1,.208-.416,1.563,1.563,0,0,1,.464-.128q.192,0,.72.016t.656.016a6.6,6.6,0,0,0,1.04-.1.622.622,0,0,0,.592-.672q0-.992.016-2.72t.032-3.7q.016-1.968.016-3.632V16.008a.652.652,0,0,0-.048-.224.176.176,0,0,0-.176-.128,1.687,1.687,0,0,0-.432.1q-.3.1-.72.256-.544.192-1.184.448t-1.152.448a2.49,2.49,0,0,1-.7.192.587.587,0,0,1-.528-.272,1.068,1.068,0,0,1-.176-.592.359.359,0,0,1,.224-.336,1.592,1.592,0,0,1,.384-.144q.416-.128.832-.272t.832-.272q.224-.1.912-.336t1.568-.56q.88-.32,1.68-.576.736-.256,1.344-.432t.64-.176a.83.83,0,0,1,.4.08q.144.08.144.464,0,.128-.016.592t-.032,1.008q-.016.544-.016.992,0,2.3-.032,4.72T314.4,25.64q-.032,2.112-.032,4.224v4.224q0,.288.016.576t.016.576q0,.416.528.592a2.846,2.846,0,0,0,.848.176q.448,0,.912-.032t.944-.032a.412.412,0,0,1,.352.176A.663.663,0,0,1,318.112,36.52Zm12.7-1.184a6.65,6.65,0,0,1-.384,2.08,12.054,12.054,0,0,1-.992,2.208,8.261,8.261,0,0,1-1.28,1.728l-.7-.224a12.179,12.179,0,0,0,.992-2.256,7.627,7.627,0,0,0,.448-2.416.87.87,0,0,1-.4.224,1.8,1.8,0,0,1-.464.064,1.764,1.764,0,0,1-1.312-.608,1.914,1.914,0,0,1-.576-1.344,2.325,2.325,0,0,1,.624-1.7,2.239,2.239,0,0,1,1.68-.64,2.007,2.007,0,0,1,1.84.832A3.748,3.748,0,0,1,330.816,35.336Zm18.624-9.92q0-.864-.048-2.224a27.092,27.092,0,0,0-.256-2.832,15.162,15.162,0,0,0-.656-2.784,5.7,5.7,0,0,0-1.248-2.144,2.756,2.756,0,0,0-2.08-.832,2.545,2.545,0,0,0-1.968.864,6.873,6.873,0,0,0-1.3,2.224,15.427,15.427,0,0,0-.768,2.88q-.256,1.52-.352,2.88t-.1,2.192q0,.8.08,2.08t.3,2.672a13.888,13.888,0,0,0,.688,2.64,5.568,5.568,0,0,0,1.248,2.032,2.63,2.63,0,0,0,1.936.784,2.787,2.787,0,0,0,2.032-.8A5.841,5.841,0,0,0,348.272,33a13.8,13.8,0,0,0,.752-2.688,24.168,24.168,0,0,0,.336-2.736Q349.44,26.28,349.44,25.416ZM353.12,25a19.661,19.661,0,0,1-.272,3.168,15.762,15.762,0,0,1-.88,3.216A11.658,11.658,0,0,1,350.4,34.2a7.124,7.124,0,0,1-2.336,2,6.684,6.684,0,0,1-3.2.736A6.169,6.169,0,0,1,341.2,35.88a7.8,7.8,0,0,1-2.384-2.736,13.4,13.4,0,0,1-1.3-3.616,18.42,18.42,0,0,1-.4-3.728,20.136,20.136,0,0,1,.272-3.216,17.483,17.483,0,0,1,.864-3.28,11.592,11.592,0,0,1,1.552-2.9,7.266,7.266,0,0,1,2.352-2.064,6.686,6.686,0,0,1,3.28-.768,6.2,6.2,0,0,1,3.056.72,6.875,6.875,0,0,1,2.192,1.92,10.114,10.114,0,0,1,1.424,2.688,16.6,16.6,0,0,1,.768,3.072A20.207,20.207,0,0,1,353.12,25Zm16.8.416q0-.864-.048-2.224a27.092,27.092,0,0,0-.256-2.832,15.162,15.162,0,0,0-.656-2.784,5.7,5.7,0,0,0-1.248-2.144,2.756,2.756,0,0,0-2.08-.832,2.545,2.545,0,0,0-1.968.864,6.873,6.873,0,0,0-1.3,2.224,15.427,15.427,0,0,0-.768,2.88q-.256,1.52-.352,2.88t-.1,2.192q0,.8.08,2.08t.3,2.672a13.888,13.888,0,0,0,.688,2.64,5.567,5.567,0,0,0,1.248,2.032,2.63,2.63,0,0,0,1.936.784,2.787,2.787,0,0,0,2.032-.8A5.841,5.841,0,0,0,368.752,33a13.8,13.8,0,0,0,.752-2.688,24.168,24.168,0,0,0,.336-2.736Q369.92,26.28,369.92,25.416ZM373.6,25a19.661,19.661,0,0,1-.272,3.168,15.762,15.762,0,0,1-.88,3.216A11.658,11.658,0,0,1,370.88,34.2a7.124,7.124,0,0,1-2.336,2,6.684,6.684,0,0,1-3.2.736,6.169,6.169,0,0,1-3.664-1.056,7.8,7.8,0,0,1-2.384-2.736,13.4,13.4,0,0,1-1.3-3.616,18.42,18.42,0,0,1-.4-3.728,20.136,20.136,0,0,1,.272-3.216,17.483,17.483,0,0,1,.864-3.28,11.592,11.592,0,0,1,1.552-2.9,7.266,7.266,0,0,1,2.352-2.064,6.686,6.686,0,0,1,3.28-.768,6.2,6.2,0,0,1,3.056.72,6.875,6.875,0,0,1,2.192,1.92,10.114,10.114,0,0,1,1.424,2.688,16.6,16.6,0,0,1,.768,3.072A20.207,20.207,0,0,1,373.6,25Zm16.8.416q0-.864-.048-2.224a27.092,27.092,0,0,0-.256-2.832,15.162,15.162,0,0,0-.656-2.784,5.7,5.7,0,0,0-1.248-2.144,2.756,2.756,0,0,0-2.08-.832,2.545,2.545,0,0,0-1.968.864,6.873,6.873,0,0,0-1.3,2.224,15.427,15.427,0,0,0-.768,2.88q-.256,1.52-.352,2.88t-.1,2.192q0,.8.08,2.08t.3,2.672a13.888,13.888,0,0,0,.688,2.64,5.568,5.568,0,0,0,1.248,2.032,2.63,2.63,0,0,0,1.936.784,2.787,2.787,0,0,0,2.032-.8A5.841,5.841,0,0,0,389.232,33a13.8,13.8,0,0,0,.752-2.688,24.168,24.168,0,0,0,.336-2.736Q390.4,26.28,390.4,25.416ZM394.08,25a19.661,19.661,0,0,1-.272,3.168,15.762,15.762,0,0,1-.88,3.216A11.658,11.658,0,0,1,391.36,34.2a7.124,7.124,0,0,1-2.336,2,6.684,6.684,0,0,1-3.2.736,6.169,6.169,0,0,1-3.664-1.056,7.8,7.8,0,0,1-2.384-2.736,13.4,13.4,0,0,1-1.3-3.616,18.42,18.42,0,0,1-.4-3.728,20.136,20.136,0,0,1,.272-3.216,17.483,17.483,0,0,1,.864-3.28,11.592,11.592,0,0,1,1.552-2.9,7.266,7.266,0,0,1,2.352-2.064,6.686,6.686,0,0,1,3.28-.768,6.2,6.2,0,0,1,3.056.72,6.875,6.875,0,0,1,2.192,1.92,10.114,10.114,0,0,1,1.424,2.688,16.6,16.6,0,0,1,.768,3.072A20.207,20.207,0,0,1,394.08,25Zm17.472-.864V14.152h-7.008v9.984Zm13.856,7.1a21.408,21.408,0,0,1-.16,2.656,7.076,7.076,0,0,1-.672,2.3,3.855,3.855,0,0,1-1.5,1.616,5.2,5.2,0,0,1-4.4.208,17.04,17.04,0,0,1-2.016-.9q-.976-.512-1.584-.864-.1-.064-.224-.16a.277.277,0,0,1-.128-.224.2.2,0,0,1,.128-.208.652.652,0,0,1,.224-.048,1.016,1.016,0,0,1,.288.064q.992.224,2,.416a10.669,10.669,0,0,0,2,.192,2.677,2.677,0,0,0,1.632-.432,2.419,2.419,0,0,0,.832-1.136,5.344,5.344,0,0,0,.3-1.52q.048-.816.048-1.616,0-4.352-.016-8.72t-.048-8.72H414.4v9.984h3.072a1.121,1.121,0,0,1-.064-.352,1.559,1.559,0,0,1,.512-1.184,1.679,1.679,0,0,1,1.184-.48,1.582,1.582,0,0,1,1.184.5,1.624,1.624,0,0,1,.48,1.168,1.866,1.866,0,0,1-.416,1.152,1.306,1.306,0,0,1-1.088.544h-14.72V38.44h-3.1V12.808h23.968Zm21.536-4.48a.426.426,0,0,1-.1.256,1.684,1.684,0,0,0-.16.256,11.727,11.727,0,0,1-2.544,2.368,32.91,32.91,0,0,1-3.52,2.176,40.162,40.162,0,0,1-3.776,1.792q-1.872.768-3.312,1.216L431.808,32.2q1.28-.352,2.544-.72t2.512-.752V13.64h3.168v16q1.632-.576,3.2-1.264a25.708,25.708,0,0,0,3.04-1.584q.128-.064.24-.128a.476.476,0,0,1,.24-.064Q446.944,26.6,446.944,26.76ZM461.6,35.944a1.167,1.167,0,0,1-.448.944,1.526,1.526,0,0,1-.992.368,3.525,3.525,0,0,1-1.5-.4,12.722,12.722,0,0,1-1.376-.752,16.874,16.874,0,0,1-2.96-2.464,16.42,16.42,0,0,1-2.352-3.04,15.837,15.837,0,0,1-2.992,3.168,22.693,22.693,0,0,1-3.728,2.448,29.714,29.714,0,0,1-4,1.744l-.192.064a.709.709,0,0,1-.224.032.76.76,0,0,1-.208-.032.148.148,0,0,1-.112-.16q0-.192.448-.5t.944-.592q.5-.288.656-.384a34.676,34.676,0,0,0,2.8-2.1,27.042,27.042,0,0,0,2.72-2.576,15.962,15.962,0,0,0,2.064-2.752,14.9,14.9,0,0,0,1.68-4.672,44.392,44.392,0,0,0,.592-4.928q.128-1.568.192-3.136t.064-3.136l3.488.544a62.231,62.231,0,0,1-.64,7.232,32.136,32.136,0,0,1-1.792,6.976,19.491,19.491,0,0,0,2.128,4.24,31.307,31.307,0,0,0,2.9,3.728,1.561,1.561,0,0,1,.464-.944,1.291,1.291,0,0,1,.944-.4,1.342,1.342,0,0,1,1.024.448A1.463,1.463,0,0,1,461.6,35.944Zm-12.608-18.3a.424.424,0,0,1-.48.48,1.189,1.189,0,0,1-.608-.224q-1.248-.832-2.56-1.552a22.506,22.506,0,0,0-2.72-1.264l1.6-1.472.592-.592a.984.984,0,0,1,.72-.3.911.911,0,0,1,.7.32,7.207,7.207,0,0,1,.784.88q.464.592.912,1.3a11.744,11.744,0,0,1,.752,1.36A2.71,2.71,0,0,1,448.992,17.64ZM495.36,35.912a1.652,1.652,0,0,1-1.76,1.76H466.368l.032-1.44h11.712V12.3H481.5v9.856h7.2a.527.527,0,0,0-.016-.128.525.525,0,0,1-.016-.128,1.637,1.637,0,0,1,.592-1.264,1.908,1.908,0,0,1,1.3-.528,2.015,2.015,0,0,1,1.3.448,1.475,1.475,0,0,1,.56,1.216,1.851,1.851,0,0,1-.528,1.28,1.656,1.656,0,0,1-1.264.576H481.5V36.232H491.68a.356.356,0,0,1-.032-.16v-.16a1.677,1.677,0,0,1,.56-1.264,1.855,1.855,0,0,1,2.592,0A1.677,1.677,0,0,1,495.36,35.912Zm17.76-20a10.975,10.975,0,0,0-5.424,2.656,12.675,12.675,0,0,0-3.312,5.088,13.965,13.965,0,0,0-.48,1.648,7.728,7.728,0,0,0-.192,1.712,8.461,8.461,0,0,0,.128,1.328,3.709,3.709,0,0,0,.5,1.376,1.215,1.215,0,0,0,1.1.592,1.957,1.957,0,0,0,1.024-.288,6.862,6.862,0,0,0,.864-.608,11.753,11.753,0,0,0,2.464-2.7,17.282,17.282,0,0,0,1.76-3.424,24.634,24.634,0,0,0,1.1-3.744A21.575,21.575,0,0,0,513.12,15.912Zm13.248,9.024a11.647,11.647,0,0,1-.8,4.528,10.366,10.366,0,0,1-2.784,3.664,12.446,12.446,0,0,1-3.312,2.064,23.11,23.11,0,0,1-3.728,1.232q-.736.16-1.5.32a7.513,7.513,0,0,1-1.536.16q-.16,0-.16-.128a.125.125,0,0,1,.08-.128q.08-.032.144-.064.7-.256,1.424-.464a9.119,9.119,0,0,0,1.392-.528,11.226,11.226,0,0,0,5.3-4.512,13.225,13.225,0,0,0,1.68-6.784,8.829,8.829,0,0,0-1.28-4.752,8.118,8.118,0,0,0-3.744-3.152,6.751,6.751,0,0,0-2.88-.64,2.062,2.062,0,0,0-.256.016,2.339,2.339,0,0,1-.288.016q-.064.32-.112.624a4,4,0,0,0-.048.624,4.823,4.823,0,0,0,.24,1.5,4.823,4.823,0,0,1,.24,1.5,5.36,5.36,0,0,1-.08.912q-.08.464-.176.912a27.2,27.2,0,0,1-1.392,4.5,19.194,19.194,0,0,1-2.32,4.176,13.21,13.21,0,0,1-3.392,3.232q-.384.224-.8.416a2.039,2.039,0,0,1-.864.192,1.7,1.7,0,0,1-1.232-.368,1.768,1.768,0,0,1-.48-.928,6.937,6.937,0,0,1-.128-1.184,4.159,4.159,0,0,0-.176-1.136,2.392,2.392,0,0,0-.608-1.088L502.048,29a2.552,2.552,0,0,1-.608-.992,6.122,6.122,0,0,1-.256-2.048,6.349,6.349,0,0,1,.4-2.1,9.362,9.362,0,0,1,.912-1.936A14.5,14.5,0,0,1,515.424,14.7a13.426,13.426,0,0,1,6.08,1.312,8.686,8.686,0,0,1,4.032,4.64,8.687,8.687,0,0,1,.64,2.1A12.774,12.774,0,0,1,526.368,24.936Zm35.168-2.4a1.676,1.676,0,0,1-.48,1.264,1.764,1.764,0,0,1-1.28.464h-10.72V39.24H545.92v-12.1a35.356,35.356,0,0,1-4.048,5.184,23.6,23.6,0,0,1-5.136,4.128q-.224.128-.864.448t-1.28.592a2.856,2.856,0,0,1-.864.272.378.378,0,0,1-.16-.048.154.154,0,0,1-.1-.144q0-.128.32-.384t.672-.512a4.679,4.679,0,0,0,.448-.352,23.518,23.518,0,0,0,2.576-2.512q1.3-1.456,2.512-3.088t2.224-3.3a28.954,28.954,0,0,0,1.68-3.168h-9.472v-1.44H545.92V17.7h-9.056v-1.44h9.056V10.792h3.136v5.472h6.272a1,1,0,0,0-.016-.16,1,1,0,0,1-.016-.16,1.665,1.665,0,0,1,.544-1.232,1.741,1.741,0,0,1,1.248-.528,1.672,1.672,0,0,1,1.248.528,1.752,1.752,0,0,1,.512,1.264,1.6,1.6,0,0,1-.544,1.232,1.838,1.838,0,0,1-1.28.5h-7.968v5.12h8.928a.972.972,0,0,1-.032-.288,1.7,1.7,0,0,1,.544-1.264,1.778,1.778,0,0,1,1.28-.528,1.684,1.684,0,0,1,1.264.512A1.766,1.766,0,0,1,561.536,22.536Zm1.408,13.6a1.136,1.136,0,0,1-.448.912,1.486,1.486,0,0,1-.96.368,5.9,5.9,0,0,1-2.528-.64,14.46,14.46,0,0,1-2.56-1.568A23.86,23.86,0,0,1,554.4,33.48a22.3,22.3,0,0,1-2.752-3.264,39.766,39.766,0,0,1-2.24-3.648l3.1-1.44a32.579,32.579,0,0,0,1.344,3.04,31.821,31.821,0,0,0,1.824,3.168,22.419,22.419,0,0,0,2.224,2.88,14,14,0,0,0,2.48,2.176,1.489,1.489,0,0,1-.048-.176.9.9,0,0,1-.016-.176,1.151,1.151,0,0,1,.432-.912,1.426,1.426,0,0,1,.944-.368,1.122,1.122,0,0,1,.9.416A1.442,1.442,0,0,1,562.944,36.136Zm11.9-11.776H571.84V35.208h.992a1.551,1.551,0,0,0,1.408-.64,3.451,3.451,0,0,0,.512-1.536,15.179,15.179,0,0,0,.1-1.6Zm11.3,13.088V33.32h-3.2v4.128Zm0-5.344v-3.04h-3.2V32.1Zm0-4.288v-3.1h-3.2v3.1Zm10.3,9.5A1.393,1.393,0,0,1,596,38.36a1.471,1.471,0,0,1-1.056.432q-3.68,0-7.376-.016t-7.376-.016V32.872q0-2.944.032-5.888a13.361,13.361,0,0,1-1.3,1.424,15.131,15.131,0,0,1-1.456,1.232q0,.672-.032,1.632a15.485,15.485,0,0,1-.192,1.952,6.517,6.517,0,0,1-.544,1.792,2.355,2.355,0,0,1-1.12,1.152,3.309,3.309,0,0,1-1.168.32q-.656.064-1.232.064h-4v-10.4q-.16.224-.624.768t-1.024,1.152A13.156,13.156,0,0,1,566.5,29.1a1.374,1.374,0,0,1-.736.416q-.256,0-.256-.192a.616.616,0,0,1,.128-.288q.672-1.024,1.28-2.1t1.12-2.16q1.024-2.208,1.84-4.544A29.745,29.745,0,0,0,571.1,15.5h-3.776V14.28H575.1a1.348,1.348,0,0,1-.032-.32,1.561,1.561,0,0,1,.464-1.12,1.449,1.449,0,0,1,1.072-.48,1.433,1.433,0,0,1,1.088.48,1.59,1.59,0,0,1,.448,1.12,1.407,1.407,0,0,1-.48,1.12,1.7,1.7,0,0,1-1.152.416h-2.144q-.576,1.952-1.344,3.9a28.754,28.754,0,0,1-1.792,3.744h6.24v5.7a20.682,20.682,0,0,0,1.92-2.752,35.807,35.807,0,0,0,1.728-3.312q.8-1.744,1.472-3.456t1.184-3.184h-3.008v4h-2.5V14.952h5.888q.352-1.12.688-2.24t.56-2.24l3.232.928q-.256.9-.576,1.808t-.7,1.744h8.032a.71.71,0,0,1,.32.08.307.307,0,0,1,.16.3,2.91,2.91,0,0,1-.256.928q-.256.64-.656,1.424a15.509,15.509,0,0,1-.864,1.488,8.945,8.945,0,0,1-.9,1.168,1.164,1.164,0,0,1-.752.464.249.249,0,0,1-.272-.208,1.658,1.658,0,0,1-.048-.368q0-1.024.1-2.064t.192-2.032h-5.5q-.8,1.888-1.728,3.744a30.942,30.942,0,0,1-2.08,3.552h3.232a21.922,21.922,0,0,0,.56-2.448q.208-1.232.432-2.48.736.128,1.712.32t1.68.384a.334.334,0,0,1,.256.32.731.731,0,0,1-.16.416q-.224.288-.448.544t-.48.512L588.8,22.216l-1.088,1.216h4.864a.357.357,0,0,1-.032-.16,1.5,1.5,0,0,1,.448-1.072,1.434,1.434,0,0,1,2.112,0,1.5,1.5,0,0,1,.448,1.072,1.235,1.235,0,0,1-.544,1.04,1.912,1.912,0,0,1-1.152.4H589.12v3.1h2.912a.142.142,0,0,0-.016-.064.142.142,0,0,1-.016-.064,1.408,1.408,0,0,1,.416-1.008,1.33,1.33,0,0,1,.992-.432,1.476,1.476,0,0,1,1.44,1.44,1.235,1.235,0,0,1-.432,1.04,1.693,1.693,0,0,1-1.072.336H589.12V32.1h2.912a.142.142,0,0,0-.016-.064.142.142,0,0,1-.016-.064,1.426,1.426,0,0,1,.416-.992,1.308,1.308,0,0,1,.992-.448,1.476,1.476,0,0,1,1.44,1.44,1.267,1.267,0,0,1-.416.944,1.344,1.344,0,0,1-.96.4H589.12v4.128h4.32a1.759,1.759,0,0,1,.4-1.136,1.306,1.306,0,0,1,1.072-.5,1.5,1.5,0,0,1,1.072.448A1.421,1.421,0,0,1,596.448,37.32ZM31.328,83.88a1.3,1.3,0,0,1-.368.864,3.49,3.49,0,0,1-.72.64,10.888,10.888,0,0,1-2.48,1.136,20.733,20.733,0,0,1-2.912.72,16.389,16.389,0,0,1-2.768.256,18.414,18.414,0,0,1-4.112-.464,11.558,11.558,0,0,1-3.824-1.648,10.6,10.6,0,0,1-2.032-1.9q-.944-1.136-1.68-2.224a5,5,0,0,0-.384-.592,6.97,6.97,0,0,0-.608-.736q-.32-.336-.512-.336a3.156,3.156,0,0,0-.768.1,25.581,25.581,0,0,1-2.576,3.92A14.344,14.344,0,0,1,2.112,86.76a.731.731,0,0,1-.416.16q-.256,0-.256-.224A.344.344,0,0,1,1.5,86.5a.808.808,0,0,0,.1-.192q1.12-1.632,1.936-3.1a27.7,27.7,0,0,0,1.456-3.056q.64-1.584,1.216-3.472a28.075,28.075,0,0,0,.832-3.648l3.424.576a15.08,15.08,0,0,1-.656,2.448,23.608,23.608,0,0,1-.976,2.32,1.052,1.052,0,0,1,.256-.032h.256a1.4,1.4,0,0,1,.736.192,2.814,2.814,0,0,1,.5.4,4.637,4.637,0,0,1,.432.5q.832.9,1.7,1.792a12.284,12.284,0,0,0,1.888,1.6v-12.9h-7.1V68.552H21.856a1.435,1.435,0,0,1,.432-1.024A1.358,1.358,0,0,1,23.3,67.08a1.41,1.41,0,0,1,1.024.448,1.445,1.445,0,0,1,.448,1.056,1.245,1.245,0,0,1-.448.928,1.392,1.392,0,0,1-.96.416H17.5V75.4H24.1a1.738,1.738,0,0,1,.416-1.12,1.3,1.3,0,0,1,1.056-.512,1.384,1.384,0,0,1,1.072.48,1.583,1.583,0,0,1,.432,1.088,1.435,1.435,0,0,1-.432,1.024,1.358,1.358,0,0,1-1.008.448H17.5V84.3a22.69,22.69,0,0,0,3.12.8,17.764,17.764,0,0,0,3.184.288q1.344,0,2.688-.112t2.656-.336a1.342,1.342,0,0,1-.576-1.152,1.166,1.166,0,0,1,.464-.928,1.511,1.511,0,0,1,.976-.384,1.2,1.2,0,0,1,.928.432A1.43,1.43,0,0,1,31.328,83.88ZM29.92,62.92a8.194,8.194,0,0,1-.592,2.56,12.085,12.085,0,0,1-1.344,2.512,8.151,8.151,0,0,1-1.808,1.9.491.491,0,0,1-.192.064q-.352,0-.352-.384a5.644,5.644,0,0,1,.08-.928q.08-.48.112-.96.064-.832.144-1.664t.112-1.664H6.3v5.7H3.2V62.92H14.784q-.224-1.248-.464-2.5t-.5-2.5q1.088.032,2.176.1t2.176.224a2.531,2.531,0,0,1,.528.128.42.42,0,0,1,.272.448,2.3,2.3,0,0,1-.256.816q-.256.56-.608,1.216t-.688,1.216q-.336.56-.5.848ZM51.072,70.7a.7.7,0,0,1-.1.336.309.309,0,0,1-.288.176.468.468,0,0,1-.32-.112q-.128-.112-.256-.24-.96-1.12-1.984-2.128t-2.048-2l.592-.352q.432-.256.944-.528t.944-.464a1.939,1.939,0,0,1,.56-.192.475.475,0,0,1,.416.32,5.81,5.81,0,0,1,.416.96q.256.7.512,1.568t.432,1.6A5.231,5.231,0,0,1,51.072,70.7Zm4.352,1.248V64.2H43.968l-.1,7.744Zm9.5-.256a1.328,1.328,0,0,1-.656,1.264,2.862,2.862,0,0,1-1.424.368H58.432v8.128q0,1.024-.1,2.064a6.638,6.638,0,0,1-.448,1.9,3.052,3.052,0,0,1-1.12,1.392,3.618,3.618,0,0,1-2.08.528A4.924,4.924,0,0,1,52,86.52a24.389,24.389,0,0,1-2.336-1.68q-.032-.032-.112-.1a.173.173,0,0,1-.08-.128q0-.064.1-.064a.526.526,0,0,1,.128.016.438.438,0,0,0,.1.016,10.873,10.873,0,0,0,1.632.448,8.793,8.793,0,0,0,1.664.16,2.207,2.207,0,0,0,1.6-.48,2.243,2.243,0,0,0,.608-1.264,10.222,10.222,0,0,0,.128-1.648V73.32H50.56v9.7H47.808v-9.7H43.84v.8a17.626,17.626,0,0,1-.688,4.848,14.725,14.725,0,0,1-2.1,4.432,10.864,10.864,0,0,1-3.616,3.264,1.465,1.465,0,0,0-.192.08.5.5,0,0,1-.224.048q-.256,0-.256-.192a.323.323,0,0,1,.064-.208.567.567,0,0,0,.1-.176q.608-.8,1.2-1.6a11.465,11.465,0,0,0,1.04-1.7,15.491,15.491,0,0,0,1.424-4.7,36.2,36.2,0,0,0,.336-4.9H35.136V71.944h5.792V62.952h5.76a12.952,12.952,0,0,0,.8-2.288q.288-1.168.544-2.352.864.16,1.728.336a11.943,11.943,0,0,1,1.664.464,1.692,1.692,0,0,1,.368.128.353.353,0,0,1,.208.352.4.4,0,0,1-.128.288,2.4,2.4,0,0,1-.256.224q-.224.224-.448.432t-.48.432A15.9,15.9,0,0,1,47.9,62.952H58.432v8.992H61.6a2.047,2.047,0,0,1,.416-1.28,1.437,1.437,0,0,1,1.216-.544,1.8,1.8,0,0,1,1.168.432A1.4,1.4,0,0,1,64.928,71.688Zm24.448,4.544a23.413,23.413,0,0,1-2.944-3.52h-7.1q-.7.928-1.456,1.824t-1.584,1.728q3.264,0,6.544-.016T89.376,76.232Zm-3.712-4.9a16.3,16.3,0,0,1-.96-1.648q-.448-.88-.8-1.744H82.112q-.416.9-.9,1.728t-1.024,1.664Zm12.768,8.128a1.472,1.472,0,0,1-.4.928,1.144,1.144,0,0,1-.88.48,4.638,4.638,0,0,1-1.76-.416,13.432,13.432,0,0,1-2-1.056q-1.008-.64-1.888-1.312A18.516,18.516,0,0,1,90.08,76.9q-.064.8-.256,2.128T89.3,81.864a18.643,18.643,0,0,1-.88,2.864,6.927,6.927,0,0,1-1.344,2.208,2.513,2.513,0,0,1-1.888.848h-.416a3.08,3.08,0,0,1-.976-.528q-.656-.464-1.376-1.088A10.878,10.878,0,0,1,81.2,84.952a1.712,1.712,0,0,1-.5-.912q0-.1.128-.1a2.426,2.426,0,0,1,.688.3q.56.3,1.3.624a3.351,3.351,0,0,0,1.312.32,1.456,1.456,0,0,0,1.024-.352,2.468,2.468,0,0,0,.608-.9,7.774,7.774,0,0,0,.592-1.84q.24-1.136.384-2.3a12.455,12.455,0,0,0,.112-1.968v-.32l-3.264.032a11.448,11.448,0,0,1-1.392,3.168A17.624,17.624,0,0,1,79.9,83.64a16.625,16.625,0,0,1-2.848,2.368A12,12,0,0,1,73.92,87.5q-.16.032-.336.08a1.277,1.277,0,0,1-.336.048.687.687,0,0,1-.176-.032.13.13,0,0,1-.112-.128.32.32,0,0,1,.128-.24q.128-.112.192-.176a27.257,27.257,0,0,0,3.1-2.672,13.949,13.949,0,0,0,2.272-3.024,15.731,15.731,0,0,0,1.472-3.808H75.712v-.736a23.826,23.826,0,0,1-1.952,1.52A22.931,22.931,0,0,1,71.392,79.8a14.487,14.487,0,0,1-2.272,1.008,1.205,1.205,0,0,1-.48.1.875.875,0,0,1-.192-.032.151.151,0,0,1-.128-.16.258.258,0,0,1,.1-.208q.1-.08.16-.144a47.173,47.173,0,0,0,4.16-3.488,25.33,25.33,0,0,0,3.488-4.16H69.152V71.336h8.032q.512-.8.944-1.648t.816-1.744H71.552V66.568h7.936q.352-.832.64-1.664t.544-1.7q.352-1.152.592-2.336t.5-2.368l3.744,1.12q-.544,1.76-1.216,3.5t-1.5,3.44h8.032a2,2,0,0,1,.432-1.28,1.447,1.447,0,0,1,1.2-.544,1.694,1.694,0,0,1,1.664,1.664,1.394,1.394,0,0,1-.528,1.072,1.692,1.692,0,0,1-1.136.464h-5.5a15.916,15.916,0,0,0,.8,1.728l.9,1.664h6.048a.355.355,0,0,0-.016-.112.263.263,0,0,1-.016-.08,1.67,1.67,0,0,1,.5-1.168,1.552,1.552,0,0,1,1.168-.528,1.57,1.57,0,0,1,1.152.528,1.644,1.644,0,0,1,.512,1.168,1.353,1.353,0,0,1-.576,1.136,2,2,0,0,1-1.216.432H89.6a31.552,31.552,0,0,0,2.672,3.552,20.894,20.894,0,0,0,3.216,3.04A1.409,1.409,0,0,1,96,78.376a1.451,1.451,0,0,1,.96-.384A1.393,1.393,0,0,1,98,78.44,1.435,1.435,0,0,1,98.432,79.464ZM78.368,65.352a.733.733,0,0,1-.1.384.376.376,0,0,1-.352.16.681.681,0,0,1-.336-.08,2.375,2.375,0,0,1-.272-.176q-.352-.32-.672-.672t-.672-.672q-.608-.64-1.248-1.264T73.44,61.8q.192-.128.64-.416t.96-.608q.512-.32.944-.56a1.593,1.593,0,0,1,.592-.24.606.606,0,0,1,.48.224,3,3,0,0,1,.3.832q.208.736.432,1.664t.4,1.7A6.243,6.243,0,0,1,78.368,65.352Zm13.376-3.616q0,.192-.5.688T90,63.544q-.752.624-1.552,1.2a17.115,17.115,0,0,1-1.44.944,2.34,2.34,0,0,1-.864.368q-.256,0-.256-.288a.74.74,0,0,1,.064-.3,1.673,1.673,0,0,0,.1-.272q.544-1.248,1.056-2.512t.96-2.544q.8.224,1.584.528t1.552.624a1.168,1.168,0,0,1,.352.144A.34.34,0,0,1,91.744,61.736Zm34.176,8.1a1.23,1.23,0,0,0-.64-1.12,2.47,2.47,0,0,0-1.28-.384,3.3,3.3,0,0,0-1.936.7,10.2,10.2,0,0,0-1.856,1.76,21.307,21.307,0,0,0-1.568,2.128q-.688,1.072-1.1,1.84l2.624-1.28q1.312-.64,2.624-1.248.544-.256,1.056-.464a9,9,0,0,0,1.024-.5,3.907,3.907,0,0,0,.752-.544A1.182,1.182,0,0,0,125.92,69.832Zm3.68,1.6a2.173,2.173,0,0,1-.592,1.632,2.582,2.582,0,0,1-1.616.672,26.122,26.122,0,0,0-5.136.96,34.619,34.619,0,0,0-4.912,1.856q0,.928-.016,1.872t-.016,1.872a2.221,2.221,0,0,1-.192.912.755.755,0,0,1-.768.432,1.791,1.791,0,0,1-1.6-.624,3.056,3.056,0,0,1-.416-1.712q0-.352.016-.72t.048-.72q-.544.288-1.232.736A5.2,5.2,0,0,0,112,79.624a1.993,1.993,0,0,0-.48,1.312,1.869,1.869,0,0,0,.752,1.568,4.611,4.611,0,0,0,1.76.816,7.893,7.893,0,0,0,1.808.24,19.487,19.487,0,0,0,2.512-.16q1.232-.16,2.48-.416a2.387,2.387,0,0,1,.24-.048,1.7,1.7,0,0,1,.24-.016,6.042,6.042,0,0,1,1.248.128,2.2,2.2,0,0,1,1.024.5A1.484,1.484,0,0,1,124,84.712a1.2,1.2,0,0,1-.608,1.04,4.9,4.9,0,0,1-1.472.624,10.922,10.922,0,0,1-1.7.3q-.832.08-1.312.08-.96,0-1.92-.048t-1.888-.176a10.236,10.236,0,0,1-2.256-.672,4.936,4.936,0,0,1-1.872-1.344,3.238,3.238,0,0,1-.736-2.176,4.189,4.189,0,0,1,.688-2.272,9.3,9.3,0,0,1,1.7-1.984,15.653,15.653,0,0,1,1.9-1.472q.032-.384.048-.768t.016-.736q0-.512-.016-1.008T114.56,73.1a1.429,1.429,0,0,0-1.6-1.632,1.835,1.835,0,0,0-1.056.3,3.072,3.072,0,0,0-.8.816,21.64,21.64,0,0,0-2.208,4.16q-.064.192-.144.4t-.176.4a4.588,4.588,0,0,1-.72.88,1.417,1.417,0,0,1-.976.5,1.218,1.218,0,0,1-.992-.384,1.974,1.974,0,0,1-.416-.96,6.632,6.632,0,0,1-.1-1.088,2.268,2.268,0,0,1,.368-1.328,3.753,3.753,0,0,1,.976-.944,12.092,12.092,0,0,0,1.488-1.264q.688-.688,1.3-1.424a8.391,8.391,0,0,0,1.216-1.888q.48-1.024.928-2.048l-.512.064a4.123,4.123,0,0,1-.512.032,9.185,9.185,0,0,1-2-.24,4.5,4.5,0,0,1-1.84-.848,2.38,2.38,0,0,1-.864-1.76,6.776,6.776,0,0,0,1.312.416,6.372,6.372,0,0,0,1.344.16,8.225,8.225,0,0,0,2.032-.256,17.83,17.83,0,0,0,1.936-.608,13.18,13.18,0,0,0,.432-1.44,6.31,6.31,0,0,0,.176-1.472,1.8,1.8,0,0,0-.432-1.168,1.975,1.975,0,0,0-1.072-.688,2.18,2.18,0,0,1,.992-.5,4.886,4.886,0,0,1,1.12-.144,2.7,2.7,0,0,1,1.216.3,3.071,3.071,0,0,1,1.024.816,1.78,1.78,0,0,1,.416,1.152,1.743,1.743,0,0,1-.336.848,7.528,7.528,0,0,0-.5.88,2.422,2.422,0,0,0,.9-.416q.448-.32.88-.608a1.4,1.4,0,0,1,.72-.288,2.428,2.428,0,0,1,1.344.416,1.331,1.331,0,0,1,.64,1.184,1.084,1.084,0,0,1-.432.928,8.884,8.884,0,0,1-.88.576,21.8,21.8,0,0,1-2.432,1.248q-1.248.544-2.56.992-.512.96-.928,1.952t-.864,2.016q.288-.1.784-.272a2.491,2.491,0,0,1,.752-.176,3.155,3.155,0,0,1,2.064.576,3.212,3.212,0,0,1,.992,1.536,12.863,12.863,0,0,1,.464,2.112q.448-.96,1.136-2.144a22.348,22.348,0,0,1,1.568-2.336,12.564,12.564,0,0,1,1.888-2,5.062,5.062,0,0,1,2.1-1.1,2.867,2.867,0,0,1,.528-.08q.272-.016.528-.016a5.244,5.244,0,0,1,2.288.528,5,5,0,0,1,1.824,1.456A3.5,3.5,0,0,1,129.6,71.432Zm29.28-5.312q0-1.312-.016-2.592t-.016-2.56h-7.936V64.68h4.064a1.393,1.393,0,0,1,.384-.944,1.167,1.167,0,0,1,.9-.432,1.239,1.239,0,0,1,.928.4,1.318,1.318,0,0,1,.384.944,1.127,1.127,0,0,1-.432.944,1.548,1.548,0,0,1-.976.336h-5.248v3.3h5.7a2.147,2.147,0,0,0,1.472-.432,2.119,2.119,0,0,0,.64-1.152A6.992,6.992,0,0,0,158.88,66.12Zm-12.48-.352a1.141,1.141,0,0,1-.4.9,1.383,1.383,0,0,1-.944.352h-2.4v4.832q.832-.288,1.616-.592t1.584-.656a.491.491,0,0,1,.192-.064.17.17,0,0,1,.192.192q0,.224-.464.656a11.721,11.721,0,0,1-1.1.9q-.64.464-1.216.832t-.8.528v7.872q0,.928-.064,1.824a5.225,5.225,0,0,1-.368,1.632,2.611,2.611,0,0,1-.96,1.184,3.3,3.3,0,0,1-1.872.448,3.507,3.507,0,0,1-1.888-.56q-.9-.56-1.728-1.072a.272.272,0,0,0-.144-.112.155.155,0,0,1-.112-.144q0-.064.112-.1a.72.72,0,0,1,.144-.032,5.546,5.546,0,0,1,.944.08,5.545,5.545,0,0,0,.944.08,2.075,2.075,0,0,0,1.472-.432,1.966,1.966,0,0,0,.56-1.152,9.889,9.889,0,0,0,.112-1.52V75.272q-1.792.9-3.712,1.664l-1.312-2.624q1.248-.416,2.512-.816t2.512-.816q-.032-1.408-.032-2.832V67.016h-4.128V65.832h4.128q0-1.7-.016-3.408t-.016-3.408h2.912v6.816h1.216a1.568,1.568,0,0,1,.352-.992,1.092,1.092,0,0,1,.9-.448,1.151,1.151,0,0,1,.912.432A1.425,1.425,0,0,1,146.4,65.768ZM166.016,84.68a1.591,1.591,0,0,1-.768,1.36,6.159,6.159,0,0,1-1.888.832,15.211,15.211,0,0,1-2.208.432,15.491,15.491,0,0,1-1.7.128,14.565,14.565,0,0,1-4-.528,8.5,8.5,0,0,1-4.816-3.616,13.523,13.523,0,0,0-1.232-1.648q-.16-.16-.336-.3a1.977,1.977,0,0,0-.368-.24,22,22,0,0,1-2.272,3.072,12.612,12.612,0,0,1-2.944,2.432,2.107,2.107,0,0,1-.32.192.852.852,0,0,1-.384.1q-.16,0-.16-.1a.3.3,0,0,1,.08-.192q.08-.1.112-.128a26.475,26.475,0,0,0,2.032-2.784,18.023,18.023,0,0,0,1.552-3.072q.512-1.344.96-2.736a18.525,18.525,0,0,0,.672-2.832l2.528.736a2.513,2.513,0,0,1,.352.128q.224.1.224.256a2.428,2.428,0,0,1-.208.784q-.208.528-.512,1.136t-.592,1.136q-.288.528-.448.816a5.4,5.4,0,0,1,2.176,1.424q.96,1.008,1.92,1.84v-9.76h-8.32V72.328h17.12q-.032-.128-.048-.224a1.166,1.166,0,0,1-.016-.192,1.546,1.546,0,0,1,.5-1.152,1.588,1.588,0,0,1,1.136-.48,1.556,1.556,0,0,1,1.168.48,1.682,1.682,0,0,1,0,2.32,1.624,1.624,0,0,1-1.2.464h-7.52l-.032,4.128h4.352a1.76,1.76,0,0,1,.384-1.1,1.23,1.23,0,0,1,1.024-.5,1.476,1.476,0,0,1,1.44,1.44,1.372,1.372,0,0,1-1.44,1.44h-5.76v6.016a15.406,15.406,0,0,0,2.32.72,10.757,10.757,0,0,0,2.384.272q.64,0,1.264-.032a6.045,6.045,0,0,0,1.232-.192,1.481,1.481,0,0,1-.448-1.088,1.378,1.378,0,0,1,.448-1.056,1.5,1.5,0,0,1,1.056-.416,1.471,1.471,0,0,1,1.056.432A1.429,1.429,0,0,1,166.016,84.68ZM161.7,66.7a3.277,3.277,0,0,1-1.264,2.9,5.271,5.271,0,0,1-3.088.88h-9.152V59.72h13.5Zm17.76,8.768a22.556,22.556,0,0,1-1.936,2.688,25.642,25.642,0,0,1-2.288,2.4q-.64.608-1.568,1.328t-1.92,1.344a10.71,10.71,0,0,1-1.824.944.666.666,0,0,1-.256.032.6.6,0,0,1-.24-.048.175.175,0,0,1-.112-.176.339.339,0,0,1,.08-.224q.08-.1.144-.16a28.217,28.217,0,0,0,3.84-4.5,22.913,22.913,0,0,0,2.752-5.2q.832.416,1.68.784T179.456,75.464Zm18.976-5.6a1.465,1.465,0,0,1-.528,1.2,1.933,1.933,0,0,1-1.264.432h-11.1V83.08a9.421,9.421,0,0,1-.288,2.384,3.076,3.076,0,0,1-3.36,2.448,4.581,4.581,0,0,1-1.776-.416,13.554,13.554,0,0,1-1.872-.976q-.9-.56-1.536-1.04-.064-.064-.16-.144a.229.229,0,0,1-.1-.176q0-.128.192-.128a1.166,1.166,0,0,1,.192.016,1.265,1.265,0,0,1,.192.048,10.983,10.983,0,0,0,1.584.336,11.872,11.872,0,0,0,1.616.112q.352,0,.688-.032a1.579,1.579,0,0,0,.624-.192,1.233,1.233,0,0,0,.544-.736,4.5,4.5,0,0,0,.192-1.1q.032-.592.032-.976V71.5H170.176V70.152h24.9a.742.742,0,0,0-.016-.144.742.742,0,0,1-.016-.144,1.582,1.582,0,0,1,.544-1.184,1.733,1.733,0,0,1,1.216-.512,1.52,1.52,0,0,1,1.136.528A1.67,1.67,0,0,1,198.432,69.864Zm1.024,13.056a1.635,1.635,0,0,1-.464,1.12,1.442,1.442,0,0,1-1.1.512,3.255,3.255,0,0,1-1.344-.384,12.855,12.855,0,0,1-1.568-.9q-.768-.512-1.216-.864a22.229,22.229,0,0,1-2.4-2.3q-1.12-1.248-2.208-2.528-.064-.1-.384-.48t-.624-.768a2.811,2.811,0,0,1-.3-.416q0-.064.4-.32t.96-.576q.56-.32,1.04-.576t.64-.352a31.423,31.423,0,0,0,2.384,4.576,24.56,24.56,0,0,0,3.12,4.064,1.654,1.654,0,0,1,.528-.944,1.437,1.437,0,0,1,1.008-.4,1.53,1.53,0,0,1,1.536,1.536ZM193.92,61.768a1.645,1.645,0,0,1-1.568,1.568H174.08V61.96h16.512a1.85,1.85,0,0,1,.464-1.264,1.524,1.524,0,0,1,1.2-.528,1.642,1.642,0,0,1,1.152.48A1.49,1.49,0,0,1,193.92,61.768Zm34.624,2.656a1.307,1.307,0,0,1-.432,1.12,1.921,1.921,0,0,1-1.168.32.438.438,0,0,1-.1-.016.526.526,0,0,0-.128-.016q-.416-.064-.784-.128a4.575,4.575,0,0,0-.784-.064,22.587,22.587,0,0,0-2.7.16,7.3,7.3,0,0,0-2.544.8,4.408,4.408,0,0,0-1.7,1.5,8.389,8.389,0,0,0-1.056,2.224,14.488,14.488,0,0,0-.544,2.5,18.372,18.372,0,0,0-.16,2.288,10.1,10.1,0,0,0,.608,3.9A3.6,3.6,0,0,0,219.1,81a10.768,10.768,0,0,0,3.9.576,2.928,2.928,0,0,1,2.816,1.728q.1.192.176.4a1.193,1.193,0,0,1,.08.432,1.071,1.071,0,0,1-.544.992,3.532,3.532,0,0,1-1.248.432,7.9,7.9,0,0,1-1.216.112A13.1,13.1,0,0,1,219.3,85.1a8.507,8.507,0,0,1-3.328-1.856,5.469,5.469,0,0,1-1.68-2.7,13.23,13.23,0,0,1-.368-3.184,13.656,13.656,0,0,1,1.5-6.448,24.647,24.647,0,0,1,3.872-5.392,23.776,23.776,0,0,0-4.784,1.7q-2.256,1.088-4.528,2.3a4.135,4.135,0,0,1-.656.32,2.1,2.1,0,0,1-.752.128,3.119,3.119,0,0,1-2.464-1.056,3.7,3.7,0,0,1-.928-2.528,1.927,1.927,0,0,1,.112-.64,4.936,4.936,0,0,1,.24-.576,2.014,2.014,0,0,0,1.136.848,4.688,4.688,0,0,0,1.424.24,16.536,16.536,0,0,0,3.3-.4q1.92-.4,4.016-1.008t3.984-1.28q1.888-.672,3.2-1.184h.416q.544,0,1.456.032a10.968,10.968,0,0,1,1.84.224,4.721,4.721,0,0,1,1.584.608A1.324,1.324,0,0,1,228.544,64.424Zm-.32,7.264a1.51,1.51,0,0,1-.272.9.968.968,0,0,1-.848.384.772.772,0,0,1-.608-.3,2.527,2.527,0,0,1-.384-.592q-.224-.544-.512-1.088a4.131,4.131,0,0,0-.736-.992,3.289,3.289,0,0,0-.864-.608q-.128-.064-.128-.128t.1-.064a6.549,6.549,0,0,1,1.264.144,6.751,6.751,0,0,1,1.408.448,3.549,3.549,0,0,1,1.136.768A1.574,1.574,0,0,1,228.224,71.688Zm3.648-1.6a1.24,1.24,0,0,1-.336.832,1.046,1.046,0,0,1-.816.384.764.764,0,0,1-.512-.192,2.34,2.34,0,0,1-.384-.416,8.453,8.453,0,0,0-1.264-1.6,7.162,7.162,0,0,0-1.648-1.184.619.619,0,0,0-.112-.08q-.08-.048-.08-.08,0-.1.336-.128t.4-.032a13.22,13.22,0,0,1,1.392.08,5.9,5.9,0,0,1,1.44.336,2.83,2.83,0,0,1,1.136.752A1.906,1.906,0,0,1,231.872,70.088ZM252.544,77.1a7.365,7.365,0,0,1-.8,3.536,7.172,7.172,0,0,1-2.16,2.464,9.444,9.444,0,0,1-3.088,1.44,13.637,13.637,0,0,1-3.552.464,13.263,13.263,0,0,1-2.176-.192,6.968,6.968,0,0,1-2.144-.72,3.907,3.907,0,0,1-1.568-1.52,4.014,4.014,0,0,1-.32-.784,2.976,2.976,0,0,1-.128-.848,1.376,1.376,0,0,1,.512-1.2,2.194,2.194,0,0,1,1.312-.368,1.984,1.984,0,0,1,.48.064.873.873,0,0,1,.416.224.851.851,0,0,1,.32.64,6.993,6.993,0,0,0,.48,1.664,3.771,3.771,0,0,0,.992,1.392,2.342,2.342,0,0,0,1.6.56q3.232,0,4.608-1.616A7.267,7.267,0,0,0,248.7,77.48a5.487,5.487,0,0,0-1.072-3.424,3.787,3.787,0,0,0-3.216-1.408,5.783,5.783,0,0,0-.848.064l-.848.128a2.059,2.059,0,0,0-.528.144,1.458,1.458,0,0,1-.56.112q-.544,0-.544-.608,0-.672.272-.72a4.314,4.314,0,0,1,.72-.048q.608,0,1.28-.016a4.7,4.7,0,0,0,1.216-.176,4.019,4.019,0,0,0,2.544-1.616,5.371,5.371,0,0,0,.752-2.96,7.21,7.21,0,0,0-.32-2.192,3.262,3.262,0,0,0-1.088-1.616,3.374,3.374,0,0,0-2.144-.608,3.566,3.566,0,0,0-3.04,1.312,5.2,5.2,0,0,0-.992,3.232.6.6,0,0,1-.288.576,1.361,1.361,0,0,1-.672.16,2.5,2.5,0,0,1-1.376-.368,1.383,1.383,0,0,1-.576-1.264,2.663,2.663,0,0,1,.288-.992,4.815,4.815,0,0,1,.512-.928,6.47,6.47,0,0,1,3.168-2.224,12.459,12.459,0,0,1,3.872-.624,7.934,7.934,0,0,1,2.928.56,5.707,5.707,0,0,1,2.352,1.68,4.266,4.266,0,0,1,.928,2.816,4.42,4.42,0,0,1-.656,2.288,7.257,7.257,0,0,1-1.52,1.84,6.613,6.613,0,0,1-1.36.88,9.519,9.519,0,0,1-1.52.592q.608.032,1.312.1a4.69,4.69,0,0,1,1.28.288,5.881,5.881,0,0,1,2.56,1.744A4.312,4.312,0,0,1,252.544,77.1Zm16.9-3.68q0-.864-.048-2.224a27.092,27.092,0,0,0-.256-2.832,15.162,15.162,0,0,0-.656-2.784,5.7,5.7,0,0,0-1.248-2.144,2.756,2.756,0,0,0-2.08-.832,2.545,2.545,0,0,0-1.968.864,6.873,6.873,0,0,0-1.3,2.224,15.427,15.427,0,0,0-.768,2.88q-.256,1.52-.352,2.88t-.1,2.192q0,.8.08,2.08t.3,2.672a13.888,13.888,0,0,0,.688,2.64,5.568,5.568,0,0,0,1.248,2.032,2.63,2.63,0,0,0,1.936.784,2.787,2.787,0,0,0,2.032-.8A5.841,5.841,0,0,0,268.272,81a13.8,13.8,0,0,0,.752-2.688,24.168,24.168,0,0,0,.336-2.736Q269.44,74.28,269.44,73.416ZM273.12,73a19.661,19.661,0,0,1-.272,3.168,15.762,15.762,0,0,1-.88,3.216A11.658,11.658,0,0,1,270.4,82.2a7.124,7.124,0,0,1-2.336,2,6.684,6.684,0,0,1-3.2.736A6.169,6.169,0,0,1,261.2,83.88a7.8,7.8,0,0,1-2.384-2.736,13.4,13.4,0,0,1-1.3-3.616,18.42,18.42,0,0,1-.4-3.728,20.136,20.136,0,0,1,.272-3.216,17.483,17.483,0,0,1,.864-3.28,11.592,11.592,0,0,1,1.552-2.9,7.266,7.266,0,0,1,2.352-2.064,6.686,6.686,0,0,1,3.28-.768,6.2,6.2,0,0,1,3.056.72,6.875,6.875,0,0,1,2.192,1.92,10.114,10.114,0,0,1,1.424,2.688,16.6,16.6,0,0,1,.768,3.072A20.207,20.207,0,0,1,273.12,73Zm16.8.416q0-.864-.048-2.224a27.092,27.092,0,0,0-.256-2.832,15.162,15.162,0,0,0-.656-2.784,5.7,5.7,0,0,0-1.248-2.144,2.756,2.756,0,0,0-2.08-.832,2.545,2.545,0,0,0-1.968.864,6.873,6.873,0,0,0-1.3,2.224,15.427,15.427,0,0,0-.768,2.88q-.256,1.52-.352,2.88t-.1,2.192q0,.8.08,2.08t.3,2.672a13.888,13.888,0,0,0,.688,2.64,5.567,5.567,0,0,0,1.248,2.032,2.63,2.63,0,0,0,1.936.784,2.787,2.787,0,0,0,2.032-.8A5.841,5.841,0,0,0,288.752,81a13.8,13.8,0,0,0,.752-2.688,24.168,24.168,0,0,0,.336-2.736Q289.92,74.28,289.92,73.416ZM293.6,73a19.661,19.661,0,0,1-.272,3.168,15.762,15.762,0,0,1-.88,3.216A11.658,11.658,0,0,1,290.88,82.2a7.124,7.124,0,0,1-2.336,2,6.684,6.684,0,0,1-3.2.736,6.169,6.169,0,0,1-3.664-1.056,7.8,7.8,0,0,1-2.384-2.736,13.4,13.4,0,0,1-1.3-3.616,18.42,18.42,0,0,1-.4-3.728,20.136,20.136,0,0,1,.272-3.216,17.483,17.483,0,0,1,.864-3.28,11.592,11.592,0,0,1,1.552-2.9,7.266,7.266,0,0,1,2.352-2.064,6.686,6.686,0,0,1,3.28-.768,6.2,6.2,0,0,1,3.056.72,6.875,6.875,0,0,1,2.192,1.92,10.114,10.114,0,0,1,1.424,2.688,16.6,16.6,0,0,1,.768,3.072A20.207,20.207,0,0,1,293.6,73Zm17.472-.864V62.152h-7.008v9.984Zm13.856,7.1a21.408,21.408,0,0,1-.16,2.656,7.076,7.076,0,0,1-.672,2.3,3.855,3.855,0,0,1-1.5,1.616,5.2,5.2,0,0,1-4.4.208,17.041,17.041,0,0,1-2.016-.9q-.976-.512-1.584-.864-.1-.064-.224-.16a.277.277,0,0,1-.128-.224.2.2,0,0,1,.128-.208.652.652,0,0,1,.224-.048,1.016,1.016,0,0,1,.288.064q.992.224,2,.416a10.669,10.669,0,0,0,2,.192,2.677,2.677,0,0,0,1.632-.432,2.419,2.419,0,0,0,.832-1.136,5.344,5.344,0,0,0,.3-1.52q.048-.816.048-1.616,0-4.352-.016-8.72t-.048-8.72H313.92v9.984h3.072a1.121,1.121,0,0,1-.064-.352,1.559,1.559,0,0,1,.512-1.184,1.679,1.679,0,0,1,1.184-.48,1.582,1.582,0,0,1,1.184.5,1.624,1.624,0,0,1,.48,1.168,1.866,1.866,0,0,1-.416,1.152,1.306,1.306,0,0,1-1.088.544h-14.72V86.44h-3.1V60.808h23.968ZM345.44,63.912a10.975,10.975,0,0,0-5.424,2.656,12.675,12.675,0,0,0-3.312,5.088,13.965,13.965,0,0,0-.48,1.648,7.728,7.728,0,0,0-.192,1.712,8.461,8.461,0,0,0,.128,1.328,3.709,3.709,0,0,0,.5,1.376,1.215,1.215,0,0,0,1.1.592,1.957,1.957,0,0,0,1.024-.288,6.862,6.862,0,0,0,.864-.608,11.753,11.753,0,0,0,2.464-2.7,17.282,17.282,0,0,0,1.76-3.424,24.638,24.638,0,0,0,1.1-3.744A21.578,21.578,0,0,0,345.44,63.912Zm13.248,9.024a11.649,11.649,0,0,1-.8,4.528,10.367,10.367,0,0,1-2.784,3.664,12.447,12.447,0,0,1-3.312,2.064,23.111,23.111,0,0,1-3.728,1.232q-.736.16-1.5.32a7.513,7.513,0,0,1-1.536.16q-.16,0-.16-.128a.125.125,0,0,1,.08-.128q.08-.032.144-.064.7-.256,1.424-.464a9.117,9.117,0,0,0,1.392-.528,11.226,11.226,0,0,0,5.3-4.512,13.224,13.224,0,0,0,1.68-6.784,8.829,8.829,0,0,0-1.28-4.752,8.118,8.118,0,0,0-3.744-3.152,6.751,6.751,0,0,0-2.88-.64,2.062,2.062,0,0,0-.256.016,2.339,2.339,0,0,1-.288.016q-.064.32-.112.624a4,4,0,0,0-.048.624,4.822,4.822,0,0,0,.24,1.5,4.822,4.822,0,0,1,.24,1.5,5.363,5.363,0,0,1-.08.912q-.08.464-.176.912a27.2,27.2,0,0,1-1.392,4.5,19.2,19.2,0,0,1-2.32,4.176,13.21,13.21,0,0,1-3.392,3.232q-.384.224-.8.416a2.039,2.039,0,0,1-.864.192,1.7,1.7,0,0,1-1.232-.368,1.768,1.768,0,0,1-.48-.928,6.937,6.937,0,0,1-.128-1.184,4.158,4.158,0,0,0-.176-1.136,2.392,2.392,0,0,0-.608-1.088L334.368,77a2.552,2.552,0,0,1-.608-.992,6.122,6.122,0,0,1-.256-2.048,6.349,6.349,0,0,1,.4-2.1,9.362,9.362,0,0,1,.912-1.936A14.5,14.5,0,0,1,347.744,62.7a13.426,13.426,0,0,1,6.08,1.312,10.074,10.074,0,0,1,4.672,6.736A12.774,12.774,0,0,1,358.688,72.936Zm19.552,6.112h-7.072v6.528h4.1a3,3,0,0,0,2.192-.768,2.864,2.864,0,0,0,.784-2.144Zm3.072-1.184q-.032,1.088-.032,2.16v2.16a4.059,4.059,0,0,1-1.5,3.616,6.743,6.743,0,0,1-3.872,1.024H368.16v-8.96Zm2.4-3.168a1.423,1.423,0,0,1-1.376,1.376h-17.12V74.92h8.032V72.072h-5.664v-1.12h5.664V68.584h-3.68V67.432h3.68V64.616h2.88v2.816h.96l-.016-.032a.142.142,0,0,1-.016-.064,1.165,1.165,0,0,1,.368-.848,1.2,1.2,0,0,1,.88-.368,1.114,1.114,0,0,1,.832.368,1.191,1.191,0,0,1,.352.848,1.267,1.267,0,0,1-.352.848,1.046,1.046,0,0,1-.8.4h-2.208v2.368H379.3a.142.142,0,0,0-.016-.064.142.142,0,0,1-.016-.064,1.169,1.169,0,0,1,.416-.912,1.367,1.367,0,0,1,.928-.368,1.293,1.293,0,0,1,.928.368,1.212,1.212,0,0,1,.384.912,1.1,1.1,0,0,1-.416.928,1.579,1.579,0,0,1-.992.32h-4.384V74.92h4.864a1.972,1.972,0,0,1,.32-1.12,1.141,1.141,0,0,1,1.024-.48,1.366,1.366,0,0,1,1.376,1.376Zm-.16-11.584a2.141,2.141,0,0,1-.288.784q-.288.56-.72,1.248t-.912,1.344a12.367,12.367,0,0,1-.88,1.088q-.4.432-.624.432t-.256-.272a3.9,3.9,0,0,1-.032-.432V63.912H368.992v4.544h-2.816V62.7h7.456q-.32-1.056-.576-2.112t-.512-2.144h1.344q.7,0,1.424.016t1.424.08a2.526,2.526,0,0,1,.384.1.3.3,0,0,1,.192.32,2.455,2.455,0,0,1-.192.736q-.192.512-.48,1.12t-.56,1.12q-.272.512-.4.768h7.36a.812.812,0,0,1,.336.08A.33.33,0,0,1,383.552,63.112Zm9.5,17.92q0,.992-.1,2.048a7.266,7.266,0,0,1-.448,1.968,3.357,3.357,0,0,1-1.1,1.488,3.261,3.261,0,0,1-2.032.576,4.507,4.507,0,0,1-1.872-.464,11,11,0,0,1-1.9-1.12q-.9-.656-1.536-1.232a.351.351,0,0,1-.128-.224q0-.1.128-.1a.446.446,0,0,1,.192.032q.832.224,1.7.416a8.089,8.089,0,0,0,1.76.192,1.808,1.808,0,0,0,1.536-.592,3,3,0,0,0,.56-1.456,12.949,12.949,0,0,0,.112-1.664V59.432h3.136Zm-5.312-2.976h-3.008V61.288h3.008Zm26.272-12.992a3.314,3.314,0,0,1-.64,2.288,2.738,2.738,0,0,1-1.7.832,17.371,17.371,0,0,1-2.336.144H405.92l-.8,4.832h8.672q-.128,1.7-.3,3.392t-.4,3.392a21.2,21.2,0,0,1-.544,2.544,8.685,8.685,0,0,1-.992,2.288,4.825,4.825,0,0,1-1.68,1.632,5.1,5.1,0,0,1-2.608.608,7.847,7.847,0,0,1-3.488-.848,11.049,11.049,0,0,1-2.976-2.1.489.489,0,0,1-.16-.352.226.226,0,0,1,.256-.256.491.491,0,0,1,.192.064,24.06,24.06,0,0,0,2.3.912,7.549,7.549,0,0,0,2.432.4,3.252,3.252,0,0,0,2.368-.784,4.361,4.361,0,0,0,1.136-1.984,17.158,17.158,0,0,0,.5-2.448q.16-1.312.256-2.64t.192-2.672l-8.576.064,1.312-7.232q1.472,0,2.928.016t2.9.016a2.434,2.434,0,0,0,1.472-.4,1.618,1.618,0,0,0,.544-1.392V61.7H400.736V60.456h13.28Zm10.336,21.76h-3.1V59.848h3.1Zm28.864-10.592a23.414,23.414,0,0,1-2.944-3.52h-7.1q-.7.928-1.456,1.824t-1.584,1.728q3.264,0,6.544-.016T453.216,76.232Zm-3.712-4.9a16.3,16.3,0,0,1-.96-1.648q-.448-.88-.8-1.744h-1.792q-.416.9-.9,1.728t-1.024,1.664Zm12.768,8.128a1.472,1.472,0,0,1-.4.928,1.144,1.144,0,0,1-.88.48,4.639,4.639,0,0,1-1.76-.416,13.435,13.435,0,0,1-2-1.056q-1.008-.64-1.888-1.312T453.92,76.9q-.064.8-.256,2.128t-.528,2.832a18.642,18.642,0,0,1-.88,2.864,6.927,6.927,0,0,1-1.344,2.208,2.513,2.513,0,0,1-1.888.848h-.416a3.08,3.08,0,0,1-.976-.528q-.656-.464-1.376-1.088a10.877,10.877,0,0,1-1.216-1.216,1.712,1.712,0,0,1-.5-.912q0-.1.128-.1a2.426,2.426,0,0,1,.688.3q.56.3,1.3.624a3.351,3.351,0,0,0,1.312.32,1.456,1.456,0,0,0,1.024-.352,2.468,2.468,0,0,0,.608-.9,7.775,7.775,0,0,0,.592-1.84q.24-1.136.384-2.3a12.457,12.457,0,0,0,.112-1.968v-.32l-3.264.032a11.448,11.448,0,0,1-1.392,3.168,17.624,17.624,0,0,1-2.288,2.928,16.624,16.624,0,0,1-2.848,2.368A12,12,0,0,1,437.76,87.5q-.16.032-.336.08a1.277,1.277,0,0,1-.336.048.687.687,0,0,1-.176-.032q-.112-.032-.112-.128a.32.32,0,0,1,.128-.24q.128-.112.192-.176a27.255,27.255,0,0,0,3.1-2.672,13.95,13.95,0,0,0,2.272-3.024,15.731,15.731,0,0,0,1.472-3.808h-4.416v-.736a23.823,23.823,0,0,1-1.952,1.52,22.932,22.932,0,0,1-2.368,1.472,14.485,14.485,0,0,1-2.272,1.008,1.205,1.205,0,0,1-.48.1.876.876,0,0,1-.192-.032.151.151,0,0,1-.128-.16.258.258,0,0,1,.1-.208q.1-.08.16-.144a47.177,47.177,0,0,0,4.16-3.488,25.329,25.329,0,0,0,3.488-4.16h-7.072V71.336h8.032q.512-.8.944-1.648t.816-1.744h-7.392V66.568h7.936q.352-.832.64-1.664t.544-1.7q.352-1.152.592-2.336t.5-2.368l3.744,1.12q-.544,1.76-1.216,3.5t-1.5,3.44h8.032a2,2,0,0,1,.432-1.28,1.447,1.447,0,0,1,1.2-.544,1.694,1.694,0,0,1,1.664,1.664,1.394,1.394,0,0,1-.528,1.072,1.692,1.692,0,0,1-1.136.464h-5.5a15.918,15.918,0,0,0,.8,1.728l.9,1.664h6.048a.355.355,0,0,0-.016-.112.263.263,0,0,1-.016-.08,1.67,1.67,0,0,1,.5-1.168,1.552,1.552,0,0,1,1.168-.528,1.57,1.57,0,0,1,1.152.528,1.644,1.644,0,0,1,.512,1.168,1.353,1.353,0,0,1-.576,1.136,2,2,0,0,1-1.216.432H453.44a31.552,31.552,0,0,0,2.672,3.552,20.9,20.9,0,0,0,3.216,3.04,1.409,1.409,0,0,1,.512-.928,1.451,1.451,0,0,1,.96-.384,1.393,1.393,0,0,1,1.04.448A1.435,1.435,0,0,1,462.272,79.464ZM442.208,65.352a.733.733,0,0,1-.1.384.376.376,0,0,1-.352.16.681.681,0,0,1-.336-.08,2.373,2.373,0,0,1-.272-.176q-.352-.32-.672-.672t-.672-.672q-.608-.64-1.248-1.264T437.28,61.8q.192-.128.64-.416t.96-.608q.512-.32.944-.56a1.593,1.593,0,0,1,.592-.24.606.606,0,0,1,.48.224,3,3,0,0,1,.3.832q.208.736.432,1.664t.4,1.7A6.241,6.241,0,0,1,442.208,65.352Zm13.376-3.616q0,.192-.5.688t-1.248,1.12q-.752.624-1.552,1.2a17.113,17.113,0,0,1-1.44.944,2.34,2.34,0,0,1-.864.368q-.256,0-.256-.288a.74.74,0,0,1,.064-.3,1.674,1.674,0,0,0,.1-.272q.544-1.248,1.056-2.512t.96-2.544q.8.224,1.584.528t1.552.624a1.168,1.168,0,0,1,.352.144A.34.34,0,0,1,455.584,61.736Zm34.176,8.1a1.23,1.23,0,0,0-.64-1.12,2.47,2.47,0,0,0-1.28-.384,3.3,3.3,0,0,0-1.936.7,10.2,10.2,0,0,0-1.856,1.76,21.313,21.313,0,0,0-1.568,2.128q-.688,1.072-1.1,1.84L484,73.48q1.312-.64,2.624-1.248.544-.256,1.056-.464a9,9,0,0,0,1.024-.5,3.907,3.907,0,0,0,.752-.544A1.182,1.182,0,0,0,489.76,69.832Zm3.68,1.6a2.173,2.173,0,0,1-.592,1.632,2.582,2.582,0,0,1-1.616.672,26.121,26.121,0,0,0-5.136.96,34.62,34.62,0,0,0-4.912,1.856q0,.928-.016,1.872t-.016,1.872a2.221,2.221,0,0,1-.192.912.755.755,0,0,1-.768.432,1.791,1.791,0,0,1-1.6-.624,3.056,3.056,0,0,1-.416-1.712q0-.352.016-.72t.048-.72q-.544.288-1.232.736a5.2,5.2,0,0,0-1.168,1.024,1.993,1.993,0,0,0-.48,1.312,1.869,1.869,0,0,0,.752,1.568,4.611,4.611,0,0,0,1.76.816,7.893,7.893,0,0,0,1.808.24,19.486,19.486,0,0,0,2.512-.16q1.232-.16,2.48-.416a2.386,2.386,0,0,1,.24-.048,1.7,1.7,0,0,1,.24-.016,6.042,6.042,0,0,1,1.248.128,2.2,2.2,0,0,1,1.024.5,1.484,1.484,0,0,1,.416,1.168,1.2,1.2,0,0,1-.608,1.04,4.9,4.9,0,0,1-1.472.624,10.922,10.922,0,0,1-1.7.3q-.832.08-1.312.08-.96,0-1.92-.048t-1.888-.176a10.236,10.236,0,0,1-2.256-.672,4.936,4.936,0,0,1-1.872-1.344,3.238,3.238,0,0,1-.736-2.176,4.19,4.19,0,0,1,.688-2.272,9.3,9.3,0,0,1,1.7-1.984,15.653,15.653,0,0,1,1.9-1.472q.032-.384.048-.768t.016-.736q0-.512-.016-1.008T478.4,73.1a1.429,1.429,0,0,0-1.6-1.632,1.835,1.835,0,0,0-1.056.3,3.072,3.072,0,0,0-.8.816,21.64,21.64,0,0,0-2.208,4.16q-.064.192-.144.4t-.176.4a4.588,4.588,0,0,1-.72.88,1.417,1.417,0,0,1-.976.5,1.218,1.218,0,0,1-.992-.384,1.974,1.974,0,0,1-.416-.96,6.632,6.632,0,0,1-.1-1.088,2.268,2.268,0,0,1,.368-1.328,3.753,3.753,0,0,1,.976-.944,12.091,12.091,0,0,0,1.488-1.264q.688-.688,1.3-1.424a8.392,8.392,0,0,0,1.216-1.888q.48-1.024.928-2.048l-.512.064a4.123,4.123,0,0,1-.512.032,9.185,9.185,0,0,1-2-.24,4.5,4.5,0,0,1-1.84-.848,2.38,2.38,0,0,1-.864-1.76,6.776,6.776,0,0,0,1.312.416,6.372,6.372,0,0,0,1.344.16,8.225,8.225,0,0,0,2.032-.256,17.828,17.828,0,0,0,1.936-.608,13.177,13.177,0,0,0,.432-1.44,6.309,6.309,0,0,0,.176-1.472,1.8,1.8,0,0,0-.432-1.168,1.975,1.975,0,0,0-1.072-.688,2.18,2.18,0,0,1,.992-.5,4.886,4.886,0,0,1,1.12-.144,2.7,2.7,0,0,1,1.216.3,3.072,3.072,0,0,1,1.024.816,1.78,1.78,0,0,1,.416,1.152,1.743,1.743,0,0,1-.336.848,7.526,7.526,0,0,0-.5.88,2.422,2.422,0,0,0,.9-.416q.448-.32.88-.608a1.4,1.4,0,0,1,.72-.288,2.428,2.428,0,0,1,1.344.416,1.331,1.331,0,0,1,.64,1.184,1.084,1.084,0,0,1-.432.928,8.882,8.882,0,0,1-.88.576,21.8,21.8,0,0,1-2.432,1.248q-1.248.544-2.56.992-.512.96-.928,1.952t-.864,2.016q.288-.1.784-.272a2.491,2.491,0,0,1,.752-.176,3.155,3.155,0,0,1,2.064.576,3.212,3.212,0,0,1,.992,1.536,12.862,12.862,0,0,1,.464,2.112q.448-.96,1.136-2.144a22.348,22.348,0,0,1,1.568-2.336,12.565,12.565,0,0,1,1.888-2,5.062,5.062,0,0,1,2.1-1.1,2.867,2.867,0,0,1,.528-.08q.272-.016.528-.016a5.244,5.244,0,0,1,2.288.528,5,5,0,0,1,1.824,1.456A3.5,3.5,0,0,1,493.44,71.432Zm15.9,6.112a9.3,9.3,0,0,0-1.3,1.3q-.56.688-1.2,1.424.256.128.768.432a1.756,1.756,0,0,0,.8.3.729.729,0,0,0,.784-.624,4.879,4.879,0,0,0,.144-1.072ZM513.056,66.6a1.357,1.357,0,0,0-.768-.544l-.96-.384q-.128.576-.208,1.248a10.842,10.842,0,0,0-.08,1.28,5.347,5.347,0,0,0,.768-.352,4.576,4.576,0,0,0,.864-.592A.919.919,0,0,0,513.056,66.6Zm12,10.752a6.176,6.176,0,0,1-.784,3.168,5.515,5.515,0,0,1-2.16,2.1,6.568,6.568,0,0,1-3.2.752,5.807,5.807,0,0,1-5.856-4.064,5,5,0,0,1-.176-.48,3.072,3.072,0,0,1-.112-.48l.224-.064a1.616,1.616,0,0,0,.24.48q.208.32.3.48a4.895,4.895,0,0,0,1.664,1.344,4.4,4.4,0,0,0,2.048.576,3.889,3.889,0,0,0,2.048-.56,4.146,4.146,0,0,0,1.472-1.5,4,4,0,0,0,.544-2.032,2.993,2.993,0,0,0-.528-1.792,3.473,3.473,0,0,0-1.392-1.136,4.29,4.29,0,0,0-1.824-.4,7.41,7.41,0,0,0-3.52.864,16.323,16.323,0,0,0-3.04,2.08q.128,2.272.48,4.544.032.224.064.464a3.751,3.751,0,0,1,.032.5,3.29,3.29,0,0,1-.576,1.92,2.028,2.028,0,0,1-1.792.832.9.9,0,0,1-.72-.32,1.457,1.457,0,0,1-.336-.736q-.128-.832-.256-1.328a3.26,3.26,0,0,0-.4-.928,5.176,5.176,0,0,0-.912-1.008q-.768.96-1.408,1.888a6.687,6.687,0,0,1-.5.624.919.919,0,0,1-.72.3,1.464,1.464,0,0,1-1.232-.56,3.218,3.218,0,0,1-.592-1.344,7.054,7.054,0,0,1-.16-1.392A2.267,2.267,0,0,1,502.3,79a1.462,1.462,0,0,1,.928-.72,2.326,2.326,0,0,0-.1.672.5.5,0,0,0,.448.448,2.638,2.638,0,0,0,1.1-.432q.752-.432,1.664-1.04t1.7-1.152q.784-.544,1.168-.8,0-1.12-.016-2.224t-.016-2.192q-.64.128-1.28.224a8.617,8.617,0,0,1-1.28.1,7.921,7.921,0,0,1-1.152-.08,2.737,2.737,0,0,1-1.088-.432,3.7,3.7,0,0,1-.832-.848,3.814,3.814,0,0,1-.576-1.04,1.8,1.8,0,0,1-.064-.416,2.706,2.706,0,0,0,.912.352,5.128,5.128,0,0,0,.976.1,12.392,12.392,0,0,0,1.424-.1q.816-.1,1.616-.272a9.42,9.42,0,0,0,1.376-.4v-2q0-.752-.016-1.5a5.346,5.346,0,0,0-.144-1.232,1.623,1.623,0,0,0-.432-.912,2.2,2.2,0,0,0-.912-.432.13.13,0,0,0-.1-.032.284.284,0,0,1-.128-.032.057.057,0,0,1-.064-.064,1.03,1.03,0,0,1,.64-.9,2.368,2.368,0,0,1,1.088-.352,3.156,3.156,0,0,1,1.264.3,3.723,3.723,0,0,1,1.184.816,1.616,1.616,0,0,1,.5,1.152,1.544,1.544,0,0,1-.288.9,2.008,2.008,0,0,0-.352.864q.384.128.96.3a3.48,3.48,0,0,0,.992.176,1.019,1.019,0,0,0,.432-.1,1.02,1.02,0,0,1,.432-.1.735.735,0,0,1,.416.128,2,2,0,0,1,.848.64,1.738,1.738,0,0,1,.272,1.024,2.063,2.063,0,0,1-.528,1.36,5.1,5.1,0,0,1-1.312,1.088,11.09,11.09,0,0,1-1.6.784,13.175,13.175,0,0,1-1.424.48q-.032.576-.048,1.152t-.016,1.152V75.3q2.016-1.12,4-2a10.534,10.534,0,0,1,4.32-.88,7.681,7.681,0,0,1,2.864.528,4.973,4.973,0,0,1,2.16,1.616A4.454,4.454,0,0,1,525.056,77.352Zm2.72-8.032a3.529,3.529,0,0,1-.352,1.6,1.419,1.419,0,0,1-1.408.7,1.574,1.574,0,0,1-1.168-.512,13.823,13.823,0,0,1-1.024-1.2,5.154,5.154,0,0,0-1.328-1.2,3.869,3.869,0,0,0-2.112-.512,3.131,3.131,0,0,0-1.328.288q-.624.288-1.264.608-.128,0-.128-.1a.572.572,0,0,1,.208-.368,3.421,3.421,0,0,1,.336-.3,13.657,13.657,0,0,1,2.16-1.568,5.044,5.044,0,0,1,2.576-.64,9.289,9.289,0,0,1,1.376.1,3.832,3.832,0,0,1,1.28.448,4.976,4.976,0,0,1,.96.656,4.779,4.779,0,0,1,.864.944A1.841,1.841,0,0,1,527.776,69.32Zm26.816.064H551.04V73h2.016a1.249,1.249,0,0,0,1.184-.624,2.721,2.721,0,0,0,.352-1.36Zm-14.88,4.96a.55.55,0,0,1-.032.224q-.192,1.152-.512,2.592t-.752,2.944q-.432,1.5-.928,2.88a14.588,14.588,0,0,1-1.072,2.368,3.16,3.16,0,0,1-.256.416.519.519,0,0,1-.448.224,1.189,1.189,0,0,1-.592-.32q-.4-.32-.88-.768t-.9-.848q-.416-.4-.576-.56a24.758,24.758,0,0,0,3.024-3.648,39.692,39.692,0,0,0,2.48-4.064q.1-.16.3-.624a7.622,7.622,0,0,1,.464-.88q.256-.416.416-.416a.205.205,0,0,1,.208.176A1.18,1.18,0,0,1,539.712,74.344Zm-.288-2.624a.383.383,0,0,1-.16.336.6.6,0,0,1-.352.112.446.446,0,0,1-.192-.032q-1.472-.448-2.912-.88a24.6,24.6,0,0,0-2.944-.688q.416-.736.784-1.488a9.8,9.8,0,0,1,.88-1.456,1.278,1.278,0,0,1,.272-.3.637.637,0,0,1,.4-.112h.192a.6.6,0,0,1,.192.032,2.83,2.83,0,0,1,.608.48q.448.416.992,1.024t1.056,1.232q.512.624.848,1.1A1.616,1.616,0,0,1,539.424,71.72ZM563.2,85.736a1.423,1.423,0,0,1-1.376,1.376,10.5,10.5,0,0,1-3.184-.56,28.256,28.256,0,0,1-3.408-1.344q-1.664-.784-2.944-1.456a28.229,28.229,0,0,1-5.008,2.192,29.331,29.331,0,0,1-5.328,1.232H541.7q-.064,0-.24-.016t-.176-.144q0-.128.528-.336t1.12-.4q.592-.192.752-.256a28.371,28.371,0,0,0,3.52-1.536,21.975,21.975,0,0,0,3.2-2.016,24.73,24.73,0,0,1-2.112-1.744q-1.024-.944-1.952-1.936l2.432-1.472q.832.992,1.728,1.9a19.624,19.624,0,0,0,1.92,1.712,12.509,12.509,0,0,0,1.68-1.84A12.167,12.167,0,0,0,555.36,77h-9.728V75.752h13.44a.856.856,0,0,1,.32.064.249.249,0,0,1,.16.256,1.258,1.258,0,0,1-.032.272,1.175,1.175,0,0,1-.1.272,8.92,8.92,0,0,1-1.248,2.08,19.635,19.635,0,0,1-1.888,2.112,18.043,18.043,0,0,1-1.856,1.6q1.408.992,2.912,1.9a26.785,26.785,0,0,0,3.1,1.616.354.354,0,0,0-.016-.112.263.263,0,0,1-.016-.08,1.421,1.421,0,0,1,1.408-1.408,1.3,1.3,0,0,1,.976.416A1.382,1.382,0,0,1,563.2,85.736ZM540.416,65q0,.352-.32.352a.527.527,0,0,1-.16-.032l-.192-.064q-1.28-.512-2.64-.928t-2.7-.736q.416-.736.848-1.488a13.182,13.182,0,0,1,.944-1.424,1.33,1.33,0,0,1,.192-.256.391.391,0,0,1,.288-.1,1,1,0,0,1,.416.128,3.158,3.158,0,0,1,.832.72q.544.592,1.12,1.36a15.1,15.1,0,0,1,.976,1.456A2.4,2.4,0,0,1,540.416,65Zm22.4,3.072a1.2,1.2,0,0,1-.432.928,1.43,1.43,0,0,1-.976.384H557.7v1.248a3.1,3.1,0,0,1-.624,2.016,3.464,3.464,0,0,1-1.616,1.1,6.54,6.54,0,0,1-2.112.336h-5.12v-4.7h-2.88q-.032.9-.032,1.76t-.064,1.76a23.165,23.165,0,0,1-1.056,5.952A21.5,21.5,0,0,1,541.5,84.3a7.753,7.753,0,0,1-.624.88,10.712,10.712,0,0,1-.976,1.088,1.41,1.41,0,0,1-.832.5q-.32,0-.32-.256a.927.927,0,0,1,.224-.464,3.6,3.6,0,0,0,.288-.432q.256-.448.48-.9l.448-.9a19.99,19.99,0,0,0,1.7-5.9,49.352,49.352,0,0,0,.384-6.16q0-4.736-.1-9.44H550.3q-.48-2.016-.864-4.032h1.632q.544,0,1.12.016a7.662,7.662,0,0,1,1.12.112,2.173,2.173,0,0,1,.544.176q.224.112.224.528a2.456,2.456,0,0,1-.32.96q-.32.64-.7,1.28l-.576.96h6.72a1.476,1.476,0,0,1,.368-1.04,1.3,1.3,0,0,1,1.008-.4,1.507,1.507,0,0,1,1.008.368,1.361,1.361,0,0,1-.048,2.032,1.843,1.843,0,0,1-1.12.352h-15.04v2.208q0,1.12-.032,2.24h2.88v-3.2h2.816v3.2h3.552v-3.1h3.1v3.1H560a1.537,1.537,0,0,1,.464-.992,1.294,1.294,0,0,1,.944-.448,1.308,1.308,0,0,1,.992.448A1.426,1.426,0,0,1,562.816,68.072ZM592.64,75.88a12.114,12.114,0,0,1-2.032,4.9,11.592,11.592,0,0,1-3.872,3.5,10.351,10.351,0,0,1-5.136,1.3,6.961,6.961,0,0,1-5.3-1.968,8.209,8.209,0,0,1-2.1-5.3q-.032-.48-.048-.96t-.016-.96q0-2.752.192-5.536t.192-5.536q0-.512-.048-1.152a4.2,4.2,0,0,0-.272-1.216,1.679,1.679,0,0,0-.7-.864,1.6,1.6,0,0,0-.592-.24q-.368-.08-.624-.112a1.591,1.591,0,0,1,.752-.576,5.409,5.409,0,0,1,1.136-.336,5.714,5.714,0,0,1,.992-.112,2.614,2.614,0,0,1,1.776.656,4.5,4.5,0,0,1,1.168,1.6,4.614,4.614,0,0,1,.416,1.872,2.329,2.329,0,0,1-.032.384l-.064.384q-.192,1.12-.432,2.256t-.432,2.256q-.288,1.792-.464,3.616t-.176,3.648a4.889,4.889,0,0,0,1.408,3.808,5.542,5.542,0,0,0,3.872,1.28,10.824,10.824,0,0,0,4.208-.848,12.174,12.174,0,0,0,3.632-2.336,11.264,11.264,0,0,0,2.528-3.44ZM19.616,113.032a.563.563,0,0,0-.16-.416,2.3,2.3,0,0,0-.656-.432q-.528-.272-1.2-.592T16.336,111q-.592-.272-.848-.4a.9.9,0,0,0-.832.96,2.4,2.4,0,0,0,.464,1.232,12.758,12.758,0,0,0,1.04,1.392q.576.672.928,1.056a5.286,5.286,0,0,0,1.008-.464,4.916,4.916,0,0,0,1.056-.8A1.349,1.349,0,0,0,19.616,113.032Zm5.472,11.936a3.343,3.343,0,0,1-.544,1.84,1.84,1.84,0,0,1-1.664.848.854.854,0,0,1-.576-.192,1.489,1.489,0,0,1-.288-.3l-.224-.336a5.5,5.5,0,0,0-1.808-1.616,8.79,8.79,0,0,0-2.336-.912,10.593,10.593,0,0,0-2.416-.288,11.018,11.018,0,0,0-2,.192,3.613,3.613,0,0,0-1.744.8,2.321,2.321,0,0,0-.7,1.856,2.244,2.244,0,0,0,.576,1.584,3.76,3.76,0,0,0,1.472.96,9.161,9.161,0,0,0,1.84.48,11.277,11.277,0,0,0,1.68.144,9.719,9.719,0,0,0,1.1-.064,9.715,9.715,0,0,1,1.1-.064,2.238,2.238,0,0,1,1.168.336,2.925,2.925,0,0,1,.928.88,2.022,2.022,0,0,1,.368,1.152,1.063,1.063,0,0,1-.544,1.008,3.129,3.129,0,0,1-1.264.368q-.72.064-1.232.064H16.832a12.036,12.036,0,0,1-2.768-.336,9.909,9.909,0,0,1-2.656-1.04,5.921,5.921,0,0,1-2-1.84,4.712,4.712,0,0,1-.768-2.7,3.767,3.767,0,0,1,.432-1.76,4.819,4.819,0,0,1,1.136-1.44,5.1,5.1,0,0,1,2.5-1.168,16.364,16.364,0,0,1,2.752-.24,9.78,9.78,0,0,1,2.064.224q1.04.224,2.064.384.256.032.5.08a2.364,2.364,0,0,0,.464.048.314.314,0,0,0,.288-.16.617.617,0,0,0,.1-.32,3.237,3.237,0,0,0-.336-1.264,13.1,13.1,0,0,0-.832-1.552q-.5-.8-1.008-1.488t-.864-1.1a16.056,16.056,0,0,1-6.368,1.312A6.981,6.981,0,0,1,8.5,118.76a5.239,5.239,0,0,1-2-1.68,12.538,12.538,0,0,1-1.44-2.7l.1-.1a5.622,5.622,0,0,0,2.624,1.68,11.558,11.558,0,0,0,3.1.4,24.307,24.307,0,0,0,2.448-.128,11.948,11.948,0,0,0,2.384-.48l-1.392-1.328q-.688-.656-1.36-1.328a6.735,6.735,0,0,1-.816-.992,2.122,2.122,0,0,1-.368-1.216,2.049,2.049,0,0,1,.368-1.136,3.287,3.287,0,0,1,.912-.928,1.975,1.975,0,0,1,1.12-.368,1.321,1.321,0,0,1,1.088.432,11.045,11.045,0,0,1,.7.976,3.037,3.037,0,0,0,1.088.96,5.876,5.876,0,0,0,1.264.384q.88.192,1.792.32a10.789,10.789,0,0,0,1.36.128,2.535,2.535,0,0,0,.416-.032,2.534,2.534,0,0,1,.416-.032.975.975,0,0,1,.912.592,2.435,2.435,0,0,1,.3,1.1,2.125,2.125,0,0,1-.448,1.28,5.567,5.567,0,0,1-1.12,1.12,13.163,13.163,0,0,1-1.36.912q-.688.4-1.2.688.768.672,1.728,1.536a24.1,24.1,0,0,1,1.872,1.888,11.582,11.582,0,0,1,1.5,2.1A4.428,4.428,0,0,1,25.088,124.968Zm38.272-7.136q0,1.184-1.28,1.184a1.193,1.193,0,0,1-.432-.08,1.98,1.98,0,0,0-.432-.112q-.9-.16-1.792-.256a16.808,16.808,0,0,0-1.792-.1q-.448,0-.912.016t-.912.048q-.1.832-.16,1.9t-.224,2.176a8.265,8.265,0,0,1-.56,2.048,3.8,3.8,0,0,1-1.12,1.52,3.012,3.012,0,0,1-1.936.576,1.672,1.672,0,0,1-.864-.208.868.868,0,0,1-.352-.816,2.854,2.854,0,0,0-.624-1.936,13.224,13.224,0,0,0-1.456-1.424l.064-.1q.736.256,1.584.528a5.382,5.382,0,0,0,1.648.272.753.753,0,0,0,.688-.528,5.23,5.23,0,0,0,.368-1.264,11.393,11.393,0,0,0,.16-1.408q.032-.672.064-.96a17.935,17.935,0,0,0-3.584.768q-1.792.576-3.488,1.216-.064,1.184-.1,2.368t-.032,2.368a5.289,5.289,0,0,0,.56,2.656,3.167,3.167,0,0,0,2.32,1.28,11.783,11.783,0,0,0,2.112.192,16.036,16.036,0,0,0,3.9-.48q.32-.064.672-.144a3.034,3.034,0,0,1,.672-.08,4.515,4.515,0,0,1,2.048.464A1.8,1.8,0,0,1,59.1,131.3a.984.984,0,0,1-.608.9,4.617,4.617,0,0,1-1.488.448,13.647,13.647,0,0,1-1.7.144q-.816.016-1.2.016-1.76,0-3.488-.16a11.884,11.884,0,0,1-3.184-.72,5.793,5.793,0,0,1-2.448-1.776,6.576,6.576,0,0,1-1.28-3.328,18.623,18.623,0,0,1-.16-2.432q0-1.216-.032-2.432-.96.512-1.888,1.072t-1.856,1.136q-.224.128-.4.208a1.041,1.041,0,0,1-.432.08,3.027,3.027,0,0,1-1.7-.528,4.215,4.215,0,0,1-1.3-1.344,3.2,3.2,0,0,1-.5-1.68,2.612,2.612,0,0,1,.048-.48,1.7,1.7,0,0,1,.144-.448,4.734,4.734,0,0,0,1.12.8,2.969,2.969,0,0,0,1.344.288,8.241,8.241,0,0,0,1.68-.208q.976-.208,1.952-.512t1.648-.56q0-.832-.032-1.68t-.128-1.648a2.941,2.941,0,0,0-.56-1.6,2,2,0,0,0-1.584-.608,2.065,2.065,0,0,1,1.088-1.12,3.547,3.547,0,0,1,1.536-.384,2.432,2.432,0,0,1,1.264.4,4.163,4.163,0,0,1,1.12.992,1.974,1.974,0,0,1,.464,1.232,2.469,2.469,0,0,1-.016.272q-.016.144-.048.3-.16.8-.272,1.568a10.853,10.853,0,0,0-.112,1.568q1.728-.512,3.472-.928t3.5-.768q.064-.832.1-1.664t.032-1.632q0-.832-.08-1.648a3.688,3.688,0,0,0-.464-1.488,2.288,2.288,0,0,0-1.312-.992,1.607,1.607,0,0,1,.512-.48,5.16,5.16,0,0,1,.832-.448,1.928,1.928,0,0,1,.672-.192,2.8,2.8,0,0,1,1.376.448,5.127,5.127,0,0,1,1.328,1.1,2.013,2.013,0,0,1,.56,1.3,1.194,1.194,0,0,1-.384.864l-.128,2.176L56,116.9q.736-.1,1.472-.176t1.472-.208a2.472,2.472,0,0,1,.24-.064.156.156,0,0,0,.144-.16,1.814,1.814,0,0,0-.5-.512q-.432-.352-.88-.7t-.64-.512l.064-.128.976.416a7.033,7.033,0,0,0,1.04.352,10.135,10.135,0,0,0,1.344.208,4.313,4.313,0,0,1,1.168.256,2.32,2.32,0,0,1,1.04.88A2.047,2.047,0,0,1,63.36,117.832Zm31.52-5.408a1.332,1.332,0,0,1-.416,1.12,1.849,1.849,0,0,1-1.152.32.438.438,0,0,1-.1-.016.526.526,0,0,0-.128-.016q-.416-.064-.784-.128a4.575,4.575,0,0,0-.784-.064,22.588,22.588,0,0,0-2.7.16,7.3,7.3,0,0,0-2.544.8,4.408,4.408,0,0,0-1.7,1.5,8.767,8.767,0,0,0-1.072,2.224,13.6,13.6,0,0,0-.56,2.5,18.374,18.374,0,0,0-.16,2.288,9.87,9.87,0,0,0,.624,3.9A3.662,3.662,0,0,0,85.472,129a10.768,10.768,0,0,0,3.9.576,2.928,2.928,0,0,1,2.816,1.728q.1.192.176.4a1.193,1.193,0,0,1,.08.432,1.071,1.071,0,0,1-.544.992,3.531,3.531,0,0,1-1.248.432,7.9,7.9,0,0,1-1.216.112,13.258,13.258,0,0,1-3.792-.576A8.5,8.5,0,0,1,82.3,131.24a5.469,5.469,0,0,1-1.68-2.7,13.23,13.23,0,0,1-.368-3.184,13.539,13.539,0,0,1,1.52-6.448,25.673,25.673,0,0,1,3.856-5.392,23.959,23.959,0,0,0-4.752,1.7q-2.256,1.088-4.528,2.3a4.135,4.135,0,0,1-.656.32,2.1,2.1,0,0,1-.752.128A3.119,3.119,0,0,1,72.48,116.9a3.7,3.7,0,0,1-.928-2.528,1.927,1.927,0,0,1,.112-.64,4.939,4.939,0,0,1,.24-.576,2.014,2.014,0,0,0,1.136.848,4.688,4.688,0,0,0,1.424.24,16.536,16.536,0,0,0,3.3-.4q1.92-.4,4.016-1.008t3.984-1.28q1.888-.672,3.2-1.184h.416q.544,0,1.44.032a11.242,11.242,0,0,1,1.84.224,4.549,4.549,0,0,1,1.584.608A1.331,1.331,0,0,1,94.88,112.424Zm21.024,8.128q-.544,1.056-1.168,2.192a16.347,16.347,0,0,0-1.056,2.336,7.177,7.177,0,0,0-.432,2.448,2.816,2.816,0,0,0,.3,1.36,4.214,4.214,0,0,0,.624.9.933.933,0,0,1,.32.528,1.5,1.5,0,0,1-1.632,1.632,4.363,4.363,0,0,1-2.208-.608,6.957,6.957,0,0,1-2.384-2.192,9.634,9.634,0,0,1-1.3-2.944,19.043,19.043,0,0,1-.544-3.36q-.128-1.744-.128-3.456t-.064-3.184a7.7,7.7,0,0,0-.384-2.192,3.776,3.776,0,0,0-1.28-1.808,2.24,2.24,0,0,1,.368-.032h.368a4.454,4.454,0,0,1,3.344,1.264,4.586,4.586,0,0,1,1.232,3.344,6.711,6.711,0,0,1-.1,1.136,9.745,9.745,0,0,1-.256,1.1,11.808,11.808,0,0,0-.416,2.224q-.1,1.1-.1,2.288a7.2,7.2,0,0,0,.144,1.2,4.979,4.979,0,0,0,.48,1.424,1.016,1.016,0,0,0,.912.64.716.716,0,0,0,.4-.1,2.039,2.039,0,0,0,.3-.256,5.316,5.316,0,0,0,.912-1.12q.368-.608.784-1.184.64-.9,1.344-1.936a10.061,10.061,0,0,1,1.5-1.776Zm13.952,2.56a3.589,3.589,0,0,1-.512,1.92,1.867,1.867,0,0,1-1.728.832,1.314,1.314,0,0,1-1.1-.432,2.125,2.125,0,0,1-.4-1.136q-.064-.832-.192-1.584a7.008,7.008,0,0,0-.448-1.52,4.435,4.435,0,0,0-1.424-1.952,4.862,4.862,0,0,0-2-.848,13.144,13.144,0,0,0-2.4-.208,5.906,5.906,0,0,0-1.024.1l-.032-.064a5.7,5.7,0,0,1,2.048-.96,8.56,8.56,0,0,1,2.144-.32,7.575,7.575,0,0,1,3.344.784,7.366,7.366,0,0,1,2.672,2.16A5.157,5.157,0,0,1,129.856,123.112Zm21.152-8.1a1.364,1.364,0,0,1-.56.976,7.775,7.775,0,0,1-1.36.944,16.046,16.046,0,0,1-1.552.768q-.752.32-1.136.48-.256,1.088-.56,2.208t-.5,2.24q.64-.608,1.36-1.232a13.428,13.428,0,0,1,1.456-1.1l.1.128q-.608.8-1.344,1.92t-1.36,2.272a13.4,13.4,0,0,0-.944,2.112q-.32.992-.64,2t-.576,2.032q-.1.416-.176.816a8.334,8.334,0,0,1-.208.816,3.1,3.1,0,0,1-.688,1.392,1.908,1.908,0,0,1-1.456.5,1.128,1.128,0,0,1-.976-.544,3.653,3.653,0,0,1-.528-1.232,5.3,5.3,0,0,1-.16-1.168,1.817,1.817,0,0,1,.3-1.072q.3-.432.624-.912a24.2,24.2,0,0,0,1.9-3.264,40.073,40.073,0,0,0,1.632-3.808,23.2,23.2,0,0,0,1.04-3.616q-.608.1-1.184.192a7.191,7.191,0,0,1-1.184.1,3.651,3.651,0,0,1-2.768-1.088,6.892,6.892,0,0,1-1.552-2.624q-.032-.16-.08-.32a1.8,1.8,0,0,0-.112-.288l.128-.064a3.773,3.773,0,0,0,1.248,1.28,3.136,3.136,0,0,0,1.7.48,10.132,10.132,0,0,0,2.336-.288,14.138,14.138,0,0,0,2.208-.7,10.633,10.633,0,0,0,.432-1.9,14.172,14.172,0,0,0,.144-1.936,1.214,1.214,0,0,0-.368-.944,2.464,2.464,0,0,0-.9-.512,4.044,4.044,0,0,0-1.008-.208,2.617,2.617,0,0,1,1.44-.992,5.823,5.823,0,0,1,1.76-.32,2.293,2.293,0,0,1,1.056.3,3.77,3.77,0,0,1,1.008.768,1.421,1.421,0,0,1,.432.976,1.324,1.324,0,0,1-.1.5,3.717,3.717,0,0,1-.224.464q-.288.576-.544,1.168a11.234,11.234,0,0,0-.448,1.232h.256q.448,0,.928-.032t.928-.032a.6.6,0,0,1,.624.384A2.174,2.174,0,0,1,151.008,115.016Zm11.584,16.128a1.234,1.234,0,0,1-.48,1.04,3.194,3.194,0,0,1-1.2.544,8.41,8.41,0,0,1-1.44.224q-.72.048-1.168.048a17.163,17.163,0,0,1-3.008-.256,7.468,7.468,0,0,1-2.56-.928,4.756,4.756,0,0,1-1.76-1.856,6.362,6.362,0,0,1-.64-3.04,4.091,4.091,0,0,1,.1-.816q.1-.464.192-.784l.1.032a4.243,4.243,0,0,0,2.88,3.872,7.438,7.438,0,0,0,2.592.448,8.32,8.32,0,0,0,1.568-.16,8.078,8.078,0,0,0,1.536-.448,10.3,10.3,0,0,1,1.52.112,2.411,2.411,0,0,1,1.264.56A1.776,1.776,0,0,1,162.592,131.144Zm-.928-13.152a1.511,1.511,0,0,1-.384,1.04,1.368,1.368,0,0,1-.992.464,4.925,4.925,0,0,0-2.048-.448,8,8,0,0,0-1.84.24,11.662,11.662,0,0,0-1.776.56l-.032-.064a4.574,4.574,0,0,1,.928-.864,14.013,14.013,0,0,1,1.184-.768q.608-.352.96-.544a4.161,4.161,0,0,0-1.92-.688,16.919,16.919,0,0,0-2.08-.144q-.352,0-.7.032l-.7.064a3.884,3.884,0,0,1,1.488-1.088,8.956,8.956,0,0,1,1.968-.608,10.156,10.156,0,0,1,1.856-.192,4.957,4.957,0,0,1,1.76.368,4.769,4.769,0,0,1,1.648,1.04A2.16,2.16,0,0,1,161.664,117.992Zm22.368-2.5a1.364,1.364,0,0,1-.56.976,7.775,7.775,0,0,1-1.36.944,16.046,16.046,0,0,1-1.552.768q-.752.32-1.136.48-.256,1.088-.56,2.208t-.5,2.24q.64-.608,1.36-1.232a13.427,13.427,0,0,1,1.456-1.1l.1.128q-.608.8-1.344,1.92t-1.36,2.272a13.4,13.4,0,0,0-.944,2.112q-.32.992-.64,2t-.576,2.032q-.1.416-.176.816a8.33,8.33,0,0,1-.208.816,3.1,3.1,0,0,1-.688,1.392,1.908,1.908,0,0,1-1.456.5,1.128,1.128,0,0,1-.976-.544,3.654,3.654,0,0,1-.528-1.232,5.3,5.3,0,0,1-.16-1.168,1.817,1.817,0,0,1,.3-1.072q.3-.432.624-.912a24.2,24.2,0,0,0,1.9-3.264,40.074,40.074,0,0,0,1.632-3.808,23.2,23.2,0,0,0,1.04-3.616q-.608.1-1.184.192a7.191,7.191,0,0,1-1.184.1,3.651,3.651,0,0,1-2.768-1.088,6.892,6.892,0,0,1-1.552-2.624q-.032-.16-.08-.32a1.8,1.8,0,0,0-.112-.288l.128-.064a3.773,3.773,0,0,0,1.248,1.28,3.137,3.137,0,0,0,1.7.48,10.133,10.133,0,0,0,2.336-.288,14.138,14.138,0,0,0,2.208-.7,10.634,10.634,0,0,0,.432-1.9,14.172,14.172,0,0,0,.144-1.936,1.214,1.214,0,0,0-.368-.944,2.464,2.464,0,0,0-.9-.512,4.045,4.045,0,0,0-1.008-.208,2.617,2.617,0,0,1,1.44-.992,5.823,5.823,0,0,1,1.76-.32,2.292,2.292,0,0,1,1.056.3,3.769,3.769,0,0,1,1.008.768,1.421,1.421,0,0,1,.432.976,1.324,1.324,0,0,1-.1.5,3.713,3.713,0,0,1-.224.464q-.288.576-.544,1.168a11.23,11.23,0,0,0-.448,1.232h.256q.448,0,.928-.032t.928-.032a.6.6,0,0,1,.624.384A2.174,2.174,0,0,1,184.032,115.5Zm11.584,16.128a1.234,1.234,0,0,1-.48,1.04,3.194,3.194,0,0,1-1.2.544,8.41,8.41,0,0,1-1.44.224q-.72.048-1.168.048a17.163,17.163,0,0,1-3.008-.256,7.469,7.469,0,0,1-2.56-.928A4.757,4.757,0,0,1,184,130.44a6.362,6.362,0,0,1-.64-3.04,4.091,4.091,0,0,1,.1-.816q.1-.464.192-.784l.1.032a4.243,4.243,0,0,0,2.88,3.872,7.438,7.438,0,0,0,2.592.448,8.321,8.321,0,0,0,1.568-.16,8.079,8.079,0,0,0,1.536-.448,10.3,10.3,0,0,1,1.52.112,2.412,2.412,0,0,1,1.264.56A1.776,1.776,0,0,1,195.616,131.624Zm-.928-12.512a1.511,1.511,0,0,1-.384,1.04,1.368,1.368,0,0,1-.992.464,4.925,4.925,0,0,0-2.048-.448,8,8,0,0,0-1.84.24,11.663,11.663,0,0,0-1.776.56l-.032-.064a4.574,4.574,0,0,1,.928-.864,14.01,14.01,0,0,1,1.184-.768q.608-.352.96-.544a4.161,4.161,0,0,0-1.92-.688,16.919,16.919,0,0,0-2.08-.144q-.352,0-.7.032l-.7.064a3.885,3.885,0,0,1,1.488-1.088,8.956,8.956,0,0,1,1.968-.608,10.156,10.156,0,0,1,1.856-.192,4.957,4.957,0,0,1,1.76.368,4.769,4.769,0,0,1,1.648,1.04A2.16,2.16,0,0,1,194.688,119.112Zm-1.76-7.392a1.51,1.51,0,0,1-.272.9.968.968,0,0,1-.848.384.745.745,0,0,1-.576-.3,3.776,3.776,0,0,1-.416-.592,10.613,10.613,0,0,0-.512-1.12,3.6,3.6,0,0,0-.736-.96,2.471,2.471,0,0,0-.864-.64.524.524,0,0,0-.08-.064q-.048-.032-.048-.064,0-.064.128-.064a6.312,6.312,0,0,1,1.248.144,6.82,6.82,0,0,1,1.392.448,3.419,3.419,0,0,1,1.136.784A1.629,1.629,0,0,1,192.928,111.72Zm3.68-1.5a1.21,1.21,0,0,1-.352.832,1.062,1.062,0,0,1-.8.384.748.748,0,0,1-.528-.192,2.706,2.706,0,0,1-.368-.416,10.012,10.012,0,0,0-1.28-1.6,7.563,7.563,0,0,0-1.632-1.216.343.343,0,0,0-.112-.064q-.08-.032-.08-.064,0-.128.336-.144t.4-.016a13.22,13.22,0,0,1,1.392.08,5.9,5.9,0,0,1,1.44.336,2.83,2.83,0,0,1,1.136.752A1.906,1.906,0,0,1,196.608,110.216Zm25.44,5.792q0-.256-.464-.64a11.955,11.955,0,0,0-.992-.736,8.316,8.316,0,0,0-.784-.48l-1.216.576q.416.64.848,1.28t.88,1.28q.192-.1.608-.336a8.679,8.679,0,0,0,.768-.5Q222.048,116.2,222.048,116.008Zm4.672,10.112a3.342,3.342,0,0,1-.448,1.744,1.673,1.673,0,0,1-1.568.752,1.744,1.744,0,0,1-.96-.288,6.048,6.048,0,0,1-.8-.608,13.443,13.443,0,0,0-3.024-1.984,8.058,8.058,0,0,0-3.5-.768,8.318,8.318,0,0,0-1.888.24,4.346,4.346,0,0,0-1.76.832,2.335,2.335,0,0,0-.256,3.12,2.942,2.942,0,0,0,1.232.816,7.68,7.68,0,0,0,1.552.384,10.678,10.678,0,0,0,1.472.112q.544,0,1.088-.016t1.056-.016a5.281,5.281,0,0,1,1.44.208,3.1,3.1,0,0,1,1.264.688,1.724,1.724,0,0,1,.528,1.344,1.3,1.3,0,0,1-.592,1.2,3.033,3.033,0,0,1-1.376.432q-.784.064-1.392.064a12.058,12.058,0,0,1-2.992-.416,15.884,15.884,0,0,1-2.832-.992,6.529,6.529,0,0,1-2.32-1.808,4.282,4.282,0,0,1-.912-2.768,3.145,3.145,0,0,1,.624-1.968,4.725,4.725,0,0,1,1.616-1.328,8.516,8.516,0,0,1,2.08-.752,9.528,9.528,0,0,1,2.048-.24,17.536,17.536,0,0,1,2.112.128q1.056.128,2.08.352a5.918,5.918,0,0,1,.7.192,2.242,2.242,0,0,0,.7.128,1.509,1.509,0,0,0,.608-.112q.256-.112.256-.528a3.3,3.3,0,0,0-.32-1.28,11.578,11.578,0,0,0-.752-1.44,13.312,13.312,0,0,0-.752-1.12,27.206,27.206,0,0,1-2.944.8,14.418,14.418,0,0,1-3.008.32,9.307,9.307,0,0,1-3.6-.768,7.8,7.8,0,0,1-3.024-2.176,4.5,4.5,0,0,1-.288-.384q-.128-.192-.256-.416a2.433,2.433,0,0,1-.192-.432,3.371,3.371,0,0,1-.128-.432l.1-.064a1.1,1.1,0,0,0,.192.208.7.7,0,0,1,.16.176,6.293,6.293,0,0,0,2.288,1.472,7.634,7.634,0,0,0,2.672.48,16.916,16.916,0,0,0,6.5-1.408q-.416-.64-.832-1.3t-.832-1.3a7.285,7.285,0,0,1-1.7.416,15.369,15.369,0,0,1-1.76.1,4.036,4.036,0,0,1-2-.528,8.222,8.222,0,0,1-1.68-1.232,5.364,5.364,0,0,1-.5-.576,1.339,1.339,0,0,1-.272-.7,4.489,4.489,0,0,0,1.248.448,6.253,6.253,0,0,0,1.312.16,13.563,13.563,0,0,0,1.776-.112,5.812,5.812,0,0,0,1.68-.5q-.48-.736-1.136-1.6a11.032,11.032,0,0,0-1.424-1.552,3.614,3.614,0,0,0-1.7-.88.7.7,0,0,1,.464-.576,2.9,2.9,0,0,1,.9-.192q.5-.032.784-.032a10.309,10.309,0,0,1,1.1.064,3.376,3.376,0,0,1,1.072.288,2.834,2.834,0,0,1,.976.752,1.692,1.692,0,0,1,.464,1.136v.224a.516.516,0,0,1-.064.224q.032.288.08.576a1.912,1.912,0,0,0,.176.544l.512-.064a3.882,3.882,0,0,1,.48-.032,4.5,4.5,0,0,1,.992.144,3.345,3.345,0,0,1,1.072.448.933.933,0,0,1,.464.816.8.8,0,0,1-.224.56,2.073,2.073,0,0,1-.512.4q.736.32,1.488.672a3.692,3.692,0,0,0,1.584.352q.416-.16.816-.288a2.766,2.766,0,0,1,.848-.128,2.177,2.177,0,0,1,1.3.336,1.428,1.428,0,0,1,.464,1.232,1.744,1.744,0,0,1-.48,1.136,5.99,5.99,0,0,1-1.184,1.04,14.085,14.085,0,0,1-1.408.848q-.7.368-1.184.56.576.576,1.312,1.328t1.44,1.6a9.123,9.123,0,0,1,1.152,1.744A3.916,3.916,0,0,1,226.72,126.12Zm24.1,3.392a13.319,13.319,0,0,0-1.824-.48,9.945,9.945,0,0,0-1.888-.192,10.115,10.115,0,0,0-1.232.1,3.664,3.664,0,0,0-1.328.416,1.059,1.059,0,0,0-.576.992.89.89,0,0,0,.448.752,3.384,3.384,0,0,0,1.088.464,8.99,8.99,0,0,0,1.264.224q.624.064.944.064a7.787,7.787,0,0,0,1.584-.144,1.8,1.8,0,0,0,1.088-.656A2.607,2.607,0,0,0,250.816,129.512Zm5.152-11.264q0-.256-.4-.624t-.864-.72a7.309,7.309,0,0,0-.688-.48,11.274,11.274,0,0,1-1.344.48v1.12q0,.512.048,1.056t.08,1.088q.224-.1.736-.3t1.072-.48a5.707,5.707,0,0,0,.96-.576Q255.968,118.5,255.968,118.248Zm4.736,14.016a1.73,1.73,0,0,1-.416,1.2,1.508,1.508,0,0,1-1.184.464,2.193,2.193,0,0,1-.992-.24,3.662,3.662,0,0,1-.832-.56,14.121,14.121,0,0,0-1.68-1.328q-.88-.592-1.808-1.1a2.714,2.714,0,0,1-.768,2.032,4.493,4.493,0,0,1-1.888,1.088,7.657,7.657,0,0,1-2.208.336,12.5,12.5,0,0,1-1.3-.08,4.308,4.308,0,0,1-1.264-.3,4.248,4.248,0,0,1-.9-.448,7.8,7.8,0,0,1-.736-.672,4.3,4.3,0,0,0-1.12-.816,3.9,3.9,0,0,1-1.024-.72,1.793,1.793,0,0,1-.416-1.312,1.443,1.443,0,0,1,.144-.624,2.354,2.354,0,0,1,.336-.528,3.613,3.613,0,0,1,1.648-1.216,7.724,7.724,0,0,1,2.064-.432q1.088-.08,2.08-.08a11.916,11.916,0,0,1,1.248.064,11.609,11.609,0,0,0,1.216.064v-3.776l-.928.064q-.48.032-.928.032-.672,0-1.552-.016a13.169,13.169,0,0,1-1.728-.144,5.225,5.225,0,0,1-1.456-.416,6.668,6.668,0,0,1-1.952-1.408,6.3,6.3,0,0,1-1.216-2.08q-.1-.256-.16-.5a1.8,1.8,0,0,1-.064-.464.057.057,0,0,1,.064-.064.065.065,0,0,1,.048.016l.016.016q.192.224.368.448a5.036,5.036,0,0,0,.4.448,5.583,5.583,0,0,0,2.272,1.344,9.4,9.4,0,0,0,2.624.352q1.056,0,2.128-.1a16.819,16.819,0,0,0,2.1-.32v-3.36a5.047,5.047,0,0,1-.992.1,5.369,5.369,0,0,1-3.1-.9,6.18,6.18,0,0,1-2.08-2.5,1.79,1.79,0,0,1-.16-.672,5.736,5.736,0,0,0,1.632,1.12,5.114,5.114,0,0,0,1.952.32,7.2,7.2,0,0,0,2.72-.544v-.64q0-.448-.032-1.12a8.823,8.823,0,0,0-.16-1.312,2.008,2.008,0,0,0-.416-.96,1.275,1.275,0,0,0-.8-.5q-.416-.048-.96-.08-.1-.1-.1-.128a1.1,1.1,0,0,1,.48-.864,3.93,3.93,0,0,1,1.072-.608,2.894,2.894,0,0,1,.976-.224,3.477,3.477,0,0,1,1.472.4,2.573,2.573,0,0,1,1.152.944,1.643,1.643,0,0,1,.192.8,1.246,1.246,0,0,1-.144.592q-.144.272-.272.56a3.857,3.857,0,0,0-.192.736q-.1.512-.144,1.008t-.08.784q.352-.256.592-.416a1.17,1.17,0,0,1,.656-.16,1.949,1.949,0,0,1,.752.24,2.66,2.66,0,0,1,.688.432,1.149,1.149,0,0,1,.32.5,2.335,2.335,0,0,1,.064.592,1.052,1.052,0,0,1-.592.928,9.121,9.121,0,0,1-1.04.544q.7.32,1.424.624a3.868,3.868,0,0,0,1.52.3,4.309,4.309,0,0,0,.64-.048,4.308,4.308,0,0,1,.64-.048.979.979,0,0,1,.9.464,1.876,1.876,0,0,1,.288,1.008,2.192,2.192,0,0,1-.768,1.6,7.981,7.981,0,0,1-1.888,1.312,16.847,16.847,0,0,1-2.24.96q-1.12.384-1.824.576.16,1.216.24,2.432t.208,2.432q.544.128,1.44.4a17.433,17.433,0,0,1,1.888.7,15.166,15.166,0,0,1,1.856.96,6.329,6.329,0,0,1,1.424,1.152A1.962,1.962,0,0,1,260.7,132.264Zm24.512-9.888a6.06,6.06,0,0,0-.08-.928,2.08,2.08,0,0,0-.336-.88.941.941,0,0,0-.832-.368,1.864,1.864,0,0,0-1.328.5,3.185,3.185,0,0,0-.8,1.216,4.009,4.009,0,0,0-.272,1.424,7.675,7.675,0,0,0,.1,1.12,2.593,2.593,0,0,0,.432,1.12,1.117,1.117,0,0,0,.976.48,1.435,1.435,0,0,0,1.216-.688,4.785,4.785,0,0,0,.7-1.552A5.947,5.947,0,0,0,285.216,122.376Zm12.1-7.04a1.046,1.046,0,0,1-.336.816,1.216,1.216,0,0,1-.848.3,1.277,1.277,0,0,1-.336-.048q-.176-.048-.336-.08-.7-.224-1.408-.384t-1.44-.256a15.865,15.865,0,0,0-1.76-.16q-.9-.032-1.792-.032h-.832q-.416,0-.864.032-.032.96-.08,1.9t-.048,1.9a5.988,5.988,0,0,1,1.04,1.632,5.435,5.435,0,0,1,.368,1.584q.064.816.064,1.9a10.234,10.234,0,0,1-1.232,5.28,8.561,8.561,0,0,1-3.44,3.248,17.945,17.945,0,0,1-5.152,1.712l-1.584.256a10.014,10.014,0,0,1-1.616.128.876.876,0,0,1-.192-.032q-.128-.032-.128-.128,0-.224.384-.256a2.44,2.44,0,0,1,.512-.1,1.618,1.618,0,0,0,.384-.064q.672-.128,1.328-.288a9.631,9.631,0,0,0,1.3-.416,10.292,10.292,0,0,0,2.768-1.6,9.85,9.85,0,0,0,2.224-2.48,6.6,6.6,0,0,0,1.024-3.024l-.128-.032a3.833,3.833,0,0,1-.864,1.184,1.844,1.844,0,0,1-1.28.64q-.7,0-.88-.272a6.127,6.127,0,0,1-.432-.88q-.128-.352-.24-.7a6.369,6.369,0,0,0-.272-.7,3.562,3.562,0,0,0-.656-1.184,1.917,1.917,0,0,1-.432-1.28,4.747,4.747,0,0,1,.608-2.384,4.657,4.657,0,0,1,1.664-1.712,4.479,4.479,0,0,1,2.368-.64h.352q0-.192.016-.4t.016-.4q0-.544-.016-1.088t-.048-1.056q-2.144.384-4.3.912a18.671,18.671,0,0,0-4.144,1.552,4.574,4.574,0,0,1-.688.336,2.132,2.132,0,0,1-.784.144,2.424,2.424,0,0,1-1.712-.672,4.443,4.443,0,0,1-1.1-1.648,5.036,5.036,0,0,1-.384-1.84,3.251,3.251,0,0,0,1.488.816,6.908,6.908,0,0,0,1.648.208h.288a1.052,1.052,0,0,0,.256-.032q2.368-.192,4.7-.576t4.672-.7q-.032-.736-.032-1.488a6.55,6.55,0,0,0-.16-1.456,2.536,2.536,0,0,0-.56-1.392,2.05,2.05,0,0,0-1.456-.4,1.935,1.935,0,0,1,1.04-1.216,3.507,3.507,0,0,1,1.552-.384,3.417,3.417,0,0,1,1.84.528,1.8,1.8,0,0,1,.848,1.648,1.712,1.712,0,0,1-.128.64,3.649,3.649,0,0,0-.192.64q-.1.608-.176,1.248t-.112,1.28q.512-.064,1.008-.1l.976-.064q.256-.032.9-.08t.832-.08a1.056,1.056,0,0,1,.176-.064.13.13,0,0,0,.112-.128q0-.256-.432-.512t-.624-.352l.064-.128q.832.16,1.936.3t2,.272a4.234,4.234,0,0,1,1.216.288,3.375,3.375,0,0,1,1.5,1.312A1.4,1.4,0,0,1,297.312,115.336ZM312.1,131.048a2.916,2.916,0,0,0-.848-2.1,2.758,2.758,0,0,0-2.064-.88,2.708,2.708,0,0,0-2.048.88,2.946,2.946,0,0,0-.832,2.1,2.825,2.825,0,0,0,.848,2.048,2.747,2.747,0,0,0,2.032.864,2.783,2.783,0,0,0,2.064-.864A2.825,2.825,0,0,0,312.1,131.048Zm1.632,0a4.2,4.2,0,0,1-.624,2.256,4.525,4.525,0,0,1-3.92,2.16,4.581,4.581,0,0,1-2.256-.576,4.475,4.475,0,0,1-1.664-1.584,4.2,4.2,0,0,1-.624-2.256,4.342,4.342,0,0,1,.608-2.288,4.476,4.476,0,0,1,1.648-1.6,4.59,4.59,0,0,1,6.224,1.6A4.342,4.342,0,0,1,313.728,131.048Z" transform="translate(-1.152 -10.024)" fill="#fff"/></svg>