<svg xmlns="http://www.w3.org/2000/svg" width="225.17" height="23" viewBox="0 0 225.17 23"><g transform="translate(335.567 4407.597)"><path d="M-235.021-4402.525l.493-3.917,6.524-.087-.478,3.94,1.449.126-.605,4.181h-1.571l-.124,1.333,1.152,1.709-.9,6.288-1.089-1.915-.906,4.181-6.471-.054.481-3.936-5.987,3.936,1.329-7.677,5.872-2.843-.059-1.021-5.438.025.658-4.268Z" transform="translate(54.502 0.629)" fill="#fff"/><path d="M-231.151-4406.629l-3.045,20h5.826l2.359-15.072h11.071l-2.12,15.018h6.6l2.949-19.946Z" transform="translate(59.723 0.57)" fill="#fff"/><path d="M-228.55-4402.918l-.534,3.014h10.075l.419-3.014Z" transform="translate(62.734 2.757)" fill="#fff"/><path d="M-228.608-4400.541l-1.586,10.3h10.244l1.541-10.3h-10.2m5.066,6.146h-1.478l.367-2.341h1.468l-.358,2.341Z" transform="translate(62.081 4.157)" fill="#fff"/><path d="M-180.922-4398.991l.647-3.546h-10.771l.462-3.987h-8.011l-.524,3.736H-203.9l2.651-3.736-6.716-.094-9,10.612h7.234l-.418,2.912h9.489l-.466,2.469h-13.254l-.586,4.251h32.744l.518-4.321h-11.186l.3-2.205h8.95l.475-3.555h-8.777l.294-2.536h10.72M-200-4396.863h-7.831l1.413-2h6.589l-.17,2Z" transform="translate(69.878 0.577)" fill="#fff"/><g transform="translate(-335.567 -4407.597)"><path d="M-330.857-4407.325h8.094c3.779,0,5.913,1.768,5.13,5.459a6.149,6.149,0,0,1-4.532,4.99l-.016.063c1.592.246,3.885.958,2.93,5.485-.558,2.607-2.458,6.139-8.626,6.139h-7.69Zm1.321,18.3h1.576a3.3,3.3,0,0,0,3.434-2.884c.466-2.176-.458-3.1-2.069-3.1h-1.67Zm2.01-9.46h1.425a2.934,2.934,0,0,0,3.092-2.6c.246-1.148-.113-2.387-2.007-2.387h-1.456Z" transform="translate(335.567 4407.757)" fill="#fff"/><path d="M-318.15-4384.6c-6.852,0-6.833-4.462-5.338-11.5s3.377-11.5,10.229-11.5c7.378,0,6.639,5.363,5.336,11.5S-310.768-4384.6-318.15-4384.6Zm.707-3.472c2.107,0,2.833-1.949,4.125-8.025s1.4-8.028-.71-8.028c-2.045,0-2.771,1.953-4.063,8.028S-319.488-4388.069-317.442-4388.069Z" transform="translate(342.209 4407.598)" fill="#fff"/><path d="M-304.676-4407.325h6.512l.812,22.137h-5.4l.091-4.216h-5.3l-1.673,4.216h-5.4Zm2.306,4.036h-.062l-3.927,9.854h3.784Z" transform="translate(347.669 4407.757)" fill="#fff"/><path d="M-297.284-4403.107h-4.653l.895-4.218h14.51l-.895,4.218h-4.653l-3.808,17.919H-301.1Z" transform="translate(355.38 4407.757)" fill="#fff"/><path d="M-286.234-4407.325h8.74c4.435,0,5.373,2.73,4.731,5.772-.69,3.218-2.325,4.8-4.868,5.387l-.016.066c3.22.468,2.965,2.543,2.393,5.515-.834,4.375-.776,4.806-.1,5.121l-.059.275h-5.616c-.238-.743-.132-1.986.4-4.5.817-3.846.461-4.648-1.182-4.648h-1.983l-1.942,9.144h-5.209Zm3.224,9.333h1.611a3.3,3.3,0,0,0,3.282-2.881c.356-1.673-.029-2.789-2.106-2.789H-281.8Z" transform="translate(361.86 4407.757)" fill="#fff"/><path d="M-270.367-4407.325h6.508l.814,22.137h-5.4l.092-4.216h-5.3l-1.67,4.216h-5.394Zm2.3,4.036h-.065l-3.92,9.854h3.781Z" transform="translate(367.882 4407.757)" fill="#fff"/><path d="M-257.161-4399.477c.687-3.222.618-4.646-1.117-4.646-2.079,0-2.684,1.983-3.922,7.777-1.394,6.574-1.54,8.276.633,8.276,1.918,0,2.608-2.194,3.371-5.639h5.019l-.164.773c-1.016,4.775-3.107,8.337-9.554,8.337-6.663,0-6.129-4.986-4.715-11.654,1.208-5.673,2.722-11.346,10.1-11.346,4.583,0,6.676,1.985,5.568,7.193l-.2.928Z" transform="translate(375.079 4407.598)" fill="#fff"/><path d="M-253.947-4407.325h12.8l-.9,4.218h-7.6l-.941,4.436h7.13l-.9,4.214h-7.129l-1.074,5.054h7.936l-.893,4.216h-13.149Z" transform="translate(380.879 4407.757)" fill="#fff"/><line x2="95.852" transform="translate(124.638 0.421)" fill="none"/><line x2="95.852" transform="translate(124.638 22.567)" fill="none"/><line y2="22.146" transform="translate(139.729 0.437)" fill="none"/><line y2="22.146" transform="translate(147.023 0.437)" fill="none"/></g></g></svg>