<svg xmlns="http://www.w3.org/2000/svg" width="55.68" height="210.217" viewBox="0 0 55.68 210.217"><g transform="translate(-565.628 -18201.461)"><g transform="translate(572.483 18201.383)"><rect width="3" height="105" transform="translate(9.517 19.078)" fill="#fff"/><rect width="3" height="105" transform="translate(19.517 0.078)" fill="#fff"/><rect width="3" height="105" transform="translate(29.517 19.078)" fill="#fff"/><rect width="3" height="106" transform="translate(39.517 31.078)" fill="#fff"/><rect width="3" height="106" transform="translate(-0.483 31.078)" fill="#fff"/></g><path d="M-21.444-5.832c3.84,0,6.192-1.92,6.192-5.424,0-3.552-2.376-5.3-6.192-5.3h-5.928V0h3.36V-5.832Zm-2.568-2.832V-13.7h2.088c2.328,0,3.312.864,3.312,2.448,0,1.776-.984,2.592-3.312,2.592ZM-11.316,0l1.008-3.144h5.544L-3.756,0H-.18L-5.94-16.56H-9.156L-14.916,0Zm3.768-11.808,1.872,5.832H-9.42ZM8-8.616v2.832h2.784c-.192,1.992-.96,3.168-2.856,3.168-1.944,0-2.976-1.32-2.976-4.488V-9.456c0-3.168,1.032-4.488,2.976-4.488a2.739,2.739,0,0,1,2.856,2.52H14c-.5-3.384-2.592-5.352-6.072-5.352-3.72,0-6.336,2.208-6.336,7.56V-7.1C1.6-2.04,4.212.216,7.932.216c3.744,0,6.1-2.256,6.1-7.32V-8.616Zm9.984-7.944V0h10.32V-2.832h-6.96v-4.32h6.24V-9.984h-6.24V-13.7h6.96V-16.56Zm-39.9,28V14.3h4.56V28h3.36V14.3h4.56V11.44ZM5.616,20.9V18.544c0-5.112-2.616-7.32-6.36-7.32-3.72,0-6.336,2.208-6.336,7.32V20.9c0,5.064,2.616,7.32,6.336,7.32C3,28.216,5.616,25.96,5.616,20.9ZM-3.72,18.544c0-3.168,1.032-4.488,2.976-4.488s3,1.32,3,4.488V20.9c0,3.168-1.056,4.488-3,4.488S-3.72,24.064-3.72,20.9ZM15.5,22.168c3.84,0,6.192-1.92,6.192-5.424,0-3.552-2.376-5.3-6.192-5.3H9.576V28h3.36V22.168Zm-2.568-2.832V14.3h2.088c2.328,0,3.312.864,3.312,2.448,0,1.776-.984,2.592-3.312,2.592Z" transform="translate(593 18383.461)" fill="#fff"/></g></svg>