<svg xmlns="http://www.w3.org/2000/svg" width="382.116" height="95.002" viewBox="0 0 382.116 95.002"><path d="M38.01-30.744a2.065,2.065,0,0,0-.588-1.491,1.959,1.959,0,0,0-1.47-.609,1.979,1.979,0,0,0-1.449.609,2.028,2.028,0,0,0-.609,1.491,1.994,1.994,0,0,0,.63,1.491,2,2,0,0,0,1.428.609,1.979,1.979,0,0,0,1.449-.609A2.028,2.028,0,0,0,38.01-30.744ZM34.65-24.7a2.952,2.952,0,0,1-.462,1.365,3.908,3.908,0,0,1-1.3,1.365q-.462,1.68-1.092,3.486T30.45-15.12a29.309,29.309,0,0,1-7.035,9.66A26.041,26.041,0,0,1,12.306.084q-.924.21-2.331.441T7.182.9Q5.8,1.05,5,1.05q-.168,0-.483.021T4.2.756A.347.347,0,0,1,4.368.441,1.121,1.121,0,0,1,4.746.294Q5.208.21,5.859.1A10.725,10.725,0,0,0,7.1-.168a22.266,22.266,0,0,0,5.145-2.163,30.637,30.637,0,0,0,4.851-3.444,29.381,29.381,0,0,0,4.116-4.347,30.08,30.08,0,0,0,2.52-4.011,27.89,27.89,0,0,0,2-4.767,15.732,15.732,0,0,0,.777-4.7q.042-.756-.882-.756a4.142,4.142,0,0,0-1.008.126,44.173,44.173,0,0,0-4.389.966q-2.331.63-4.431,1.386A33.632,33.632,0,0,0,12.18-20.37q-.294.168-.609.357a1.4,1.4,0,0,1-.735.189,1.566,1.566,0,0,1-.567-.105q-.273-.1-.525-.189a11.286,11.286,0,0,1-1.953-1.008A5.531,5.531,0,0,1,6.174-22.68a3.71,3.71,0,0,1-.63-2.142,6.5,6.5,0,0,1,.063-.819,2.167,2.167,0,0,1,.567-1.071,3.029,3.029,0,0,0,1.323.987,7.171,7.171,0,0,0,1.785.483,11.836,11.836,0,0,0,1.554.126q1.092,0,2.961-.189t3.927-.462q2.058-.273,3.759-.546t2.5-.441a8.362,8.362,0,0,0,1.449-.525q.777-.357,1.155-.525a4.932,4.932,0,0,1,.861-.315,3.269,3.269,0,0,1,.819-.147,7.811,7.811,0,0,1,2.226.336,11.879,11.879,0,0,1,2.037.8,4.4,4.4,0,0,1,1.239.84,3.335,3.335,0,0,1,.567.672A1.631,1.631,0,0,1,34.65-24.7Zm4.914-6.048a3.556,3.556,0,0,1-1.05,2.583,3.451,3.451,0,0,1-2.562,1.071,3.52,3.52,0,0,1-2.583-1.071A3.52,3.52,0,0,1,32.3-30.744a3.627,3.627,0,0,1,1.05-2.6,3.467,3.467,0,0,1,2.6-1.092,3.4,3.4,0,0,1,2.583,1.092A3.666,3.666,0,0,1,39.564-30.744ZM79.128-18.69a1.292,1.292,0,0,1-.252.8,4.167,4.167,0,0,1-1.05.84,22.255,22.255,0,0,1-1.512,3.906,34.806,34.806,0,0,1-2.247,3.927A27.027,27.027,0,0,1,71.61-6.006a22.541,22.541,0,0,1-3.255,2.9A22.42,22.42,0,0,1,64.3-.756,28.5,28.5,0,0,1,59.283.9a35.822,35.822,0,0,1-5.313.819q-.714.042-1.428.063t-1.134.021q-.168,0-.462.021t-.336-.315a.26.26,0,0,1,.189-.273q.189-.063.357-.1A18.54,18.54,0,0,0,53.34.714a24.2,24.2,0,0,0,4.935-1.869,26.01,26.01,0,0,0,4.62-2.982,22.947,22.947,0,0,0,3.759-3.8A29.819,29.819,0,0,0,68.9-11.3a24.185,24.185,0,0,0,1.764-3.717,9.749,9.749,0,0,0,.693-3.339q-.042-.672-.882-.672-.21,0-.483.021a4.083,4.083,0,0,0-.483.063q-1.512.252-3.276.588t-3.549.735q-1.785.4-3.3.777t-2.478.714q-.294.168-.567.315a1.452,1.452,0,0,1-.693.147,3.964,3.964,0,0,1-1.26-.21,4.979,4.979,0,0,1-2.331-1.533,4.368,4.368,0,0,1-.987-2.667,3.127,3.127,0,0,1,.021-.8,2.2,2.2,0,0,1,.483-1.008,3.369,3.369,0,0,0,1.365.9,9.494,9.494,0,0,0,1.869.525,9.528,9.528,0,0,0,1.554.168q1.05,0,2.835-.126t3.738-.294q1.953-.168,3.57-.357t2.373-.315a12.282,12.282,0,0,0,1.449-.4,9.91,9.91,0,0,0,1.155-.441,9.372,9.372,0,0,1,.9-.378,4.629,4.629,0,0,1,.861-.252,4.252,4.252,0,0,1,1.491.273,7.286,7.286,0,0,1,1.281.609q.588.378,1.323.924a8.377,8.377,0,0,1,1.26,1.134A1.819,1.819,0,0,1,79.128-18.69Zm-5.46-9.03A1.136,1.136,0,0,1,73-26.628a6.439,6.439,0,0,1-1.134.462q-1.218.294-2.856.546t-3.3.42q-1.659.168-2.961.168a13.182,13.182,0,0,1-2.835-.252,4.821,4.821,0,0,1-1.995-.966,12.19,12.19,0,0,1-1.932-2.1q-.168-.21-.42-.5a.841.841,0,0,1-.252-.462q0-.5.42-.5a.968.968,0,0,1,.525.231,2.141,2.141,0,0,0,.567.315q.714.168,1.3.315a4.945,4.945,0,0,0,1.428.105,34.677,34.677,0,0,0,3.7-.462,25.2,25.2,0,0,0,4.326-1.134q.462-.168.924-.315a3.033,3.033,0,0,1,.924-.147,6.314,6.314,0,0,1,1.218.189,4.689,4.689,0,0,1,1.134.357,3.985,3.985,0,0,1,1.26,1.008A2.4,2.4,0,0,1,73.668-27.72Zm44.016.126a1.421,1.421,0,0,1-.4,1.113,3.364,3.364,0,0,1-1.071.609q-1.092,1.344-2.226,2.667t-2.352,2.541a9.066,9.066,0,0,1,1.092.819,1.523,1.523,0,0,1,.672,1.071,1.868,1.868,0,0,1-.336.924,2.944,2.944,0,0,0-.42,1.134,3.061,3.061,0,0,0-.042.5v.5q0,3.318.063,6.636t.273,6.636q.084.5.126,1.029t.042,1.029a3.874,3.874,0,0,1-.315,1.449,3.857,3.857,0,0,1-.9,1.344,1.883,1.883,0,0,1-1.344.567,2.533,2.533,0,0,1-1.911-.882A5.873,5.873,0,0,1,107.394.021a6.515,6.515,0,0,1-.42-2.121,3.053,3.053,0,0,1,.126-.882q.126-.42.21-.84.21-.84.441-1.7a8.327,8.327,0,0,0,.273-1.785q.168-1.6.273-3.15t.1-3.108q0-.924-.021-1.827t-.021-1.827a29.308,29.308,0,0,1-6.027,4.263,38.128,38.128,0,0,1-6.825,2.793q-.294.042-1.05.231a5.3,5.3,0,0,1-1.008.189q-.084,0-.273-.021t-.189-.189q0-.126.378-.336t.777-.42a4.712,4.712,0,0,1,.525-.252,32.458,32.458,0,0,0,5.754-4.2,47.1,47.1,0,0,0,4.914-5.166q.462-.588,1.281-1.68t1.68-2.352a20.952,20.952,0,0,0,1.449-2.436,4.562,4.562,0,0,0,.588-1.89.8.8,0,0,0-.462-.693,4.56,4.56,0,0,0-1.029-.441q-.567-.168-.9-.294.042-.294.546-.609a8.206,8.206,0,0,1,1.218-.609q.714-.294,1.344-.483a3.647,3.647,0,0,1,.924-.189,4.153,4.153,0,0,1,1.386.252,6.575,6.575,0,0,1,1.26.588,4.845,4.845,0,0,1,1.176.882,13.6,13.6,0,0,1,1.3,1.407A2.192,2.192,0,0,1,117.684-27.594ZM171.528-6.51a2.3,2.3,0,0,1-.966,2,3.655,3.655,0,0,1-2.184.693,4.272,4.272,0,0,1-1.932-.609,17.728,17.728,0,0,1-2.205-1.407,20.743,20.743,0,0,1-1.659-1.344q-1.6-1.512-3.108-3.129t-2.982-3.3q-.882-1.008-1.743-2.058a22.262,22.262,0,0,0-1.827-1.974q-.462-.5-1.218-1.239a2.238,2.238,0,0,0-1.554-.735,1.4,1.4,0,0,0-1.008.462q-.8.8-1.512,1.638-.672.8-1.344,1.617T144.9-14.238q-.462.588-.966,1.2a11.9,11.9,0,0,0-.924,1.281,8.9,8.9,0,0,1-1.155,1.449,2.359,2.359,0,0,1-1.743.609,4.827,4.827,0,0,1-2.205-.567,5.221,5.221,0,0,1-1.827-1.512,3.431,3.431,0,0,1-.714-2.121,3.311,3.311,0,0,1,.063-.651,1.259,1.259,0,0,1,.273-.567,4.2,4.2,0,0,0,2.226.588,2.789,2.789,0,0,0,1.575-.525,15.486,15.486,0,0,0,1.323-.987l3.3-3.045q1.659-1.533,3.381-2.961a3.785,3.785,0,0,1,1.6-.819,8.015,8.015,0,0,1,1.764-.189,4.037,4.037,0,0,1,1.617.378,6.7,6.7,0,0,1,1.449.84q3.024,2.394,5.964,4.872a64.6,64.6,0,0,0,6.132,4.578q.462.294,1.407.882t1.848,1.2a5.553,5.553,0,0,1,1.2.987,4.91,4.91,0,0,1,.714,1.344A4.31,4.31,0,0,1,171.528-6.51Zm-8.694-18.438a1.911,1.911,0,0,1-.462,1.344,1.732,1.732,0,0,1-1.344.5,1.3,1.3,0,0,1-.966-.441,2.627,2.627,0,0,1-.588-.9q-.168-.462-.378-.924a8.75,8.75,0,0,0-.462-.882,4.66,4.66,0,0,0-1.806-1.806.559.559,0,0,0-.189-.126.163.163,0,0,1-.105-.168q0-.126.168-.168a1.149,1.149,0,0,1,.252-.042,10.078,10.078,0,0,1,2.856.42,4.658,4.658,0,0,1,2.352,1.554A2.322,2.322,0,0,1,162.834-24.948Zm4.536-2.562a1.65,1.65,0,0,1-.462,1.26,1.6,1.6,0,0,1-1.218.546,1.571,1.571,0,0,1-1.428-.882,11.21,11.21,0,0,0-.84-1.281,5.855,5.855,0,0,0-1.05-1.071,5.2,5.2,0,0,0-.924-.735q-.5-.315-1.008-.609-.126-.126-.126-.168-.042-.084.063-.1a.289.289,0,0,0,.147-.063,6.118,6.118,0,0,1,.8-.084q.63-.042.8-.042a11.063,11.063,0,0,1,2.226.252,5.29,5.29,0,0,1,2.1.9,2.373,2.373,0,0,1,.924,1.953Zm48.594,12.138a1.874,1.874,0,0,1-.861,1.638,4.117,4.117,0,0,1-2.079.672h-3.507q-1.365,0-2.5-.042-.546,0-1.029-.021T205-13.146q-3.7,0-6.636.105t-6.132.231q-.588.042-1.806.147t-2.6.252q-1.386.147-2.52.252a14.958,14.958,0,0,0-1.512.189,5.981,5.981,0,0,1-3.486-.987,3.4,3.4,0,0,1-1.428-3,3.851,3.851,0,0,1,.357-1.47,1.6,1.6,0,0,1,.9-1.008,3.554,3.554,0,0,0,1.365,1.26,5.8,5.8,0,0,0,1.7.567,9.407,9.407,0,0,0,1.512.147q1.344,0,2.688.021t2.688-.021q2.226-.126,3.969-.252t3.969-.378q2.226-.252,3.906-.483t3.129-.567q1.449-.336,2.919-.8a15.937,15.937,0,0,1,3.4.441,11.572,11.572,0,0,1,2.73.987,5.639,5.639,0,0,1,1.2.924A1.765,1.765,0,0,1,215.964-15.372Zm38.052,1.764a2.951,2.951,0,0,1-.945,2.583,4.751,4.751,0,0,1-2.709.651,2.345,2.345,0,0,1-1.26-.483,4.784,4.784,0,0,1-1.05-.9Q247-13.146,245.8-14.448a16.421,16.421,0,0,0-2.625-2.31,9.155,9.155,0,0,0-3.192-1.428v3.78q0,3.36.252,6.72t.252,6.72a4.127,4.127,0,0,1-.336,1.512,4.192,4.192,0,0,1-.924,1.428,1.9,1.9,0,0,1-1.386.588,1.777,1.777,0,0,1-1.155-.483A4.949,4.949,0,0,1,235.7.924a5.714,5.714,0,0,1-.588-1.176,8.787,8.787,0,0,1-.5-3.024,4.158,4.158,0,0,1,.1-.924q.105-.462.189-.882.126-.84.273-1.68a13.707,13.707,0,0,0,.189-1.68q.252-4.074.336-8.127t.084-8.085q0-1.092-.063-2.394a6.4,6.4,0,0,0-.567-2.394,2.681,2.681,0,0,0-1.764-1.47,1.134,1.134,0,0,1,.651-.861,4.718,4.718,0,0,1,1.344-.525,5.471,5.471,0,0,1,1.113-.168,7.114,7.114,0,0,1,2.436.441,5.1,5.1,0,0,1,2.037,1.323,3.2,3.2,0,0,1,.819,2.268,2.5,2.5,0,0,1-.378,1.3,10.844,10.844,0,0,0-1.134,3.885q-.21,2.079-.252,4.095.84-.084,1.68-.147t1.638-.063a18.763,18.763,0,0,1,4.032.462,13.238,13.238,0,0,1,3.78,1.428,7.486,7.486,0,0,1,1.932,1.554A3.321,3.321,0,0,1,254.016-13.608Zm27.678-2.646a3.4,3.4,0,0,1-.5,1.638,2.659,2.659,0,0,1-1.218,1.134,2.953,2.953,0,0,1-1.6.294,3.6,3.6,0,0,1-1.113-.336,1.72,1.72,0,0,1-.9-.84,6.14,6.14,0,0,0-.42-.63,4.936,4.936,0,0,1-.462-.756,15.432,15.432,0,0,0-2.331-3.108,11.363,11.363,0,0,0-2.079-1.68,2.7,2.7,0,0,1,1.281-.483,9.99,9.99,0,0,1,1.6-.084q.819.021,1.407.063a10.328,10.328,0,0,1,2.079.42,9.838,9.838,0,0,1,2.121.924,5.075,5.075,0,0,1,1.617,1.449A2.968,2.968,0,0,1,281.694-16.254Zm21.756-7.392q0,.042-.4.9t-1.029,1.953q-.84,1.47-1.974,3.318t-2.31,3.549a25.743,25.743,0,0,1-2.184,2.793,39.588,39.588,0,0,1-7.035,5.985A51.136,51.136,0,0,1,279.3-.336q-.378.168-.777.315a2.472,2.472,0,0,1-.861.147,6.1,6.1,0,0,1-1.974-.378A5.893,5.893,0,0,1,273.8-1.3a4.744,4.744,0,0,1-1.281-1.848,5.822,5.822,0,0,1-.4-2.079,4.263,4.263,0,0,1,.294-1.7,2.177,2.177,0,0,1,.231-.357q.147-.189.273-.189a3.1,3.1,0,0,0,.84,1.008q.462.336.756.546a1.593,1.593,0,0,0,.756.126,7.906,7.906,0,0,0,1.323-.126q.735-.126.945-.168a21.512,21.512,0,0,0,3.4-1.134,47.823,47.823,0,0,0,4.851-2.331q2.667-1.449,5.355-3.255a52.521,52.521,0,0,0,6.279-5.061A38.189,38.189,0,0,0,302.4-23.52q.084-.126.273-.357a.505.505,0,0,1,.357-.231q.294,0,.357.147A.791.791,0,0,1,303.45-23.646ZM285.642-25.62a3.358,3.358,0,0,1-.378,1.6,2.778,2.778,0,0,1-1.218,1.155,3.623,3.623,0,0,1-1.638.4,2.616,2.616,0,0,1-1.428-.273,4.857,4.857,0,0,1-.756-.693q-.42-.5-1.008-1.26a14.212,14.212,0,0,0-2.793-2.9,15.136,15.136,0,0,0-2.415-1.554,3.108,3.108,0,0,1,1.281-.567,11.044,11.044,0,0,1,1.68-.252q.861-.063,1.449-.063a13.136,13.136,0,0,1,1.89.147,10.587,10.587,0,0,1,2.058.525,6.737,6.737,0,0,1,2.31,1.533A3.083,3.083,0,0,1,285.642-25.62Zm62.622,10.248a1.874,1.874,0,0,1-.861,1.638,4.117,4.117,0,0,1-2.079.672h-3.507q-1.365,0-2.5-.042-.546,0-1.029-.021t-.987-.021q-3.7,0-6.636.105t-6.132.231q-.588.042-1.806.147t-2.6.252q-1.386.147-2.52.252a14.956,14.956,0,0,0-1.512.189,5.981,5.981,0,0,1-3.486-.987,3.4,3.4,0,0,1-1.428-3,3.851,3.851,0,0,1,.357-1.47,1.6,1.6,0,0,1,.9-1.008,3.554,3.554,0,0,0,1.365,1.26,5.8,5.8,0,0,0,1.7.567,9.407,9.407,0,0,0,1.512.147q1.344,0,2.688.021t2.688-.021q2.226-.126,3.969-.252t3.969-.378q2.226-.252,3.906-.483t3.129-.567q1.449-.336,2.919-.8a15.937,15.937,0,0,1,3.4.441,11.572,11.572,0,0,1,2.73.987,5.639,5.639,0,0,1,1.2.924A1.765,1.765,0,0,1,348.264-15.372Zm38.052,1.764a2.951,2.951,0,0,1-.945,2.583,4.751,4.751,0,0,1-2.709.651,2.345,2.345,0,0,1-1.26-.483,4.784,4.784,0,0,1-1.05-.9q-1.05-1.386-2.247-2.688a16.423,16.423,0,0,0-2.625-2.31,9.155,9.155,0,0,0-3.192-1.428v3.78q0,3.36.252,6.72t.252,6.72a4.127,4.127,0,0,1-.336,1.512,4.193,4.193,0,0,1-.924,1.428,1.9,1.9,0,0,1-1.386.588,1.777,1.777,0,0,1-1.155-.483A4.948,4.948,0,0,1,368,.924a5.714,5.714,0,0,1-.588-1.176,8.787,8.787,0,0,1-.5-3.024,4.157,4.157,0,0,1,.105-.924q.1-.462.189-.882.126-.84.273-1.68a13.713,13.713,0,0,0,.189-1.68q.252-4.074.336-8.127t.084-8.085q0-1.092-.063-2.394a6.4,6.4,0,0,0-.567-2.394,2.681,2.681,0,0,0-1.764-1.47,1.134,1.134,0,0,1,.651-.861,4.717,4.717,0,0,1,1.344-.525,5.471,5.471,0,0,1,1.113-.168,7.114,7.114,0,0,1,2.436.441,5.1,5.1,0,0,1,2.037,1.323,3.2,3.2,0,0,1,.819,2.268,2.5,2.5,0,0,1-.378,1.3,10.843,10.843,0,0,0-1.134,3.885q-.21,2.079-.252,4.095.84-.084,1.68-.147t1.638-.063a18.763,18.763,0,0,1,4.032.462,13.238,13.238,0,0,1,3.78,1.428,7.486,7.486,0,0,1,1.932,1.554A3.321,3.321,0,0,1,386.316-13.608ZM38.01,27.256a2.065,2.065,0,0,0-.588-1.491,1.959,1.959,0,0,0-1.47-.609,1.979,1.979,0,0,0-1.449.609,2.028,2.028,0,0,0-.609,1.491A2.05,2.05,0,0,0,37.4,28.747,2.028,2.028,0,0,0,38.01,27.256ZM34.65,33.3a2.952,2.952,0,0,1-.462,1.365,3.908,3.908,0,0,1-1.3,1.365q-.462,1.68-1.092,3.486T30.45,42.88a29.309,29.309,0,0,1-7.035,9.66,26.041,26.041,0,0,1-11.109,5.544q-.924.21-2.331.441T7.182,58.9Q5.8,59.05,5,59.05q-.168,0-.483.021T4.2,58.756a.347.347,0,0,1,.168-.315,1.121,1.121,0,0,1,.378-.147q.462-.084,1.113-.189A10.725,10.725,0,0,0,7.1,57.832a22.266,22.266,0,0,0,5.145-2.163,30.636,30.636,0,0,0,4.851-3.444,29.381,29.381,0,0,0,4.116-4.347,30.08,30.08,0,0,0,2.52-4.011,27.89,27.89,0,0,0,2-4.767,15.732,15.732,0,0,0,.777-4.7q.042-.756-.882-.756a4.142,4.142,0,0,0-1.008.126,44.172,44.172,0,0,0-4.389.966q-2.331.63-4.431,1.386A33.633,33.633,0,0,0,12.18,37.63q-.294.168-.609.357a1.4,1.4,0,0,1-.735.189,1.566,1.566,0,0,1-.567-.105q-.273-.1-.525-.189a11.286,11.286,0,0,1-1.953-1.008A5.531,5.531,0,0,1,6.174,35.32a3.71,3.71,0,0,1-.63-2.142,6.5,6.5,0,0,1,.063-.819,2.167,2.167,0,0,1,.567-1.071,3.029,3.029,0,0,0,1.323.987,7.17,7.17,0,0,0,1.785.483,11.835,11.835,0,0,0,1.554.126q1.092,0,2.961-.189t3.927-.462q2.058-.273,3.759-.546t2.5-.441a8.362,8.362,0,0,0,1.449-.525q.777-.357,1.155-.525a4.932,4.932,0,0,1,.861-.315,3.269,3.269,0,0,1,.819-.147,7.811,7.811,0,0,1,2.226.336,11.879,11.879,0,0,1,2.037.8,4.4,4.4,0,0,1,1.239.84,3.335,3.335,0,0,1,.567.672A1.631,1.631,0,0,1,34.65,33.3Zm4.914-6.048a3.556,3.556,0,0,1-1.05,2.583,3.451,3.451,0,0,1-2.562,1.071A3.657,3.657,0,0,1,32.3,27.256a3.627,3.627,0,0,1,1.05-2.6,3.467,3.467,0,0,1,2.6-1.092,3.4,3.4,0,0,1,2.583,1.092A3.666,3.666,0,0,1,39.564,27.256ZM83.5,32.926a1.283,1.283,0,0,0-.084.273,2.6,2.6,0,0,1-.126.4,24.716,24.716,0,0,1-3.675,7.161,39.383,39.383,0,0,1-6.153,6.7,48.562,48.562,0,0,1-6.615,4.872A47.825,47.825,0,0,1,60.9,55.48a2.191,2.191,0,0,0-.777.546,1.239,1.239,0,0,1-.945.378A2.519,2.519,0,0,1,58,56.068a4.844,4.844,0,0,1-1.2-1.2,10.824,10.824,0,0,1-.987-1.638q-.42-.861-.672-1.533-.126-.336-.231-.672a1.927,1.927,0,0,1-.1-.546.729.729,0,0,1,.147-.42,1.463,1.463,0,0,1,.315-.336,1.576,1.576,0,0,0,.4-.651,3.04,3.04,0,0,0,.189-1.113q0-1.26.021-2.31t.021-1.974v-1.26q0-1.05-.042-2.436t-.063-2.6a14.659,14.659,0,0,0-.1-1.764,3.719,3.719,0,0,0-1.386-2.457,4.019,4.019,0,0,0-2.646-1.029.731.731,0,0,1,.126-.294q.126-.21.168-.294a2.239,2.239,0,0,0,.315-.294,2.289,2.289,0,0,1,.4-.336,12.929,12.929,0,0,1,1.617-1.071,3.834,3.834,0,0,1,1.911-.567,3.466,3.466,0,0,1,1.47.378,14.712,14.712,0,0,1,1.533.84,8.736,8.736,0,0,1,1.113.8,5.488,5.488,0,0,1,.882.924,1.727,1.727,0,0,1,.378,1.05,1.479,1.479,0,0,1-.5,1.134q-.042.672-.063,1.3t-.063,1.26q-.042.63-.126,1.995t-.168,2.961q-.084,1.6-.147,2.94t-.063,1.932a8.35,8.35,0,0,0,.084,1.407.474.474,0,0,0,.5.441h.126a.373.373,0,0,0,.168-.042,26.054,26.054,0,0,0,2.646-.9q1.68-.651,3.549-1.6a31.484,31.484,0,0,0,3.423-2q1.89-1.344,4.1-3.108a52.288,52.288,0,0,0,4.305-3.864,28.73,28.73,0,0,0,3.612-4.368.9.9,0,0,1,.168-.21.344.344,0,0,1,.21-.126Q83.58,32.422,83.5,32.926Zm41.412,5.082a1.362,1.362,0,0,1-.63,1.239,14.134,14.134,0,0,1-1.638.861,26.642,26.642,0,0,1-2.289,1.827q-1.365.987-2.919,1.953t-3.066,1.785A26.771,26.771,0,0,1,111.594,47a1.371,1.371,0,0,1-.336.147,1.57,1.57,0,0,1-.378.105.357.357,0,0,1-.252-.378q0-.126.189-.252l.315-.21a17.74,17.74,0,0,0,3.213-3.612A12,12,0,0,0,116,39.268a3.006,3.006,0,0,0,.126-.756q0-.588-.756-.588-.126,0-.63.042a3.8,3.8,0,0,0-.882.168q-.8.21-1.953.63t-2.331.9q-1.176.483-2.1.945-.168,2.058-.273,3.843t-.1,2.961a10.716,10.716,0,0,0,.21,2.289,2.164,2.164,0,0,0,1.071,1.449,6.145,6.145,0,0,0,2.919.5,22.831,22.831,0,0,0,3.8-.315q1.869-.315,3.339-.651.336-.084.651-.147a2.92,2.92,0,0,1,.567-.063,4.449,4.449,0,0,1,2.184.609,4.524,4.524,0,0,1,1.638,1.449,2.44,2.44,0,0,1,.273.693,3.312,3.312,0,0,1,.063.651,2.252,2.252,0,0,1-.567,1.386,3.026,3.026,0,0,1-1.575,1.008,19.468,19.468,0,0,1-3.066.462q-1.932.168-3.57.168-1.092,0-2.583-.1t-2.751-.315a11.073,11.073,0,0,1-3.444-1.134,5.373,5.373,0,0,1-2.268-2.394,9.661,9.661,0,0,1-.8-4.284q0-1.638.063-3.423t-.021-3.213q-1.386.8-2.667,1.554t-1.785,1.134a1.919,1.919,0,0,1-1.638.8,2.712,2.712,0,0,1-1.05-.252,8.682,8.682,0,0,1-1.89-1.365,4.5,4.5,0,0,1-1.533-2.415,2.441,2.441,0,0,1-.063-.588,1.655,1.655,0,0,1,.147-.609q.147-.357.357-.357a1.989,1.989,0,0,0,1.176.483,14.718,14.718,0,0,0,1.89.1,7.029,7.029,0,0,0,1.176-.126q.714-.126,1.407-.294t1.071-.252q.8-.21,1.743-.441t1.743-.441q.042-.8.042-2.016t-.021-2.5q-.021-1.281-.021-2.121a3.19,3.19,0,0,0-.672-2.058A3.8,3.8,0,0,0,100.38,29.1a1.981,1.981,0,0,1,1.029-1.218,11.525,11.525,0,0,1,1.491-.756,2.316,2.316,0,0,1,.609-.168,4.331,4.331,0,0,1,.567-.042,5.382,5.382,0,0,1,2.1.462,7.385,7.385,0,0,1,1.722.966,2.9,2.9,0,0,1,.756.84,2.258,2.258,0,0,1,.462,1.26,3.16,3.16,0,0,1-.588,1.638,12.079,12.079,0,0,0-.357,1.575q-.189,1.071-.315,2.2l-.21,1.89q.462-.168,1.491-.525t2.226-.8q1.2-.441,2.142-.777t1.2-.42a15.636,15.636,0,0,1,1.533-.567q.861-.273,1.575-.462a4.877,4.877,0,0,1,.924-.189,6.331,6.331,0,0,1,3.255.777,17.55,17.55,0,0,1,1.953,1.281,2.475,2.475,0,0,1,.735,1.008A2.735,2.735,0,0,1,124.908,38.008Zm-2.31-7.476a1.652,1.652,0,0,1-1.848,1.89,1.588,1.588,0,0,1-.924-.378,1.8,1.8,0,0,1-.672-.966,3.1,3.1,0,0,0-.357-.9q-.273-.483-.483-.9a8.292,8.292,0,0,0-.819-1.008,3.693,3.693,0,0,0-1.029-.756.527.527,0,0,0-.21-.126q-.126-.042-.084-.126,0-.21.42-.21.378,0,.84.042t.588.042a4.739,4.739,0,0,1,.8.147q.378.105.756.189a5.2,5.2,0,0,1,2.31,1.512A2.167,2.167,0,0,1,122.6,30.532Zm4.83-2.436a1.634,1.634,0,0,1-.5,1.386,1.756,1.756,0,0,1-1.386.546,1.693,1.693,0,0,1-1.386-.882,6.343,6.343,0,0,0-.9-1.386,8.866,8.866,0,0,0-1.071-1.092,8.585,8.585,0,0,0-1.2-.882q-.735-.462-.819-.5-.168-.042-.168-.126t.21-.168a1.854,1.854,0,0,1,.5-.063q.42-.021.8-.063a9,9,0,0,1,1.239,0,7.87,7.87,0,0,1,1.323.168,5.274,5.274,0,0,1,2.163.945A2.671,2.671,0,0,1,127.428,28.1Zm42.966,5.544q-.294.63-.63,1.449t-.63,1.407a49.572,49.572,0,0,1-2.835,5.019,33.83,33.83,0,0,1-4.137,5.061,35.946,35.946,0,0,1-3.3,2.961,43.929,43.929,0,0,1-4.116,2.919,44.751,44.751,0,0,1-4.536,2.5,28.209,28.209,0,0,1-4.6,1.743,2.529,2.529,0,0,1-1.47-.168,17.411,17.411,0,0,1-1.743-1.071,5.775,5.775,0,0,1-1.575-1.617q-.168-.294-.441-.756a2.475,2.475,0,0,1-.273-1.26,7.2,7.2,0,0,1,.189-1.89,4.236,4.236,0,0,1,.9-1.848q.21.378.546.945a4.131,4.131,0,0,0,.84,1.008,1.73,1.73,0,0,0,1.176.441,11.964,11.964,0,0,0,3.591-.672,37.243,37.243,0,0,0,4.284-1.7q2.205-1.029,4.116-2.163a33.881,33.881,0,0,0,3.129-2.058q1.68-1.3,3.171-2.5t2.835-2.5q.8-.756,1.512-1.428a15.67,15.67,0,0,0,1.428-1.554q.336-.462.945-1.218t.987-1.218q.084-.126.168-.231a1.1,1.1,0,0,0,.126-.189.4.4,0,0,1,.294-.126q.168,0,.147.252A1.6,1.6,0,0,1,170.394,33.64Zm-18.564,1.3a4.114,4.114,0,0,1-1.092,2.793,3.489,3.489,0,0,1-2.73,1.239,2.063,2.063,0,0,1-1.743-.735,4.251,4.251,0,0,1-.777-1.575A8.415,8.415,0,0,0,144.5,34.5a9.017,9.017,0,0,0-1.722-2.016,5.607,5.607,0,0,0-2.373-1.239q-.42-.126-.462-.294,0-.084.315-.231a5.4,5.4,0,0,1,.567-.231,8.931,8.931,0,0,1,1.743-.336,16.488,16.488,0,0,1,1.743-.126,14.735,14.735,0,0,1,2.373.21,9.95,9.95,0,0,1,2.457.735,4.991,4.991,0,0,1,1.932,1.491A3.9,3.9,0,0,1,151.83,34.942Zm58.086,9.45a2.951,2.951,0,0,1-.945,2.583,4.751,4.751,0,0,1-2.709.651,2.345,2.345,0,0,1-1.26-.483,4.784,4.784,0,0,1-1.05-.9q-1.05-1.386-2.247-2.688a16.421,16.421,0,0,0-2.625-2.31,9.155,9.155,0,0,0-3.192-1.428v3.78q0,3.36.252,6.72t.252,6.72a4.127,4.127,0,0,1-.336,1.512,4.192,4.192,0,0,1-.924,1.428,1.9,1.9,0,0,1-1.386.588,1.777,1.777,0,0,1-1.155-.483,4.949,4.949,0,0,1-.987-1.155,5.714,5.714,0,0,1-.588-1.176,8.787,8.787,0,0,1-.5-3.024,4.158,4.158,0,0,1,.1-.924q.105-.462.189-.882.126-.84.273-1.68a13.707,13.707,0,0,0,.189-1.68q.252-4.074.336-8.127t.084-8.085q0-1.092-.063-2.394a6.4,6.4,0,0,0-.567-2.394,2.681,2.681,0,0,0-1.764-1.47,1.134,1.134,0,0,1,.651-.861,4.718,4.718,0,0,1,1.344-.525,5.471,5.471,0,0,1,1.113-.168,7.114,7.114,0,0,1,2.436.441,5.1,5.1,0,0,1,2.037,1.323,3.2,3.2,0,0,1,.819,2.268,2.5,2.5,0,0,1-.378,1.3,10.844,10.844,0,0,0-1.134,3.885q-.21,2.079-.252,4.1.84-.084,1.68-.147t1.638-.063a18.763,18.763,0,0,1,4.032.462,13.238,13.238,0,0,1,3.78,1.428,7.486,7.486,0,0,1,1.932,1.554A3.321,3.321,0,0,1,209.916,44.392Z" transform="translate(-4.2 34.439)" fill="#fff"/></svg>