<svg xmlns="http://www.w3.org/2000/svg" width="541.984" height="191.6" viewBox="0 0 541.984 191.6"><path d="M9.44,28.1a10.088,10.088,0,0,1-.224,2.064,7.805,7.805,0,0,1-.7,2A4.253,4.253,0,0,1,7.28,33.656a2.942,2.942,0,0,1-1.808.56,1.838,1.838,0,0,1-1.28-.5,1.6,1.6,0,0,1-.544-1.232,2.728,2.728,0,0,1,.176-1.056,1.5,1.5,0,0,1,.688-.7,3.146,3.146,0,0,1,.5-.256,3.715,3.715,0,0,0,.464-.224,7.765,7.765,0,0,0,2.16-2.208,21.208,21.208,0,0,0,1.552-2.688q.128.1.176.688t.064,1.216Q9.44,27.88,9.44,28.1Zm17.536-8.1a1.14,1.14,0,0,1-.352.912,1.42,1.42,0,0,1-.96.3,8.86,8.86,0,0,1-.912-.048q-.464-.048-.912-.08-.512-.032-1.024-.032H21.76q-1.12,0-2.256.08t-2.256.144v.7q0,2.784.112,5.568t.272,5.568a1.006,1.006,0,0,0,.016.16,1.006,1.006,0,0,1,.016.16,8.758,8.758,0,0,1-.24,2.1,3.021,3.021,0,0,1-.9,1.568,2.751,2.751,0,0,1-1.9.592,1.375,1.375,0,0,1-1.04-.3,2.292,2.292,0,0,1-.432-1.008A3.825,3.825,0,0,0,12.08,34.36q-.88-.912-1.648-1.616l.1-.16q.512.224,1.2.512a3.5,3.5,0,0,0,1.36.288,1.374,1.374,0,0,0,1.3-.528,2.935,2.935,0,0,0,.336-1.36q.128-1.792.144-3.616t.016-3.648v-1.36q0-.688-.032-1.36a31.438,31.438,0,0,0-3.408.672,15.233,15.233,0,0,0-3.216,1.184q-.128.064-.288.128a.856.856,0,0,1-.32.064,2.165,2.165,0,0,1-1.04-.416,6.475,6.475,0,0,1-1.184-.96,1.508,1.508,0,0,1-.528-.96,1.208,1.208,0,0,1,.064-.384,2.527,2.527,0,0,0,.1-.384,4.82,4.82,0,0,0,1.216.416A6.356,6.356,0,0,0,7.488,21q.672,0,1.344-.064l1.344-.128q1.12-.128,2.288-.256t2.32-.32V19.5q0-.608-.032-1.44a10.515,10.515,0,0,0-.208-1.7,5.144,5.144,0,0,0-.56-1.536,1.877,1.877,0,0,0-1.088-.9,2.193,2.193,0,0,1,.912-.528,3.484,3.484,0,0,1,1.04-.176,3.473,3.473,0,0,1,1.36.368,5.561,5.561,0,0,1,1.44.928,1.614,1.614,0,0,1,.624,1.2.9.9,0,0,1-.16.56,4.009,4.009,0,0,0-.32.5,2.833,2.833,0,0,0-.3.912,8.99,8.99,0,0,0-.144,1.2q-.032.608-.032,1.024a20.591,20.591,0,0,0,3.024-.624,8.105,8.105,0,0,0,2.7-1.328,6.754,6.754,0,0,1,1.1.112,7.076,7.076,0,0,1,1.3.352,3.591,3.591,0,0,1,1.088.624A1.213,1.213,0,0,1,26.976,20.008ZM28,31.112a3.73,3.73,0,0,1-.48,1.952,1.915,1.915,0,0,1-1.792.8,1.233,1.233,0,0,1-.96-.352,1.842,1.842,0,0,1-.432-.864q-.112-.512-.208-.992a8.656,8.656,0,0,0-.9-2.9,8.825,8.825,0,0,0-1.616-2.112A26.083,26.083,0,0,0,19.3,24.68a8.031,8.031,0,0,1,1.1.144q.56.112,1.072.24a13.49,13.49,0,0,1,2.24.752,10.254,10.254,0,0,1,2.128,1.232,5.941,5.941,0,0,1,1.568,1.744A4.5,4.5,0,0,1,28,31.112Zm-2.56-16.48a1.51,1.51,0,0,1-.272.9.968.968,0,0,1-.848.384.728.728,0,0,1-.592-.3,4.452,4.452,0,0,1-.4-.592,10.612,10.612,0,0,0-.512-1.12,3.6,3.6,0,0,0-.736-.96,4.107,4.107,0,0,0-.4-.352,2.845,2.845,0,0,0-.464-.288q-.128-.064-.128-.128t.1-.064a6.549,6.549,0,0,1,1.264.144,6.751,6.751,0,0,1,1.408.448,3.419,3.419,0,0,1,1.136.784A1.629,1.629,0,0,1,25.44,14.632Zm3.584-1.76a1.22,1.22,0,0,1-.336.848,1.064,1.064,0,0,1-.816.368.764.764,0,0,1-.512-.192,2.339,2.339,0,0,1-.384-.416,8.453,8.453,0,0,0-1.264-1.6A7.162,7.162,0,0,0,24.064,10.7a.343.343,0,0,0-.112-.064q-.08-.032-.08-.1,0-.1.336-.112t.432-.016a12.967,12.967,0,0,1,1.36.08,5.9,5.9,0,0,1,1.44.336,2.914,2.914,0,0,1,1.136.736A1.847,1.847,0,0,1,29.024,12.872Zm33.12,12.544a1.048,1.048,0,0,1-.416.928,2.261,2.261,0,0,1-.992.368,7.724,7.724,0,0,1-1.056.08q-1.44,0-2.88-.032t-2.88-.032q-2.4,0-4.816.064t-4.816.192q-1.184.064-2.384.208t-2.384.3a4.816,4.816,0,0,0-.8.128,3.286,3.286,0,0,1-.8.1,6.677,6.677,0,0,1-1.712-.224,3.046,3.046,0,0,1-1.408-.784,2.188,2.188,0,0,1-.56-1.616,2.816,2.816,0,0,1,.224-.992,1.311,1.311,0,0,1,.64-.768,2.875,2.875,0,0,0,1.552,1.136,6.385,6.385,0,0,0,1.9.3q2.528,0,5.056-.16T48.64,24.2q1.28-.16,2.56-.3a22.34,22.34,0,0,0,2.528-.432q.192-.064.752-.208t1.088-.288a5.169,5.169,0,0,1,.592-.144A16.89,16.89,0,0,1,58.432,23a5.7,5.7,0,0,1,2.144.688,3.912,3.912,0,0,1,.624.416,4.143,4.143,0,0,1,.656.64A1.082,1.082,0,0,1,62.144,25.416Zm26.88,1.312a2.163,2.163,0,0,1-.672,1.824,2.564,2.564,0,0,1-1.6.512,1.184,1.184,0,0,1-.9-.416q-.384-.416-.8-.9a7.791,7.791,0,0,0-.576-.64q-.32-.32-.48-.512a9.351,9.351,0,0,0-.8-.832q-.48-.448-.864-.768a8.545,8.545,0,0,0-1.824-1.2,9.9,9.9,0,0,0-2.048-.72q.064,3.2.24,6.416t.176,6.448a3.7,3.7,0,0,1-.208,1.12,3.343,3.343,0,0,1-.608,1.12,1.226,1.226,0,0,1-.976.48,1.173,1.173,0,0,1-.768-.336,3.86,3.86,0,0,1-.672-.768,4.271,4.271,0,0,1-.416-.752,5.2,5.2,0,0,1-.24-.992,7.257,7.257,0,0,1-.08-1.056,9.34,9.34,0,0,1,.224-2.032,16.575,16.575,0,0,0,.32-2q.256-3.264.288-6.56t.032-6.56a13.968,13.968,0,0,0-.1-1.6,4.365,4.365,0,0,0-.464-1.536,2.169,2.169,0,0,0-1.2-1.024,1.929,1.929,0,0,1,.656-.7,1.567,1.567,0,0,1,.88-.32,5.358,5.358,0,0,1,1.808.352,4.6,4.6,0,0,1,1.68,1.04,2.223,2.223,0,0,1,.7,1.648,1.246,1.246,0,0,1-.064.448q-.064.16-.192.416a9.329,9.329,0,0,0-.88,3.088q-.144,1.52-.176,3.248a11.012,11.012,0,0,1,1.424-.1h1.392a14.351,14.351,0,0,1,2.96.32,9.1,9.1,0,0,1,2.768,1.056,5.67,5.67,0,0,1,1.392,1.136A2.377,2.377,0,0,1,89.024,26.728Zm36.928-8.32a3.347,3.347,0,0,1-.192.544,23.362,23.362,0,0,1-3.9,6.576,31.859,31.859,0,0,1-5.744,5.36,34.921,34.921,0,0,1-6.7,3.84q-.256.128-.528.256a5.063,5.063,0,0,0-.528.288l-.384.3a.725.725,0,0,1-.448.176,1.683,1.683,0,0,1-1.056-.448,5.256,5.256,0,0,1-.992-1.1,7.045,7.045,0,0,1-.72-1.328,3.169,3.169,0,0,1-.272-1.152.521.521,0,0,1,.208-.352,2.049,2.049,0,0,0,.4-.56,2.2,2.2,0,0,0,.192-1.008V23.544q0-.56-.032-1.1t-.016-1.12a5.543,5.543,0,0,0-.08-1.12,3.232,3.232,0,0,0-.992-1.92,3.439,3.439,0,0,0-1.92-.96,7.882,7.882,0,0,1,1.248-1.168,2.549,2.549,0,0,1,1.568-.592,2.961,2.961,0,0,1,1.072.272,9.291,9.291,0,0,1,1.328.688,5.143,5.143,0,0,1,1.12.912,1.478,1.478,0,0,1,.448.976.942.942,0,0,1-.352.768q-.064.512-.08,1.024t-.048,1.024q-.128,2.112-.24,4.208t-.112,4.208a1.207,1.207,0,0,0,.16.624.611.611,0,0,0,.576.272,3,3,0,0,0,.864-.176q.544-.176,1.1-.384t.848-.336a33.787,33.787,0,0,0,3.856-2.1,45.486,45.486,0,0,0,3.872-2.72,37.24,37.24,0,0,0,3.536-3.136,24.481,24.481,0,0,0,2.816-3.376Zm32.192,7.008a1.048,1.048,0,0,1-.416.928,2.261,2.261,0,0,1-.992.368,7.724,7.724,0,0,1-1.056.08q-1.44,0-2.88-.032t-2.88-.032q-2.4,0-4.816.064t-4.816.192q-1.184.064-2.384.208t-2.384.3a4.816,4.816,0,0,0-.8.128,3.286,3.286,0,0,1-.8.1,6.677,6.677,0,0,1-1.712-.224,3.046,3.046,0,0,1-1.408-.784,2.188,2.188,0,0,1-.56-1.616,2.816,2.816,0,0,1,.224-.992,1.311,1.311,0,0,1,.64-.768,2.875,2.875,0,0,0,1.552,1.136,6.385,6.385,0,0,0,1.9.3q2.528,0,5.056-.16t5.024-.416q1.28-.16,2.56-.3a22.34,22.34,0,0,0,2.528-.432q.192-.064.752-.208t1.088-.288a5.169,5.169,0,0,1,.592-.144,16.891,16.891,0,0,1,2.272.176,5.7,5.7,0,0,1,2.144.688,3.911,3.911,0,0,1,.624.416,4.143,4.143,0,0,1,.656.64A1.082,1.082,0,0,1,158.144,25.416Zm29.408,8.256a3.39,3.39,0,0,1-.528,1.792,1.736,1.736,0,0,1-1.584.864,2.3,2.3,0,0,1-1.568-.56,2.967,2.967,0,0,1-.9-1.424q-.192-.608-.352-1.184a6.415,6.415,0,0,0-.448-1.152,8.7,8.7,0,0,0-1.072-1.792,11.218,11.218,0,0,0-1.6-1.728,4.331,4.331,0,0,0-1.776-.992,23.225,23.225,0,0,1-5.28,5.616,21.44,21.44,0,0,1-6.944,3.344q-.832.224-1.76.416a8.988,8.988,0,0,1-1.824.192L161.856,37a20.568,20.568,0,0,0,2.864-1.168,26.063,26.063,0,0,0,3.264-1.9,18.229,18.229,0,0,0,2.96-2.5,32.608,32.608,0,0,0,4.128-5.344,28.145,28.145,0,0,0,2.88-6.08q.1-.352.272-.912a3.152,3.152,0,0,0,.176-.88.424.424,0,0,0-.336-.448,2.191,2.191,0,0,0-.592-.1,4.733,4.733,0,0,0-1.488.32,16.469,16.469,0,0,0-1.9.816q-.992.5-1.84,1.008a13.428,13.428,0,0,0-1.3.864q-.064.064-.16.144a2.248,2.248,0,0,1-.192.144.917.917,0,0,1-.416.1,1.8,1.8,0,0,1-.464-.064,3.4,3.4,0,0,1-.464-.16,4.685,4.685,0,0,1-1.7-1.3,2.989,2.989,0,0,1-.7-1.968,2.839,2.839,0,0,1,.032-.432,1.348,1.348,0,0,1,.128-.4,2.219,2.219,0,0,0,.976.688,3.265,3.265,0,0,0,1.168.24,14.517,14.517,0,0,0,3.2-.384q1.7-.384,3.168-.8a16.752,16.752,0,0,0,2.912-1.216,3.167,3.167,0,0,1,.432-.208,1.284,1.284,0,0,1,.464-.08,6.758,6.758,0,0,1,1.952.288,5.449,5.449,0,0,1,2.08,1.088,1.215,1.215,0,0,1,.48.928,1.642,1.642,0,0,1-.528,1.152,7.375,7.375,0,0,1-.976.864,32.2,32.2,0,0,1-2.016,4.08q-1.152,1.968-2.464,3.856a14.584,14.584,0,0,1,4.7.848,8.262,8.262,0,0,1,3.84,2.8,6.3,6.3,0,0,1,.784,1.3A3.508,3.508,0,0,1,187.552,33.672ZM214.208,23.5H211.52v7.456h.608q.288,0,.608-.032a1.97,1.97,0,0,0,.608-.16,1.113,1.113,0,0,0,.624-.672,3.6,3.6,0,0,0,.208-1.04q.032-.56.032-.944Zm-10.272-5.6a.988.988,0,0,1-.48.96,2.345,2.345,0,0,1-1.12.256H200.48V22.5q.64-.256,1.216-.512a14.528,14.528,0,0,0,.72,2.64q.5,1.328,1.072,2.544a.253.253,0,0,1,.032.16.283.283,0,0,1-.32.32,1.2,1.2,0,0,1-.624-.3,7.354,7.354,0,0,1-.832-.752q-.432-.448-.768-.848l-.5-.592V39.176H197.6V24.552a19.247,19.247,0,0,1-1.9,3.872,14.3,14.3,0,0,1-2.928,3.2.307.307,0,0,1-.224.1.113.113,0,0,1-.128-.128l.032-.128a3.316,3.316,0,0,1,.224-.432q.128-.208.256-.432.256-.544.5-1.072t.464-1.04a44.689,44.689,0,0,0,1.6-4.624,45.689,45.689,0,0,0,1.088-4.752h-3.232V17.928H197.6v-6.88h2.88v6.88h.832a1.3,1.3,0,0,1,.384-.96,1.312,1.312,0,0,1,2.24.928ZM216.8,27.912a7.054,7.054,0,0,1-.4,2.688,2.217,2.217,0,0,1-1.376,1.264,8.62,8.62,0,0,1-2.7.336h-1.648q-.848,0-1.68-.032V22.28H216.8Zm4.544,5.792a14.088,14.088,0,0,1-.112,1.712,7.075,7.075,0,0,1-.432,1.728,3.241,3.241,0,0,1-.96,1.344,2.53,2.53,0,0,1-1.664.528,3.7,3.7,0,0,1-1.648-.464,10.536,10.536,0,0,1-1.728-1.1q-.816-.64-1.36-1.12a.289.289,0,0,1-.16-.256.141.141,0,0,1,.16-.16.223.223,0,0,1,.1.016.142.142,0,0,0,.064.016q.7.256,1.424.48a4.98,4.98,0,0,0,1.488.224,1.357,1.357,0,0,0,1.264-.608,3.528,3.528,0,0,0,.464-1.44,13.014,13.014,0,0,0,.1-1.472V14.28H207.264V38.6H204.48V12.936h16.864Zm-4-15.584a1.311,1.311,0,0,1-1.312,1.312q-1.888,0-3.776-.016T208.48,19.4V18.184h6.24a1.311,1.311,0,0,1,1.312-1.312,1.324,1.324,0,0,1,.928.352A1.162,1.162,0,0,1,217.344,18.12Zm37.44,18.112a1.671,1.671,0,0,1-.512,1.28,1.842,1.842,0,0,1-1.312.48H226.112v-1.44H238.56V28.776H231.2V27.432h7.36V20.456h-6.24a19.591,19.591,0,0,1-1.5,2.24,27.419,27.419,0,0,1-1.984,2.32,17.951,17.951,0,0,1-2.016,1.84q-.128.1-.24.176a.456.456,0,0,1-.272.08.226.226,0,0,1-.256-.256,1.855,1.855,0,0,1,.256-.64q.256-.48.528-.976t.368-.688q.8-1.632,1.536-3.536t1.312-3.856a26.5,26.5,0,0,0,.832-3.744l3.392,1.024a1.044,1.044,0,0,1,.3.112.258.258,0,0,1,.144.24,2.724,2.724,0,0,1-.208.784q-.208.56-.5,1.248t-.544,1.28q-.256.592-.384.848h5.472V10.728h3.168v8.224h7.04a2.208,2.208,0,0,1,.48-1.408,1.581,1.581,0,0,1,1.312-.608,1.8,1.8,0,0,1,1.792,1.792,1.548,1.548,0,0,1-.576,1.248,1.993,1.993,0,0,1-1.312.48h-8.736v6.976h5.184a2.307,2.307,0,0,1,.416-1.36,1.458,1.458,0,0,1,1.28-.592,1.626,1.626,0,0,1,1.184.512,1.661,1.661,0,0,1,.512,1.216,1.316,1.316,0,0,1-.576,1.2,2.384,2.384,0,0,1-1.312.368h-6.688v7.776h9.344a.549.549,0,0,1-.032-.224,2.126,2.126,0,0,1,.544-1.408,1.7,1.7,0,0,1,1.344-.64,1.725,1.725,0,0,1,1.328.576A1.966,1.966,0,0,1,254.784,36.232Zm13.7-13.12q-.288.672-.528,1.36t-.5,1.392q-.576,1.6-1.152,3.584a13.258,13.258,0,0,0-.576,3.68,8.362,8.362,0,0,0,.32,2.368,1.129,1.129,0,0,1,.1.448,1.805,1.805,0,0,1-.384,1.136,1.3,1.3,0,0,1-1.088.5,1.64,1.64,0,0,1-1.232-.624,11.47,11.47,0,0,1-.912-1.136,7.961,7.961,0,0,1-1.168-3.024,18.6,18.6,0,0,1-.3-3.248,23.466,23.466,0,0,1,.7-5.744q.7-2.8,1.376-5.616a7.376,7.376,0,0,0,.224-1.856,6.014,6.014,0,0,0-.256-1.68,5.6,5.6,0,0,0-.7-1.552l.032-.032h.064a2.1,2.1,0,0,1,.864.272,11.957,11.957,0,0,1,1.072.608,4.672,4.672,0,0,1,.752.56,5.622,5.622,0,0,1,1.232,1.536,3.842,3.842,0,0,1,.5,1.888,3.457,3.457,0,0,1-.432,1.664q-.432.8-.784,1.568-.48,1.024-1.056,2.5t-.992,2.944a9.778,9.778,0,0,0-.416,2.624q0,.192.048.624a2.914,2.914,0,0,0,.192.784.469.469,0,0,0,.432.352.522.522,0,0,0,.48-.272q.16-.272.288-.5l.624-1.248q.3-.608.624-1.216.608-1.184,1.184-2.368t1.184-2.368ZM283.936,33a1.509,1.509,0,0,1-.656,1.28,4.8,4.8,0,0,1-1.632.736,12.583,12.583,0,0,1-1.92.352q-.944.1-1.52.1a9.713,9.713,0,0,1-4.992-1.168,6.141,6.141,0,0,1-2.656-4.272,4.344,4.344,0,0,1-.08-.624q-.016-.3-.016-.624,0-.128.1-.128a.085.085,0,0,1,.1.1q.1.352.24.752a3.783,3.783,0,0,0,.368.752,4.7,4.7,0,0,0,1.632,1.36,4.31,4.31,0,0,0,2.048.592,19.459,19.459,0,0,0,1.968-.1,9.4,9.4,0,0,0,1.936-.416q.288-.1.56-.208t.56-.208a2.416,2.416,0,0,1,.768-.128,7.049,7.049,0,0,1,1.344.144,3.426,3.426,0,0,1,1.3.528A1.336,1.336,0,0,1,283.936,33Zm-2.272-14.688a1.136,1.136,0,0,1-.688,1.12,7.439,7.439,0,0,1-1.328.48,15.261,15.261,0,0,0-3.2,1.248,24.514,24.514,0,0,0-2.944,1.792l-.128-.1a10.039,10.039,0,0,1,.992-1.232q.608-.656,1.216-1.2a16.982,16.982,0,0,1-2.176-.672,4.093,4.093,0,0,1-1.792-1.312q-.128-.192-.256-.416a1.261,1.261,0,0,1-.16-.448,8.849,8.849,0,0,0,1.136.3,5.856,5.856,0,0,0,1.168.144,8.581,8.581,0,0,0,2.384-.336,10.954,10.954,0,0,0,2.224-.912,3.714,3.714,0,0,1,.464-.224,1.324,1.324,0,0,1,.5-.1,2.508,2.508,0,0,1,.88.208,5.862,5.862,0,0,1,.848.4,3.541,3.541,0,0,1,.64.48A1.066,1.066,0,0,1,281.664,18.312Zm17.92,4.384a.368.368,0,0,1-.416.416.6.6,0,0,1-.384-.128,4.443,4.443,0,0,1-.672-.608q-.32-.352-.64-.672-.64-.64-1.28-1.3t-1.28-1.328q.16-.1.624-.3t.992-.464q.528-.256.96-.432a2.065,2.065,0,0,1,.56-.176.673.673,0,0,1,.48.224,2.461,2.461,0,0,1,.272.752q.176.656.352,1.52t.3,1.584A7.269,7.269,0,0,1,299.584,22.7Zm18.72.832a1.743,1.743,0,0,1-.5,1.232,1.622,1.622,0,0,1-1.232.528H305.5V38.952h-3.1V28.04A32.232,32.232,0,0,1,298.24,33a25.267,25.267,0,0,1-5.184,3.872q-.224.128-.912.448t-1.344.608a2.872,2.872,0,0,1-.88.288.394.394,0,0,1-.176-.064.186.186,0,0,1-.112-.16q0-.16.272-.384t.576-.432q.3-.208.432-.3a32.663,32.663,0,0,0,5.328-5.264,31.654,31.654,0,0,0,4.016-6.32h-9.344v-1.44H302.4v-7.36h-9.248V15.08H302.4V10.632h3.1V15.08H312a2.359,2.359,0,0,1,.416-1.392,1.458,1.458,0,0,1,1.28-.592,1.748,1.748,0,0,1,1.76,1.76,1.471,1.471,0,0,1-.544,1.168,1.827,1.827,0,0,1-1.216.464H305.5v7.36h9.248a.356.356,0,0,1-.032-.16v-.16a1.728,1.728,0,0,1,.56-1.28,1.8,1.8,0,0,1,1.3-.544,1.6,1.6,0,0,1,1.232.544A1.838,1.838,0,0,1,318.3,23.528ZM319.36,36.36a1.094,1.094,0,0,1-.464.88,1.511,1.511,0,0,1-.944.368,6.213,6.213,0,0,1-2.5-.576,13.332,13.332,0,0,1-2.48-1.424,18.975,18.975,0,0,1-2-1.648,25.947,25.947,0,0,1-2.7-3.024,25.384,25.384,0,0,1-2.192-3.408l3.1-1.44a29.592,29.592,0,0,0,1.9,3.824,28.186,28.186,0,0,0,2.624,3.76,16.05,16.05,0,0,0,3.088,2.912,1.476,1.476,0,0,1-.048-.176.9.9,0,0,1-.016-.176,1.106,1.106,0,0,1,.432-.9,1.463,1.463,0,0,1,.944-.352,1.122,1.122,0,0,1,.9.416A1.443,1.443,0,0,1,319.36,36.36Zm-6.24-17.152a.369.369,0,0,1-.128.256,10.862,10.862,0,0,1-.9.8q-.48.384-.928.768-.608.48-1.184,1.008a11.879,11.879,0,0,1-1.216.976.9.9,0,0,1-.544.224.311.311,0,0,1-.352-.352,4.081,4.081,0,0,1,.16-.56q.16-.5.4-1.2t.5-1.424q.256-.72.448-1.232t.224-.608q.128-.192.256-.192a2.935,2.935,0,0,1,.64.176q.512.176,1.12.448t1.056.512Q313.12,19.048,313.12,19.208ZM343.9,12.872h-7.36v3.84h4.032a1.142,1.142,0,0,1,.368-.768,1.112,1.112,0,0,1,1.872.8,1,1,0,0,1-.384.8,1.315,1.315,0,0,1-.864.32h-5.024v3.36H341.7a1.966,1.966,0,0,0,2.208-2.24ZM332.672,27.816a.524.524,0,0,1-.192.32,10.063,10.063,0,0,1-1.152,1.024q-.736.576-1.5,1.088t-1.312.864a32.948,32.948,0,0,1-3.008,1.5q-1.536.672-3.1,1.248l-1.76-2.784q1.216-.288,2.384-.608t2.352-.672V20.584H321.44V19.432h3.936V11.4h3.04v8.032h1.28a.223.223,0,0,0-.016-.1.142.142,0,0,1-.016-.064,1.372,1.372,0,0,1,.416-.976,1.3,1.3,0,0,1,.96-.432,1.481,1.481,0,0,1,1.408,1.408,1.139,1.139,0,0,1-.48.944,1.653,1.653,0,0,1-1.024.368h-2.528V29l.8-.272q.608-.208,1.344-.464t1.28-.448a4.418,4.418,0,0,1,.608-.192Q332.672,27.624,332.672,27.816Zm13.888,2.24a10.166,10.166,0,0,1-1.568,2.224,23.322,23.322,0,0,1-2.208,2.144,27.378,27.378,0,0,1-2.208,1.712,17.584,17.584,0,0,1-3.1,1.744,21.447,21.447,0,0,1-3.392,1.1,1.289,1.289,0,0,1-.512.1q-.064,0-.208-.016t-.144-.144a.27.27,0,0,1,.16-.224q.16-.1.224-.128a25.914,25.914,0,0,0,2.768-1.792,31.677,31.677,0,0,0,2.9-2.4,28.8,28.8,0,0,0,2.56-2.7,12.634,12.634,0,0,0,1.76-2.7q.736.32,1.488.576T346.56,30.056Zm4.64-6.464a1.38,1.38,0,0,1-.512,1.1,1.74,1.74,0,0,1-1.152.432h-9.568q-.416.576-.864,1.152a11.665,11.665,0,0,1-.96,1.088h11.52q-.032,1.92-.176,3.84a35.079,35.079,0,0,1-.5,3.808,11.887,11.887,0,0,1-.64,2.16,5.558,5.558,0,0,1-1.232,1.92,2.791,2.791,0,0,1-2.064.784,2.567,2.567,0,0,1-1.28-.448,9.269,9.269,0,0,1-1.392-1.04,11.074,11.074,0,0,1-1.008-1.008q-.064-.1-.128-.176a.323.323,0,0,1-.064-.208q0-.1.128-.1a.468.468,0,0,1,.288.1,6.239,6.239,0,0,0,1.1.4,4.672,4.672,0,0,0,1.168.144,1.7,1.7,0,0,0,1.28-.464,3.086,3.086,0,0,0,.688-1.168,7.733,7.733,0,0,0,.336-1.344,40.612,40.612,0,0,0,.576-6.048h-6.56a4.786,4.786,0,0,1,.672.3q.32.176.64.336a14.018,14.018,0,0,1-3.008,3.3,25.446,25.446,0,0,1-3.712,2.528q-.64.352-1.5.768a15.629,15.629,0,0,1-1.76.72,11.007,11.007,0,0,1-1.632.432,1.006,1.006,0,0,0-.16.016,1,1,0,0,1-.16.016,1.1,1.1,0,0,1-.208-.032q-.144-.032-.144-.128t.144-.192a2.271,2.271,0,0,1,.208-.128,30.17,30.17,0,0,0,3.12-1.968,22.536,22.536,0,0,0,2.768-2.352q.832-.832,1.664-1.728a13.643,13.643,0,0,0,1.472-1.888h-1.664a28.8,28.8,0,0,1-2.24,1.856,24.054,24.054,0,0,1-2.7,1.776,11,11,0,0,1-2.64,1.1,1.263,1.263,0,0,1-.192.048,1.166,1.166,0,0,1-.192.016,1.348,1.348,0,0,1-.224-.032q-.16-.032-.16-.128a.277.277,0,0,1,.128-.224,1.871,1.871,0,0,0,.192-.16,25.235,25.235,0,0,0,3.968-3.392,18.263,18.263,0,0,0,3.008-4.256h-5.408V23.976h17.664a1.265,1.265,0,0,1-.048-.192,1.168,1.168,0,0,1-.016-.192,1.561,1.561,0,0,1,.464-1.12,1.51,1.51,0,0,1,2.208,0A1.561,1.561,0,0,1,351.2,23.592Zm-4.256-5.472a5.4,5.4,0,0,1-.56,2.768,2.661,2.661,0,0,1-1.68,1.2,11.386,11.386,0,0,1-2.784.288h-8.16V11.72h13.152q0,1.6.016,3.2T346.944,18.12ZM379.2,27.88a12.113,12.113,0,0,1-2.032,4.9,11.592,11.592,0,0,1-3.872,3.5,10.351,10.351,0,0,1-5.136,1.3,6.961,6.961,0,0,1-5.3-1.968,8.208,8.208,0,0,1-2.1-5.3q-.032-.48-.048-.96t-.016-.96q0-2.752.192-5.536t.192-5.536q0-.512-.048-1.152a4.2,4.2,0,0,0-.272-1.216,1.679,1.679,0,0,0-.7-.864,1.6,1.6,0,0,0-.592-.24q-.368-.08-.624-.112a1.591,1.591,0,0,1,.752-.576,5.408,5.408,0,0,1,1.136-.336,5.714,5.714,0,0,1,.992-.112,2.614,2.614,0,0,1,1.776.656,4.5,4.5,0,0,1,1.168,1.6,4.614,4.614,0,0,1,.416,1.872,2.332,2.332,0,0,1-.032.384l-.064.384q-.192,1.12-.432,2.256t-.432,2.256q-.288,1.792-.464,3.616t-.176,3.648a4.889,4.889,0,0,0,1.408,3.808,5.542,5.542,0,0,0,3.872,1.28,10.824,10.824,0,0,0,4.208-.848,12.175,12.175,0,0,0,3.632-2.336,11.265,11.265,0,0,0,2.528-3.44Zm31.232-5.408a1.3,1.3,0,0,1-.416.864,7.1,7.1,0,0,1-.736.7,25.3,25.3,0,0,1-2.128,4.416,23.89,23.89,0,0,1-2.928,3.936A17.836,17.836,0,0,1,399.84,35.7a20.987,20.987,0,0,1-5.2,1.968,24.021,24.021,0,0,1-5.488.64l-.064-.224a18.547,18.547,0,0,0,3.088-.8q1.552-.544,2.928-1.184a16.767,16.767,0,0,0,2.384-1.392,14.977,14.977,0,0,0,1.888-1.6q.88-.88,1.872-2a19.527,19.527,0,0,0,1.264-1.68q.688-1.008,1.312-2.144a14.105,14.105,0,0,0,1.008-2.272,6.432,6.432,0,0,0,.384-2.032q0-.448-.4-.48t-.784-.032q-.352,0-.736.032t-.736.1q-2.176.224-4.592.672a17.3,17.3,0,0,0-4.4,1.408q-.16.1-.368.208a.844.844,0,0,1-.4.112,2.907,2.907,0,0,1-2.272-1.008,3.43,3.43,0,0,1-.9-2.352,1.4,1.4,0,0,1,.192-.736,4.147,4.147,0,0,0,1.68.752,8.3,8.3,0,0,0,1.84.24q2.4,0,4.8-.24t4.768-.56q.512-.064,1.024-.16a7.509,7.509,0,0,0,.992-.256,6.1,6.1,0,0,0,1.1-.528,1.945,1.945,0,0,1,.944-.336,2.562,2.562,0,0,1,1.36.528q.784.528,1.584,1.136A1.244,1.244,0,0,1,410.432,22.472Zm-4.256-6.4a.681.681,0,0,1-.416.672,4.551,4.551,0,0,1-.8.288,24.645,24.645,0,0,1-3.36.672,26.613,26.613,0,0,1-3.424.224,9.889,9.889,0,0,1-1.936-.176,4.034,4.034,0,0,1-1.744-.88,6.376,6.376,0,0,1-.96-.976,9.618,9.618,0,0,1-.768-1.136l.064-.064a5.4,5.4,0,0,0,1.424.576,6.715,6.715,0,0,0,1.52.16,14.392,14.392,0,0,0,3.168-.384,28.4,28.4,0,0,0,3.072-.864q.32-.128.64-.224a2.217,2.217,0,0,1,.64-.1,3.294,3.294,0,0,1,1.264.272,3.344,3.344,0,0,1,1.136.768A1.624,1.624,0,0,1,406.176,16.072Zm39.968,9.344a1.048,1.048,0,0,1-.416.928,2.261,2.261,0,0,1-.992.368,7.724,7.724,0,0,1-1.056.08q-1.44,0-2.88-.032t-2.88-.032q-2.4,0-4.816.064t-4.816.192q-1.184.064-2.384.208t-2.384.3a4.817,4.817,0,0,0-.8.128,3.287,3.287,0,0,1-.8.1,6.677,6.677,0,0,1-1.712-.224,3.046,3.046,0,0,1-1.408-.784,2.188,2.188,0,0,1-.56-1.616,2.817,2.817,0,0,1,.224-.992,1.311,1.311,0,0,1,.64-.768,2.875,2.875,0,0,0,1.552,1.136,6.385,6.385,0,0,0,1.9.3q2.528,0,5.056-.16t5.024-.416q1.28-.16,2.56-.3a22.34,22.34,0,0,0,2.528-.432q.192-.064.752-.208t1.088-.288a5.17,5.17,0,0,1,.592-.144,16.89,16.89,0,0,1,2.272.176,5.7,5.7,0,0,1,2.144.688,3.911,3.911,0,0,1,.624.416,4.142,4.142,0,0,1,.656.64A1.082,1.082,0,0,1,446.144,25.416Zm27.488,4.32a1.515,1.515,0,0,1-.56,1.168,1.782,1.782,0,0,1-1.2.5,1.527,1.527,0,0,1-.992-.288,6.485,6.485,0,0,1-.768-.768q-.832-.992-1.648-1.808a17.958,17.958,0,0,0-1.776-1.552,28.1,28.1,0,0,1-4.048,4.4,22.569,22.569,0,0,1-4.56,3.056,28.628,28.628,0,0,1-5.6,2.08q-.16.032-.448.1t-.512.1l-.064-.16a23.742,23.742,0,0,0,2.72-1.472,30.765,30.765,0,0,0,2.624-1.792,24.959,24.959,0,0,0,1.92-1.7q1.024-.992,2.032-2.128t1.856-2.3a17.048,17.048,0,0,0,1.36-2.16q-1.344-.9-2.72-1.728t-2.784-1.632Q457.28,21,456.1,20.456l.032-.128a16.4,16.4,0,0,1,1.712.1,14.091,14.091,0,0,1,1.936.352,31.286,31.286,0,0,1,3.04.88,23.408,23.408,0,0,1,2.528,1.008q.288-.544.688-1.392t.816-1.792a17.623,17.623,0,0,0,.688-1.808,4.984,4.984,0,0,0,.272-1.44,1.907,1.907,0,0,0-.432-1.216,2.9,2.9,0,0,0-1.04-.832,4.926,4.926,0,0,1,.992-.544,2.838,2.838,0,0,1,1.088-.224,2.949,2.949,0,0,1,1.7.608,6.029,6.029,0,0,1,1.472,1.472,2.911,2.911,0,0,1,.608,1.664.772.772,0,0,1-.272.528,4.066,4.066,0,0,1-.5.432,31.446,31.446,0,0,1-1.376,3.056q-.768,1.488-1.6,2.992a19.036,19.036,0,0,1,2.288,1.3,8.714,8.714,0,0,1,2.048,1.84A3.774,3.774,0,0,1,473.632,29.736ZM508.768,18.5a29.1,29.1,0,0,1-6.336,9.792,28.677,28.677,0,0,1-5.728,4.448,27.445,27.445,0,0,1-6.688,2.912.549.549,0,0,1-.224.032,1.27,1.27,0,0,1-.576-.128,7.084,7.084,0,0,1-1.344-.736,4.949,4.949,0,0,1-1.184-1.12,2.294,2.294,0,0,1-.48-1.408,4.944,4.944,0,0,1,.128-1.1,4.175,4.175,0,0,1,.384-1.04,7.084,7.084,0,0,0,.8,1.088,1.518,1.518,0,0,0,1.184.544,8.912,8.912,0,0,0,2.816-.544,25.261,25.261,0,0,0,3.248-1.376q1.648-.832,3.12-1.744t2.464-1.616a52.517,52.517,0,0,0,4.48-3.728,33.066,33.066,0,0,0,3.872-4.3ZM494.56,19.56a2.8,2.8,0,0,1-.624,1.824,2.122,2.122,0,0,1-1.744.768,1.132,1.132,0,0,1-1.072-.528,7.394,7.394,0,0,1-.528-1.136,6.171,6.171,0,0,0-1.712-2.528,6.018,6.018,0,0,0-2.736-1.44,3.241,3.241,0,0,1,.88-.256q.56-.1,1.136-.144t.928-.048a10.654,10.654,0,0,1,1.776.16,7.727,7.727,0,0,1,1.792.528,3.408,3.408,0,0,1,1.376,1.056A2.782,2.782,0,0,1,494.56,19.56Zm42.56,2.272a1.23,1.23,0,0,0-.64-1.12,2.469,2.469,0,0,0-1.28-.384,3.3,3.3,0,0,0-1.936.7,10.205,10.205,0,0,0-1.856,1.76,21.308,21.308,0,0,0-1.568,2.128q-.688,1.072-1.1,1.84l2.624-1.28q1.312-.64,2.624-1.248.544-.256,1.056-.464a9,9,0,0,0,1.024-.5,3.906,3.906,0,0,0,.752-.544A1.182,1.182,0,0,0,537.12,21.832Zm3.68,1.6a2.173,2.173,0,0,1-.592,1.632,2.582,2.582,0,0,1-1.616.672,26.122,26.122,0,0,0-5.136.96,34.617,34.617,0,0,0-4.912,1.856q0,.928-.016,1.872t-.016,1.872a2.221,2.221,0,0,1-.192.912.755.755,0,0,1-.768.432,1.791,1.791,0,0,1-1.6-.624,3.056,3.056,0,0,1-.416-1.712q0-.352.016-.72t.048-.72q-.544.288-1.232.736a5.2,5.2,0,0,0-1.168,1.024,1.993,1.993,0,0,0-.48,1.312,1.869,1.869,0,0,0,.752,1.568,4.611,4.611,0,0,0,1.76.816,7.893,7.893,0,0,0,1.808.24,19.487,19.487,0,0,0,2.512-.16q1.232-.16,2.48-.416a2.384,2.384,0,0,1,.24-.048,1.7,1.7,0,0,1,.24-.016,6.042,6.042,0,0,1,1.248.128,2.2,2.2,0,0,1,1.024.5,1.484,1.484,0,0,1,.416,1.168,1.2,1.2,0,0,1-.608,1.04,4.9,4.9,0,0,1-1.472.624,10.922,10.922,0,0,1-1.7.3q-.832.08-1.312.08-.96,0-1.92-.048t-1.888-.176a10.237,10.237,0,0,1-2.256-.672,4.936,4.936,0,0,1-1.872-1.344,3.238,3.238,0,0,1-.736-2.176,4.189,4.189,0,0,1,.688-2.272,9.3,9.3,0,0,1,1.7-1.984,15.65,15.65,0,0,1,1.9-1.472q.032-.384.048-.768t.016-.736q0-.512-.016-1.008T525.76,25.1a1.429,1.429,0,0,0-1.6-1.632,1.835,1.835,0,0,0-1.056.3,3.072,3.072,0,0,0-.8.816,21.64,21.64,0,0,0-2.208,4.16q-.064.192-.144.4t-.176.4a4.59,4.59,0,0,1-.72.88,1.417,1.417,0,0,1-.976.5,1.218,1.218,0,0,1-.992-.384,1.974,1.974,0,0,1-.416-.96,6.629,6.629,0,0,1-.1-1.088,2.268,2.268,0,0,1,.368-1.328,3.754,3.754,0,0,1,.976-.944,12.094,12.094,0,0,0,1.488-1.264q.688-.688,1.3-1.424a8.392,8.392,0,0,0,1.216-1.888q.48-1.024.928-2.048l-.512.064a4.124,4.124,0,0,1-.512.032,9.186,9.186,0,0,1-2-.24,4.5,4.5,0,0,1-1.84-.848,2.381,2.381,0,0,1-.864-1.76,6.776,6.776,0,0,0,1.312.416,6.372,6.372,0,0,0,1.344.16,8.224,8.224,0,0,0,2.032-.256,17.833,17.833,0,0,0,1.936-.608,13.19,13.19,0,0,0,.432-1.44,6.311,6.311,0,0,0,.176-1.472,1.8,1.8,0,0,0-.432-1.168,1.975,1.975,0,0,0-1.072-.688,2.18,2.18,0,0,1,.992-.5,4.886,4.886,0,0,1,1.12-.144,2.7,2.7,0,0,1,1.216.3,3.071,3.071,0,0,1,1.024.816,1.78,1.78,0,0,1,.416,1.152,1.743,1.743,0,0,1-.336.848,7.514,7.514,0,0,0-.5.88,2.422,2.422,0,0,0,.9-.416q.448-.32.88-.608a1.4,1.4,0,0,1,.72-.288,2.428,2.428,0,0,1,1.344.416,1.331,1.331,0,0,1,.64,1.184,1.084,1.084,0,0,1-.432.928,8.889,8.889,0,0,1-.88.576,21.8,21.8,0,0,1-2.432,1.248q-1.248.544-2.56.992-.512.96-.928,1.952t-.864,2.016q.288-.1.784-.272a2.491,2.491,0,0,1,.752-.176,3.155,3.155,0,0,1,2.064.576,3.212,3.212,0,0,1,.992,1.536,12.856,12.856,0,0,1,.464,2.112q.448-.96,1.136-2.144a22.347,22.347,0,0,1,1.568-2.336,12.565,12.565,0,0,1,1.888-2,5.062,5.062,0,0,1,2.1-1.1,2.866,2.866,0,0,1,.528-.08q.272-.016.528-.016a5.244,5.244,0,0,1,2.288.528,5,5,0,0,1,1.824,1.456A3.5,3.5,0,0,1,540.8,23.432ZM8.416,81.144q0-3.456-.016-6.912T8.384,67.32H5.12v4.96h.9a1,1,0,0,1,.928-.864.845.845,0,0,1,.688.288,1.063,1.063,0,0,1,.24.7,1.087,1.087,0,0,1-.272.752.919.919,0,0,1-.72.3H5.12v4h.9a.929.929,0,0,1,.3-.608.884.884,0,0,1,.624-.256.781.781,0,0,1,.672.3,1.18,1.18,0,0,1,.224.72q0,.928-1.024.928H5.12V83.64H6.368a1.732,1.732,0,0,0,1.648-.7A3.594,3.594,0,0,0,8.416,81.144Zm10.848,5.024V83.576H16.512v2.592Zm0-3.616V79.9H16.512v2.656Zm5.888,3.616V79.9H21.92v2.656h.864a1.132,1.132,0,0,1,.3-.784.974.974,0,0,1,.752-.336,1.093,1.093,0,0,1,1.088,1.088.955.955,0,0,1-.352.752,1.19,1.19,0,0,1-.8.3H21.92v2.592ZM22.208,75.32V72.984H18.976V75.32Zm0-3.584v-2.4H18.976v2.4ZM6.592,86.456a.649.649,0,0,1-.128.352,15.062,15.062,0,0,1-1.456,2.16,23.938,23.938,0,0,1-2.016,2.256,10.025,10.025,0,0,1-2.032,1.6.88.88,0,0,1-.448.16q-.224,0-.224-.192a.518.518,0,0,1,.1-.32Q1.408,90.744,2.272,89a16.5,16.5,0,0,0,1.312-3.76q.64.224,1.28.416a12.381,12.381,0,0,1,1.248.448,1.831,1.831,0,0,1,.3.112A.257.257,0,0,1,6.592,86.456ZM11.84,91.1q0,.384-.32.384t-.928-.592a13.346,13.346,0,0,1-1.248-1.424q-.64-.832-1.168-1.584t-.72-1.072L9.984,85.72q.352,1.28.8,2.528t.96,2.5a1.241,1.241,0,0,1,.064.16A.6.6,0,0,1,11.84,91.1Zm-.608-10.432a4.294,4.294,0,0,1-1.152,3.248,4.379,4.379,0,0,1-3.232,1.072L2.4,84.952V65.88h8.832ZM31.52,75.192q0,1.376-1.312,1.376H21.92v2.176h6.016v7.424h.8l-.016-.048-.016-.048a1.43,1.43,0,0,1,.384-.976,1.167,1.167,0,0,1,.9-.432,1.151,1.151,0,0,1,.912.432,1.465,1.465,0,0,1,.368.976,1.227,1.227,0,0,1-.384.976,1.5,1.5,0,0,1-1.024.336h-1.92q0,.32.016.656t.016.688a13.606,13.606,0,0,1-.176,2.176,3.518,3.518,0,0,1-.832,1.824,2.631,2.631,0,0,1-2.064.736,4.314,4.314,0,0,1-1.872-.512,18.588,18.588,0,0,1-1.744-.96q-.1-.064-.224-.16a.258.258,0,0,1-.128-.192q0-.1.16-.1a.355.355,0,0,1,.112.016.355.355,0,0,0,.112.016q.48.1.96.16a7.5,7.5,0,0,0,.992.064,1.792,1.792,0,0,0,1.36-.432,1.828,1.828,0,0,0,.464-1.1q.064-.672.064-1.408V87.384h-8.64v5.824H13.888V87.384H11.744V86.168h2.144V78.744h5.376V76.568h-7.52V75.32H16.1V72.984h-2.88V71.736H16.1v-2.4H12.288V68.024H16.1V64.792h2.88v3.232h3.232V64.792h2.944v3.232h2.56a1.512,1.512,0,0,1,.416-.88,1.183,1.183,0,0,1,1.744.032,1.31,1.31,0,0,1,.368.912,1.1,1.1,0,0,1-.416.928,1.579,1.579,0,0,1-.992.32h-3.68v2.4H26.4a1.415,1.415,0,0,1,.416-.912,1.2,1.2,0,0,1,.9-.4,1.137,1.137,0,0,1,.88.416,1.367,1.367,0,0,1,.368.928,1.042,1.042,0,0,1-.432.912,1.707,1.707,0,0,1-1.008.3H25.152V75.32H28.9a1.463,1.463,0,0,1,.352-.944,1.106,1.106,0,0,1,.9-.432,1.463,1.463,0,0,1,.944.352A1.106,1.106,0,0,1,31.52,75.192Zm32,15.968a1.649,1.649,0,0,1-.544,1.248,1.807,1.807,0,0,1-1.28.512,3.349,3.349,0,0,1-.992-.24q-.672-.24-.96-.368a11.712,11.712,0,0,1-1.856-1.088,17.58,17.58,0,0,1-1.664-1.344,25.361,25.361,0,0,1-4.784-6.016,27.009,27.009,0,0,1-2.9-7.1,30.2,30.2,0,0,1-3.216,6.208,29.639,29.639,0,0,1-4.7,5.472,21.175,21.175,0,0,1-5.84,3.808q-.192.064-.384.144a1.071,1.071,0,0,1-.416.08.76.76,0,0,1-.208-.032.148.148,0,0,1-.112-.16.527.527,0,0,1,.224-.384q.224-.192.352-.32.768-.608,1.5-1.232a18.356,18.356,0,0,0,1.408-1.328,29.977,29.977,0,0,0,3.68-4.784,38.085,38.085,0,0,0,2.928-5.68A28.494,28.494,0,0,0,45.5,72.76l2.4.736q-.416-2.624-.576-5.344H39.456V66.584h11.52q.064,2.624.32,5.312a38.468,38.468,0,0,0,.864,5.248,27.775,27.775,0,0,0,1.68,4.992,29.346,29.346,0,0,0,2.64,4.736A26.092,26.092,0,0,0,59.872,90.9a1.8,1.8,0,0,1,.624-1.1,1.761,1.761,0,0,1,2.464.08A1.728,1.728,0,0,1,63.52,91.16ZM91.2,81.88a12.113,12.113,0,0,1-2.032,4.9,11.592,11.592,0,0,1-3.872,3.5,10.351,10.351,0,0,1-5.136,1.3,6.961,6.961,0,0,1-5.3-1.968,8.208,8.208,0,0,1-2.1-5.3q-.032-.48-.048-.96t-.016-.96q0-2.752.192-5.536t.192-5.536q0-.512-.048-1.152a4.2,4.2,0,0,0-.272-1.216,1.679,1.679,0,0,0-.7-.864,1.6,1.6,0,0,0-.592-.24q-.368-.08-.624-.112a1.591,1.591,0,0,1,.752-.576,5.408,5.408,0,0,1,1.136-.336,5.714,5.714,0,0,1,.992-.112,2.614,2.614,0,0,1,1.776.656,4.5,4.5,0,0,1,1.168,1.6,4.614,4.614,0,0,1,.416,1.872,2.332,2.332,0,0,1-.032.384l-.064.384q-.192,1.12-.432,2.256t-.432,2.256q-.288,1.792-.464,3.616t-.176,3.648A4.889,4.889,0,0,0,76.9,87.192a5.542,5.542,0,0,0,3.872,1.28,10.824,10.824,0,0,0,4.208-.848,12.175,12.175,0,0,0,3.632-2.336,11.265,11.265,0,0,0,2.528-3.44Zm32.48-11.456a1.332,1.332,0,0,1-.416,1.12,1.849,1.849,0,0,1-1.152.32.438.438,0,0,1-.1-.016.526.526,0,0,0-.128-.016q-.416-.064-.784-.128a4.575,4.575,0,0,0-.784-.064,22.588,22.588,0,0,0-2.7.16,7.3,7.3,0,0,0-2.544.8,4.408,4.408,0,0,0-1.7,1.5,8.767,8.767,0,0,0-1.072,2.224,13.6,13.6,0,0,0-.56,2.5,18.374,18.374,0,0,0-.16,2.288,9.87,9.87,0,0,0,.624,3.9A3.662,3.662,0,0,0,114.272,87a10.768,10.768,0,0,0,3.9.576,2.928,2.928,0,0,1,2.816,1.728q.1.192.176.4a1.193,1.193,0,0,1,.08.432,1.071,1.071,0,0,1-.544.992,3.531,3.531,0,0,1-1.248.432,7.9,7.9,0,0,1-1.216.112,13.259,13.259,0,0,1-3.792-.576A8.5,8.5,0,0,1,111.1,89.24a5.469,5.469,0,0,1-1.68-2.7,13.23,13.23,0,0,1-.368-3.184,13.539,13.539,0,0,1,1.52-6.448,25.673,25.673,0,0,1,3.856-5.392,23.959,23.959,0,0,0-4.752,1.7q-2.256,1.088-4.528,2.3a4.135,4.135,0,0,1-.656.32,2.1,2.1,0,0,1-.752.128A3.119,3.119,0,0,1,101.28,74.9a3.7,3.7,0,0,1-.928-2.528,1.927,1.927,0,0,1,.112-.64,4.939,4.939,0,0,1,.24-.576,2.014,2.014,0,0,0,1.136.848,4.688,4.688,0,0,0,1.424.24,16.536,16.536,0,0,0,3.3-.4q1.92-.4,4.016-1.008t3.984-1.28q1.888-.672,3.2-1.184h.416q.544,0,1.44.032a11.242,11.242,0,0,1,1.84.224,4.549,4.549,0,0,1,1.584.608A1.331,1.331,0,0,1,123.68,70.424ZM149.216,90.2a3.618,3.618,0,0,1-.432,1.776,1.647,1.647,0,0,1-1.584.784,1.537,1.537,0,0,1-1.392-.736,8.73,8.73,0,0,1-.752-1.472,27.391,27.391,0,0,0-1.248-2.752,13.952,13.952,0,0,0-1.7-2.5,18.013,18.013,0,0,0-1.536-1.6q-.832-.768-1.664-1.472-.416-.384-.88-.736a8.559,8.559,0,0,1-.88-.768,3.216,3.216,0,0,1-.64-.944,2.975,2.975,0,0,1-.192-1.136,2.533,2.533,0,0,1,.336-1.328,5.584,5.584,0,0,1,.848-1.072q.448-.448,1.184-1.248t1.584-1.76q.848-.96,1.616-1.952a14.893,14.893,0,0,0,1.248-1.856,3.148,3.148,0,0,0,.48-1.44,1.884,1.884,0,0,0-.4-1.36,2.679,2.679,0,0,0-.752-.56.818.818,0,0,0-.224-.08,1.264,1.264,0,0,1-.192-.048l.064-.192h.512a8.725,8.725,0,0,1,1.744.256,4.966,4.966,0,0,1,1.584.672,4.329,4.329,0,0,1,1.12,1.056,2.291,2.291,0,0,1,.512,1.408,2.125,2.125,0,0,1-.464,1.376,6.294,6.294,0,0,1-1.04,1.024q-1.12.9-2.288,1.808t-2.288,1.84l-1.216,1.024q-.608.512-1.248,1.024a3.676,3.676,0,0,0-.512.48.983.983,0,0,0-.224.672,1.343,1.343,0,0,0,.192.7,2.464,2.464,0,0,0,.48.576q.928.736,2.208,1.6t2.592,1.808a30.757,30.757,0,0,1,2.432,1.936A8.252,8.252,0,0,1,147.9,87q.224.352.416.72t.384.752q.192.416.352.848A2.515,2.515,0,0,1,149.216,90.2Zm20-13.248a.617.617,0,0,0-.08-.3.285.285,0,0,0-.272-.144,1.693,1.693,0,0,0-.736.272,5.966,5.966,0,0,0-.96.688,7.351,7.351,0,0,0-.816.816,1.162,1.162,0,0,0-.336.688,1.276,1.276,0,0,0,.272.656,6.858,6.858,0,0,0,.608.768q.336.368.528.56a13.634,13.634,0,0,0,.736-1.184,13.3,13.3,0,0,0,.736-1.52A3.6,3.6,0,0,0,169.216,76.952Zm21.792,7.04a11.143,11.143,0,0,1-3.1,3.968,7.31,7.31,0,0,1-4.736,1.6,3.175,3.175,0,0,1-2.08-.656,3.651,3.651,0,0,1-1.152-1.712,6.837,6.837,0,0,1-.352-2.176,7.191,7.191,0,0,1,.1-1.184q.224-1.792.592-3.552t.624-3.52q.064-.544.144-1.1a7.8,7.8,0,0,0,.08-1.1,2.617,2.617,0,0,0-.432-1.6,1.785,1.785,0,0,0-1.52-.576,4.2,4.2,0,0,0-2.32.8,13.714,13.714,0,0,0-2.336,2,25.159,25.159,0,0,0-2.048,2.448q-.912,1.248-1.456,2.144.064,1.888.256,3.808t.416,3.808a13.792,13.792,0,0,0,.32,1.7,6.889,6.889,0,0,1,.224,1.664,1.085,1.085,0,0,1-.336.848,1.261,1.261,0,0,1-.88.3,1.953,1.953,0,0,1-1.536-.752,2.45,2.45,0,0,1-.64-1.616,1.88,1.88,0,0,1,.032-.336q.032-.176.064-.336a34.053,34.053,0,0,0,.384-3.632q.1-1.84.128-3.664a7.374,7.374,0,0,0-.656,1.136q-.368.752-.72,1.616t-.624,1.648a6.851,6.851,0,0,0-.336,1.264q-.032.224-.064.528a1.153,1.153,0,0,1-.128.464.744.744,0,0,1-.672.352,1.306,1.306,0,0,1-.976-.464,3.3,3.3,0,0,1-.672-1.1,3.2,3.2,0,0,1-.24-1.088,1.485,1.485,0,0,1,.256-.9q.256-.352.576-.736a13.293,13.293,0,0,0,.976-1.3q.432-.656.848-1.36-.576-.672-1.168-1.344t-1.232-1.312a3.584,3.584,0,0,1-.384-.448.911.911,0,0,1-.16-.544,1.7,1.7,0,0,1,.544-1.1,12.215,12.215,0,0,1,1.2-1.136q.656-.544,1.04-.832a8.891,8.891,0,0,1,1.328-.848,6.52,6.52,0,0,1,1.456-.528q0-.48.016-.976t.016-.976a11.147,11.147,0,0,0-.144-1.888,2.41,2.41,0,0,0-.688-1.36,3.217,3.217,0,0,0-1.76-.72,1.034,1.034,0,0,1,.768-.5,4.386,4.386,0,0,1,.928-.144,6.141,6.141,0,0,1,1.792.272,3.624,3.624,0,0,1,1.536.912,3.134,3.134,0,0,1,.56.784,1.976,1.976,0,0,1,.24.912,4.393,4.393,0,0,1-.256,1.216q-.256.8-.56,1.616t-.464,1.328a5.349,5.349,0,0,1,.528.32.611.611,0,0,1,.336.48.758.758,0,0,1-.224.528,4.635,4.635,0,0,0-.384.464q-.256.32-.464.64t-.4.672v.864q.8-.96,1.808-2.112a23.622,23.622,0,0,1,2.192-2.192,12.432,12.432,0,0,1,2.48-1.712,5.737,5.737,0,0,1,2.672-.672q4.128,0,4.128,4.192,0,.192-.016.4t-.048.4a25,25,0,0,1-.512,2.656q-.352,1.44-.656,2.832a12.006,12.006,0,0,0-.3,2.544,2.523,2.523,0,0,0,.656,2.016,3.147,3.147,0,0,0,2.032.544,4.662,4.662,0,0,0,1.984-.48,10.35,10.35,0,0,0,1.936-1.184,10.018,10.018,0,0,0,1.488-1.376Zm17.6-10.976a1.364,1.364,0,0,1-.56.976,7.775,7.775,0,0,1-1.36.944,16.046,16.046,0,0,1-1.552.768q-.752.32-1.136.48-.256,1.088-.56,2.208t-.5,2.24q.64-.608,1.36-1.232a13.428,13.428,0,0,1,1.456-1.1l.1.128q-.608.8-1.344,1.92t-1.36,2.272a13.4,13.4,0,0,0-.944,2.112q-.32.992-.64,2t-.576,2.032q-.1.416-.176.816a8.334,8.334,0,0,1-.208.816,3.1,3.1,0,0,1-.688,1.392,1.908,1.908,0,0,1-1.456.5,1.128,1.128,0,0,1-.976-.544,3.653,3.653,0,0,1-.528-1.232,5.3,5.3,0,0,1-.16-1.168,1.817,1.817,0,0,1,.3-1.072q.3-.432.624-.912a24.2,24.2,0,0,0,1.9-3.264,40.073,40.073,0,0,0,1.632-3.808,23.2,23.2,0,0,0,1.04-3.616q-.608.1-1.184.192a7.191,7.191,0,0,1-1.184.1,3.651,3.651,0,0,1-2.768-1.088,6.892,6.892,0,0,1-1.552-2.624q-.032-.16-.08-.32a1.8,1.8,0,0,0-.112-.288l.128-.064a3.773,3.773,0,0,0,1.248,1.28,3.136,3.136,0,0,0,1.7.48,10.132,10.132,0,0,0,2.336-.288,14.138,14.138,0,0,0,2.208-.7,10.633,10.633,0,0,0,.432-1.9,14.172,14.172,0,0,0,.144-1.936,1.214,1.214,0,0,0-.368-.944,2.464,2.464,0,0,0-.9-.512,4.044,4.044,0,0,0-1.008-.208,2.617,2.617,0,0,1,1.44-.992,5.823,5.823,0,0,1,1.76-.32,2.293,2.293,0,0,1,1.056.3,3.77,3.77,0,0,1,1.008.768,1.421,1.421,0,0,1,.432.976,1.324,1.324,0,0,1-.1.5,3.717,3.717,0,0,1-.224.464q-.288.576-.544,1.168a11.234,11.234,0,0,0-.448,1.232h.256q.448,0,.928-.032t.928-.032a.6.6,0,0,1,.624.384A2.174,2.174,0,0,1,208.608,73.016Zm11.584,16.128a1.234,1.234,0,0,1-.48,1.04,3.194,3.194,0,0,1-1.2.544,8.412,8.412,0,0,1-1.44.224q-.72.048-1.168.048a17.164,17.164,0,0,1-3.008-.256,7.469,7.469,0,0,1-2.56-.928,4.756,4.756,0,0,1-1.76-1.856,6.362,6.362,0,0,1-.64-3.04,4.091,4.091,0,0,1,.1-.816q.1-.464.192-.784l.1.032a4.243,4.243,0,0,0,2.88,3.872,7.438,7.438,0,0,0,2.592.448,8.321,8.321,0,0,0,1.568-.16,8.079,8.079,0,0,0,1.536-.448,10.3,10.3,0,0,1,1.52.112,2.411,2.411,0,0,1,1.264.56A1.776,1.776,0,0,1,220.192,89.144Zm-.928-13.152a1.511,1.511,0,0,1-.384,1.04,1.368,1.368,0,0,1-.992.464,4.925,4.925,0,0,0-2.048-.448,8,8,0,0,0-1.84.24,11.662,11.662,0,0,0-1.776.56l-.032-.064a4.574,4.574,0,0,1,.928-.864,14.013,14.013,0,0,1,1.184-.768q.608-.352.96-.544a4.161,4.161,0,0,0-1.92-.688,16.919,16.919,0,0,0-2.08-.144q-.352,0-.7.032l-.7.064a3.884,3.884,0,0,1,1.488-1.088,8.956,8.956,0,0,1,1.968-.608,10.156,10.156,0,0,1,1.856-.192,4.957,4.957,0,0,1,1.76.368,4.769,4.769,0,0,1,1.648,1.04A2.16,2.16,0,0,1,219.264,75.992Zm35.328-5.568a1.661,1.661,0,0,1-.512,1.216,1.7,1.7,0,0,1-1.248.512H240.48q-.1,1.312-.256,2.64t-.416,2.64h11.008q-.224,2.624-.624,5.248t-.976,5.216a11.013,11.013,0,0,1-.9,2.576,5.487,5.487,0,0,1-1.632,2,4.2,4.2,0,0,1-2.592.768,4.039,4.039,0,0,1-2.224-.72,10.711,10.711,0,0,1-2.032-1.728q-.928-1.008-1.6-1.84a.369.369,0,0,1-.128-.256q0-.192.224-.192a2.1,2.1,0,0,1,.64.288q.512.288,1.248.688a10.4,10.4,0,0,0,1.568.688,4.885,4.885,0,0,0,1.6.288,2.064,2.064,0,0,0,1.552-.576,3.743,3.743,0,0,0,.848-1.408,13.025,13.025,0,0,0,.448-1.6q.448-1.984.7-4.048t.448-4.112h-7.84a24.358,24.358,0,0,1-2,5.264,19.707,19.707,0,0,1-3.248,4.592,13.27,13.27,0,0,1-2.88,2.288,29.923,29.923,0,0,1-3.3,1.68,3.031,3.031,0,0,1-.5.224,1.582,1.582,0,0,1-.528.1.526.526,0,0,1-.16-.032.125.125,0,0,1-.1-.128q0-.192.3-.416l.432-.32q.7-.48,1.36-.992t1.264-1.088a19,19,0,0,0,3.824-5.216,24.972,24.972,0,0,0,2.08-6.08,35.46,35.46,0,0,0,.72-6.432h-10.24V70.776h11.84q-.224-1.6-.464-3.2a21.543,21.543,0,0,1-.24-3.2q.96,0,2.1.1a13.768,13.768,0,0,1,2.064.32,1.213,1.213,0,0,1,.432.128q.176.1.176.416a4.728,4.728,0,0,1-.208,1.168q-.208.752-.512,1.584t-.624,1.568q-.32.736-.512,1.12h10.3a.742.742,0,0,0-.016-.144.742.742,0,0,1-.016-.144,1.832,1.832,0,0,1,.56-1.312,1.816,1.816,0,0,1,3.12,1.248Zm13.888,6.688q-.288.672-.528,1.36t-.5,1.392q-.576,1.6-1.152,3.584a13.258,13.258,0,0,0-.576,3.68,8.362,8.362,0,0,0,.32,2.368,1.129,1.129,0,0,1,.1.448,1.805,1.805,0,0,1-.384,1.136,1.3,1.3,0,0,1-1.088.5,1.64,1.64,0,0,1-1.232-.624,11.47,11.47,0,0,1-.912-1.136,7.961,7.961,0,0,1-1.168-3.024,18.6,18.6,0,0,1-.3-3.248,23.466,23.466,0,0,1,.7-5.744q.7-2.8,1.376-5.616a7.376,7.376,0,0,0,.224-1.856,6.014,6.014,0,0,0-.256-1.68,5.6,5.6,0,0,0-.7-1.552l.032-.032h.064a2.1,2.1,0,0,1,.864.272,11.958,11.958,0,0,1,1.072.608,4.672,4.672,0,0,1,.752.56,5.622,5.622,0,0,1,1.232,1.536,3.842,3.842,0,0,1,.5,1.888,3.457,3.457,0,0,1-.432,1.664q-.432.8-.784,1.568-.48,1.024-1.056,2.5t-.992,2.944a9.778,9.778,0,0,0-.416,2.624q0,.192.048.624a2.914,2.914,0,0,0,.192.784.469.469,0,0,0,.432.352.522.522,0,0,0,.48-.272q.16-.272.288-.5l.624-1.248q.3-.608.624-1.216.608-1.184,1.184-2.368t1.184-2.368ZM283.936,87a1.509,1.509,0,0,1-.656,1.28,4.8,4.8,0,0,1-1.632.736,12.582,12.582,0,0,1-1.92.352q-.944.1-1.52.1a9.713,9.713,0,0,1-4.992-1.168,6.141,6.141,0,0,1-2.656-4.272,4.344,4.344,0,0,1-.08-.624q-.016-.3-.016-.624,0-.128.1-.128a.085.085,0,0,1,.1.1q.1.352.24.752a3.783,3.783,0,0,0,.368.752,4.7,4.7,0,0,0,1.632,1.36,4.31,4.31,0,0,0,2.048.592,19.46,19.46,0,0,0,1.968-.1,9.406,9.406,0,0,0,1.936-.416q.288-.1.56-.208t.56-.208a2.416,2.416,0,0,1,.768-.128,7.048,7.048,0,0,1,1.344.144,3.426,3.426,0,0,1,1.3.528A1.336,1.336,0,0,1,283.936,87Zm-2.272-14.688a1.136,1.136,0,0,1-.688,1.12,7.44,7.44,0,0,1-1.328.48,15.261,15.261,0,0,0-3.2,1.248,24.514,24.514,0,0,0-2.944,1.792l-.128-.1a10.039,10.039,0,0,1,.992-1.232q.608-.656,1.216-1.2a16.981,16.981,0,0,1-2.176-.672,4.093,4.093,0,0,1-1.792-1.312q-.128-.192-.256-.416a1.261,1.261,0,0,1-.16-.448,8.85,8.85,0,0,0,1.136.3,5.856,5.856,0,0,0,1.168.144,8.581,8.581,0,0,0,2.384-.336,10.954,10.954,0,0,0,2.224-.912,3.714,3.714,0,0,1,.464-.224,1.324,1.324,0,0,1,.5-.1,2.508,2.508,0,0,1,.88.208,5.862,5.862,0,0,1,.848.4,3.541,3.541,0,0,1,.64.48A1.066,1.066,0,0,1,281.664,72.312Zm21.12,8.352a15.535,15.535,0,0,1-3.936,8.048,16.921,16.921,0,0,1-7.84,4.368,3.726,3.726,0,0,0-.368.08,1.393,1.393,0,0,1-.368.048,1.252,1.252,0,0,1-.176-.032q-.144-.032-.144-.1,0-.16.256-.288l.384-.192a21.224,21.224,0,0,0,3.68-2.48,12.68,12.68,0,0,0,2.88-3.344,17.277,17.277,0,0,0,1.5-3.392,21.618,21.618,0,0,0,.832-3.616q.832.256,1.664.448T302.784,80.664Zm16.064,8.064a2.216,2.216,0,0,1-.384,1.312,4.373,4.373,0,0,1-.992.992,10.369,10.369,0,0,1-2.1,1.1,16.121,16.121,0,0,1-2.528.784,11.053,11.053,0,0,1-2.384.288,8.914,8.914,0,0,1-1.68-.176,6.735,6.735,0,0,1-1.744-.592,4.025,4.025,0,0,1-1.36-1.072,2.5,2.5,0,0,1-.528-1.616V79H289.984V77.656h12.544v-5.92h-5.792a27.358,27.358,0,0,1-2.24,2.592,10.724,10.724,0,0,1-2.72,2.048q-.128.064-.272.128a.74.74,0,0,1-.3.064q-.16,0-.16-.128a.4.4,0,0,1,.1-.272,2.2,2.2,0,0,0,.16-.208,17.526,17.526,0,0,0,1.9-3.12,37.935,37.935,0,0,0,1.568-3.712,24.62,24.62,0,0,0,1.008-3.5l3.392,1.12q.32.064.32.32a1.8,1.8,0,0,1-.24.576q-.24.448-.576,1.024t-.624,1.04q-.288.464-.416.656h4.9v-5.7H305.7v5.7h5.536a2.214,2.214,0,0,1,.448-1.344,1.462,1.462,0,0,1,1.248-.608,1.814,1.814,0,0,1,1.264.48,1.608,1.608,0,0,1,.528,1.248,1.493,1.493,0,0,1-.48,1.168,1.749,1.749,0,0,1-1.216.432H305.7v5.92h9.44a.527.527,0,0,0-.016-.128.527.527,0,0,1-.016-.128,1.8,1.8,0,0,1,.528-1.264,1.644,1.644,0,0,1,1.232-.56,1.8,1.8,0,0,1,1.76,1.76,1.486,1.486,0,0,1-.56,1.2A1.929,1.929,0,0,1,316.8,79h-8.672v9.664a2.043,2.043,0,0,0,.96,1.968,4.575,4.575,0,0,0,2.24.528q.864,0,1.888-.048a10.68,10.68,0,0,0,2.016-.288,4.748,4.748,0,0,0,1.7-.752,1.732,1.732,0,0,1-.72-.528,1.251,1.251,0,0,1-.3-.816,1.475,1.475,0,0,1,1.472-1.472,1.435,1.435,0,0,1,1.024.432A1.393,1.393,0,0,1,318.848,88.728Zm24.736-6.752H332.448v2.336h6.816a1.2,1.2,0,0,1,.368-.784,1.075,1.075,0,0,1,.784-.336,1.229,1.229,0,0,1,.88.352,1.114,1.114,0,0,1,.368.832,1.087,1.087,0,0,1-.368.864,1.34,1.34,0,0,1-.912.32h-7.936v2.208h6.816a1.33,1.33,0,0,1,.368-.816,1.032,1.032,0,0,1,.784-.368,1.246,1.246,0,0,1,.864.352,1.093,1.093,0,0,1,.384.832,1.254,1.254,0,0,1-.32.848,1.051,1.051,0,0,1-.832.368h-8.064v2.688h8.928a1.862,1.862,0,0,0,1.664-.816,3.19,3.19,0,0,0,.544-1.808Zm7.392-5.728a1.448,1.448,0,0,1-.416.976,1.258,1.258,0,0,1-.96.464H333.312q-.416.768-.816,1.536t-.848,1.536l15.04-.032V88.12a4.863,4.863,0,0,1-1.28,3.776,5.583,5.583,0,0,1-3.84,1.152H329.824v-9.5a26.244,26.244,0,0,1-2.32,2.9,22.749,22.749,0,0,1-2.944,2.7A13.235,13.235,0,0,1,321.344,91a1.121,1.121,0,0,1-.352.064q-.192,0-.192-.128a.245.245,0,0,1,.08-.176.589.589,0,0,0,.112-.144,35.491,35.491,0,0,0,5.152-5.92,25.69,25.69,0,0,0,3.392-7.008H322.08v-1.28H334.5V74.136h-7.9v-1.28h7.9V70.328H323.712v-1.28h7.9q-1.568-1.76-3.008-3.68.224-.064.736-.24t1.1-.368q.592-.192,1.088-.336a3.062,3.062,0,0,1,.656-.144.352.352,0,0,1,.352.256,6.181,6.181,0,0,1,.16.784q.1.592.192,1.344t.176,1.424q.08.672.112.96h5.5q.352-1.216.688-2.416t.656-2.416q.8.224,1.616.368a11.1,11.1,0,0,1,1.584.4,1.552,1.552,0,0,1,.336.112.33.33,0,0,1,.176.336q0,.224-.464.736t-1.12,1.1q-.656.592-1.232,1.088l-.8.688h5.6a1.718,1.718,0,0,1,.416-1.136,1.352,1.352,0,0,1,1.088-.5,1.652,1.652,0,0,1,1.056.384,1.245,1.245,0,0,1,.48,1.024,1.381,1.381,0,0,1-.464,1.1,1.635,1.635,0,0,1-1.1.4h-9.664v2.528h5.088a1.59,1.59,0,0,1,.448-1.12,1.433,1.433,0,0,1,1.088-.48,1.652,1.652,0,0,1,1.056.384,1.245,1.245,0,0,1,.48,1.024,1.333,1.333,0,0,1-.464,1.088,1.723,1.723,0,0,1-1.136.384h-6.56v2.272h10.4a.264.264,0,0,0-.016-.08.263.263,0,0,1-.016-.08,1.587,1.587,0,0,1,1.536-1.536,1.456,1.456,0,0,1,1.088.464A1.5,1.5,0,0,1,350.976,76.248Zm27.968-5.824a1.307,1.307,0,0,1-.432,1.12,1.921,1.921,0,0,1-1.168.32.438.438,0,0,1-.1-.016.526.526,0,0,0-.128-.016q-.416-.064-.784-.128a4.575,4.575,0,0,0-.784-.064,22.588,22.588,0,0,0-2.7.16,7.3,7.3,0,0,0-2.544.8,4.408,4.408,0,0,0-1.7,1.5,8.389,8.389,0,0,0-1.056,2.224,14.485,14.485,0,0,0-.544,2.5,18.375,18.375,0,0,0-.16,2.288,10.1,10.1,0,0,0,.608,3.9A3.6,3.6,0,0,0,369.5,87a10.768,10.768,0,0,0,3.9.576,2.928,2.928,0,0,1,2.816,1.728q.1.192.176.4a1.193,1.193,0,0,1,.08.432,1.071,1.071,0,0,1-.544.992,3.532,3.532,0,0,1-1.248.432,7.9,7.9,0,0,1-1.216.112A13.1,13.1,0,0,1,369.7,91.1a8.507,8.507,0,0,1-3.328-1.856,5.469,5.469,0,0,1-1.68-2.7,13.23,13.23,0,0,1-.368-3.184,13.656,13.656,0,0,1,1.5-6.448,24.647,24.647,0,0,1,3.872-5.392,23.776,23.776,0,0,0-4.784,1.7q-2.256,1.088-4.528,2.3a4.136,4.136,0,0,1-.656.32,2.1,2.1,0,0,1-.752.128,3.119,3.119,0,0,1-2.464-1.056,3.7,3.7,0,0,1-.928-2.528,1.926,1.926,0,0,1,.112-.64,4.942,4.942,0,0,1,.24-.576,2.014,2.014,0,0,0,1.136.848,4.688,4.688,0,0,0,1.424.24,16.536,16.536,0,0,0,3.3-.4q1.92-.4,4.016-1.008t3.984-1.28q1.888-.672,3.2-1.184h.416q.544,0,1.456.032a10.968,10.968,0,0,1,1.84.224,4.721,4.721,0,0,1,1.584.608A1.324,1.324,0,0,1,378.944,70.424Zm-.32,7.264a1.51,1.51,0,0,1-.272.9.968.968,0,0,1-.848.384.772.772,0,0,1-.608-.3,2.528,2.528,0,0,1-.384-.592q-.224-.544-.512-1.088a4.131,4.131,0,0,0-.736-.992,3.289,3.289,0,0,0-.864-.608q-.128-.064-.128-.128t.1-.064a6.549,6.549,0,0,1,1.264.144,6.751,6.751,0,0,1,1.408.448,3.55,3.55,0,0,1,1.136.768A1.574,1.574,0,0,1,378.624,77.688Zm3.648-1.6a1.24,1.24,0,0,1-.336.832,1.046,1.046,0,0,1-.816.384.764.764,0,0,1-.512-.192,2.34,2.34,0,0,1-.384-.416,8.452,8.452,0,0,0-1.264-1.6,7.162,7.162,0,0,0-1.648-1.184.619.619,0,0,0-.112-.08q-.08-.048-.08-.08,0-.1.336-.128t.4-.032a13.22,13.22,0,0,1,1.392.08,5.9,5.9,0,0,1,1.44.336,2.83,2.83,0,0,1,1.136.752A1.906,1.906,0,0,1,382.272,76.088Zm11.36.864a1.053,1.053,0,0,1-.064.32,24.228,24.228,0,0,1-2.144,4.848q-1.344,2.32-2.88,4.5l-.24.32a.441.441,0,0,1-.368.192,1.328,1.328,0,0,1-.576-.3q-.416-.3-.928-.72t-.928-.8a6.191,6.191,0,0,1-.544-.544q.9-.64,2.032-1.584t2.3-2.032q1.168-1.088,2.144-2.176a16.049,16.049,0,0,0,1.552-1.984,1.682,1.682,0,0,1,.16-.256.3.3,0,0,1,.256-.128.172.172,0,0,1,.192.128A.94.94,0,0,1,393.632,76.952Zm21.824,14.976a1.641,1.641,0,0,1-.432,1.1,1.365,1.365,0,0,1-1.072.5,4.3,4.3,0,0,1-1.44-.3,7.307,7.307,0,0,1-1.344-.624,19.257,19.257,0,0,1-4.864-4.5,24.035,24.035,0,0,1-3.3-5.744,18.51,18.51,0,0,1-2.96,5.184,14.959,14.959,0,0,1-4.112,3.424,24.961,24.961,0,0,1-5.536,2.24q-.16.032-.336.08a1.393,1.393,0,0,1-.368.048.945.945,0,0,1-.256-.048q-.16-.048-.16-.176,0-.256.384-.448t.544-.288a30.83,30.83,0,0,0,4.256-2.48,13.038,13.038,0,0,0,3.36-3.568,16.915,16.915,0,0,0,2.48-5.936,38.411,38.411,0,0,0,.816-6.416q.864.032,1.728.144t1.728.24q-.032.512-.112,1.04t-.144,1.072a28.518,28.518,0,0,0,1.12,3.872,39.311,39.311,0,0,0,1.856,4.32,32.37,32.37,0,0,0,2.368,4.016,14.337,14.337,0,0,0,2.656,2.96,1.774,1.774,0,0,1,.592-.9,1.5,1.5,0,0,1,.976-.352,1.535,1.535,0,0,1,1.1.448A1.456,1.456,0,0,1,415.456,91.928ZM393.472,72.344a.283.283,0,0,1-.32.32,4.274,4.274,0,0,1-.688-.192q-.592-.192-1.424-.5t-1.712-.608q-.88-.3-1.6-.56a8.632,8.632,0,0,0-1.04-.32l.832-1.472a10.351,10.351,0,0,1,.928-1.376,1.4,1.4,0,0,1,.208-.224.4.4,0,0,1,.272-.1.76.76,0,0,1,.208.032q.112.032.208.064a3.951,3.951,0,0,1,.992.768,17.934,17.934,0,0,1,1.392,1.5q.72.864,1.232,1.6A2.346,2.346,0,0,1,393.472,72.344Zm19.776-.64a5.493,5.493,0,0,1-.752,2.352,12.325,12.325,0,0,1-1.648,2.288,14.8,14.8,0,0,1-1.824,1.728,2.337,2.337,0,0,1-.416.3.984.984,0,0,1-.48.176q-.288,0-.288-.32a.923.923,0,0,1,.08-.352,2.354,2.354,0,0,0,.112-.32,21.491,21.491,0,0,0,.7-2.272q.288-1.152.512-2.3H399.52a25.1,25.1,0,0,1-2.048,2.8,19.788,19.788,0,0,1-2.464,2.448q-.128.1-.24.192a.4.4,0,0,1-.272.1.424.424,0,0,1-.208-.064.208.208,0,0,1-.112-.192.617.617,0,0,1,.1-.32q.1-.16.16-.288a42.766,42.766,0,0,0,3.008-6.464,40.063,40.063,0,0,0,1.888-6.848l3.744,1.088a21.487,21.487,0,0,1-1.28,3.216q-.768,1.552-1.632,3.056Zm15.3,8.224v-2.64q0-1.328-.032-2.672h-4.864v3.328h1.824A1.257,1.257,0,0,1,426.72,76.7a1.278,1.278,0,0,1,.864.336,1.079,1.079,0,0,1,.384.848,1.264,1.264,0,0,1-.336.816,1,1,0,0,1-.784.4h-3.2v3.072h3.1a1.48,1.48,0,0,0,1.408-.672A3.106,3.106,0,0,0,428.544,79.928Zm4.288,10.5a.365.365,0,0,1-.144.3.488.488,0,0,1-.3.112,1.692,1.692,0,0,1-.864-.384,9.764,9.764,0,0,1-1.04-.848q-.5-.464-.72-.688a7.55,7.55,0,0,1-2.576,1.9,14.244,14.244,0,0,1-3.264,1.056,16.887,16.887,0,0,1-3.248.336V73.464h10.72v5.6a4.3,4.3,0,0,1-1.1,3.312,4.875,4.875,0,0,1-3.376,1.008h-3.264v6.272a23.6,23.6,0,0,0,2.72-.544,13.166,13.166,0,0,0,2.56-.96q-.512-.512-1.024-1.04T426.88,86.04l2.816-1.472q.736,1.376,1.5,2.736t1.5,2.736a.981.981,0,0,1,.1.176A.568.568,0,0,1,432.832,90.424Zm11.776-5.7a15.247,15.247,0,0,1-.1,1.648,6.763,6.763,0,0,1-.384,1.648,2.864,2.864,0,0,1-.88,1.248,2.494,2.494,0,0,1-1.616.48,3.013,3.013,0,0,1-1.488-.448,7.879,7.879,0,0,1-1.456-1.072,9.558,9.558,0,0,1-1.088-1.168.533.533,0,0,1-.192-.352.113.113,0,0,1,.128-.128,1.71,1.71,0,0,1,.624.208q.432.208.944.416a2.629,2.629,0,0,0,.992.208q.96,0,1.184-.608a3.961,3.961,0,0,0,.224-1.376V74.712h-4.736V93.528h-2.976v-20h10.816ZM432.352,67.64a1.177,1.177,0,0,1-.384.88,1.254,1.254,0,0,1-.9.368h-2.528q-.1.672-.208,1.36t-.272,1.328a3.331,3.331,0,0,1-.192.5.431.431,0,0,1-.416.272.5.5,0,0,1-.384-.176q-.16-.176-.288-.336-.416-.7-.8-1.456t-.736-1.488h-1.664a17.11,17.11,0,0,1-2.256,2.608,14.047,14.047,0,0,1-2.768,2.064,3.332,3.332,0,0,1-.336.176.879.879,0,0,1-.368.08q-.192,0-.192-.128a.275.275,0,0,1,.064-.176q.064-.08.1-.112a26.08,26.08,0,0,0,2.688-4.4,25.655,25.655,0,0,0,1.824-4.816q.544.128,1.04.24t1.008.24q.256.032.544.08a2.229,2.229,0,0,1,.512.144,1.3,1.3,0,0,1,.272.144.311.311,0,0,1,.112.272,1.894,1.894,0,0,1-.3.672q-.3.512-.64,1.024t-.464.7h5.376a1.257,1.257,0,0,1,1.28-1.28,1.318,1.318,0,0,1,.9.336A1.113,1.113,0,0,1,432.352,67.64Zm14.464-.192a1.2,1.2,0,0,1-.544,1.088,2.137,2.137,0,0,1-1.184.352h-3.552q-.16.288-.48.9t-.7,1.28a7.247,7.247,0,0,1-.784,1.136,1.077,1.077,0,0,1-.752.464.464.464,0,0,1-.448-.24,2.379,2.379,0,0,1-.192-.464,13.693,13.693,0,0,1-.24-1.52q-.08-.784-.144-1.552h-1.824q-.288.32-.912,1.008t-1.36,1.392a16.7,16.7,0,0,1-1.408,1.216,2.026,2.026,0,0,1-1.12.512q-.224,0-.224-.192a.616.616,0,0,1,.128-.288,27.285,27.285,0,0,0,2.064-4.192,43.626,43.626,0,0,0,1.456-4.416,10.938,10.938,0,0,1,1.232.256q.592.16,1.2.32.224.032.448.08t.448.112a1.3,1.3,0,0,1,.272.144.311.311,0,0,1,.112.272,2.172,2.172,0,0,1-.32.72q-.32.56-.672,1.1t-.512.768h6.88a1.952,1.952,0,0,1,.384-1.232,1.4,1.4,0,0,1,1.184-.5,1.616,1.616,0,0,1,1.088.416A1.336,1.336,0,0,1,446.816,67.448ZM464.224,80.76a.426.426,0,0,1-.1.256,1.684,1.684,0,0,0-.16.256,11.727,11.727,0,0,1-2.544,2.368,32.911,32.911,0,0,1-3.52,2.176,40.163,40.163,0,0,1-3.776,1.792q-1.872.768-3.312,1.216L449.088,86.2q1.28-.352,2.544-.72t2.512-.752V67.64h3.168v16q1.632-.576,3.2-1.264a25.707,25.707,0,0,0,3.04-1.584q.128-.064.24-.128a.476.476,0,0,1,.24-.064Q464.224,80.6,464.224,80.76Zm14.656,9.184a1.167,1.167,0,0,1-.448.944,1.526,1.526,0,0,1-.992.368,3.526,3.526,0,0,1-1.5-.4,12.722,12.722,0,0,1-1.376-.752,16.874,16.874,0,0,1-2.96-2.464,16.42,16.42,0,0,1-2.352-3.04,15.837,15.837,0,0,1-2.992,3.168,22.693,22.693,0,0,1-3.728,2.448,29.716,29.716,0,0,1-4,1.744l-.192.064a.709.709,0,0,1-.224.032.761.761,0,0,1-.208-.032.148.148,0,0,1-.112-.16q0-.192.448-.5t.944-.592q.5-.288.656-.384a34.674,34.674,0,0,0,2.8-2.1,27.037,27.037,0,0,0,2.72-2.576,15.961,15.961,0,0,0,2.064-2.752A14.9,14.9,0,0,0,469.1,78.3a44.392,44.392,0,0,0,.592-4.928q.128-1.568.192-3.136t.064-3.136l3.488.544a62.231,62.231,0,0,1-.64,7.232,32.136,32.136,0,0,1-1.792,6.976,19.491,19.491,0,0,0,2.128,4.24,31.307,31.307,0,0,0,2.9,3.728,1.561,1.561,0,0,1,.464-.944,1.291,1.291,0,0,1,.944-.4,1.342,1.342,0,0,1,1.024.448A1.463,1.463,0,0,1,478.88,89.944Zm-12.608-18.3a.424.424,0,0,1-.48.48,1.189,1.189,0,0,1-.608-.224q-1.248-.832-2.56-1.552a22.505,22.505,0,0,0-2.72-1.264l1.6-1.472.592-.592a.984.984,0,0,1,.72-.3.911.911,0,0,1,.7.32,7.209,7.209,0,0,1,.784.88q.464.592.912,1.3a11.744,11.744,0,0,1,.752,1.36A2.71,2.71,0,0,1,466.272,71.64Zm33.792,15.2V82.36h-2.688v4.48Zm-7.872-7.1a5.732,5.732,0,0,1-1.072,3.44,5.351,5.351,0,0,1-2.96,2.032l-.576.128a2.648,2.648,0,0,1-.576.064,1.126,1.126,0,0,1-.24-.048q-.176-.048-.176-.176a.326.326,0,0,1,.16-.272q.16-.112.256-.176a5.253,5.253,0,0,0,1.808-2.224,7.023,7.023,0,0,0,.592-2.832,12.551,12.551,0,0,0-.224-2.4,5.751,5.751,0,0,0-.848-2.1,4.154,4.154,0,0,0-1.872-1.488q.544-1.5.976-3.056t.848-3.12h-2.432V93.3h-3.008V66.168h9.312V66.9q-.864,1.568-1.856,3.088t-1.92,3.088a6.433,6.433,0,0,1,2.016,1.68,8.1,8.1,0,0,1,1.328,2.368A7.69,7.69,0,0,1,492.192,79.736Zm17.824,6.944a1.423,1.423,0,0,1-1.376,1.376h-5.7v5.216h-2.88V88.056h-9.408V86.84h4.064V82.36H493.6V81.112h6.464v-2.88h2.88v2.88h1.632a1.447,1.447,0,0,1,.368-.992,1.2,1.2,0,0,1,.944-.416,1.344,1.344,0,0,1,.96.4,1.267,1.267,0,0,1,.416.944,1.145,1.145,0,0,1-.448.976,1.711,1.711,0,0,1-1.056.336h-2.816v4.48h4.448a.356.356,0,0,1-.032-.16,1.239,1.239,0,0,1,.4-.928,1.318,1.318,0,0,1,.944-.384,1.311,1.311,0,0,1,1.312,1.312Zm1.5-8.544a1.577,1.577,0,0,1-.336,1.024,1.181,1.181,0,0,1-.976.416,4.672,4.672,0,0,1-1.168-.144q-.56-.144-1.136-.272a21.154,21.154,0,0,1-3.92-1.44,29.38,29.38,0,0,1-3.632-2.112,21.231,21.231,0,0,1-3.376,2.08,17.149,17.149,0,0,1-3.728,1.344,2.382,2.382,0,0,1-.24.048,1.477,1.477,0,0,1-.208.016,1.119,1.119,0,0,1-.272-.048q-.176-.048-.176-.176t.4-.384q.4-.256.864-.512t.624-.352a27.1,27.1,0,0,0,2.224-1.584q1.072-.848,2.064-1.776-.7-.576-1.392-1.168t-1.328-1.264l2.5-1.568q.512.544,1.04,1.056t1.04,1.024a14.66,14.66,0,0,0,1.344-1.7,20.4,20.4,0,0,0,1.12-1.856l-4.768.032a27.445,27.445,0,0,1-2.72,2.608,13.772,13.772,0,0,1-3.168,2,1.467,1.467,0,0,0-.192.08.5.5,0,0,1-.224.048q-.224,0-.224-.16a.4.4,0,0,1,.1-.272,2.205,2.205,0,0,0,.16-.208,37.677,37.677,0,0,0,3.04-4.1,32.26,32.26,0,0,0,2.4-4.48l3.52,1.216q-.384.576-.816,1.12t-.88,1.088h8.16v.512a9.631,9.631,0,0,1-1.264,2.048,25.768,25.768,0,0,1-1.808,2.08q-.96.992-1.792,1.7,1.5,1.248,3.12,2.384a21.435,21.435,0,0,0,3.44,1.968,1.123,1.123,0,0,1-.032-.32,1.318,1.318,0,0,1,.384-.944,1.276,1.276,0,0,1,1.856,0A1.318,1.318,0,0,1,511.52,78.136Zm27.424-7.712a1.307,1.307,0,0,1-.432,1.12,1.921,1.921,0,0,1-1.168.32.438.438,0,0,1-.1-.016.526.526,0,0,0-.128-.016q-.416-.064-.784-.128a4.575,4.575,0,0,0-.784-.064,22.587,22.587,0,0,0-2.7.16,7.3,7.3,0,0,0-2.544.8,4.409,4.409,0,0,0-1.7,1.5,8.388,8.388,0,0,0-1.056,2.224,14.49,14.49,0,0,0-.544,2.5,18.38,18.38,0,0,0-.16,2.288,10.1,10.1,0,0,0,.608,3.9A3.6,3.6,0,0,0,529.5,87a10.767,10.767,0,0,0,3.9.576,2.928,2.928,0,0,1,2.816,1.728q.1.192.176.4a1.194,1.194,0,0,1,.08.432,1.071,1.071,0,0,1-.544.992,3.531,3.531,0,0,1-1.248.432,7.9,7.9,0,0,1-1.216.112A13.1,13.1,0,0,1,529.7,91.1a8.507,8.507,0,0,1-3.328-1.856,5.469,5.469,0,0,1-1.68-2.7,13.231,13.231,0,0,1-.368-3.184,13.656,13.656,0,0,1,1.5-6.448,24.647,24.647,0,0,1,3.872-5.392,23.777,23.777,0,0,0-4.784,1.7q-2.256,1.088-4.528,2.3a4.134,4.134,0,0,1-.656.32,2.1,2.1,0,0,1-.752.128,3.119,3.119,0,0,1-2.464-1.056,3.7,3.7,0,0,1-.928-2.528,1.927,1.927,0,0,1,.112-.64,4.936,4.936,0,0,1,.24-.576,2.014,2.014,0,0,0,1.136.848,4.688,4.688,0,0,0,1.424.24,16.536,16.536,0,0,0,3.3-.4q1.92-.4,4.016-1.008t3.984-1.28q1.888-.672,3.2-1.184h.416q.544,0,1.456.032a10.968,10.968,0,0,1,1.84.224,4.721,4.721,0,0,1,1.584.608A1.324,1.324,0,0,1,538.944,70.424Zm-.32,7.264a1.51,1.51,0,0,1-.272.9.968.968,0,0,1-.848.384.772.772,0,0,1-.608-.3,2.527,2.527,0,0,1-.384-.592q-.224-.544-.512-1.088a4.132,4.132,0,0,0-.736-.992,3.289,3.289,0,0,0-.864-.608q-.128-.064-.128-.128t.1-.064a6.55,6.55,0,0,1,1.264.144,6.751,6.751,0,0,1,1.408.448,3.549,3.549,0,0,1,1.136.768A1.574,1.574,0,0,1,538.624,77.688Zm3.648-1.6a1.24,1.24,0,0,1-.336.832,1.046,1.046,0,0,1-.816.384.765.765,0,0,1-.512-.192,2.337,2.337,0,0,1-.384-.416,8.451,8.451,0,0,0-1.264-1.6,7.163,7.163,0,0,0-1.648-1.184.617.617,0,0,0-.112-.08q-.08-.048-.08-.08,0-.1.336-.128t.4-.032a13.221,13.221,0,0,1,1.392.08,5.9,5.9,0,0,1,1.44.336,2.83,2.83,0,0,1,1.136.752A1.906,1.906,0,0,1,542.272,76.088ZM17.888,129.224H13.952v5.184h3.9q.032-.352.032-.688v-4.5Zm7.3,0h-4.16q-.032,1.28-.064,2.576t-.1,2.608h2.368a1.673,1.673,0,0,0,1.472-.688,2.7,2.7,0,0,0,.48-1.584ZM11.2,120.36a.955.955,0,0,1-.048.3q-.048.144-.112.3A25.71,25.71,0,0,1,9.9,123.56q-.688,1.376-1.488,2.656t-1.6,2.336q-.128.16-.256.3a2.026,2.026,0,0,0-.224.3H7.808v17.472H4.9V130.824q-.256.288-.848.864t-1.3,1.2q-.7.624-1.312,1.072a1.854,1.854,0,0,1-.928.448.17.17,0,0,1-.192-.192.281.281,0,0,1,.08-.208,1.151,1.151,0,0,0,.144-.176,25.885,25.885,0,0,0,1.584-2.176q.752-1.152,1.424-2.336a42.88,42.88,0,0,0,4.16-10.656l3.04,1.216a1.654,1.654,0,0,1,.3.16A.356.356,0,0,1,11.2,120.36Zm20.128,25.792a1.175,1.175,0,0,1-.512,1.008,1.832,1.832,0,0,1-1.088.368,13.179,13.179,0,0,1-4.16-.688,20.17,20.17,0,0,1-3.968-1.808,24.507,24.507,0,0,1-3.424-2.432,12.87,12.87,0,0,1-3.856,3.088,17.077,17.077,0,0,1-4.656,1.648,2.059,2.059,0,0,1-.272.048,2.469,2.469,0,0,1-.272.016,1.377,1.377,0,0,1-.256-.032q-.16-.032-.16-.16,0-.224.288-.288,1.312-.608,2.432-1.2a11.427,11.427,0,0,0,2.208-1.552q.736-.672,1.5-1.472a6.926,6.926,0,0,0,1.216-1.7l.064-.128q-.768-.7-1.584-1.344a3.043,3.043,0,0,0-1.936-.64,2.785,2.785,0,0,0-.736.1,2.665,2.665,0,0,1-.7.1q-.16,0-.16-.128a1.384,1.384,0,0,1,.288-.4q.288-.336.608-.672t.416-.432q.192,0,.4-.016t.4-.016a6.524,6.524,0,0,1,2.128.288,9.48,9.48,0,0,1,1.872.96,8,8,0,0,0,.3-1.5,14.514,14.514,0,0,0,.08-1.5H11.2V127.88h6.688v-3.168H10.3v-1.376h7.488V118.7h3.3q0,1.152-.016,2.32t-.016,2.32h6.656a1.584,1.584,0,0,1,1.568-1.568,1.583,1.583,0,0,1,1.088.432,1.384,1.384,0,0,1,.48,1.072,1.453,1.453,0,0,1-.384,1.024,1.327,1.327,0,0,1-1.024.416H21.056v3.168H28.32v4.384a4.2,4.2,0,0,1-.464,2.208,2.165,2.165,0,0,1-1.376.96,9.466,9.466,0,0,1-2.224.224H20.832a21.268,21.268,0,0,1-.336,2.4,8.355,8.355,0,0,1-.816,2.3q1.248,1.152,2.672,2.352a27.23,27.23,0,0,0,2.992,2.192,17.67,17.67,0,0,0,3.168,1.6.8.8,0,0,1-.064-.352,1.339,1.339,0,0,1,.416-1.008,1.449,1.449,0,0,1,2.016.016A1.308,1.308,0,0,1,31.328,146.152Zm15.2-11.072v-5.7H40.7q-.032,1.408-.08,2.848t-.176,2.848Zm0-6.976v-6.08H40.7a4,4,0,0,0-.032.5v.5q0,1.28.016,2.544T40.7,128.1Zm13.184-7.36q0,5.152-.016,10.32t-.016,10.32a14.877,14.877,0,0,1-.112,1.744,7.088,7.088,0,0,1-.432,1.76,3.241,3.241,0,0,1-.96,1.344,2.581,2.581,0,0,1-1.7.528,3.75,3.75,0,0,1-1.792-.528,10.941,10.941,0,0,1-1.824-1.264,18.19,18.19,0,0,1-1.408-1.312.277.277,0,0,1-.1-.192q0-.192.256-.192a.446.446,0,0,1,.192.032,10.667,10.667,0,0,0,1.52.528,6.275,6.275,0,0,0,1.616.208,1.192,1.192,0,0,0,1.12-.624,3.591,3.591,0,0,0,.432-1.424q.08-.8.08-1.344V122.024H49.408v6.08h2.528a1.632,1.632,0,0,1,.384-1.072,1.228,1.228,0,0,1,.992-.464,1.462,1.462,0,0,1,1.04.448,1.421,1.421,0,0,1,.464,1.056,1.1,1.1,0,0,1-.48,1.008,2.048,2.048,0,0,1-1.12.3H49.408v5.7h2.528a1.652,1.652,0,0,1,.384-1.056,1.213,1.213,0,0,1,.992-.48,1.552,1.552,0,0,1,1.04.4,1.274,1.274,0,0,1,.464,1.008,1.2,1.2,0,0,1-.5,1.072,2.032,2.032,0,0,1-1.168.336H49.408v10.112h-2.88V136.36h-6.24a14.836,14.836,0,0,1-.56,2.256q-.368,1.1-.816,2.16a10.051,10.051,0,0,1-1.264,2.016,18.5,18.5,0,0,1-1.84,2.032,12.948,12.948,0,0,1-1.888,1.52.959.959,0,0,1-.512.16.568.568,0,0,1-.256-.064.229.229,0,0,1-.128-.224.339.339,0,0,1,.08-.224,2.253,2.253,0,0,0,.144-.192q1.056-1.216,1.808-2.272a12.932,12.932,0,0,0,1.28-2.24,13.3,13.3,0,0,0,.848-2.752,22.264,22.264,0,0,0,.448-3.776q.064-1.92.064-3.808,0-2.56-.032-5.1t-.032-5.1Zm31.232,3.68a1.307,1.307,0,0,1-.432,1.12,1.921,1.921,0,0,1-1.168.32.438.438,0,0,1-.1-.016.526.526,0,0,0-.128-.016q-.416-.064-.784-.128a4.575,4.575,0,0,0-.784-.064,22.588,22.588,0,0,0-2.7.16,7.3,7.3,0,0,0-2.544.8,4.408,4.408,0,0,0-1.7,1.5,8.389,8.389,0,0,0-1.056,2.224,14.486,14.486,0,0,0-.544,2.5,18.374,18.374,0,0,0-.16,2.288,10.1,10.1,0,0,0,.608,3.9A3.6,3.6,0,0,0,81.5,141a10.768,10.768,0,0,0,3.9.576,2.928,2.928,0,0,1,2.816,1.728q.1.192.176.4a1.193,1.193,0,0,1,.08.432,1.071,1.071,0,0,1-.544.992,3.531,3.531,0,0,1-1.248.432,7.9,7.9,0,0,1-1.216.112A13.1,13.1,0,0,1,81.7,145.1a8.507,8.507,0,0,1-3.328-1.856,5.469,5.469,0,0,1-1.68-2.7,13.229,13.229,0,0,1-.368-3.184,13.656,13.656,0,0,1,1.5-6.448,24.647,24.647,0,0,1,3.872-5.392,23.776,23.776,0,0,0-4.784,1.7q-2.256,1.088-4.528,2.3a4.135,4.135,0,0,1-.656.32,2.1,2.1,0,0,1-.752.128,3.119,3.119,0,0,1-2.464-1.056,3.7,3.7,0,0,1-.928-2.528,1.927,1.927,0,0,1,.112-.64,4.939,4.939,0,0,1,.24-.576,2.014,2.014,0,0,0,1.136.848,4.688,4.688,0,0,0,1.424.24,16.536,16.536,0,0,0,3.3-.4q1.92-.4,4.016-1.008t3.984-1.28q1.888-.672,3.2-1.184h.416q.544,0,1.456.032a10.968,10.968,0,0,1,1.84.224,4.721,4.721,0,0,1,1.584.608A1.324,1.324,0,0,1,90.944,124.424Zm-.32,7.264a1.51,1.51,0,0,1-.272.9.968.968,0,0,1-.848.384.772.772,0,0,1-.608-.3,2.527,2.527,0,0,1-.384-.592q-.224-.544-.512-1.088a4.131,4.131,0,0,0-.736-.992,3.289,3.289,0,0,0-.864-.608q-.128-.064-.128-.128t.1-.064a6.55,6.55,0,0,1,1.264.144,6.751,6.751,0,0,1,1.408.448,3.549,3.549,0,0,1,1.136.768A1.574,1.574,0,0,1,90.624,131.688Zm3.648-1.6a1.24,1.24,0,0,1-.336.832,1.046,1.046,0,0,1-.816.384.764.764,0,0,1-.512-.192,2.34,2.34,0,0,1-.384-.416,8.453,8.453,0,0,0-1.264-1.6,7.162,7.162,0,0,0-1.648-1.184.618.618,0,0,0-.112-.08q-.08-.048-.08-.08,0-.1.336-.128t.4-.032a13.221,13.221,0,0,1,1.392.08,5.9,5.9,0,0,1,1.44.336,2.83,2.83,0,0,1,1.136.752A1.906,1.906,0,0,1,94.272,130.088Zm22.176-2.08q0-.256-.464-.64a11.958,11.958,0,0,0-.992-.736,8.315,8.315,0,0,0-.784-.48l-1.216.576q.416.64.848,1.28t.88,1.28q.192-.1.608-.336a8.674,8.674,0,0,0,.768-.5Q116.448,128.2,116.448,128.008Zm4.672,10.112a3.342,3.342,0,0,1-.448,1.744,1.673,1.673,0,0,1-1.568.752,1.744,1.744,0,0,1-.96-.288,6.047,6.047,0,0,1-.8-.608,13.444,13.444,0,0,0-3.024-1.984,8.058,8.058,0,0,0-3.5-.768,8.318,8.318,0,0,0-1.888.24,4.345,4.345,0,0,0-1.76.832,2.335,2.335,0,0,0-.256,3.12,2.942,2.942,0,0,0,1.232.816,7.681,7.681,0,0,0,1.552.384,10.677,10.677,0,0,0,1.472.112q.544,0,1.088-.016t1.056-.016a5.281,5.281,0,0,1,1.44.208,3.1,3.1,0,0,1,1.264.688,1.724,1.724,0,0,1,.528,1.344,1.3,1.3,0,0,1-.592,1.2,3.033,3.033,0,0,1-1.376.432q-.784.064-1.392.064a12.058,12.058,0,0,1-2.992-.416,15.884,15.884,0,0,1-2.832-.992,6.529,6.529,0,0,1-2.32-1.808,4.281,4.281,0,0,1-.912-2.768,3.145,3.145,0,0,1,.624-1.968,4.726,4.726,0,0,1,1.616-1.328,8.517,8.517,0,0,1,2.08-.752,9.529,9.529,0,0,1,2.048-.24,17.537,17.537,0,0,1,2.112.128q1.056.128,2.08.352a5.916,5.916,0,0,1,.7.192,2.242,2.242,0,0,0,.7.128,1.509,1.509,0,0,0,.608-.112q.256-.112.256-.528a3.3,3.3,0,0,0-.32-1.28,11.579,11.579,0,0,0-.752-1.44,13.308,13.308,0,0,0-.752-1.12,27.2,27.2,0,0,1-2.944.8,14.418,14.418,0,0,1-3.008.32,9.307,9.307,0,0,1-3.6-.768,7.8,7.8,0,0,1-3.024-2.176,4.5,4.5,0,0,1-.288-.384q-.128-.192-.256-.416a2.434,2.434,0,0,1-.192-.432,3.372,3.372,0,0,1-.128-.432l.1-.064a1.1,1.1,0,0,0,.192.208.7.7,0,0,1,.16.176,6.294,6.294,0,0,0,2.288,1.472,7.634,7.634,0,0,0,2.672.48,16.916,16.916,0,0,0,6.5-1.408q-.416-.64-.832-1.3t-.832-1.3a7.285,7.285,0,0,1-1.7.416,15.369,15.369,0,0,1-1.76.1,4.036,4.036,0,0,1-2-.528,8.222,8.222,0,0,1-1.68-1.232,5.363,5.363,0,0,1-.5-.576,1.339,1.339,0,0,1-.272-.7,4.488,4.488,0,0,0,1.248.448,6.253,6.253,0,0,0,1.312.16,13.563,13.563,0,0,0,1.776-.112,5.812,5.812,0,0,0,1.68-.5q-.48-.736-1.136-1.6a11.032,11.032,0,0,0-1.424-1.552,3.614,3.614,0,0,0-1.7-.88.7.7,0,0,1,.464-.576,2.9,2.9,0,0,1,.9-.192q.5-.032.784-.032a10.309,10.309,0,0,1,1.1.064,3.376,3.376,0,0,1,1.072.288,2.834,2.834,0,0,1,.976.752,1.692,1.692,0,0,1,.464,1.136v.224a.516.516,0,0,1-.064.224q.032.288.08.576a1.912,1.912,0,0,0,.176.544l.512-.064a3.882,3.882,0,0,1,.48-.032,4.5,4.5,0,0,1,.992.144,3.345,3.345,0,0,1,1.072.448.933.933,0,0,1,.464.816.8.8,0,0,1-.224.56,2.073,2.073,0,0,1-.512.4q.736.32,1.488.672a3.692,3.692,0,0,0,1.584.352q.416-.16.816-.288a2.766,2.766,0,0,1,.848-.128,2.177,2.177,0,0,1,1.3.336,1.428,1.428,0,0,1,.464,1.232,1.744,1.744,0,0,1-.48,1.136,5.99,5.99,0,0,1-1.184,1.04,14.091,14.091,0,0,1-1.408.848q-.7.368-1.184.56.576.576,1.312,1.328t1.44,1.6a9.124,9.124,0,0,1,1.152,1.744A3.916,3.916,0,0,1,121.12,138.12Zm22.912,5.44a3.485,3.485,0,0,0-.576-1.68,1.712,1.712,0,0,0-1.536-.784,1.318,1.318,0,0,0-.9.336,1.079,1.079,0,0,0-.384.848.962.962,0,0,0,.432.8,3.044,3.044,0,0,0,1.008.48,3.721,3.721,0,0,0,.96.16q.192,0,.528-.016A.7.7,0,0,0,144.032,143.56Zm9.28-5.632a7.132,7.132,0,0,1-1.248,4.288,7.54,7.54,0,0,1-3.28,2.576,11.31,11.31,0,0,1-4.4.848q-.7,0-1.424-.048a5.131,5.131,0,0,1-1.36-.272,3.85,3.85,0,0,1-1.648-1.072,2.585,2.585,0,0,1-.688-1.808,2.1,2.1,0,0,1,.48-1.44,2.836,2.836,0,0,1,1.2-.8,4.409,4.409,0,0,1,1.488-.256,4.07,4.07,0,0,1,2.56.9,4.465,4.465,0,0,1,1.568,2.208,4.8,4.8,0,0,0,2.384-2.144,6.3,6.3,0,0,0,.848-3.136,3.706,3.706,0,0,0-1.312-2.992,4.712,4.712,0,0,0-3.136-1.1,7.107,7.107,0,0,0-2.384.48,14.771,14.771,0,0,0-2.624,1.264,14.418,14.418,0,0,0-2.32,1.728,7.614,7.614,0,0,0-1.536,1.872q-.16.288-.336.608a4.872,4.872,0,0,1-.368.576,1.525,1.525,0,0,1-.336.352.771.771,0,0,1-.464.128,1.021,1.021,0,0,1-.848-.384,2.037,2.037,0,0,1-.4-.928,5.6,5.6,0,0,1-.1-.96,1.938,1.938,0,0,1,.528-1.5,8.406,8.406,0,0,1,1.328-.96q.64-.416,1.264-.864t1.232-.928a18.686,18.686,0,0,0,2.5-2.448q1.12-1.328,2.176-2.7.384-.512.912-1.2a9.337,9.337,0,0,0,.912-1.44,3.09,3.09,0,0,0,.384-1.392.358.358,0,0,0-.192-.352.852.852,0,0,0-.384-.1,2.023,2.023,0,0,0-.992.384,13.483,13.483,0,0,0-1.3.944q-.688.56-1.264,1.072t-.864.8a2.721,2.721,0,0,1-.448.368,1.048,1.048,0,0,1-.576.144,1.626,1.626,0,0,1-1.184-.512,3.461,3.461,0,0,1-.784-1.216,3.589,3.589,0,0,1-.272-1.28,5.086,5.086,0,0,1,.1-.88,1.179,1.179,0,0,1,.384-.752,2.358,2.358,0,0,0,2.144,1.344,3.483,3.483,0,0,0,1.28-.32,13.989,13.989,0,0,0,1.5-.736q.736-.416,1.152-.7.608-.384,1.28-.9a2.291,2.291,0,0,1,1.408-.512,4.043,4.043,0,0,1,1.36.272,4.207,4.207,0,0,1,1.328.768,1.529,1.529,0,0,1,.576,1.2,1.9,1.9,0,0,1-.192.96,3.872,3.872,0,0,1-.672.768q-.416.384-.848.752t-.848.752a25.428,25.428,0,0,0-2.112,2.176q-.992,1.152-2.016,2.272-.128.16-.48.528t-.72.8q-.368.432-.64.8a1.143,1.143,0,0,0-.272.528q0,.1.16.1a1.543,1.543,0,0,0,.4-.192l.336-.192q.416-.224.848-.416t.848-.384a11.686,11.686,0,0,1,1.984-.656,8.948,8.948,0,0,1,2.048-.24,7.4,7.4,0,0,1,3.1.656A5.93,5.93,0,0,1,152.4,134.9,4.941,4.941,0,0,1,153.312,137.928Zm31.36,5.184q0-1.888-.016-3.776t-.016-3.744h-8.288v3.776h4.8a1.318,1.318,0,0,1,.384-.944,1.2,1.2,0,0,1,.9-.4,1.217,1.217,0,0,1,.928.416,1.373,1.373,0,0,1,.384.96,1.31,1.31,0,0,1-.368.912,1.189,1.189,0,0,1-.912.4h-6.112v4.64h6.336a1.77,1.77,0,0,0,1.52-.624A2.639,2.639,0,0,0,184.672,143.112Zm-11.744-12.8a.184.184,0,0,1-.064.128,7.663,7.663,0,0,1-1.712,1.84,19.184,19.184,0,0,1-2.1,1.456v6.976q0,1.024-.064,2.064a6.292,6.292,0,0,1-.4,1.9,2.893,2.893,0,0,1-1.088,1.376,3.69,3.69,0,0,1-2.1.512,6.01,6.01,0,0,1-1.968-.336,11.464,11.464,0,0,1-1.84-.816.609.609,0,0,0-.16-.112.154.154,0,0,1-.1-.144.13.13,0,0,1,.128-.144q.128-.016.16-.016a5.2,5.2,0,0,1,.7.048,4.98,4.98,0,0,0,.672.048,3.552,3.552,0,0,0,2.16-.512,2.229,2.229,0,0,0,.816-1.44,12.962,12.962,0,0,0,.16-2.176q0-1.44-.016-2.88t-.016-2.88q-.992.448-1.984.816t-2.016.72l-1.344-2.784q1.344-.256,2.688-.592t2.656-.688q0-1.44-.016-2.88t-.016-2.88H161.5v-1.312h4.576V118.76h2.944v6.848h.928a.142.142,0,0,0-.016-.064.142.142,0,0,1-.016-.064,1.558,1.558,0,0,1,.416-1.072,1.322,1.322,0,0,1,1.024-.464,1.257,1.257,0,0,1,1.008.48,1.613,1.613,0,0,1,.4,1.056,1.437,1.437,0,0,1-.4,1.008,1.315,1.315,0,0,1-1.008.432h-2.336q.032,1.216.032,2.448v2.448q.928-.32,1.824-.72t1.76-.88a.223.223,0,0,0,.1-.016.142.142,0,0,1,.064-.016A.113.113,0,0,1,172.928,130.312Zm14.816,11.9a4.039,4.039,0,0,1-1.248,3.392,5.722,5.722,0,0,1-3.552.96H173.5V134.28h14.24Zm3.456-13.664a1.49,1.49,0,0,1-.368,1.024,2.979,2.979,0,0,1-.912.688,7.881,7.881,0,0,1-1.024.432,25.048,25.048,0,0,1-4.336,1.088,28.512,28.512,0,0,1-4.464.352,13.637,13.637,0,0,1-2.832-.288,4.079,4.079,0,0,1-2.208-1.2,3.841,3.841,0,0,1-.848-2.7q0-2.368.016-4.72t.016-4.688l3.1-.032q0,1.664-.032,3.312t-.064,3.344q2.272-.992,4.432-2.192t4.208-2.576q.16.128.544.464t.816.752a9.54,9.54,0,0,1,.736.784,1.1,1.1,0,0,1,.3.528.259.259,0,0,1-.224.256,2.11,2.11,0,0,0-.352.128q-.512.16-.992.352t-.992.352a52.819,52.819,0,0,1-8.48,2.016v1.408a2.212,2.212,0,0,0,.656,1.776,3.383,3.383,0,0,0,1.632.736,17.446,17.446,0,0,0,1.936.24h1.088a27.384,27.384,0,0,0,3.088-.176q1.552-.176,3.056-.464a1.416,1.416,0,0,1-.384-.928,1.558,1.558,0,0,1,.416-1.072,1.322,1.322,0,0,1,1.024-.464,1.366,1.366,0,0,1,1.024.432A1.446,1.446,0,0,1,191.2,128.552Zm32.128,15.328a1.3,1.3,0,0,1-.368.864,3.491,3.491,0,0,1-.72.64,10.888,10.888,0,0,1-2.48,1.136,20.734,20.734,0,0,1-2.912.72,16.389,16.389,0,0,1-2.768.256,18.413,18.413,0,0,1-4.112-.464,11.559,11.559,0,0,1-3.824-1.648,10.6,10.6,0,0,1-2.032-1.9q-.944-1.136-1.68-2.224a5,5,0,0,0-.384-.592,6.973,6.973,0,0,0-.608-.736q-.32-.336-.512-.336a3.155,3.155,0,0,0-.768.1,25.58,25.58,0,0,1-2.576,3.92,14.344,14.344,0,0,1-3.472,3.152.731.731,0,0,1-.416.16q-.256,0-.256-.224a.344.344,0,0,1,.064-.192.808.808,0,0,0,.1-.192q1.12-1.632,1.936-3.1a27.7,27.7,0,0,0,1.456-3.056q.64-1.584,1.216-3.472a28.077,28.077,0,0,0,.832-3.648l3.424.576a15.08,15.08,0,0,1-.656,2.448,23.607,23.607,0,0,1-.976,2.32,1.051,1.051,0,0,1,.256-.032h.256a1.4,1.4,0,0,1,.736.192,2.814,2.814,0,0,1,.5.4,4.637,4.637,0,0,1,.432.5q.832.9,1.7,1.792a12.285,12.285,0,0,0,1.888,1.6v-12.9h-7.1v-1.376h14.368a1.435,1.435,0,0,1,.432-1.024,1.358,1.358,0,0,1,1.008-.448,1.41,1.41,0,0,1,1.024.448,1.445,1.445,0,0,1,.448,1.056,1.245,1.245,0,0,1-.448.928,1.392,1.392,0,0,1-.96.416H209.5V135.4H216.1a1.738,1.738,0,0,1,.416-1.12,1.3,1.3,0,0,1,1.056-.512,1.384,1.384,0,0,1,1.072.48,1.583,1.583,0,0,1,.432,1.088,1.435,1.435,0,0,1-.432,1.024,1.358,1.358,0,0,1-1.008.448H209.5V144.3a22.692,22.692,0,0,0,3.12.8,17.764,17.764,0,0,0,3.184.288q1.344,0,2.688-.112t2.656-.336a1.342,1.342,0,0,1-.576-1.152,1.166,1.166,0,0,1,.464-.928,1.511,1.511,0,0,1,.976-.384,1.2,1.2,0,0,1,.928.432A1.43,1.43,0,0,1,223.328,143.88Zm-1.408-20.96a8.194,8.194,0,0,1-.592,2.56,12.085,12.085,0,0,1-1.344,2.512,8.151,8.151,0,0,1-1.808,1.9.491.491,0,0,1-.192.064q-.352,0-.352-.384a5.645,5.645,0,0,1,.08-.928q.08-.48.112-.96.064-.832.144-1.664t.112-1.664H198.3v5.7h-3.1V122.92h11.584q-.224-1.248-.464-2.5t-.5-2.5q1.088.032,2.176.1t2.176.224a2.531,2.531,0,0,1,.528.128.42.42,0,0,1,.272.448,2.3,2.3,0,0,1-.256.816q-.256.56-.608,1.216t-.688,1.216q-.336.56-.5.848Zm22.784,6.24H239.3v3.2h3.36a2.682,2.682,0,0,0,1.6-.352,1.935,1.935,0,0,0,.448-1.536Zm8.864-6.976a1.449,1.449,0,0,1-.512,1.168,1.87,1.87,0,0,1-1.248.432H231.584v3.1q0,3.008-.176,6.192a24.435,24.435,0,0,1-1.1,6.1,17.6,17.6,0,0,1-1.056,2.608,18.874,18.874,0,0,1-1.536,2.576,11.149,11.149,0,0,1-1.888,2.08,2.1,2.1,0,0,1-.32.256.688.688,0,0,1-.384.128.141.141,0,0,1-.16-.16.468.468,0,0,1,.1-.288,1.683,1.683,0,0,0,.16-.256,16.411,16.411,0,0,0,1.68-3.616,26.254,26.254,0,0,0,.944-3.872,21.036,21.036,0,0,0,.3-2.432q.08-1.216.112-2.432.064-1.216.08-2.464t.016-2.5q0-1.6-.016-3.168t-.016-3.136h10.56l-.672-4.1,3.872.16a1.313,1.313,0,0,1,.464.144.414.414,0,0,1,.208.4,2,2,0,0,1-.208.624q-.208.464-.5,1.024t-.56,1.04q-.272.48-.368.7h9.12a1.346,1.346,0,0,1-.032-.32,1.651,1.651,0,0,1,.5-1.184,1.574,1.574,0,0,1,1.168-.512,1.751,1.751,0,0,1,1.7,1.7Zm.48,5.408a1.446,1.446,0,0,1-.5,1.12,1.646,1.646,0,0,1-1.136.448H247.68v1.472a2.46,2.46,0,0,1-.608,1.856,3,3,0,0,1-1.552.752,13.071,13.071,0,0,1-2,.208v2.5h7.744v6.08a8.97,8.97,0,0,1-.208,1.936,3.169,3.169,0,0,1-.816,1.568,2.486,2.486,0,0,1-1.856.624,3.525,3.525,0,0,1-1.152-.24,9.394,9.394,0,0,1-1.3-.576,8.152,8.152,0,0,1-1.008-.624l-.128-.128a.217.217,0,0,1-.064-.16.17.17,0,0,1,.192-.192,3.124,3.124,0,0,1,.848.144,3.49,3.49,0,0,0,.976.144,1.4,1.4,0,0,0,1.152-.4,1.892,1.892,0,0,0,.384-1.008,11.914,11.914,0,0,0,.064-1.248V137.1H243.52v10.5h-2.912V137.1h-4.16v8.9H233.6V135.944h7.008v-2.5h-4.032V129.16h-4.384v-1.248h4.384v-3.36h2.72v3.36H244.7V124.52h2.976v3.392h3.04a1.123,1.123,0,0,1-.032-.32,1.679,1.679,0,0,1,.48-1.184,1.559,1.559,0,0,1,1.184-.512,1.751,1.751,0,0,1,1.7,1.7Zm24.128,8.64a23.414,23.414,0,0,1-2.944-3.52h-7.1q-.7.928-1.456,1.824t-1.584,1.728q3.264,0,6.544-.016T278.176,136.232Zm-3.712-4.9a16.3,16.3,0,0,1-.96-1.648q-.448-.88-.8-1.744h-1.792q-.416.9-.9,1.728t-1.024,1.664Zm12.768,8.128a1.472,1.472,0,0,1-.4.928,1.144,1.144,0,0,1-.88.48,4.639,4.639,0,0,1-1.76-.416,13.434,13.434,0,0,1-2-1.056q-1.008-.64-1.888-1.312T278.88,136.9q-.064.8-.256,2.128t-.528,2.832a18.641,18.641,0,0,1-.88,2.864,6.927,6.927,0,0,1-1.344,2.208,2.513,2.513,0,0,1-1.888.848h-.416a3.08,3.08,0,0,1-.976-.528q-.656-.464-1.376-1.088A10.876,10.876,0,0,1,270,144.952a1.712,1.712,0,0,1-.5-.912q0-.1.128-.1a2.426,2.426,0,0,1,.688.3q.56.3,1.3.624a3.351,3.351,0,0,0,1.312.32,1.456,1.456,0,0,0,1.024-.352,2.468,2.468,0,0,0,.608-.9,7.775,7.775,0,0,0,.592-1.84q.24-1.136.384-2.3a12.457,12.457,0,0,0,.112-1.968v-.32l-3.264.032a11.448,11.448,0,0,1-1.392,3.168,17.624,17.624,0,0,1-2.288,2.928,16.624,16.624,0,0,1-2.848,2.368,12,12,0,0,1-3.136,1.488q-.16.032-.336.08a1.277,1.277,0,0,1-.336.048.687.687,0,0,1-.176-.032q-.112-.032-.112-.128a.32.32,0,0,1,.128-.24q.128-.112.192-.176a27.258,27.258,0,0,0,3.1-2.672,13.948,13.948,0,0,0,2.272-3.024,15.731,15.731,0,0,0,1.472-3.808h-4.416v-.736a23.827,23.827,0,0,1-1.952,1.52,22.932,22.932,0,0,1-2.368,1.472,14.485,14.485,0,0,1-2.272,1.008,1.205,1.205,0,0,1-.48.1.875.875,0,0,1-.192-.032.151.151,0,0,1-.128-.16.258.258,0,0,1,.1-.208q.1-.08.16-.144a47.174,47.174,0,0,0,4.16-3.488,25.329,25.329,0,0,0,3.488-4.16h-7.072v-1.376h8.032q.512-.8.944-1.648t.816-1.744h-7.392v-1.376h7.936q.352-.832.64-1.664t.544-1.7q.352-1.152.592-2.336t.5-2.368l3.744,1.12q-.544,1.76-1.216,3.5t-1.5,3.44h8.032a2,2,0,0,1,.432-1.28,1.447,1.447,0,0,1,1.2-.544,1.694,1.694,0,0,1,1.664,1.664,1.394,1.394,0,0,1-.528,1.072,1.692,1.692,0,0,1-1.136.464h-5.5a15.918,15.918,0,0,0,.8,1.728l.9,1.664h6.048a.354.354,0,0,0-.016-.112.264.264,0,0,1-.016-.08,1.67,1.67,0,0,1,.5-1.168,1.552,1.552,0,0,1,1.168-.528,1.57,1.57,0,0,1,1.152.528,1.644,1.644,0,0,1,.512,1.168,1.353,1.353,0,0,1-.576,1.136,2,2,0,0,1-1.216.432H278.4a31.553,31.553,0,0,0,2.672,3.552,20.9,20.9,0,0,0,3.216,3.04,1.409,1.409,0,0,1,.512-.928,1.451,1.451,0,0,1,.96-.384,1.393,1.393,0,0,1,1.04.448A1.435,1.435,0,0,1,287.232,139.464Zm-20.064-14.112a.733.733,0,0,1-.1.384.376.376,0,0,1-.352.16.681.681,0,0,1-.336-.08,2.373,2.373,0,0,1-.272-.176q-.352-.32-.672-.672t-.672-.672q-.608-.64-1.248-1.264t-1.28-1.232q.192-.128.64-.416t.96-.608q.512-.32.944-.56a1.593,1.593,0,0,1,.592-.24.606.606,0,0,1,.48.224,3,3,0,0,1,.3.832q.208.736.432,1.664t.4,1.7A6.241,6.241,0,0,1,267.168,125.352Zm13.376-3.616q0,.192-.5.688t-1.248,1.12q-.752.624-1.552,1.2a17.113,17.113,0,0,1-1.44.944,2.34,2.34,0,0,1-.864.368q-.256,0-.256-.288a.74.74,0,0,1,.064-.3,1.674,1.674,0,0,0,.1-.272q.544-1.248,1.056-2.512t.96-2.544q.8.224,1.584.528t1.552.624a1.168,1.168,0,0,1,.352.144A.34.34,0,0,1,280.544,121.736Zm36.576-3.392a12.106,12.106,0,0,0-3.584,4.016,18.625,18.625,0,0,0-1.936,5.168,25.667,25.667,0,0,0-.592,5.408,23.963,23.963,0,0,0,.608,5.264,18.458,18.458,0,0,0,1.936,5.056,11.658,11.658,0,0,0,3.536,3.888l-.352.8a15.114,15.114,0,0,1-4.56-3.824,15.756,15.756,0,0,1-2.688-5.088,19.577,19.577,0,0,1-.88-5.9,21.376,21.376,0,0,1,.864-6.112,16.794,16.794,0,0,1,2.672-5.328,15.733,15.733,0,0,1,4.592-4.08Zm32.32,3.072a1.74,1.74,0,0,0-.576-1.312,1.973,1.973,0,0,0-2.7-.016,1.748,1.748,0,0,0-.56,1.328,1.775,1.775,0,0,0,.576,1.344,1.932,1.932,0,0,0,2.688,0A1.775,1.775,0,0,0,349.44,121.416Zm-3.68,5.184a1.552,1.552,0,0,1-.448,1.088,5.837,5.837,0,0,1-.96.832,23.615,23.615,0,0,1-.8,2.608,21.188,21.188,0,0,1-1.12,2.512,26.133,26.133,0,0,1-3.36,5.312,16.728,16.728,0,0,1-4.256,3.632,23.193,23.193,0,0,1-5.856,2.384q-1.344.352-2.848.608a17.349,17.349,0,0,1-2.912.256l-.032-.16q.512-.1,1.088-.24l1.088-.272a21.491,21.491,0,0,0,5.9-2.976A22.249,22.249,0,0,0,336,137.608a25.7,25.7,0,0,0,1.44-2.176,28.118,28.118,0,0,0,1.424-2.7,21.343,21.343,0,0,0,1.072-2.816,8.952,8.952,0,0,0,.416-2.544.633.633,0,0,0-.288-.608,1.361,1.361,0,0,0-.672-.16,8.916,8.916,0,0,0-1.632.224q-1.088.224-2.448.576t-2.672.752q-1.312.4-2.368.8a8.777,8.777,0,0,0-1.5.688q-.192.128-.368.256a.715.715,0,0,1-.432.128,1.847,1.847,0,0,1-.7-.16,5.8,5.8,0,0,1-2.08-1.28,2.866,2.866,0,0,1-.96-2.176,1.994,1.994,0,0,1,.224-.96,3.316,3.316,0,0,0,1.616.768,9.41,9.41,0,0,0,1.808.192,23.357,23.357,0,0,0,2.992-.192l2.96-.384q.7-.1,1.552-.224l1.584-.24q.736-.112,1.088-.176a3.784,3.784,0,0,0,.848-.288q.5-.224.976-.448.384-.16.72-.288a1.642,1.642,0,0,1,.56-.128,4.043,4.043,0,0,1,1.184.224q.7.224,1.392.512a6.545,6.545,0,0,1,1.072.544,3.655,3.655,0,0,1,.672.5A1.027,1.027,0,0,1,345.76,126.6Zm4.672-5.184a2.645,2.645,0,0,1-.864,2,2.844,2.844,0,0,1-2.016.816,2.956,2.956,0,0,1-2.048-.816,2.6,2.6,0,0,1-.9-2,2.539,2.539,0,0,1,.9-2,3.022,3.022,0,0,1,2.048-.784,2.844,2.844,0,0,1,2.016.816A2.609,2.609,0,0,1,350.432,121.416Zm28,9.056a1.3,1.3,0,0,1-.416.864,7.1,7.1,0,0,1-.736.7,25.3,25.3,0,0,1-2.128,4.416,23.89,23.89,0,0,1-2.928,3.936,17.836,17.836,0,0,1-4.384,3.312,20.987,20.987,0,0,1-5.2,1.968,24.021,24.021,0,0,1-5.488.64l-.064-.224a18.547,18.547,0,0,0,3.088-.8q1.552-.544,2.928-1.184a16.767,16.767,0,0,0,2.384-1.392,14.977,14.977,0,0,0,1.888-1.6q.88-.88,1.872-2a19.527,19.527,0,0,0,1.264-1.68q.688-1.008,1.312-2.144a14.1,14.1,0,0,0,1.008-2.272,6.432,6.432,0,0,0,.384-2.032q0-.448-.4-.48t-.784-.032q-.352,0-.736.032t-.736.1q-2.176.224-4.592.672a17.3,17.3,0,0,0-4.4,1.408q-.16.1-.368.208a.844.844,0,0,1-.4.112,2.907,2.907,0,0,1-2.272-1.008,3.43,3.43,0,0,1-.9-2.352,1.4,1.4,0,0,1,.192-.736,4.147,4.147,0,0,0,1.68.752,8.3,8.3,0,0,0,1.84.24q2.4,0,4.8-.24t4.768-.56q.512-.064,1.024-.16a7.51,7.51,0,0,0,.992-.256,6.1,6.1,0,0,0,1.1-.528,1.945,1.945,0,0,1,.944-.336,2.562,2.562,0,0,1,1.36.528q.784.528,1.584,1.136A1.244,1.244,0,0,1,378.432,130.472Zm-4.256-6.4a.681.681,0,0,1-.416.672,4.551,4.551,0,0,1-.8.288,24.645,24.645,0,0,1-3.36.672,26.613,26.613,0,0,1-3.424.224,9.889,9.889,0,0,1-1.936-.176,4.034,4.034,0,0,1-1.744-.88,6.376,6.376,0,0,1-.96-.976,9.618,9.618,0,0,1-.768-1.136l.064-.064a5.4,5.4,0,0,0,1.424.576,6.715,6.715,0,0,0,1.52.16,14.393,14.393,0,0,0,3.168-.384,28.4,28.4,0,0,0,3.072-.864q.32-.128.64-.224a2.217,2.217,0,0,1,.64-.1,3.294,3.294,0,0,1,1.264.272,3.344,3.344,0,0,1,1.136.768A1.624,1.624,0,0,1,374.176,124.072Zm31.616-.032a.974.974,0,0,1-.288.768,2.216,2.216,0,0,1-.736.416q-.9,1.088-1.744,2.176a22.508,22.508,0,0,1-1.84,2.08q.192.128.56.384a5.745,5.745,0,0,1,.672.544.794.794,0,0,1,.3.544,1.506,1.506,0,0,1-.256.72,2.378,2.378,0,0,0-.32.848,2.332,2.332,0,0,0-.032.384v.384q0,2.528.032,5.072t.256,5.072q.032.32.08.672a5.2,5.2,0,0,1,.048.7,2.545,2.545,0,0,1-.192.912,2.585,2.585,0,0,1-.544.864,1.114,1.114,0,0,1-.832.368,1.694,1.694,0,0,1-1.248-.56,4.028,4.028,0,0,1-.848-1.312,3.674,3.674,0,0,1-.3-1.36,2.168,2.168,0,0,1,.1-.656,5.938,5.938,0,0,0,.16-.624q.16-.672.288-1.36t.192-1.392q.16-1.76.24-3.5t.08-3.5v-.56a5.072,5.072,0,0,0-.032-.56,27.47,27.47,0,0,1-4.816,3.456,26.013,26.013,0,0,1-5.488,2.272,5.559,5.559,0,0,1-.72.208,5.806,5.806,0,0,1-.752.112l-.032-.128q.224-.064.544-.192t.672-.288l.832-.448a8.764,8.764,0,0,0,.832-.512,26.076,26.076,0,0,0,4.112-3.36,32.792,32.792,0,0,0,3.6-4.224,21.684,21.684,0,0,0,2.464-4.352q.064-.16.128-.336a1.068,1.068,0,0,0,.064-.368.67.67,0,0,0-.336-.576,3.287,3.287,0,0,0-.752-.368q-.416-.144-.672-.208A2.123,2.123,0,0,1,400,121.7a6.2,6.2,0,0,1,1.072-.416,3.432,3.432,0,0,1,.88-.16,3.669,3.669,0,0,1,.688.064,2.513,2.513,0,0,1,.656.224,7.476,7.476,0,0,1,.944.656,8.682,8.682,0,0,1,1.072.992A1.522,1.522,0,0,1,405.792,124.04Zm39.84,16.128a1.662,1.662,0,0,1-.56,1.28,1.863,1.863,0,0,1-1.3.512,3.1,3.1,0,0,1-1.312-.352,11.14,11.14,0,0,1-1.424-.816,12.564,12.564,0,0,1-1.136-.848q-2.24-1.952-4.384-4.016t-4.32-4.112q-.288-.288-.56-.576a4.475,4.475,0,0,0-.624-.544,3.758,3.758,0,0,0-.576-.352,1.484,1.484,0,0,0-.672-.16,1.107,1.107,0,0,0-.528.112,1.621,1.621,0,0,0-.432.368,14.149,14.149,0,0,0-.992,1.136q-.576.72-1.184,1.552t-1.12,1.616q-.512.784-.832,1.328l-.32.576a2.46,2.46,0,0,1-.416.544,1.485,1.485,0,0,1-1.152.544,3.579,3.579,0,0,1-1.856-.512,3.954,3.954,0,0,1-1.376-1.344,3.414,3.414,0,0,1-.512-1.824v-.192a.6.6,0,0,1,.032-.192,4.707,4.707,0,0,0,.88.352,3.3,3.3,0,0,0,.944.16,2.175,2.175,0,0,0,1.248-.368,4.426,4.426,0,0,0,.96-.88q1.088-1.12,2.176-2.256t2.272-2.16a4.122,4.122,0,0,1,1.12-.7,3.265,3.265,0,0,1,1.28-.256,2.963,2.963,0,0,1,1.248.336,6.188,6.188,0,0,1,1.152.688q2.624,1.92,5.28,3.776t5.376,3.616q.448.288,1.072.656a11.5,11.5,0,0,1,1.184.8,3.09,3.09,0,0,1,.816.88,2.925,2.925,0,0,1,.4.768A2.623,2.623,0,0,1,445.632,140.168ZM438.4,125.544a1.51,1.51,0,0,1-.272.9.968.968,0,0,1-.848.384.772.772,0,0,1-.608-.3,2.528,2.528,0,0,1-.384-.592q-.224-.544-.512-1.088a3.6,3.6,0,0,0-.736-.96,1.911,1.911,0,0,0-.416-.368q-.224-.144-.448-.272-.128-.064-.128-.128t.1-.064a6.549,6.549,0,0,1,1.264.144,6.751,6.751,0,0,1,1.408.448,3.55,3.55,0,0,1,1.136.768A1.574,1.574,0,0,1,438.4,125.544Zm3.68-1.7a1.24,1.24,0,0,1-.336.832,1.046,1.046,0,0,1-.816.384.764.764,0,0,1-.512-.192,2.339,2.339,0,0,1-.384-.416,8.189,8.189,0,0,0-2.912-2.816.343.343,0,0,0-.112-.064q-.08-.032-.08-.064,0-.128.336-.144t.4-.016a13.22,13.22,0,0,1,1.392.08,5.9,5.9,0,0,1,1.44.336,2.83,2.83,0,0,1,1.136.752A1.906,1.906,0,0,1,442.08,123.848Zm36.064,9.568a1.048,1.048,0,0,1-.416.928,2.261,2.261,0,0,1-.992.368,7.724,7.724,0,0,1-1.056.08q-1.44,0-2.88-.032t-2.88-.032q-2.4,0-4.816.064t-4.816.192q-1.184.064-2.384.208t-2.384.3a4.817,4.817,0,0,0-.8.128,3.286,3.286,0,0,1-.8.1,6.677,6.677,0,0,1-1.712-.224,3.046,3.046,0,0,1-1.408-.784,2.188,2.188,0,0,1-.56-1.616,2.817,2.817,0,0,1,.224-.992,1.311,1.311,0,0,1,.64-.768,2.875,2.875,0,0,0,1.552,1.136,6.385,6.385,0,0,0,1.9.3q2.528,0,5.056-.16t5.024-.416q1.28-.16,2.56-.3a22.338,22.338,0,0,0,2.528-.432q.192-.064.752-.208t1.088-.288a5.171,5.171,0,0,1,.592-.144,16.892,16.892,0,0,1,2.272.176,5.7,5.7,0,0,1,2.144.688,3.91,3.91,0,0,1,.624.416,4.142,4.142,0,0,1,.656.64A1.082,1.082,0,0,1,478.144,133.416Zm26.88,1.312a2.163,2.163,0,0,1-.672,1.824,2.564,2.564,0,0,1-1.6.512,1.185,1.185,0,0,1-.9-.416q-.384-.416-.8-.9a7.8,7.8,0,0,0-.576-.64q-.32-.32-.48-.512a9.356,9.356,0,0,0-.8-.832q-.48-.448-.864-.768a8.547,8.547,0,0,0-1.824-1.2,9.9,9.9,0,0,0-2.048-.72q.064,3.2.24,6.416t.176,6.448a3.7,3.7,0,0,1-.208,1.12,3.343,3.343,0,0,1-.608,1.12,1.226,1.226,0,0,1-.976.48,1.173,1.173,0,0,1-.768-.336,3.86,3.86,0,0,1-.672-.768,4.269,4.269,0,0,1-.416-.752,5.2,5.2,0,0,1-.24-.992,7.255,7.255,0,0,1-.08-1.056,9.34,9.34,0,0,1,.224-2.032,16.575,16.575,0,0,0,.32-2q.256-3.264.288-6.56t.032-6.56a13.97,13.97,0,0,0-.1-1.6,4.365,4.365,0,0,0-.464-1.536,2.169,2.169,0,0,0-1.2-1.024,1.929,1.929,0,0,1,.656-.7,1.567,1.567,0,0,1,.88-.32,5.357,5.357,0,0,1,1.808.352,4.6,4.6,0,0,1,1.68,1.04,2.223,2.223,0,0,1,.7,1.648,1.246,1.246,0,0,1-.064.448q-.064.16-.192.416a9.329,9.329,0,0,0-.88,3.088q-.144,1.52-.176,3.248a11.01,11.01,0,0,1,1.424-.1h1.392a14.351,14.351,0,0,1,2.96.32,9.1,9.1,0,0,1,2.768,1.056,5.67,5.67,0,0,1,1.392,1.136A2.377,2.377,0,0,1,505.024,134.728Zm19.776-2.24a2,2,0,0,1-.56,1.5,2.089,2.089,0,0,1-1.52.544.957.957,0,0,1-.656-.24,2.7,2.7,0,0,1-.464-.528,4.456,4.456,0,0,1-.368-.7,4.94,4.94,0,0,0-.336-.672,5.855,5.855,0,0,0-1.472-1.728,22.475,22.475,0,0,0-1.888-1.312,3.89,3.89,0,0,1,.992-.192q.512-.032,1.024-.032a7.848,7.848,0,0,1,1.632.192,8.22,8.22,0,0,1,1.728.576,3.786,3.786,0,0,1,1.36,1.024A2.383,2.383,0,0,1,524.8,132.488Zm16.544-5.44a6.7,6.7,0,0,1-.544,1.328q-.416.816-.928,1.712t-.976,1.648q-.464.752-.72,1.136a28.219,28.219,0,0,1-6.64,6.928,40.283,40.283,0,0,1-8.432,4.656q-.224.1-.5.208a1.458,1.458,0,0,1-.56.112,4.211,4.211,0,0,1-1.936-.464,3.721,3.721,0,0,1-1.456-1.3,3.429,3.429,0,0,1-.544-1.92,3.843,3.843,0,0,1,.08-.752,4.1,4.1,0,0,1,.208-.72,3.749,3.749,0,0,0,.976.992,2.207,2.207,0,0,0,1.3.416,8.15,8.15,0,0,0,2.848-.608,26.093,26.093,0,0,0,3.264-1.52q1.664-.912,3.168-1.872t2.528-1.664a36.273,36.273,0,0,0,7.68-7.072q.256-.288.544-.672t.512-.672Zm-13.536-1.7a2.318,2.318,0,0,1-.576,1.584,1.943,1.943,0,0,1-1.536.656,1.29,1.29,0,0,1-.864-.272,2.859,2.859,0,0,1-.576-.688A7.229,7.229,0,0,0,523.04,125a7.318,7.318,0,0,0-1.536-1.2q-.928-.56-1.728-.976a3.939,3.939,0,0,1,1.376-.368q.8-.08,1.44-.08a10.209,10.209,0,0,1,1.728.16,7.031,7.031,0,0,1,1.76.544,3.142,3.142,0,0,1,1.312,1.088A2,2,0,0,1,527.808,125.352ZM30.144,187.416a1.048,1.048,0,0,1-.416.928,2.261,2.261,0,0,1-.992.368,7.724,7.724,0,0,1-1.056.08q-1.44,0-2.88-.032t-2.88-.032q-2.4,0-4.816.064t-4.816.192q-1.184.064-2.384.208t-2.384.3a4.817,4.817,0,0,0-.8.128,3.286,3.286,0,0,1-.8.1,6.677,6.677,0,0,1-1.712-.224,3.046,3.046,0,0,1-1.408-.784,2.188,2.188,0,0,1-.56-1.616,2.816,2.816,0,0,1,.224-.992,1.311,1.311,0,0,1,.64-.768,2.875,2.875,0,0,0,1.552,1.136,6.385,6.385,0,0,0,1.9.3q2.528,0,5.056-.16t5.024-.416q1.28-.16,2.56-.3a22.338,22.338,0,0,0,2.528-.432q.192-.064.752-.208t1.088-.288a5.17,5.17,0,0,1,.592-.144,16.892,16.892,0,0,1,2.272.176,5.7,5.7,0,0,1,2.144.688,3.911,3.911,0,0,1,.624.416,4.143,4.143,0,0,1,.656.64A1.082,1.082,0,0,1,30.144,187.416Zm26.88,1.312a2.163,2.163,0,0,1-.672,1.824,2.564,2.564,0,0,1-1.6.512,1.185,1.185,0,0,1-.9-.416q-.384-.416-.8-.9a7.793,7.793,0,0,0-.576-.64q-.32-.32-.48-.512a9.35,9.35,0,0,0-.8-.832q-.48-.448-.864-.768a8.546,8.546,0,0,0-1.824-1.2,9.9,9.9,0,0,0-2.048-.72q.064,3.2.24,6.416t.176,6.448a3.7,3.7,0,0,1-.208,1.12,3.343,3.343,0,0,1-.608,1.12,1.226,1.226,0,0,1-.976.48,1.173,1.173,0,0,1-.768-.336,3.86,3.86,0,0,1-.672-.768,4.27,4.27,0,0,1-.416-.752,5.2,5.2,0,0,1-.24-.992,7.257,7.257,0,0,1-.08-1.056,9.34,9.34,0,0,1,.224-2.032,16.574,16.574,0,0,0,.32-2q.256-3.264.288-6.56t.032-6.56a13.969,13.969,0,0,0-.1-1.6,4.365,4.365,0,0,0-.464-1.536,2.169,2.169,0,0,0-1.2-1.024,1.929,1.929,0,0,1,.656-.7,1.567,1.567,0,0,1,.88-.32,5.358,5.358,0,0,1,1.808.352,4.6,4.6,0,0,1,1.68,1.04,2.223,2.223,0,0,1,.7,1.648,1.246,1.246,0,0,1-.064.448q-.064.16-.192.416a9.329,9.329,0,0,0-.88,3.088q-.144,1.52-.176,3.248a11.01,11.01,0,0,1,1.424-.1h1.392a14.351,14.351,0,0,1,2.96.32,9.1,9.1,0,0,1,2.768,1.056,5.67,5.67,0,0,1,1.392,1.136A2.377,2.377,0,0,1,57.024,188.728ZM75.36,187a20.046,20.046,0,0,1-.88,5.952,16.4,16.4,0,0,1-2.672,5.184,14.507,14.507,0,0,1-4.576,3.872l-.384-.8a11.026,11.026,0,0,0,2.832-2.752,15.778,15.778,0,0,0,1.9-3.552,20.236,20.236,0,0,0,1.072-3.952A24.212,24.212,0,0,0,72.992,187a25.021,25.021,0,0,0-.608-5.408,19,19,0,0,0-1.952-5.168,11.972,11.972,0,0,0-3.616-4.016l.416-.736a15.648,15.648,0,0,1,6.16,6.528A19.66,19.66,0,0,1,75.36,187Zm45.76-3.168a1.23,1.23,0,0,0-.64-1.12,2.47,2.47,0,0,0-1.28-.384,3.3,3.3,0,0,0-1.936.7,10.2,10.2,0,0,0-1.856,1.76,21.305,21.305,0,0,0-1.568,2.128q-.688,1.072-1.1,1.84l2.624-1.28q1.312-.64,2.624-1.248.544-.256,1.056-.464a9,9,0,0,0,1.024-.5,3.907,3.907,0,0,0,.752-.544A1.182,1.182,0,0,0,121.12,183.832Zm3.68,1.6a2.172,2.172,0,0,1-.592,1.632,2.582,2.582,0,0,1-1.616.672,26.123,26.123,0,0,0-5.136.96,34.621,34.621,0,0,0-4.912,1.856q0,.928-.016,1.872t-.016,1.872a2.221,2.221,0,0,1-.192.912.755.755,0,0,1-.768.432,1.791,1.791,0,0,1-1.6-.624,3.056,3.056,0,0,1-.416-1.712q0-.352.016-.72t.048-.72q-.544.288-1.232.736a5.2,5.2,0,0,0-1.168,1.024,1.993,1.993,0,0,0-.48,1.312,1.869,1.869,0,0,0,.752,1.568,4.611,4.611,0,0,0,1.76.816,7.893,7.893,0,0,0,1.808.24,19.485,19.485,0,0,0,2.512-.16q1.232-.16,2.48-.416a2.384,2.384,0,0,1,.24-.048,1.7,1.7,0,0,1,.24-.016,6.041,6.041,0,0,1,1.248.128,2.2,2.2,0,0,1,1.024.5,1.484,1.484,0,0,1,.416,1.168,1.2,1.2,0,0,1-.608,1.04,4.9,4.9,0,0,1-1.472.624,10.92,10.92,0,0,1-1.7.3q-.832.08-1.312.08-.96,0-1.92-.048t-1.888-.176a10.237,10.237,0,0,1-2.256-.672,4.936,4.936,0,0,1-1.872-1.344,3.238,3.238,0,0,1-.736-2.176,4.189,4.189,0,0,1,.688-2.272,9.3,9.3,0,0,1,1.7-1.984,15.652,15.652,0,0,1,1.9-1.472q.032-.384.048-.768t.016-.736q0-.512-.016-1.008t-.016-1.008a1.429,1.429,0,0,0-1.6-1.632,1.835,1.835,0,0,0-1.056.3,3.072,3.072,0,0,0-.8.816,21.64,21.64,0,0,0-2.208,4.16q-.064.192-.144.4t-.176.4a4.589,4.589,0,0,1-.72.88,1.417,1.417,0,0,1-.976.5,1.218,1.218,0,0,1-.992-.384,1.974,1.974,0,0,1-.416-.96,6.632,6.632,0,0,1-.1-1.088,2.268,2.268,0,0,1,.368-1.328,3.753,3.753,0,0,1,.976-.944,12.093,12.093,0,0,0,1.488-1.264q.688-.688,1.3-1.424a8.391,8.391,0,0,0,1.216-1.888q.48-1.024.928-2.048l-.512.064a4.124,4.124,0,0,1-.512.032,9.185,9.185,0,0,1-2-.24,4.5,4.5,0,0,1-1.84-.848,2.381,2.381,0,0,1-.864-1.76,6.775,6.775,0,0,0,1.312.416,6.371,6.371,0,0,0,1.344.16,8.224,8.224,0,0,0,2.032-.256,17.83,17.83,0,0,0,1.936-.608,13.181,13.181,0,0,0,.432-1.44,6.31,6.31,0,0,0,.176-1.472,1.8,1.8,0,0,0-.432-1.168,1.975,1.975,0,0,0-1.072-.688,2.18,2.18,0,0,1,.992-.5,4.887,4.887,0,0,1,1.12-.144,2.7,2.7,0,0,1,1.216.3,3.071,3.071,0,0,1,1.024.816,1.78,1.78,0,0,1,.416,1.152,1.743,1.743,0,0,1-.336.848,7.527,7.527,0,0,0-.5.88,2.422,2.422,0,0,0,.9-.416q.448-.32.88-.608a1.4,1.4,0,0,1,.72-.288,2.428,2.428,0,0,1,1.344.416,1.331,1.331,0,0,1,.64,1.184,1.084,1.084,0,0,1-.432.928,8.884,8.884,0,0,1-.88.576,21.8,21.8,0,0,1-2.432,1.248q-1.248.544-2.56.992-.512.96-.928,1.952t-.864,2.016q.288-.1.784-.272a2.492,2.492,0,0,1,.752-.176,3.155,3.155,0,0,1,2.064.576,3.212,3.212,0,0,1,.992,1.536,12.864,12.864,0,0,1,.464,2.112q.448-.96,1.136-2.144a22.346,22.346,0,0,1,1.568-2.336,12.563,12.563,0,0,1,1.888-2,5.062,5.062,0,0,1,2.1-1.1,2.866,2.866,0,0,1,.528-.08q.272-.016.528-.016a5.244,5.244,0,0,1,2.288.528,5,5,0,0,1,1.824,1.456A3.5,3.5,0,0,1,124.8,185.432Zm32.64-10.016a1.74,1.74,0,0,0-.576-1.312,1.973,1.973,0,0,0-2.7-.016,1.748,1.748,0,0,0-.56,1.328,1.775,1.775,0,0,0,.576,1.344,1.932,1.932,0,0,0,2.688,0A1.775,1.775,0,0,0,157.44,175.416Zm-3.68,5.184a1.552,1.552,0,0,1-.448,1.088,5.837,5.837,0,0,1-.96.832,23.621,23.621,0,0,1-.8,2.608,21.185,21.185,0,0,1-1.12,2.512,26.133,26.133,0,0,1-3.36,5.312,16.728,16.728,0,0,1-4.256,3.632,23.193,23.193,0,0,1-5.856,2.384q-1.344.352-2.848.608a17.349,17.349,0,0,1-2.912.256l-.032-.16q.512-.1,1.088-.24l1.088-.272a21.491,21.491,0,0,0,5.9-2.976A22.25,22.25,0,0,0,144,191.608a25.705,25.705,0,0,0,1.44-2.176,28.111,28.111,0,0,0,1.424-2.7,21.339,21.339,0,0,0,1.072-2.816,8.952,8.952,0,0,0,.416-2.544.633.633,0,0,0-.288-.608,1.361,1.361,0,0,0-.672-.16,8.916,8.916,0,0,0-1.632.224q-1.088.224-2.448.576t-2.672.752q-1.312.4-2.368.8a8.777,8.777,0,0,0-1.5.688q-.192.128-.368.256a.715.715,0,0,1-.432.128,1.847,1.847,0,0,1-.7-.16,5.8,5.8,0,0,1-2.08-1.28,2.866,2.866,0,0,1-.96-2.176,1.994,1.994,0,0,1,.224-.96,3.316,3.316,0,0,0,1.616.768,9.409,9.409,0,0,0,1.808.192,23.355,23.355,0,0,0,2.992-.192l2.96-.384q.7-.1,1.552-.224l1.584-.24q.736-.112,1.088-.176a3.784,3.784,0,0,0,.848-.288q.5-.224.976-.448.384-.16.72-.288a1.642,1.642,0,0,1,.56-.128,4.043,4.043,0,0,1,1.184.224q.7.224,1.392.512a6.547,6.547,0,0,1,1.072.544,3.657,3.657,0,0,1,.672.5A1.027,1.027,0,0,1,153.76,180.6Zm4.672-5.184a2.645,2.645,0,0,1-.864,2,2.844,2.844,0,0,1-2.016.816,2.956,2.956,0,0,1-2.048-.816,2.6,2.6,0,0,1-.9-2,2.539,2.539,0,0,1,.9-2,3.022,3.022,0,0,1,2.048-.784,2.844,2.844,0,0,1,2.016.816A2.609,2.609,0,0,1,158.432,175.416Zm31.52,4.992a3.346,3.346,0,0,1-.192.544,23.362,23.362,0,0,1-3.9,6.576,31.859,31.859,0,0,1-5.744,5.36,34.922,34.922,0,0,1-6.7,3.84q-.256.128-.528.256a5.063,5.063,0,0,0-.528.288l-.384.3a.725.725,0,0,1-.448.176,1.683,1.683,0,0,1-1.056-.448,5.255,5.255,0,0,1-.992-1.1,7.045,7.045,0,0,1-.72-1.328,3.169,3.169,0,0,1-.272-1.152.521.521,0,0,1,.208-.352,2.049,2.049,0,0,0,.4-.56,2.2,2.2,0,0,0,.192-1.008v-6.256q0-.56-.032-1.1t-.016-1.12a5.544,5.544,0,0,0-.08-1.12,3.232,3.232,0,0,0-.992-1.92,3.439,3.439,0,0,0-1.92-.96,7.881,7.881,0,0,1,1.248-1.168,2.549,2.549,0,0,1,1.568-.592,2.961,2.961,0,0,1,1.072.272,9.291,9.291,0,0,1,1.328.688,5.142,5.142,0,0,1,1.12.912,1.478,1.478,0,0,1,.448.976.942.942,0,0,1-.352.768q-.064.512-.08,1.024t-.048,1.024q-.128,2.112-.24,4.208t-.112,4.208a1.207,1.207,0,0,0,.16.624.611.611,0,0,0,.576.272,3,3,0,0,0,.864-.176q.544-.176,1.1-.384t.848-.336a33.788,33.788,0,0,0,3.856-2.1,45.49,45.49,0,0,0,3.872-2.72,37.241,37.241,0,0,0,3.536-3.136,24.481,24.481,0,0,0,2.816-3.376Zm29.376,3.52a.884.884,0,0,1-.288.72,2.051,2.051,0,0,1-.672.368,2.719,2.719,0,0,0-.7.352,3.492,3.492,0,0,0-.288.256,3.492,3.492,0,0,1-.288.256A15.347,15.347,0,0,1,215.68,187q-.928.672-2.048,1.392t-2.192,1.328a12.493,12.493,0,0,1-1.872.9l-.256-.224q.544-.48,1.3-1.232t1.472-1.632a10.286,10.286,0,0,0,1.184-1.776,3.65,3.65,0,0,0,.464-1.664q0-.384-.32-.432a4.529,4.529,0,0,0-.672-.048,5.877,5.877,0,0,0-1.44.24q-.9.24-1.9.592t-1.888.736q-.88.384-1.392.64-.1,1.344-.208,2.7t-.112,2.7a4.529,4.529,0,0,0,.688,2.848,3.524,3.524,0,0,0,2.768.832,20.467,20.467,0,0,0,2.8-.192q1.392-.192,2.768-.48a2.432,2.432,0,0,1,.4-.1,2.838,2.838,0,0,1,.432-.032,3.03,3.03,0,0,1,1.248.288,3.41,3.41,0,0,1,1.1.784,1.654,1.654,0,0,1,.464,1.168,1.108,1.108,0,0,1-.736,1.024,6.377,6.377,0,0,1-1.792.512,15.242,15.242,0,0,1-2.032.176q-.976.016-1.456.016-1.12,0-2.256-.08t-2.256-.272A5.3,5.3,0,0,1,204.4,195.9a6.7,6.7,0,0,1-.944-3.872q0-.9.016-1.76t.016-1.728v-.992q0-.48-.032-.992-.864.48-2.048,1.088a9.651,9.651,0,0,0-1.92,1.248,2.721,2.721,0,0,1-.448.368,1.048,1.048,0,0,1-.576.144,2.148,2.148,0,0,1-1.1-.432,7.15,7.15,0,0,1-1.2-.992,3.8,3.8,0,0,1-.736-.976,2.436,2.436,0,0,1-.128-.832,1.166,1.166,0,0,1,.016-.192,1.264,1.264,0,0,1,.048-.192,1.812,1.812,0,0,0,.784.272,7.677,7.677,0,0,0,.848.048,12.637,12.637,0,0,0,3.3-.448q1.664-.448,3.232-.864v-.928q0-1.056-.016-2.112t-.016-2.112a2.47,2.47,0,0,0-.56-1.712,3.248,3.248,0,0,0-1.584-.912,2.221,2.221,0,0,1,.7-.656,5.046,5.046,0,0,1,1.024-.5,2.875,2.875,0,0,1,.928-.192,3.154,3.154,0,0,1,1.328.384,5.573,5.573,0,0,1,1.392.96,1.651,1.651,0,0,1,.608,1.184,1.375,1.375,0,0,1-.176.672q-.176.32-.336.672a5.756,5.756,0,0,0-.3,1.344q-.112.864-.16,1.744t-.144,1.488q.416-.16,1.344-.512t2.08-.768q1.152-.416,2.272-.816t1.952-.656a4.935,4.935,0,0,1,1.088-.256,5.229,5.229,0,0,1,2,.4,5.744,5.744,0,0,1,1.712,1.072,2.243,2.243,0,0,1,.464.592A1.511,1.511,0,0,1,219.328,183.928Zm-2.016-5.952a1.51,1.51,0,0,1-.272.9.968.968,0,0,1-.848.384.772.772,0,0,1-.608-.3,2.527,2.527,0,0,1-.384-.592q-.224-.544-.512-1.088a4.131,4.131,0,0,0-.736-.992,3.289,3.289,0,0,0-.864-.608q-.128-.064-.128-.128t.1-.064a6.55,6.55,0,0,1,1.264.144,6.752,6.752,0,0,1,1.408.448,3.55,3.55,0,0,1,1.136.768A1.574,1.574,0,0,1,217.312,177.976Zm3.744-1.664a1.24,1.24,0,0,1-.336.832,1.046,1.046,0,0,1-.816.384.764.764,0,0,1-.512-.192,2.34,2.34,0,0,1-.384-.416,8.452,8.452,0,0,0-1.264-1.6,7.161,7.161,0,0,0-1.648-1.184.62.62,0,0,0-.112-.08q-.08-.048-.08-.08,0-.128.336-.144t.4-.016a13.222,13.222,0,0,1,1.392.08,5.9,5.9,0,0,1,1.44.336,2.83,2.83,0,0,1,1.136.752A1.906,1.906,0,0,1,221.056,176.312Zm31.712,4.192a29.1,29.1,0,0,1-6.336,9.792,28.678,28.678,0,0,1-5.728,4.448,27.445,27.445,0,0,1-6.688,2.912.549.549,0,0,1-.224.032,1.27,1.27,0,0,1-.576-.128,7.086,7.086,0,0,1-1.344-.736,4.949,4.949,0,0,1-1.184-1.12,2.294,2.294,0,0,1-.48-1.408,4.944,4.944,0,0,1,.128-1.1,4.176,4.176,0,0,1,.384-1.04,7.081,7.081,0,0,0,.8,1.088,1.517,1.517,0,0,0,1.184.544,8.912,8.912,0,0,0,2.816-.544,25.262,25.262,0,0,0,3.248-1.376q1.648-.832,3.12-1.744t2.464-1.616a52.52,52.52,0,0,0,4.48-3.728,33.064,33.064,0,0,0,3.872-4.3ZM238.56,181.56a2.8,2.8,0,0,1-.624,1.824,2.122,2.122,0,0,1-1.744.768,1.132,1.132,0,0,1-1.072-.528,7.4,7.4,0,0,1-.528-1.136,6.171,6.171,0,0,0-1.712-2.528,6.018,6.018,0,0,0-2.736-1.44,3.241,3.241,0,0,1,.88-.256q.56-.1,1.136-.144t.928-.048a10.655,10.655,0,0,1,1.776.16,7.727,7.727,0,0,1,1.792.528,3.408,3.408,0,0,1,1.376,1.056A2.782,2.782,0,0,1,238.56,181.56Zm42.464,7.168a2.163,2.163,0,0,1-.672,1.824,2.564,2.564,0,0,1-1.6.512,1.185,1.185,0,0,1-.9-.416q-.384-.416-.8-.9a7.8,7.8,0,0,0-.576-.64q-.32-.32-.48-.512a9.356,9.356,0,0,0-.8-.832q-.48-.448-.864-.768a8.547,8.547,0,0,0-1.824-1.2,9.9,9.9,0,0,0-2.048-.72q.064,3.2.24,6.416t.176,6.448a3.7,3.7,0,0,1-.208,1.12,3.343,3.343,0,0,1-.608,1.12,1.226,1.226,0,0,1-.976.48,1.173,1.173,0,0,1-.768-.336,3.86,3.86,0,0,1-.672-.768,4.269,4.269,0,0,1-.416-.752,5.2,5.2,0,0,1-.24-.992,7.255,7.255,0,0,1-.08-1.056,9.34,9.34,0,0,1,.224-2.032,16.575,16.575,0,0,0,.32-2q.256-3.264.288-6.56t.032-6.56a13.97,13.97,0,0,0-.1-1.6,4.365,4.365,0,0,0-.464-1.536,2.169,2.169,0,0,0-1.2-1.024,1.929,1.929,0,0,1,.656-.7,1.567,1.567,0,0,1,.88-.32,5.358,5.358,0,0,1,1.808.352,4.6,4.6,0,0,1,1.68,1.04,2.223,2.223,0,0,1,.7,1.648,1.246,1.246,0,0,1-.064.448q-.064.16-.192.416a9.329,9.329,0,0,0-.88,3.088q-.144,1.52-.176,3.248a11.01,11.01,0,0,1,1.424-.1h1.392a14.351,14.351,0,0,1,2.96.32,9.1,9.1,0,0,1,2.768,1.056,5.67,5.67,0,0,1,1.392,1.136A2.377,2.377,0,0,1,281.024,188.728Zm24.96,8.832a2.158,2.158,0,0,1-.7,1.648,2.438,2.438,0,0,1-3.328,0,2.158,2.158,0,0,1-.7-1.648,2.108,2.108,0,0,1,.7-1.632,2.483,2.483,0,0,1,3.328,0A2.108,2.108,0,0,1,305.984,197.56Zm.8-21.088q0,.16-.016.32t-.048.32q-.16,1.056-.352,2.1t-.352,2.064q-.32,2.3-.736,4.592t-.672,4.592q-.032.512-.112,1.056t-.208,1.056a1.4,1.4,0,0,1-.24.56.612.612,0,0,1-.528.24.574.574,0,0,1-.592-.432,2.59,2.59,0,0,1-.112-.976q.032-.544.032-.832,0-.9-.064-1.792l-.128-1.792q-.1-1.7-.224-3.376t-.288-3.344q-.1-1.024-.256-2.064a13.558,13.558,0,0,1-.16-2.064,2.418,2.418,0,0,1,2.72-2.752,2.09,2.09,0,0,1,1.664.8A2.636,2.636,0,0,1,306.784,176.472Z" transform="translate(-0.288 -10.408)" fill="#fff"/></svg>