<svg xmlns="http://www.w3.org/2000/svg" width="538.944" height="137.568" viewBox="0 0 538.944 137.568"><path d="M9.44,28.1a10.088,10.088,0,0,1-.224,2.064,7.805,7.805,0,0,1-.7,2A4.253,4.253,0,0,1,7.28,33.656a2.942,2.942,0,0,1-1.808.56,1.838,1.838,0,0,1-1.28-.5,1.6,1.6,0,0,1-.544-1.232,2.728,2.728,0,0,1,.176-1.056,1.5,1.5,0,0,1,.688-.7,3.146,3.146,0,0,1,.5-.256,3.715,3.715,0,0,0,.464-.224,7.765,7.765,0,0,0,2.16-2.208,21.208,21.208,0,0,0,1.552-2.688q.128.1.176.688t.064,1.216Q9.44,27.88,9.44,28.1Zm17.536-8.1a1.14,1.14,0,0,1-.352.912,1.42,1.42,0,0,1-.96.3,8.86,8.86,0,0,1-.912-.048q-.464-.048-.912-.08-.512-.032-1.024-.032H21.76q-1.12,0-2.256.08t-2.256.144v.7q0,2.784.112,5.568t.272,5.568a1.006,1.006,0,0,0,.016.16,1.006,1.006,0,0,1,.016.16,8.758,8.758,0,0,1-.24,2.1,3.021,3.021,0,0,1-.9,1.568,2.751,2.751,0,0,1-1.9.592,1.375,1.375,0,0,1-1.04-.3,2.292,2.292,0,0,1-.432-1.008A3.825,3.825,0,0,0,12.08,34.36q-.88-.912-1.648-1.616l.1-.16q.512.224,1.2.512a3.5,3.5,0,0,0,1.36.288,1.374,1.374,0,0,0,1.3-.528,2.935,2.935,0,0,0,.336-1.36q.128-1.792.144-3.616t.016-3.648v-1.36q0-.688-.032-1.36a31.438,31.438,0,0,0-3.408.672,15.233,15.233,0,0,0-3.216,1.184q-.128.064-.288.128a.856.856,0,0,1-.32.064,2.165,2.165,0,0,1-1.04-.416,6.475,6.475,0,0,1-1.184-.96,1.508,1.508,0,0,1-.528-.96,1.208,1.208,0,0,1,.064-.384,2.527,2.527,0,0,0,.1-.384,4.82,4.82,0,0,0,1.216.416A6.356,6.356,0,0,0,7.488,21q.672,0,1.344-.064l1.344-.128q1.12-.128,2.288-.256t2.32-.32V19.5q0-.608-.032-1.44a10.515,10.515,0,0,0-.208-1.7,5.144,5.144,0,0,0-.56-1.536,1.877,1.877,0,0,0-1.088-.9,2.193,2.193,0,0,1,.912-.528,3.484,3.484,0,0,1,1.04-.176,3.473,3.473,0,0,1,1.36.368,5.561,5.561,0,0,1,1.44.928,1.614,1.614,0,0,1,.624,1.2.9.9,0,0,1-.16.56,4.009,4.009,0,0,0-.32.5,2.833,2.833,0,0,0-.3.912,8.99,8.99,0,0,0-.144,1.2q-.032.608-.032,1.024a20.591,20.591,0,0,0,3.024-.624,8.105,8.105,0,0,0,2.7-1.328,6.754,6.754,0,0,1,1.1.112,7.076,7.076,0,0,1,1.3.352,3.591,3.591,0,0,1,1.088.624A1.213,1.213,0,0,1,26.976,20.008ZM28,31.112a3.73,3.73,0,0,1-.48,1.952,1.915,1.915,0,0,1-1.792.8,1.233,1.233,0,0,1-.96-.352,1.842,1.842,0,0,1-.432-.864q-.112-.512-.208-.992a8.656,8.656,0,0,0-.9-2.9,8.825,8.825,0,0,0-1.616-2.112A26.083,26.083,0,0,0,19.3,24.68a8.031,8.031,0,0,1,1.1.144q.56.112,1.072.24a13.49,13.49,0,0,1,2.24.752,10.254,10.254,0,0,1,2.128,1.232,5.941,5.941,0,0,1,1.568,1.744A4.5,4.5,0,0,1,28,31.112Zm-2.56-16.48a1.51,1.51,0,0,1-.272.9.968.968,0,0,1-.848.384.728.728,0,0,1-.592-.3,4.452,4.452,0,0,1-.4-.592,10.612,10.612,0,0,0-.512-1.12,3.6,3.6,0,0,0-.736-.96,4.107,4.107,0,0,0-.4-.352,2.845,2.845,0,0,0-.464-.288q-.128-.064-.128-.128t.1-.064a6.549,6.549,0,0,1,1.264.144,6.751,6.751,0,0,1,1.408.448,3.419,3.419,0,0,1,1.136.784A1.629,1.629,0,0,1,25.44,14.632Zm3.584-1.76a1.22,1.22,0,0,1-.336.848,1.064,1.064,0,0,1-.816.368.764.764,0,0,1-.512-.192,2.339,2.339,0,0,1-.384-.416,8.453,8.453,0,0,0-1.264-1.6A7.162,7.162,0,0,0,24.064,10.7a.343.343,0,0,0-.112-.064q-.08-.032-.08-.1,0-.1.336-.112t.432-.016a12.967,12.967,0,0,1,1.36.08,5.9,5.9,0,0,1,1.44.336,2.914,2.914,0,0,1,1.136.736A1.847,1.847,0,0,1,29.024,12.872Zm33.12,12.544a1.048,1.048,0,0,1-.416.928,2.261,2.261,0,0,1-.992.368,7.724,7.724,0,0,1-1.056.08q-1.44,0-2.88-.032t-2.88-.032q-2.4,0-4.816.064t-4.816.192q-1.184.064-2.384.208t-2.384.3a4.816,4.816,0,0,0-.8.128,3.286,3.286,0,0,1-.8.1,6.677,6.677,0,0,1-1.712-.224,3.046,3.046,0,0,1-1.408-.784,2.188,2.188,0,0,1-.56-1.616,2.816,2.816,0,0,1,.224-.992,1.311,1.311,0,0,1,.64-.768,2.875,2.875,0,0,0,1.552,1.136,6.385,6.385,0,0,0,1.9.3q2.528,0,5.056-.16T48.64,24.2q1.28-.16,2.56-.3a22.34,22.34,0,0,0,2.528-.432q.192-.064.752-.208t1.088-.288a5.169,5.169,0,0,1,.592-.144A16.89,16.89,0,0,1,58.432,23a5.7,5.7,0,0,1,2.144.688,3.912,3.912,0,0,1,.624.416,4.143,4.143,0,0,1,.656.64A1.082,1.082,0,0,1,62.144,25.416Zm26.88,1.312a2.163,2.163,0,0,1-.672,1.824,2.564,2.564,0,0,1-1.6.512,1.184,1.184,0,0,1-.9-.416q-.384-.416-.8-.9a7.791,7.791,0,0,0-.576-.64q-.32-.32-.48-.512a9.351,9.351,0,0,0-.8-.832q-.48-.448-.864-.768a8.545,8.545,0,0,0-1.824-1.2,9.9,9.9,0,0,0-2.048-.72q.064,3.2.24,6.416t.176,6.448a3.7,3.7,0,0,1-.208,1.12,3.343,3.343,0,0,1-.608,1.12,1.226,1.226,0,0,1-.976.48,1.173,1.173,0,0,1-.768-.336,3.86,3.86,0,0,1-.672-.768,4.271,4.271,0,0,1-.416-.752,5.2,5.2,0,0,1-.24-.992,7.257,7.257,0,0,1-.08-1.056,9.34,9.34,0,0,1,.224-2.032,16.575,16.575,0,0,0,.32-2q.256-3.264.288-6.56t.032-6.56a13.968,13.968,0,0,0-.1-1.6,4.365,4.365,0,0,0-.464-1.536,2.169,2.169,0,0,0-1.2-1.024,1.929,1.929,0,0,1,.656-.7,1.567,1.567,0,0,1,.88-.32,5.358,5.358,0,0,1,1.808.352,4.6,4.6,0,0,1,1.68,1.04,2.223,2.223,0,0,1,.7,1.648,1.246,1.246,0,0,1-.064.448q-.064.16-.192.416a9.329,9.329,0,0,0-.88,3.088q-.144,1.52-.176,3.248a11.012,11.012,0,0,1,1.424-.1h1.392a14.351,14.351,0,0,1,2.96.32,9.1,9.1,0,0,1,2.768,1.056,5.67,5.67,0,0,1,1.392,1.136A2.377,2.377,0,0,1,89.024,26.728Zm36.928-8.32a3.347,3.347,0,0,1-.192.544,23.362,23.362,0,0,1-3.9,6.576,31.859,31.859,0,0,1-5.744,5.36,34.921,34.921,0,0,1-6.7,3.84q-.256.128-.528.256a5.063,5.063,0,0,0-.528.288l-.384.3a.725.725,0,0,1-.448.176,1.683,1.683,0,0,1-1.056-.448,5.256,5.256,0,0,1-.992-1.1,7.045,7.045,0,0,1-.72-1.328,3.169,3.169,0,0,1-.272-1.152.521.521,0,0,1,.208-.352,2.049,2.049,0,0,0,.4-.56,2.2,2.2,0,0,0,.192-1.008V23.544q0-.56-.032-1.1t-.016-1.12a5.543,5.543,0,0,0-.08-1.12,3.232,3.232,0,0,0-.992-1.92,3.439,3.439,0,0,0-1.92-.96,7.882,7.882,0,0,1,1.248-1.168,2.549,2.549,0,0,1,1.568-.592,2.961,2.961,0,0,1,1.072.272,9.291,9.291,0,0,1,1.328.688,5.143,5.143,0,0,1,1.12.912,1.478,1.478,0,0,1,.448.976.942.942,0,0,1-.352.768q-.064.512-.08,1.024t-.048,1.024q-.128,2.112-.24,4.208t-.112,4.208a1.207,1.207,0,0,0,.16.624.611.611,0,0,0,.576.272,3,3,0,0,0,.864-.176q.544-.176,1.1-.384t.848-.336a33.787,33.787,0,0,0,3.856-2.1,45.486,45.486,0,0,0,3.872-2.72,37.24,37.24,0,0,0,3.536-3.136,24.481,24.481,0,0,0,2.816-3.376Zm32.192,7.008a1.048,1.048,0,0,1-.416.928,2.261,2.261,0,0,1-.992.368,7.724,7.724,0,0,1-1.056.08q-1.44,0-2.88-.032t-2.88-.032q-2.4,0-4.816.064t-4.816.192q-1.184.064-2.384.208t-2.384.3a4.816,4.816,0,0,0-.8.128,3.286,3.286,0,0,1-.8.1,6.677,6.677,0,0,1-1.712-.224,3.046,3.046,0,0,1-1.408-.784,2.188,2.188,0,0,1-.56-1.616,2.816,2.816,0,0,1,.224-.992,1.311,1.311,0,0,1,.64-.768,2.875,2.875,0,0,0,1.552,1.136,6.385,6.385,0,0,0,1.9.3q2.528,0,5.056-.16t5.024-.416q1.28-.16,2.56-.3a22.34,22.34,0,0,0,2.528-.432q.192-.064.752-.208t1.088-.288a5.169,5.169,0,0,1,.592-.144,16.891,16.891,0,0,1,2.272.176,5.7,5.7,0,0,1,2.144.688,3.911,3.911,0,0,1,.624.416,4.143,4.143,0,0,1,.656.64A1.082,1.082,0,0,1,158.144,25.416Zm29.408,8.256a3.39,3.39,0,0,1-.528,1.792,1.736,1.736,0,0,1-1.584.864,2.3,2.3,0,0,1-1.568-.56,2.967,2.967,0,0,1-.9-1.424q-.192-.608-.352-1.184a6.415,6.415,0,0,0-.448-1.152,8.7,8.7,0,0,0-1.072-1.792,11.218,11.218,0,0,0-1.6-1.728,4.331,4.331,0,0,0-1.776-.992,23.225,23.225,0,0,1-5.28,5.616,21.44,21.44,0,0,1-6.944,3.344q-.832.224-1.76.416a8.988,8.988,0,0,1-1.824.192L161.856,37a20.568,20.568,0,0,0,2.864-1.168,26.063,26.063,0,0,0,3.264-1.9,18.229,18.229,0,0,0,2.96-2.5,32.608,32.608,0,0,0,4.128-5.344,28.145,28.145,0,0,0,2.88-6.08q.1-.352.272-.912a3.152,3.152,0,0,0,.176-.88.424.424,0,0,0-.336-.448,2.191,2.191,0,0,0-.592-.1,4.733,4.733,0,0,0-1.488.32,16.469,16.469,0,0,0-1.9.816q-.992.5-1.84,1.008a13.428,13.428,0,0,0-1.3.864q-.064.064-.16.144a2.248,2.248,0,0,1-.192.144.917.917,0,0,1-.416.1,1.8,1.8,0,0,1-.464-.064,3.4,3.4,0,0,1-.464-.16,4.685,4.685,0,0,1-1.7-1.3,2.989,2.989,0,0,1-.7-1.968,2.839,2.839,0,0,1,.032-.432,1.348,1.348,0,0,1,.128-.4,2.219,2.219,0,0,0,.976.688,3.265,3.265,0,0,0,1.168.24,14.517,14.517,0,0,0,3.2-.384q1.7-.384,3.168-.8a16.752,16.752,0,0,0,2.912-1.216,3.167,3.167,0,0,1,.432-.208,1.284,1.284,0,0,1,.464-.08,6.758,6.758,0,0,1,1.952.288,5.449,5.449,0,0,1,2.08,1.088,1.215,1.215,0,0,1,.48.928,1.642,1.642,0,0,1-.528,1.152,7.375,7.375,0,0,1-.976.864,32.2,32.2,0,0,1-2.016,4.08q-1.152,1.968-2.464,3.856a14.584,14.584,0,0,1,4.7.848,8.262,8.262,0,0,1,3.84,2.8,6.3,6.3,0,0,1,.784,1.3A3.508,3.508,0,0,1,187.552,33.672ZM214.208,23.5H211.52v7.456h.608q.288,0,.608-.032a1.97,1.97,0,0,0,.608-.16,1.113,1.113,0,0,0,.624-.672,3.6,3.6,0,0,0,.208-1.04q.032-.56.032-.944Zm-10.272-5.6a.988.988,0,0,1-.48.96,2.345,2.345,0,0,1-1.12.256H200.48V22.5q.64-.256,1.216-.512a14.528,14.528,0,0,0,.72,2.64q.5,1.328,1.072,2.544a.253.253,0,0,1,.032.16.283.283,0,0,1-.32.32,1.2,1.2,0,0,1-.624-.3,7.354,7.354,0,0,1-.832-.752q-.432-.448-.768-.848l-.5-.592V39.176H197.6V24.552a19.247,19.247,0,0,1-1.9,3.872,14.3,14.3,0,0,1-2.928,3.2.307.307,0,0,1-.224.1.113.113,0,0,1-.128-.128l.032-.128a3.316,3.316,0,0,1,.224-.432q.128-.208.256-.432.256-.544.5-1.072t.464-1.04a44.689,44.689,0,0,0,1.6-4.624,45.689,45.689,0,0,0,1.088-4.752h-3.232V17.928H197.6v-6.88h2.88v6.88h.832a1.3,1.3,0,0,1,.384-.96,1.312,1.312,0,0,1,2.24.928ZM216.8,27.912a7.054,7.054,0,0,1-.4,2.688,2.217,2.217,0,0,1-1.376,1.264,8.62,8.62,0,0,1-2.7.336h-1.648q-.848,0-1.68-.032V22.28H216.8Zm4.544,5.792a14.088,14.088,0,0,1-.112,1.712,7.075,7.075,0,0,1-.432,1.728,3.241,3.241,0,0,1-.96,1.344,2.53,2.53,0,0,1-1.664.528,3.7,3.7,0,0,1-1.648-.464,10.536,10.536,0,0,1-1.728-1.1q-.816-.64-1.36-1.12a.289.289,0,0,1-.16-.256.141.141,0,0,1,.16-.16.223.223,0,0,1,.1.016.142.142,0,0,0,.064.016q.7.256,1.424.48a4.98,4.98,0,0,0,1.488.224,1.357,1.357,0,0,0,1.264-.608,3.528,3.528,0,0,0,.464-1.44,13.014,13.014,0,0,0,.1-1.472V14.28H207.264V38.6H204.48V12.936h16.864Zm-4-15.584a1.311,1.311,0,0,1-1.312,1.312q-1.888,0-3.776-.016T208.48,19.4V18.184h6.24a1.311,1.311,0,0,1,1.312-1.312,1.324,1.324,0,0,1,.928.352A1.162,1.162,0,0,1,217.344,18.12Zm37.44,18.112a1.671,1.671,0,0,1-.512,1.28,1.842,1.842,0,0,1-1.312.48H226.112v-1.44H238.56V28.776H231.2V27.432h7.36V20.456h-6.24a19.591,19.591,0,0,1-1.5,2.24,27.419,27.419,0,0,1-1.984,2.32,17.951,17.951,0,0,1-2.016,1.84q-.128.1-.24.176a.456.456,0,0,1-.272.08.226.226,0,0,1-.256-.256,1.855,1.855,0,0,1,.256-.64q.256-.48.528-.976t.368-.688q.8-1.632,1.536-3.536t1.312-3.856a26.5,26.5,0,0,0,.832-3.744l3.392,1.024a1.044,1.044,0,0,1,.3.112.258.258,0,0,1,.144.24,2.724,2.724,0,0,1-.208.784q-.208.56-.5,1.248t-.544,1.28q-.256.592-.384.848h5.472V10.728h3.168v8.224h7.04a2.208,2.208,0,0,1,.48-1.408,1.581,1.581,0,0,1,1.312-.608,1.8,1.8,0,0,1,1.792,1.792,1.548,1.548,0,0,1-.576,1.248,1.993,1.993,0,0,1-1.312.48h-8.736v6.976h5.184a2.307,2.307,0,0,1,.416-1.36,1.458,1.458,0,0,1,1.28-.592,1.626,1.626,0,0,1,1.184.512,1.661,1.661,0,0,1,.512,1.216,1.316,1.316,0,0,1-.576,1.2,2.384,2.384,0,0,1-1.312.368h-6.688v7.776h9.344a.549.549,0,0,1-.032-.224,2.126,2.126,0,0,1,.544-1.408,1.7,1.7,0,0,1,1.344-.64,1.725,1.725,0,0,1,1.328.576A1.966,1.966,0,0,1,254.784,36.232Zm13.7-13.12q-.288.672-.528,1.36t-.5,1.392q-.576,1.6-1.152,3.584a13.258,13.258,0,0,0-.576,3.68,8.362,8.362,0,0,0,.32,2.368,1.129,1.129,0,0,1,.1.448,1.805,1.805,0,0,1-.384,1.136,1.3,1.3,0,0,1-1.088.5,1.64,1.64,0,0,1-1.232-.624,11.47,11.47,0,0,1-.912-1.136,7.961,7.961,0,0,1-1.168-3.024,18.6,18.6,0,0,1-.3-3.248,23.466,23.466,0,0,1,.7-5.744q.7-2.8,1.376-5.616a7.376,7.376,0,0,0,.224-1.856,6.014,6.014,0,0,0-.256-1.68,5.6,5.6,0,0,0-.7-1.552l.032-.032h.064a2.1,2.1,0,0,1,.864.272,11.957,11.957,0,0,1,1.072.608,4.672,4.672,0,0,1,.752.56,5.622,5.622,0,0,1,1.232,1.536,3.842,3.842,0,0,1,.5,1.888,3.457,3.457,0,0,1-.432,1.664q-.432.8-.784,1.568-.48,1.024-1.056,2.5t-.992,2.944a9.778,9.778,0,0,0-.416,2.624q0,.192.048.624a2.914,2.914,0,0,0,.192.784.469.469,0,0,0,.432.352.522.522,0,0,0,.48-.272q.16-.272.288-.5l.624-1.248q.3-.608.624-1.216.608-1.184,1.184-2.368t1.184-2.368ZM283.936,33a1.509,1.509,0,0,1-.656,1.28,4.8,4.8,0,0,1-1.632.736,12.583,12.583,0,0,1-1.92.352q-.944.1-1.52.1a9.713,9.713,0,0,1-4.992-1.168,6.141,6.141,0,0,1-2.656-4.272,4.344,4.344,0,0,1-.08-.624q-.016-.3-.016-.624,0-.128.1-.128a.085.085,0,0,1,.1.1q.1.352.24.752a3.783,3.783,0,0,0,.368.752,4.7,4.7,0,0,0,1.632,1.36,4.31,4.31,0,0,0,2.048.592,19.459,19.459,0,0,0,1.968-.1,9.4,9.4,0,0,0,1.936-.416q.288-.1.56-.208t.56-.208a2.416,2.416,0,0,1,.768-.128,7.049,7.049,0,0,1,1.344.144,3.426,3.426,0,0,1,1.3.528A1.336,1.336,0,0,1,283.936,33Zm-2.272-14.688a1.136,1.136,0,0,1-.688,1.12,7.439,7.439,0,0,1-1.328.48,15.261,15.261,0,0,0-3.2,1.248,24.514,24.514,0,0,0-2.944,1.792l-.128-.1a10.039,10.039,0,0,1,.992-1.232q.608-.656,1.216-1.2a16.982,16.982,0,0,1-2.176-.672,4.093,4.093,0,0,1-1.792-1.312q-.128-.192-.256-.416a1.261,1.261,0,0,1-.16-.448,8.849,8.849,0,0,0,1.136.3,5.856,5.856,0,0,0,1.168.144,8.581,8.581,0,0,0,2.384-.336,10.954,10.954,0,0,0,2.224-.912,3.714,3.714,0,0,1,.464-.224,1.324,1.324,0,0,1,.5-.1,2.508,2.508,0,0,1,.88.208,5.862,5.862,0,0,1,.848.4,3.541,3.541,0,0,1,.64.48A1.066,1.066,0,0,1,281.664,18.312Zm17.92,4.384a.368.368,0,0,1-.416.416.6.6,0,0,1-.384-.128,4.443,4.443,0,0,1-.672-.608q-.32-.352-.64-.672-.64-.64-1.28-1.3t-1.28-1.328q.16-.1.624-.3t.992-.464q.528-.256.96-.432a2.065,2.065,0,0,1,.56-.176.673.673,0,0,1,.48.224,2.461,2.461,0,0,1,.272.752q.176.656.352,1.52t.3,1.584A7.269,7.269,0,0,1,299.584,22.7Zm18.72.832a1.743,1.743,0,0,1-.5,1.232,1.622,1.622,0,0,1-1.232.528H305.5V38.952h-3.1V28.04A32.232,32.232,0,0,1,298.24,33a25.267,25.267,0,0,1-5.184,3.872q-.224.128-.912.448t-1.344.608a2.872,2.872,0,0,1-.88.288.394.394,0,0,1-.176-.064.186.186,0,0,1-.112-.16q0-.16.272-.384t.576-.432q.3-.208.432-.3a32.663,32.663,0,0,0,5.328-5.264,31.654,31.654,0,0,0,4.016-6.32h-9.344v-1.44H302.4v-7.36h-9.248V15.08H302.4V10.632h3.1V15.08H312a2.359,2.359,0,0,1,.416-1.392,1.458,1.458,0,0,1,1.28-.592,1.748,1.748,0,0,1,1.76,1.76,1.471,1.471,0,0,1-.544,1.168,1.827,1.827,0,0,1-1.216.464H305.5v7.36h9.248a.356.356,0,0,1-.032-.16v-.16a1.728,1.728,0,0,1,.56-1.28,1.8,1.8,0,0,1,1.3-.544,1.6,1.6,0,0,1,1.232.544A1.838,1.838,0,0,1,318.3,23.528ZM319.36,36.36a1.094,1.094,0,0,1-.464.88,1.511,1.511,0,0,1-.944.368,6.213,6.213,0,0,1-2.5-.576,13.332,13.332,0,0,1-2.48-1.424,18.975,18.975,0,0,1-2-1.648,25.947,25.947,0,0,1-2.7-3.024,25.384,25.384,0,0,1-2.192-3.408l3.1-1.44a29.592,29.592,0,0,0,1.9,3.824,28.186,28.186,0,0,0,2.624,3.76,16.05,16.05,0,0,0,3.088,2.912,1.476,1.476,0,0,1-.048-.176.9.9,0,0,1-.016-.176,1.106,1.106,0,0,1,.432-.9,1.463,1.463,0,0,1,.944-.352,1.122,1.122,0,0,1,.9.416A1.443,1.443,0,0,1,319.36,36.36Zm-6.24-17.152a.369.369,0,0,1-.128.256,10.862,10.862,0,0,1-.9.8q-.48.384-.928.768-.608.48-1.184,1.008a11.879,11.879,0,0,1-1.216.976.9.9,0,0,1-.544.224.311.311,0,0,1-.352-.352,4.081,4.081,0,0,1,.16-.56q.16-.5.4-1.2t.5-1.424q.256-.72.448-1.232t.224-.608q.128-.192.256-.192a2.935,2.935,0,0,1,.64.176q.512.176,1.12.448t1.056.512Q313.12,19.048,313.12,19.208ZM343.9,12.872h-7.36v3.84h4.032a1.142,1.142,0,0,1,.368-.768,1.112,1.112,0,0,1,1.872.8,1,1,0,0,1-.384.8,1.315,1.315,0,0,1-.864.32h-5.024v3.36H341.7a1.966,1.966,0,0,0,2.208-2.24ZM332.672,27.816a.524.524,0,0,1-.192.32,10.063,10.063,0,0,1-1.152,1.024q-.736.576-1.5,1.088t-1.312.864a32.948,32.948,0,0,1-3.008,1.5q-1.536.672-3.1,1.248l-1.76-2.784q1.216-.288,2.384-.608t2.352-.672V20.584H321.44V19.432h3.936V11.4h3.04v8.032h1.28a.223.223,0,0,0-.016-.1.142.142,0,0,1-.016-.064,1.372,1.372,0,0,1,.416-.976,1.3,1.3,0,0,1,.96-.432,1.481,1.481,0,0,1,1.408,1.408,1.139,1.139,0,0,1-.48.944,1.653,1.653,0,0,1-1.024.368h-2.528V29l.8-.272q.608-.208,1.344-.464t1.28-.448a4.418,4.418,0,0,1,.608-.192Q332.672,27.624,332.672,27.816Zm13.888,2.24a10.166,10.166,0,0,1-1.568,2.224,23.322,23.322,0,0,1-2.208,2.144,27.378,27.378,0,0,1-2.208,1.712,17.584,17.584,0,0,1-3.1,1.744,21.447,21.447,0,0,1-3.392,1.1,1.289,1.289,0,0,1-.512.1q-.064,0-.208-.016t-.144-.144a.27.27,0,0,1,.16-.224q.16-.1.224-.128a25.914,25.914,0,0,0,2.768-1.792,31.677,31.677,0,0,0,2.9-2.4,28.8,28.8,0,0,0,2.56-2.7,12.634,12.634,0,0,0,1.76-2.7q.736.32,1.488.576T346.56,30.056Zm4.64-6.464a1.38,1.38,0,0,1-.512,1.1,1.74,1.74,0,0,1-1.152.432h-9.568q-.416.576-.864,1.152a11.665,11.665,0,0,1-.96,1.088h11.52q-.032,1.92-.176,3.84a35.079,35.079,0,0,1-.5,3.808,11.887,11.887,0,0,1-.64,2.16,5.558,5.558,0,0,1-1.232,1.92,2.791,2.791,0,0,1-2.064.784,2.567,2.567,0,0,1-1.28-.448,9.269,9.269,0,0,1-1.392-1.04,11.074,11.074,0,0,1-1.008-1.008q-.064-.1-.128-.176a.323.323,0,0,1-.064-.208q0-.1.128-.1a.468.468,0,0,1,.288.1,6.239,6.239,0,0,0,1.1.4,4.672,4.672,0,0,0,1.168.144,1.7,1.7,0,0,0,1.28-.464,3.086,3.086,0,0,0,.688-1.168,7.733,7.733,0,0,0,.336-1.344,40.612,40.612,0,0,0,.576-6.048h-6.56a4.786,4.786,0,0,1,.672.3q.32.176.64.336a14.018,14.018,0,0,1-3.008,3.3,25.446,25.446,0,0,1-3.712,2.528q-.64.352-1.5.768a15.629,15.629,0,0,1-1.76.72,11.007,11.007,0,0,1-1.632.432,1.006,1.006,0,0,0-.16.016,1,1,0,0,1-.16.016,1.1,1.1,0,0,1-.208-.032q-.144-.032-.144-.128t.144-.192a2.271,2.271,0,0,1,.208-.128,30.17,30.17,0,0,0,3.12-1.968,22.536,22.536,0,0,0,2.768-2.352q.832-.832,1.664-1.728a13.643,13.643,0,0,0,1.472-1.888h-1.664a28.8,28.8,0,0,1-2.24,1.856,24.054,24.054,0,0,1-2.7,1.776,11,11,0,0,1-2.64,1.1,1.263,1.263,0,0,1-.192.048,1.166,1.166,0,0,1-.192.016,1.348,1.348,0,0,1-.224-.032q-.16-.032-.16-.128a.277.277,0,0,1,.128-.224,1.871,1.871,0,0,0,.192-.16,25.235,25.235,0,0,0,3.968-3.392,18.263,18.263,0,0,0,3.008-4.256h-5.408V23.976h17.664a1.265,1.265,0,0,1-.048-.192,1.168,1.168,0,0,1-.016-.192,1.561,1.561,0,0,1,.464-1.12,1.51,1.51,0,0,1,2.208,0A1.561,1.561,0,0,1,351.2,23.592Zm-4.256-5.472a5.4,5.4,0,0,1-.56,2.768,2.661,2.661,0,0,1-1.68,1.2,11.386,11.386,0,0,1-2.784.288h-8.16V11.72h13.152q0,1.6.016,3.2T346.944,18.12ZM379.2,27.88a12.113,12.113,0,0,1-2.032,4.9,11.592,11.592,0,0,1-3.872,3.5,10.351,10.351,0,0,1-5.136,1.3,6.961,6.961,0,0,1-5.3-1.968,8.208,8.208,0,0,1-2.1-5.3q-.032-.48-.048-.96t-.016-.96q0-2.752.192-5.536t.192-5.536q0-.512-.048-1.152a4.2,4.2,0,0,0-.272-1.216,1.679,1.679,0,0,0-.7-.864,1.6,1.6,0,0,0-.592-.24q-.368-.08-.624-.112a1.591,1.591,0,0,1,.752-.576,5.408,5.408,0,0,1,1.136-.336,5.714,5.714,0,0,1,.992-.112,2.614,2.614,0,0,1,1.776.656,4.5,4.5,0,0,1,1.168,1.6,4.614,4.614,0,0,1,.416,1.872,2.332,2.332,0,0,1-.032.384l-.064.384q-.192,1.12-.432,2.256t-.432,2.256q-.288,1.792-.464,3.616t-.176,3.648a4.889,4.889,0,0,0,1.408,3.808,5.542,5.542,0,0,0,3.872,1.28,10.824,10.824,0,0,0,4.208-.848,12.175,12.175,0,0,0,3.632-2.336,11.265,11.265,0,0,0,2.528-3.44Zm17.376-.288a1.38,1.38,0,0,1-.016.224,1.262,1.262,0,0,1-.048.192,12.776,12.776,0,0,1-.912,2.384q-.656,1.36-1.44,2.656a16.741,16.741,0,0,1-1.488,2.128q-.224.224-.448.432t-.448.432l-.08.08a.2.2,0,0,1-.144.048q-.288,0-.288-.256a.142.142,0,0,1,.016-.064.142.142,0,0,0,.016-.064,29.149,29.149,0,0,0,.864-2.848q.416-1.632.72-3.3a19.224,19.224,0,0,0,.336-2.912l2.88.288Q396.576,27.048,396.576,27.592Zm16.192-12.256a1.4,1.4,0,0,1-.672,1.28,2.688,2.688,0,0,1-1.44.416H391.68V18.92a60.332,60.332,0,0,1-.288,6.512,29.981,29.981,0,0,1-1.344,6.384,19.577,19.577,0,0,1-1.04,2.528,20.044,20.044,0,0,1-1.5,2.576,11.807,11.807,0,0,1-1.808,2.1,2.554,2.554,0,0,1-.3.256.617.617,0,0,1-.368.128.141.141,0,0,1-.16-.16.617.617,0,0,1,.08-.3q.08-.144.144-.272a15.8,15.8,0,0,0,1.68-3.76,31.43,31.43,0,0,0,1.008-4.352q.352-2.224.48-4.144.192-2.688.176-5.392t-.016-5.392h10.656l-.832-5.28,4,.32a1.184,1.184,0,0,1,.5.16.483.483,0,0,1,.208.448,2.575,2.575,0,0,1-.256.816q-.256.592-.592,1.312t-.656,1.344q-.32.624-.48.88h8.32a.527.527,0,0,0-.016-.128.525.525,0,0,1-.016-.128,1.824,1.824,0,0,1,.512-1.264,1.594,1.594,0,0,1,1.216-.56,1.862,1.862,0,0,1,1.792,1.792Zm2.08,18.656a1.652,1.652,0,0,1-.384,1.056,3.708,3.708,0,0,1-.912.816q-.528.336-1.008.592a21.572,21.572,0,0,1-3.3,1.392,11.481,11.481,0,0,1-3.552.528,15.535,15.535,0,0,1-2.512-.224,10.176,10.176,0,0,1-2.56-.768,5.389,5.389,0,0,1-1.984-1.5,3.67,3.67,0,0,1-.784-2.4V22.28h3.168V23.5q.032,1.76-.016,3.5t-.048,3.5v1.632q.1,2.56,1.312,3.5a5.893,5.893,0,0,0,3.648.944,22.083,22.083,0,0,0,3.424-.256,11.837,11.837,0,0,0,3.3-1.056,1.807,1.807,0,0,1-.56-.544,1.287,1.287,0,0,1-.24-.736,1.322,1.322,0,0,1,.464-1.024,1.519,1.519,0,0,1,1.04-.416,1.5,1.5,0,0,1,1.056.416A1.342,1.342,0,0,1,414.848,33.992Zm-6.912-13.536a2.763,2.763,0,0,1-.416,1.04,18.364,18.364,0,0,1-1.072,1.68q-.656.928-1.36,1.792t-1.28,1.44q-.576.576-.864.576-.192,0-.192-.256a2.475,2.475,0,0,1,.112-.56q.112-.4.24-.848t.16-.64q.32-1.344.64-2.72a20.531,20.531,0,0,0,.448-2.752q.832.16,1.6.368t1.568.432a.652.652,0,0,1,.32.112A.435.435,0,0,1,407.936,20.456Zm6.048,3.392q0,.288-.656.992a22.769,22.769,0,0,1-1.664,1.584q-1.008.88-2.1,1.712a22.818,22.818,0,0,1-1.984,1.376,3.067,3.067,0,0,1-1.28.544.516.516,0,0,1-.224-.064.205.205,0,0,1-.128-.192.351.351,0,0,1,.128-.224,33.472,33.472,0,0,0,2.544-3.472,19.075,19.075,0,0,0,1.9-3.824q.8.256,1.632.528a7.729,7.729,0,0,1,1.536.688Q413.984,23.624,413.984,23.848ZM437.952,31.3a20.3,20.3,0,0,1-2.224-1.808q-1.04-.976-2-2.032h-4.416a27.032,27.032,0,0,1-2.3,2.112,18.8,18.8,0,0,1-2.56,1.76h2.976q.8,0,1.6-.032a8.091,8.091,0,0,0,.4-1.312q.144-.672.272-1.344l3.136.576q-.1.512-.224,1.056a4.218,4.218,0,0,1-.384,1.024Zm0-12.992h-12.64V20.1h8.864a1.281,1.281,0,0,1,.4-.656,1.09,1.09,0,0,1,1.808.816.907.907,0,0,1-.4.848,1.8,1.8,0,0,1-.944.24h-9.728v1.7h10.816a2.479,2.479,0,0,0,1.28-.32,1.191,1.191,0,0,0,.544-1.12Zm9.536,14.912a1.519,1.519,0,0,1-.416,1.04,1.289,1.289,0,0,1-.992.464A7.8,7.8,0,0,1,443.7,34.3a17.5,17.5,0,0,1-2.576-1.072,21.711,21.711,0,0,1-2.112-1.216q-.128.8-.224,1.632a10.512,10.512,0,0,1-.32,1.632,9.257,9.257,0,0,1-.848,2.144,4.969,4.969,0,0,1-1.44,1.664,3.628,3.628,0,0,1-2.192.64,2.645,2.645,0,0,1-1.536-.544,8.449,8.449,0,0,1-1.424-1.28q-.656-.736-1.1-1.28a.217.217,0,0,1-.064-.16q0-.064.1-.064a.491.491,0,0,1,.192.064,7.917,7.917,0,0,0,1.648.56,8.846,8.846,0,0,0,1.712.144,1.416,1.416,0,0,0,1.072-.384,2.705,2.705,0,0,0,.576-.944,9.28,9.28,0,0,0,.336-1.1,10.035,10.035,0,0,0,.256-1.088q.1-.544.16-1.088H431.84a10.32,10.32,0,0,1-2.4,3.552,10.88,10.88,0,0,1-3.36,2.144,22.816,22.816,0,0,1-4.128,1.216.971.971,0,0,1-.288.032.786.786,0,0,1-.288-.064.227.227,0,0,1-.16-.224.308.308,0,0,1,.16-.3l.288-.144.768-.32q.384-.16.768-.352a14.358,14.358,0,0,0,3.28-2.256,8.2,8.2,0,0,0,2.192-3.28h-5.28V32.04q-.448.224-1.328.64t-1.872.832q-.992.416-1.872.7a4.733,4.733,0,0,1-1.328.288.945.945,0,0,1-.256-.048q-.16-.048-.16-.176,0-.16.272-.336a4.446,4.446,0,0,1,.592-.32q.32-.144.448-.208a39.194,39.194,0,0,0,4.24-2.576,19.161,19.161,0,0,0,3.632-3.376h-7.552v-1.28h8.544a8.977,8.977,0,0,0,.64-.928l.576-.96H422.56V17.032h18.56v3.712a3.523,3.523,0,0,1-.64,2.32,3.048,3.048,0,0,1-1.712.992,10.933,10.933,0,0,1-2.384.24h-4.576a8.545,8.545,0,0,1-.64.976q-.352.464-.7.912H443.04q-.032-.128-.048-.224a1.38,1.38,0,0,1-.016-.224,1.649,1.649,0,0,1,.544-1.248,1.8,1.8,0,0,1,2.512,0,1.673,1.673,0,0,1,.528,1.248,1.444,1.444,0,0,1-.624,1.36,2.944,2.944,0,0,1-1.52.368h-6.848a18.744,18.744,0,0,0,2.016,2.208A21.932,21.932,0,0,0,442.1,31.72a19.232,19.232,0,0,0,2.576,1.536,1.552,1.552,0,0,1,.4-1.04,1.274,1.274,0,0,1,1.008-.464,1.308,1.308,0,0,1,.992.448A1.463,1.463,0,0,1,447.488,33.224Zm-2.24-20.352a1.62,1.62,0,0,1-.5,1.216,1.7,1.7,0,0,1-1.232.48h-7.36q-.16.224-.544.72a11.256,11.256,0,0,1-.784.912q-.4.416-.656.416a.28.28,0,0,1-.272-.16.71.71,0,0,1-.08-.32,4.958,4.958,0,0,1,.064-.784q.064-.4.1-.784h-4.832l.128,1.568-3.008.192-.16-1.76h-7.328v-1.28h7.2L425.7,10.44l3.136-.224.256,3.072h5.024q.064-.8.16-1.6t.128-1.6q.832.128,1.664.224t1.632.256a.742.742,0,0,1,.336.1q.08.064.08.352a2.023,2.023,0,0,1-.224.64q-.224.48-.48.96t-.384.672h4.8a1.8,1.8,0,0,1-.064-.416,1.524,1.524,0,0,1,.528-1.2,1.808,1.808,0,0,1,1.232-.464,1.718,1.718,0,0,1,1.216.48A1.559,1.559,0,0,1,445.248,12.872ZM460.8,24.488a2,2,0,0,1-.56,1.5,2.088,2.088,0,0,1-1.52.544.957.957,0,0,1-.656-.24,2.7,2.7,0,0,1-.464-.528,4.458,4.458,0,0,1-.368-.7,4.933,4.933,0,0,0-.336-.672,5.855,5.855,0,0,0-1.472-1.728,22.485,22.485,0,0,0-1.888-1.312,3.891,3.891,0,0,1,.992-.192q.512-.032,1.024-.032a7.848,7.848,0,0,1,1.632.192,8.222,8.222,0,0,1,1.728.576,3.787,3.787,0,0,1,1.36,1.024A2.383,2.383,0,0,1,460.8,24.488Zm16.544-5.44a6.7,6.7,0,0,1-.544,1.328q-.416.816-.928,1.712t-.976,1.648q-.464.752-.72,1.136a28.219,28.219,0,0,1-6.64,6.928,40.285,40.285,0,0,1-8.432,4.656q-.224.1-.5.208a1.458,1.458,0,0,1-.56.112,4.211,4.211,0,0,1-1.936-.464,3.721,3.721,0,0,1-1.456-1.3,3.429,3.429,0,0,1-.544-1.92,3.845,3.845,0,0,1,.08-.752,4.113,4.113,0,0,1,.208-.72,3.749,3.749,0,0,0,.976.992,2.206,2.206,0,0,0,1.3.416,8.15,8.15,0,0,0,2.848-.608,26.092,26.092,0,0,0,3.264-1.52q1.664-.912,3.168-1.872t2.528-1.664a36.275,36.275,0,0,0,7.68-7.072q.256-.288.544-.672t.512-.672Zm-13.536-1.7a2.318,2.318,0,0,1-.576,1.584,1.943,1.943,0,0,1-1.536.656,1.29,1.29,0,0,1-.864-.272,2.858,2.858,0,0,1-.576-.688A7.231,7.231,0,0,0,459.04,17a7.318,7.318,0,0,0-1.536-1.2q-.928-.56-1.728-.976a3.939,3.939,0,0,1,1.376-.368q.8-.08,1.44-.08a10.209,10.209,0,0,1,1.728.16,7.031,7.031,0,0,1,1.76.544,3.142,3.142,0,0,1,1.312,1.088A2,2,0,0,1,463.808,17.352Zm46.336,8.064a1.048,1.048,0,0,1-.416.928,2.261,2.261,0,0,1-.992.368,7.724,7.724,0,0,1-1.056.08q-1.44,0-2.88-.032t-2.88-.032q-2.4,0-4.816.064t-4.816.192q-1.184.064-2.384.208t-2.384.3a4.817,4.817,0,0,0-.8.128,3.287,3.287,0,0,1-.8.1,6.677,6.677,0,0,1-1.712-.224,3.046,3.046,0,0,1-1.408-.784,2.188,2.188,0,0,1-.56-1.616,2.817,2.817,0,0,1,.224-.992,1.311,1.311,0,0,1,.64-.768,2.875,2.875,0,0,0,1.552,1.136,6.385,6.385,0,0,0,1.9.3q2.528,0,5.056-.16t5.024-.416q1.28-.16,2.56-.3a22.34,22.34,0,0,0,2.528-.432q.192-.064.752-.208t1.088-.288a5.17,5.17,0,0,1,.592-.144,16.89,16.89,0,0,1,2.272.176,5.7,5.7,0,0,1,2.144.688,3.911,3.911,0,0,1,.624.416,4.142,4.142,0,0,1,.656.64A1.082,1.082,0,0,1,510.144,25.416Zm26.88,1.312a2.163,2.163,0,0,1-.672,1.824,2.564,2.564,0,0,1-1.6.512,1.184,1.184,0,0,1-.9-.416q-.384-.416-.8-.9a7.806,7.806,0,0,0-.576-.64q-.32-.32-.48-.512a9.347,9.347,0,0,0-.8-.832q-.48-.448-.864-.768a8.546,8.546,0,0,0-1.824-1.2,9.9,9.9,0,0,0-2.048-.72q.064,3.2.24,6.416t.176,6.448a3.7,3.7,0,0,1-.208,1.12,3.343,3.343,0,0,1-.608,1.12,1.226,1.226,0,0,1-.976.48,1.173,1.173,0,0,1-.768-.336,3.858,3.858,0,0,1-.672-.768,4.269,4.269,0,0,1-.416-.752,5.2,5.2,0,0,1-.24-.992,7.255,7.255,0,0,1-.08-1.056,9.339,9.339,0,0,1,.224-2.032,16.575,16.575,0,0,0,.32-2q.256-3.264.288-6.56t.032-6.56a13.963,13.963,0,0,0-.1-1.6,4.366,4.366,0,0,0-.464-1.536,2.169,2.169,0,0,0-1.2-1.024,1.929,1.929,0,0,1,.656-.7,1.567,1.567,0,0,1,.88-.32,5.358,5.358,0,0,1,1.808.352,4.6,4.6,0,0,1,1.68,1.04,2.223,2.223,0,0,1,.7,1.648,1.246,1.246,0,0,1-.064.448q-.064.16-.192.416a9.329,9.329,0,0,0-.88,3.088q-.144,1.52-.176,3.248a11.012,11.012,0,0,1,1.424-.1h1.392a14.351,14.351,0,0,1,2.96.32,9.094,9.094,0,0,1,2.768,1.056,5.67,5.67,0,0,1,1.392,1.136A2.377,2.377,0,0,1,537.024,26.728ZM12.48,77.112q-.288.672-.528,1.36t-.5,1.392q-.576,1.6-1.152,3.584a13.258,13.258,0,0,0-.576,3.68,8.363,8.363,0,0,0,.32,2.368,1.129,1.129,0,0,1,.1.448A1.805,1.805,0,0,1,9.76,91.08a1.3,1.3,0,0,1-1.088.5,1.64,1.64,0,0,1-1.232-.624,11.471,11.471,0,0,1-.912-1.136A7.961,7.961,0,0,1,5.36,86.792a18.6,18.6,0,0,1-.3-3.248,23.466,23.466,0,0,1,.7-5.744q.7-2.8,1.376-5.616a7.375,7.375,0,0,0,.224-1.856,6.014,6.014,0,0,0-.256-1.68A5.6,5.6,0,0,0,6.4,67.1l.032-.032H6.5a2.1,2.1,0,0,1,.864.272,11.956,11.956,0,0,1,1.072.608,4.672,4.672,0,0,1,.752.56,5.623,5.623,0,0,1,1.232,1.536,3.842,3.842,0,0,1,.5,1.888,3.457,3.457,0,0,1-.432,1.664q-.432.8-.784,1.568-.48,1.024-1.056,2.5T7.648,80.6a9.778,9.778,0,0,0-.416,2.624q0,.192.048.624a2.912,2.912,0,0,0,.192.784.469.469,0,0,0,.432.352.522.522,0,0,0,.48-.272q.16-.272.288-.5L9.3,82.968q.3-.608.624-1.216.608-1.184,1.184-2.368t1.184-2.368ZM27.936,87a1.509,1.509,0,0,1-.656,1.28,4.8,4.8,0,0,1-1.632.736,12.581,12.581,0,0,1-1.92.352q-.944.1-1.52.1A9.713,9.713,0,0,1,17.216,88.3a6.141,6.141,0,0,1-2.656-4.272,4.346,4.346,0,0,1-.08-.624q-.016-.3-.016-.624,0-.128.1-.128a.085.085,0,0,1,.1.1q.1.352.24.752a3.782,3.782,0,0,0,.368.752,4.7,4.7,0,0,0,1.632,1.36,4.31,4.31,0,0,0,2.048.592,19.46,19.46,0,0,0,1.968-.1,9.406,9.406,0,0,0,1.936-.416q.288-.1.56-.208t.56-.208a2.416,2.416,0,0,1,.768-.128,7.049,7.049,0,0,1,1.344.144,3.426,3.426,0,0,1,1.3.528A1.336,1.336,0,0,1,27.936,87ZM25.664,72.312a1.136,1.136,0,0,1-.688,1.12,7.439,7.439,0,0,1-1.328.48,15.261,15.261,0,0,0-3.2,1.248A24.515,24.515,0,0,0,17.5,76.952l-.128-.1a10.038,10.038,0,0,1,.992-1.232q.608-.656,1.216-1.2a16.979,16.979,0,0,1-2.176-.672,4.093,4.093,0,0,1-1.792-1.312q-.128-.192-.256-.416a1.261,1.261,0,0,1-.16-.448,8.849,8.849,0,0,0,1.136.3,5.857,5.857,0,0,0,1.168.144,8.581,8.581,0,0,0,2.384-.336,10.954,10.954,0,0,0,2.224-.912,3.715,3.715,0,0,1,.464-.224,1.324,1.324,0,0,1,.5-.1,2.508,2.508,0,0,1,.88.208,5.864,5.864,0,0,1,.848.4,3.542,3.542,0,0,1,.64.48A1.066,1.066,0,0,1,25.664,72.312ZM59.68,70.424a1.332,1.332,0,0,1-.416,1.12,1.849,1.849,0,0,1-1.152.32.438.438,0,0,1-.1-.016.526.526,0,0,0-.128-.016q-.416-.064-.784-.128a4.575,4.575,0,0,0-.784-.064,22.588,22.588,0,0,0-2.7.16,7.3,7.3,0,0,0-2.544.8,4.408,4.408,0,0,0-1.7,1.5A8.767,8.767,0,0,0,48.3,76.328a13.6,13.6,0,0,0-.56,2.5,18.374,18.374,0,0,0-.16,2.288,9.87,9.87,0,0,0,.624,3.9A3.662,3.662,0,0,0,50.272,87a10.768,10.768,0,0,0,3.9.576A2.928,2.928,0,0,1,56.992,89.3q.1.192.176.4a1.193,1.193,0,0,1,.08.432,1.071,1.071,0,0,1-.544.992,3.531,3.531,0,0,1-1.248.432,7.9,7.9,0,0,1-1.216.112,13.259,13.259,0,0,1-3.792-.576A8.5,8.5,0,0,1,47.1,89.24a5.469,5.469,0,0,1-1.68-2.7,13.23,13.23,0,0,1-.368-3.184,13.539,13.539,0,0,1,1.52-6.448,25.674,25.674,0,0,1,3.856-5.392,23.959,23.959,0,0,0-4.752,1.7q-2.256,1.088-4.528,2.3a4.135,4.135,0,0,1-.656.32,2.1,2.1,0,0,1-.752.128A3.119,3.119,0,0,1,37.28,74.9a3.7,3.7,0,0,1-.928-2.528,1.927,1.927,0,0,1,.112-.64,4.939,4.939,0,0,1,.24-.576,2.014,2.014,0,0,0,1.136.848,4.688,4.688,0,0,0,1.424.24,16.536,16.536,0,0,0,3.3-.4q1.92-.4,4.016-1.008t3.984-1.28q1.888-.672,3.2-1.184h.416q.544,0,1.44.032a11.242,11.242,0,0,1,1.84.224,4.549,4.549,0,0,1,1.584.608A1.331,1.331,0,0,1,59.68,70.424Zm33.152,7.008a1.428,1.428,0,0,1-.5,1.248,3.049,3.049,0,0,1-1.3.48l-2.048.256q-1.024.128-2.048.32-2.688.512-5.28,1.248.544,1.92,1.184,3.824T84.1,88.632q.16.512.336,1.024a3.226,3.226,0,0,1,.176,1.056,4.3,4.3,0,0,1-.192,1.072,4.457,4.457,0,0,1-.544,1.232,1.019,1.019,0,0,1-.864.544,1.855,1.855,0,0,1-1.344-.528,3.529,3.529,0,0,1-.832-1.264,6.336,6.336,0,0,1-.384-1.408q-.288-2.208-.528-4.416a40.808,40.808,0,0,0-.72-4.384q-1.536.608-3.072,1.248a21.237,21.237,0,0,0-2.944,1.5q-.416.256-.944.56a2.026,2.026,0,0,1-1.008.3,3.312,3.312,0,0,1-1.52-.384,3.665,3.665,0,0,1-1.264-1.056,2.376,2.376,0,0,1-.512-1.472,1.642,1.642,0,0,1,.128-.672,2.794,2.794,0,0,0,.976.56,3.343,3.343,0,0,0,1.1.208A9.253,9.253,0,0,0,71.9,82.1q1.184-.256,2.576-.624t2.608-.736l1.856-.56q-.192-1.088-.464-2.176t-.528-2.176q-.64.224-1.6.5t-1.9.464a8.3,8.3,0,0,1-1.616.192,2.843,2.843,0,0,1-1.568-.56,2.3,2.3,0,0,1-1.024-1.3,4.884,4.884,0,0,0,.96.1,9.255,9.255,0,0,0,2.048-.256q1.12-.256,2.24-.608t1.984-.672a13.856,13.856,0,0,0-.432-1.712,12.916,12.916,0,0,0-.784-1.936,7.683,7.683,0,0,0-1.12-1.68,2.792,2.792,0,0,0-1.472-.912.833.833,0,0,1,.592-.624,3.825,3.825,0,0,1,1.072-.208q.576-.032.928-.032a5.237,5.237,0,0,1,1.344.208,4.1,4.1,0,0,1,1.36.64,1.342,1.342,0,0,1,.592,1.136,5,5,0,0,1-.112,1.04,5.152,5.152,0,0,0-.112,1.072,5.293,5.293,0,0,0,.1,1.008q.1.5.224,1.008a11.649,11.649,0,0,0,1.632-.816q.768-.464,1.5-.976a3.828,3.828,0,0,1,.672-.4,1.777,1.777,0,0,1,.736-.144,3.435,3.435,0,0,1,.72.1,2.25,2.25,0,0,1,.768.32.7.7,0,0,1,.336.608A1.9,1.9,0,0,1,85.68,72.6a3.663,3.663,0,0,1-.976.8,12.943,12.943,0,0,1-2.224,1.072q-1.168.432-2.32.88.256,1.024.528,2.064t.592,2.064a14.1,14.1,0,0,0,2.144-.688q1.152-.464,2.256-1.04a13.375,13.375,0,0,0,1.9-1.184,4.712,4.712,0,0,1,.7-.448,1.781,1.781,0,0,1,.8-.16,9.01,9.01,0,0,1,1.232.1,5.662,5.662,0,0,1,1.2.288,3.721,3.721,0,0,1,.816.4A.845.845,0,0,1,92.832,77.432Zm29.056.064a.9.9,0,0,1-.464.736,2.2,2.2,0,0,1-.816.384q-.512.544-1.328,1.344T117.632,81.5a14.868,14.868,0,0,1-3.392,2.272l-.1-.128q.256-.352.752-1.088t1.024-1.584a18.117,18.117,0,0,0,.9-1.6,2.939,2.939,0,0,0,.368-1.168.591.591,0,0,0-.24-.48.786.786,0,0,0-.5-.192,5.622,5.622,0,0,0-1.584.288,17.989,17.989,0,0,0-1.872.688q-.928.4-1.5.688.672,2.816,1.456,5.584T114.4,90.36a2.431,2.431,0,0,1,.1.4,2.632,2.632,0,0,1,.032.4,2.581,2.581,0,0,1-.224,1.008,2.723,2.723,0,0,1-.624.912,1.318,1.318,0,0,1-.944.384.7.7,0,0,1-.608-.336,2.671,2.671,0,0,1-.32-.624,6.838,6.838,0,0,1-.208-.768q-.08-.384-.144-.768-.224-1.408-.4-2.848t-.432-2.848q-.224-1.376-.464-2.736t-.592-2.7q-1.152.512-2.256,1.136t-2.16,1.36q-.192.128-.368.224a.822.822,0,0,1-.4.1,2.655,2.655,0,0,1-2.032-.8A2.87,2.87,0,0,1,101.6,79.8a.832.832,0,0,1,.032-.256,3.928,3.928,0,0,0,1.984.512,6.656,6.656,0,0,0,1.712-.3q1.072-.3,2.176-.672t1.808-.56q-.224-.864-.5-1.76a17.413,17.413,0,0,0-.624-1.728,3.15,3.15,0,0,0-.7-1.024,1.437,1.437,0,0,0-1.024-.48l-.032-.064a2.178,2.178,0,0,1,.816-.9,2.4,2.4,0,0,1,1.168-.256,3.259,3.259,0,0,1,.944.192,4.328,4.328,0,0,1,1.072.512.918.918,0,0,1,.48.768.065.065,0,0,1-.016.048l-.016.016q-.032.288-.048.56t-.016.56a6.911,6.911,0,0,0,.16,1.472q.16.736.288,1.472,1.024-.352,2.016-.7t1.984-.768a5.28,5.28,0,0,0,.88-.448q.464-.288.848-.512a3.306,3.306,0,0,0,.368-.224.763.763,0,0,1,.4-.064,5.684,5.684,0,0,1,1.536.3,7.6,7.6,0,0,1,1.728.752,2.8,2.8,0,0,1,.656.544A1.086,1.086,0,0,1,121.888,77.5Zm34.88-4.992a29.1,29.1,0,0,1-6.336,9.792,28.677,28.677,0,0,1-5.728,4.448,27.445,27.445,0,0,1-6.688,2.912.549.549,0,0,1-.224.032,1.27,1.27,0,0,1-.576-.128,7.085,7.085,0,0,1-1.344-.736,4.948,4.948,0,0,1-1.184-1.12,2.294,2.294,0,0,1-.48-1.408,4.944,4.944,0,0,1,.128-1.1,4.176,4.176,0,0,1,.384-1.04,7.081,7.081,0,0,0,.8,1.088,1.517,1.517,0,0,0,1.184.544,8.912,8.912,0,0,0,2.816-.544,25.262,25.262,0,0,0,3.248-1.376q1.648-.832,3.12-1.744t2.464-1.616a52.52,52.52,0,0,0,4.48-3.728,33.064,33.064,0,0,0,3.872-4.3ZM142.56,73.56a2.8,2.8,0,0,1-.624,1.824,2.122,2.122,0,0,1-1.744.768,1.132,1.132,0,0,1-1.072-.528,7.4,7.4,0,0,1-.528-1.136,6.171,6.171,0,0,0-1.712-2.528,6.018,6.018,0,0,0-2.736-1.44,3.241,3.241,0,0,1,.88-.256q.56-.1,1.136-.144t.928-.048a10.654,10.654,0,0,1,1.776.16,7.727,7.727,0,0,1,1.792.528,3.408,3.408,0,0,1,1.376,1.056A2.782,2.782,0,0,1,142.56,73.56Zm40.384-3.616a1.74,1.74,0,0,0-.576-1.312,1.973,1.973,0,0,0-2.7-.016,1.818,1.818,0,0,0,.016,2.64,1.9,1.9,0,0,0,1.344.544,1.926,1.926,0,0,0,1.344-.528A1.725,1.725,0,0,0,182.944,69.944Zm6.688,16.224a1.662,1.662,0,0,1-.56,1.28,1.863,1.863,0,0,1-1.3.512,3.1,3.1,0,0,1-1.312-.352,11.142,11.142,0,0,1-1.424-.816,12.566,12.566,0,0,1-1.136-.848q-2.24-1.952-4.384-4.016t-4.32-4.112q-.288-.288-.56-.576a4.475,4.475,0,0,0-.624-.544,3.76,3.76,0,0,0-.576-.352,1.484,1.484,0,0,0-.672-.16,1.107,1.107,0,0,0-.528.112,1.621,1.621,0,0,0-.432.368,14.152,14.152,0,0,0-.992,1.136q-.576.72-1.184,1.552t-1.12,1.616q-.512.784-.832,1.328l-.32.576a2.461,2.461,0,0,1-.416.544,1.485,1.485,0,0,1-1.152.544,3.579,3.579,0,0,1-1.856-.512A3.955,3.955,0,0,1,162.56,82.1a3.414,3.414,0,0,1-.512-1.824v-.192a.6.6,0,0,1,.032-.192,4.706,4.706,0,0,0,.88.352,3.3,3.3,0,0,0,.944.16,2.175,2.175,0,0,0,1.248-.368,4.426,4.426,0,0,0,.96-.88q1.088-1.12,2.176-2.256t2.272-2.16a4.122,4.122,0,0,1,1.12-.7,3.265,3.265,0,0,1,1.28-.256,2.963,2.963,0,0,1,1.248.336,6.188,6.188,0,0,1,1.152.688q2.624,1.92,5.28,3.776t5.376,3.616q.448.288,1.072.656a11.5,11.5,0,0,1,1.184.8,3.089,3.089,0,0,1,.816.88,2.925,2.925,0,0,1,.4.768A2.623,2.623,0,0,1,189.632,86.168Zm-5.7-16.224a2.645,2.645,0,0,1-.864,2,2.844,2.844,0,0,1-2.016.816,2.956,2.956,0,0,1-2.048-.816,2.6,2.6,0,0,1-.9-2,2.559,2.559,0,0,1,.88-2,3,3,0,0,1,2.064-.784,2.874,2.874,0,0,1,2.016.8A2.6,2.6,0,0,1,183.936,69.944Zm38.208,9.472a1.048,1.048,0,0,1-.416.928,2.261,2.261,0,0,1-.992.368,7.723,7.723,0,0,1-1.056.08q-1.44,0-2.88-.032t-2.88-.032q-2.4,0-4.816.064t-4.816.192q-1.184.064-2.384.208t-2.384.3a4.816,4.816,0,0,0-.8.128,3.286,3.286,0,0,1-.8.1,6.677,6.677,0,0,1-1.712-.224,3.046,3.046,0,0,1-1.408-.784,2.188,2.188,0,0,1-.56-1.616,2.816,2.816,0,0,1,.224-.992,1.311,1.311,0,0,1,.64-.768,2.875,2.875,0,0,0,1.552,1.136,6.385,6.385,0,0,0,1.9.3q2.528,0,5.056-.16t5.024-.416q1.28-.16,2.56-.3a22.34,22.34,0,0,0,2.528-.432q.192-.064.752-.208t1.088-.288a5.169,5.169,0,0,1,.592-.144,16.891,16.891,0,0,1,2.272.176,5.7,5.7,0,0,1,2.144.688,3.911,3.911,0,0,1,.624.416,4.143,4.143,0,0,1,.656.64A1.082,1.082,0,0,1,222.144,79.416ZM252.768,72.5a29.1,29.1,0,0,1-6.336,9.792,28.677,28.677,0,0,1-5.728,4.448,27.445,27.445,0,0,1-6.688,2.912.549.549,0,0,1-.224.032,1.27,1.27,0,0,1-.576-.128,7.085,7.085,0,0,1-1.344-.736,4.948,4.948,0,0,1-1.184-1.12,2.294,2.294,0,0,1-.48-1.408,4.944,4.944,0,0,1,.128-1.1,4.176,4.176,0,0,1,.384-1.04,7.081,7.081,0,0,0,.8,1.088,1.517,1.517,0,0,0,1.184.544,8.912,8.912,0,0,0,2.816-.544,25.262,25.262,0,0,0,3.248-1.376q1.648-.832,3.12-1.744t2.464-1.616a52.52,52.52,0,0,0,4.48-3.728,33.064,33.064,0,0,0,3.872-4.3ZM238.56,73.56a2.8,2.8,0,0,1-.624,1.824,2.122,2.122,0,0,1-1.744.768,1.132,1.132,0,0,1-1.072-.528,7.4,7.4,0,0,1-.528-1.136,6.171,6.171,0,0,0-1.712-2.528,6.018,6.018,0,0,0-2.736-1.44,3.241,3.241,0,0,1,.88-.256q.56-.1,1.136-.144t.928-.048a10.654,10.654,0,0,1,1.776.16,7.727,7.727,0,0,1,1.792.528,3.408,3.408,0,0,1,1.376,1.056A2.782,2.782,0,0,1,238.56,73.56Zm29.92,3.552q-.288.672-.528,1.36t-.5,1.392q-.576,1.6-1.152,3.584a13.258,13.258,0,0,0-.576,3.68,8.362,8.362,0,0,0,.32,2.368,1.129,1.129,0,0,1,.1.448,1.805,1.805,0,0,1-.384,1.136,1.3,1.3,0,0,1-1.088.5,1.64,1.64,0,0,1-1.232-.624,11.47,11.47,0,0,1-.912-1.136,7.961,7.961,0,0,1-1.168-3.024,18.6,18.6,0,0,1-.3-3.248,23.466,23.466,0,0,1,.7-5.744q.7-2.8,1.376-5.616a7.376,7.376,0,0,0,.224-1.856,6.014,6.014,0,0,0-.256-1.68,5.6,5.6,0,0,0-.7-1.552l.032-.032h.064a2.1,2.1,0,0,1,.864.272,11.958,11.958,0,0,1,1.072.608,4.672,4.672,0,0,1,.752.56,5.622,5.622,0,0,1,1.232,1.536,3.842,3.842,0,0,1,.5,1.888,3.457,3.457,0,0,1-.432,1.664q-.432.8-.784,1.568-.48,1.024-1.056,2.5t-.992,2.944a9.778,9.778,0,0,0-.416,2.624q0,.192.048.624a2.914,2.914,0,0,0,.192.784.469.469,0,0,0,.432.352.522.522,0,0,0,.48-.272q.16-.272.288-.5l.624-1.248q.3-.608.624-1.216.608-1.184,1.184-2.368t1.184-2.368ZM283.936,87a1.509,1.509,0,0,1-.656,1.28,4.8,4.8,0,0,1-1.632.736,12.582,12.582,0,0,1-1.92.352q-.944.1-1.52.1a9.713,9.713,0,0,1-4.992-1.168,6.141,6.141,0,0,1-2.656-4.272,4.344,4.344,0,0,1-.08-.624q-.016-.3-.016-.624,0-.128.1-.128a.085.085,0,0,1,.1.1q.1.352.24.752a3.783,3.783,0,0,0,.368.752,4.7,4.7,0,0,0,1.632,1.36,4.31,4.31,0,0,0,2.048.592,19.46,19.46,0,0,0,1.968-.1,9.406,9.406,0,0,0,1.936-.416q.288-.1.56-.208t.56-.208a2.416,2.416,0,0,1,.768-.128,7.048,7.048,0,0,1,1.344.144,3.426,3.426,0,0,1,1.3.528A1.336,1.336,0,0,1,283.936,87Zm-2.272-14.688a1.136,1.136,0,0,1-.688,1.12,7.44,7.44,0,0,1-1.328.48,15.261,15.261,0,0,0-3.2,1.248,24.514,24.514,0,0,0-2.944,1.792l-.128-.1a10.039,10.039,0,0,1,.992-1.232q.608-.656,1.216-1.2a16.981,16.981,0,0,1-2.176-.672,4.093,4.093,0,0,1-1.792-1.312q-.128-.192-.256-.416a1.261,1.261,0,0,1-.16-.448,8.85,8.85,0,0,0,1.136.3,5.856,5.856,0,0,0,1.168.144,8.581,8.581,0,0,0,2.384-.336,10.954,10.954,0,0,0,2.224-.912,3.714,3.714,0,0,1,.464-.224,1.324,1.324,0,0,1,.5-.1,2.508,2.508,0,0,1,.88.208,5.862,5.862,0,0,1,.848.4,3.541,3.541,0,0,1,.64.48A1.066,1.066,0,0,1,281.664,72.312Zm30.72,14.5a31.44,31.44,0,0,1-7.552,4.368,36.382,36.382,0,0,1-8.448,2.288q-.512.064-1.056.144a7.468,7.468,0,0,1-1.088.08q-.128,0-.528-.032t-.4-.192q0-.128.4-.288t.944-.336q.544-.176,1.008-.32t.624-.176a37.615,37.615,0,0,0,4.72-2,43.243,43.243,0,0,0,4.608-2.688,39.1,39.1,0,0,0,4.048-3.088Q311.1,85.688,312.384,86.808Zm-3.84-3.328a37.43,37.43,0,0,1-6.16,3.856,28.753,28.753,0,0,1-6.864,2.384.263.263,0,0,0-.08.016.355.355,0,0,1-.112.016.79.79,0,0,1-.24-.048.179.179,0,0,1-.144-.176q0-.16.352-.384a8.57,8.57,0,0,1,.768-.432l.544-.272A35.864,35.864,0,0,0,301.7,85.3,53.263,53.263,0,0,0,306.3,81.5l1.152.96A12.349,12.349,0,0,1,308.544,83.48Zm-3.072-3.04a35.589,35.589,0,0,1-3.1,2.3,30.5,30.5,0,0,1-3.568,2.048,18.622,18.622,0,0,1-3.632,1.344.356.356,0,0,1-.16.032h-.16a1.7,1.7,0,0,1-.192-.016.13.13,0,0,1-.128-.144.294.294,0,0,1,.144-.256l.24-.16a47.584,47.584,0,0,0,4.464-3.184,29.921,29.921,0,0,0,3.92-3.792q.544.416,1.1.9T305.472,80.44Zm13.984,3.68a1.084,1.084,0,0,1-.432.928,1.6,1.6,0,0,1-.976.32,5.247,5.247,0,0,1-1.52-.288q-.912-.288-1.488-.512a23.141,23.141,0,0,1-5.68-3.344,27.681,27.681,0,0,1-4.624-4.72H302.4a30.679,30.679,0,0,1-8.336,7.088,21.372,21.372,0,0,1-4.944,2.1.142.142,0,0,0-.064.016.223.223,0,0,1-.1.016.527.527,0,0,1-.16-.032.125.125,0,0,1-.1-.128q0-.128.192-.256a52.09,52.09,0,0,0,5.184-3.984A30.209,30.209,0,0,0,298.5,76.5h-8.384v-1.28h9.248q.352-.544.672-1.1t.608-1.136q-1.632.128-3.28.224l-3.28.192-.64-2.24h.768a4.312,4.312,0,0,0,1.216-.144,3.033,3.033,0,0,0,1.024-.592,15.083,15.083,0,0,0,2.608-2.88q1.168-1.664,2.192-3.2.8.16,1.616.32a12.779,12.779,0,0,1,1.584.416,1.6,1.6,0,0,1,.384.16.412.412,0,0,1,.16.384.489.489,0,0,1-.16.352,7.151,7.151,0,0,1-1.152,1.04q-.64.464-1.28.912-1.056.8-2.128,1.584T298.144,71.1q2.24-.032,4.464-.1t4.432-.192a7.932,7.932,0,0,0,.88-.112q.432-.08.848-.176-.608-.576-1.2-1.2a15.763,15.763,0,0,1-1.1-1.3l3.008-1.312q.608,1.344,1.312,2.624a25.648,25.648,0,0,0,1.568,2.5,1,1,0,0,1,.352-.672,1.03,1.03,0,0,1,.7-.288.883.883,0,0,1,.736.384,1.316,1.316,0,0,1,.288.8,1.032,1.032,0,0,1-.368.784,1.183,1.183,0,0,1-.816.336,3.833,3.833,0,0,1-2.032-.576,9.811,9.811,0,0,1-1.68-1.28,10.55,10.55,0,0,1-2.08.832,13.4,13.4,0,0,1-1.952.368q-.992.112-2.208.24l1.344.48a11.4,11.4,0,0,1-.64,1.008q-.352.5-.7.976H315.04a1.262,1.262,0,0,1-.048-.192,1.168,1.168,0,0,1-.016-.192,1.714,1.714,0,0,1,.512-1.232,1.637,1.637,0,0,1,1.216-.528,1.8,1.8,0,0,1,1.76,1.76,1.583,1.583,0,0,1-.5,1.184,1.662,1.662,0,0,1-1.2.48H308.7a15.775,15.775,0,0,0,2.16,2.912,23.288,23.288,0,0,0,2.88,2.64,19.606,19.606,0,0,0,3.056,1.968,1.476,1.476,0,0,1,.5-.832,1.342,1.342,0,0,1,.912-.352,1.177,1.177,0,0,1,.88.384A1.254,1.254,0,0,1,319.456,84.12Zm26.688-12.448h-4.576V88.28h2.08q2.5,0,2.5-2.624Zm-9.792-.384q-.032,3.36-.224,6.72t-.48,6.688q-.1,1.12-.288,2.272a15.6,15.6,0,0,1-.544,2.24,4,4,0,0,1-1.168,1.808,2.915,2.915,0,0,1-2,.72,3.259,3.259,0,0,1-1.552-.5,11.729,11.729,0,0,1-1.68-1.152,13.179,13.179,0,0,1-1.248-1.136.351.351,0,0,1-.128-.224q0-.16.192-.16a2.3,2.3,0,0,1,.736.208q.512.208,1.136.432a3.547,3.547,0,0,0,1.2.224,1.871,1.871,0,0,0,1.232-.384,2.256,2.256,0,0,0,.688-1.088,8.736,8.736,0,0,0,.416-1.888q.16-1.216.256-2.448t.128-2q.16-2.272.192-4.544t.064-4.512h-3.232q-.192,2.208-.5,4.416a31.865,31.865,0,0,1-.912,4.352,16.837,16.837,0,0,1-.832,2.4q-.512,1.184-1.056,2.3a15.083,15.083,0,0,1-2.112,3.28,14.567,14.567,0,0,1-2.912,2.64l-.192.128a.394.394,0,0,1-.224.064q-.32,0-.32-.256a.351.351,0,0,1,.128-.224q.736-.928,1.376-1.888a17,17,0,0,0,1.152-2.016,29.634,29.634,0,0,0,1.824-4.816,39.567,39.567,0,0,0,1.12-5.248,44.2,44.2,0,0,0,.448-5.136h-4.672v-1.28H327.1q.064-1.632.064-3.248t.032-3.216l3.3.032q0,1.6-.112,3.216t-.208,3.216ZM349.28,85.24a4.4,4.4,0,0,1-.7,2.576,4.047,4.047,0,0,1-1.888,1.472,7.228,7.228,0,0,1-2.656.464q-1.28,0-2.576-.016t-2.608-.016V70.232q2.624,0,5.216.016t5.216-.016Zm29.92-3.36a12.113,12.113,0,0,1-2.032,4.9,11.592,11.592,0,0,1-3.872,3.5,10.351,10.351,0,0,1-5.136,1.3,6.961,6.961,0,0,1-5.3-1.968,8.208,8.208,0,0,1-2.1-5.3q-.032-.48-.048-.96t-.016-.96q0-2.752.192-5.536t.192-5.536q0-.512-.048-1.152a4.2,4.2,0,0,0-.272-1.216,1.679,1.679,0,0,0-.7-.864,1.6,1.6,0,0,0-.592-.24q-.368-.08-.624-.112a1.591,1.591,0,0,1,.752-.576,5.408,5.408,0,0,1,1.136-.336,5.714,5.714,0,0,1,.992-.112,2.614,2.614,0,0,1,1.776.656,4.5,4.5,0,0,1,1.168,1.6,4.614,4.614,0,0,1,.416,1.872,2.332,2.332,0,0,1-.032.384l-.064.384q-.192,1.12-.432,2.256t-.432,2.256q-.288,1.792-.464,3.616t-.176,3.648a4.889,4.889,0,0,0,1.408,3.808,5.542,5.542,0,0,0,3.872,1.28,10.824,10.824,0,0,0,4.208-.848,12.175,12.175,0,0,0,3.632-2.336,11.265,11.265,0,0,0,2.528-3.44Zm32.48-11.456a1.332,1.332,0,0,1-.416,1.12,1.849,1.849,0,0,1-1.152.32.438.438,0,0,1-.1-.016.526.526,0,0,0-.128-.016q-.416-.064-.784-.128a4.575,4.575,0,0,0-.784-.064,22.588,22.588,0,0,0-2.7.16,7.3,7.3,0,0,0-2.544.8,4.408,4.408,0,0,0-1.7,1.5,8.767,8.767,0,0,0-1.072,2.224,13.593,13.593,0,0,0-.56,2.5,18.375,18.375,0,0,0-.16,2.288,9.869,9.869,0,0,0,.624,3.9A3.662,3.662,0,0,0,402.272,87a10.768,10.768,0,0,0,3.9.576,2.928,2.928,0,0,1,2.816,1.728q.1.192.176.4a1.194,1.194,0,0,1,.08.432,1.071,1.071,0,0,1-.544.992,3.532,3.532,0,0,1-1.248.432,7.9,7.9,0,0,1-1.216.112,13.259,13.259,0,0,1-3.792-.576A8.5,8.5,0,0,1,399.1,89.24a5.469,5.469,0,0,1-1.68-2.7,13.23,13.23,0,0,1-.368-3.184,13.539,13.539,0,0,1,1.52-6.448,25.673,25.673,0,0,1,3.856-5.392,23.959,23.959,0,0,0-4.752,1.7q-2.256,1.088-4.528,2.3a4.136,4.136,0,0,1-.656.32,2.1,2.1,0,0,1-.752.128A3.119,3.119,0,0,1,389.28,74.9a3.7,3.7,0,0,1-.928-2.528,1.926,1.926,0,0,1,.112-.64,4.936,4.936,0,0,1,.24-.576,2.014,2.014,0,0,0,1.136.848,4.688,4.688,0,0,0,1.424.24,16.536,16.536,0,0,0,3.3-.4q1.92-.4,4.016-1.008t3.984-1.28q1.888-.672,3.2-1.184h.416q.544,0,1.44.032a11.242,11.242,0,0,1,1.84.224,4.549,4.549,0,0,1,1.584.608A1.331,1.331,0,0,1,411.68,70.424ZM437.216,90.2a3.618,3.618,0,0,1-.432,1.776,1.647,1.647,0,0,1-1.584.784,1.537,1.537,0,0,1-1.392-.736,8.728,8.728,0,0,1-.752-1.472,27.391,27.391,0,0,0-1.248-2.752,13.954,13.954,0,0,0-1.7-2.5,18.015,18.015,0,0,0-1.536-1.6q-.832-.768-1.664-1.472-.416-.384-.88-.736a8.556,8.556,0,0,1-.88-.768,3.216,3.216,0,0,1-.64-.944,2.975,2.975,0,0,1-.192-1.136,2.533,2.533,0,0,1,.336-1.328,5.584,5.584,0,0,1,.848-1.072q.448-.448,1.184-1.248t1.584-1.76q.848-.96,1.616-1.952a14.892,14.892,0,0,0,1.248-1.856,3.148,3.148,0,0,0,.48-1.44,1.884,1.884,0,0,0-.4-1.36,2.678,2.678,0,0,0-.752-.56.817.817,0,0,0-.224-.08,1.264,1.264,0,0,1-.192-.048l.064-.192h.512a8.726,8.726,0,0,1,1.744.256,4.965,4.965,0,0,1,1.584.672,4.329,4.329,0,0,1,1.12,1.056,2.291,2.291,0,0,1,.512,1.408,2.125,2.125,0,0,1-.464,1.376,6.294,6.294,0,0,1-1.04,1.024q-1.12.9-2.288,1.808t-2.288,1.84l-1.216,1.024q-.608.512-1.248,1.024a3.676,3.676,0,0,0-.512.48.983.983,0,0,0-.224.672,1.343,1.343,0,0,0,.192.7,2.464,2.464,0,0,0,.48.576q.928.736,2.208,1.6t2.592,1.808a30.757,30.757,0,0,1,2.432,1.936A8.252,8.252,0,0,1,435.9,87q.224.352.416.72t.384.752q.192.416.352.848A2.516,2.516,0,0,1,437.216,90.2Zm20-13.248a.617.617,0,0,0-.08-.3.285.285,0,0,0-.272-.144,1.693,1.693,0,0,0-.736.272,5.968,5.968,0,0,0-.96.688,7.35,7.35,0,0,0-.816.816,1.162,1.162,0,0,0-.336.688,1.276,1.276,0,0,0,.272.656,6.858,6.858,0,0,0,.608.768q.336.368.528.56a13.642,13.642,0,0,0,.736-1.184,13.307,13.307,0,0,0,.736-1.52A3.6,3.6,0,0,0,457.216,76.952Zm21.792,7.04a11.143,11.143,0,0,1-3.1,3.968,7.31,7.31,0,0,1-4.736,1.6,3.175,3.175,0,0,1-2.08-.656,3.651,3.651,0,0,1-1.152-1.712,6.836,6.836,0,0,1-.352-2.176,7.191,7.191,0,0,1,.1-1.184q.224-1.792.592-3.552t.624-3.52q.064-.544.144-1.1a7.8,7.8,0,0,0,.08-1.1,2.617,2.617,0,0,0-.432-1.6,1.785,1.785,0,0,0-1.52-.576,4.2,4.2,0,0,0-2.32.8,13.715,13.715,0,0,0-2.336,2,25.159,25.159,0,0,0-2.048,2.448q-.912,1.248-1.456,2.144.064,1.888.256,3.808t.416,3.808a13.792,13.792,0,0,0,.32,1.7,6.89,6.89,0,0,1,.224,1.664,1.085,1.085,0,0,1-.336.848,1.261,1.261,0,0,1-.88.3,1.953,1.953,0,0,1-1.536-.752,2.45,2.45,0,0,1-.64-1.616,1.88,1.88,0,0,1,.032-.336q.032-.176.064-.336a34.057,34.057,0,0,0,.384-3.632q.1-1.84.128-3.664a7.374,7.374,0,0,0-.656,1.136q-.368.752-.72,1.616t-.624,1.648a6.851,6.851,0,0,0-.336,1.264q-.032.224-.064.528a1.153,1.153,0,0,1-.128.464.744.744,0,0,1-.672.352,1.306,1.306,0,0,1-.976-.464,3.3,3.3,0,0,1-.672-1.1,3.2,3.2,0,0,1-.24-1.088,1.485,1.485,0,0,1,.256-.9q.256-.352.576-.736a13.289,13.289,0,0,0,.976-1.3q.432-.656.848-1.36-.576-.672-1.168-1.344t-1.232-1.312a3.584,3.584,0,0,1-.384-.448.911.911,0,0,1-.16-.544,1.7,1.7,0,0,1,.544-1.1,12.215,12.215,0,0,1,1.2-1.136q.656-.544,1.04-.832a8.89,8.89,0,0,1,1.328-.848,6.52,6.52,0,0,1,1.456-.528q0-.48.016-.976t.016-.976a11.145,11.145,0,0,0-.144-1.888,2.41,2.41,0,0,0-.688-1.36,3.217,3.217,0,0,0-1.76-.72,1.034,1.034,0,0,1,.768-.5,4.386,4.386,0,0,1,.928-.144,6.141,6.141,0,0,1,1.792.272,3.624,3.624,0,0,1,1.536.912,3.133,3.133,0,0,1,.56.784,1.975,1.975,0,0,1,.24.912,4.394,4.394,0,0,1-.256,1.216q-.256.8-.56,1.616t-.464,1.328a5.347,5.347,0,0,1,.528.32.611.611,0,0,1,.336.48.758.758,0,0,1-.224.528,4.635,4.635,0,0,0-.384.464q-.256.32-.464.64t-.4.672v.864q.8-.96,1.808-2.112a23.618,23.618,0,0,1,2.192-2.192,12.431,12.431,0,0,1,2.48-1.712,5.737,5.737,0,0,1,2.672-.672q4.128,0,4.128,4.192,0,.192-.016.4t-.048.4a25,25,0,0,1-.512,2.656q-.352,1.44-.656,2.832a12.006,12.006,0,0,0-.3,2.544,2.523,2.523,0,0,0,.656,2.016,3.147,3.147,0,0,0,2.032.544,4.663,4.663,0,0,0,1.984-.48,10.35,10.35,0,0,0,1.936-1.184,10.019,10.019,0,0,0,1.488-1.376Zm17.6-10.976a1.364,1.364,0,0,1-.56.976,7.774,7.774,0,0,1-1.36.944,16.042,16.042,0,0,1-1.552.768q-.752.32-1.136.48-.256,1.088-.56,2.208t-.5,2.24q.64-.608,1.36-1.232a13.427,13.427,0,0,1,1.456-1.1l.1.128q-.608.8-1.344,1.92t-1.36,2.272a13.405,13.405,0,0,0-.944,2.112q-.32.992-.64,2t-.576,2.032q-.1.416-.176.816a8.339,8.339,0,0,1-.208.816,3.1,3.1,0,0,1-.688,1.392,1.908,1.908,0,0,1-1.456.5,1.128,1.128,0,0,1-.976-.544,3.653,3.653,0,0,1-.528-1.232,5.3,5.3,0,0,1-.16-1.168,1.817,1.817,0,0,1,.3-1.072q.3-.432.624-.912a24.2,24.2,0,0,0,1.9-3.264,40.077,40.077,0,0,0,1.632-3.808,23.2,23.2,0,0,0,1.04-3.616q-.608.1-1.184.192a7.191,7.191,0,0,1-1.184.1,3.651,3.651,0,0,1-2.768-1.088,6.892,6.892,0,0,1-1.552-2.624q-.032-.16-.08-.32a1.8,1.8,0,0,0-.112-.288l.128-.064a3.773,3.773,0,0,0,1.248,1.28,3.136,3.136,0,0,0,1.7.48,10.132,10.132,0,0,0,2.336-.288,14.138,14.138,0,0,0,2.208-.7,10.633,10.633,0,0,0,.432-1.9,14.17,14.17,0,0,0,.144-1.936,1.214,1.214,0,0,0-.368-.944,2.464,2.464,0,0,0-.9-.512,4.044,4.044,0,0,0-1.008-.208,2.617,2.617,0,0,1,1.44-.992,5.823,5.823,0,0,1,1.76-.32,2.293,2.293,0,0,1,1.056.3,3.769,3.769,0,0,1,1.008.768,1.421,1.421,0,0,1,.432.976,1.324,1.324,0,0,1-.1.5,3.715,3.715,0,0,1-.224.464q-.288.576-.544,1.168a11.241,11.241,0,0,0-.448,1.232h.256q.448,0,.928-.032t.928-.032a.6.6,0,0,1,.624.384A2.174,2.174,0,0,1,496.608,73.016Zm11.584,16.128a1.234,1.234,0,0,1-.48,1.04,3.194,3.194,0,0,1-1.2.544,8.412,8.412,0,0,1-1.44.224q-.72.048-1.168.048a17.164,17.164,0,0,1-3.008-.256,7.469,7.469,0,0,1-2.56-.928,4.756,4.756,0,0,1-1.76-1.856,6.362,6.362,0,0,1-.64-3.04,4.091,4.091,0,0,1,.1-.816q.1-.464.192-.784l.1.032a4.243,4.243,0,0,0,2.88,3.872,7.438,7.438,0,0,0,2.592.448,8.32,8.32,0,0,0,1.568-.16,8.079,8.079,0,0,0,1.536-.448,10.3,10.3,0,0,1,1.52.112,2.412,2.412,0,0,1,1.264.56A1.776,1.776,0,0,1,508.192,89.144Zm-.928-13.152a1.511,1.511,0,0,1-.384,1.04,1.368,1.368,0,0,1-.992.464,4.925,4.925,0,0,0-2.048-.448,8,8,0,0,0-1.84.24,11.661,11.661,0,0,0-1.776.56l-.032-.064a4.574,4.574,0,0,1,.928-.864,14.008,14.008,0,0,1,1.184-.768q.608-.352.96-.544a4.161,4.161,0,0,0-1.92-.688,16.919,16.919,0,0,0-2.08-.144q-.352,0-.7.032l-.7.064a3.885,3.885,0,0,1,1.488-1.088,8.956,8.956,0,0,1,1.968-.608,10.156,10.156,0,0,1,1.856-.192,4.957,4.957,0,0,1,1.76.368,4.769,4.769,0,0,1,1.648,1.04A2.16,2.16,0,0,1,507.264,75.992Zm35.328-5.568a1.661,1.661,0,0,1-.512,1.216,1.7,1.7,0,0,1-1.248.512H528.48q-.1,1.312-.256,2.64t-.416,2.64h11.008q-.224,2.624-.624,5.248t-.976,5.216a11.013,11.013,0,0,1-.9,2.576,5.487,5.487,0,0,1-1.632,2,4.2,4.2,0,0,1-2.592.768,4.039,4.039,0,0,1-2.224-.72,10.709,10.709,0,0,1-2.032-1.728q-.928-1.008-1.6-1.84a.369.369,0,0,1-.128-.256q0-.192.224-.192a2.1,2.1,0,0,1,.64.288q.512.288,1.248.688a10.405,10.405,0,0,0,1.568.688,4.885,4.885,0,0,0,1.6.288,2.064,2.064,0,0,0,1.552-.576,3.743,3.743,0,0,0,.848-1.408,13.014,13.014,0,0,0,.448-1.6q.448-1.984.7-4.048t.448-4.112h-7.84a24.359,24.359,0,0,1-2,5.264,19.707,19.707,0,0,1-3.248,4.592,13.27,13.27,0,0,1-2.88,2.288,29.926,29.926,0,0,1-3.3,1.68,3.032,3.032,0,0,1-.5.224,1.582,1.582,0,0,1-.528.1.527.527,0,0,1-.16-.032.125.125,0,0,1-.1-.128q0-.192.3-.416l.432-.32q.7-.48,1.36-.992t1.264-1.088a19,19,0,0,0,3.824-5.216,24.971,24.971,0,0,0,2.08-6.08,35.461,35.461,0,0,0,.72-6.432h-10.24V70.776h11.84q-.224-1.6-.464-3.2a21.547,21.547,0,0,1-.24-3.2q.96,0,2.1.1a13.767,13.767,0,0,1,2.064.32,1.213,1.213,0,0,1,.432.128q.176.1.176.416a4.73,4.73,0,0,1-.208,1.168q-.208.752-.512,1.584t-.624,1.568q-.32.736-.512,1.12h10.3a.74.74,0,0,0-.016-.144.74.74,0,0,1-.016-.144,1.832,1.832,0,0,1,.56-1.312,1.816,1.816,0,0,1,3.12,1.248ZM12.48,131.112q-.288.672-.528,1.36t-.5,1.392q-.576,1.6-1.152,3.584a13.258,13.258,0,0,0-.576,3.68,8.362,8.362,0,0,0,.32,2.368,1.129,1.129,0,0,1,.1.448,1.805,1.805,0,0,1-.384,1.136,1.3,1.3,0,0,1-1.088.5,1.64,1.64,0,0,1-1.232-.624,11.47,11.47,0,0,1-.912-1.136,7.961,7.961,0,0,1-1.168-3.024,18.6,18.6,0,0,1-.3-3.248,23.466,23.466,0,0,1,.7-5.744q.7-2.8,1.376-5.616a7.375,7.375,0,0,0,.224-1.856,6.014,6.014,0,0,0-.256-1.68,5.6,5.6,0,0,0-.7-1.552l.032-.032H6.5a2.1,2.1,0,0,1,.864.272,11.956,11.956,0,0,1,1.072.608,4.672,4.672,0,0,1,.752.56,5.623,5.623,0,0,1,1.232,1.536,3.842,3.842,0,0,1,.5,1.888,3.457,3.457,0,0,1-.432,1.664q-.432.8-.784,1.568-.48,1.024-1.056,2.5T7.648,134.6a9.778,9.778,0,0,0-.416,2.624q0,.192.048.624a2.912,2.912,0,0,0,.192.784.469.469,0,0,0,.432.352.522.522,0,0,0,.48-.272q.16-.272.288-.5l.624-1.248q.3-.608.624-1.216.608-1.184,1.184-2.368t1.184-2.368ZM27.936,141a1.509,1.509,0,0,1-.656,1.28,4.8,4.8,0,0,1-1.632.736,12.581,12.581,0,0,1-1.92.352q-.944.1-1.52.1a9.713,9.713,0,0,1-4.992-1.168,6.141,6.141,0,0,1-2.656-4.272,4.346,4.346,0,0,1-.08-.624q-.016-.3-.016-.624,0-.128.1-.128a.085.085,0,0,1,.1.1q.1.352.24.752a3.782,3.782,0,0,0,.368.752,4.7,4.7,0,0,0,1.632,1.36,4.31,4.31,0,0,0,2.048.592,19.46,19.46,0,0,0,1.968-.1,9.406,9.406,0,0,0,1.936-.416q.288-.1.56-.208t.56-.208a2.416,2.416,0,0,1,.768-.128,7.049,7.049,0,0,1,1.344.144,3.426,3.426,0,0,1,1.3.528A1.336,1.336,0,0,1,27.936,141Zm-2.272-14.688a1.136,1.136,0,0,1-.688,1.12,7.439,7.439,0,0,1-1.328.48,15.26,15.26,0,0,0-3.2,1.248,24.516,24.516,0,0,0-2.944,1.792l-.128-.1a10.038,10.038,0,0,1,.992-1.232q.608-.656,1.216-1.2a16.982,16.982,0,0,1-2.176-.672,4.093,4.093,0,0,1-1.792-1.312q-.128-.192-.256-.416a1.261,1.261,0,0,1-.16-.448,8.849,8.849,0,0,0,1.136.3,5.857,5.857,0,0,0,1.168.144,8.581,8.581,0,0,0,2.384-.336,10.954,10.954,0,0,0,2.224-.912,3.715,3.715,0,0,1,.464-.224,1.324,1.324,0,0,1,.5-.1,2.508,2.508,0,0,1,.88.208,5.864,5.864,0,0,1,.848.4,3.542,3.542,0,0,1,.64.48A1.066,1.066,0,0,1,25.664,126.312Zm25.7,18.048v-8.576H47.968v8.576Zm0-9.792V127.72H47.968v6.848Zm6.848-6.848H54.336v6.848h.9a1.172,1.172,0,0,1,.352-.768,1.047,1.047,0,0,1,.768-.32,1.075,1.075,0,0,1,.784.336,1.111,1.111,0,0,1,.336.816,1.177,1.177,0,0,1-.32.784.984.984,0,0,1-.768.368H54.336v8.576H56a1.721,1.721,0,0,0,1.168-.432,2.935,2.935,0,0,0,.768-1.056,3.066,3.066,0,0,0,.272-1.232ZM44.32,131.112q0,.224-.448.608a12,12,0,0,1-1.088.816q-.64.432-1.216.768t-.8.464v6.88q0,.992-.048,2.064a7.09,7.09,0,0,1-.352,1.968,3,3,0,0,1-1.04,1.456,3.374,3.374,0,0,1-2.08.56,3.714,3.714,0,0,1-1.9-.608q-1.008-.608-1.744-1.12-.032-.032-.128-.112t-.1-.144q0-.064.08-.08a.674.674,0,0,1,.112-.016,6.123,6.123,0,0,1,.976.08,6.123,6.123,0,0,0,.976.08,2.511,2.511,0,0,0,1.632-.432,1.978,1.978,0,0,0,.656-1.184,8.778,8.778,0,0,0,.144-1.648q0-1.568-.016-3.12t-.016-3.12q-.992.48-1.968.912t-2,.784l-1.312-2.624q1.312-.352,2.64-.752t2.64-.816v-3.024q0-1.392-.032-2.768H33.824v-1.216h4.064v-6.784h2.88v6.784h.9a1.5,1.5,0,0,1,.336-.944,1.094,1.094,0,0,1,.912-.432,1.155,1.155,0,0,1,.88.4,1.31,1.31,0,0,1,.368.912,1.257,1.257,0,0,1-1.28,1.28H40.768v5.024l.7-.24q.512-.176,1.088-.368t1.024-.352a2.637,2.637,0,0,1,.544-.16Q44.32,130.888,44.32,131.112Zm16.832,10.144a3.917,3.917,0,0,1-1.376,3.248,5.3,5.3,0,0,1-3.424,1.1h-11.2V126.44H51.36v-7.648h2.976v7.648h6.816Zm22.912-4.48v-3.168H80.992v3.168ZM95.488,144.1a1.268,1.268,0,0,1-.352.912,3.511,3.511,0,0,1-.8.624,11.451,11.451,0,0,1-2.656,1.088,24.885,24.885,0,0,1-3.184.688,19.751,19.751,0,0,1-2.864.24,28.915,28.915,0,0,1-4.48-.336,16.15,16.15,0,0,1-4.288-1.328A17.986,17.986,0,0,1,74.3,144.5q-1.216-.848-2.336-1.776-.192-.16-.688-.56a1.459,1.459,0,0,0-.752-.4,1.571,1.571,0,0,0-.864.192,2.529,2.529,0,0,0-.608.64q-.128.192-.416.736t-.624,1.184q-.336.64-.64,1.1t-.464.464q-.288,0-.736-.528a11.649,11.649,0,0,1-.848-1.136q-.4-.608-.56-.864.928-.448,1.856-.976a11.593,11.593,0,0,0,1.728-1.2,3.957,3.957,0,0,1,.176-.576,3.957,3.957,0,0,0,.176-.576,13.482,13.482,0,0,0,.56-3.264q.112-1.856.112-3.328v-1.376h-3.84V130.92h7.072q-.1,1.888-.32,3.616a15.767,15.767,0,0,1-.816,3.36,12.768,12.768,0,0,1-1.744,3.2q.32-.1.656-.176a2.827,2.827,0,0,1,.656-.08,2.4,2.4,0,0,1,.992.272q.576.272,1.168.592t.976.544a16.481,16.481,0,0,0,2.672-1.92,25.243,25.243,0,0,0,2.32-2.336l.56.336q.4.24.864.544a7.926,7.926,0,0,1,.784.576q.32.272.32.432a.464.464,0,0,1-.224.384,5.264,5.264,0,0,1-1.008.544q-.72.32-1.472.624t-1.168.464a16.276,16.276,0,0,1-2.72.768,28.073,28.073,0,0,0,7.152,2.064,50.019,50.019,0,0,0,7.44.56q.928,0,1.84-.032a16.985,16.985,0,0,0,1.808-.16,1.18,1.18,0,0,1-.64-1.056,1.2,1.2,0,0,1,.432-.928,1.393,1.393,0,0,1,.944-.384,1.372,1.372,0,0,1,.976.416A1.3,1.3,0,0,1,95.488,144.1ZM72.224,124.9q0,.384-.32.384a5.371,5.371,0,0,1-.8-.24q-.7-.24-1.6-.56L67.84,123.9q-.768-.272-1.024-.368l1.152-2.016q.16-.32.4-.752a.751.751,0,0,1,.688-.432,1.378,1.378,0,0,1,.224.016,1.264,1.264,0,0,1,.192.048,2.184,2.184,0,0,1,.72.7,16.672,16.672,0,0,1,1.712,2.832A2.8,2.8,0,0,1,72.224,124.9Zm19.68,18.24a.239.239,0,0,1-.128.208.48.48,0,0,1-.256.08h-.16a16.965,16.965,0,0,1-3.728-1.376,27.88,27.88,0,0,1-3.44-2.048.281.281,0,0,0-.112-.112.157.157,0,0,1-.08-.144q0-.1.32-.336t.752-.528q.432-.288.8-.528t.5-.336a17.491,17.491,0,0,0,2.48,2.544q1.36,1.136,2.8,2.192a1.152,1.152,0,0,1,.176.144A.326.326,0,0,1,91.9,143.144Zm1.824-6.5A1.2,1.2,0,0,1,92.48,137.9H73.152v-1.12h5.184v-3.168H74.688v-1.12h3.648v-2.656h2.656v2.656h3.072v-2.656h2.72v2.656h2.048a1.431,1.431,0,0,1,.416-1.056,1.429,1.429,0,0,1,2-.016,1.246,1.246,0,0,1,.432.944,1.278,1.278,0,0,1-.336.864,1.079,1.079,0,0,1-.848.384H86.784v3.168h4.16a.142.142,0,0,0-.016-.064.142.142,0,0,1-.016-.064,1.228,1.228,0,0,1,.448-.944,1.42,1.42,0,0,1,.96-.4,1.4,1.4,0,0,1,.976.4A1.246,1.246,0,0,1,93.728,136.648Zm-10.3-9.536a1.252,1.252,0,0,1-.416.96,3.214,3.214,0,0,1-1.04.624,6.838,6.838,0,0,1-1.248.352,6.2,6.2,0,0,1-1.072.112q-.672,0-1.456-.048a6.35,6.35,0,0,1-1.5-.272,2.5,2.5,0,0,1-1.168-.736,2.117,2.117,0,0,1-.448-1.44v-3.3H78.5q.832,0,1.056-.288a1.875,1.875,0,0,0,.224-1.088v-1.248h-5.12v-1.056H82.4V121a10.945,10.945,0,0,1-.16,2.208,1.155,1.155,0,0,1-.8.912,7.561,7.561,0,0,1-2.112.208H77.76V126.6q0,1.088.7,1.3a5.524,5.524,0,0,0,1.568.208,5.216,5.216,0,0,0,1.024-.1,1.228,1.228,0,0,1-.384-.9,1.151,1.151,0,0,1,.432-.912,1.395,1.395,0,0,1,1.888,0A1.151,1.151,0,0,1,83.424,127.112Zm9.5-.224a1.576,1.576,0,0,1-.864,1.472,5.956,5.956,0,0,1-1.824.672,9.253,9.253,0,0,1-1.952.256q-1.056,0-2.08-.08a3,3,0,0,1-1.7-.624,2.35,2.35,0,0,1-.672-1.92v-3.3H87.2q.832,0,1.056-.272a1.867,1.867,0,0,0,.224-1.1v-1.248H83.424v-1.056h7.648v2.56q0,1.376-.768,1.728a4.7,4.7,0,0,1-1.952.352H86.464V126.6q0,1.088.688,1.28a5.777,5.777,0,0,0,1.552.192,8.861,8.861,0,0,0,.912-.048q.464-.048.912-.112a1.281,1.281,0,0,1-.448-1.024,1.372,1.372,0,0,1,.416-.976,1.33,1.33,0,0,1,.992-.432,1.426,1.426,0,0,1,.992.416A1.308,1.308,0,0,1,92.928,126.888Zm30.016-2.464a1.307,1.307,0,0,1-.432,1.12,1.921,1.921,0,0,1-1.168.32.438.438,0,0,1-.1-.016.526.526,0,0,0-.128-.016q-.416-.064-.784-.128a4.575,4.575,0,0,0-.784-.064,22.588,22.588,0,0,0-2.7.16,7.3,7.3,0,0,0-2.544.8,4.408,4.408,0,0,0-1.7,1.5,8.389,8.389,0,0,0-1.056,2.224,14.486,14.486,0,0,0-.544,2.5,18.374,18.374,0,0,0-.16,2.288,10.1,10.1,0,0,0,.608,3.9A3.6,3.6,0,0,0,113.5,141a10.768,10.768,0,0,0,3.9.576,2.928,2.928,0,0,1,2.816,1.728q.1.192.176.4a1.193,1.193,0,0,1,.08.432,1.071,1.071,0,0,1-.544.992,3.531,3.531,0,0,1-1.248.432,7.9,7.9,0,0,1-1.216.112,13.1,13.1,0,0,1-3.776-.576,8.507,8.507,0,0,1-3.328-1.856,5.469,5.469,0,0,1-1.68-2.7,13.229,13.229,0,0,1-.368-3.184,13.656,13.656,0,0,1,1.5-6.448,24.647,24.647,0,0,1,3.872-5.392,23.776,23.776,0,0,0-4.784,1.7q-2.256,1.088-4.528,2.3a4.135,4.135,0,0,1-.656.32,2.1,2.1,0,0,1-.752.128,3.119,3.119,0,0,1-2.464-1.056,3.7,3.7,0,0,1-.928-2.528,1.927,1.927,0,0,1,.112-.64,4.939,4.939,0,0,1,.24-.576,2.014,2.014,0,0,0,1.136.848,4.688,4.688,0,0,0,1.424.24,16.536,16.536,0,0,0,3.3-.4q1.92-.4,4.016-1.008t3.984-1.28q1.888-.672,3.2-1.184h.416q.544,0,1.456.032a10.968,10.968,0,0,1,1.84.224,4.721,4.721,0,0,1,1.584.608A1.324,1.324,0,0,1,122.944,124.424Zm-.32,7.264a1.51,1.51,0,0,1-.272.9.968.968,0,0,1-.848.384.772.772,0,0,1-.608-.3,2.527,2.527,0,0,1-.384-.592q-.224-.544-.512-1.088a4.131,4.131,0,0,0-.736-.992,3.289,3.289,0,0,0-.864-.608q-.128-.064-.128-.128t.1-.064a6.55,6.55,0,0,1,1.264.144,6.751,6.751,0,0,1,1.408.448,3.549,3.549,0,0,1,1.136.768A1.574,1.574,0,0,1,122.624,131.688Zm3.648-1.6a1.24,1.24,0,0,1-.336.832,1.046,1.046,0,0,1-.816.384.764.764,0,0,1-.512-.192,2.34,2.34,0,0,1-.384-.416,8.453,8.453,0,0,0-1.264-1.6,7.162,7.162,0,0,0-1.648-1.184.618.618,0,0,0-.112-.08q-.08-.048-.08-.08,0-.1.336-.128t.4-.032a13.221,13.221,0,0,1,1.392.08,5.9,5.9,0,0,1,1.44.336,2.83,2.83,0,0,1,1.136.752A1.906,1.906,0,0,1,126.272,130.088Zm31.168-8.672a1.74,1.74,0,0,0-.576-1.312,1.973,1.973,0,0,0-2.7-.016,1.748,1.748,0,0,0-.56,1.328,1.775,1.775,0,0,0,.576,1.344,1.932,1.932,0,0,0,2.688,0A1.775,1.775,0,0,0,157.44,121.416Zm-3.68,5.184a1.552,1.552,0,0,1-.448,1.088,5.837,5.837,0,0,1-.96.832,23.621,23.621,0,0,1-.8,2.608,21.185,21.185,0,0,1-1.12,2.512,26.133,26.133,0,0,1-3.36,5.312,16.728,16.728,0,0,1-4.256,3.632,23.193,23.193,0,0,1-5.856,2.384q-1.344.352-2.848.608a17.349,17.349,0,0,1-2.912.256l-.032-.16q.512-.1,1.088-.24l1.088-.272a21.491,21.491,0,0,0,5.9-2.976A22.25,22.25,0,0,0,144,137.608a25.705,25.705,0,0,0,1.44-2.176,28.111,28.111,0,0,0,1.424-2.7,21.339,21.339,0,0,0,1.072-2.816,8.952,8.952,0,0,0,.416-2.544.633.633,0,0,0-.288-.608,1.361,1.361,0,0,0-.672-.16,8.917,8.917,0,0,0-1.632.224q-1.088.224-2.448.576t-2.672.752q-1.312.4-2.368.8a8.777,8.777,0,0,0-1.5.688q-.192.128-.368.256a.715.715,0,0,1-.432.128,1.847,1.847,0,0,1-.7-.16,5.8,5.8,0,0,1-2.08-1.28,2.866,2.866,0,0,1-.96-2.176,1.994,1.994,0,0,1,.224-.96,3.316,3.316,0,0,0,1.616.768,9.409,9.409,0,0,0,1.808.192,23.356,23.356,0,0,0,2.992-.192l2.96-.384q.7-.1,1.552-.224l1.584-.24q.736-.112,1.088-.176a3.784,3.784,0,0,0,.848-.288q.5-.224.976-.448.384-.16.72-.288a1.642,1.642,0,0,1,.56-.128,4.043,4.043,0,0,1,1.184.224q.7.224,1.392.512a6.547,6.547,0,0,1,1.072.544,3.656,3.656,0,0,1,.672.5A1.027,1.027,0,0,1,153.76,126.6Zm4.672-5.184a2.645,2.645,0,0,1-.864,2,2.844,2.844,0,0,1-2.016.816,2.956,2.956,0,0,1-2.048-.816,2.6,2.6,0,0,1-.9-2,2.539,2.539,0,0,1,.9-2,3.022,3.022,0,0,1,2.048-.784,2.844,2.844,0,0,1,2.016.816A2.609,2.609,0,0,1,158.432,121.416Zm31.52,4.992a3.346,3.346,0,0,1-.192.544,23.362,23.362,0,0,1-3.9,6.576,31.859,31.859,0,0,1-5.744,5.36,34.922,34.922,0,0,1-6.7,3.84q-.256.128-.528.256a5.063,5.063,0,0,0-.528.288l-.384.3a.725.725,0,0,1-.448.176,1.683,1.683,0,0,1-1.056-.448,5.255,5.255,0,0,1-.992-1.1,7.045,7.045,0,0,1-.72-1.328,3.169,3.169,0,0,1-.272-1.152.521.521,0,0,1,.208-.352,2.049,2.049,0,0,0,.4-.56,2.2,2.2,0,0,0,.192-1.008v-6.256q0-.56-.032-1.1t-.016-1.12a5.544,5.544,0,0,0-.08-1.12,3.232,3.232,0,0,0-.992-1.92,3.439,3.439,0,0,0-1.92-.96,7.882,7.882,0,0,1,1.248-1.168,2.549,2.549,0,0,1,1.568-.592,2.961,2.961,0,0,1,1.072.272,9.29,9.29,0,0,1,1.328.688,5.142,5.142,0,0,1,1.12.912,1.478,1.478,0,0,1,.448.976.942.942,0,0,1-.352.768q-.064.512-.08,1.024t-.048,1.024q-.128,2.112-.24,4.208t-.112,4.208a1.207,1.207,0,0,0,.16.624.611.611,0,0,0,.576.272,3,3,0,0,0,.864-.176q.544-.176,1.1-.384t.848-.336a33.788,33.788,0,0,0,3.856-2.1,45.49,45.49,0,0,0,3.872-2.72,37.241,37.241,0,0,0,3.536-3.136,24.481,24.481,0,0,0,2.816-3.376Zm29.376,3.52a.884.884,0,0,1-.288.72,2.051,2.051,0,0,1-.672.368,2.719,2.719,0,0,0-.7.352,3.492,3.492,0,0,0-.288.256,3.492,3.492,0,0,1-.288.256A15.347,15.347,0,0,1,215.68,133q-.928.672-2.048,1.392t-2.192,1.328a12.493,12.493,0,0,1-1.872.9l-.256-.224q.544-.48,1.3-1.232t1.472-1.632a10.286,10.286,0,0,0,1.184-1.776,3.65,3.65,0,0,0,.464-1.664q0-.384-.32-.432a4.529,4.529,0,0,0-.672-.048,5.877,5.877,0,0,0-1.44.24q-.9.24-1.9.592t-1.888.736q-.88.384-1.392.64-.1,1.344-.208,2.7t-.112,2.7a4.529,4.529,0,0,0,.688,2.848,3.524,3.524,0,0,0,2.768.832,20.467,20.467,0,0,0,2.8-.192q1.392-.192,2.768-.48a2.432,2.432,0,0,1,.4-.1,2.838,2.838,0,0,1,.432-.032,3.03,3.03,0,0,1,1.248.288,3.41,3.41,0,0,1,1.1.784,1.654,1.654,0,0,1,.464,1.168,1.108,1.108,0,0,1-.736,1.024,6.377,6.377,0,0,1-1.792.512,15.242,15.242,0,0,1-2.032.176q-.976.016-1.456.016-1.12,0-2.256-.08t-2.256-.272A5.3,5.3,0,0,1,204.4,141.9a6.7,6.7,0,0,1-.944-3.872q0-.9.016-1.76t.016-1.728v-.992q0-.48-.032-.992-.864.48-2.048,1.088a9.651,9.651,0,0,0-1.92,1.248,2.721,2.721,0,0,1-.448.368,1.048,1.048,0,0,1-.576.144,2.148,2.148,0,0,1-1.1-.432,7.15,7.15,0,0,1-1.2-.992,3.8,3.8,0,0,1-.736-.976,2.436,2.436,0,0,1-.128-.832,1.166,1.166,0,0,1,.016-.192,1.264,1.264,0,0,1,.048-.192,1.812,1.812,0,0,0,.784.272,7.677,7.677,0,0,0,.848.048,12.637,12.637,0,0,0,3.3-.448q1.664-.448,3.232-.864v-.928q0-1.056-.016-2.112t-.016-2.112a2.47,2.47,0,0,0-.56-1.712,3.248,3.248,0,0,0-1.584-.912,2.221,2.221,0,0,1,.7-.656,5.045,5.045,0,0,1,1.024-.5,2.875,2.875,0,0,1,.928-.192,3.153,3.153,0,0,1,1.328.384,5.574,5.574,0,0,1,1.392.96,1.651,1.651,0,0,1,.608,1.184,1.375,1.375,0,0,1-.176.672q-.176.32-.336.672a5.756,5.756,0,0,0-.3,1.344q-.112.864-.16,1.744t-.144,1.488q.416-.16,1.344-.512t2.08-.768q1.152-.416,2.272-.816t1.952-.656a4.935,4.935,0,0,1,1.088-.256,5.229,5.229,0,0,1,2,.4,5.744,5.744,0,0,1,1.712,1.072,2.243,2.243,0,0,1,.464.592A1.511,1.511,0,0,1,219.328,129.928Zm-2.016-5.952a1.51,1.51,0,0,1-.272.9.968.968,0,0,1-.848.384.772.772,0,0,1-.608-.3,2.527,2.527,0,0,1-.384-.592q-.224-.544-.512-1.088a4.131,4.131,0,0,0-.736-.992,3.289,3.289,0,0,0-.864-.608q-.128-.064-.128-.128t.1-.064a6.549,6.549,0,0,1,1.264.144,6.751,6.751,0,0,1,1.408.448,3.549,3.549,0,0,1,1.136.768A1.574,1.574,0,0,1,217.312,123.976Zm3.744-1.664a1.24,1.24,0,0,1-.336.832,1.046,1.046,0,0,1-.816.384.764.764,0,0,1-.512-.192,2.34,2.34,0,0,1-.384-.416,8.453,8.453,0,0,0-1.264-1.6,7.162,7.162,0,0,0-1.648-1.184.62.62,0,0,0-.112-.08q-.08-.048-.08-.08,0-.128.336-.144t.4-.016a13.222,13.222,0,0,1,1.392.08,5.9,5.9,0,0,1,1.44.336,2.83,2.83,0,0,1,1.136.752A1.906,1.906,0,0,1,221.056,122.312Zm31.712,4.192a29.1,29.1,0,0,1-6.336,9.792,28.678,28.678,0,0,1-5.728,4.448,27.445,27.445,0,0,1-6.688,2.912.549.549,0,0,1-.224.032,1.27,1.27,0,0,1-.576-.128,7.086,7.086,0,0,1-1.344-.736,4.949,4.949,0,0,1-1.184-1.12,2.294,2.294,0,0,1-.48-1.408,4.944,4.944,0,0,1,.128-1.1,4.176,4.176,0,0,1,.384-1.04,7.081,7.081,0,0,0,.8,1.088,1.517,1.517,0,0,0,1.184.544,8.912,8.912,0,0,0,2.816-.544,25.262,25.262,0,0,0,3.248-1.376q1.648-.832,3.12-1.744t2.464-1.616a52.52,52.52,0,0,0,4.48-3.728,33.064,33.064,0,0,0,3.872-4.3ZM238.56,127.56a2.8,2.8,0,0,1-.624,1.824,2.122,2.122,0,0,1-1.744.768,1.132,1.132,0,0,1-1.072-.528,7.4,7.4,0,0,1-.528-1.136,6.171,6.171,0,0,0-1.712-2.528,6.018,6.018,0,0,0-2.736-1.44,3.241,3.241,0,0,1,.88-.256q.56-.1,1.136-.144t.928-.048a10.654,10.654,0,0,1,1.776.16,7.727,7.727,0,0,1,1.792.528,3.408,3.408,0,0,1,1.376,1.056A2.782,2.782,0,0,1,238.56,127.56Zm42.464,7.168a2.163,2.163,0,0,1-.672,1.824,2.564,2.564,0,0,1-1.6.512,1.185,1.185,0,0,1-.9-.416q-.384-.416-.8-.9a7.8,7.8,0,0,0-.576-.64q-.32-.32-.48-.512a9.356,9.356,0,0,0-.8-.832q-.48-.448-.864-.768a8.547,8.547,0,0,0-1.824-1.2,9.9,9.9,0,0,0-2.048-.72q.064,3.2.24,6.416t.176,6.448a3.7,3.7,0,0,1-.208,1.12,3.343,3.343,0,0,1-.608,1.12,1.226,1.226,0,0,1-.976.48,1.173,1.173,0,0,1-.768-.336,3.86,3.86,0,0,1-.672-.768,4.269,4.269,0,0,1-.416-.752,5.2,5.2,0,0,1-.24-.992,7.255,7.255,0,0,1-.08-1.056,9.34,9.34,0,0,1,.224-2.032,16.575,16.575,0,0,0,.32-2q.256-3.264.288-6.56t.032-6.56a13.97,13.97,0,0,0-.1-1.6,4.365,4.365,0,0,0-.464-1.536,2.169,2.169,0,0,0-1.2-1.024,1.929,1.929,0,0,1,.656-.7,1.567,1.567,0,0,1,.88-.32,5.357,5.357,0,0,1,1.808.352,4.6,4.6,0,0,1,1.68,1.04,2.223,2.223,0,0,1,.7,1.648,1.246,1.246,0,0,1-.064.448q-.064.16-.192.416a9.329,9.329,0,0,0-.88,3.088q-.144,1.52-.176,3.248a11.01,11.01,0,0,1,1.424-.1h1.392a14.351,14.351,0,0,1,2.96.32,9.1,9.1,0,0,1,2.768,1.056,5.67,5.67,0,0,1,1.392,1.136A2.377,2.377,0,0,1,281.024,134.728Zm24.96,8.832a2.158,2.158,0,0,1-.7,1.648,2.438,2.438,0,0,1-3.328,0,2.158,2.158,0,0,1-.7-1.648,2.108,2.108,0,0,1,.7-1.632,2.483,2.483,0,0,1,3.328,0A2.108,2.108,0,0,1,305.984,143.56Zm.8-21.088q0,.16-.016.32t-.048.32q-.16,1.056-.352,2.1t-.352,2.064q-.32,2.3-.736,4.592t-.672,4.592q-.032.512-.112,1.056t-.208,1.056a1.4,1.4,0,0,1-.24.56.612.612,0,0,1-.528.24.574.574,0,0,1-.592-.432,2.59,2.59,0,0,1-.112-.976q.032-.544.032-.832,0-.9-.064-1.792l-.128-1.792q-.1-1.7-.224-3.376t-.288-3.344q-.1-1.024-.256-2.064a13.558,13.558,0,0,1-.16-2.064,2.418,2.418,0,0,1,2.72-2.752,2.09,2.09,0,0,1,1.664.8A2.636,2.636,0,0,1,306.784,122.472Z" transform="translate(-3.648 -10.088)" fill="#fff"/></svg>