<svg xmlns="http://www.w3.org/2000/svg" width="296.31" height="37.422" viewBox="0 0 296.31 37.422"><path d="M35.028-18.69a1.292,1.292,0,0,1-.252.8,4.167,4.167,0,0,1-1.05.84,22.255,22.255,0,0,1-1.512,3.906,34.807,34.807,0,0,1-2.247,3.927A27.027,27.027,0,0,1,27.51-6.006a22.541,22.541,0,0,1-3.255,2.9A22.42,22.42,0,0,1,20.2-.756,28.5,28.5,0,0,1,15.183.9a35.822,35.822,0,0,1-5.313.819q-.714.042-1.428.063t-1.134.021q-.168,0-.462.021T6.51,1.512A.26.26,0,0,1,6.7,1.239q.189-.063.357-.1A18.54,18.54,0,0,0,9.24.714a24.2,24.2,0,0,0,4.935-1.869A26.01,26.01,0,0,0,18.8-4.137a22.947,22.947,0,0,0,3.759-3.8A29.821,29.821,0,0,0,24.8-11.3a24.185,24.185,0,0,0,1.764-3.717,9.749,9.749,0,0,0,.693-3.339q-.042-.672-.882-.672-.21,0-.483.021a4.083,4.083,0,0,0-.483.063q-1.512.252-3.276.588t-3.549.735q-1.785.4-3.3.777t-2.478.714q-.294.168-.567.315a1.452,1.452,0,0,1-.693.147,3.964,3.964,0,0,1-1.26-.21,4.979,4.979,0,0,1-2.331-1.533,4.368,4.368,0,0,1-.987-2.667,3.127,3.127,0,0,1,.021-.8,2.2,2.2,0,0,1,.483-1.008,3.37,3.37,0,0,0,1.365.9,9.494,9.494,0,0,0,1.869.525,9.528,9.528,0,0,0,1.554.168q1.05,0,2.835-.126t3.738-.294q1.953-.168,3.57-.357t2.373-.315a12.282,12.282,0,0,0,1.449-.4,9.909,9.909,0,0,0,1.155-.441,9.372,9.372,0,0,1,.9-.378,4.629,4.629,0,0,1,.861-.252,4.252,4.252,0,0,1,1.491.273,7.286,7.286,0,0,1,1.281.609q.588.378,1.323.924a8.377,8.377,0,0,1,1.26,1.134A1.819,1.819,0,0,1,35.028-18.69Zm-5.46-9.03a1.136,1.136,0,0,1-.672,1.092,6.439,6.439,0,0,1-1.134.462q-1.218.294-2.856.546t-3.3.42q-1.659.168-2.961.168a13.182,13.182,0,0,1-2.835-.252,4.821,4.821,0,0,1-2-.966,12.19,12.19,0,0,1-1.932-2.1q-.168-.21-.42-.5a.841.841,0,0,1-.252-.462q0-.5.42-.5a.968.968,0,0,1,.525.231,2.141,2.141,0,0,0,.567.315q.714.168,1.3.315a4.945,4.945,0,0,0,1.428.105,34.677,34.677,0,0,0,3.7-.462,25.2,25.2,0,0,0,4.326-1.134q.462-.168.924-.315a3.033,3.033,0,0,1,.924-.147,6.314,6.314,0,0,1,1.218.189,4.689,4.689,0,0,1,1.134.357,3.985,3.985,0,0,1,1.26,1.008A2.4,2.4,0,0,1,29.568-27.72Zm52,12.348a1.874,1.874,0,0,1-.861,1.638,4.117,4.117,0,0,1-2.079.672H75.117q-1.365,0-2.5-.042-.546,0-1.029-.021t-.987-.021q-3.7,0-6.636.105t-6.132.231q-.588.042-1.806.147t-2.6.252q-1.386.147-2.52.252a14.957,14.957,0,0,0-1.512.189,5.981,5.981,0,0,1-3.486-.987,3.4,3.4,0,0,1-1.428-3,3.851,3.851,0,0,1,.357-1.47,1.6,1.6,0,0,1,.9-1.008,3.554,3.554,0,0,0,1.365,1.26,5.8,5.8,0,0,0,1.7.567,9.407,9.407,0,0,0,1.512.147q1.344,0,2.688.021t2.688-.021q2.226-.126,3.969-.252t3.969-.378q2.226-.252,3.906-.483t3.129-.567q1.449-.336,2.919-.8a15.937,15.937,0,0,1,3.4.441,11.572,11.572,0,0,1,2.73.987,5.639,5.639,0,0,1,1.2.924A1.765,1.765,0,0,1,81.564-15.372ZM117.432-8.61a2.94,2.94,0,0,1-.777,2.037,2.566,2.566,0,0,1-1.995.861,2.244,2.244,0,0,1-1.554-.609A9.105,9.105,0,0,1,111.93-7.6q-.84-1.134-1.743-2.247a15.242,15.242,0,0,0-1.995-2.037A34.569,34.569,0,0,1,103-6.195a26.316,26.316,0,0,1-5.838,3.8A42.294,42.294,0,0,1,89.922.21q-.21.042-.483.084a3.22,3.22,0,0,1-.483.042A2.706,2.706,0,0,1,88.62.315a.171.171,0,0,1-.168-.189q0-.168.252-.294l.336-.168a27.12,27.12,0,0,0,3.7-2.1,31.5,31.5,0,0,0,3.36-2.6q1.344-1.218,2.982-3t3.087-3.7a20.411,20.411,0,0,0,2.205-3.507q-1.68-1.26-3.507-2.373T97.188-19.74q-.714-.378-1.428-.8t-1.428-.756L94-21.462q-.168-.084-.378-.168a1.045,1.045,0,0,0-.189-.126q-.147-.084-.147-.168,0-.168.336-.168H94a18.248,18.248,0,0,1,2.919.273q1.659.273,3.4.714t3.339,1.008a24.846,24.846,0,0,1,2.772,1.155q.42-1.008.924-2.52t.882-3.045a11.023,11.023,0,0,0,.378-2.541A2.351,2.351,0,0,0,108-28.686a3.481,3.481,0,0,0-1.449-.966,7.95,7.95,0,0,1,1.6-.987,4.176,4.176,0,0,1,1.806-.441,4.506,4.506,0,0,1,2.394.8,8.167,8.167,0,0,1,2.142,1.953A3.823,3.823,0,0,1,115.374-26a1.153,1.153,0,0,1-.357.8,3.6,3.6,0,0,1-.693.588q-.672,2.1-1.407,4.2a32.7,32.7,0,0,1-1.743,4.074,8.94,8.94,0,0,1,1.869,1.176,20.149,20.149,0,0,1,1.659,1.47,11.87,11.87,0,0,1,1.974,2.226A5.043,5.043,0,0,1,117.432-8.61Zm46.662-15.75q-.294.63-.63,1.449t-.63,1.407A49.569,49.569,0,0,1,160-16.485a33.829,33.829,0,0,1-4.137,5.061,35.946,35.946,0,0,1-3.3,2.961,43.929,43.929,0,0,1-4.116,2.919,44.751,44.751,0,0,1-4.536,2.5,28.209,28.209,0,0,1-4.6,1.743,2.529,2.529,0,0,1-1.47-.168A17.412,17.412,0,0,1,136.1-2.541a5.775,5.775,0,0,1-1.575-1.617q-.168-.294-.441-.756a2.475,2.475,0,0,1-.273-1.26A7.2,7.2,0,0,1,134-8.064a4.236,4.236,0,0,1,.9-1.848q.21.378.546.945a4.131,4.131,0,0,0,.84,1.008,1.73,1.73,0,0,0,1.176.441,11.964,11.964,0,0,0,3.591-.672,37.243,37.243,0,0,0,4.284-1.7q2.205-1.029,4.116-2.163a33.882,33.882,0,0,0,3.129-2.058q1.68-1.3,3.171-2.5t2.835-2.5q.8-.756,1.512-1.428a15.67,15.67,0,0,0,1.428-1.554q.336-.462.945-1.218t.987-1.218q.084-.126.168-.231a1.1,1.1,0,0,0,.126-.189.4.4,0,0,1,.294-.126q.168,0,.147.252A1.594,1.594,0,0,1,164.094-24.36Zm-18.564,1.3a4.114,4.114,0,0,1-1.092,2.793,3.489,3.489,0,0,1-2.73,1.239,2.063,2.063,0,0,1-1.743-.735,4.251,4.251,0,0,1-.777-1.575A8.415,8.415,0,0,0,138.2-23.5a9.017,9.017,0,0,0-1.722-2.016,5.607,5.607,0,0,0-2.373-1.239q-.42-.126-.462-.294,0-.084.315-.231a5.4,5.4,0,0,1,.567-.231,8.931,8.931,0,0,1,1.743-.336,16.488,16.488,0,0,1,1.743-.126,14.735,14.735,0,0,1,2.373.21,9.95,9.95,0,0,1,2.457.735,4.991,4.991,0,0,1,1.932,1.491A3.9,3.9,0,0,1,145.53-23.058Zm54.1,20.874a2.118,2.118,0,0,1-.588,1.533,2.009,2.009,0,0,1-1.512.609h-21.42v-1.89h3.99V-20.37h4.452V-1.932h2.226V-26.754h4.746v9.828h.714a2.107,2.107,0,0,1,.651-1.47,2.065,2.065,0,0,1,1.491-.588,2.486,2.486,0,0,1,1.491.5,1.581,1.581,0,0,1,.693,1.344,1.818,1.818,0,0,1-.714,1.6,2.909,2.909,0,0,1-1.722.5h-2.6v13.1h3.486a2.766,2.766,0,0,1,.672-1.68,1.989,1.989,0,0,1,1.6-.756,2.451,2.451,0,0,1,1.638.609A1.974,1.974,0,0,1,199.626-2.184Zm10.122,2.9a1.7,1.7,0,0,1-.756,1.512,2.963,2.963,0,0,1-1.68.5,4.681,4.681,0,0,1-2.037-.546,11.02,11.02,0,0,1-1.827-1.092,12.933,12.933,0,0,1-3.864-4.746,22.805,22.805,0,0,1-1.89-5.964,53.551,53.551,0,0,1-.714-6.132q-.168-3.57-.21-7.14t0-7.14H178.794v5.46q0,2.478-.063,5.271t-.4,5.67a36.5,36.5,0,0,1-1.092,5.586A21.205,21.205,0,0,1,175.119-3a14.132,14.132,0,0,1-3.507,4.011q-.42.336-1.113.84a2.232,2.232,0,0,1-1.281.5q-.336,0-.336-.378a.71.71,0,0,1,.189-.441q.189-.231.315-.4a15.775,15.775,0,0,0,1.806-3.066,20.015,20.015,0,0,0,1.176-3.36,36,36,0,0,0,1.2-7.665q.189-3.927.189-7.791,0-2.814-.042-5.607t-.042-5.607h28.6q-.168,2.982-.21,5.985t-.042,5.985q0,2.142.084,4.83t.42,5.5A32.437,32.437,0,0,0,203.6-4.347a13.55,13.55,0,0,0,2.037,4.263,2.223,2.223,0,0,1,.924-.945,2.536,2.536,0,0,1,1.26-.357,1.731,1.731,0,0,1,1.386.651A2.2,2.2,0,0,1,209.748.714Zm25.536-2.352A9.582,9.582,0,0,1,234.99.735a3.967,3.967,0,0,1-1.071,1.911,3.093,3.093,0,0,1-2.247.756,3.651,3.651,0,0,1-1.827-.546,10.569,10.569,0,0,1-1.785-1.3Q227.22.8,226.632.21a.658.658,0,0,0-.126-.168.242.242,0,0,1-.084-.168q0-.126.21-.126a1.333,1.333,0,0,1,.378.084,7.922,7.922,0,0,0,2.352.378A1.114,1.114,0,0,0,230.5-.5a3.629,3.629,0,0,0,.294-1.386q0-7.308-.021-14.616t-.021-14.616h-2.52q-.042.924-.042,1.848v3.885q0,.987.042,2l.21.042a.868.868,0,0,1,.84-.63.866.866,0,0,1,.819.4,1.769,1.769,0,0,1,.231.9,1.028,1.028,0,0,1-.336.9,1.411,1.411,0,0,1-.819.231h-.945q0,3.528-.126,7.056h.336a1.109,1.109,0,0,1,.336-.42.789.789,0,0,1,.5-.21.853.853,0,0,1,.819.42,1.885,1.885,0,0,1,.231.924.974.974,0,0,1-.378.9,1.74,1.74,0,0,1-.924.231h-1.008a50.618,50.618,0,0,1-.8,6.783A15.078,15.078,0,0,1,224.49.378q-.42.546-.9,1.155A7.5,7.5,0,0,1,222.558,2.6q-.21.168-.483.378a.974.974,0,0,1-.609.21q-.42,0-.42-.378a.637.637,0,0,1,.063-.231.681.681,0,0,1,.105-.189,23.177,23.177,0,0,0,1.092-2.667,19,19,0,0,0,.714-2.793,42.888,42.888,0,0,0,.63-5.691q.126-2.877.126-5.733,0-4.62-.084-9.24t-.084-9.2h11.676Zm24.57-30.03a1.884,1.884,0,0,1-.924,1.785,4.011,4.011,0,0,1-2.016.525h-8.9q.378.126.8.273t.8.315a.6.6,0,0,1,.42.588q0,.252-.651.945t-1.533,1.512q-.882.819-1.659,1.47t-1.071.861a14.072,14.072,0,0,1,3.906,4.7,21.472,21.472,0,0,1,2.016,5.9,33.054,33.054,0,0,1,.588,6.111q0,1.428-.147,3.171a13.571,13.571,0,0,1-.693,3.318,6.108,6.108,0,0,1-1.659,2.583A4.432,4.432,0,0,1,246.036,3.4a3.262,3.262,0,0,1-1.47-.441,11.373,11.373,0,0,1-1.7-1.113q-.861-.672-1.6-1.365T240.114-.672a2.8,2.8,0,0,1-.357-.462.984.984,0,0,1-.189-.5q0-.168.252-.168a.677.677,0,0,1,.294.084q1.134.42,2.1.735a7.18,7.18,0,0,0,2.226.315,1.376,1.376,0,0,0,1.218-.861,7.7,7.7,0,0,0,.714-2.058,20.634,20.634,0,0,0,.357-2.31q.1-1.113.1-1.659,0-.336-.021-.693t-.021-.693a19.527,19.527,0,0,1-3.234,2.9,28.638,28.638,0,0,1-3.738,2.226l-1.176.525q-.8.357-1.6.63a4.124,4.124,0,0,1-1.176.273.371.371,0,0,1-.42-.42.621.621,0,0,1,.21-.483q.21-.189.378-.357a31.909,31.909,0,0,0,4.914-5,42.139,42.139,0,0,0,3.864-5.838l1.68.966q-.084-.882-.21-1.764t-.336-1.764a33.568,33.568,0,0,1-4.368,3.906,14.314,14.314,0,0,1-5.334,2.436h-.126q-.378,0-.378-.336a.424.424,0,0,1,.084-.273,2.291,2.291,0,0,1,.168-.189,38.765,38.765,0,0,0,3.738-4.2,25.86,25.86,0,0,0,2.856-4.83l2.688,1.176q-.42-.714-.9-1.428a7.263,7.263,0,0,0-1.071-1.26,22.386,22.386,0,0,1-2.793,1.785,19.7,19.7,0,0,1-3.045,1.365q-.294.084-.756.252a2.4,2.4,0,0,1-.8.168.556.556,0,0,1-.273-.084.273.273,0,0,1-.147-.252.526.526,0,0,1,.231-.4q.231-.189.315-.273A25.347,25.347,0,0,0,239-22.323a30.523,30.523,0,0,0,2.667-3.444,20.108,20.108,0,0,0,1.932-3.591h-6.72v-1.764h17.64a3.087,3.087,0,0,1,.735-2,2.307,2.307,0,0,1,1.869-.9,3.007,3.007,0,0,1,1.848.672A2.037,2.037,0,0,1,259.854-31.668ZM262.248-3.99a1.59,1.59,0,0,1-.609,1.239,1.987,1.987,0,0,1-1.323.525,3.828,3.828,0,0,1-2.016-.693,10.126,10.126,0,0,1-1.722-1.323,18.139,18.139,0,0,1-3.318-4.6,35.46,35.46,0,0,1-2.247-5.481q-.9-2.856-1.491-5.5,1.974-1.344,3.864-2.877T257-25.914q.168.168.756.819t1.281,1.449q.693.8,1.2,1.407a2.4,2.4,0,0,1,.5.735.486.486,0,0,1-.084.336,2.863,2.863,0,0,1-1.008.4q-.84.231-1.932.5t-2.037.483q-.945.21-1.323.336.294,2.184.9,4.767A46.012,46.012,0,0,0,256.767-9.6,25.127,25.127,0,0,0,258.8-5.208a2.457,2.457,0,0,1,.777-.525,2.272,2.272,0,0,1,.9-.189,1.578,1.578,0,0,1,1.218.651A2.011,2.011,0,0,1,262.248-3.99ZM302.82-1.428A2.2,2.2,0,0,1,301.812.588a4.117,4.117,0,0,1-2.226.63h-34.23V-.84h14.952V-14.07H268.842v-2.058h11.466V-27.972H267.12v-2.142H294.8a4.486,4.486,0,0,1,.819-2.436,2.643,2.643,0,0,1,2.289-1.008,3.367,3.367,0,0,1,2.2.819,2.585,2.585,0,0,1,.987,2.079,2.364,2.364,0,0,1-.9,1.995,3.384,3.384,0,0,1-2.121.693H286.1v11.844h7.056a3.244,3.244,0,0,1,.777-2.226,2.732,2.732,0,0,1,2.163-.882,2.78,2.78,0,0,1,1.869.756,2.326,2.326,0,0,1,.861,1.806,2.214,2.214,0,0,1-.945,1.953,3.652,3.652,0,0,1-2.121.651H286.1V-.84h10.542a4.246,4.246,0,0,1,.819-2.415,2.6,2.6,0,0,1,2.247-1.071,3.208,3.208,0,0,1,2.163.819A2.631,2.631,0,0,1,302.82-1.428Z" transform="translate(-6.51 34.02)" fill="#fff"/></svg>