<svg xmlns="http://www.w3.org/2000/svg" width="159.392" height="72.944" viewBox="0 0 159.392 72.944"><path d="M26.688-14.24a.985.985,0,0,1-.192.608,3.175,3.175,0,0,1-.8.64,16.956,16.956,0,0,1-1.152,2.976,26.52,26.52,0,0,1-1.712,2.992A20.592,20.592,0,0,1,20.96-4.576a17.174,17.174,0,0,1-2.48,2.208A17.082,17.082,0,0,1,15.392-.576,21.716,21.716,0,0,1,11.568.688a27.293,27.293,0,0,1-4.048.624q-.544.032-1.088.048t-.864.016q-.128,0-.352.016t-.256-.24A.2.2,0,0,1,5.1.944Q5.248.9,5.376.864A14.126,14.126,0,0,0,7.04.544,18.436,18.436,0,0,0,10.8-.88a19.817,19.817,0,0,0,3.52-2.272,17.483,17.483,0,0,0,2.864-2.9A22.72,22.72,0,0,0,18.9-8.608,18.426,18.426,0,0,0,20.24-11.44a7.428,7.428,0,0,0,.528-2.544q-.032-.512-.672-.512-.16,0-.368.016a3.111,3.111,0,0,0-.368.048q-1.152.192-2.5.448t-2.7.56q-1.36.3-2.512.592t-1.888.544q-.224.128-.432.24a1.107,1.107,0,0,1-.528.112,3.02,3.02,0,0,1-.96-.16,3.794,3.794,0,0,1-1.776-1.168A3.328,3.328,0,0,1,5.312-15.3a2.383,2.383,0,0,1,.016-.608,1.676,1.676,0,0,1,.368-.768,2.567,2.567,0,0,0,1.04.688,7.234,7.234,0,0,0,1.424.4,7.259,7.259,0,0,0,1.184.128q.8,0,2.16-.1t2.848-.224q1.488-.128,2.72-.272t1.808-.24a9.357,9.357,0,0,0,1.1-.3,7.549,7.549,0,0,0,.88-.336,7.141,7.141,0,0,1,.688-.288,3.527,3.527,0,0,1,.656-.192,3.24,3.24,0,0,1,1.136.208,5.551,5.551,0,0,1,.976.464q.448.288,1.008.7a6.383,6.383,0,0,1,.96.864A1.386,1.386,0,0,1,26.688-14.24Zm-4.16-6.88a.866.866,0,0,1-.512.832,4.905,4.905,0,0,1-.864.352q-.928.224-2.176.416t-2.512.32q-1.264.128-2.256.128a10.043,10.043,0,0,1-2.16-.192A3.673,3.673,0,0,1,10.528-20a9.288,9.288,0,0,1-1.472-1.6q-.128-.16-.32-.384a.641.641,0,0,1-.192-.352q0-.384.32-.384a.738.738,0,0,1,.4.176,1.631,1.631,0,0,0,.432.24q.544.128.992.24a3.768,3.768,0,0,0,1.088.08,26.421,26.421,0,0,0,2.816-.352,19.2,19.2,0,0,0,3.3-.864q.352-.128.7-.24a2.311,2.311,0,0,1,.7-.112,4.811,4.811,0,0,1,.928.144,3.572,3.572,0,0,1,.864.272,3.036,3.036,0,0,1,.96.768A1.832,1.832,0,0,1,22.528-21.12Zm39.616,9.408a1.428,1.428,0,0,1-.656,1.248,3.136,3.136,0,0,1-1.584.512H57.232q-1.04,0-1.9-.032-.416,0-.784-.016t-.752-.016q-2.816,0-5.056.08t-4.672.176q-.448.032-1.376.112T40.7-9.456q-1.056.112-1.92.192a11.4,11.4,0,0,0-1.152.144,4.557,4.557,0,0,1-2.656-.752,2.593,2.593,0,0,1-1.088-2.288,2.934,2.934,0,0,1,.272-1.12,1.22,1.22,0,0,1,.688-.768,2.708,2.708,0,0,0,1.04.96,4.417,4.417,0,0,0,1.3.432,7.167,7.167,0,0,0,1.152.112q1.024,0,2.048.016t2.048-.016q1.7-.1,3.024-.192t3.024-.288q1.7-.192,2.976-.368t2.384-.432q1.1-.256,2.224-.608a12.142,12.142,0,0,1,2.592.336,8.817,8.817,0,0,1,2.08.752,4.3,4.3,0,0,1,.912.7A1.345,1.345,0,0,1,62.144-11.712ZM89.472-6.56a2.24,2.24,0,0,1-.592,1.552,1.955,1.955,0,0,1-1.52.656,1.71,1.71,0,0,1-1.184-.464,6.938,6.938,0,0,1-.9-.976q-.64-.864-1.328-1.712a11.612,11.612,0,0,0-1.52-1.552A26.338,26.338,0,0,1,78.48-4.72a20.05,20.05,0,0,1-4.448,2.9A32.224,32.224,0,0,1,68.512.16q-.16.032-.368.064a2.453,2.453,0,0,1-.368.032A2.062,2.062,0,0,1,67.52.24.13.13,0,0,1,67.392.1q0-.128.192-.224l.256-.128a20.663,20.663,0,0,0,2.816-1.6,24,24,0,0,0,2.56-1.984q1.024-.928,2.272-2.288T77.84-8.944a15.551,15.551,0,0,0,1.68-2.672q-1.28-.96-2.672-1.808t-2.8-1.616q-.544-.288-1.088-.608t-1.088-.576l-.256-.128q-.128-.064-.288-.128a.8.8,0,0,0-.144-.1q-.112-.064-.112-.128,0-.128.256-.128h.288a13.9,13.9,0,0,1,2.224.208q1.264.208,2.592.544t2.544.768a18.929,18.929,0,0,1,2.112.88q.32-.768.7-1.92t.672-2.32a8.4,8.4,0,0,0,.288-1.936,1.792,1.792,0,0,0-.464-1.248,2.652,2.652,0,0,0-1.1-.736,6.057,6.057,0,0,1,1.216-.752,3.182,3.182,0,0,1,1.376-.336,3.433,3.433,0,0,1,1.824.608,6.223,6.223,0,0,1,1.632,1.488,2.913,2.913,0,0,1,.672,1.776.878.878,0,0,1-.272.608,2.746,2.746,0,0,1-.528.448q-.512,1.6-1.072,3.2a24.916,24.916,0,0,1-1.328,3.1,6.812,6.812,0,0,1,1.424.9,15.351,15.351,0,0,1,1.264,1.12,9.044,9.044,0,0,1,1.5,1.7A3.842,3.842,0,0,1,89.472-6.56Zm35.552-12q-.224.48-.48,1.1t-.48,1.072a37.768,37.768,0,0,1-2.16,3.824A25.775,25.775,0,0,1,118.752-8.7a27.388,27.388,0,0,1-2.512,2.256A33.47,33.47,0,0,1,113.1-4.224a34.1,34.1,0,0,1-3.456,1.9,21.493,21.493,0,0,1-3.5,1.328,1.927,1.927,0,0,1-1.12-.128,13.266,13.266,0,0,1-1.328-.816,4.4,4.4,0,0,1-1.2-1.232q-.128-.224-.336-.576a1.886,1.886,0,0,1-.208-.96,5.484,5.484,0,0,1,.144-1.44,3.228,3.228,0,0,1,.688-1.408q.16.288.416.72a3.147,3.147,0,0,0,.64.768,1.318,1.318,0,0,0,.9.336,9.115,9.115,0,0,0,2.736-.512,28.376,28.376,0,0,0,3.264-1.3q1.68-.784,3.136-1.648a25.814,25.814,0,0,0,2.384-1.568q1.28-.992,2.416-1.9t2.16-1.9q.608-.576,1.152-1.088a11.939,11.939,0,0,0,1.088-1.184q.256-.352.72-.928t.752-.928q.064-.1.128-.176a.839.839,0,0,0,.1-.144.307.307,0,0,1,.224-.1q.128,0,.112.192A1.215,1.215,0,0,1,125.024-18.56Zm-14.144.992a3.134,3.134,0,0,1-.832,2.128,2.658,2.658,0,0,1-2.08.944,1.572,1.572,0,0,1-1.328-.56,3.239,3.239,0,0,1-.592-1.2A6.411,6.411,0,0,0,105.3-17.9a6.87,6.87,0,0,0-1.312-1.536,4.272,4.272,0,0,0-1.808-.944q-.32-.1-.352-.224,0-.064.24-.176a4.114,4.114,0,0,1,.432-.176,6.8,6.8,0,0,1,1.328-.256,12.562,12.562,0,0,1,1.328-.1,11.227,11.227,0,0,1,1.808.16,7.581,7.581,0,0,1,1.872.56,3.8,3.8,0,0,1,1.472,1.136A2.972,2.972,0,0,1,110.88-17.568ZM152.1-1.664A1.614,1.614,0,0,1,151.648-.5a1.531,1.531,0,0,1-1.152.464h-16.32v-1.44h3.04V-15.52h3.392V-1.472h1.7V-20.384h3.616V-12.9h.544a1.605,1.605,0,0,1,.5-1.12,1.574,1.574,0,0,1,1.136-.448,1.894,1.894,0,0,1,1.136.384,1.2,1.2,0,0,1,.528,1.024,1.385,1.385,0,0,1-.544,1.216,2.216,2.216,0,0,1-1.312.384H145.92v9.984h2.656a2.108,2.108,0,0,1,.512-1.28,1.515,1.515,0,0,1,1.216-.576,1.868,1.868,0,0,1,1.248.464A1.5,1.5,0,0,1,152.1-1.664ZM159.808.544a1.292,1.292,0,0,1-.576,1.152,2.257,2.257,0,0,1-1.28.384,3.566,3.566,0,0,1-1.552-.416,8.4,8.4,0,0,1-1.392-.832,9.854,9.854,0,0,1-2.944-3.616,17.376,17.376,0,0,1-1.44-4.544A40.8,40.8,0,0,1,150.08-12q-.128-2.72-.16-5.44t0-5.44h-13.7v4.16q0,1.888-.048,4.016t-.3,4.32a27.81,27.81,0,0,1-.832,4.256,16.155,16.155,0,0,1-1.616,3.84A10.767,10.767,0,0,1,130.752.768q-.32.256-.848.64a1.7,1.7,0,0,1-.976.384q-.256,0-.256-.288a.541.541,0,0,1,.144-.336q.144-.176.24-.3a12.019,12.019,0,0,0,1.376-2.336,15.25,15.25,0,0,0,.9-2.56,27.429,27.429,0,0,0,.912-5.84q.144-2.992.144-5.936,0-2.144-.032-4.272t-.032-4.272h21.792q-.128,2.272-.16,4.56t-.032,4.56q0,1.632.064,3.68t.32,4.192a24.714,24.714,0,0,0,.816,4.048,10.324,10.324,0,0,0,1.552,3.248,1.694,1.694,0,0,1,.7-.72,1.932,1.932,0,0,1,.96-.272,1.319,1.319,0,0,1,1.056.5A1.676,1.676,0,0,1,159.808.544ZM11.264,44.752a7.3,7.3,0,0,1-.224,1.808,3.023,3.023,0,0,1-.816,1.456,2.357,2.357,0,0,1-1.712.576,2.782,2.782,0,0,1-1.392-.416,8.053,8.053,0,0,1-1.36-.992q-.64-.576-1.088-1.024a.5.5,0,0,0-.1-.128.184.184,0,0,1-.064-.128q0-.1.16-.1a1.016,1.016,0,0,1,.288.064,6.036,6.036,0,0,0,1.792.288.849.849,0,0,0,.864-.544A2.765,2.765,0,0,0,7.84,44.56q0-5.568-.016-11.136T7.808,22.288H5.888q-.032.7-.032,1.408v2.96q0,.752.032,1.52l.16.032a.661.661,0,0,1,.64-.48.66.66,0,0,1,.624.3,1.348,1.348,0,0,1,.176.688.783.783,0,0,1-.256.688,1.075,1.075,0,0,1-.624.176h-.72q0,2.688-.1,5.376h.256a.845.845,0,0,1,.256-.32.6.6,0,0,1,.384-.16.65.65,0,0,1,.624.32,1.437,1.437,0,0,1,.176.7.742.742,0,0,1-.288.688,1.326,1.326,0,0,1-.7.176H5.728a38.566,38.566,0,0,1-.608,5.168,11.488,11.488,0,0,1-2.08,4.752q-.32.416-.688.88a5.718,5.718,0,0,1-.784.816q-.16.128-.368.288a.742.742,0,0,1-.464.16q-.32,0-.32-.288a.486.486,0,0,1,.048-.176.519.519,0,0,1,.08-.144,17.659,17.659,0,0,0,.832-2.032,14.473,14.473,0,0,0,.544-2.128,32.676,32.676,0,0,0,.48-4.336q.1-2.192.1-4.368,0-3.52-.064-7.04t-.064-7.008h8.9Zm18.72-22.88a1.435,1.435,0,0,1-.7,1.36,3.056,3.056,0,0,1-1.536.4H20.96q.288.1.608.208t.608.24a.454.454,0,0,1,.32.448q0,.192-.5.72T20.832,26.4q-.672.624-1.264,1.12t-.816.656a10.721,10.721,0,0,1,2.976,3.584,16.36,16.36,0,0,1,1.536,4.5,25.184,25.184,0,0,1,.448,4.656q0,1.088-.112,2.416a10.339,10.339,0,0,1-.528,2.528,4.654,4.654,0,0,1-1.264,1.968,3.376,3.376,0,0,1-2.352.768,2.485,2.485,0,0,1-1.12-.336,8.665,8.665,0,0,1-1.3-.848q-.656-.512-1.216-1.04t-.88-.88a2.135,2.135,0,0,1-.272-.352.749.749,0,0,1-.144-.384q0-.128.192-.128a.516.516,0,0,1,.224.064q.864.32,1.6.56a5.471,5.471,0,0,0,1.7.24,1.048,1.048,0,0,0,.928-.656,5.87,5.87,0,0,0,.544-1.568,15.719,15.719,0,0,0,.272-1.76q.08-.848.08-1.264,0-.256-.016-.528t-.016-.528a14.877,14.877,0,0,1-2.464,2.208,21.819,21.819,0,0,1-2.848,1.7l-.9.4q-.608.272-1.216.48a3.142,3.142,0,0,1-.9.208.283.283,0,0,1-.32-.32.473.473,0,0,1,.16-.368q.16-.144.288-.272a24.312,24.312,0,0,0,3.744-3.808,32.107,32.107,0,0,0,2.944-4.448l1.28.736q-.064-.672-.16-1.344t-.256-1.344a25.576,25.576,0,0,1-3.328,2.976A10.906,10.906,0,0,1,12,37.84h-.1q-.288,0-.288-.256a.323.323,0,0,1,.064-.208,1.745,1.745,0,0,1,.128-.144,29.535,29.535,0,0,0,2.848-3.2,19.7,19.7,0,0,0,2.176-3.68l2.048.9q-.32-.544-.688-1.088a5.534,5.534,0,0,0-.816-.96,17.057,17.057,0,0,1-2.128,1.36,15.007,15.007,0,0,1-2.32,1.04q-.224.064-.576.192a1.826,1.826,0,0,1-.608.128.424.424,0,0,1-.208-.064.208.208,0,0,1-.112-.192.4.4,0,0,1,.176-.3q.176-.144.24-.208a19.312,19.312,0,0,0,2.256-2.16,23.255,23.255,0,0,0,2.032-2.624A15.321,15.321,0,0,0,17.6,23.632H12.48V22.288H25.92a2.352,2.352,0,0,1,.56-1.52A1.757,1.757,0,0,1,27.9,20.08a2.291,2.291,0,0,1,1.408.512A1.552,1.552,0,0,1,29.984,21.872ZM31.808,42.96a1.211,1.211,0,0,1-.464.944,1.514,1.514,0,0,1-1.008.4,2.917,2.917,0,0,1-1.536-.528,7.715,7.715,0,0,1-1.312-1.008,13.82,13.82,0,0,1-2.528-3.5,27.016,27.016,0,0,1-1.712-4.176q-.688-2.176-1.136-4.192,1.5-1.024,2.944-2.192t2.752-2.448q.128.128.576.624t.976,1.1q.528.608.912,1.072a1.829,1.829,0,0,1,.384.56.371.371,0,0,1-.064.256,2.182,2.182,0,0,1-.768.3q-.64.176-1.472.384t-1.552.368q-.72.16-1.008.256.224,1.664.688,3.632a35.057,35.057,0,0,0,1.152,3.872,19.146,19.146,0,0,0,1.552,3.344,1.872,1.872,0,0,1,.592-.4,1.731,1.731,0,0,1,.688-.144,1.2,1.2,0,0,1,.928.5A1.532,1.532,0,0,1,31.808,42.96ZM62.72,44.912a1.676,1.676,0,0,1-.768,1.536,3.136,3.136,0,0,1-1.7.48H34.176V45.36H45.568V35.28H36.832V33.712h8.736V24.688H35.52V23.056H56.608a3.418,3.418,0,0,1,.624-1.856,2.014,2.014,0,0,1,1.744-.768,2.565,2.565,0,0,1,1.68.624,1.97,1.97,0,0,1,.752,1.584,1.8,1.8,0,0,1-.688,1.52,2.578,2.578,0,0,1-1.616.528h-9.12v9.024H55.36a2.472,2.472,0,0,1,.592-1.7,2.081,2.081,0,0,1,1.648-.672,2.118,2.118,0,0,1,1.424.576A1.772,1.772,0,0,1,59.68,33.3a1.687,1.687,0,0,1-.72,1.488,2.783,2.783,0,0,1-1.616.5h-7.36V45.36h8.032a3.236,3.236,0,0,1,.624-1.84,1.985,1.985,0,0,1,1.712-.816A2.444,2.444,0,0,1,62,43.328,2,2,0,0,1,62.72,44.912Z" transform="translate(-0.416 24.352)" fill="#fff"/></svg>