<svg xmlns="http://www.w3.org/2000/svg" width="219.666" height="76.784" viewBox="0 0 219.666 76.784"><path d="M21.952-2.976H9.888V.672H20.48A1.3,1.3,0,0,0,21.6.192a1.948,1.948,0,0,0,.352-1.184Zm-9.28-7.712q.16.672.288,1.584t.16,1.584h5.088q.16-.8.336-1.584t.336-1.584Zm8.384-2.752v-1.216H10.56v2.624h9.056A1.259,1.259,0,0,0,21.056-13.44ZM25.92-1.312a4.026,4.026,0,0,1-.56,2.384,2.444,2.444,0,0,1-1.568.944,13.111,13.111,0,0,1-2.416.192H6.112V-4.448H25.92ZM31.52-7.9a1.7,1.7,0,0,1-.656,1.328,2.114,2.114,0,0,1-1.392.56H1.44v-1.5h8.992L10-7.952l-.7-.7q-.368-.368-.656-.672a1.893,1.893,0,0,1-.288-.336.184.184,0,0,1,.064-.128,7.689,7.689,0,0,1,1.312-.464q.864-.24,1.376-.368-1.056-.032-2.1-.032h-2.1V-16.1h17.92v2.336a3.382,3.382,0,0,1-.56,2.192,2.4,2.4,0,0,1-1.536.8,15.366,15.366,0,0,1-2.224.144q.576.16,1.184.336a11.213,11.213,0,0,1,1.152.4.7.7,0,0,1,.24.112.276.276,0,0,1,.112.24.516.516,0,0,1-.256.384q-.48.416-.992.832t-1.024.8H27.1a1.264,1.264,0,0,1-.048-.192A1.166,1.166,0,0,1,27.04-7.9a1.739,1.739,0,0,1,.672-1.472,2.515,2.515,0,0,1,1.568-.512,2.484,2.484,0,0,1,1.552.528A1.734,1.734,0,0,1,31.52-7.9ZM29.632-23.3a1.739,1.739,0,0,1-.592,1.36,2.066,2.066,0,0,1-1.424.528H17.7v2.336h4.768a2.04,2.04,0,0,1,.608-1.312,1.788,1.788,0,0,1,1.312-.544,2.459,2.459,0,0,1,1.344.464,1.39,1.39,0,0,1,.7,1.2,1.485,1.485,0,0,1-.512,1.2,1.87,1.87,0,0,1-1.248.432H5.6v-1.44h8.288v-2.336H3.072v-1.5H13.824V-26.3H17.76v3.392h7.328a2.669,2.669,0,0,1,.64-1.68,1.992,1.992,0,0,1,1.6-.72,2.569,2.569,0,0,1,1.584.544A1.748,1.748,0,0,1,29.632-23.3Zm31.52,12.128a2.828,2.828,0,0,1-.288,1.072,7.8,7.8,0,0,1-.512,1.008A22.25,22.25,0,0,1,58.72-6.912,21.081,21.081,0,0,1,56.8-4.928a35.581,35.581,0,0,1-3.872,3.04,22.871,22.871,0,0,1-3.7,2.016,27.278,27.278,0,0,1-4.016,1.344q-2.144.544-4.8,1.024-1.088.192-2.384.3t-2.416.112a1.461,1.461,0,0,1-.432-.064q-.208-.064-.208-.384,0-.064.112-.144a1.442,1.442,0,0,1,.176-.112q.192-.064.4-.112t.432-.112q.544-.16,1.088-.3t1.056-.3A53.971,53.971,0,0,0,44.016-.816a35.427,35.427,0,0,0,5.392-2.992,12,12,0,0,0-1.52-.48q-.784-.192-1.552-.384-.256-.064-.56-.112a2.865,2.865,0,0,1-.56-.144.352.352,0,0,1-.256-.352.277.277,0,0,1,.1-.192q.256-.224.528-.432t.5-.4q.576-.48,1.152-.944t1.184-.88a7.841,7.841,0,0,1,1.7,1.344,11.169,11.169,0,0,1,1.344,1.7,24.823,24.823,0,0,0,2.32-2.3,21.643,21.643,0,0,0,1.968-2.56l-5.92.032a44.106,44.106,0,0,1-4.448,2.96,19.457,19.457,0,0,1-4.928,2.032q-.512.128-1.04.256a4.534,4.534,0,0,1-1.072.128.574.574,0,0,1-.288-.1.27.27,0,0,1-.16-.224.491.491,0,0,1,.128-.224.77.77,0,0,1,.192-.192,3.333,3.333,0,0,1,.336-.176,3.333,3.333,0,0,0,.336-.176q.928-.48,1.824-1.056a27.674,27.674,0,0,0,4.08-3.056,28.311,28.311,0,0,0,3.44-3.792,33.289,33.289,0,0,1-6.208,2.3,26.326,26.326,0,0,1-6.592.8A3.006,3.006,0,0,1,34.9-10.5q-.336-.064-.336-.32a.343.343,0,0,1,.176-.256,1.145,1.145,0,0,1,.272-.16,3.4,3.4,0,0,1,.464-.16,4,4,0,0,1,.464-.1q.608-.192,1.184-.368t1.184-.368a44.839,44.839,0,0,0,4.432-1.632A34.26,34.26,0,0,0,46.912-16q-.992-.256-2-.528t-2.032-.5a2.269,2.269,0,0,1-.288-.1.227.227,0,0,1-.16-.224.351.351,0,0,1,.128-.224q.192-.16.72-.592t1.168-.928q.64-.5,1.168-.848a1.775,1.775,0,0,1,.72-.352,1.028,1.028,0,0,1,.656.352,5.872,5.872,0,0,1,.72.848q.352.5.656.96a7.829,7.829,0,0,1,.432.72A27.843,27.843,0,0,0,51.232-19.6a22.178,22.178,0,0,0,2.112-2.48H47.616a40.472,40.472,0,0,1-4.928,3.12,18.22,18.22,0,0,1-5.536,1.9,5.719,5.719,0,0,1-1.056.1.74.74,0,0,1-.3-.064.252.252,0,0,1-.144-.256.441.441,0,0,1,.1-.32A3.172,3.172,0,0,1,36-17.824q.384-.256.8-.48t.832-.48A33.491,33.491,0,0,0,42.72-22.8a29.705,29.705,0,0,0,4.192-4.944q.256.1.912.352t1.408.56q.752.3,1.344.576a3.141,3.141,0,0,1,.72.4.371.371,0,0,1,.064.256q0,.224-.432.688a10.378,10.378,0,0,1-.928.88q-.5.416-.72.608H58.5a.992.992,0,0,1,.384.08.325.325,0,0,1,.192.336A2.246,2.246,0,0,1,58.784-22a7.08,7.08,0,0,1-.544.912,18.435,18.435,0,0,1-3.184,3.328A31.856,31.856,0,0,1,51.264-15.1q.544.256,1.1.5t1.072.5a1.654,1.654,0,0,1,.3.16.323.323,0,0,1,.144.288q0,.256-.48.736a10.779,10.779,0,0,1-1.04.912q-.56.432-.784.624,2.368,0,4.736-.016t4.7-.016q.064,0,.1.1A.526.526,0,0,1,61.152-11.168Zm29.888-2.4q-.224,2.688-.608,5.36t-.96,5.328A10.142,10.142,0,0,1,88.5-.16a5.28,5.28,0,0,1-1.744,1.936,5.014,5.014,0,0,1-2.816.72,4.729,4.729,0,0,1-2.5-.72A9.7,9.7,0,0,1,79.3,0a21.974,21.974,0,0,1-1.664-2.048.6.6,0,0,0-.112-.192.339.339,0,0,1-.08-.224q0-.128.16-.128a2.113,2.113,0,0,1,.656.32q.528.32,1.328.736A12.749,12.749,0,0,0,81.312-.8a5.662,5.662,0,0,0,1.856.32,1.548,1.548,0,0,0,1.28-.608A4.424,4.424,0,0,0,85.184-2.5,14.521,14.521,0,0,0,85.568-3.9q.448-2.048.688-4.112t.432-4.112H79.872A30.443,30.443,0,0,1,78.816-8.72,21.084,21.084,0,0,1,77.28-5.472,12.392,12.392,0,0,1,76.048-3.68q-.688.832-1.424,1.632A12.37,12.37,0,0,1,71.888.192a20.9,20.9,0,0,1-3.216,1.536q-.416.16-.9.32a2.929,2.929,0,0,1-.928.16.405.405,0,0,1-.24-.08A.245.245,0,0,1,66.5,1.92a.4.4,0,0,1,.128-.288,1.682,1.682,0,0,1,.32-.256,2.912,2.912,0,0,0,.32-.224Q67.936.7,68.608.192A12.325,12.325,0,0,0,69.856-.9,19.3,19.3,0,0,0,73.52-6.032a25.065,25.065,0,0,0,2-5.888,38.417,38.417,0,0,0,.768-6.256l4.48.64q-.1.992-.256,1.984t-.352,1.984Zm3.68-6.976a1.56,1.56,0,0,1-.656,1.36,2.514,2.514,0,0,1-1.488.464h-26.3v-1.536H77.92q-.192-1.6-.416-3.2a27.126,27.126,0,0,1-.256-3.232q1.056,0,2.176.048a19.222,19.222,0,0,1,2.144.208,5.007,5.007,0,0,1,.624.128.9.9,0,0,1,.528.32.238.238,0,0,1,.064.176v.176a4.762,4.762,0,0,1-.192,1.168q-.192.72-.5,1.536t-.608,1.52q-.3.7-.5,1.152h9.184a2.508,2.508,0,0,1,.7-1.648,2.182,2.182,0,0,1,1.632-.656,2.352,2.352,0,0,1,1.52.56A1.789,1.789,0,0,1,94.72-20.544Zm27.968,6.3a.985.985,0,0,1-.192.608,3.175,3.175,0,0,1-.8.64,16.957,16.957,0,0,1-1.152,2.976,26.519,26.519,0,0,1-1.712,2.992,20.592,20.592,0,0,1-1.872,2.448,17.174,17.174,0,0,1-2.48,2.208,17.082,17.082,0,0,1-3.088,1.792A21.716,21.716,0,0,1,107.568.688a27.293,27.293,0,0,1-4.048.624q-.544.032-1.088.048t-.864.016q-.128,0-.352.016t-.256-.24A.2.2,0,0,1,101.1.944q.144-.048.272-.08a14.126,14.126,0,0,0,1.664-.32A18.436,18.436,0,0,0,106.8-.88a19.817,19.817,0,0,0,3.52-2.272,17.483,17.483,0,0,0,2.864-2.9,22.72,22.72,0,0,0,1.712-2.56,18.426,18.426,0,0,0,1.344-2.832,7.428,7.428,0,0,0,.528-2.544q-.032-.512-.672-.512-.16,0-.368.016a3.111,3.111,0,0,0-.368.048q-1.152.192-2.5.448t-2.7.56q-1.36.3-2.512.592t-1.888.544q-.224.128-.432.24a1.107,1.107,0,0,1-.528.112,3.02,3.02,0,0,1-.96-.16,3.794,3.794,0,0,1-1.776-1.168,3.328,3.328,0,0,1-.752-2.032,2.382,2.382,0,0,1,.016-.608,1.676,1.676,0,0,1,.368-.768,2.567,2.567,0,0,0,1.04.688,7.234,7.234,0,0,0,1.424.4,7.259,7.259,0,0,0,1.184.128q.8,0,2.16-.1t2.848-.224q1.488-.128,2.72-.272t1.808-.24a9.358,9.358,0,0,0,1.1-.3,7.549,7.549,0,0,0,.88-.336,7.141,7.141,0,0,1,.688-.288,3.527,3.527,0,0,1,.656-.192,3.24,3.24,0,0,1,1.136.208,5.551,5.551,0,0,1,.976.464q.448.288,1.008.7a6.383,6.383,0,0,1,.96.864A1.386,1.386,0,0,1,122.688-14.24Zm-4.16-6.88a.866.866,0,0,1-.512.832,4.905,4.905,0,0,1-.864.352q-.928.224-2.176.416t-2.512.32q-1.264.128-2.256.128a10.043,10.043,0,0,1-2.16-.192,3.673,3.673,0,0,1-1.52-.736,9.288,9.288,0,0,1-1.472-1.6q-.128-.16-.32-.384a.641.641,0,0,1-.192-.352q0-.384.32-.384a.738.738,0,0,1,.4.176,1.631,1.631,0,0,0,.432.24q.544.128.992.24a3.768,3.768,0,0,0,1.088.08,26.421,26.421,0,0,0,2.816-.352,19.2,19.2,0,0,0,3.3-.864q.352-.128.7-.24a2.311,2.311,0,0,1,.7-.112,4.811,4.811,0,0,1,.928.144,3.572,3.572,0,0,1,.864.272,3.036,3.036,0,0,1,.96.768A1.832,1.832,0,0,1,118.528-21.12Zm39.616,9.408a1.428,1.428,0,0,1-.656,1.248,3.137,3.137,0,0,1-1.584.512h-2.672q-1.04,0-1.9-.032-.416,0-.784-.016t-.752-.016q-2.816,0-5.056.08t-4.672.176q-.448.032-1.376.112t-1.984.192q-1.056.112-1.92.192a11.4,11.4,0,0,0-1.152.144,4.557,4.557,0,0,1-2.656-.752,2.593,2.593,0,0,1-1.088-2.288,2.934,2.934,0,0,1,.272-1.12,1.22,1.22,0,0,1,.688-.768,2.708,2.708,0,0,0,1.04.96,4.417,4.417,0,0,0,1.3.432,7.167,7.167,0,0,0,1.152.112q1.024,0,2.048.016t2.048-.016q1.7-.1,3.024-.192t3.024-.288q1.7-.192,2.976-.368t2.384-.432q1.1-.256,2.224-.608a12.142,12.142,0,0,1,2.592.336,8.817,8.817,0,0,1,2.08.752,4.3,4.3,0,0,1,.912.7A1.345,1.345,0,0,1,158.144-11.712ZM185.472-6.56a2.24,2.24,0,0,1-.592,1.552,1.955,1.955,0,0,1-1.52.656,1.71,1.71,0,0,1-1.184-.464,6.938,6.938,0,0,1-.9-.976q-.64-.864-1.328-1.712a11.612,11.612,0,0,0-1.52-1.552A26.339,26.339,0,0,1,174.48-4.72a20.05,20.05,0,0,1-4.448,2.9A32.224,32.224,0,0,1,164.512.16q-.16.032-.368.064a2.453,2.453,0,0,1-.368.032A2.062,2.062,0,0,1,163.52.24.13.13,0,0,1,163.392.1q0-.128.192-.224l.256-.128a20.663,20.663,0,0,0,2.816-1.6,24,24,0,0,0,2.56-1.984q1.024-.928,2.272-2.288t2.352-2.816a15.551,15.551,0,0,0,1.68-2.672q-1.28-.96-2.672-1.808t-2.8-1.616q-.544-.288-1.088-.608t-1.088-.576l-.256-.128q-.128-.064-.288-.128a.8.8,0,0,0-.144-.1q-.112-.064-.112-.128,0-.128.256-.128h.288a13.9,13.9,0,0,1,2.224.208q1.264.208,2.592.544t2.544.768a18.93,18.93,0,0,1,2.112.88q.32-.768.7-1.92t.672-2.32a8.4,8.4,0,0,0,.288-1.936,1.792,1.792,0,0,0-.464-1.248,2.652,2.652,0,0,0-1.1-.736,6.057,6.057,0,0,1,1.216-.752,3.182,3.182,0,0,1,1.376-.336,3.433,3.433,0,0,1,1.824.608,6.223,6.223,0,0,1,1.632,1.488,2.913,2.913,0,0,1,.672,1.776.878.878,0,0,1-.272.608,2.746,2.746,0,0,1-.528.448q-.512,1.6-1.072,3.2a24.916,24.916,0,0,1-1.328,3.1,6.812,6.812,0,0,1,1.424.9,15.353,15.353,0,0,1,1.264,1.12,9.044,9.044,0,0,1,1.5,1.7A3.842,3.842,0,0,1,185.472-6.56Zm35.552-12q-.224.48-.48,1.1t-.48,1.072a37.767,37.767,0,0,1-2.16,3.824A25.776,25.776,0,0,1,214.752-8.7a27.388,27.388,0,0,1-2.512,2.256A33.471,33.471,0,0,1,209.1-4.224a34.1,34.1,0,0,1-3.456,1.9,21.493,21.493,0,0,1-3.5,1.328,1.927,1.927,0,0,1-1.12-.128,13.265,13.265,0,0,1-1.328-.816,4.4,4.4,0,0,1-1.2-1.232q-.128-.224-.336-.576a1.886,1.886,0,0,1-.208-.96,5.485,5.485,0,0,1,.144-1.44,3.228,3.228,0,0,1,.688-1.408q.16.288.416.72a3.147,3.147,0,0,0,.64.768,1.318,1.318,0,0,0,.9.336,9.115,9.115,0,0,0,2.736-.512,28.375,28.375,0,0,0,3.264-1.3q1.68-.784,3.136-1.648a25.815,25.815,0,0,0,2.384-1.568q1.28-.992,2.416-1.9t2.16-1.9q.608-.576,1.152-1.088a11.939,11.939,0,0,0,1.088-1.184q.256-.352.72-.928t.752-.928q.064-.1.128-.176a.84.84,0,0,0,.1-.144.307.307,0,0,1,.224-.1q.128,0,.112.192A1.215,1.215,0,0,1,221.024-18.56Zm-14.144.992a3.134,3.134,0,0,1-.832,2.128,2.658,2.658,0,0,1-2.08.944,1.572,1.572,0,0,1-1.328-.56,3.239,3.239,0,0,1-.592-1.2A6.411,6.411,0,0,0,201.3-17.9a6.87,6.87,0,0,0-1.312-1.536,4.272,4.272,0,0,0-1.808-.944q-.32-.1-.352-.224,0-.064.24-.176a4.115,4.115,0,0,1,.432-.176,6.8,6.8,0,0,1,1.328-.256,12.562,12.562,0,0,1,1.328-.1,11.227,11.227,0,0,1,1.808.16,7.581,7.581,0,0,1,1.872.56,3.8,3.8,0,0,1,1.472,1.136A2.972,2.972,0,0,1,206.88-17.568ZM11.36,40.688A8.146,8.146,0,0,1,11.1,39.28q-.064-.7-.064-1.408,0-.832.08-1.7t.112-1.728a13.434,13.434,0,0,0-1.7,1.584,9.324,9.324,0,0,0-1.424,2.032,4.778,4.778,0,0,0-.56,2.208,2.032,2.032,0,0,0,.288,1.12,1.123,1.123,0,0,0,1.024.448,2.737,2.737,0,0,0,1.312-.416A13.636,13.636,0,0,0,11.36,40.688Zm6.24-8.64a9.132,9.132,0,0,0-3.168.672q-.032.608-.08,1.184T14.3,35.088q0,.7.048,1.376a12.785,12.785,0,0,0,.176,1.376,16.746,16.746,0,0,0,1.936-2.7A9.939,9.939,0,0,0,17.6,32.048Zm-.544-7.232a.288.288,0,0,0-.192-.256,5.037,5.037,0,0,0-1.184-.576q-.16.48-.32,1.024A10.034,10.034,0,0,0,15.1,26.1a6.6,6.6,0,0,0,.9-.4q.448-.24.864-.5A.431.431,0,0,0,17.056,24.816ZM27.872,37.872a8.5,8.5,0,0,1-.8,3.84,8.276,8.276,0,0,1-2.16,2.72,12.48,12.48,0,0,1-3.1,1.856,28.544,28.544,0,0,1-3.632,1.248,10.69,10.69,0,0,1-1.584.32q-.784.1-1.584.256-.16.032-.336.08a1.277,1.277,0,0,1-.336.048q-.384,0-.384-.32,0-.224.288-.3t.448-.112a21.515,21.515,0,0,0,4.368-1.792,8.685,8.685,0,0,0,3.136-2.88,8.231,8.231,0,0,0,1.168-4.576,7.589,7.589,0,0,0-.5-2.736,5.53,5.53,0,0,0-1.5-2.192,4.936,4.936,0,0,0-2.512-1.152,12.013,12.013,0,0,1-1.024,4.352,20.634,20.634,0,0,1-2.24,3.9,5.1,5.1,0,0,0,.5,1.088,2.237,2.237,0,0,1,.368.96,1.252,1.252,0,0,1-.5,1.072,1.857,1.857,0,0,1-1.136.368,2.507,2.507,0,0,1-.96-.16,4.319,4.319,0,0,1-.832-.48q-.512.448-1.232.96a10.088,10.088,0,0,1-1.488.88,3.465,3.465,0,0,1-1.5.368,2.966,2.966,0,0,1-1.6-.352,2.557,2.557,0,0,1-.9-1.344,3.594,3.594,0,0,0-.336-.72,1.591,1.591,0,0,0-.656-.432A2.228,2.228,0,0,1,4.368,42a1.715,1.715,0,0,1-.3-1.088,5.076,5.076,0,0,1,.624-2.352,10.722,10.722,0,0,1,1.6-2.272,15.122,15.122,0,0,1,2.08-1.9,13.579,13.579,0,0,1,2.064-1.312q.256-.128.5-.224t.464-.192q.064-.672.112-1.36t.144-1.36A12.592,12.592,0,0,1,9.1,29.712a4.894,4.894,0,0,1-1.936-.864A7.97,7.97,0,0,1,5.44,26.96a.8.8,0,0,0-.112-.208.366.366,0,0,1-.08-.208q0-.288.256-.288a.488.488,0,0,1,.3.112q.144.112.272.208a3.738,3.738,0,0,0,1.44.688,7.29,7.29,0,0,0,1.632.176,10.336,10.336,0,0,0,1.568-.128,6.434,6.434,0,0,0,1.248-.288q.1-.608.144-1.36t.048-1.392a2.132,2.132,0,0,0-.32-1.232,2.436,2.436,0,0,0-.672-.688,2.185,2.185,0,0,0-.672-.32,1.251,1.251,0,0,1,.528-.96,2.727,2.727,0,0,1,1.04-.432,5.107,5.107,0,0,1,.928-.112,4.368,4.368,0,0,1,1.44.256,3.622,3.622,0,0,1,1.264.736,1.572,1.572,0,0,1,.528,1.216.758.758,0,0,1-.1.368q-.1.176-.192.336a2.919,2.919,0,0,0,.784.16,6.957,6.957,0,0,0,.944,0,5.121,5.121,0,0,0,.976-.176,3.405,3.405,0,0,1,.848-.144,2.082,2.082,0,0,1,1.392.576,1.628,1.628,0,0,1-.016,2.624A7.877,7.877,0,0,1,19.456,27.5a18.031,18.031,0,0,1-2.64,1.216,15.8,15.8,0,0,1-2.192.672q-.032.576-.064,1.136t-.1,1.1a19.576,19.576,0,0,1,3.328-.672q.032-.352.032-.688v-.656q0-.224.256-.224.16,0,.32.32a4.4,4.4,0,0,1,.272.688,2.152,2.152,0,0,1,.112.5,2.332,2.332,0,0,1,.384-.032h.352a10.766,10.766,0,0,1,3.632.656,8.075,8.075,0,0,1,3.12,1.968A5.182,5.182,0,0,1,27.52,35.52,7.7,7.7,0,0,1,27.872,37.872Zm31.552-1.088a12.149,12.149,0,0,1-1.84,5.344,11.305,11.305,0,0,1-3.952,3.76A10.817,10.817,0,0,1,48.16,47.28a7.264,7.264,0,0,1-5.472-2.048,8.448,8.448,0,0,1-2.24-5.44q-.1-1.12-.1-2.176,0-2.848.224-5.584t.224-5.456q0-.448-.032-1.088a4.545,4.545,0,0,0-.224-1.216,1.4,1.4,0,0,0-.672-.832,1.955,1.955,0,0,0-.64-.24q-.384-.08-.672-.112a1.033,1.033,0,0,1,.688-.768,5.465,5.465,0,0,1,1.36-.416,7.067,7.067,0,0,1,1.088-.128,3.06,3.06,0,0,1,1.952.656,4.484,4.484,0,0,1,1.3,1.648,4.714,4.714,0,0,1,.464,2.016q0,.192-.016.384t-.048.384q-.192,1.12-.432,2.256t-.4,2.256q-.256,1.792-.448,3.712t-.192,3.744q0,4.96,4.928,4.96a10.537,10.537,0,0,0,4.3-.912,11.859,11.859,0,0,0,3.664-2.528A11.113,11.113,0,0,0,59.2,36.688Zm-4.96-8.864a1.613,1.613,0,0,1-.336,1.072,1.283,1.283,0,0,1-1.04.4,1.148,1.148,0,0,1-.784-.336,1.723,1.723,0,0,1-.5-.72,6.675,6.675,0,0,0-.3-.7q-.176-.352-.368-.672a3.44,3.44,0,0,0-1.408-1.408.426.426,0,0,0-.144-.1.125.125,0,0,1-.08-.128q0-.1.128-.128a.875.875,0,0,1,.192-.032,7.952,7.952,0,0,1,2.224.32,4.115,4.115,0,0,1,1.9,1.184,2.257,2.257,0,0,1,.384.576A1.642,1.642,0,0,1,54.464,27.92ZM57.6,25.456a1.494,1.494,0,0,1-.4,1.024,1.166,1.166,0,0,1-.976.416h-.1a1.171,1.171,0,0,1-.608-.256,1.878,1.878,0,0,1-.448-.48,7.251,7.251,0,0,0-1.536-1.92,4.165,4.165,0,0,0-.512-.368q-.416-.272-.784-.544a2.613,2.613,0,0,0-.4-.272q.032-.128.352-.16t.688-.048q.368-.016.464-.016.416,0,.832.032t.8.1a4,4,0,0,1,1.776.816A2.034,2.034,0,0,1,57.6,25.456ZM79.04,42.384v-2.56h-2.3v2.56Zm0-3.776V36.272h-2.3v2.336ZM85.5,36.272H82.688v2.3h.256a1.066,1.066,0,0,1,1.216-.992,1.052,1.052,0,0,1,.784.352,1.128,1.128,0,0,1,.336.8.889.889,0,0,1-.48.9,2.391,2.391,0,0,1-1.088.208q-.608-.016-1.024-.016v2.56h1.376a1.332,1.332,0,0,0,1.12-.416,1.849,1.849,0,0,0,.32-1.152q0-.256-.016-.528t-.016-.528q0-.576.016-1.168t.016-1.2Zm.928-1.216A23.485,23.485,0,0,1,84.64,33.12q-.832-1.008-1.6-2.1l2.336-.992H80.032q-.9,1.312-1.856,2.576a29.719,29.719,0,0,1-2.08,2.448H79.04v-2.3h3.648v2.3ZM95.9,37.872a1.128,1.128,0,0,1-.5.944,1.72,1.72,0,0,1-1.04.368,7.508,7.508,0,0,1-2.736-.528,11.249,11.249,0,0,1-2.48-1.328v2.24a5.128,5.128,0,0,1-.512,2.544,2.687,2.687,0,0,1-1.424,1.216,6.468,6.468,0,0,1-2.064.368q-1.152.032-2.464.032v.352a2.553,2.553,0,0,0,.672,1.888,3.68,3.68,0,0,0,1.7.944,7.831,7.831,0,0,0,2.016.272,14.093,14.093,0,0,0,1.648-.1A6.736,6.736,0,0,0,90.3,46.7a1.78,1.78,0,0,1-.416-1.152,1.413,1.413,0,0,1,.592-1.184,2.1,2.1,0,0,1,1.3-.448,1.632,1.632,0,0,1,1.2.544A1.707,1.707,0,0,1,93.5,45.68a1.637,1.637,0,0,1-.528,1.216,4.257,4.257,0,0,1-1.248.832,9.515,9.515,0,0,1-1.3.48,13.134,13.134,0,0,1-2.384.416q-1.2.1-2.416.1a12.865,12.865,0,0,1-2.256-.208,7.673,7.673,0,0,1-2.144-.7,4.21,4.21,0,0,1-1.584-1.376,3.824,3.824,0,0,1-.608-2.224v-.48q-1.408,0-2.832-.016T73.376,43.7V37.424a5.821,5.821,0,0,1-1.12.656q-.608.272-1.216.528a17,17,0,0,1-.608,2.272q-.384,1.12-.864,2.208a10.74,10.74,0,0,1-1.168,2,15.808,15.808,0,0,1-1.632,1.92,10.118,10.118,0,0,1-1.808,1.456.516.516,0,0,1-.224.064.255.255,0,0,1-.288-.288.185.185,0,0,1,.032-.128,21.1,21.1,0,0,0,1.6-2.976,18.144,18.144,0,0,0,1.056-3.2,29.649,29.649,0,0,0,.7-5.152q.128-2.624.128-5.216,0-4.128-.1-8.256h10.3q-.224-1.12-.416-2.208l-.384-2.176,4.544.288a1.856,1.856,0,0,1,.48.1q.32.1.32.352a2.668,2.668,0,0,1-.4,1.12q-.4.736-.88,1.456T80.7,23.312h7.872a.526.526,0,0,0-.016-.128.438.438,0,0,1-.016-.1,1.644,1.644,0,0,1,.592-1.328,2.064,2.064,0,0,1,2.7.016,1.547,1.547,0,0,1,.64,1.248,1.6,1.6,0,0,1-.544,1.312,2.093,2.093,0,0,1-1.376.448H71.872q0,3.008-.08,6.288a49.4,49.4,0,0,1-.528,6.224,26.56,26.56,0,0,0,2.672-3.488q1.168-1.824,2.224-3.776H72.384V28.656h4.288q.8-1.792,1.44-3.712l3.776.9a.6.6,0,0,1,.288.112.384.384,0,0,1,.1.3,1.8,1.8,0,0,1-.272.72,11.042,11.042,0,0,1-.592.96q-.32.464-.48.72h8.384a1.121,1.121,0,0,1-.064-.352,1.561,1.561,0,0,1,.576-1.232,1.915,1.915,0,0,1,1.28-.5,1.951,1.951,0,0,1,1.28.48,1.515,1.515,0,0,1,.576,1.216,1.6,1.6,0,0,1-.56,1.28,1.975,1.975,0,0,1-1.328.48h-4.48A23.244,23.244,0,0,0,88.32,32.72a29.43,29.43,0,0,0,2.272,2.736,16.748,16.748,0,0,0,2.368,2.128,1.506,1.506,0,0,1,.5-.9,1.383,1.383,0,0,1,.944-.352,1.429,1.429,0,0,1,1.072.448A1.51,1.51,0,0,1,95.9,37.872Zm19.872-7.008h-8.8v2.624h5.184a1.222,1.222,0,0,1,.448-.9,1.4,1.4,0,0,1,.928-.352,1.861,1.861,0,0,1,.976.3.947.947,0,0,1,.5.848,1.292,1.292,0,0,1-.432,1.04,1.6,1.6,0,0,1-1.072.368h-6.528v2.272h6.24a2.419,2.419,0,0,0,1.952-.72,3.007,3.007,0,0,0,.608-2Zm2.208-1.248a18.857,18.857,0,0,1-2.976-2.928,38.016,38.016,0,0,1-2.464-3.408l-.912.416q-.56.256-1.088.528a5.383,5.383,0,0,0-.816.5q-.1.1-.352.4t-.512.64a5.181,5.181,0,0,1-.416.5q-.8.9-1.648,1.76a19.241,19.241,0,0,1-1.776,1.6h4.928q-.128-.832-.24-1.648t-.272-1.616q.256.032.88.064t1.344.1q.72.064,1.28.128a1.464,1.464,0,0,1,.656.16.129.129,0,0,1,.064.128v.16a2.229,2.229,0,0,1-.24.72q-.24.528-.512,1.056t-.4.752Zm9.7,2.272a1.2,1.2,0,0,1-.624,1.04,2.232,2.232,0,0,1-1.2.4,7.956,7.956,0,0,1-3.312-.672,14.505,14.505,0,0,1-2.9-1.76v2.688a4.9,4.9,0,0,1-.8,3.008,4.066,4.066,0,0,1-2.176,1.456,11.118,11.118,0,0,1-3.1.4h-6.592v7.2a24.437,24.437,0,0,0,6.432-1.472,18.586,18.586,0,0,1-1.28-1.568,14.658,14.658,0,0,1-1.088-1.728q2.176-.64,4.368-1.472a31.342,31.342,0,0,0,4.144-1.92q.128.128.48.5t.752.816q.4.448.688.8a1.046,1.046,0,0,1,.288.512.3.3,0,0,1-.208.3l-.368.144q-.512.128-1.024.208t-1.024.144q-.96.128-1.9.272t-1.9.272a13.721,13.721,0,0,0,1.7,2.176,21.977,21.977,0,0,0,2.192,2.032,18.721,18.721,0,0,0,2.256,1.584,2.269,2.269,0,0,1,.672-1.152,1.718,1.718,0,0,1,1.216-.48,2.163,2.163,0,0,1,1.344.5,1.509,1.509,0,0,1,.048,2.432,1.975,1.975,0,0,1-1.3.5,9.035,9.035,0,0,1-2.256-.32,15.04,15.04,0,0,1-2.192-.736,13.714,13.714,0,0,1-2.624-1.424q-1.28-.88-2.4-1.808a14.187,14.187,0,0,1-2.976,2.032,17.6,17.6,0,0,1-3.536,1.376,13.686,13.686,0,0,1-3.568.5h-.512l.128-17.888a16.256,16.256,0,0,1-1.376.928q-.928.576-2.016,1.136a22.68,22.68,0,0,1-2.064.944,4.523,4.523,0,0,1-1.52.384q-.32,0-.32-.288a.37.37,0,0,1,.112-.272.925.925,0,0,1,.24-.176q.736-.544,1.456-1.072a17.494,17.494,0,0,0,1.392-1.136,36.394,36.394,0,0,0,5.024-5.824,34.132,34.132,0,0,0,3.584-6.784l4.192,1.5a.545.545,0,0,1,.192.08.254.254,0,0,1,.064.208,1.956,1.956,0,0,1-.336.64q-.336.512-.7,1.008t-.5.656q.256-.16.864-.464t1.344-.64q.736-.336,1.344-.576a2.846,2.846,0,0,1,.832-.24.813.813,0,0,1,.752.336q.208.336.432.752.544,1.056,1.088,2.08a14.412,14.412,0,0,0,1.248,1.952,35.009,35.009,0,0,0,2.48,3.008,15.854,15.854,0,0,0,2.992,2.528,2.357,2.357,0,0,1,.656-.912,1.55,1.55,0,0,1,1.04-.368,1.569,1.569,0,0,1,1.2.5A1.734,1.734,0,0,1,127.68,31.888Zm20.7-.032H140v4.32h6.944a1.258,1.258,0,0,0,1.136-.464,2.153,2.153,0,0,0,.3-1.2ZM158.176,46a1.7,1.7,0,0,1-.64,1.408,2.29,2.29,0,0,1-1.472.512H130.592V46.352h11.552V42.16h-8.1v-1.5h8.1V37.52h-5.728V30.48H152.1v3.776a3.486,3.486,0,0,1-.544,2.144,2.544,2.544,0,0,1-1.44.928,7.635,7.635,0,0,1-1.968.208q-1.072-.016-2.128-.016v3.136h4.928a1.963,1.963,0,0,1,.544-1.264,1.594,1.594,0,0,1,1.216-.56,2.269,2.269,0,0,1,1.344.432,1.6,1.6,0,0,1,.016,2.5,2.427,2.427,0,0,1-1.392.4h-6.656v4.192h8a1.518,1.518,0,0,1-.032-.352,1.723,1.723,0,0,1,.624-1.408,2.226,2.226,0,0,1,1.456-.512,2.29,2.29,0,0,1,1.472.512A1.7,1.7,0,0,1,158.176,46ZM139.744,25.1a.522.522,0,0,1-.272.48,1.091,1.091,0,0,1-.56.16.689.689,0,0,1-.272-.048q-.112-.048-.272-.112a7.2,7.2,0,0,1-.816-.624q-.592-.5-1.3-1.152t-1.3-1.2q-.592-.544-.784-.768.512-.192,1.392-.512t1.744-.576a5.077,5.077,0,0,1,1.312-.256.41.41,0,0,1,.32.144,1.038,1.038,0,0,1,.192.3,4.6,4.6,0,0,1,.16.736q.1.576.208,1.3t.176,1.328Q139.744,24.912,139.744,25.1ZM158.88,26.64a3.381,3.381,0,0,1-.336,1.2,12.488,12.488,0,0,1-.9,1.68,16.272,16.272,0,0,1-1.216,1.7,9.636,9.636,0,0,1-1.3,1.328,1.9,1.9,0,0,1-1.152.528.453.453,0,0,1-.512-.512,6.844,6.844,0,0,1,.048-.816q.048-.4.08-.816.064-.768.112-1.52t.112-1.52H134.688v4.864h-3.744V26.32h11.168V19.472h3.872V26.32h12.448a.74.74,0,0,1,.3.064A.252.252,0,0,1,158.88,26.64ZM154.3,22a.363.363,0,0,1-.1.24,2.2,2.2,0,0,0-.16.208,5.5,5.5,0,0,1-.656.48q-.528.352-1.248.816t-1.456.9q-.736.432-1.264.736a3.242,3.242,0,0,1-.688.336.549.549,0,0,1-.224.032,1.179,1.179,0,0,1-.432-.1.331.331,0,0,1-.24-.32,4.708,4.708,0,0,1,.288-.8q.288-.7.672-1.632t.7-1.712q.32-.784.416-1.008.736.224,1.488.5l1.456.528q.256.1.56.192a2.71,2.71,0,0,1,.528.224.585.585,0,0,1,.24.128A.32.32,0,0,1,154.3,22Z" transform="translate(-1.44 27.744)" fill="#fff"/></svg>