<svg xmlns="http://www.w3.org/2000/svg" width="191.296" height="76.432" viewBox="0 0 191.296 76.432"><path d="M24.32-6.336H16.1V.672h5.44a2.786,2.786,0,0,0,2.144-.7,3.1,3.1,0,0,0,.64-2.144ZM12-24.192a26.693,26.693,0,0,1-1.344,2.752q-.832,1.5-1.76,2.928a24.607,24.607,0,0,1-1.824,2.48H8.736V2.144H5.056V-13.44q-.288.288-.88.784t-1.3,1.008a12.754,12.754,0,0,1-1.344.864,2.317,2.317,0,0,1-1.024.352.226.226,0,0,1-.256-.256A.95.95,0,0,1,.48-11.12a4.514,4.514,0,0,1,.288-.368A32.672,32.672,0,0,0,3.632-15.92,48.206,48.206,0,0,0,6-20.96a38.779,38.779,0,0,0,1.648-5.024ZM28.224-2.624a5.479,5.479,0,0,1-.688,3.04,3.35,3.35,0,0,1-1.968,1.376,11.7,11.7,0,0,1-3.072.352H12.32V-7.712h15.9Zm-.16-9.632A1.3,1.3,0,0,1,27.5-11.1a2.183,2.183,0,0,1-1.264.384H12.448v-1.536H24.32a1.688,1.688,0,0,1,.624-1.2,1.929,1.929,0,0,1,1.264-.464,1.961,1.961,0,0,1,1.248.5A1.472,1.472,0,0,1,28.064-12.256Zm0-4.256a1.253,1.253,0,0,1-.576,1.136,2.274,2.274,0,0,1-1.248.368H12.448v-1.536H24.32a1.661,1.661,0,0,1,.624-1.168,1.929,1.929,0,0,1,1.264-.464,1.961,1.961,0,0,1,1.248.5A1.472,1.472,0,0,1,28.064-16.512Zm3.264-4.8A1.513,1.513,0,0,1,30.7-20a2.38,2.38,0,0,1-1.424.448H10.72v-1.5h7.616q-.32-1.376-.608-2.736t-.48-2.736q.32,0,1.056.032t1.584.048q.848.016,1.52.064a4.542,4.542,0,0,1,.864.112.729.729,0,0,1,.3.144.5.5,0,0,1,.08.336,4.159,4.159,0,0,1-.16.912q-.16.624-.4,1.376t-.464,1.424q-.224.672-.32,1.024h5.824a2.544,2.544,0,0,1,.576-1.584,1.884,1.884,0,0,1,1.536-.656,2.153,2.153,0,0,1,1.488.528A1.851,1.851,0,0,1,31.328-21.312Zm7.264,5.088a1.5,1.5,0,0,1-.112.544q-.112.288-.208.544a17.031,17.031,0,0,1-1.52,2.848,10.655,10.655,0,0,1-2.1,2.432q-.192.16-.7.512a1.618,1.618,0,0,1-.768.352q-.416,0-.416-.352a.526.526,0,0,1,.016-.128.625.625,0,0,1,.048-.128A23.083,23.083,0,0,0,34.1-13.552q.464-2.064.72-4.08.576.128,1.152.3t1.152.336q.288.064.608.144a5.327,5.327,0,0,1,.576.176A.453.453,0,0,1,38.592-16.224Zm8.416,3.808q0,.448-.416.448a.88.88,0,0,1-.368-.08,3.333,3.333,0,0,1-.336-.176A4.214,4.214,0,0,1,45.2-12.8q-.464-.448-.992-1.008t-.976-1.056q-.448-.5-.64-.72.032.864.048,1.728t.016,1.728a34.8,34.8,0,0,1-.272,4.32A12.453,12.453,0,0,1,41.12-3.68,6.107,6.107,0,0,1,40.5-2.64q-.368.5-.72.976a6.466,6.466,0,0,1-1.12,1.1q-.736.592-1.5,1.12a13.957,13.957,0,0,1-1.376.848q-.16.1-.656.32t-1.008.432a2.42,2.42,0,0,1-.672.208.283.283,0,0,1-.32-.32q0-.1.144-.208a1.507,1.507,0,0,1,.208-.144q.9-.736,1.68-1.488A9.123,9.123,0,0,0,36.544-1.5a11.52,11.52,0,0,0,1.872-4.7,32.506,32.506,0,0,0,.4-5.088q0-3.424-.064-6.864t-.064-6.864h3.968q0,1.888-.016,3.776t-.048,3.776q.192-.128.64-.48t.912-.656a1.592,1.592,0,0,1,.624-.3.637.637,0,0,1,.608.384,2.982,2.982,0,0,1,.224.7q.128.544.256,1.136t.192.848q.192.8.432,1.568t.464,1.536A1.053,1.053,0,0,1,47.008-12.416Zm8.736-.544a.424.424,0,0,1-.48.48,1.362,1.362,0,0,1-.608-.16,8.744,8.744,0,0,1-.784-.592q-.528-.432-1.12-.976t-1.1-1.04q-.512-.5-.768-.752V1.312H47.2V-25.024h3.68V-17.7l.768-.768q.384-.384.736-.768a2.658,2.658,0,0,1,.368-.3.749.749,0,0,1,.432-.144.536.536,0,0,1,.416.176.993.993,0,0,1,.224.4q.064.128.272.784t.48,1.536l.544,1.76q.272.88.448,1.456T55.744-12.96ZM59.808,2.368H55.936V-25.248h3.872ZM88.448-21.7H83.3v2.784h1.856a1.585,1.585,0,0,1,.4-.96,1.243,1.243,0,0,1,.944-.352,1.325,1.325,0,0,1,.832.336.988.988,0,0,1,.416.784A1.259,1.259,0,0,1,86.3-17.7H83.3v2.368h3.456a1.537,1.537,0,0,0,1.312-.512,2.241,2.241,0,0,0,.384-1.376Zm-9.7,12.064a1.1,1.1,0,0,1-.64,1.056,2.84,2.84,0,0,1-1.28.32H73.28q-.064.352-.128.72t-.16.72l1.44-.48a6.781,6.781,0,0,0,.352.832q.288.608.64,1.392t.7,1.536q.352.752.576,1.248a5.261,5.261,0,0,1,.224.528q0,.544-.48.544a1.782,1.782,0,0,1-.912-.448,13.326,13.326,0,0,1-1.248-1.088q-.656-.64-1.2-1.232t-.8-.88a8.8,8.8,0,0,1-2.048,3.28,12.965,12.965,0,0,1-3.1,2.32,7.38,7.38,0,0,1-.944.448,2.827,2.827,0,0,1-1.008.256.686.686,0,0,1-.176-.032A.13.13,0,0,1,64.9,1.28a.3.3,0,0,1,.128-.256,2.089,2.089,0,0,0,.224-.192,16.279,16.279,0,0,0,1.52-1.456A9.3,9.3,0,0,0,68-2.3a13.863,13.863,0,0,0,1.232-2.88,16.528,16.528,0,0,0,.624-3.072H64.928V-9.568H69.92a11.607,11.607,0,0,0,.064-1.216V-12H66.112v-1.344h3.872v-1.3q0-.656-.032-1.3l3.744.128q0,.608-.016,1.216t-.048,1.248h1.12a1.274,1.274,0,0,1,.464-1.008,1.552,1.552,0,0,1,1.04-.4,1.258,1.258,0,0,1,.96.464,1.448,1.448,0,0,1,.416.976,1.083,1.083,0,0,1-.5,1.024A2.221,2.221,0,0,1,76-12H73.6l-.064,1.216q-.032.608-.1,1.216h2.24a1.363,1.363,0,0,1,.512-1.056,1.63,1.63,0,0,1,1.088-.448,1.435,1.435,0,0,1,1.024.432A1.358,1.358,0,0,1,78.752-9.632Zm2.88,4.16a2.816,2.816,0,0,1-.32,1.1,13.553,13.553,0,0,1-.8,1.456q-.48.768-.96,1.408t-.768.96A9.894,9.894,0,0,1,77.536.512a2.884,2.884,0,0,0-.352.224A.7.7,0,0,1,76.8.9q-.288,0-.288-.256a.673.673,0,0,1,.016-.16.625.625,0,0,1,.048-.128A17.855,17.855,0,0,0,77.712-3.04q.4-1.76.72-3.52l3.04.832A.249.249,0,0,1,81.632-5.472ZM69.248-16.416a.7.7,0,0,1-.16.432.5.5,0,0,1-.416.208A.856.856,0,0,1,68-16.064a14.288,14.288,0,0,1-1.5-1.952q-.7-1.088-1.44-2.016.192-.064.656-.24t1.008-.368q.544-.192.992-.336a2.608,2.608,0,0,1,.576-.144.736.736,0,0,1,.384.08.53.53,0,0,1,.192.336,6.142,6.142,0,0,1,.208,1.248q.08.864.128,1.728T69.248-16.416ZM84.544-5.76q0,.48-.064,1.44T84.3-2.432a6.143,6.143,0,0,1-.272,1.344.634.634,0,0,1-.64.512.344.344,0,0,1-.32-.16,1.768,1.768,0,0,1-.16-.352Q82.656-2.3,82.384-3.52t-.592-2.4q.608-.128,1.216-.208a9.312,9.312,0,0,1,1.216-.08.258.258,0,0,1,.24.144A.617.617,0,0,1,84.544-5.76Zm2.56-.352q0,.224-.048.816T86.96-4q-.048.7-.112,1.264a3.553,3.553,0,0,1-.128.72,1.4,1.4,0,0,1-.208.384.477.477,0,0,1-.368.256.649.649,0,0,1-.368-.08.578.578,0,0,1-.176-.336q-.224-1.088-.384-2.176t-.384-2.176q.512-.064,1.024-.176a4.779,4.779,0,0,1,1.024-.112q.16,0,.192.112A.76.76,0,0,1,87.1-6.112ZM73.088-21.248q0,.864-.032,1.808a16.049,16.049,0,0,1-.16,1.808,3.827,3.827,0,0,1-.176.768.577.577,0,0,1-.592.448.774.774,0,0,1-.7-.352,9.323,9.323,0,0,1-.672-1.216q-.384-.8-.736-1.648t-.576-1.36q.16-.032.608-.144t.992-.256q.544-.144.96-.24a3.45,3.45,0,0,1,.512-.1.932.932,0,0,1,.416.08Q73.088-21.568,73.088-21.248ZM89.7-6.464q0,.224-.048.912T89.472-4.1a8.384,8.384,0,0,1-.32,1.328q-.192.56-.48.56-.416,0-.512-.48L87.424-6.5q.48-.064.992-.176a4.638,4.638,0,0,1,.992-.112Q89.7-6.784,89.7-6.464ZM79.072-20.9a1.663,1.663,0,0,1-.432.768,13.378,13.378,0,0,1-1.12,1.216q-.688.672-1.424,1.3a12.946,12.946,0,0,1-1.36,1.024,2.057,2.057,0,0,1-.912.4.262.262,0,0,1-.16-.1.262.262,0,0,1-.1-.16.5.5,0,0,1,.048-.224,1.465,1.465,0,0,0,.08-.192q.544-1.376.992-2.8a22.879,22.879,0,0,0,.7-2.864q.192.1.768.32t1.264.5q.688.272,1.168.5T79.072-20.9Zm-.352-3.648q0,.192-.256.32a7.266,7.266,0,0,1-1.024.384q-.544.16-1.056.288-2.912.7-5.92,1.36a28.306,28.306,0,0,1-6.048.656.363.363,0,0,1-.24-.1.288.288,0,0,1-.112-.224q0-.1.208-.24A1.4,1.4,0,0,1,64.8-22.3a7.071,7.071,0,0,0,.768-.24q.384-.144.512-.176,2.464-.928,4.9-2.048A40.979,40.979,0,0,0,75.648-27.3l.64.512q.48.384,1.04.864t.976.88Q78.72-24.64,78.72-24.544Zm16.832,12.1A1.292,1.292,0,0,1,94.9-11.2a2.965,2.965,0,0,1-1.424.352H83.3V-8.9H94.24q-.032,1.12-.064,2.688a30.686,30.686,0,0,1-.24,3.216A13.769,13.769,0,0,1,93.2.08a5.625,5.625,0,0,1-1.52,2.3,3.761,3.761,0,0,1-2.592.88,3.625,3.625,0,0,1-1.232-.336,14.4,14.4,0,0,1-1.68-.832A15.571,15.571,0,0,1,84.7,1.152Q84.1.7,84.1.48a.125.125,0,0,1,.1-.128.526.526,0,0,1,.16-.032A2.918,2.918,0,0,1,84.8.368a4.675,4.675,0,0,1,.512.112q.544.1,1.072.176a7.594,7.594,0,0,0,1.136.08A1.477,1.477,0,0,0,87.728.72,1.7,1.7,0,0,1,87.968.7,2,2,0,0,0,89.3.128a2.863,2.863,0,0,0,.624-1.2,8.5,8.5,0,0,0,.256-1.456q.128-1.28.176-2.576T90.4-7.68H79.872V-23.04h2.176q.448-1.12.832-2.224t.7-2.256a16.583,16.583,0,0,1,1.952.384q.992.256,1.952.512a1.586,1.586,0,0,1,.48.16.433.433,0,0,1,.256.416q0,.224-.56.688a13.059,13.059,0,0,1-1.344.96q-.784.5-1.472.88t-.944.512H92.1v4.96a3.469,3.469,0,0,1-1.28,3.12,5.988,5.988,0,0,1-3.36.848H83.3v1.92H91.84a.971.971,0,0,1-.032-.288,1.516,1.516,0,0,1,.608-1.184,1.927,1.927,0,0,1,1.248-.512,2,2,0,0,1,1.28.5A1.5,1.5,0,0,1,95.552-12.448Zm23.456-4.96H105.376v7.584h8.16a2.075,2.075,0,0,1,.608-1.3,1.763,1.763,0,0,1,1.312-.56,2.172,2.172,0,0,1,1.28.464,1.421,1.421,0,0,1,.64,1.2,1.6,1.6,0,0,1-.576,1.344,2.275,2.275,0,0,1-1.44.448h-9.984V0h10.08a3.153,3.153,0,0,0,2.7-1.136A4.656,4.656,0,0,0,119.008-4ZM123.2-3.9a5.5,5.5,0,0,1-.9,3.328,4.828,4.828,0,0,1-2.432,1.728,10.785,10.785,0,0,1-3.424.512H101.536v-20.9H123.2Zm-7.968-21.152q0,.288-.656.928T112.944-22.7q-.976.784-2.032,1.5T109.024-20a3.044,3.044,0,0,1-1.12.48h-.256a.539.539,0,0,1-.3-.1.323.323,0,0,1-.144-.288.54.54,0,0,1,.064-.272q.064-.112.128-.24.864-1.568,1.584-3.232t1.3-3.36l1.6.512,1.6.512q.352.1.7.208a4.658,4.658,0,0,1,.672.272.964.964,0,0,1,.272.16A.358.358,0,0,1,115.232-25.056Zm34.944.928h-6.432v3.712h2.976a1.281,1.281,0,0,1,.48-.88,1.44,1.44,0,0,1,.928-.336,1.217,1.217,0,0,1,.928.416,1.336,1.336,0,0,1,.384.928,1.123,1.123,0,0,1-.4.848,1.239,1.239,0,0,1-.848.368h-4.448v3.232h4.672a1.465,1.465,0,0,0,1.392-.64,3.032,3.032,0,0,0,.368-1.536Zm-13.44,14.24a8.844,8.844,0,0,1-.208,1.616q-.208,1.04-.544,2.3t-.736,2.512q-.4,1.248-.768,2.256T133.856.352a8.5,8.5,0,0,1-.448.768.853.853,0,0,1-.736.448,1.6,1.6,0,0,1-.688-.352q-.5-.352-1.088-.848t-1.072-.944q-.48-.448-.672-.64,1.5-1.6,2.88-3.312a43.1,43.1,0,0,0,2.56-3.536q.288-.448.56-.9t.528-.864a2.905,2.905,0,0,1,.272-.368.516.516,0,0,1,.4-.208.309.309,0,0,1,.288.176A.7.7,0,0,1,136.736-9.888Zm-.1-3.68a.806.806,0,0,1-.176.512.6.6,0,0,1-.5.224.549.549,0,0,1-.224-.032q-1.472-.384-3.024-.8t-3.056-.672l1.568-2.848q.128-.224.368-.672t.528-.448a2.257,2.257,0,0,1,1.088.544,12.853,12.853,0,0,1,1.52,1.344,13.448,13.448,0,0,1,1.344,1.584A2.427,2.427,0,0,1,136.64-13.568Zm22.624.192a1.561,1.561,0,0,1-.528,1.328,2.246,2.246,0,0,1-1.392.4h-9.952q-.384.544-.816,1.056t-.88.992h11.456q-.032,1.952-.224,3.888t-.544,3.856a11.15,11.15,0,0,1-.656,2.384,4.885,4.885,0,0,1-1.328,1.92,3.435,3.435,0,0,1-2.336.752,2.7,2.7,0,0,1-1.376-.416,7.824,7.824,0,0,1-1.328-.992q-.624-.576-1.072-1.024a3.42,3.42,0,0,0-.3-.336.572.572,0,0,1-.208-.368.085.085,0,0,1,.1-.1.446.446,0,0,1,.192.032q.672.224,1.376.432a4.947,4.947,0,0,0,1.408.208,1.164,1.164,0,0,0,1.008-.528,4.272,4.272,0,0,0,.576-1.216q.208-.688.3-1.168a24.285,24.285,0,0,0,.448-3.04q.128-1.536.256-3.04h-3.392q.768.416,1.52.848t1.456.912a14.779,14.779,0,0,1-3.312,4.176,21.566,21.566,0,0,1-4.4,3.088q-.9.448-1.856.864a9.272,9.272,0,0,1-1.984.608q-.352.064-.768.144a4.087,4.087,0,0,1-.768.08q-.288,0-.288-.192a.229.229,0,0,1,.128-.224q.576-.352,1.136-.656a11.089,11.089,0,0,0,1.1-.688A25.023,25.023,0,0,0,145.024-1.9a27.844,27.844,0,0,0,2.784-3.136,18.5,18.5,0,0,0,2.048-3.312h-2.912q.448.192.864.4t.832.4a19.143,19.143,0,0,1-4.32,4.384,18.592,18.592,0,0,1-5.5,2.784q-.576.16-1.248.336a5.054,5.054,0,0,1-1.28.176,1.637,1.637,0,0,1-.24-.032q-.176-.032-.176-.16t.16-.192q.448-.224.848-.432t.816-.432q.736-.448,1.472-.928a16.961,16.961,0,0,0,1.408-1.024,23.634,23.634,0,0,0,2.576-2.448,21.1,21.1,0,0,0,2.128-2.832h-.9a26.821,26.821,0,0,1-3.792,2.976,12.67,12.67,0,0,1-4.432,1.824h-.1q-.32,0-.32-.256a.281.281,0,0,1,.08-.208l.144-.144q.352-.288.72-.544t.72-.544a19.414,19.414,0,0,0,2.9-2.944,19.574,19.574,0,0,0,2.224-3.456h-5.28V-12.96h18.176a2.139,2.139,0,0,1,.528-1.5,1.877,1.877,0,0,1,1.456-.576,1.961,1.961,0,0,1,1.248.5A1.472,1.472,0,0,1,159.264-13.376Zm-22.144-7.2a.811.811,0,0,1-.16.48.519.519,0,0,1-.448.224,3.2,3.2,0,0,1-.5-.144q-.432-.144-.992-.336t-1.04-.368a5.557,5.557,0,0,0-.64-.208q-.672-.224-1.344-.432t-1.344-.368q.352-.576.736-1.152T132.16-24q.192-.288.384-.608a3.985,3.985,0,0,1,.416-.576,1.909,1.909,0,0,1,.24-.256.505.505,0,0,1,.336-.1q.352,0,.944.64a13.079,13.079,0,0,1,1.2,1.536,18.286,18.286,0,0,1,1.024,1.68A2.929,2.929,0,0,1,137.12-20.576Zm16.96,1.7a5.056,5.056,0,0,1-.64,2.864,2.957,2.957,0,0,1-1.856,1.184,13.516,13.516,0,0,1-2.912.272h-8.448V-25.44H154.08ZM20.1,45.616a.46.46,0,0,1-.208.4.8.8,0,0,1-.464.144,1.311,1.311,0,0,1-.576-.16,6.617,6.617,0,0,1-.976-.528q-.464-.3-.944-.592l-1.92-1.152-1.92-1.152a17.685,17.685,0,0,1-2.56,2.208A22.143,22.143,0,0,1,7.44,46.64a18.878,18.878,0,0,1-3.184,1.248,4.335,4.335,0,0,1-1.312.192.6.6,0,0,1-.208-.064q-.144-.064-.144-.16a.323.323,0,0,1,.144-.288q.144-.1.272-.192A38.236,38.236,0,0,0,6.96,44.448a18.354,18.354,0,0,0,3.28-3.632q-.864-.48-1.856-1.04T6.5,38.736l2.24-2.848q.768.416,1.68,1.008T12.032,38q.448-.768.832-1.6t.736-1.632q.832.352,1.648.72t1.616.72l.192.064a.808.808,0,0,1,.192.1q.224.1.224.256a1.846,1.846,0,0,1-.32.672q-.32.512-.768,1.136t-.848,1.136q-.4.512-.528.7.384.288,1.216.992T17.936,42.8a18.717,18.717,0,0,1,1.52,1.6A2.218,2.218,0,0,1,20.1,45.616ZM31.744,46.7a1.79,1.79,0,0,1-.64,1.376,2.06,2.06,0,0,1-1.408.576,4.914,4.914,0,0,1-1.824-.384,9.925,9.925,0,0,1-1.824-.96,9.626,9.626,0,0,1-1.472-1.184,13.424,13.424,0,0,1-2.544-3.648,19.362,19.362,0,0,1-1.456-4.288,22.63,22.63,0,0,1-.512-4.416H3.968V32.3q5.152.032,10.272.032H24.48q-.1,1.568-.1,3.2a22.656,22.656,0,0,0,.32,3.76,15.585,15.585,0,0,0,1.088,3.664,10.721,10.721,0,0,0,2.08,3.136,2.4,2.4,0,0,1,.768-.96,1.952,1.952,0,0,1,3.1,1.568ZM24.576,27.952a1.366,1.366,0,0,1-.56,1.136,1.929,1.929,0,0,1-1.2.432H9.632V28.048H20.864a1.872,1.872,0,0,1,.512-1.36,1.748,1.748,0,0,1,1.312-.528A1.888,1.888,0,0,1,24,26.688,1.656,1.656,0,0,1,24.576,27.952Zm3.136-4.608a1.381,1.381,0,0,1-.64,1.184,2.263,2.263,0,0,1-1.312.448H11.36a21.965,21.965,0,0,1-2.768,3.008A16.623,16.623,0,0,1,5.28,30.352q-.32.16-.864.4a2.343,2.343,0,0,1-.9.24q-.32,0-.32-.288a.437.437,0,0,1,.112-.208q.112-.144.144-.176A24.226,24.226,0,0,0,6.1,26.912,36.787,36.787,0,0,0,8.32,22.96a29.7,29.7,0,0,0,1.6-3.968l4.192,1.248q.256.064.256.256a1.625,1.625,0,0,1-.256.56q-.256.432-.624.944t-.688.928q-.32.416-.416.576h11.36a2.031,2.031,0,0,1,.544-1.424,1.825,1.825,0,0,1,1.408-.592,2.123,2.123,0,0,1,1.376.528A1.651,1.651,0,0,1,27.712,23.344ZM41.056,33.776q0-.064-.016-.208t-.112-.144a1.24,1.24,0,0,0-.72.3,4.4,4.4,0,0,0-.72.688,4.544,4.544,0,0,0-.48.672,1.8,1.8,0,0,0-.288.992,2.062,2.062,0,0,0,.016.256.45.45,0,0,0,.144.256,2.423,2.423,0,0,1,.464.544,2.932,2.932,0,0,0,.432.544,1.133,1.133,0,0,0,.448-.608,9.442,9.442,0,0,0,.416-1.184q.192-.672.3-1.264A5.241,5.241,0,0,0,41.056,33.776ZM46.24,25.3q0-.256-.416-.32a4.059,4.059,0,0,1-.608-.128q-.128.32-.24.7t-.208.736a2.616,2.616,0,0,0,.48-.224,7.1,7.1,0,0,0,.672-.416Q46.24,25.424,46.24,25.3ZM56.7,41.9a3.22,3.22,0,0,1-.672,2.064,4.847,4.847,0,0,1-1.744,1.36,11.218,11.218,0,0,1-2.32.8,16.848,16.848,0,0,1-2.464.384q-1.216.1-2.112.1a17.409,17.409,0,0,1-2.432-.176,8.8,8.8,0,0,1-2.336-.656,4.292,4.292,0,0,1-1.76-1.392A3.921,3.921,0,0,1,40.192,42v-.416a2.384,2.384,0,0,1-.24.048,1.7,1.7,0,0,1-.24.016,2.15,2.15,0,0,1-1.248-.352,1.3,1.3,0,0,1-.512-1.152q0-.224.016-.432t.016-.4A3.452,3.452,0,0,0,37.76,37.9a1.944,1.944,0,0,0-.528-.72l-.544-.432a.693.693,0,0,1-.24-.576,1.888,1.888,0,0,1,.384-.992,8.273,8.273,0,0,1,.96-1.168q.576-.592,1.136-1.088a10.776,10.776,0,0,1,.88-.72,7.062,7.062,0,0,1,.848-.48q.464-.224.912-.416a4.118,4.118,0,0,0,.1-.544q.032-.288.064-.544a1.71,1.71,0,0,1-.336.032h-.336a13.323,13.323,0,0,1-1.68-.112,5.258,5.258,0,0,1-1.616-.464q-.256-.16-.848-.608a8.473,8.473,0,0,1-1.072-.96,1.422,1.422,0,0,1-.48-.832q0-.288.192-.224a2.178,2.178,0,0,0,1.168.432,9.967,9.967,0,0,0,1.264.112,12.441,12.441,0,0,0,1.984-.16q.992-.16,1.92-.384a9.3,9.3,0,0,0,.064-1.088V24.88q0-1.088-.3-1.36a2.164,2.164,0,0,0-1.328-.272,1.694,1.694,0,0,1,.8-1.472,2.918,2.918,0,0,1,1.664-.544,4.4,4.4,0,0,1,1.264.208,3.331,3.331,0,0,1,1.2.64,1.414,1.414,0,0,1,.512,1.136,1.582,1.582,0,0,1-.1.528q-.1.272-.192.528a3.124,3.124,0,0,0,.352.048q.192.016.32.016h.336a1.045,1.045,0,0,0,.3-.032q.256-.1.464-.192a1.176,1.176,0,0,1,.5-.1,2.029,2.029,0,0,1,1.36.448,1.625,1.625,0,0,1,.528,1.312,2.15,2.15,0,0,1-.608,1.472,5.691,5.691,0,0,1-1.52,1.168,13.02,13.02,0,0,1-1.856.832q-.944.336-1.584.5-.032.416-.08.816a6.843,6.843,0,0,0-.048.816,2.078,2.078,0,0,1,.9.672,1.611,1.611,0,0,1,.384,1.024,3.276,3.276,0,0,1-.288,1.04q-.288.72-.7,1.552t-.8,1.552q-.384.72-.576,1.1t-.448.8a2.784,2.784,0,0,0-.352.832,3.815,3.815,0,0,0-.032.656V41.3a1.893,1.893,0,0,0,.544,1.424,2.958,2.958,0,0,0,1.344.736,6.1,6.1,0,0,0,1.536.208,15.767,15.767,0,0,0,2.592-.224,13.31,13.31,0,0,0,2.528-.672,3.053,3.053,0,0,0,1.648-1.5,5,5,0,0,0,.5-2.208q0-1.312-.048-2.624t-.208-2.624q-.032-.192-.048-.4t-.016-.432q0-.224.192-.224a.254.254,0,0,1,.208.064.585.585,0,0,1,.08.224q.288,1.28.56,2.544T54.08,38.1a2.276,2.276,0,0,0,.688,1.136,5.288,5.288,0,0,0,.88.56,2.012,2.012,0,0,1,.752.656A2.618,2.618,0,0,1,56.7,41.9ZM62.08,31.472a3.182,3.182,0,0,1-.624,1.936,2.074,2.074,0,0,1-1.776.848,2.442,2.442,0,0,1-.8-.144.916.916,0,0,1-.576-.528q-.288-.64-.7-1.536a6.8,6.8,0,0,0-1.008-1.584,1.848,1.848,0,0,0-1.456-.688,3.307,3.307,0,0,0-2.176.8.13.13,0,0,1-.1.032q-.1,0-.1-.128a1.067,1.067,0,0,1,.272-.512q.272-.352.368-.48a6.209,6.209,0,0,1,1.088-.96,7.488,7.488,0,0,1,1.424-.8,3.579,3.579,0,0,1,1.392-.32,4.866,4.866,0,0,1,2.16.544,5.465,5.465,0,0,1,1.856,1.472A3.178,3.178,0,0,1,62.08,31.472Zm17.856,4.16a6.78,6.78,0,0,0-.064-.848,2.5,2.5,0,0,0-.272-.88.749.749,0,0,0-.72-.384,1.617,1.617,0,0,0-1.36.72,2.881,2.881,0,0,0-.592,1.456,3.123,3.123,0,0,0-.048.352q-.016.192-.016.384a6.463,6.463,0,0,0,.1,1.056,2.187,2.187,0,0,0,.416.992,1.135,1.135,0,0,0,.96.416,1.11,1.11,0,0,0,1.04-.608,4.018,4.018,0,0,0,.448-1.376A9.161,9.161,0,0,0,79.936,35.632ZM92.672,28.5a1.145,1.145,0,0,1-.416.944,1.53,1.53,0,0,1-.992.336,2.225,2.225,0,0,1-.8-.16,9.536,9.536,0,0,0-1.984-.544q-1.12-.192-2.256-.272t-2.064-.08h-.72q-.368,0-.72.032-.032.9-.112,1.792t-.08,1.792A13.679,13.679,0,0,1,83.552,34a5.538,5.538,0,0,1,.5,1.5,11.925,11.925,0,0,1,.144,2.048,10.992,10.992,0,0,1-.88,4.528,9.159,9.159,0,0,1-2.96,3.536,9.87,9.87,0,0,1-3.12,1.568,33.7,33.7,0,0,1-3.408.832q-.672.1-1.536.224a10.446,10.446,0,0,1-1.5.128,2.293,2.293,0,0,1-.384-.048q-.256-.048-.256-.24a.269.269,0,0,1,.112-.256.9.9,0,0,1,.272-.1,4.318,4.318,0,0,1,.512-.1q.256-.032.48-.064.64-.128,1.312-.288a11.212,11.212,0,0,0,1.28-.384,10.361,10.361,0,0,0,1.36-.608,13.747,13.747,0,0,0,1.264-.768,8.475,8.475,0,0,0,1.856-1.968A5.88,5.88,0,0,0,79.648,41.1a1.552,1.552,0,0,1-1.28.672,1.755,1.755,0,0,1-1.76-1.12,8.575,8.575,0,0,1-.512-1.472,2.978,2.978,0,0,0-.736-1.344,1.719,1.719,0,0,1-.4-.624,2.63,2.63,0,0,1-.08-.72v-.224a2.97,2.97,0,0,1,.112-.768,6.648,6.648,0,0,1,.24-.736,4.9,4.9,0,0,1,1.728-2.32,4.637,4.637,0,0,1,2.752-.816h.1q0-.16.016-.32t.016-.32v-.96q0-.48-.032-.96a30.555,30.555,0,0,0-3.984.96,21.068,21.068,0,0,0-3.76,1.6,7.221,7.221,0,0,1-.784.336,2.484,2.484,0,0,1-.848.144A2.665,2.665,0,0,1,69.04,31.7a5.274,5.274,0,0,1-1.136-.9,4.452,4.452,0,0,1-.88-1.408,4.339,4.339,0,0,1-.336-1.632,1.483,1.483,0,0,1,.032-.288.219.219,0,0,1,.16-.192,2.12,2.12,0,0,0,.88.64,6.82,6.82,0,0,0,1.248.4,5.221,5.221,0,0,0,1.072.144h.272a.992.992,0,0,0,.24-.032q2.272-.256,4.56-.576t4.56-.608q-.032-.672-.08-1.36t-.144-1.328a1.816,1.816,0,0,0-.64-1.3,2.6,2.6,0,0,0-1.44-.4,2.2,2.2,0,0,1,1.12-1.5,3.593,3.593,0,0,1,1.824-.544,3.5,3.5,0,0,1,2.1.608,2.587,2.587,0,0,1,1.008,1.888,11.466,11.466,0,0,0-.416,1.728,10.712,10.712,0,0,0-.192,1.792q.832-.1,1.664-.144a16.247,16.247,0,0,0,1.632-.176.372.372,0,0,1,.1-.064q.064-.032.064-.064,0-.16-.256-.336T85.5,25.7a2.317,2.317,0,0,1-.384-.272l.1-.16a5.9,5.9,0,0,0,1.776.352l1.744.064a6.375,6.375,0,0,1,1.68.288,3.714,3.714,0,0,1,1.552,1.024,3.881,3.881,0,0,1,.5.688A1.629,1.629,0,0,1,92.672,28.5Zm-2.336-5.12a1.63,1.63,0,0,1-.32,1.024,1.135,1.135,0,0,1-.96.416,1.215,1.215,0,0,1-.816-.32,1.589,1.589,0,0,1-.5-.736,5.881,5.881,0,0,0-.688-1.552,3.324,3.324,0,0,0-1.168-1.2.426.426,0,0,0-.144-.1.125.125,0,0,1-.08-.128q.032-.128.256-.128a6.4,6.4,0,0,1,2.192.4,4.182,4.182,0,0,1,1.808,1.232,2.829,2.829,0,0,1,.3.5A1.4,1.4,0,0,1,90.336,23.376ZM94.048,21.9a1.344,1.344,0,0,1-.4.96,1.267,1.267,0,0,1-.944.416,1.221,1.221,0,0,1-1.12-.672,5.348,5.348,0,0,0-1.472-1.824,3.694,3.694,0,0,0-.416-.32q-.32-.224-.656-.464a2.458,2.458,0,0,0-.432-.272q-.128,0-.128-.064,0-.128.3-.16t.64-.048q.336-.016.432-.016.416,0,.848.016a3.963,3.963,0,0,1,.816.112,4.264,4.264,0,0,1,1.7.752A1.85,1.85,0,0,1,94.048,21.9ZM112.9,34.1a12.466,12.466,0,0,0-.112-1.552,3.981,3.981,0,0,0-.512-1.552,1.423,1.423,0,0,0-1.328-.672,2.217,2.217,0,0,0-.64.1,3.057,3.057,0,0,0-.608.256q-.832,2.24-1.776,4.448t-1.9,4.384a6.3,6.3,0,0,0,1.264,1.488,2.62,2.62,0,0,0,1.776.688,3.023,3.023,0,0,0,1.808-.5,3.332,3.332,0,0,0,1.072-1.312,7.224,7.224,0,0,0,.56-1.76q.176-.944.272-1.808.064-.544.1-1.1T112.9,34.1Zm3.552,1.7a20.056,20.056,0,0,1-.192,2.672,16.847,16.847,0,0,1-.624,2.8,9.319,9.319,0,0,1-1.2,2.5,6.043,6.043,0,0,1-1.888,1.792,5.13,5.13,0,0,1-2.688.672,3.08,3.08,0,0,1-1.12-.224,2.587,2.587,0,0,1-.976-.656,1.477,1.477,0,0,1-.4-1.04v-.192a.6.6,0,0,1,.032-.192,10.022,10.022,0,0,0-.512-1.136q-.352-.688-.72-1.344a7.223,7.223,0,0,0-.656-1.008q-.512,1.184-1.088,2.368l-1.152,2.368a5.394,5.394,0,0,1-.816,1.216,1.652,1.652,0,0,1-1.3.608,1.907,1.907,0,0,1-1.808-.928,4.008,4.008,0,0,1-.528-2.016,1.915,1.915,0,0,1,.432-1.152,9.264,9.264,0,0,1,.848-.992,24.56,24.56,0,0,0,2.416-2.96,42.184,42.184,0,0,0,2.288-3.616,23.051,23.051,0,0,0,1.632-3.472q-.7.32-1.408.656t-1.344.72q-.416.256-.752.432a1.817,1.817,0,0,1-.848.176,2.221,2.221,0,0,1-1.312-.432,3.3,3.3,0,0,1-.976-1.088,2.688,2.688,0,0,1-.368-1.328,1.894,1.894,0,0,1,.528-1.2,3.011,3.011,0,0,1,1.04-.848,3.359,3.359,0,0,0,.224,1.008.821.821,0,0,0,.864.5,13.7,13.7,0,0,0,2.528-.24,24.461,24.461,0,0,0,2.464-.592q.224-.608.448-1.424t.384-1.664a8.032,8.032,0,0,0,.16-1.456,2.162,2.162,0,0,0-1.824-2.3.827.827,0,0,1,.48-.64,3.335,3.335,0,0,1,1.008-.368,4.726,4.726,0,0,1,.848-.112,3.93,3.93,0,0,1,1.584.416,5.762,5.762,0,0,1,1.6,1.072,1.92,1.92,0,0,1,.688,1.392.993.993,0,0,1-.192.7q-.192.192-.544.48a2.547,2.547,0,0,0-.256.528q-.192.464-.432,1.072t-.448,1.12q-.208.512-.3.7.448-.1.9-.176a5.088,5.088,0,0,1,.9-.08,3.648,3.648,0,0,1,2.672,1.024,5.315,5.315,0,0,1,1.424,2.528,9.962,9.962,0,0,1,.24,1.68Q116.448,34.96,116.448,35.792ZM126.56,32.56a5.072,5.072,0,0,1-.528,2.384,2.173,2.173,0,0,1-2.128,1.008,1.892,1.892,0,0,1-1.136-.416,1.691,1.691,0,0,1-.688-1.024,1.71,1.71,0,0,1-.032-.336,1.265,1.265,0,0,0-.032-.3l-.064-.7a6.366,6.366,0,0,0-.1-.672,5.541,5.541,0,0,0-1.44-3.008A4.245,4.245,0,0,0,117.28,28.4q-.352,0-.736.032t-.736.1l-.16-.224a3.974,3.974,0,0,1,1.264-.672,9.955,9.955,0,0,1,1.68-.432A8.937,8.937,0,0,1,120,27.056a7.614,7.614,0,0,1,3.072.656,6.47,6.47,0,0,1,2.5,1.888A4.572,4.572,0,0,1,126.56,32.56Zm28.928,3.488a12.262,12.262,0,0,1-1.84,5.36,11.3,11.3,0,0,1-3.936,3.776,10.793,10.793,0,0,1-5.488,1.392,7.56,7.56,0,0,1-5.52-2.016,7.834,7.834,0,0,1-2.224-5.472q-.032-.48-.032-.976V37.1q0-2.752.192-5.52t.192-5.552q0-.448-.032-1.088a5.222,5.222,0,0,0-.208-1.232,1.343,1.343,0,0,0-.656-.848,2.071,2.071,0,0,0-.656-.224q-.368-.064-.656-.1a1,1,0,0,1,.688-.784,5.937,5.937,0,0,1,1.36-.4,7.068,7.068,0,0,1,1.088-.128,3.014,3.014,0,0,1,1.92.656,4.638,4.638,0,0,1,1.312,1.648,4.521,4.521,0,0,1,.48,1.984q0,.224-.016.416t-.048.384q-.224,1.12-.464,2.256t-.4,2.256q-.288,1.792-.464,3.632t-.176,3.664q0,4.96,4.928,4.96a10.649,10.649,0,0,0,4.32-.912,11.938,11.938,0,0,0,3.68-2.512,10.859,10.859,0,0,0,2.432-3.68Zm18.72.128a.336.336,0,0,1-.048.176.744.744,0,0,1-.112.144,9.224,9.224,0,0,1-.976.96q-.528.448-1.1.864a18.093,18.093,0,0,1-3.984,2.24,28.09,28.09,0,0,1-4.4,1.376,7.644,7.644,0,0,1-.96.192,7.5,7.5,0,0,1-.992.064.424.424,0,0,1-.208-.064.208.208,0,0,1-.112-.192q0-.16.352-.32.256-.128.624-.288t.5-.224a24.537,24.537,0,0,0,4.592-2.864,18.1,18.1,0,0,0,3.7-3.952q.544.288,1.1.624t1.1.624l.384.192q.192.1.416.224Q174.208,35.984,174.208,36.176Zm8.928-8.16a1.511,1.511,0,0,1-.608,1.344,2.544,2.544,0,0,1-1.472.416h-5.312l.352.176a2.358,2.358,0,0,1,.352.208.456.456,0,0,1,.288.384q0,.256-.464.544t-.624.416q-.384.224-.768.464t-.768.5a7.663,7.663,0,0,1,2.976,2.688,13.255,13.255,0,0,1,1.712,3.84,15.484,15.484,0,0,1,.56,4.032,10.1,10.1,0,0,1-.4,2.864,4.4,4.4,0,0,1-1.392,2.192,4.156,4.156,0,0,1-2.752.832,3.549,3.549,0,0,1-.944-.16,9.383,9.383,0,0,1-1.088-.384q-.528-.224-.88-.384l-.832-.48a8.574,8.574,0,0,1-1.136-.784q-.528-.432-.528-.688,0-.064.128-.1a.962.962,0,0,1,.16-.032h.128q.768.16,1.488.368a5.451,5.451,0,0,0,1.52.208,2.012,2.012,0,0,0,1.488-.528,2.969,2.969,0,0,0,.752-1.344,8.005,8.005,0,0,0,.272-1.68q.048-.864.048-1.568a35.328,35.328,0,0,1-4.24,2.912,23.842,23.842,0,0,1-4.768,2.144,16.422,16.422,0,0,1-5.072.8.671.671,0,0,1-.272-.064.227.227,0,0,1-.144-.224.259.259,0,0,1,.224-.256q.736-.288,1.456-.56T164,45.52a28.681,28.681,0,0,0,5.376-3.264,16.8,16.8,0,0,0,4.16-4.672l1.792.672a7.494,7.494,0,0,0-1.5-3.568,6.151,6.151,0,0,0-1.44-1.392,20.063,20.063,0,0,1-4.08,1.888,13.842,13.842,0,0,1-4.432.736h-.416q-.256,0-.256-.224a.308.308,0,0,1,.192-.288q.928-.448,1.84-.912t1.808-.976q1.216-.736,2.5-1.7a12.559,12.559,0,0,0,2.176-2.048h-4.064V28.368h11.744a1.477,1.477,0,0,0-.016-.208,1.477,1.477,0,0,1-.016-.208,1.413,1.413,0,0,1,.592-1.184,2.057,2.057,0,0,1,1.264-.448,2.2,2.2,0,0,1,1.328.432A1.466,1.466,0,0,1,183.136,28.016Zm8.416,16.608a1.273,1.273,0,0,1-.624,1.232,2.889,2.889,0,0,1-1.392.336,5.039,5.039,0,0,1-1.392-.272,11.2,11.2,0,0,1-1.36-.5,15.3,15.3,0,0,1-3.664-2.544,21.656,21.656,0,0,1-2.9-3.344,17.174,17.174,0,0,1-1.408-2.432l-1.216-2.56q2.048-.9,4.1-1.776a28.791,28.791,0,0,0,3.936-2.064q.224.192.7.56t1.008.832a11.88,11.88,0,0,1,.9.864,1.117,1.117,0,0,1,.368.656.431.431,0,0,1-.272.416,3.331,3.331,0,0,1-.5.192,6.369,6.369,0,0,1-.96.192q-.512.064-.992.128l-1.984.32q-.992.16-2.016.256a26.138,26.138,0,0,0,2.48,5.024,16.891,16.891,0,0,0,3.7,4.192,2,2,0,0,1,.72-.928,1.864,1.864,0,0,1,1.1-.352,1.672,1.672,0,0,1,1.152.464A1.442,1.442,0,0,1,191.552,44.624ZM190.08,24.24a3.862,3.862,0,0,1-.512,1.616,12.569,12.569,0,0,1-1.3,2.016,10.94,10.94,0,0,1-1.632,1.712,2.492,2.492,0,0,1-1.488.7q-.512,0-.48-.448v-.064q0-.064.1-.832t.24-1.776q.144-1.008.208-1.712H166.688v4.832h-3.776V23.952h11.264q-.288-1.12-.56-2.272t-.528-2.3l4.512.064a1.847,1.847,0,0,1,.7.16.556.556,0,0,1,.384.544,3.256,3.256,0,0,1-.336,1.12q-.336.768-.736,1.536t-.624,1.152h12.832Q190.08,23.952,190.08,24.24Z" transform="translate(-0.256 27.52)" fill="#fff"/></svg>