<svg xmlns="http://www.w3.org/2000/svg" width="189.6" height="30.304" viewBox="0 0 189.6 30.304"><path d="M22.176-7.136H9.664V.544h9.5a2.7,2.7,0,0,0,2.4-.912,4.554,4.554,0,0,0,.608-2.544Zm4.192,4.352A4.989,4.989,0,0,1,25.536.368,4.035,4.035,0,0,1,23.264,1.76,13.788,13.788,0,0,1,20,2.112H5.824V-8.7H26.368Zm4.224-18.432A1.638,1.638,0,0,1,30-19.952a1.945,1.945,0,0,1-1.328.528H17.76v5.5h6.176a2.458,2.458,0,0,1,.528-1.44A1.594,1.594,0,0,1,25.792-16a2.088,2.088,0,0,1,1.44.512,1.787,1.787,0,0,1,.576,1.408,1.464,1.464,0,0,1-.56,1.232,2.111,2.111,0,0,1-1.328.432H4.48v-1.5h9.344v-5.5H1.952v-1.6H13.824v-5.344h4v5.344h8.384a2.571,2.571,0,0,1,.64-1.6,2,2,0,0,1,1.568-.64,2.219,2.219,0,0,1,1.5.592A1.866,1.866,0,0,1,30.592-21.216Zm15.52,12.96a.3.3,0,0,1-.192.3.992.992,0,0,1-.384.08,3.305,3.305,0,0,1-1.312-.4q-.832-.4-1.664-.9T41.28-9.92V2.5H37.568v-12q-.544.384-1.472.944a15.854,15.854,0,0,1-1.888.976,4.26,4.26,0,0,1-1.632.416.486.486,0,0,1-.176-.048.155.155,0,0,1-.112-.144.505.505,0,0,1,.224-.4,4.045,4.045,0,0,0,.352-.3,31.846,31.846,0,0,0,4.448-4.768,20.834,20.834,0,0,0,3.136-5.7H34.112V-20H44.576q.16,0,.352.016t.192.272a4.133,4.133,0,0,1-.432,1.632A18.114,18.114,0,0,1,43.632-16.1q-.624,1.024-1.264,1.9T41.28-12.768v1.184l1.76-1.344a21.326,21.326,0,0,0,1.216,2.064A23.346,23.346,0,0,0,45.7-8.928q.128.128.272.3A.574.574,0,0,1,46.112-8.256Zm-3.04-17.5a2.284,2.284,0,0,1-.32.784q-.32.592-.784,1.3t-.848,1.3q-.384.592-.544.784a7.41,7.41,0,0,1-.72.832,1.365,1.365,0,0,1-.912.512.829.829,0,0,1-.56-.208.668.668,0,0,1-.24-.528q0-1.44.016-2.864t.016-2.864l3.424.448q.32.032.672.08a4.248,4.248,0,0,1,.576.112q.16.032.192.1A.549.549,0,0,1,43.072-25.76ZM63.616-7.648a1.491,1.491,0,0,1-.624,1.264,2.231,2.231,0,0,1-1.36.464H54.88V2.592H51.04V-5.92H43.872V-7.328H51.04V-12.1H46.432v-1.44H51.04V-18.3H45.728v-1.408H53.5a7.822,7.822,0,0,0,.48-1.2q.192-.624.384-1.232.352-1.152.656-2.288t.592-2.288q.448.1,1.216.32t1.52.48a9.668,9.668,0,0,1,1.136.448,1.4,1.4,0,0,1,.256.128.289.289,0,0,1,.16.256,1.7,1.7,0,0,1-.432.816,16.1,16.1,0,0,1-1.088,1.248q-.656.688-1.36,1.376t-1.28,1.216q-.576.528-.8.72h4a1.99,1.99,0,0,1,.592-1.216,1.665,1.665,0,0,1,1.232-.544,2.151,2.151,0,0,1,1.3.432,1.371,1.371,0,0,1,.592,1.168,1.5,1.5,0,0,1-.48,1.088,1.5,1.5,0,0,1-1.088.48H54.88v4.768h2.656A1.471,1.471,0,0,1,58.08-14.7a1.827,1.827,0,0,1,1.216-.464,1.725,1.725,0,0,1,1.184.5,1.5,1.5,0,0,1,.544,1.136,1.382,1.382,0,0,1-.432,1.008,1.382,1.382,0,0,1-1.008.432h-4.7v4.768h4.544a2.454,2.454,0,0,1,.64-1.536,1.91,1.91,0,0,1,1.5-.7,2.164,2.164,0,0,1,1.44.512A1.742,1.742,0,0,1,63.616-7.648Zm-12.224-13.5a.916.916,0,0,1-.16.48.477.477,0,0,1-.416.256.637.637,0,0,1-.384-.1,2.777,2.777,0,0,1-.288-.256q-.608-.64-1.184-1.28T47.776-23.3q-.384-.416-.768-.8t-.736-.8a1.047,1.047,0,0,0-.064-.112.156.156,0,0,1-.032-.08.205.205,0,0,1,.128-.192q.224-.1.752-.3t1.136-.432q.608-.224,1.12-.368a3.141,3.141,0,0,1,.736-.144.579.579,0,0,1,.608.48,5.727,5.727,0,0,1,.176.864q.112.7.24,1.568t.224,1.568Q51.392-21.344,51.392-21.152ZM78.112-3.168a.663.663,0,0,1-.208.512.748.748,0,0,1-.528.192.725.725,0,0,1-.256-.048,2.357,2.357,0,0,0-.256-.08q-.992-.48-2-.944t-2.032-.88q-.608-.256-1.216-.48T70.4-5.376a.5.5,0,0,0-.128-.1.129.129,0,0,1-.064-.128.516.516,0,0,1,.064-.224q.1-.128.448-.512T71.5-7.2q.432-.48.8-.848l.464-.464a.7.7,0,0,1,.384-.16.6.6,0,0,1,.24.048,1.29,1.29,0,0,1,.208.112,9.032,9.032,0,0,1,1.664,1.264,14.5,14.5,0,0,1,1.536,1.7,11.88,11.88,0,0,1,1.152,1.776A1.362,1.362,0,0,1,78.112-3.168ZM95.552-16.16a1.524,1.524,0,0,1-.64,1.36,2.569,2.569,0,0,1-1.472.432H86.56v3.776h3.68a2.684,2.684,0,0,1,.608-1.456,1.683,1.683,0,0,1,1.376-.688,2.4,2.4,0,0,1,1.456.512,1.6,1.6,0,0,1,.688,1.344,1.477,1.477,0,0,1-.608,1.312,2.488,2.488,0,0,1-1.44.416H86.56v7.136a6.5,6.5,0,0,1-1.008,3.824q-1.008,1.424-3.6,1.424A4.583,4.583,0,0,1,80,2.768a10.192,10.192,0,0,1-1.872-1.136A12.942,12.942,0,0,1,76.608.288.893.893,0,0,0,76.4.08q-.176-.144-.176-.208,0-.1.16-.1a1.483,1.483,0,0,1,.288.032q.16.032.288.064a18.084,18.084,0,0,0,1.984.272q.992.08,1.984.08,1.024,0,1.328-.576a3.141,3.141,0,0,0,.3-1.472V-9.152H66.3v-1.44H82.56v-3.776H65.6v-1.44H77.632v-4.32h-8.32v-1.536h8.256V-26.3H81.7v4.64H87.04a2.248,2.248,0,0,1,.592-1.456,1.829,1.829,0,0,1,1.424-.624,2.337,2.337,0,0,1,1.472.5,1.66,1.66,0,0,1,.64,1.392,1.423,1.423,0,0,1-.672,1.328,2.884,2.884,0,0,1-1.5.4h-7.36v4.32H91.1a2.563,2.563,0,0,1,.64-1.632,1.976,1.976,0,0,1,1.568-.7,2.459,2.459,0,0,1,1.536.544A1.731,1.731,0,0,1,95.552-16.16ZM115.488-4.544a.524.524,0,0,1-.16.384,7.778,7.778,0,0,1-1.344,1.216A22.283,22.283,0,0,1,112.1-1.7q-1.024.608-2,1.1a14.1,14.1,0,0,1-1.712.752q-1.568.576-2.9.96a23.55,23.55,0,0,1-2.672.608q-1.344.224-3.04.384l.032-13.536h3.648l-.032,9.568q.448-.064.9-.144t.9-.176V-15.2h3.712v5.312h1.28a2.154,2.154,0,0,1,.464-1.28,1.482,1.482,0,0,1,1.232-.544,1.929,1.929,0,0,1,1.2.432,1.336,1.336,0,0,1,.56,1.1,1.554,1.554,0,0,1-.56,1.264,2.016,2.016,0,0,1-1.328.464h-2.848V-3.04q1.5-.352,3.024-.832t2.96-1.024a.549.549,0,0,1,.224-.032Q115.488-4.928,115.488-4.544ZM127.424,1.12a1.791,1.791,0,0,1-.672,1.344,2.082,2.082,0,0,1-1.408.608,4.97,4.97,0,0,1-1.632-.288,8.882,8.882,0,0,1-1.5-.672,13.514,13.514,0,0,1-3.984-3.376A19.659,19.659,0,0,1,115.5-5.84a30.319,30.319,0,0,1-1.68-5.184,48.241,48.241,0,0,1-.9-5.168h-15.1v-1.5H112.7q-.224-2.08-.384-4.144t-.224-4.112l4.384.128v.352q-.032,1.952.064,3.888t.224,3.888h5.824a2.854,2.854,0,0,1,.624-1.712,1.946,1.946,0,0,1,1.616-.752,2.34,2.34,0,0,1,1.6.592,1.969,1.969,0,0,1,.672,1.552,1.524,1.524,0,0,1-.672,1.408,2.918,2.918,0,0,1-1.568.416h-7.936q.224,2.144.656,4.448a33.014,33.014,0,0,0,1.2,4.56,25.265,25.265,0,0,0,1.9,4.272A15.3,15.3,0,0,0,123.424.64a2.632,2.632,0,0,1,.9-.992,2.185,2.185,0,0,1,1.248-.416,1.756,1.756,0,0,1,1.3.576A1.832,1.832,0,0,1,127.424,1.12ZM110.656-22.272a1.54,1.54,0,0,1-.512,1.136,1.616,1.616,0,0,1-1.152.5h-8.544v-1.536h6.432a2.455,2.455,0,0,1,.48-1.424,1.579,1.579,0,0,1,1.344-.592,1.889,1.889,0,0,1,1.344.592A1.815,1.815,0,0,1,110.656-22.272Zm13.7-1.984a1.727,1.727,0,0,1-.464.832A13.541,13.541,0,0,1,122.7-22.16q-.72.688-1.5,1.328t-1.424,1.072a2.562,2.562,0,0,1-.928.464.549.549,0,0,1-.224.032q-.384,0-.384-.32a1.053,1.053,0,0,1,.064-.32q.512-1.5.96-3.008t.8-3.072q.192.064.816.24t1.344.384q.72.208,1.28.384a3.989,3.989,0,0,1,.656.24q.16.1.176.192A1.9,1.9,0,0,1,124.352-24.256ZM140.224-1.728V-5.152h-1.152v3.424Zm2.88-5.184q0-.448-.016-.9t-.016-.9h-4v2.5h3.3a.947.947,0,0,0,.592-.128A.8.8,0,0,0,143.1-6.912Zm-2.88-2.88V-12.32h-1.152v2.528ZM159.488,1.056a1.656,1.656,0,0,1-.608,1.232,1.873,1.873,0,0,1-1.28.56,4.989,4.989,0,0,1-2.1-.512,11.344,11.344,0,0,1-2.16-1.328A17.666,17.666,0,0,1,151.424-.7a21.418,21.418,0,0,1-1.44-1.632A21.77,21.77,0,0,1,146.512.48a15.37,15.37,0,0,1-4.048,1.888,7.98,7.98,0,0,1-.96.208q-.512.08-.992.144h-.128a.671.671,0,0,1-.272-.064.206.206,0,0,1-.144-.192.32.32,0,0,1,.112-.256,1.176,1.176,0,0,1,.24-.16q.256-.16.544-.3t.544-.3q.736-.448,1.408-.944t1.312-1.008H136V-13.5h6.688a1.189,1.189,0,0,1,.4-.912,1.31,1.31,0,0,1,.912-.368,1.3,1.3,0,0,1,.96.384,1.3,1.3,0,0,1,.384.96,1.019,1.019,0,0,1-.4.768,1.234,1.234,0,0,1-.816.352h-.992v2.528h3.04v2.4a2.6,2.6,0,0,1-.368,1.584,1.533,1.533,0,0,1-1.024.56,11.15,11.15,0,0,1-1.584.1v3.424h.736a2.021,2.021,0,0,1,.4-.992,1.112,1.112,0,0,1,.944-.448.936.936,0,0,1,.576.192q.256.192.48.384.544-.576,1.04-1.2a10.272,10.272,0,0,0,.88-1.3,14.648,14.648,0,0,1-1.52-3.312,36.573,36.573,0,0,1-1.04-3.888q-.416-1.984-.7-3.616H135.68q-.032,2.528-.112,5.168a28.346,28.346,0,0,1-.624,5.152A13.338,13.338,0,0,1,132.9-.864,10.225,10.225,0,0,1,131.856.5a13.015,13.015,0,0,1-1.232,1.2q-.224.192-.64.48a1.349,1.349,0,0,1-.736.288.255.255,0,0,1-.288-.288.468.468,0,0,1,.1-.288q.384-.64.752-1.264A10.249,10.249,0,0,0,130.464-.7a16.027,16.027,0,0,0,.56-1.664q.24-.864.4-1.7a15.86,15.86,0,0,0,.32-2.448q.064-1.232.1-2.48.064-2.08.032-4.192t-.032-4.192h12.992q-.032-.544-.08-1.088T144.7-19.52l4.1.192q.032.48.064.976t.032.976h.992l.768-3.712,1.152.256q.576.128,1.184.256.256.064.528.112a2.248,2.248,0,0,1,.5.144,1.692,1.692,0,0,1,.368.128.329.329,0,0,1,.208.32q0,.256-.432.624a9.114,9.114,0,0,1-1.04.752q-.608.384-1.152.688t-.8.432h3.392a2.1,2.1,0,0,1,.5-1.392,1.644,1.644,0,0,1,1.328-.592,2.025,2.025,0,0,1,1.328.528,1.6,1.6,0,0,1,.624,1.264,1.424,1.424,0,0,1-.576,1.28,2.481,2.481,0,0,1-1.408.384h-7.328a24.154,24.154,0,0,0,.432,3.376q.336,1.68.784,3.312.448-1.28.9-2.576a18.889,18.889,0,0,0,.7-2.64l4.192,1.536a5.986,5.986,0,0,1-.336,1.264q-.24.624-.5,1.232a28.008,28.008,0,0,1-1.36,2.784q-.752,1.344-1.616,2.656a22.337,22.337,0,0,0,1.6,2.672A18.828,18.828,0,0,0,155.776.128a2.085,2.085,0,0,1,1.792-.96,1.865,1.865,0,0,1,1.376.544A1.826,1.826,0,0,1,159.488,1.056ZM158.272-23.36a1.558,1.558,0,0,1-.768,1.5,3.5,3.5,0,0,1-1.7.416l-7.424-.032q-.256.32-.672.752a6.093,6.093,0,0,1-.9.768,1.627,1.627,0,0,1-.928.336.851.851,0,0,1-.384-.08q-.16-.08-.16-.368a3.927,3.927,0,0,1,.064-.7,3.76,3.76,0,0,0,.064-.672h-4.448l.16,2.4-3.84.192-.192-2.592H129.28v-1.472h7.776l-.224-3.424,3.9-.224.192,3.648h4.736q.32-2.048.48-4.16.768.128,1.552.24t1.552.24q.256.032.672.064a2.1,2.1,0,0,1,.64.128q.288.1.288.288a2.38,2.38,0,0,1-.32,1.008q-.32.624-.688,1.232t-.592.96h4.7a2.967,2.967,0,0,1,.56-1.664,1.756,1.756,0,0,1,1.52-.736,2.534,2.534,0,0,1,1.552.512A1.691,1.691,0,0,1,158.272-23.36ZM174.208-9.824a.336.336,0,0,1-.048.176.744.744,0,0,1-.112.144,9.223,9.223,0,0,1-.976.96q-.528.448-1.1.864a18.093,18.093,0,0,1-3.984,2.24,28.09,28.09,0,0,1-4.4,1.376,7.643,7.643,0,0,1-.96.192,7.5,7.5,0,0,1-.992.064.424.424,0,0,1-.208-.064.208.208,0,0,1-.112-.192q0-.16.352-.32.256-.128.624-.288t.5-.224a24.537,24.537,0,0,0,4.592-2.864,18.1,18.1,0,0,0,3.7-3.952q.544.288,1.1.624t1.1.624l.384.192q.192.1.416.224Q174.208-10.016,174.208-9.824Zm8.928-8.16a1.511,1.511,0,0,1-.608,1.344,2.544,2.544,0,0,1-1.472.416h-5.312l.352.176a2.358,2.358,0,0,1,.352.208.456.456,0,0,1,.288.384q0,.256-.464.544t-.624.416q-.384.224-.768.464t-.768.5a7.663,7.663,0,0,1,2.976,2.688,13.255,13.255,0,0,1,1.712,3.84,15.484,15.484,0,0,1,.56,4.032,10.1,10.1,0,0,1-.4,2.864,4.4,4.4,0,0,1-1.392,2.192,4.156,4.156,0,0,1-2.752.832,3.549,3.549,0,0,1-.944-.16,9.383,9.383,0,0,1-1.088-.384q-.528-.224-.88-.384l-.832-.48A8.574,8.574,0,0,1,169.936.72q-.528-.432-.528-.688,0-.064.128-.1A.962.962,0,0,1,169.7-.1h.128q.768.16,1.488.368a5.451,5.451,0,0,0,1.52.208,2.012,2.012,0,0,0,1.488-.528,2.969,2.969,0,0,0,.752-1.344,8,8,0,0,0,.272-1.68q.048-.864.048-1.568a35.328,35.328,0,0,1-4.24,2.912A23.842,23.842,0,0,1,166.384.416a16.422,16.422,0,0,1-5.072.8.671.671,0,0,1-.272-.064A.227.227,0,0,1,160.9.928a.259.259,0,0,1,.224-.256q.736-.288,1.456-.56T164-.48a28.681,28.681,0,0,0,5.376-3.264,16.8,16.8,0,0,0,4.16-4.672l1.792.672a8.9,8.9,0,0,0-.48-1.792,8.849,8.849,0,0,0-1.024-1.776,6.151,6.151,0,0,0-1.44-1.392,20.063,20.063,0,0,1-4.08,1.888,13.842,13.842,0,0,1-4.432.736h-.416q-.256,0-.256-.224a.308.308,0,0,1,.192-.288q.928-.448,1.84-.912t1.808-.976q1.216-.736,2.5-1.7a12.559,12.559,0,0,0,2.176-2.048h-4.064v-1.408h11.744a1.477,1.477,0,0,0-.016-.208,1.477,1.477,0,0,1-.016-.208,1.413,1.413,0,0,1,.592-1.184,2.057,2.057,0,0,1,1.264-.448,2.2,2.2,0,0,1,1.328.432A1.466,1.466,0,0,1,183.136-17.984Zm8.416,16.608a1.273,1.273,0,0,1-.624,1.232,2.889,2.889,0,0,1-1.392.336,5.039,5.039,0,0,1-1.392-.272,11.2,11.2,0,0,1-1.36-.5A15.3,15.3,0,0,1,183.12-3.12a21.656,21.656,0,0,1-2.9-3.344A17.174,17.174,0,0,1,178.816-8.9l-1.216-2.56q2.048-.9,4.1-1.776a28.791,28.791,0,0,0,3.936-2.064q.224.192.7.56t1.008.832a11.88,11.88,0,0,1,.9.864,1.117,1.117,0,0,1,.368.656.431.431,0,0,1-.272.416,3.331,3.331,0,0,1-.5.192,6.369,6.369,0,0,1-.96.192q-.512.064-.992.128l-1.984.32q-.992.16-2.016.256a26.139,26.139,0,0,0,2.48,5.024,16.891,16.891,0,0,0,3.7,4.192,2,2,0,0,1,.72-.928,1.864,1.864,0,0,1,1.1-.352,1.672,1.672,0,0,1,1.152.464A1.442,1.442,0,0,1,191.552-1.376ZM190.08-21.76a3.862,3.862,0,0,1-.512,1.616,12.569,12.569,0,0,1-1.3,2.016,10.94,10.94,0,0,1-1.632,1.712,2.492,2.492,0,0,1-1.488.7q-.512,0-.48-.448v-.064q0-.064.1-.832t.24-1.776q.144-1.008.208-1.712H166.688v4.832h-3.776v-6.336h11.264q-.288-1.12-.56-2.272t-.528-2.3l4.512.064a1.847,1.847,0,0,1,.7.16.556.556,0,0,1,.384.544,3.256,3.256,0,0,1-.336,1.12q-.336.768-.736,1.536t-.624,1.152h12.832Q190.08-22.048,190.08-21.76Z" transform="translate(-1.952 27.072)" fill="#fff"/></svg>