<svg xmlns="http://www.w3.org/2000/svg" width="95.52" height="29.856" viewBox="0 0 95.52 29.856"><path d="M22.88-4.48V-8.512H21.5V-4.48Zm-3.616,0v-12.8H18.176v12.8ZM22.88-9.728v-3.04H21.5v3.04ZM26.5-17.28H25.344V-4.512a1.2,1.2,0,0,0,.784-.7,3.89,3.89,0,0,0,.3-1.2q.064-.656.064-1.1Zm-3.616,3.3v-3.3H21.5v3.3ZM31.872-.576A1.685,1.685,0,0,1,31.1.8a6.362,6.362,0,0,1-1.984.944,20.611,20.611,0,0,1-2.544.592q-1.328.224-2.448.3T22.4,2.72a30.891,30.891,0,0,1-4.272-.288A11.4,11.4,0,0,1,14.08,1.024,18.162,18.162,0,0,1,11.7-.656,16.907,16.907,0,0,1,9.632-2.688,15.138,15.138,0,0,1,6.592.224a13.827,13.827,0,0,1-3.744,1.92q-.512.16-1.216.352a4.813,4.813,0,0,1-1.248.192q-.32,0-.32-.288a.238.238,0,0,1,.16-.208L.448,2.08q.8-.416,1.552-.9A15.288,15.288,0,0,0,3.456.128,15.69,15.69,0,0,0,5.824-2.16a20.6,20.6,0,0,0,1.856-2.7q-.1-.128-.32-.416T6.9-5.84a1.521,1.521,0,0,0-.368-.336A.735.735,0,0,0,6.112-6.3H5.664q-.192,0-.192-.224,0-.128.288-.4a7.733,7.733,0,0,1,.624-.528,3.734,3.734,0,0,1,.464-.32,6.577,6.577,0,0,1,.912.448q.432.256.848.544a12.639,12.639,0,0,0,.5-1.28q.208-.64.368-1.28H7.3a9.9,9.9,0,0,1-.864,1.2q-.608.752-1.376,1.584t-1.6,1.6A12.1,12.1,0,0,1,1.888-3.712a2.43,2.43,0,0,1-1.248.48q-.288,0-.288-.256a.456.456,0,0,1,.08-.272Q.512-3.872.608-4A28.13,28.13,0,0,0,2.544-6.912a36.094,36.094,0,0,0,1.776-3.44A20.311,20.311,0,0,0,5.5-13.632H.992v-1.376H6.208V-17.6H2.656v-1.408H6.208v-2.5H1.568v-1.408h4.64v-3.616h3.52v3.616h1.344a1.672,1.672,0,0,1,.512-1.072,1.471,1.471,0,0,1,1.056-.432,1.78,1.78,0,0,1,1.12.4,1.259,1.259,0,0,1,.512,1.04,1.379,1.379,0,0,1-.432,1.088A1.646,1.646,0,0,1,12.7-21.5H9.728v2.5H11.04a1.335,1.335,0,0,1,.5-.8,1.377,1.377,0,0,1,.88-.32,1.273,1.273,0,0,1,.88.368,1.155,1.155,0,0,1,.4.88,1.112,1.112,0,0,1-.448.944,1.615,1.615,0,0,1-.992.336H9.728v2.592h1.984a1.486,1.486,0,0,1,.464-.976,1.431,1.431,0,0,1,1.008-.368,1.537,1.537,0,0,1,.96.384,1.126,1.126,0,0,1,.48.9,1.317,1.317,0,0,1-.448,1.056,1.615,1.615,0,0,1-1.088.384H7.648l1.536.576q-.224.608-.512,1.2t-.608,1.168h5.92a19.7,19.7,0,0,1-1.2,3.1A23.231,23.231,0,0,1,11.1-4.7a14.769,14.769,0,0,0,4.16,3.28A18.725,18.725,0,0,0,20.224.352,25.944,25.944,0,0,0,25.5.9a14.432,14.432,0,0,0,3.1-.352,1.473,1.473,0,0,1-.336-.512,1.663,1.663,0,0,1-.112-.608,1.41,1.41,0,0,1,.56-1.152,1.928,1.928,0,0,1,1.232-.448,2.275,2.275,0,0,1,1.28.432A1.342,1.342,0,0,1,31.872-.576Zm-.9-23.616a1.406,1.406,0,0,1-.576,1.216,2.184,2.184,0,0,1-1.312.416H24.48a7.074,7.074,0,0,1-.8,1.36q-.544.752-1.168,1.456t-1.1,1.216H29.92V-8.48a9.477,9.477,0,0,1-.352,2.672A3.616,3.616,0,0,1,28.3-3.9a4.194,4.194,0,0,1-2.608.7H15.2V-18.528h4.064a38.842,38.842,0,0,0,.864-4.032h-5.28v-1.376H27.232a1.87,1.87,0,0,1,.528-1.328,1.748,1.748,0,0,1,1.328-.56,2.245,2.245,0,0,1,1.312.4A1.4,1.4,0,0,1,30.976-24.192Zm24.448.928H40.1v3.84H53.824a1.309,1.309,0,0,0,1.248-.624,2.784,2.784,0,0,0,.352-1.392Zm7.264,7.68A1.513,1.513,0,0,1,62-14.176a3,3,0,0,1-1.584.416H51.04a.935.935,0,0,0,.1.08q.064.048.064.08a.312.312,0,0,1-.064.224,1.871,1.871,0,0,1-.192.16,9.911,9.911,0,0,1-1.12.784q-.608.368-1.184.752-1.056.672-2.128,1.344t-2.16,1.312q2.5-.032,5.088-.032a19.658,19.658,0,0,0,5.024-.64q-.576-.544-1.12-1.136t-1.056-1.2q.832-.416,1.68-.784t1.712-.72q.544,1.12,1.168,2.288A12.544,12.544,0,0,0,58.272-9.12a1.657,1.657,0,0,1,.544-.448,1.406,1.406,0,0,1,.672-.192,1.431,1.431,0,0,1,1.056.416,1.431,1.431,0,0,1,.416,1.056,1.1,1.1,0,0,1-.608,1.056,2.649,2.649,0,0,1-1.248.32,3.042,3.042,0,0,1-1.36-.384,10.908,10.908,0,0,1-1.456-.9q-.7-.512-1.152-.9A7.537,7.537,0,0,1,53.28-8a9.014,9.014,0,0,1-2.08.544v3.04h2.88a1.685,1.685,0,0,1,.608-1.264A1.906,1.906,0,0,1,56-6.24a2,2,0,0,1,1.28.5,1.53,1.53,0,0,1,.608,1.232A1.455,1.455,0,0,1,57.36-3.3a2.029,2.029,0,0,1-1.3.416H51.2V.32h6.56a2.841,2.841,0,0,1,.592-1.6,1.818,1.818,0,0,1,1.52-.672,2.484,2.484,0,0,1,1.552.528A1.734,1.734,0,0,1,62.112.032a1.579,1.579,0,0,1-.672,1.392,2.586,2.586,0,0,1-1.5.464H38.112V.32h9.152v-3.2h-6.3V-4.416h6.3V-7.04q-1.6.128-3.216.224t-3.216.224l-.48-2.24a8.469,8.469,0,0,0,3.056-2.08,31.218,31.218,0,0,0,2.384-2.848H39.968a26.156,26.156,0,0,1-.416,4.688A23.481,23.481,0,0,1,38.24-4.544a11.025,11.025,0,0,1-.768,1.6,16.614,16.614,0,0,1-.992,1.5A13.27,13.27,0,0,1,35.3,0a5.9,5.9,0,0,1-1.408,1.184q-.128.064-.272.128a.74.74,0,0,1-.3.064q-.288,0-.288-.224a.394.394,0,0,1,.064-.224.808.808,0,0,0,.1-.192,18.9,18.9,0,0,0,1.552-3.424,21.669,21.669,0,0,0,.88-3.648,41.86,41.86,0,0,0,.448-5.2q.064-2.64.064-5.232,0-2.016-.016-4.048t-.048-4.048H59.648v2.944a5.062,5.062,0,0,1-.56,2.672,2.563,2.563,0,0,1-1.648,1.136,11.957,11.957,0,0,1-2.688.256H40.064v.544q0,.512.016,1.024t-.016,1.056h18.4a2.7,2.7,0,0,1,.544-1.616,1.828,1.828,0,0,1,1.536-.656,2.355,2.355,0,0,1,1.488.512A1.688,1.688,0,0,1,62.688-15.584ZM85.44-8.736H74.432v4.128h6.336a1.722,1.722,0,0,1,.544-1.312,1.886,1.886,0,0,1,1.344-.512,1.663,1.663,0,0,1,1.2.48,1.62,1.62,0,0,1,.5,1.216,1.5,1.5,0,0,1-.5,1.136,1.654,1.654,0,0,1-1.168.464H74.432V.992h8.512A2.183,2.183,0,0,0,84.8.144a3.177,3.177,0,0,0,.64-1.968Zm3.9,6.688a4.858,4.858,0,0,1-.736,2.9A3.75,3.75,0,0,1,86.592,2.24a10.388,10.388,0,0,1-2.976.384h-12.8V-10.3H89.344ZM77.024-15.2a.816.816,0,0,1-.256.624.9.9,0,0,1-.64.24.952.952,0,0,1-.48-.128,2.154,2.154,0,0,1-.448-.352q-.352-.352-.672-.688t-.672-.72a15.733,15.733,0,0,0-1.072-1.152q-.56-.544-1.1-1.184l.848-.32q.592-.224,1.312-.448t1.3-.4A3.382,3.382,0,0,1,75.9-19.9a.3.3,0,0,1,.272.128,1.813,1.813,0,0,1,.144.288,6.865,6.865,0,0,1,.224.832q.128.576.24,1.264t.176,1.3Q77.024-15.488,77.024-15.2Zm18.56.7a1.624,1.624,0,0,1-.736,1.408,2.7,2.7,0,0,1-1.568.512H65.408v-1.568h16.16q.9-2.912,1.568-5.888.192.032.864.208l1.456.384,1.392.368a1.909,1.909,0,0,1,.64.224.374.374,0,0,1,.128.32,2.071,2.071,0,0,1-.5.816q-.5.624-1.184,1.376t-1.28,1.376q-.592.624-.816.816h7.488A1.518,1.518,0,0,1,91.3-14.5a1.689,1.689,0,0,1,.72-1.344,2.289,2.289,0,0,1,1.424-.576,2.384,2.384,0,0,1,1.5.5A1.694,1.694,0,0,1,95.584-14.5Zm-3.552-8a1.7,1.7,0,0,1-.7,1.488,2.762,2.762,0,0,1-1.632.5H68.256v-1.6h9.856q-.32-1.248-.624-2.5t-.5-2.528h.448q.256,0,1.008.016t1.664.064q.912.048,1.616.128a2.411,2.411,0,0,1,.832.176.64.64,0,0,1,.256.544,2.9,2.9,0,0,1-.192.848q-.192.56-.464,1.2t-.544,1.2q-.272.56-.432.848h6.56a.356.356,0,0,1-.032-.16v-.16a1.805,1.805,0,0,1,.624-1.456,2.274,2.274,0,0,1,1.52-.528,2.471,2.471,0,0,1,1.5.5A1.663,1.663,0,0,1,92.032-22.5Z" transform="translate(-0.064 27.136)" fill="#fff"/></svg>