<svg xmlns="http://www.w3.org/2000/svg" width="189.042" height="74.992" viewBox="0 0 189.042 74.992"><path d="M11.968-24.608a28.014,28.014,0,0,1-1.632,3.248q-.928,1.584-1.952,3.088V1.792H4.7V-13.664q-.288.256-.864.736t-1.248.992a13.3,13.3,0,0,1-1.3.88,2.149,2.149,0,0,1-.976.368q-.256,0-.256-.192a.344.344,0,0,1,.064-.192,1.566,1.566,0,0,0,.1-.16q.928-1.152,1.76-2.416t1.568-2.576A46.949,46.949,0,0,0,5.9-21.12a38.88,38.88,0,0,0,1.712-5.152ZM31.456-.992A1.538,1.538,0,0,1,30.88.368a2.465,2.465,0,0,1-1.44.4H11.584V-.64h7.552V-8.928h-3.1q-.48.8-1.232,1.808a25.36,25.36,0,0,1-1.648,1.984,23.029,23.029,0,0,1-1.792,1.76A8.118,8.118,0,0,1,9.7-2.208a2.91,2.91,0,0,1-.3.128.983.983,0,0,1-.336.064q-.32,0-.32-.288a.79.79,0,0,1,.192-.448q.384-.48.752-.96t.688-.992A34.453,34.453,0,0,0,12.64-8.688,44.542,44.542,0,0,0,14.512-13.1a36.928,36.928,0,0,0,1.3-4.368H10.5v-1.5h5.728q.448-1.7.768-3.408t.512-3.472l4.576.9q-.32,1.5-.72,3.008t-.912,2.976H27.2a2,2,0,0,1,.592-1.376,1.838,1.838,0,0,1,1.392-.64,1.984,1.984,0,0,1,1.36.528,1.7,1.7,0,0,1,.592,1.328A1.448,1.448,0,0,1,30.56-17.9a2.13,2.13,0,0,1-1.312.432H20q-.7,1.824-1.472,3.6a32.136,32.136,0,0,1-1.76,3.472h8.576a1.933,1.933,0,0,1,.608-1.312,1.807,1.807,0,0,1,1.312-.576,1.9,1.9,0,0,1,1.264.512,1.56,1.56,0,0,1,.592,1.216,1.5,1.5,0,0,1-.528,1.152,1.735,1.735,0,0,1-1.2.48H22.976V-.64h4.512a2.684,2.684,0,0,1,.56-1.536,1.752,1.752,0,0,1,1.488-.7,1.767,1.767,0,0,1,1.376.608A1.9,1.9,0,0,1,31.456-.992Zm8.192-11.9v-4.48H38.016v4.48Zm0-5.7v-4.8H38.016v4.8Zm4.928-4.8H43.008V-19.1a.852.852,0,0,1,.384-.1.868.868,0,0,1,.64.256.868.868,0,0,1,.256.64q0,.608-.384.768a2.317,2.317,0,0,1-.9.16v4.48h.256a1.04,1.04,0,0,0,.912-.384,2,2,0,0,0,.336-.944,8.962,8.962,0,0,0,.064-1.008Zm4.832,18.56a.363.363,0,0,1-.1.24q-.1.112-.16.176a5.786,5.786,0,0,1-.912.72q-.56.368-1.008.624a20.609,20.609,0,0,1-4.144,1.888A44.068,44.068,0,0,1,38.576.048q-2.288.5-4.432.912l-1.728-3.1q1.792-.224,3.6-.464t3.568-.56V-6.88H34.24V-8.32h5.344v-3.2H34.56V-24.736h13.6v8.288q0,2.784-1.2,3.824a6.179,6.179,0,0,1-3.92,1.1v3.2h1.824a1.648,1.648,0,0,1,.56-1.04,1.635,1.635,0,0,1,1.1-.4,1.637,1.637,0,0,1,1.072.416,1.287,1.287,0,0,1,.5,1.024,1.287,1.287,0,0,1-.464,1.072A1.771,1.771,0,0,1,46.5-6.88H43.04v3.168q.832-.16,1.664-.336t1.632-.336q.64-.16,1.28-.3t1.248-.272a.832.832,0,0,1,.256-.032Q49.408-4.992,49.408-4.832Zm13.76-9.888a5.074,5.074,0,0,1-.24,1.552,11.672,11.672,0,0,1-.592,1.488q-.224.416-.672,1.12a14.553,14.553,0,0,1-1.04,1.424,8.654,8.654,0,0,1-1.2,1.216,1.864,1.864,0,0,1-1.152.5q-.448,0-.448-.416a.832.832,0,0,1,.032-.256q.32-1.12.624-2.608a23.124,23.124,0,0,0,.4-2.608H56.448q0,2.976.016,5.984t.016,6.016a5.638,5.638,0,0,1-.9,3.28,3.5,3.5,0,0,1-3.1,1.3,4.179,4.179,0,0,1-1.92-.512,11.25,11.25,0,0,1-1.872-1.216q-.88-.7-1.584-1.28-.128-.128-.128-.192,0-.16.224-.16a.263.263,0,0,1,.08.016.263.263,0,0,0,.08.016q.352.1.72.192t.72.16q.608.128,1.232.224a8.094,8.094,0,0,0,1.232.1A1.081,1.081,0,0,0,52.24.144a2.547,2.547,0,0,0,.384-1.088,8.8,8.8,0,0,0,.08-1.1V-8.8q0-2.272-.032-4.512h-4V-14.72ZM61.28-24.832A7.781,7.781,0,0,1,59.488-20.3a10.515,10.515,0,0,1-4,2.864q.192.32.512.992a2.673,2.673,0,0,1,.32,1.024.781.781,0,0,1-.144.416.426.426,0,0,1-.368.224,1.3,1.3,0,0,1-.7-.224q-.416-.256-.816-.544T53.5-16.16q-1.056-.832-2.176-1.584t-2.24-1.488q.16-.16.56-.528t.88-.8a11.5,11.5,0,0,1,.9-.736,1.414,1.414,0,0,1,.544-.3q.16,0,.544.352a10.583,10.583,0,0,1,.816.848q.432.5.784.944t.48.64a14.784,14.784,0,0,0,1.36-2.192,10.735,10.735,0,0,0,.88-2.384H49.44v-1.44ZM90.688-14.24a.985.985,0,0,1-.192.608,3.175,3.175,0,0,1-.8.64,16.957,16.957,0,0,1-1.152,2.976,26.519,26.519,0,0,1-1.712,2.992A20.592,20.592,0,0,1,84.96-4.576a17.174,17.174,0,0,1-2.48,2.208A17.082,17.082,0,0,1,79.392-.576,21.716,21.716,0,0,1,75.568.688a27.293,27.293,0,0,1-4.048.624q-.544.032-1.088.048t-.864.016q-.128,0-.352.016t-.256-.24A.2.2,0,0,1,69.1.944q.144-.048.272-.08A14.126,14.126,0,0,0,71.04.544,18.436,18.436,0,0,0,74.8-.88a19.817,19.817,0,0,0,3.52-2.272,17.483,17.483,0,0,0,2.864-2.9A22.72,22.72,0,0,0,82.9-8.608,18.426,18.426,0,0,0,84.24-11.44a7.428,7.428,0,0,0,.528-2.544q-.032-.512-.672-.512-.16,0-.368.016a3.111,3.111,0,0,0-.368.048q-1.152.192-2.5.448t-2.7.56q-1.36.3-2.512.592t-1.888.544q-.224.128-.432.24a1.107,1.107,0,0,1-.528.112,3.02,3.02,0,0,1-.96-.16,3.794,3.794,0,0,1-1.776-1.168,3.328,3.328,0,0,1-.752-2.032,2.382,2.382,0,0,1,.016-.608,1.676,1.676,0,0,1,.368-.768,2.567,2.567,0,0,0,1.04.688,7.234,7.234,0,0,0,1.424.4,7.259,7.259,0,0,0,1.184.128q.8,0,2.16-.1t2.848-.224q1.488-.128,2.72-.272t1.808-.24a9.358,9.358,0,0,0,1.1-.3,7.549,7.549,0,0,0,.88-.336,7.141,7.141,0,0,1,.688-.288,3.527,3.527,0,0,1,.656-.192,3.24,3.24,0,0,1,1.136.208,5.551,5.551,0,0,1,.976.464q.448.288,1.008.7a6.383,6.383,0,0,1,.96.864A1.386,1.386,0,0,1,90.688-14.24Zm-4.16-6.88a.866.866,0,0,1-.512.832,4.905,4.905,0,0,1-.864.352q-.928.224-2.176.416t-2.512.32q-1.264.128-2.256.128a10.043,10.043,0,0,1-2.16-.192A3.673,3.673,0,0,1,74.528-20a9.288,9.288,0,0,1-1.472-1.6q-.128-.16-.32-.384a.641.641,0,0,1-.192-.352q0-.384.32-.384a.738.738,0,0,1,.4.176,1.631,1.631,0,0,0,.432.24q.544.128.992.24a3.768,3.768,0,0,0,1.088.08,26.421,26.421,0,0,0,2.816-.352,19.2,19.2,0,0,0,3.3-.864q.352-.128.7-.24a2.311,2.311,0,0,1,.7-.112,4.811,4.811,0,0,1,.928.144,3.572,3.572,0,0,1,.864.272,3.036,3.036,0,0,1,.96.768A1.832,1.832,0,0,1,86.528-21.12Zm39.616,9.408a1.428,1.428,0,0,1-.656,1.248,3.136,3.136,0,0,1-1.584.512h-2.672q-1.04,0-1.9-.032-.416,0-.784-.016t-.752-.016q-2.816,0-5.056.08t-4.672.176q-.448.032-1.376.112t-1.984.192q-1.056.112-1.92.192a11.4,11.4,0,0,0-1.152.144,4.557,4.557,0,0,1-2.656-.752,2.593,2.593,0,0,1-1.088-2.288,2.934,2.934,0,0,1,.272-1.12,1.22,1.22,0,0,1,.688-.768,2.708,2.708,0,0,0,1.04.96,4.417,4.417,0,0,0,1.3.432,7.167,7.167,0,0,0,1.152.112q1.024,0,2.048.016t2.048-.016q1.7-.1,3.024-.192t3.024-.288q1.7-.192,2.976-.368t2.384-.432q1.1-.256,2.224-.608a12.142,12.142,0,0,1,2.592.336,8.817,8.817,0,0,1,2.08.752,4.3,4.3,0,0,1,.912.7A1.345,1.345,0,0,1,126.144-11.712ZM153.472-6.56a2.24,2.24,0,0,1-.592,1.552,1.955,1.955,0,0,1-1.52.656,1.71,1.71,0,0,1-1.184-.464,6.938,6.938,0,0,1-.9-.976q-.64-.864-1.328-1.712a11.612,11.612,0,0,0-1.52-1.552A26.339,26.339,0,0,1,142.48-4.72a20.05,20.05,0,0,1-4.448,2.9A32.224,32.224,0,0,1,132.512.16q-.16.032-.368.064a2.453,2.453,0,0,1-.368.032A2.062,2.062,0,0,1,131.52.24.13.13,0,0,1,131.392.1q0-.128.192-.224l.256-.128a20.663,20.663,0,0,0,2.816-1.6,24,24,0,0,0,2.56-1.984q1.024-.928,2.272-2.288t2.352-2.816a15.551,15.551,0,0,0,1.68-2.672q-1.28-.96-2.672-1.808t-2.8-1.616q-.544-.288-1.088-.608t-1.088-.576l-.256-.128q-.128-.064-.288-.128a.8.8,0,0,0-.144-.1q-.112-.064-.112-.128,0-.128.256-.128h.288a13.9,13.9,0,0,1,2.224.208q1.264.208,2.592.544t2.544.768a18.93,18.93,0,0,1,2.112.88q.32-.768.7-1.92t.672-2.32a8.4,8.4,0,0,0,.288-1.936,1.792,1.792,0,0,0-.464-1.248,2.652,2.652,0,0,0-1.1-.736,6.057,6.057,0,0,1,1.216-.752,3.182,3.182,0,0,1,1.376-.336,3.433,3.433,0,0,1,1.824.608,6.223,6.223,0,0,1,1.632,1.488,2.913,2.913,0,0,1,.672,1.776.878.878,0,0,1-.272.608,2.746,2.746,0,0,1-.528.448q-.512,1.6-1.072,3.2a24.916,24.916,0,0,1-1.328,3.1,6.812,6.812,0,0,1,1.424.9,15.353,15.353,0,0,1,1.264,1.12,9.044,9.044,0,0,1,1.5,1.7A3.842,3.842,0,0,1,153.472-6.56Zm35.552-12q-.224.48-.48,1.1t-.48,1.072a37.767,37.767,0,0,1-2.16,3.824A25.776,25.776,0,0,1,182.752-8.7a27.388,27.388,0,0,1-2.512,2.256A33.471,33.471,0,0,1,177.1-4.224a34.1,34.1,0,0,1-3.456,1.9,21.493,21.493,0,0,1-3.5,1.328,1.927,1.927,0,0,1-1.12-.128,13.265,13.265,0,0,1-1.328-.816,4.4,4.4,0,0,1-1.2-1.232q-.128-.224-.336-.576a1.886,1.886,0,0,1-.208-.96,5.485,5.485,0,0,1,.144-1.44,3.228,3.228,0,0,1,.688-1.408q.16.288.416.72a3.147,3.147,0,0,0,.64.768,1.318,1.318,0,0,0,.9.336,9.115,9.115,0,0,0,2.736-.512,28.375,28.375,0,0,0,3.264-1.3q1.68-.784,3.136-1.648a25.815,25.815,0,0,0,2.384-1.568q1.28-.992,2.416-1.9t2.16-1.9q.608-.576,1.152-1.088a11.939,11.939,0,0,0,1.088-1.184q.256-.352.72-.928t.752-.928q.064-.1.128-.176a.84.84,0,0,0,.1-.144.307.307,0,0,1,.224-.1q.128,0,.112.192A1.215,1.215,0,0,1,189.024-18.56Zm-14.144.992a3.134,3.134,0,0,1-.832,2.128,2.658,2.658,0,0,1-2.08.944,1.572,1.572,0,0,1-1.328-.56,3.239,3.239,0,0,1-.592-1.2A6.411,6.411,0,0,0,169.3-17.9a6.87,6.87,0,0,0-1.312-1.536,4.272,4.272,0,0,0-1.808-.944q-.32-.1-.352-.224,0-.064.24-.176a4.115,4.115,0,0,1,.432-.176,6.8,6.8,0,0,1,1.328-.256,12.562,12.562,0,0,1,1.328-.1,11.227,11.227,0,0,1,1.808.16,7.581,7.581,0,0,1,1.872.56,3.8,3.8,0,0,1,1.472,1.136A2.972,2.972,0,0,1,174.88-17.568ZM22.88,41.52V37.488H21.5V41.52Zm-3.616,0V28.72H18.176v12.8Zm3.616-5.248v-3.04H21.5v3.04ZM26.5,28.72H25.344V41.488a1.2,1.2,0,0,0,.784-.7,3.89,3.89,0,0,0,.3-1.2q.064-.656.064-1.1Zm-3.616,3.3v-3.3H21.5v3.3Zm8.992,13.408A1.685,1.685,0,0,1,31.1,46.8a6.362,6.362,0,0,1-1.984.944,20.611,20.611,0,0,1-2.544.592q-1.328.224-2.448.3t-1.728.08a30.89,30.89,0,0,1-4.272-.288,11.4,11.4,0,0,1-4.048-1.408,18.162,18.162,0,0,1-2.384-1.68,16.907,16.907,0,0,1-2.064-2.032,15.138,15.138,0,0,1-3.04,2.912,13.827,13.827,0,0,1-3.744,1.92q-.512.16-1.216.352a4.813,4.813,0,0,1-1.248.192q-.32,0-.32-.288a.238.238,0,0,1,.16-.208l.224-.112q.8-.416,1.552-.9a15.288,15.288,0,0,0,1.456-1.056A15.69,15.69,0,0,0,5.824,43.84a20.6,20.6,0,0,0,1.856-2.7q-.1-.128-.32-.416T6.9,40.16a1.521,1.521,0,0,0-.368-.336.735.735,0,0,0-.416-.128H5.664q-.192,0-.192-.224,0-.128.288-.4a7.733,7.733,0,0,1,.624-.528,3.735,3.735,0,0,1,.464-.32,6.577,6.577,0,0,1,.912.448q.432.256.848.544a12.639,12.639,0,0,0,.5-1.28q.208-.64.368-1.28H7.3a9.9,9.9,0,0,1-.864,1.2q-.608.752-1.376,1.584t-1.6,1.6a12.1,12.1,0,0,1-1.568,1.248,2.43,2.43,0,0,1-1.248.48q-.288,0-.288-.256a.456.456,0,0,1,.08-.272q.08-.112.176-.24a28.13,28.13,0,0,0,1.936-2.912,36.094,36.094,0,0,0,1.776-3.44A20.311,20.311,0,0,0,5.5,32.368H.992V30.992H6.208V28.4H2.656V26.992H6.208V24.5H1.568V23.088h4.64V19.472h3.52v3.616h1.344a1.672,1.672,0,0,1,.512-1.072,1.471,1.471,0,0,1,1.056-.432,1.78,1.78,0,0,1,1.12.4,1.259,1.259,0,0,1,.512,1.04,1.379,1.379,0,0,1-.432,1.088A1.646,1.646,0,0,1,12.7,24.5H9.728v2.5H11.04a1.335,1.335,0,0,1,.5-.8,1.377,1.377,0,0,1,.88-.32,1.273,1.273,0,0,1,.88.368,1.155,1.155,0,0,1,.4.88,1.112,1.112,0,0,1-.448.944,1.615,1.615,0,0,1-.992.336H9.728v2.592h1.984a1.486,1.486,0,0,1,.464-.976,1.431,1.431,0,0,1,1.008-.368,1.537,1.537,0,0,1,.96.384,1.126,1.126,0,0,1,.48.9,1.317,1.317,0,0,1-.448,1.056,1.615,1.615,0,0,1-1.088.384H7.648l1.536.576q-.224.608-.512,1.2t-.608,1.168h5.92a19.7,19.7,0,0,1-1.2,3.1A23.231,23.231,0,0,1,11.1,41.3a14.769,14.769,0,0,0,4.16,3.28,18.726,18.726,0,0,0,4.96,1.776,25.944,25.944,0,0,0,5.28.544,14.431,14.431,0,0,0,3.1-.352,1.473,1.473,0,0,1-.336-.512,1.663,1.663,0,0,1-.112-.608,1.41,1.41,0,0,1,.56-1.152,1.928,1.928,0,0,1,1.232-.448,2.275,2.275,0,0,1,1.28.432A1.342,1.342,0,0,1,31.872,45.424Zm-.9-23.616a1.406,1.406,0,0,1-.576,1.216,2.184,2.184,0,0,1-1.312.416H24.48a7.074,7.074,0,0,1-.8,1.36q-.544.752-1.168,1.456t-1.1,1.216H29.92V37.52a9.477,9.477,0,0,1-.352,2.672A3.616,3.616,0,0,1,28.3,42.1a4.194,4.194,0,0,1-2.608.7H15.2V27.472h4.064a38.842,38.842,0,0,0,.864-4.032h-5.28V22.064H27.232a1.87,1.87,0,0,1,.528-1.328,1.748,1.748,0,0,1,1.328-.56,2.245,2.245,0,0,1,1.312.4A1.4,1.4,0,0,1,30.976,21.808Zm24.448.928H40.1v3.84H53.824a1.309,1.309,0,0,0,1.248-.624,2.784,2.784,0,0,0,.352-1.392Zm7.264,7.68A1.513,1.513,0,0,1,62,31.824a3,3,0,0,1-1.584.416H51.04a.935.935,0,0,0,.1.08q.064.048.064.08a.312.312,0,0,1-.064.224,1.871,1.871,0,0,1-.192.16,9.911,9.911,0,0,1-1.12.784q-.608.368-1.184.752-1.056.672-2.128,1.344t-2.16,1.312q2.5-.032,5.088-.032a19.658,19.658,0,0,0,5.024-.64q-.576-.544-1.12-1.136t-1.056-1.2q.832-.416,1.68-.784t1.712-.72q.544,1.12,1.168,2.288a12.544,12.544,0,0,0,1.424,2.128,1.657,1.657,0,0,1,.544-.448,1.406,1.406,0,0,1,.672-.192,1.423,1.423,0,0,1,1.472,1.472,1.1,1.1,0,0,1-.608,1.056,2.649,2.649,0,0,1-1.248.32,3.042,3.042,0,0,1-1.36-.384,10.908,10.908,0,0,1-1.456-.9q-.7-.512-1.152-.9A7.537,7.537,0,0,1,53.28,38a9.014,9.014,0,0,1-2.08.544v3.04h2.88a1.685,1.685,0,0,1,.608-1.264A1.906,1.906,0,0,1,56,39.76a2,2,0,0,1,1.28.5,1.53,1.53,0,0,1,.608,1.232A1.455,1.455,0,0,1,57.36,42.7a2.029,2.029,0,0,1-1.3.416H51.2v3.2h6.56a2.841,2.841,0,0,1,.592-1.6,1.818,1.818,0,0,1,1.52-.672,2.484,2.484,0,0,1,1.552.528,1.734,1.734,0,0,1,.688,1.456,1.579,1.579,0,0,1-.672,1.392,2.586,2.586,0,0,1-1.5.464H38.112V46.32h9.152v-3.2h-6.3V41.584h6.3V38.96q-1.6.128-3.216.224t-3.216.224l-.48-2.24a8.469,8.469,0,0,0,3.056-2.08,31.218,31.218,0,0,0,2.384-2.848H39.968a26.156,26.156,0,0,1-.416,4.688,23.481,23.481,0,0,1-1.312,4.528,11.024,11.024,0,0,1-.768,1.6,16.613,16.613,0,0,1-.992,1.5A13.271,13.271,0,0,1,35.3,46a5.9,5.9,0,0,1-1.408,1.184q-.128.064-.272.128a.74.74,0,0,1-.3.064q-.288,0-.288-.224a.394.394,0,0,1,.064-.224.808.808,0,0,0,.1-.192,18.9,18.9,0,0,0,1.552-3.424,21.669,21.669,0,0,0,.88-3.648,41.86,41.86,0,0,0,.448-5.2q.064-2.64.064-5.232,0-2.016-.016-4.048t-.048-4.048H59.648V24.08a5.062,5.062,0,0,1-.56,2.672,2.563,2.563,0,0,1-1.648,1.136,11.957,11.957,0,0,1-2.688.256H40.064v.544q0,.512.016,1.024t-.016,1.056h18.4a2.7,2.7,0,0,1,.544-1.616,1.828,1.828,0,0,1,1.536-.656,2.355,2.355,0,0,1,1.488.512A1.688,1.688,0,0,1,62.688,30.416Zm15.936,9.568a4,4,0,0,0-1.008-.24q-.624-.08-1.264-.112T75.3,39.6a6.851,6.851,0,0,0-1.552.208,4.061,4.061,0,0,0-1.536.7,1.612,1.612,0,0,0-.656,1.36,1.1,1.1,0,0,0,.624.976,4.263,4.263,0,0,0,1.408.512,7.261,7.261,0,0,0,1.232.144,3.978,3.978,0,0,0,1.712-.4A4.04,4.04,0,0,0,77.952,42a2.784,2.784,0,0,0,.64-1.6Zm12.064,3.872a1.479,1.479,0,0,1-.72,1.344,2.885,2.885,0,0,1-1.552.448,2.353,2.353,0,0,1-1.328-.416,8.764,8.764,0,0,1-1.136-.9q-.832-.8-1.7-1.536a11.9,11.9,0,0,0-1.888-1.312,4.673,4.673,0,0,1-.928,2.688,4.987,4.987,0,0,1-2.128,1.568,7.641,7.641,0,0,1-2.832.512,19.6,19.6,0,0,1-2.032-.112,3.346,3.346,0,0,1-1.84-.752l-.256-.256a3.491,3.491,0,0,0-.288-.256,6.671,6.671,0,0,0-.656-.464q-.336-.208-.688-.432a2.846,2.846,0,0,1-.848-.928,2.377,2.377,0,0,1-.336-1.216,2.812,2.812,0,0,1,.736-1.92,6.271,6.271,0,0,1,1.856-1.408,11.017,11.017,0,0,1,2.3-.88,9.94,9.94,0,0,1,2.08-.336l1.072-.064q.528-.032,1.04-.032,0-1.728-.032-3.472t-.1-3.472q-.032-1.312-.08-2.688a16.45,16.45,0,0,0-.3-2.656,2.085,2.085,0,0,0-.768-1.472,5.517,5.517,0,0,0-1.6-.544,2.279,2.279,0,0,1,.784-.784,6.527,6.527,0,0,1,1.216-.624,3.157,3.157,0,0,1,1.1-.256,3.373,3.373,0,0,1,1.472.416A5.368,5.368,0,0,1,81.776,22.7,1.948,1.948,0,0,1,82.4,24.08a1.673,1.673,0,0,1-.128.656q-.128.3-.288.624a4.175,4.175,0,0,0-.5,1.744q-.08,1.008-.144,1.84a1.052,1.052,0,0,0,.256.032h.256a3.378,3.378,0,0,0,1.408-.3,7.744,7.744,0,0,0,1.264-.72q.592-.416,1.12-.72a2.026,2.026,0,0,1,1.008-.3,3.24,3.24,0,0,1,1.3.32A4.1,4.1,0,0,1,89.2,28.1a1.621,1.621,0,0,1,.528,1.168,1.2,1.2,0,0,1-.528,1.024,3.92,3.92,0,0,1-1.312.592,10.148,10.148,0,0,1-1.552.288q-.768.08-1.216.08a5.908,5.908,0,0,1-1.984-.288,17.143,17.143,0,0,1-1.824-.8q.032,1.888.224,3.776t.416,3.776a15.523,15.523,0,0,1,1.872.544,24.5,24.5,0,0,1,2.3.944,13.793,13.793,0,0,1,2.224,1.3,8.011,8.011,0,0,1,1.68,1.584A2.863,2.863,0,0,1,90.688,43.856Zm29.728-8.544a12.4,12.4,0,0,1-.736,4.16,8.737,8.737,0,0,1-2.272,3.52,13.674,13.674,0,0,1-3.68,2.512,18.638,18.638,0,0,1-4.144,1.344,39.576,39.576,0,0,1-4.432.624q-.224.032-.48.048t-.512.016a.563.563,0,0,1-.272-.08.258.258,0,0,1-.144-.24.255.255,0,0,1,.208-.256q.208-.064.336-.1.9-.16,1.76-.368a15.252,15.252,0,0,0,1.728-.528A13.188,13.188,0,0,0,114,41.184a12.919,12.919,0,0,0,2.224-7.536,5.933,5.933,0,0,0-.192-1.392,3.867,3.867,0,0,0-.624-1.376,1.434,1.434,0,0,0-1.232-.592,4.472,4.472,0,0,0-2.592.768,8.192,8.192,0,0,0-1.952,1.888q-.288.384-.544.8a5.154,5.154,0,0,1-.576.768,1.856,1.856,0,0,1-1.568.768,3.341,3.341,0,0,1-2.5-.944,3.428,3.428,0,0,1-.928-2.512,3.814,3.814,0,0,1,.624-1.984,6.831,6.831,0,0,1,1.328-1.632l.16.16a4.234,4.234,0,0,0-.32.944,4.57,4.57,0,0,0-.128,1.008,1.57,1.57,0,0,0,.176.576q.176.384.432.384a3.032,3.032,0,0,0,.9-.128,4.624,4.624,0,0,0,.832-.352q.992-.48,2.144-1.024a17.558,17.558,0,0,1,2.352-.912,7.9,7.9,0,0,1,2.32-.368,5.665,5.665,0,0,1,3.312.944,5.985,5.985,0,0,1,2.064,2.5A8.076,8.076,0,0,1,120.416,35.312Zm-4.032-10.4a1.559,1.559,0,0,1-.528,1.232,1.85,1.85,0,0,1-1.264.464,4.435,4.435,0,0,1-1.28-.192,6.49,6.49,0,0,0-1.136-.224,10.862,10.862,0,0,0-1.168-.064,10.723,10.723,0,0,0-1.824.16,5.889,5.889,0,0,0-1.728.576l-.1-.1a14.947,14.947,0,0,1,1.28-1.024q.672-.48,1.344-.928a8.123,8.123,0,0,1-1.712-1.488,3.3,3.3,0,0,1-.624-2.16,1.69,1.69,0,0,1,.1-.464q.1-.3.224-.336a2.717,2.717,0,0,0,1.312,1.04,5.832,5.832,0,0,0,1.632.32q.864.048,1.728.08a5.462,5.462,0,0,1,1.6.288,3.315,3.315,0,0,1,1.552,1.04A2.7,2.7,0,0,1,116.384,24.912ZM144.16,35.536a7.159,7.159,0,0,0-.064-.864,2.333,2.333,0,0,0-.288-.9.785.785,0,0,0-.736-.384,1.605,1.605,0,0,0-1.376.72,2.976,2.976,0,0,0-.576,1.488,1.711,1.711,0,0,0-.032.336v.336a6.462,6.462,0,0,0,.1,1.056,2.3,2.3,0,0,0,.416,1.008,1.084,1.084,0,0,0,.928.432,1.15,1.15,0,0,0,1.056-.592,3.668,3.668,0,0,0,.464-1.36A9.162,9.162,0,0,0,144.16,35.536Zm12.7-7.2a1.191,1.191,0,0,1-.416.96,1.486,1.486,0,0,1-.992.352,2.225,2.225,0,0,1-.8-.16,9.537,9.537,0,0,0-1.984-.544q-1.12-.192-2.256-.272t-2.064-.08h-.72q-.368,0-.72.032-.032.9-.1,1.792t-.064,1.824a13.679,13.679,0,0,1,1.024,1.664,5.167,5.167,0,0,1,.48,1.5,13.386,13.386,0,0,1,.128,2.048,10.111,10.111,0,0,1-1.344,5.5,8.961,8.961,0,0,1-3.68,3.264,20.143,20.143,0,0,1-5.344,1.7q-.672.1-1.536.224a10.446,10.446,0,0,1-1.5.128,2.293,2.293,0,0,1-.384-.048q-.256-.048-.256-.272a.229.229,0,0,1,.128-.224,1.25,1.25,0,0,1,.256-.1,4.318,4.318,0,0,1,.512-.1q.256-.032.48-.064.64-.128,1.312-.288a11.212,11.212,0,0,0,1.28-.384,11.665,11.665,0,0,0,2.624-1.344,7.8,7.8,0,0,0,1.872-1.984,6.1,6.1,0,0,0,1.04-2.464,2.334,2.334,0,0,1-.576.464,1.374,1.374,0,0,1-.7.208,1.7,1.7,0,0,1-1.28-.432,2.9,2.9,0,0,1-.64-1.072q-.224-.64-.432-1.3a3.178,3.178,0,0,0-.624-1.136,1.774,1.774,0,0,1-.4-.608,2.454,2.454,0,0,1-.08-.7,4.951,4.951,0,0,1,.624-2.48,4.754,4.754,0,0,1,1.712-1.76,4.678,4.678,0,0,1,2.464-.656h.1q0-.16.016-.336t.016-.3V29.92q0-.5-.032-.976a26.858,26.858,0,0,0-3.968.928,19.923,19.923,0,0,0-3.744,1.632,4.516,4.516,0,0,1-.8.368,2.623,2.623,0,0,1-.864.144,2.824,2.824,0,0,1-1.84-.7,5.539,5.539,0,0,1-1.376-1.712,4.172,4.172,0,0,1-.528-1.936,1.014,1.014,0,0,1,.048-.288.25.25,0,0,1,.176-.192,1.877,1.877,0,0,0,.848.64,6,6,0,0,0,1.264.384,6.092,6.092,0,0,0,1.088.128h.272a.992.992,0,0,0,.24-.032q2.272-.256,4.544-.576t4.544-.608q-.032-.64-.064-1.328a8.862,8.862,0,0,0-.16-1.328,1.816,1.816,0,0,0-.64-1.3,2.6,2.6,0,0,0-1.44-.4,2.25,2.25,0,0,1,1.12-1.52,3.518,3.518,0,0,1,1.824-.56,3.44,3.44,0,0,1,2.1.624,2.642,2.642,0,0,1,1.008,1.9q-.128.416-.272,1.072t-.24,1.312a7.846,7.846,0,0,0-.1,1.1q.832-.1,1.664-.16t1.664-.16a.2.2,0,0,1,.08-.048q.048-.016.048-.048,0-.256-.512-.528a3.168,3.168,0,0,1-.672-.432l.1-.16a6.637,6.637,0,0,0,1.744.336q.88.048,1.776.08a6.464,6.464,0,0,1,1.712.288,3.607,3.607,0,0,1,1.52.992,3.032,3.032,0,0,1,.5.656A1.629,1.629,0,0,1,156.864,28.336Zm30.848.064a2,2,0,0,1-.72,1.52,6.852,6.852,0,0,1-1.648,1.1q-.928.448-1.632.7.1.96.144,1.936t.08,1.968q.064.544.1,1.136t.032,1.168a8.9,8.9,0,0,1-1.056,4.336,9.377,9.377,0,0,1-4.592,4.144q-.944.416-1.92.736t-1.744.512q-.512.128-1.12.288a4.643,4.643,0,0,1-1.184.16q-.288,0-.288-.192,0-.16.208-.256t.3-.128a22.173,22.173,0,0,0,2.544-1.152,10.532,10.532,0,0,0,2.256-1.632,8.393,8.393,0,0,0,1.872-2.64,11.453,11.453,0,0,0,.848-3.008,24.565,24.565,0,0,0,.24-3.2q.016-1.616.048-3.184a8.835,8.835,0,0,1-1.856.192,5.845,5.845,0,0,1-2.976-.816,8.956,8.956,0,0,1-2.4-2,10.966,10.966,0,0,0-1.04,1.856,26.346,26.346,0,0,0-.976,2.464,23.693,23.693,0,0,0-.72,2.544,9.983,9.983,0,0,0-.272,2.1,6.328,6.328,0,0,0,.064.9,4.589,4.589,0,0,0,.224.9,6.252,6.252,0,0,1,.208.688,3.1,3.1,0,0,1,.08.72,2.8,2.8,0,0,1-.48,1.52,1.511,1.511,0,0,1-1.344.752,1.846,1.846,0,0,1-.832-.208,2.68,2.68,0,0,1-.7-.5,6.184,6.184,0,0,1-1.408-2.08,11.4,11.4,0,0,1-.736-2.56,15.415,15.415,0,0,1-.224-2.528,35.721,35.721,0,0,1,.368-5.152,49.856,49.856,0,0,1,1.008-5.056,9.887,9.887,0,0,0,.256-2.208,7.532,7.532,0,0,0-.16-1.424,2.718,2.718,0,0,0-.544-1.264q0-.256.288-.256a11.712,11.712,0,0,1,1.984,1.264,6.934,6.934,0,0,1,1.584,1.728,4.039,4.039,0,0,1,.624,2.224,5.218,5.218,0,0,1-.448,2.112l-.9,2.048a21.683,21.683,0,0,0-.944,2.752,11.356,11.356,0,0,0-.336,2.88q0,.1.016.448a4.456,4.456,0,0,0,.08.672q.064.32.16.32a.392.392,0,0,0,.272-.16.838.838,0,0,0,.176-.256q1.024-1.888,2.128-4.016a39.809,39.809,0,0,1,2.288-3.888.262.262,0,0,1,.16-.1.878.878,0,0,0,.112.048.2.2,0,0,1,.08.048,4.006,4.006,0,0,0,1.328.672,5.394,5.394,0,0,0,1.456.192,8.215,8.215,0,0,0,2.16-.32,20.5,20.5,0,0,0,2.064-.672q0-1.088-.064-2.48a8.31,8.31,0,0,0-.416-2.384,1.458,1.458,0,0,0-.64-.8,3.215,3.215,0,0,0-1.024-.32,1.031,1.031,0,0,1,.128-.448,2.756,2.756,0,0,1,1.232-1.136,3.9,3.9,0,0,1,1.68-.368,2.724,2.724,0,0,1,1.328.384,4.081,4.081,0,0,1,1.184.992,2,2,0,0,1,.5,1.28,1.078,1.078,0,0,1-.192.608,3.251,3.251,0,0,0-.368.784,3.674,3.674,0,0,0-.08.88v.32a1.628,1.628,0,0,0,.032.32,1.864,1.864,0,0,0,1.056.32,1.006,1.006,0,0,0,.16-.016,1.166,1.166,0,0,1,.192-.016,3.76,3.76,0,0,1,.576-.352,1.362,1.362,0,0,1,.608-.16,1.264,1.264,0,0,1,1.072.544A1.912,1.912,0,0,1,187.712,28.4Z" transform="translate(-0.064 26.272)" fill="#fff"/></svg>