<svg xmlns="http://www.w3.org/2000/svg" width="239.488" height="75.408" viewBox="0 0 239.488 75.408"><path d="M13.952-9.664V-12.8H9.088v3.136Zm0-4.544v-2.88H9.088v2.88Zm8.928-2.88H17.632v2.88H19.3a1.326,1.326,0,0,1,.5-.768,1.336,1.336,0,0,1,.848-.32,1.486,1.486,0,0,1,.992.352,1.191,1.191,0,0,1,.416.96,1.021,1.021,0,0,1-.448.848,1.529,1.529,0,0,1-.928.336h-3.04v3.136h3.456a1.463,1.463,0,0,0,1.376-.72,3.05,3.05,0,0,0,.416-1.552ZM13.888-6.112a21.6,21.6,0,0,1-5.12,5.024A18.72,18.72,0,0,1,2.176,1.824q-.32.064-.672.144a3.168,3.168,0,0,1-.7.08.516.516,0,0,1-.224-.064.205.205,0,0,1-.128-.192A.258.258,0,0,1,.576,1.6a1.936,1.936,0,0,0,.16-.128q.48-.256.944-.544T2.592.32a24.184,24.184,0,0,0,4.16-3.7A20.762,20.762,0,0,0,9.92-7.9ZM31.744.032A1.644,1.644,0,0,1,31.232,1.2a1.57,1.57,0,0,1-1.152.528,5.464,5.464,0,0,1-.832-.064q-.416-.064-.832-.16A14.166,14.166,0,0,1,24.384-.16a22.123,22.123,0,0,1-3.7-2.768A29.31,29.31,0,0,1,17.7-6.112L21.28-7.968a51.013,51.013,0,0,0,3.024,4.3A14.783,14.783,0,0,0,28.192-.192a2.2,2.2,0,0,1,.736-.928,1.826,1.826,0,0,1,1.12-.384,1.763,1.763,0,0,1,1.168.448A1.378,1.378,0,0,1,31.744.032ZM30.176-22.5a1.5,1.5,0,0,1-.544,1.3,2.261,2.261,0,0,1-1.376.4H17.632v2.368H26.72v5.824q0,2.528-1.344,3.408a6.593,6.593,0,0,1-3.648.88h-4.1V2.592h-3.68V-8.32H5.6V-18.432h8.352V-20.8H2.368v-1.5h11.52v-4.224h3.744V-22.3H26.3a2.279,2.279,0,0,1,.592-1.408,1.761,1.761,0,0,1,1.36-.576,1.966,1.966,0,0,1,1.312.528A1.62,1.62,0,0,1,30.176-22.5Zm21.216,6.24H39.712v5.984H48.96a2.569,2.569,0,0,0,1.9-.56,2.746,2.746,0,0,0,.528-1.9ZM41.472-5.664a.807.807,0,0,1-.272.512q-.272.288-.432.448a23.318,23.318,0,0,1-3.9,3.168A16.016,16.016,0,0,1,32.256.448q-.384.1-.768.176A3.756,3.756,0,0,1,30.72.7a.79.79,0,0,1-.24-.048A.179.179,0,0,1,30.336.48a.264.264,0,0,1,.128-.24,1.088,1.088,0,0,1,.224-.112,13.634,13.634,0,0,0,2.72-2.112,26.562,26.562,0,0,0,2.56-2.9A28.71,28.71,0,0,0,37.92-7.744q.448.224,1.12.544t1.312.656a6.027,6.027,0,0,1,.992.624A.3.3,0,0,1,41.472-5.664ZM55.3-12.8A3.489,3.489,0,0,1,54.3-9.968a5.316,5.316,0,0,1-2.88,1.008,18.781,18.781,0,0,1-2.048.08Q48.352-8.9,47.328-8.9v7.552a9.619,9.619,0,0,1-.256,2.352,2.759,2.759,0,0,1-1.024,1.584,3.884,3.884,0,0,1-2.336.576,4.028,4.028,0,0,1-1.776-.512,14.332,14.332,0,0,1-1.952-1.2q-.944-.688-1.52-1.2a.494.494,0,0,0-.128-.144q-.1-.08-.1-.144,0-.128.192-.128a3.082,3.082,0,0,1,.88.128A6.424,6.424,0,0,0,40.16.16q.384.064.784.112a6.578,6.578,0,0,0,.784.048q1.248,0,1.52-.672a4.554,4.554,0,0,0,.272-1.7q0-1.7-.016-3.424T43.488-8.9H36V-17.76H55.3ZM61.216-.48A1.129,1.129,0,0,1,60.528.576a2.858,2.858,0,0,1-1.3.352A6.22,6.22,0,0,1,56.96.464a13.994,13.994,0,0,1-2.352-1.2,24.3,24.3,0,0,1-2.192-1.552q-1.024-.816-1.792-1.52-.128-.128-.5-.48t-.7-.72q-.336-.368-.336-.5a.289.289,0,0,1,.16-.256,11.549,11.549,0,0,1,1.664-.976q.9-.432,1.728-.88.64,1.088,1.536,2.368t1.888,2.464A17.731,17.731,0,0,0,58.016-.768a1.388,1.388,0,0,1,.528-.976,1.534,1.534,0,0,1,1.008-.432,1.57,1.57,0,0,1,1.152.528A1.644,1.644,0,0,1,61.216-.48Zm-1.184-21.7a1.465,1.465,0,0,1-.656,1.36,2.861,2.861,0,0,1-1.52.4H31.3v-1.5H43.52q-.16-1.312-.3-2.592t-.24-2.56q.256,0,1.056.048t1.712.128q.912.08,1.632.16a2.078,2.078,0,0,1,.816.176.606.606,0,0,1,.224.48,2.847,2.847,0,0,1-.208.832q-.208.576-.5,1.248t-.56,1.248a8.856,8.856,0,0,1-.432.832h9.088a2.653,2.653,0,0,1,.608-1.632,1.918,1.918,0,0,1,1.568-.7,1.965,1.965,0,0,1,1.472.592A2.048,2.048,0,0,1,60.032-22.176ZM87.36-3.232a3.782,3.782,0,0,1-.592,2.16,1.937,1.937,0,0,1-1.712.88,2.494,2.494,0,0,1-1.232-.352,4.153,4.153,0,0,1-1.088-.88,2.225,2.225,0,0,1-.56-1.072,9.693,9.693,0,0,0-.912-2.592,12.285,12.285,0,0,0-1.376-2.1,10.023,10.023,0,0,0-1.456-1.472,3.122,3.122,0,0,0-1.152-.656,26.928,26.928,0,0,1-1.824,2.336A22.069,22.069,0,0,1,72.9-4.448a19.517,19.517,0,0,1-4.352,2.736A26.883,26.883,0,0,1,62.72.16q-.224.032-.5.1A2.3,2.3,0,0,1,61.7.32,2.534,2.534,0,0,1,61.28.288q-.192-.032-.192-.16,0-.064.176-.16a1.846,1.846,0,0,1,.272-.128q.192-.064.56-.176a5.959,5.959,0,0,0,.592-.208,15.764,15.764,0,0,0,4-2.128,22,22,0,0,0,3.424-3.056q1.056-1.152,2.016-2.416T73.792-10.5q.512-.832,1.072-1.984t1.072-2.352q.512-1.2.864-2.16a7.532,7.532,0,0,0,.352-1.28q.064-.448.064-.48v-.032a.249.249,0,0,0-.176-.256,1.272,1.272,0,0,0-.432-.064h-.336a.9.9,0,0,0-.336.064q-.384.128-1.152.448t-1.616.736q-.848.416-1.568.832a3.748,3.748,0,0,0-1.008.768,1.392,1.392,0,0,1-1.024.416,1.984,1.984,0,0,1-.48-.064q-.256-.064-.448-.128a5.982,5.982,0,0,1-1.216-.832,12.477,12.477,0,0,1-.9-.928,3.992,3.992,0,0,1-.4-.736,2.276,2.276,0,0,1-.176-.9A1.748,1.748,0,0,1,65.984-20q.064-.288.128-.544a1.6,1.6,0,0,1,.16-.224.347.347,0,0,1,.256-.16,1.521,1.521,0,0,0,.56.736,2.767,2.767,0,0,0,.832.416,2.53,2.53,0,0,0,.624.128h.48a3.522,3.522,0,0,0,.544-.032q.512-.064,1.392-.224t1.92-.4q1.04-.24,1.968-.5a11.237,11.237,0,0,0,1.936-.72q.72-.368.912-.5a1.7,1.7,0,0,1,1.088-.384,7.042,7.042,0,0,1,2.416.448,4.819,4.819,0,0,1,2,1.312.88.88,0,0,1,.224.432,2.182,2.182,0,0,1,.064.5,2.023,2.023,0,0,1-.416.9,9.008,9.008,0,0,1-.992,1.152q-.512,1.184-1.248,2.544T79.3-12.448q-.8,1.312-1.568,2.4a11.7,11.7,0,0,1,3.808.592,10.363,10.363,0,0,1,2.688,1.424,9.812,9.812,0,0,1,1.952,1.92,5.327,5.327,0,0,1,.88,1.52A4.064,4.064,0,0,1,87.36-3.232Zm27.2-13.984q0,.608-1.28,1.184-.608,1.44-1.328,2.912a28.427,28.427,0,0,1-1.488,2.688q.512.256,1.12.592a5.239,5.239,0,0,1,1.024.72,3.409,3.409,0,0,1,1.376,2.592,4.147,4.147,0,0,1-.112.976,1.518,1.518,0,0,1-.464.784,2.6,2.6,0,0,1-.784.528,2.955,2.955,0,0,1-1.2.208,1.776,1.776,0,0,1-1.136-.464,3.23,3.23,0,0,1-.848-1.04,3.266,3.266,0,0,0-.512-.672q-.384-.416-.736-.768a23.583,23.583,0,0,1-2.512,2.832,15.469,15.469,0,0,1-2.928,2.176,21.131,21.131,0,0,1-3.808,1.68q-.768.256-2.112.576T94.176.832Q93.76.9,93.088.96t-1.248.1q-.576.032-.736.032-.384,0-.384-.256a.2.2,0,0,1,.128-.208,1.743,1.743,0,0,1,.32-.08,13.665,13.665,0,0,0,2.448-.688q1.328-.5,2.608-1.1a17.078,17.078,0,0,0,2.72-1.6A26.463,26.463,0,0,0,101.472-4.9a22,22,0,0,0,2.112-2.224,16.6,16.6,0,0,0,1.6-2.256,10.055,10.055,0,0,0-1.6-.992q-.992-.512-2-.928a10.619,10.619,0,0,0-1.744-.576q-.16-.032-.3-.064t-.144-.128q0-.192.352-.32a1.246,1.246,0,0,1,.368-.08q.208-.016.432-.048.256,0,.528-.016t.5-.016q1.248,0,2.544.112a10.515,10.515,0,0,1,2.576.56,9.863,9.863,0,0,0,.48-1.1q.288-.752.608-1.648t.528-1.7a5.291,5.291,0,0,0,.208-1.216q0-.448-.384-.448a3.4,3.4,0,0,0-.784.16q-.56.16-1.1.336t-.768.272a1.923,1.923,0,0,1-.528.176,2.875,2.875,0,0,1-.5.048,1.568,1.568,0,0,1-.992-.352q-.512.736-1.1,1.488t-1.136,1.424q-.8.9-1.584,1.632a17.926,17.926,0,0,1-1.808,1.472q-.224.16-.96.592t-1.376.784a7.591,7.591,0,0,1-.752.32,2.438,2.438,0,0,1-.528.16q-.256,0-.256-.128,0-.064.144-.208a1.037,1.037,0,0,1,.208-.176,7.749,7.749,0,0,1,.592-.592,5.406,5.406,0,0,0,.5-.5A18.533,18.533,0,0,0,96.96-12.9q.64-.864,1.216-1.76a24.519,24.519,0,0,0,1.216-2.16,19.6,19.6,0,0,0,1.088-2.592,7.481,7.481,0,0,0,.448-2.352q0-.224-.592-.576a3.928,3.928,0,0,0-1.2-.48.99.99,0,0,1,.5-.8,3.768,3.768,0,0,1,1.2-.544,5,5,0,0,1,1.312-.192,5.087,5.087,0,0,1,1.824.272,4.26,4.26,0,0,1,1.488.832,1.548,1.548,0,0,1,.592,1.168,2.3,2.3,0,0,1-.48,1.344,10.7,10.7,0,0,1-.5.992q-.24.416-.592.96a.971.971,0,0,0,.288.032,1.7,1.7,0,0,0,.24-.016,1.477,1.477,0,0,1,.208-.016q.64-.16,1.264-.336t1.136-.3a8.743,8.743,0,0,0,.992-.608q.448-.32.736-.512.128-.064.4-.192a1.132,1.132,0,0,1,.464-.128,3.129,3.129,0,0,1,.9.144,4.07,4.07,0,0,1,1.088.56,7.425,7.425,0,0,1,1.088.944,6.581,6.581,0,0,1,.8.944,3.127,3.127,0,0,1,.368.624A1.221,1.221,0,0,1,114.56-17.216Zm26.3-3.808a1.082,1.082,0,0,1-.3.848,2.564,2.564,0,0,1-.816.464q-.832,1.024-1.7,2.032t-1.792,1.936a6.907,6.907,0,0,1,.832.624,1.16,1.16,0,0,1,.512.816,1.424,1.424,0,0,1-.256.7,2.243,2.243,0,0,0-.32.864,2.332,2.332,0,0,0-.032.384v.384q0,2.528.048,5.056t.208,5.056q.064.384.1.784t.032.784a2.952,2.952,0,0,1-.24,1.1,2.939,2.939,0,0,1-.688,1.024,1.435,1.435,0,0,1-1.024.432,1.93,1.93,0,0,1-1.456-.672,4.474,4.474,0,0,1-.944-1.584A4.964,4.964,0,0,1,132.7-1.6a2.326,2.326,0,0,1,.1-.672q.1-.32.16-.64.16-.64.336-1.3a6.345,6.345,0,0,0,.208-1.36q.128-1.216.208-2.4t.08-2.368q0-.7-.016-1.392t-.016-1.392a22.33,22.33,0,0,1-4.592,3.248,29.05,29.05,0,0,1-5.2,2.128q-.224.032-.8.176a4.036,4.036,0,0,1-.768.144q-.064,0-.208-.016t-.144-.144q0-.1.288-.256t.592-.32a3.59,3.59,0,0,1,.4-.192,24.729,24.729,0,0,0,4.384-3.2,35.881,35.881,0,0,0,3.744-3.936q.352-.448.976-1.28t1.28-1.792a15.964,15.964,0,0,0,1.1-1.856,3.476,3.476,0,0,0,.448-1.44.608.608,0,0,0-.352-.528,3.474,3.474,0,0,0-.784-.336q-.432-.128-.688-.224.032-.224.416-.464a6.253,6.253,0,0,1,.928-.464q.544-.224,1.024-.368a2.779,2.779,0,0,1,.7-.144,3.164,3.164,0,0,1,1.056.192,5.01,5.01,0,0,1,.96.448,3.691,3.691,0,0,1,.9.672A10.36,10.36,0,0,1,140.416-22,1.67,1.67,0,0,1,140.864-21.024Zm20.48,4.64a1.153,1.153,0,0,1-.1.512,1.274,1.274,0,0,1-.32.384,27,27,0,0,1-1.456,6.144,14.409,14.409,0,0,1-3.12,4.96q-.608.672-1.28,1.3a13.49,13.49,0,0,1-1.5,1.2,11.724,11.724,0,0,1-1.216.768q-.64.352-1.28.672-.352.192-.7.352a1.689,1.689,0,0,1-.7.16q-.256.064-.32-.128a.709.709,0,0,1,.032-.224.541.541,0,0,1,.224-.224q.512-.352,1.152-.88a10.855,10.855,0,0,0,1.184-1.136,17.6,17.6,0,0,0,2.32-3.328,20.357,20.357,0,0,0,1.552-3.584q.256-.8.512-1.872t.416-2.192a14.577,14.577,0,0,0,.16-2.048,3.3,3.3,0,0,0-.128-.832,2.466,2.466,0,0,0-.5-.928,2.231,2.231,0,0,0-1.136-.672.336.336,0,0,1,.112-.24,1.405,1.405,0,0,1,.208-.176,2.706,2.706,0,0,1,1.04-.464,4.65,4.65,0,0,1,1.072-.176,3.623,3.623,0,0,1,2,.544,4.776,4.776,0,0,1,1.312,1.184A1.994,1.994,0,0,1,161.344-16.384Zm17.856-.48q-.256.832-.736,2.032a16.841,16.841,0,0,1-1.12,2.288q-.576.928-1.2,1.92a14.04,14.04,0,0,1-1.392,1.856,30.631,30.631,0,0,1-3.12,3.056,17.451,17.451,0,0,1-4.464,2.768,3.6,3.6,0,0,1-.768.656,1.962,1.962,0,0,1-.992.208,1.48,1.48,0,0,1-.608-.128q-.416-.1-.864-.832a7.1,7.1,0,0,1-.528-1.1,9.589,9.589,0,0,1-.384-1.232,4.387,4.387,0,0,1-.144-.928.575.575,0,0,1,.1-.352,1.162,1.162,0,0,1,.288-.256,1.21,1.21,0,0,0,.32-.448,1.208,1.208,0,0,0,.128-.416q.032-1.088.048-2.1t.016-2q0-2.5-.08-4.3t-.144-2.352a3.921,3.921,0,0,0-.048-.576,4.378,4.378,0,0,0-.112-.544,1.355,1.355,0,0,0-.592-.784,3.962,3.962,0,0,0-1.3-.624q.064-.448.88-.832a4.193,4.193,0,0,1,1.808-.384,2.224,2.224,0,0,1,.432.048q.24.048.464.112a4.017,4.017,0,0,1,.832.4q.512.3,1.024.672a6.608,6.608,0,0,1,.8.656,2.065,2.065,0,0,1,.368.5,1.183,1.183,0,0,1,.144.56,1.061,1.061,0,0,1-.256.672,2.342,2.342,0,0,0-.512.9q-.1.512-.16,1.2t-.128,1.488q-.128,1.856-.224,3.712t-.1,3.712A22.336,22.336,0,0,0,170.528-9.2a19.844,19.844,0,0,0,4.032-2.928q.608-.544,1.28-1.264t1.264-1.44q.592-.72.912-1.2.256-.32.48-.624a2.815,2.815,0,0,0,.352-.624l.128-.128a.243.243,0,0,1,.224-.032q.064,0,.064.208A.985.985,0,0,1,179.2-16.864Zm8.768,7.3A12.676,12.676,0,0,0,186-9.152a7.332,7.332,0,0,0-1.84.832,8.029,8.029,0,0,0-.912.688,10.205,10.205,0,0,0-1.088,1.056,1.587,1.587,0,0,0-.5.944q0,.32.512.432a3.952,3.952,0,0,0,.736.112,2.839,2.839,0,0,0,1.536-.464A7.042,7.042,0,0,0,185.84-6.72a14.188,14.188,0,0,0,1.2-1.472Q187.584-8.96,187.968-9.568Zm19.968,4.16a2.479,2.479,0,0,1-.416,1.376,1.389,1.389,0,0,1-1.248.64,1.919,1.919,0,0,1-1.024-.32,6.06,6.06,0,0,1-.864-.64q-.512-.448-1.04-.864t-1.1-.8a12.956,12.956,0,0,1-2.768,3.872A12.624,12.624,0,0,1,195.792.24,25.239,25.239,0,0,1,191.2,1.664q-.288.064-.592.128a2.87,2.87,0,0,1-.592.064,1.734,1.734,0,0,1-.3-.032.2.2,0,0,1-.176-.224q0-.192.24-.288a3.127,3.127,0,0,1,.368-.128l1.344-.512A11.65,11.65,0,0,0,192.768.1a12.276,12.276,0,0,0,3.9-3.344,15,15,0,0,0,2.336-4.56,19.563,19.563,0,0,0-4.032-1.456,20.385,20.385,0,0,0-4.256-.464q-.608,1.184-1.216,2.352t-1.248,2.32a8.787,8.787,0,0,1-1.92,2.352,4.13,4.13,0,0,1-2.816,1.072,2.439,2.439,0,0,1-1.648-.512,4.066,4.066,0,0,1-1.008-1.44,2.415,2.415,0,0,1-.928-.8,1.986,1.986,0,0,1-.352-1.152,2.087,2.087,0,0,1,.224-.912,5.313,5.313,0,0,1,.48-.816,8.849,8.849,0,0,1,3.264-2.832,16.489,16.489,0,0,1,4.1-1.488l.832-.192a5.609,5.609,0,0,1,.832-.128q1.024-1.888,2.032-3.92a25.53,25.53,0,0,0,1.616-4.08,1.48,1.48,0,0,0,.048-.176.742.742,0,0,0,.016-.144q0-.128-.192-.128a1.737,1.737,0,0,0-.912.4,11.95,11.95,0,0,0-1.1.9q-.544.5-.8.752a1.157,1.157,0,0,1-.8.32,3,3,0,0,1-2.192-.8,2.908,2.908,0,0,1-.816-2.176,2.874,2.874,0,0,1,.224-1.024,1.264,1.264,0,0,1,.7-.768,1.493,1.493,0,0,0,.672.848,2.2,2.2,0,0,0,1.056.24,5.285,5.285,0,0,0,1.184-.192q.768-.192,1.536-.464t1.12-.432q.512-.224,1.024-.512a10.541,10.541,0,0,0,.96-.608,6.506,6.506,0,0,1,1.68.256,4.491,4.491,0,0,1,1.632.8,1.778,1.778,0,0,1,.688,1.472,1.575,1.575,0,0,1-.384,1.136,3.84,3.84,0,0,1-.992.72,5.076,5.076,0,0,0-1.328,1.248,22.617,22.617,0,0,0-1.5,2.112q-.752,1.184-1.392,2.256t-1.024,1.712a23.523,23.523,0,0,1,3.808.3,31.009,31.009,0,0,1,3.712.848q.032-.256.048-.5t.016-.5a1.271,1.271,0,0,0-.576-1.2,2.862,2.862,0,0,0-1.344-.368.791.791,0,0,1,.336-.576,4.631,4.631,0,0,1,.768-.528,3.509,3.509,0,0,1,.656-.3,5.366,5.366,0,0,1,.592-.16,3.021,3.021,0,0,1,.624-.064,3.964,3.964,0,0,1,1.632.432,6.025,6.025,0,0,1,1.632,1.1,2.009,2.009,0,0,1,.7,1.472.715.715,0,0,1-.128.432,1.881,1.881,0,0,1-.32.336,2,2,0,0,0-.544.9q-.128.48-.256,1.024l.384.192.384.192a1.417,1.417,0,0,0,.08-.432q.016-.272.144-.3a6.615,6.615,0,0,0,1.264,1.3q.72.56,1.424,1.2A2.672,2.672,0,0,1,207.936-5.408Zm26.4-8.128a1.32,1.32,0,0,1-.528,1.088,1.843,1.843,0,0,1-1.168.416,2.469,2.469,0,0,1-.272-.016q-.144-.016-.3-.048a10.585,10.585,0,0,0-2.016-.192q-.288,0-.592.016t-.592.016a5.277,5.277,0,0,0-3.408,1.2,8.226,8.226,0,0,0-2.288,2.864,10.607,10.607,0,0,0-.4,1.072,3.669,3.669,0,0,0-.176,1.1,3.029,3.029,0,0,0,.736,2.272,3.993,3.993,0,0,0,2.208.928,8.469,8.469,0,0,0,.9.08,7.422,7.422,0,0,1,.864.08,2.986,2.986,0,0,1,2.064,1.184A3.561,3.561,0,0,1,230.208.8a1.227,1.227,0,0,1-.384.976,2,2,0,0,1-.944.448,5.62,5.62,0,0,1-1.1.112,7.912,7.912,0,0,1-1.824-.256,14.78,14.78,0,0,1-2.048-.656,7.229,7.229,0,0,1-1.632-.88,5.267,5.267,0,0,1-1.808-2.256,7.791,7.791,0,0,1-.5-2.864,6.038,6.038,0,0,1,.608-2.464,17.275,17.275,0,0,1,1.456-2.592,15.672,15.672,0,0,1,1.584-2.016q-1.92.8-4.08,1.776a20.234,20.234,0,0,0-3.824,2.224,2.88,2.88,0,0,1-.416.288,2.88,2.88,0,0,0-.416.288,3.21,3.21,0,0,1-.624.4,1.751,1.751,0,0,1-.752.144.752.752,0,0,1-.768-.448,2.259,2.259,0,0,1-.192-.9,8.244,8.244,0,0,1,.08-1.056,3.508,3.508,0,0,1,.336-1.12,1.258,1.258,0,0,1,.736-.672q.8-.288,1.552-.5a5.874,5.874,0,0,0,1.488-.656,14.656,14.656,0,0,0,3.632-3.312,22.009,22.009,0,0,0,2.64-4.112q.064-.16.224-.528t.3-.736a1.751,1.751,0,0,0,.144-.5q0-.256-.224-.256a1.633,1.633,0,0,0-.816.32,7.931,7.931,0,0,0-1.024.8q-.528.48-.96.912l-.688.688a2.325,2.325,0,0,1-.608.416,1.593,1.593,0,0,1-.7.192,1.575,1.575,0,0,1-1.568-.864,4.223,4.223,0,0,1-.416-1.856,4.895,4.895,0,0,1,.128-1.008,3.933,3.933,0,0,1,.416-1.1,1.13,1.13,0,0,1,.768-.608,6.069,6.069,0,0,0,.288,1.28.963.963,0,0,0,1.024.672,3.754,3.754,0,0,0,1.728-.464,15.223,15.223,0,0,0,1.76-1.072q.864-.608,1.616-1.072a2.562,2.562,0,0,1,1.264-.464,5.376,5.376,0,0,1,1.616.256,3.312,3.312,0,0,1,1.376.816,2.054,2.054,0,0,1,.56,1.52,2.128,2.128,0,0,1-.384,1.312,3.79,3.79,0,0,1-1.056.928,5.315,5.315,0,0,1-.672.4,2.932,2.932,0,0,0-.64.432q-.576.512-1.136,1.1t-1.1,1.136q-1.184,1.216-2.368,2.48t-2.4,2.512a37.217,37.217,0,0,0,4.5-1.792q2.224-1.056,4.368-2.08a2.839,2.839,0,0,0,.656-.416,1.082,1.082,0,0,1,.72-.256,7.674,7.674,0,0,1,1.36.144,7.265,7.265,0,0,1,1.536.464,3.9,3.9,0,0,1,1.248.816A1.673,1.673,0,0,1,234.336-13.536ZM26.624,39.184a6,6,0,0,1-.992,3.488,7.626,7.626,0,0,1-2.64,2.352,15.111,15.111,0,0,1-3.584,1.408,25.871,25.871,0,0,1-3.872.688q-1.936.192-3.472.192-.544,0-1.152-.016a5.179,5.179,0,0,1-1.12-.144l-.032-.32.592-.064.592-.064A19.873,19.873,0,0,0,14.4,46a26.229,26.229,0,0,0,3.3-1.216,7.74,7.74,0,0,0,3.1-2.4,6.094,6.094,0,0,0,1.12-3.744,2.787,2.787,0,0,0-1.04-2.3,3.755,3.755,0,0,0-2.416-.832,6.071,6.071,0,0,0-3.056.832,7.483,7.483,0,0,0-2.384,2.112,3.645,3.645,0,0,0-.608,1.2q-.16.592-.384,1.264a1.314,1.314,0,0,1-.656.72,1.982,1.982,0,0,1-.976.3,1.865,1.865,0,0,1-1.376-.544,3.289,3.289,0,0,1-.8-1.328,4.8,4.8,0,0,1-.256-1.488,20.3,20.3,0,0,1,.352-3.76,32.838,32.838,0,0,1,.9-3.632q.16-.48.4-1.28a9.989,9.989,0,0,1,.592-1.52,2.048,2.048,0,0,1,.768-.944l.16.064q-.032.224-.048.432t-.016.432a5.9,5.9,0,0,0,.08.9,2.237,2.237,0,0,0,.3.864,1.575,1.575,0,0,0,.432.528.856.856,0,0,1,.24.72,1.006,1.006,0,0,1-.016.16,1.166,1.166,0,0,0-.016.192q-.224,1.088-.48,2.192a9.954,9.954,0,0,0-.256,2.256,3.106,3.106,0,0,0,.112.608q.112.448.336.448a1,1,0,0,0,.512-.224q.32-.224.448-.32a21.11,21.11,0,0,1,3.5-2.3,8.618,8.618,0,0,1,4.048-.96A7.369,7.369,0,0,1,23.5,34.1a5.428,5.428,0,0,1,2.272,1.968A5.572,5.572,0,0,1,26.624,39.184ZM20,25.3a1.614,1.614,0,0,1-.56,1.264,1.9,1.9,0,0,1-1.3.5,3.669,3.669,0,0,1-.688-.064,6.541,6.541,0,0,1-.656-.16,8.926,8.926,0,0,0-2.4-.32,8.576,8.576,0,0,0-1.472.128,6.3,6.3,0,0,0-1.408.416l-.128-.1a3.652,3.652,0,0,1,.9-1.04,5.933,5.933,0,0,1,1.152-.72,5.806,5.806,0,0,1-1.632-1.536,3.44,3.44,0,0,1-.736-2.08,1.4,1.4,0,0,1,.352-.928,3.463,3.463,0,0,0,1.6,1.072,8.342,8.342,0,0,0,2.064.416q1.072.08,1.968.08a2.387,2.387,0,0,1,1.408.48,4.032,4.032,0,0,1,1.1,1.184A2.673,2.673,0,0,1,20,25.3Zm39.744,8.992a1.428,1.428,0,0,1-.656,1.248,3.136,3.136,0,0,1-1.584.512H54.832q-1.04,0-1.9-.032-.416,0-.784-.016t-.752-.016q-2.816,0-5.056.08t-4.672.176q-.448.032-1.376.112t-1.984.192q-1.056.112-1.92.192a11.4,11.4,0,0,0-1.152.144,4.557,4.557,0,0,1-2.656-.752,2.593,2.593,0,0,1-1.088-2.288,2.934,2.934,0,0,1,.272-1.12,1.22,1.22,0,0,1,.688-.768,2.708,2.708,0,0,0,1.04.96,4.417,4.417,0,0,0,1.3.432,7.168,7.168,0,0,0,1.152.112q1.024,0,2.048.016t2.048-.016q1.7-.1,3.024-.192t3.024-.288q1.7-.192,2.976-.368t2.384-.432q1.1-.256,2.224-.608a12.142,12.142,0,0,1,2.592.336,8.817,8.817,0,0,1,2.08.752,4.3,4.3,0,0,1,.912.7A1.345,1.345,0,0,1,59.744,34.288ZM69.632,38a10.458,10.458,0,0,1-1.072-1.984,22.212,22.212,0,0,1-.752-2.144,11.2,11.2,0,0,0-1.36,2.416,7.265,7.265,0,0,0-.5,2.736,4.488,4.488,0,0,0,.112.912.588.588,0,0,0,.624.528,1.719,1.719,0,0,0,1.056-.48,9.369,9.369,0,0,0,1.088-1.072Q69.344,38.32,69.632,38Zm4.832-9.024a7.964,7.964,0,0,0-2.144.848,16.082,16.082,0,0,0-1.888,1.3,7.911,7.911,0,0,0,.528,1.712,10.664,10.664,0,0,0,.848,1.584q.768-1.28,1.456-2.656A26.385,26.385,0,0,0,74.464,28.976Zm13.6,6.3a8.807,8.807,0,0,1-1.1,4.5,10.036,10.036,0,0,1-2.944,3.2,17.116,17.116,0,0,1-4.048,2.1,28.668,28.668,0,0,1-4.384,1.216q-.256.032-.832.144t-1.12.192a6.142,6.142,0,0,1-.768.08.815.815,0,0,1-.288-.048q-.128-.048-.128-.272,0-.16.224-.24t.32-.112q.672-.16,1.344-.352t1.344-.416A12.616,12.616,0,0,0,79.6,43.04a10.73,10.73,0,0,0,2.752-3.472,9.735,9.735,0,0,0,1.008-4.416,7.71,7.71,0,0,0-.672-3.3A5.371,5.371,0,0,0,80.7,29.568a5.716,5.716,0,0,0-3.264-.816q-.96,1.6-1.808,3.3T74.112,35.5a2.569,2.569,0,0,0,.4,1.52,11.889,11.889,0,0,0,.8,1.008,1.534,1.534,0,0,1,.4,1.056,1.315,1.315,0,0,1-.416,1.04,1.535,1.535,0,0,1-1.056.368,3.02,3.02,0,0,1-1.136-.24,7.718,7.718,0,0,1-1.072-.528,15.427,15.427,0,0,1-1.28,1.84,9.547,9.547,0,0,1-1.792,1.744,3.44,3.44,0,0,1-2.08.736,1.7,1.7,0,0,1-1.28-.432,2.451,2.451,0,0,1-.592-1.072q-.176-.64-.4-1.28a1.886,1.886,0,0,0-.432-.784,6.018,6.018,0,0,0-.56-.5,1.776,1.776,0,0,1-.48-.592,2.377,2.377,0,0,1-.192-1.072,5.306,5.306,0,0,1,.736-2.576,13.406,13.406,0,0,1,1.792-2.5,14.85,14.85,0,0,1,1.984-1.872,7.161,7.161,0,0,0-.144-1.04q-.112-.528-.176-1.04a6.739,6.739,0,0,0-.416-1.6,4.124,4.124,0,0,0-.928-1.344,3.54,3.54,0,0,0-.4-.4,3.54,3.54,0,0,1-.4-.4,2.445,2.445,0,0,1-.352-.512,1.345,1.345,0,0,1-.128-.608q0-.064.1-.08t.128.016q.9.512,1.808,1.024t1.808.992a2.707,2.707,0,0,1,.864.608,2.25,2.25,0,0,1,.48.928,6.912,6.912,0,0,1,.208.9,8.406,8.406,0,0,0,.208.928q1.152-.608,2.352-1.136a10.729,10.729,0,0,1,2.48-.752q.288-.832.56-1.7a5.828,5.828,0,0,0,.272-1.76,1.12,1.12,0,0,0-.56-1.056,3.973,3.973,0,0,0-1.2-.448.9.9,0,0,1,.5-.736,5.03,5.03,0,0,1,1.1-.528q.608-.208.9-.272a5.27,5.27,0,0,1,.592-.1,5.655,5.655,0,0,1,.592-.032,4.336,4.336,0,0,1,2.672,1.1,1.611,1.611,0,0,1,.56,1.2,1.421,1.421,0,0,1-.464,1.056q-.464.448-.88.832a4.254,4.254,0,0,0-.72.96q-.4.672-.656,1.056h.544a13.2,13.2,0,0,1,3.392.432A8.89,8.89,0,0,1,85.12,29.28a6.858,6.858,0,0,1,2.144,2.64A7.687,7.687,0,0,1,88.064,35.28Zm29.632-.288a16.572,16.572,0,0,1-.5,4.1,10.591,10.591,0,0,1-1.568,3.488,7.575,7.575,0,0,1-2.768,2.416,8.8,8.8,0,0,1-4.1.88,5.333,5.333,0,0,1-5.376-4.512,7.592,7.592,0,0,1-.112-1.1q-.016-.56-.016-1.072,0-.64.048-1.3t.048-1.3q0-.32-.032-.736a1.656,1.656,0,0,0-.224-.736.687.687,0,0,0-.64-.32,2.414,2.414,0,0,0-1.232.368,6.19,6.19,0,0,0-1.072.784,6.392,6.392,0,0,0-1.168,1.472,15.707,15.707,0,0,0-1.024,2.032,22.2,22.2,0,0,0-.784,2.16,14.332,14.332,0,0,0-.448,1.856,7.366,7.366,0,0,0-.08.848,3.285,3.285,0,0,1-.144.848,1.106,1.106,0,0,1-.592.72,2.034,2.034,0,0,1-.944.24,2.323,2.323,0,0,1-1.568-.5,2.581,2.581,0,0,1-.8-1.28,5.971,5.971,0,0,1-.224-1.648V42.64a2.391,2.391,0,0,1,.288-1.232q.256-.368.672-1.072.16-.288.3-.576t.272-.576q.352-.64.72-1.28t.752-1.248Q96.96,34,98.512,31.44t2.96-5.312q.256-.448.528-.912a3.692,3.692,0,0,0,.4-.976,2.765,2.765,0,0,0,.16-.864,1.983,1.983,0,0,0-.4-1.232,1.714,1.714,0,0,0-1.1-.656,1.021,1.021,0,0,1,.672-.56,3.955,3.955,0,0,1,1.024-.16q.544-.016.9-.016a3.161,3.161,0,0,1,1.648.448,3.587,3.587,0,0,1,1.216,1.184,3,3,0,0,1,.464,1.632,1.162,1.162,0,0,1-.384.9q-.384.352-.736.64a5.441,5.441,0,0,0-.5.5q-.24.272-.5.528A43.628,43.628,0,0,0,99.68,33.9q-.32.544-.64,1.072a9.83,9.83,0,0,0-.576,1.1,14.2,14.2,0,0,1,1.488-1.28,9.388,9.388,0,0,1,1.808-1.072,4.512,4.512,0,0,1,1.856-.432,2.615,2.615,0,0,1,2.592,1.7,4.639,4.639,0,0,1,.384,1.6q.064.9.112,1.824a7.665,7.665,0,0,0,.272,1.712,2.446,2.446,0,0,0,.816,1.264,2.778,2.778,0,0,0,1.776.48,5.548,5.548,0,0,0,3.68-1.152,10.2,10.2,0,0,0,2.4-3.072,12.2,12.2,0,0,0,.944-2.48,10.056,10.056,0,0,0,.4-2.64.476.476,0,0,1,.064-.24.157.157,0,0,1,.192-.08,2.191,2.191,0,0,1,.288.816,8.912,8.912,0,0,1,.128,1.072Q117.7,34.64,117.7,34.992ZM148.608,44.3A1.79,1.79,0,0,1,148,45.728a3.582,3.582,0,0,1-1.44.752,15.2,15.2,0,0,1-2.416.384q-1.232.1-2.448.1a21.286,21.286,0,0,1-3.92-.368,17.348,17.348,0,0,1-3.792-1.168,5.4,5.4,0,0,1-2.208-1.84,4.738,4.738,0,0,1-.832-2.768,5.04,5.04,0,0,1,.88-2.9,10.1,10.1,0,0,1,2.176-2.3,20.861,20.861,0,0,1,2.544-1.712,4.148,4.148,0,0,1-1.024-1.728,9.472,9.472,0,0,1-.4-2.176q-.08-1.152-.064-2.288a17.751,17.751,0,0,0-.08-2.064,3.763,3.763,0,0,0-.576-1.872,2.719,2.719,0,0,0-1.76-.816.877.877,0,0,1,.3-.48,3.514,3.514,0,0,1,.624-.464,4.346,4.346,0,0,1,.512-.272,5.1,5.1,0,0,1,2.048-.416,2.4,2.4,0,0,1,2.544,1.792,5.988,5.988,0,0,1,.24,1.728q0,.192-.016.384t-.048.384l-.256,2.176a18.609,18.609,0,0,0-.128,2.176q0,.256.016.88a4.633,4.633,0,0,0,.16,1.136q.144.512.5.544.192-.1.832-.432t1.36-.784q.72-.448,1.264-.848t.544-.592a.532.532,0,0,0-.288-.544,1.873,1.873,0,0,0-.688-.144q-.4-.016-.688-.016.032-.064,0-.032t-.032,0q0-.128.352-.32a7.265,7.265,0,0,1,.848-.384q.5-.192.928-.32a2.563,2.563,0,0,1,.592-.128,3.794,3.794,0,0,1,2.416.848,2.732,2.732,0,0,1,1.072,2.256,1.077,1.077,0,0,1-.448,1.024,3.624,3.624,0,0,1-1.12.384q-.8.16-1.824.384t-2.032.48a17.053,17.053,0,0,0-1.776.544,2.6,2.6,0,0,1-.272.944.812.812,0,0,1-.784.5,1.943,1.943,0,0,1-.848-.176q-.368-.176-.784-.4a9.3,9.3,0,0,0-1.936,1.072,5.409,5.409,0,0,0-1.472,1.568,3.984,3.984,0,0,0-.56,2.128,2.122,2.122,0,0,0,.56,1.52,3.863,3.863,0,0,0,1.408.928,7.659,7.659,0,0,0,1.744.464,11.442,11.442,0,0,0,1.6.128q1.248,0,2.448-.112a14.938,14.938,0,0,0,2.416-.432q.288-.064.576-.112a3.7,3.7,0,0,1,.608-.048,4.945,4.945,0,0,1,1.5.256,3.654,3.654,0,0,1,1.376.784A1.8,1.8,0,0,1,148.608,44.3Zm.448-17.984a1.7,1.7,0,0,1-.32,1.04,1.153,1.153,0,0,1-.992.432,1.254,1.254,0,0,1-.848-.32,1.383,1.383,0,0,1-.464-.768,5.555,5.555,0,0,0-.72-1.616,3.168,3.168,0,0,0-1.2-1.232.308.308,0,0,0-.144-.064q-.048,0-.048-.128t.224-.128a6.672,6.672,0,0,1,2.224.4,4.05,4.05,0,0,1,1.84,1.264,2.009,2.009,0,0,1,.336.512A1.509,1.509,0,0,1,149.056,26.32Zm3.68-1.76a1.4,1.4,0,0,1-.4.976,1.246,1.246,0,0,1-.944.432,1.214,1.214,0,0,1-.672-.208,1.415,1.415,0,0,1-.48-.5,6.762,6.762,0,0,0-1.5-1.856,7.377,7.377,0,0,0-.736-.576q-.416-.288-.8-.512a.085.085,0,0,1-.1-.1q0-.128.3-.16t.64-.048q.336-.016.432-.016a8.813,8.813,0,0,1,1.792.208A4.377,4.377,0,0,1,152,22.96,1.864,1.864,0,0,1,152.736,24.56Zm20.288,9.568a3.386,3.386,0,0,1-.464,1.728,3.459,3.459,0,0,1-1.248,1.264,3.479,3.479,0,0,1-3.472,0,3.422,3.422,0,0,1-1.264-1.264,3.479,3.479,0,0,1,0-3.472,3.46,3.46,0,0,1,1.264-1.248,3.479,3.479,0,0,1,3.472,0,3.5,3.5,0,0,1,1.248,1.248A3.36,3.36,0,0,1,173.024,34.128Zm20.544,2.3a12.676,12.676,0,0,0-1.968.416,7.332,7.332,0,0,0-1.84.832,8.03,8.03,0,0,0-.912.688,10.205,10.205,0,0,0-1.088,1.056,1.587,1.587,0,0,0-.5.944q0,.32.512.432a3.952,3.952,0,0,0,.736.112,2.839,2.839,0,0,0,1.536-.464,7.042,7.042,0,0,0,1.392-1.168,14.188,14.188,0,0,0,1.2-1.472Q193.184,37.04,193.568,36.432Zm19.968,4.16a2.479,2.479,0,0,1-.416,1.376,1.389,1.389,0,0,1-1.248.64,1.919,1.919,0,0,1-1.024-.32,6.061,6.061,0,0,1-.864-.64q-.512-.448-1.04-.864t-1.1-.8a12.956,12.956,0,0,1-2.768,3.872,12.624,12.624,0,0,1-3.68,2.384,25.239,25.239,0,0,1-4.592,1.424q-.288.064-.592.128a2.87,2.87,0,0,1-.592.064,1.735,1.735,0,0,1-.3-.032.2.2,0,0,1-.176-.224q0-.192.24-.288a3.127,3.127,0,0,1,.368-.128l1.344-.512a11.65,11.65,0,0,0,1.28-.576,12.276,12.276,0,0,0,3.9-3.344,15,15,0,0,0,2.336-4.56,19.563,19.563,0,0,0-4.032-1.456,20.385,20.385,0,0,0-4.256-.464q-.608,1.184-1.216,2.352t-1.248,2.32a8.787,8.787,0,0,1-1.92,2.352,4.13,4.13,0,0,1-2.816,1.072,2.439,2.439,0,0,1-1.648-.512,4.066,4.066,0,0,1-1.008-1.44,2.415,2.415,0,0,1-.928-.8,1.986,1.986,0,0,1-.352-1.152,2.087,2.087,0,0,1,.224-.912,5.313,5.313,0,0,1,.48-.816,8.848,8.848,0,0,1,3.264-2.832,16.489,16.489,0,0,1,4.1-1.488l.832-.192a5.609,5.609,0,0,1,.832-.128q1.024-1.888,2.032-3.92a25.53,25.53,0,0,0,1.616-4.08,1.48,1.48,0,0,0,.048-.176.742.742,0,0,0,.016-.144q0-.128-.192-.128a1.737,1.737,0,0,0-.912.4,11.95,11.95,0,0,0-1.1.9q-.544.5-.8.752a1.157,1.157,0,0,1-.8.32,3,3,0,0,1-2.192-.8,2.908,2.908,0,0,1-.816-2.176,2.874,2.874,0,0,1,.224-1.024,1.264,1.264,0,0,1,.7-.768,1.493,1.493,0,0,0,.672.848,2.2,2.2,0,0,0,1.056.24,5.285,5.285,0,0,0,1.184-.192q.768-.192,1.536-.464t1.12-.432q.512-.224,1.024-.512a10.541,10.541,0,0,0,.96-.608,6.506,6.506,0,0,1,1.68.256,4.491,4.491,0,0,1,1.632.8,1.778,1.778,0,0,1,.688,1.472,1.575,1.575,0,0,1-.384,1.136,3.84,3.84,0,0,1-.992.72,5.076,5.076,0,0,0-1.328,1.248,22.617,22.617,0,0,0-1.5,2.112q-.752,1.184-1.392,2.256t-1.024,1.712a23.523,23.523,0,0,1,3.808.3,31.009,31.009,0,0,1,3.712.848q.032-.256.048-.5t.016-.5a1.271,1.271,0,0,0-.576-1.2,2.862,2.862,0,0,0-1.344-.368.791.791,0,0,1,.336-.576,4.632,4.632,0,0,1,.768-.528,3.509,3.509,0,0,1,.656-.3,5.367,5.367,0,0,1,.592-.16,3.021,3.021,0,0,1,.624-.064,3.964,3.964,0,0,1,1.632.432,6.025,6.025,0,0,1,1.632,1.1,2.009,2.009,0,0,1,.7,1.472.715.715,0,0,1-.128.432,1.881,1.881,0,0,1-.32.336,2,2,0,0,0-.544.9q-.128.48-.256,1.024l.384.192.384.192a1.417,1.417,0,0,0,.08-.432q.016-.272.144-.3a6.615,6.615,0,0,0,1.264,1.3q.72.56,1.424,1.2A2.672,2.672,0,0,1,213.536,40.592Zm26.4-8.128a1.32,1.32,0,0,1-.528,1.088,1.843,1.843,0,0,1-1.168.416,2.468,2.468,0,0,1-.272-.016q-.144-.016-.3-.048a10.585,10.585,0,0,0-2.016-.192q-.288,0-.592.016t-.592.016a5.277,5.277,0,0,0-3.408,1.2,8.226,8.226,0,0,0-2.288,2.864,10.607,10.607,0,0,0-.4,1.072,3.669,3.669,0,0,0-.176,1.1,3.029,3.029,0,0,0,.736,2.272,3.993,3.993,0,0,0,2.208.928,8.468,8.468,0,0,0,.9.08,7.422,7.422,0,0,1,.864.08,2.986,2.986,0,0,1,2.064,1.184,3.561,3.561,0,0,1,.848,2.272,1.227,1.227,0,0,1-.384.976,2,2,0,0,1-.944.448,5.62,5.62,0,0,1-1.1.112,7.912,7.912,0,0,1-1.824-.256,14.78,14.78,0,0,1-2.048-.656,7.229,7.229,0,0,1-1.632-.88,5.267,5.267,0,0,1-1.808-2.256,7.791,7.791,0,0,1-.5-2.864,6.038,6.038,0,0,1,.608-2.464,17.275,17.275,0,0,1,1.456-2.592,15.672,15.672,0,0,1,1.584-2.016q-1.92.8-4.08,1.776a20.234,20.234,0,0,0-3.824,2.224,2.88,2.88,0,0,1-.416.288,2.88,2.88,0,0,0-.416.288,3.21,3.21,0,0,1-.624.4,1.751,1.751,0,0,1-.752.144.752.752,0,0,1-.768-.448,2.259,2.259,0,0,1-.192-.9,8.244,8.244,0,0,1,.08-1.056,3.508,3.508,0,0,1,.336-1.12,1.258,1.258,0,0,1,.736-.672q.8-.288,1.552-.5a5.874,5.874,0,0,0,1.488-.656,14.656,14.656,0,0,0,3.632-3.312,22.009,22.009,0,0,0,2.64-4.112q.064-.16.224-.528t.3-.736a1.751,1.751,0,0,0,.144-.5q0-.256-.224-.256a1.633,1.633,0,0,0-.816.32,7.931,7.931,0,0,0-1.024.8q-.528.48-.96.912l-.688.688a2.325,2.325,0,0,1-.608.416,1.593,1.593,0,0,1-.7.192,1.575,1.575,0,0,1-1.568-.864,4.223,4.223,0,0,1-.416-1.856,4.895,4.895,0,0,1,.128-1.008,3.933,3.933,0,0,1,.416-1.1,1.13,1.13,0,0,1,.768-.608,6.069,6.069,0,0,0,.288,1.28.963.963,0,0,0,1.024.672,3.754,3.754,0,0,0,1.728-.464,15.223,15.223,0,0,0,1.76-1.072q.864-.608,1.616-1.072a2.562,2.562,0,0,1,1.264-.464,5.376,5.376,0,0,1,1.616.256,3.312,3.312,0,0,1,1.376.816,2.054,2.054,0,0,1,.56,1.52,2.128,2.128,0,0,1-.384,1.312,3.79,3.79,0,0,1-1.056.928,5.315,5.315,0,0,1-.672.4,2.932,2.932,0,0,0-.64.432q-.576.512-1.136,1.1t-1.1,1.136q-1.184,1.216-2.368,2.48t-2.4,2.512a37.217,37.217,0,0,0,4.5-1.792q2.224-1.056,4.368-2.08a2.839,2.839,0,0,0,.656-.416,1.082,1.082,0,0,1,.72-.256,7.674,7.674,0,0,1,1.36.144,7.265,7.265,0,0,1,1.536.464,3.9,3.9,0,0,1,1.248.816A1.673,1.673,0,0,1,239.936,32.464Z" transform="translate(-0.448 27.072)" fill="#fff"/></svg>