<svg xmlns="http://www.w3.org/2000/svg" width="155.968" height="30.016" viewBox="0 0 155.968 30.016"><path d="M21.7-17.568H10.176v2.176h7.3a1.249,1.249,0,0,1,.512-.784,1.446,1.446,0,0,1,.864-.3,1.225,1.225,0,0,1,.944.4,1.348,1.348,0,0,1,.368.944.96.96,0,0,1-.464.848,1.753,1.753,0,0,1-.976.3H10.176v2.048H17.5a1.112,1.112,0,0,1,.5-.784,1.515,1.515,0,0,1,.88-.3,1.189,1.189,0,0,1,.912.4,1.348,1.348,0,0,1,.368.944.96.96,0,0,1-.464.848,1.753,1.753,0,0,1-.976.3H10.176v2.144h8.512a2.9,2.9,0,0,0,2.24-.832,3.22,3.22,0,0,0,.768-2.272ZM13.952-1.216a.363.363,0,0,1-.1.24.959.959,0,0,1-.192.176A14.331,14.331,0,0,1,11.36.672,21.044,21.044,0,0,1,8.5,1.9a25.519,25.519,0,0,1-3.008.848,13.089,13.089,0,0,1-2.736.32A.568.568,0,0,1,2.5,3.008a.205.205,0,0,1-.128-.192A.32.32,0,0,1,2.48,2.56a1.176,1.176,0,0,1,.24-.16,11.006,11.006,0,0,1,.992-.528,7.608,7.608,0,0,0,.992-.56A37.889,37.889,0,0,0,7.92-.96a20,20,0,0,0,2.864-2.688q.544.352,1.056.736t1.024.736q.256.16.48.32t.448.352A.314.314,0,0,1,13.952-1.216ZM31.264-5.5a1.4,1.4,0,0,1-.672,1.392,3.464,3.464,0,0,1-1.568.336H1.312V-5.248h25.92A2.4,2.4,0,0,1,27.856-6.7a1.829,1.829,0,0,1,1.424-.624,2.051,2.051,0,0,1,1.344.544A1.636,1.636,0,0,1,31.264-5.5Zm-1.44,7.04a1.254,1.254,0,0,1-.56,1.008,1.813,1.813,0,0,1-1.1.432,13.5,13.5,0,0,1-3.52-.512,27.124,27.124,0,0,1-3.7-1.3A23.815,23.815,0,0,1,17.76-.48a1.405,1.405,0,0,1-.208-.176A.336.336,0,0,1,17.44-.9a.351.351,0,0,1,.128-.224,3.226,3.226,0,0,1,.56-.448q.3-.192.592-.416,1.056-.864,2.08-1.6,1.152,1.248,2.672,2.608a17.313,17.313,0,0,0,2.992,2.192,1.743,1.743,0,0,1,.688-.88A1.874,1.874,0,0,1,28.224,0a1.59,1.59,0,0,1,1.12.448A1.433,1.433,0,0,1,29.824,1.536Zm-.8-24.672a1.377,1.377,0,0,1-.7,1.3,3,3,0,0,1-1.5.4H17.568v2.5h8.224v6.816a5.567,5.567,0,0,1-.848,3.312A4.336,4.336,0,0,1,22.624-7.2a11.667,11.667,0,0,1-3.392.448H6.5V-18.944h7.3v-2.5H3.2v-1.568H13.76v-3.52H17.6v3.52h7.456a1.958,1.958,0,0,1,.592-1.408,1.881,1.881,0,0,1,1.392-.608,2,2,0,0,1,1.36.56A1.729,1.729,0,0,1,29.024-23.136Zm26.048,5.6H41.184v3.488h9.44a1.244,1.244,0,0,1,.592-.976,2.026,2.026,0,0,1,1.1-.336,1.435,1.435,0,0,1,1.024.432,1.358,1.358,0,0,1,.448,1.008,1.274,1.274,0,0,1-.464,1.008,1.593,1.593,0,0,1-1.072.4H41.184v3.456H52.192a2.635,2.635,0,0,0,2.112-.9,3.23,3.23,0,0,0,.768-2.176ZM63.392-4.7a1.421,1.421,0,0,1-.72,1.376,3.313,3.313,0,0,1-1.584.384h-11.3V3.1H46.016V-2.944H33.344v-1.6H46.016V-7.456H37.472V-19.1h8.48V-26.56h3.84V-23.1H56.64a1.95,1.95,0,0,1,.64-1.28,1.823,1.823,0,0,1,1.28-.544,1.816,1.816,0,0,1,1.312.528,1.736,1.736,0,0,1,.544,1.3,1.257,1.257,0,0,1-.608,1.184,2.634,2.634,0,0,1-1.344.352H49.792V-19.1H59.1V-12A4.5,4.5,0,0,1,58.5-9.5,3.683,3.683,0,0,1,56.88-8.128a7.681,7.681,0,0,1-2.24.592,17.631,17.631,0,0,1-2.5.112q-1.264-.032-2.352-.032v2.912h9.664a2.208,2.208,0,0,1,.656-1.376,1.96,1.96,0,0,1,1.424-.544,1.868,1.868,0,0,1,1.248.544A1.608,1.608,0,0,1,63.392-4.7Zm12.032-9.664q0-1.6-.016-3.168t-.016-3.136H70.72v3.744h1.568a.957.957,0,0,1,.448-.784,1.557,1.557,0,0,1,.864-.272,1.4,1.4,0,0,1,.928.352,1.122,1.122,0,0,1,.416.9,1.111,1.111,0,0,1-.384.816,1.184,1.184,0,0,1-.832.368H70.72v3.744h2.912a1.327,1.327,0,0,0,1.024-.416,2.67,2.67,0,0,0,.576-1.024A3.742,3.742,0,0,0,75.424-14.368ZM79.136-3.52a.987.987,0,0,1-.144.48.442.442,0,0,1-.4.256.815.815,0,0,1-.544-.224,10.282,10.282,0,0,1-.752-.768q-.368-.416-.752-.8a18.8,18.8,0,0,1-1.28,1.5A7.115,7.115,0,0,1,73.7-1.856,11.163,11.163,0,0,1,70.48-.672a16.437,16.437,0,0,1-3.408.384v-21.7l4.16-.032q-.032-.736-.032-1.472v-3.424q.256,0,.912.032t1.456.08q.8.048,1.44.128a4.371,4.371,0,0,1,.8.144.652.652,0,0,1,.16.48,2.107,2.107,0,0,1-.288.848,12.257,12.257,0,0,1-.7,1.184q-.416.624-.816,1.168t-.592.832H79.04v6.784a5.149,5.149,0,0,1-.8,3.136,3.838,3.838,0,0,1-2.208,1.408,13.235,13.235,0,0,1-3.2.352q-.512,0-1.04-.016t-1.072-.016v6.592a10.253,10.253,0,0,0,2.4-.784,14.8,14.8,0,0,0,2.208-1.2q-.32-.32-.624-.64t-.656-.64Q73.984-7.1,73.76-7.3t-.432-.4q-.208-.208-.208-.272a.258.258,0,0,1,.144-.24,1.131,1.131,0,0,1,.272-.112l3.008-1.024a13.672,13.672,0,0,1,1.088,1.68,17.441,17.441,0,0,1,1.056,2.208A5.456,5.456,0,0,1,79.136-3.52ZM92.96-1.248a4.417,4.417,0,0,1-.8,2.88,3.5,3.5,0,0,1-2.816.96A3.617,3.617,0,0,1,87.9,2.3a10.874,10.874,0,0,1-1.312-.672l-.7-.464Q85.376.832,84.816.416T83.84-.368q-.416-.368-.416-.56a.175.175,0,0,1,.112-.176.531.531,0,0,1,.208-.048.516.516,0,0,1,.224.064A16.246,16.246,0,0,0,85.856-.4a7.142,7.142,0,0,0,2.016.272.953.953,0,0,0,.976-.56,2.935,2.935,0,0,0,.24-1.168q0-5.28-.032-10.576t-.032-10.576H84.736v2.752q0,1.376.032,2.784h.992a1.148,1.148,0,0,1,.5-.752A1.483,1.483,0,0,1,87.1-18.5a1.388,1.388,0,0,1,.912.368,1.12,1.12,0,0,1,.432.88,1.061,1.061,0,0,1-.4.848,1.338,1.338,0,0,1-.88.336H84.8q0,.8.016,1.6t.016,1.632q0,.512-.016,1.04t-.048,1.072h.96a1.492,1.492,0,0,1,.576-.736,1.5,1.5,0,0,1,.864-.288,1.3,1.3,0,0,1,.864.368,1.106,1.106,0,0,1,.416.848,1,1,0,0,1-.416.832,1.4,1.4,0,0,1-.864.32H84.64a14.529,14.529,0,0,1-1.488,5.36A12.019,12.019,0,0,1,79.616.256a12.061,12.061,0,0,1-1.632,1.088,19.179,19.179,0,0,1-1.76.864q-.32.128-.624.24a1.883,1.883,0,0,1-.656.112.283.283,0,0,1-.32-.32.37.37,0,0,1,.112-.272.925.925,0,0,1,.24-.176q.448-.288.944-.656a11.051,11.051,0,0,0,.912-.752,14.192,14.192,0,0,0,1.456-1.552,9.867,9.867,0,0,0,1.136-1.776A13,13,0,0,0,80.752-7.36a39.819,39.819,0,0,0,.272-4.608q0-3.1-.064-6.208l-.128-6.208h12.1q0,5.792.016,11.568T92.96-1.248Zm21.6-5.376h-5.12v4.192h3.584a1.2,1.2,0,0,0,1.264-.688,4.011,4.011,0,0,0,.272-1.488Zm-11.168-8,.032,5.664a11.025,11.025,0,0,0,2.336-2.512,9.132,9.132,0,0,0,1.312-3.152Zm17.184,0h-4.928v2.56a1.429,1.429,0,0,0,1.6,1.632,4.861,4.861,0,0,0,.8-.064,5.054,5.054,0,0,0,.768-.192,1.157,1.157,0,0,1-.576-1.056.98.98,0,0,1,.448-.832,1.577,1.577,0,0,1,.928-.32,1.443,1.443,0,0,1,.96.352ZM118.208-4.288A3.13,3.13,0,0,1,117.488-2a3.261,3.261,0,0,1-1.872.9,15.879,15.879,0,0,1-2.4.176h-7.008V-8.064h12Zm9.024-18.624a1.76,1.76,0,0,1-.544,1.344,1.928,1.928,0,0,1-1.376.512H115.52q.64.192,1.28.4t1.248.432l.64.192q.32.1.64.224a.892.892,0,0,1,.256.112.264.264,0,0,1,.128.24,1.382,1.382,0,0,1-.464.784,13.388,13.388,0,0,1-1.1,1.04q-.64.544-1.232.992l-.848.64h8.544V-1.792a6.073,6.073,0,0,1-.88,3.392,3.482,3.482,0,0,1-3.152,1.344,5.011,5.011,0,0,1-2.9-.912,25.212,25.212,0,0,1-2.448-1.9q-.064-.064-.064-.1,0-.1.128-.1a.065.065,0,0,1,.048.016.065.065,0,0,0,.048.016A16.154,16.154,0,0,0,117.248.3a15.744,15.744,0,0,0,1.888.112,1.133,1.133,0,0,0,1.12-.72,3.356,3.356,0,0,0,.32-1.36v-8.672a3.205,3.205,0,0,1-1.728.9,9.911,9.911,0,0,1-1.984.224q-.8,0-1.648-.048a5.8,5.8,0,0,1-1.584-.3,2.46,2.46,0,0,1-1.184-.848A2.738,2.738,0,0,1,112-12.1v-2.528h-2.5a5.622,5.622,0,0,1,.688.3q.336.176.656.336a8.549,8.549,0,0,1-2.976,3.888,14.352,14.352,0,0,1-4.448,2.16l.032,10.464h-3.9V-16H107.1q-.8-.864-1.664-1.7t-1.728-1.632q.256-.128.848-.384t1.28-.544q.688-.288,1.248-.48a2.909,2.909,0,0,1,.784-.192.618.618,0,0,1,.432.112,1.044,1.044,0,0,1,.208.368,3.973,3.973,0,0,1,.24.832,7.3,7.3,0,0,0,.208.864q.16.672.352,1.36A10.4,10.4,0,0,1,109.6-16h4.256q.416-1.28.784-2.544t.784-2.512H97.344v-1.536h12.8q-.256-1.056-.464-2.128t-.464-2.16h.736q.288,0,.992.032t1.536.08q.832.048,1.488.144a2.351,2.351,0,0,1,.784.192q.064.032.08.16a1.7,1.7,0,0,1,.016.192,3.455,3.455,0,0,1-.272,1.008q-.272.72-.592,1.44t-.48,1.04h9.632a2.072,2.072,0,0,1,.544-1.456,1.862,1.862,0,0,1,1.44-.592,2.575,2.575,0,0,1,1.424.448A1.439,1.439,0,0,1,127.232-22.912Zm23.712,16h-10.3V.608h8.8a1.113,1.113,0,0,0,.88-.384,2.278,2.278,0,0,0,.48-.9,3.459,3.459,0,0,0,.144-.928Zm6.336-15.36a1.519,1.519,0,0,1-.64,1.216,2.085,2.085,0,0,1-1.312.512h-19.3V-15.3a45.708,45.708,0,0,1-.32,5.408,24.441,24.441,0,0,1-1.184,5.168,14.616,14.616,0,0,1-2.592,4.56,5.1,5.1,0,0,1-.736.784q-.512.464-1.088.912a2.042,2.042,0,0,1-1.152.512.366.366,0,0,1-.208-.08.222.222,0,0,1-.112-.176.287.287,0,0,1,.048-.144.885.885,0,0,0,.08-.176,1.155,1.155,0,0,1,.144-.224.9.9,0,0,0,.112-.16,4,4,0,0,0,.256-.4q.1-.176.224-.4a16.424,16.424,0,0,0,.768-1.472A18.749,18.749,0,0,0,131.5-5.552a38.109,38.109,0,0,0,.448-4.688q.08-2.368.08-4.544,0-1.792-.016-3.6t-.048-3.6h10.5l-.7-4.448,4.448.192a5.855,5.855,0,0,1,.624.1q.3.064.3.512a2.486,2.486,0,0,1-.176.72q-.176.5-.432,1.088t-.48,1.088q-.224.5-.352.752h7.456v-.192a1.807,1.807,0,0,1,.64-1.36,2.031,2.031,0,0,1,1.408-.592,2.2,2.2,0,0,1,1.392.56A1.641,1.641,0,0,1,157.28-22.272Zm-.064,7.072a1.509,1.509,0,0,1-.544,1.28,2.2,2.2,0,0,1-1.376.416h-8.544v5.312h7.968v6.144A4.255,4.255,0,0,1,154.048.56a3.277,3.277,0,0,1-1.856,1.184,10.837,10.837,0,0,1-2.688.3H137.12V-8.192h6.08V-19.68h3.552v4.672h6.688a2.052,2.052,0,0,1,.576-1.248,1.649,1.649,0,0,1,1.248-.544,2.319,2.319,0,0,1,1.312.432A1.342,1.342,0,0,1,157.216-15.2Z" transform="translate(-1.312 26.912)" fill="#fff"/></svg>