<svg xmlns="http://www.w3.org/2000/svg" width="127.52" height="30.464" viewBox="0 0 127.52 30.464"><path d="M22.88-4.48V-8.512H21.5V-4.48Zm-3.616,0v-12.8H18.176v12.8ZM22.88-9.728v-3.04H21.5v3.04ZM26.5-17.28H25.344V-4.512a1.2,1.2,0,0,0,.784-.7,3.89,3.89,0,0,0,.3-1.2q.064-.656.064-1.1Zm-3.616,3.3v-3.3H21.5v3.3ZM31.872-.576A1.685,1.685,0,0,1,31.1.8a6.362,6.362,0,0,1-1.984.944,20.611,20.611,0,0,1-2.544.592q-1.328.224-2.448.3T22.4,2.72a30.891,30.891,0,0,1-4.272-.288A11.4,11.4,0,0,1,14.08,1.024,18.162,18.162,0,0,1,11.7-.656,16.907,16.907,0,0,1,9.632-2.688,15.138,15.138,0,0,1,6.592.224a13.827,13.827,0,0,1-3.744,1.92q-.512.16-1.216.352a4.813,4.813,0,0,1-1.248.192q-.32,0-.32-.288a.238.238,0,0,1,.16-.208L.448,2.08q.8-.416,1.552-.9A15.288,15.288,0,0,0,3.456.128,15.69,15.69,0,0,0,5.824-2.16a20.6,20.6,0,0,0,1.856-2.7q-.1-.128-.32-.416T6.9-5.84a1.521,1.521,0,0,0-.368-.336A.735.735,0,0,0,6.112-6.3H5.664q-.192,0-.192-.224,0-.128.288-.4a7.733,7.733,0,0,1,.624-.528,3.734,3.734,0,0,1,.464-.32,6.577,6.577,0,0,1,.912.448q.432.256.848.544a12.639,12.639,0,0,0,.5-1.28q.208-.64.368-1.28H7.3a9.9,9.9,0,0,1-.864,1.2q-.608.752-1.376,1.584t-1.6,1.6A12.1,12.1,0,0,1,1.888-3.712a2.43,2.43,0,0,1-1.248.48q-.288,0-.288-.256a.456.456,0,0,1,.08-.272Q.512-3.872.608-4A28.13,28.13,0,0,0,2.544-6.912a36.094,36.094,0,0,0,1.776-3.44A20.311,20.311,0,0,0,5.5-13.632H.992v-1.376H6.208V-17.6H2.656v-1.408H6.208v-2.5H1.568v-1.408h4.64v-3.616h3.52v3.616h1.344a1.672,1.672,0,0,1,.512-1.072,1.471,1.471,0,0,1,1.056-.432,1.78,1.78,0,0,1,1.12.4,1.259,1.259,0,0,1,.512,1.04,1.379,1.379,0,0,1-.432,1.088A1.646,1.646,0,0,1,12.7-21.5H9.728v2.5H11.04a1.335,1.335,0,0,1,.5-.8,1.377,1.377,0,0,1,.88-.32,1.273,1.273,0,0,1,.88.368,1.155,1.155,0,0,1,.4.88,1.112,1.112,0,0,1-.448.944,1.615,1.615,0,0,1-.992.336H9.728v2.592h1.984a1.486,1.486,0,0,1,.464-.976,1.431,1.431,0,0,1,1.008-.368,1.537,1.537,0,0,1,.96.384,1.126,1.126,0,0,1,.48.9,1.317,1.317,0,0,1-.448,1.056,1.615,1.615,0,0,1-1.088.384H7.648l1.536.576q-.224.608-.512,1.2t-.608,1.168h5.92a19.7,19.7,0,0,1-1.2,3.1A23.231,23.231,0,0,1,11.1-4.7a14.769,14.769,0,0,0,4.16,3.28A18.725,18.725,0,0,0,20.224.352,25.944,25.944,0,0,0,25.5.9a14.432,14.432,0,0,0,3.1-.352,1.473,1.473,0,0,1-.336-.512,1.663,1.663,0,0,1-.112-.608,1.41,1.41,0,0,1,.56-1.152,1.928,1.928,0,0,1,1.232-.448,2.275,2.275,0,0,1,1.28.432A1.342,1.342,0,0,1,31.872-.576Zm-.9-23.616a1.406,1.406,0,0,1-.576,1.216,2.184,2.184,0,0,1-1.312.416H24.48a7.074,7.074,0,0,1-.8,1.36q-.544.752-1.168,1.456t-1.1,1.216H29.92V-8.48a9.477,9.477,0,0,1-.352,2.672A3.616,3.616,0,0,1,28.3-3.9a4.194,4.194,0,0,1-2.608.7H15.2V-18.528h4.064a38.842,38.842,0,0,0,.864-4.032h-5.28v-1.376H27.232a1.87,1.87,0,0,1,.528-1.328,1.748,1.748,0,0,1,1.328-.56,2.245,2.245,0,0,1,1.312.4A1.4,1.4,0,0,1,30.976-24.192ZM46.208-9.824a.336.336,0,0,1-.048.176.744.744,0,0,1-.112.144,9.224,9.224,0,0,1-.976.96q-.528.448-1.1.864a18.093,18.093,0,0,1-3.984,2.24,28.091,28.091,0,0,1-4.4,1.376,7.644,7.644,0,0,1-.96.192,7.5,7.5,0,0,1-.992.064.424.424,0,0,1-.208-.064.208.208,0,0,1-.112-.192q0-.16.352-.32.256-.128.624-.288t.5-.224A24.537,24.537,0,0,0,39.376-7.76a18.1,18.1,0,0,0,3.7-3.952q.544.288,1.1.624t1.1.624l.384.192q.192.1.416.224Q46.208-10.016,46.208-9.824Zm8.928-8.16a1.511,1.511,0,0,1-.608,1.344,2.544,2.544,0,0,1-1.472.416H47.744l.352.176a2.359,2.359,0,0,1,.352.208.456.456,0,0,1,.288.384q0,.256-.464.544t-.624.416q-.384.224-.768.464t-.768.5a7.663,7.663,0,0,1,2.976,2.688A13.255,13.255,0,0,1,50.8-7.008a15.485,15.485,0,0,1,.56,4.032,10.1,10.1,0,0,1-.4,2.864A4.4,4.4,0,0,1,49.568,2.08a4.156,4.156,0,0,1-2.752.832,3.549,3.549,0,0,1-.944-.16,9.383,9.383,0,0,1-1.088-.384q-.528-.224-.88-.384l-.832-.48A8.574,8.574,0,0,1,41.936.72q-.528-.432-.528-.688,0-.064.128-.1A.962.962,0,0,1,41.7-.1h.128q.768.16,1.488.368a5.451,5.451,0,0,0,1.52.208A2.012,2.012,0,0,0,46.32-.048a2.969,2.969,0,0,0,.752-1.344,8.005,8.005,0,0,0,.272-1.68q.048-.864.048-1.568a35.328,35.328,0,0,1-4.24,2.912A23.842,23.842,0,0,1,38.384.416a16.422,16.422,0,0,1-5.072.8.671.671,0,0,1-.272-.064A.227.227,0,0,1,32.9.928.259.259,0,0,1,33.12.672q.736-.288,1.456-.56T36-.48a28.681,28.681,0,0,0,5.376-3.264,16.8,16.8,0,0,0,4.16-4.672l1.792.672a8.9,8.9,0,0,0-.48-1.792,8.849,8.849,0,0,0-1.024-1.776,6.151,6.151,0,0,0-1.44-1.392,20.063,20.063,0,0,1-4.08,1.888,13.842,13.842,0,0,1-4.432.736h-.416q-.256,0-.256-.224a.308.308,0,0,1,.192-.288q.928-.448,1.84-.912t1.808-.976q1.216-.736,2.5-1.7a12.559,12.559,0,0,0,2.176-2.048H39.648v-1.408H51.392a1.477,1.477,0,0,0-.016-.208,1.477,1.477,0,0,1-.016-.208,1.413,1.413,0,0,1,.592-1.184,2.057,2.057,0,0,1,1.264-.448,2.2,2.2,0,0,1,1.328.432A1.466,1.466,0,0,1,55.136-17.984ZM63.552-1.376a1.273,1.273,0,0,1-.624,1.232,2.889,2.889,0,0,1-1.392.336A5.039,5.039,0,0,1,60.144-.08a11.2,11.2,0,0,1-1.36-.5A15.3,15.3,0,0,1,55.12-3.12a21.656,21.656,0,0,1-2.9-3.344A17.174,17.174,0,0,1,50.816-8.9L49.6-11.456q2.048-.9,4.1-1.776A28.792,28.792,0,0,0,57.632-15.3q.224.192.7.56t1.008.832a11.878,11.878,0,0,1,.9.864,1.117,1.117,0,0,1,.368.656.431.431,0,0,1-.272.416,3.331,3.331,0,0,1-.5.192,6.369,6.369,0,0,1-.96.192q-.512.064-.992.128l-1.984.32q-.992.16-2.016.256a26.139,26.139,0,0,0,2.48,5.024,16.891,16.891,0,0,0,3.7,4.192,2,2,0,0,1,.72-.928,1.864,1.864,0,0,1,1.1-.352,1.672,1.672,0,0,1,1.152.464A1.442,1.442,0,0,1,63.552-1.376ZM62.08-21.76a3.863,3.863,0,0,1-.512,1.616,12.569,12.569,0,0,1-1.3,2.016,10.94,10.94,0,0,1-1.632,1.712,2.492,2.492,0,0,1-1.488.7q-.512,0-.48-.448v-.064q0-.064.1-.832t.24-1.776q.144-1.008.208-1.712H38.688v4.832H34.912v-6.336H46.176q-.288-1.12-.56-2.272t-.528-2.3l4.512.064a1.847,1.847,0,0,1,.7.16.556.556,0,0,1,.384.544,3.256,3.256,0,0,1-.336,1.12q-.336.768-.736,1.536t-.624,1.152H61.824Q62.08-22.048,62.08-21.76ZM83.3.352a.678.678,0,0,1-.224.432.612.612,0,0,1-.416.24,1.206,1.206,0,0,1-.48-.1A4.385,4.385,0,0,1,81.728.7,18.547,18.547,0,0,1,80.1-.448Q79.3-1.056,78.48-1.6T76.832-2.688q.832-.64,1.6-1.328T80-5.376A7.336,7.336,0,0,1,80.976-4.3a16.078,16.078,0,0,1,1.088,1.6,14.4,14.4,0,0,1,.88,1.7A3.6,3.6,0,0,1,83.3.352ZM95.52.736a1.481,1.481,0,0,1-.624,1.28,2.331,2.331,0,0,1-1.392.448,4.442,4.442,0,0,1-1.328-.24,10.666,10.666,0,0,1-1.44-.576q-.688-.336-1.2-.624a19.45,19.45,0,0,1-5.344-4.9,26.576,26.576,0,0,1-3.552-6.336h-.032A19.094,19.094,0,0,1,77.7-4.848,18.582,18.582,0,0,1,73.264-.7,17.337,17.337,0,0,1,67.68,1.728q-.416.1-.848.176a4.823,4.823,0,0,1-.88.08.531.531,0,0,1-.208-.048.175.175,0,0,1-.112-.176.312.312,0,0,1,.064-.224.745.745,0,0,1,.192-.128l.256-.128.256-.128q.64-.32,1.216-.672t1.152-.768A22.433,22.433,0,0,0,71.12-2.144a15.835,15.835,0,0,0,2.032-2.208,19.126,19.126,0,0,0,2.96-5.584A31.528,31.528,0,0,0,77.5-16.128H66.624v-1.6H77.536q.1-2.048.064-4.08t-.032-4.08l4.608.032q0,2.048-.064,4.064t-.128,4.064h7.328a2.915,2.915,0,0,1,.64-1.76,1.974,1.974,0,0,1,1.632-.768,2.543,2.543,0,0,1,1.664.608,1.974,1.974,0,0,1,.736,1.6,1.587,1.587,0,0,1-.752,1.456,3.078,3.078,0,0,1-1.648.464H81.856q-.032.512-.1,1.024l-.128,1.024,2.208-.608a30.627,30.627,0,0,0,1.136,3.936,36.442,36.442,0,0,0,1.792,4.176A27.461,27.461,0,0,0,89.1-2.736,14.929,14.929,0,0,0,91.9.224a2.374,2.374,0,0,1,.72-.9A1.725,1.725,0,0,1,93.7-1.024,1.8,1.8,0,0,1,94.96-.5,1.643,1.643,0,0,1,95.52.736Zm12.96-10.944q-.416.928-.832,1.872a15.89,15.89,0,0,1-.96,1.84q.352.16.72.336t.72.368q.512-1.056.944-2.16a12.976,12.976,0,0,0,.656-2.256ZM113.5-12.9q-.384-1.664-.64-3.344t-.448-3.344H103.9q0,.736-.016,1.488t-.016,1.488l5.472.032a1.569,1.569,0,0,1,.416-1.136,1.482,1.482,0,0,1,1.12-.432,1.2,1.2,0,0,1,.992.5,1.675,1.675,0,0,1,.384,1.04,1.084,1.084,0,0,1-.432.928,1.6,1.6,0,0,1-.976.32h-7.04q-.032.96-.08,1.9t-.112,1.9h1.92q.256-.928.5-1.856t.464-1.856l3.232.8a.3.3,0,0,1,.256.32,3.772,3.772,0,0,1-.208.672q-.208.576-.432,1.168a6.02,6.02,0,0,1-.32.752h2.144a1.673,1.673,0,0,1,.544-1.088,1.552,1.552,0,0,1,1.088-.448A1.343,1.343,0,0,1,113.5-12.9ZM127.584.96a1.624,1.624,0,0,1-.576,1.232,1.851,1.851,0,0,1-1.28.528,4.731,4.731,0,0,1-2.24-.64,13.69,13.69,0,0,1-2.32-1.6,21.846,21.846,0,0,1-2.08-2q-.944-1.04-1.552-1.84a20.272,20.272,0,0,1-2.864,2.544,15.807,15.807,0,0,1-3.344,1.872q-.352.128-.96.32t-1.2.336a4.3,4.3,0,0,1-.976.144q-.064,0-.224-.016t-.16-.144a.186.186,0,0,1,.112-.16.8.8,0,0,0,.144-.1A21,21,0,0,0,112.5-1.984,25.243,25.243,0,0,0,115.9-6.4a10.7,10.7,0,0,1-1.056-2.128q-.448-1.2-.768-2.224a1.731,1.731,0,0,1-.48.384,1.234,1.234,0,0,1-.608.16h-2.656l2.432,1.088q-.416,1.28-.96,2.56a16.482,16.482,0,0,1-1.28,2.432q.128.128.448.48t.608.72a1.119,1.119,0,0,1,.288.528.428.428,0,0,1-.144.3.428.428,0,0,1-.3.144,2.1,2.1,0,0,1-.512-.176q-.416-.176-.832-.384l-.544-.272a12.386,12.386,0,0,1-3.5,2.592,15.3,15.3,0,0,1-4.176,1.312.438.438,0,0,0-.1.016.526.526,0,0,1-.128.016.875.875,0,0,1-.192-.032.151.151,0,0,1-.128-.16.208.208,0,0,1,.112-.192q.112-.064.176-.1a18.744,18.744,0,0,0,3.072-1.936,9.087,9.087,0,0,0,2.368-2.7A18.372,18.372,0,0,0,105.2-4.7q-.944-.32-1.9-.608.512-1.216.96-2.432a25.3,25.3,0,0,0,.768-2.464h-1.472a30.8,30.8,0,0,1-.464,3.312,15.3,15.3,0,0,1-.976,3.216,15.648,15.648,0,0,1-1.264,2.224A14.385,14.385,0,0,1,99.072.7,8.293,8.293,0,0,1,97.024,2.24a.575.575,0,0,1-.352.1q-.224,0-.224-.192a.369.369,0,0,1,.128-.256A6.909,6.909,0,0,0,97.3.976q.3-.464.592-.976a13.148,13.148,0,0,0,1.248-3.264,26.752,26.752,0,0,0,.64-3.808q.192-1.984.24-3.9t.048-3.552v-3.264q0-1.632-.064-3.232h12.288q-.1-1.312-.208-2.624t-.176-2.624l4.224.416v.512q0,1.088.016,2.16t.08,2.16h6.144a2.41,2.41,0,0,1,.512-1.44,1.65,1.65,0,0,1,1.376-.608,1.9,1.9,0,0,1,1.264.512,1.56,1.56,0,0,1,.592,1.216,1.616,1.616,0,0,1-.528,1.328,2.078,2.078,0,0,1-1.36.432h-7.936q.192,2.464.528,4.976a25.965,25.965,0,0,0,1.136,4.88h.032a29.938,29.938,0,0,0,1.232-3.648q.5-1.856.816-3.744l3.712,1.408a.732.732,0,0,1,.288.128.506.506,0,0,1,.064.32.709.709,0,0,1-.032.224,1.756,1.756,0,0,1-.1.224q-.16.512-.336,1.04t-.368,1.04a31.32,31.32,0,0,1-1.616,3.424q-.912,1.664-1.936,3.264.512.992,1.232,2.208a23.252,23.252,0,0,0,1.568,2.32A10.816,10.816,0,0,0,124.224.288a2.44,2.44,0,0,1,.72-.816,1.761,1.761,0,0,1,1.04-.3,1.4,1.4,0,0,1,1.152.576A1.95,1.95,0,0,1,127.584.96Zm-4-26.816q0,.256-.5.752a14.8,14.8,0,0,1-1.264,1.1q-.768.608-1.584,1.152t-1.472.9a2.414,2.414,0,0,1-.944.352q-.224,0-.224-.256a.917.917,0,0,1,.1-.416q.512-1.312.944-2.608t.752-2.672l.9.256q.672.192,1.424.448t1.312.512Q123.584-26.08,123.584-25.856Z" transform="translate(-0.064 27.552)" fill="#fff"/></svg>