<svg xmlns="http://www.w3.org/2000/svg" width="93.472" height="29.248" viewBox="0 0 93.472 29.248"><path d="M22.88-4.48V-8.512H21.5V-4.48Zm-3.616,0v-12.8H18.176v12.8ZM22.88-9.728v-3.04H21.5v3.04ZM26.5-17.28H25.344V-4.512a1.2,1.2,0,0,0,.784-.7,3.89,3.89,0,0,0,.3-1.2q.064-.656.064-1.1Zm-3.616,3.3v-3.3H21.5v3.3ZM31.872-.576A1.685,1.685,0,0,1,31.1.8a6.362,6.362,0,0,1-1.984.944,20.611,20.611,0,0,1-2.544.592q-1.328.224-2.448.3T22.4,2.72a30.891,30.891,0,0,1-4.272-.288A11.4,11.4,0,0,1,14.08,1.024,18.162,18.162,0,0,1,11.7-.656,16.907,16.907,0,0,1,9.632-2.688,15.138,15.138,0,0,1,6.592.224a13.827,13.827,0,0,1-3.744,1.92q-.512.16-1.216.352a4.813,4.813,0,0,1-1.248.192q-.32,0-.32-.288a.238.238,0,0,1,.16-.208L.448,2.08q.8-.416,1.552-.9A15.288,15.288,0,0,0,3.456.128,15.69,15.69,0,0,0,5.824-2.16a20.6,20.6,0,0,0,1.856-2.7q-.1-.128-.32-.416T6.9-5.84a1.521,1.521,0,0,0-.368-.336A.735.735,0,0,0,6.112-6.3H5.664q-.192,0-.192-.224,0-.128.288-.4a7.733,7.733,0,0,1,.624-.528,3.734,3.734,0,0,1,.464-.32,6.577,6.577,0,0,1,.912.448q.432.256.848.544a12.639,12.639,0,0,0,.5-1.28q.208-.64.368-1.28H7.3a9.9,9.9,0,0,1-.864,1.2q-.608.752-1.376,1.584t-1.6,1.6A12.1,12.1,0,0,1,1.888-3.712a2.43,2.43,0,0,1-1.248.48q-.288,0-.288-.256a.456.456,0,0,1,.08-.272Q.512-3.872.608-4A28.13,28.13,0,0,0,2.544-6.912a36.094,36.094,0,0,0,1.776-3.44A20.311,20.311,0,0,0,5.5-13.632H.992v-1.376H6.208V-17.6H2.656v-1.408H6.208v-2.5H1.568v-1.408h4.64v-3.616h3.52v3.616h1.344a1.672,1.672,0,0,1,.512-1.072,1.471,1.471,0,0,1,1.056-.432,1.78,1.78,0,0,1,1.12.4,1.259,1.259,0,0,1,.512,1.04,1.379,1.379,0,0,1-.432,1.088A1.646,1.646,0,0,1,12.7-21.5H9.728v2.5H11.04a1.335,1.335,0,0,1,.5-.8,1.377,1.377,0,0,1,.88-.32,1.273,1.273,0,0,1,.88.368,1.155,1.155,0,0,1,.4.88,1.112,1.112,0,0,1-.448.944,1.615,1.615,0,0,1-.992.336H9.728v2.592h1.984a1.486,1.486,0,0,1,.464-.976,1.431,1.431,0,0,1,1.008-.368,1.537,1.537,0,0,1,.96.384,1.126,1.126,0,0,1,.48.9,1.317,1.317,0,0,1-.448,1.056,1.615,1.615,0,0,1-1.088.384H7.648l1.536.576q-.224.608-.512,1.2t-.608,1.168h5.92a19.7,19.7,0,0,1-1.2,3.1A23.231,23.231,0,0,1,11.1-4.7a14.769,14.769,0,0,0,4.16,3.28A18.725,18.725,0,0,0,20.224.352,25.944,25.944,0,0,0,25.5.9a14.432,14.432,0,0,0,3.1-.352,1.473,1.473,0,0,1-.336-.512,1.663,1.663,0,0,1-.112-.608,1.41,1.41,0,0,1,.56-1.152,1.928,1.928,0,0,1,1.232-.448,2.275,2.275,0,0,1,1.28.432A1.342,1.342,0,0,1,31.872-.576Zm-.9-23.616a1.406,1.406,0,0,1-.576,1.216,2.184,2.184,0,0,1-1.312.416H24.48a7.074,7.074,0,0,1-.8,1.36q-.544.752-1.168,1.456t-1.1,1.216H29.92V-8.48a9.477,9.477,0,0,1-.352,2.672A3.616,3.616,0,0,1,28.3-3.9a4.194,4.194,0,0,1-2.608.7H15.2V-18.528h4.064a38.842,38.842,0,0,0,.864-4.032h-5.28v-1.376H27.232a1.87,1.87,0,0,1,.528-1.328,1.748,1.748,0,0,1,1.328-.56,2.245,2.245,0,0,1,1.312.4A1.4,1.4,0,0,1,30.976-24.192Zm24.448.928H40.1v3.84H53.824a1.309,1.309,0,0,0,1.248-.624,2.784,2.784,0,0,0,.352-1.392Zm7.264,7.68A1.513,1.513,0,0,1,62-14.176a3,3,0,0,1-1.584.416H51.04a.935.935,0,0,0,.1.08q.064.048.064.08a.312.312,0,0,1-.064.224,1.871,1.871,0,0,1-.192.16,9.911,9.911,0,0,1-1.12.784q-.608.368-1.184.752-1.056.672-2.128,1.344t-2.16,1.312q2.5-.032,5.088-.032a19.658,19.658,0,0,0,5.024-.64q-.576-.544-1.12-1.136t-1.056-1.2q.832-.416,1.68-.784t1.712-.72q.544,1.12,1.168,2.288A12.544,12.544,0,0,0,58.272-9.12a1.657,1.657,0,0,1,.544-.448,1.406,1.406,0,0,1,.672-.192,1.431,1.431,0,0,1,1.056.416,1.431,1.431,0,0,1,.416,1.056,1.1,1.1,0,0,1-.608,1.056,2.649,2.649,0,0,1-1.248.32,3.042,3.042,0,0,1-1.36-.384,10.908,10.908,0,0,1-1.456-.9q-.7-.512-1.152-.9A7.537,7.537,0,0,1,53.28-8a9.014,9.014,0,0,1-2.08.544v3.04h2.88a1.685,1.685,0,0,1,.608-1.264A1.906,1.906,0,0,1,56-6.24a2,2,0,0,1,1.28.5,1.53,1.53,0,0,1,.608,1.232A1.455,1.455,0,0,1,57.36-3.3a2.029,2.029,0,0,1-1.3.416H51.2V.32h6.56a2.841,2.841,0,0,1,.592-1.6,1.818,1.818,0,0,1,1.52-.672,2.484,2.484,0,0,1,1.552.528A1.734,1.734,0,0,1,62.112.032a1.579,1.579,0,0,1-.672,1.392,2.586,2.586,0,0,1-1.5.464H38.112V.32h9.152v-3.2h-6.3V-4.416h6.3V-7.04q-1.6.128-3.216.224t-3.216.224l-.48-2.24a8.469,8.469,0,0,0,3.056-2.08,31.218,31.218,0,0,0,2.384-2.848H39.968a26.156,26.156,0,0,1-.416,4.688A23.481,23.481,0,0,1,38.24-4.544a11.025,11.025,0,0,1-.768,1.6,16.614,16.614,0,0,1-.992,1.5A13.27,13.27,0,0,1,35.3,0a5.9,5.9,0,0,1-1.408,1.184q-.128.064-.272.128a.74.74,0,0,1-.3.064q-.288,0-.288-.224a.394.394,0,0,1,.064-.224.808.808,0,0,0,.1-.192,18.9,18.9,0,0,0,1.552-3.424,21.669,21.669,0,0,0,.88-3.648,41.86,41.86,0,0,0,.448-5.2q.064-2.64.064-5.232,0-2.016-.016-4.048t-.048-4.048H59.648v2.944a5.062,5.062,0,0,1-.56,2.672,2.563,2.563,0,0,1-1.648,1.136,11.957,11.957,0,0,1-2.688.256H40.064v.544q0,.512.016,1.024t-.016,1.056h18.4a2.7,2.7,0,0,1,.544-1.616,1.828,1.828,0,0,1,1.536-.656,2.355,2.355,0,0,1,1.488.512A1.688,1.688,0,0,1,62.688-15.584Zm11.168-2.464a.952.952,0,0,1-.144.5.5.5,0,0,1-.464.24.533.533,0,0,1-.368-.128q-.144-.128-.3-.256-.384-.448-.912-1.1T70.64-20.16q-.5-.7-.816-1.216.32-.128,1.024-.336t1.392-.4a4.258,4.258,0,0,1,.976-.192q.32,0,.368.144a2.176,2.176,0,0,1,.08.4q.1.864.144,1.84T73.856-18.048ZM79.84-23.1h-10.3v6.112h5.248q.224-1.376.48-2.736t.448-2.736q.576.128,1.152.272t1.152.3q.224.064.464.112a2.339,2.339,0,0,1,.464.144q.32.128.32.352a2.21,2.21,0,0,1-.432.768q-.432.608-1.04,1.36t-1.12,1.36q-.512.608-.7.8H77.92a1.985,1.985,0,0,1,.528-1.04,1.371,1.371,0,0,1,1.04-.464.9.9,0,0,1,.176.016.9.9,0,0,0,.176.016ZM83.392-2.432A11.482,11.482,0,0,1,83.184-.24a3.369,3.369,0,0,1-.88,1.76,2.794,2.794,0,0,1-2.08.688,4.363,4.363,0,0,1-1.632-.384A12.125,12.125,0,0,1,76.816.912,10.544,10.544,0,0,1,75.424-.1q-.064-.064-.16-.144a.258.258,0,0,1-.1-.208q0-.16.224-.16a.223.223,0,0,1,.1.016.142.142,0,0,0,.064.016q.672.16,1.344.288a7.338,7.338,0,0,0,1.376.128,1.282,1.282,0,0,0,1.04-.4,1.994,1.994,0,0,0,.432-.976,6.81,6.81,0,0,0,.1-1.12V-15.68H75.968V-4.512a.565.565,0,0,0,.56-.288,1.862,1.862,0,0,0,.176-.688q.032-.4.032-.656v-7.392h2.3v6.784a6.591,6.591,0,0,1-.3,2.32,1.635,1.635,0,0,1-1.1.992,8.467,8.467,0,0,1-2.3.24H70.336V-13.6h2.272v9.184h.768V-15.68h-3.84v17.7H66.144V-24.416H83.392ZM93.536-3.52a20.772,20.772,0,0,1-.112,2.16,6.188,6.188,0,0,1-.5,1.92,3.109,3.109,0,0,1-1.184,1.36,4.075,4.075,0,0,1-2.208.512,5.084,5.084,0,0,1-2.3-.544A10.553,10.553,0,0,1,85.216.576q-.064-.064-.4-.368T84.192-.4Q83.9-.7,83.9-.768A.113.113,0,0,1,84.032-.9h.1q.928.224,1.856.464a7.51,7.51,0,0,0,1.888.24,1.405,1.405,0,0,0,1.312-.64,3.39,3.39,0,0,0,.448-1.52q.064-.88.064-1.52V-25.344h3.84ZM88.288-6.368H84.9V-23.52h3.392Z" transform="translate(-0.064 26.528)" fill="#fff"/></svg>