<svg xmlns="http://www.w3.org/2000/svg" width="221.136" height="23.76" viewBox="0 0 221.136 23.76"><path d="M8.448-.936A5.475,5.475,0,0,1,8.28.42a2.267,2.267,0,0,1-.612,1.092,1.768,1.768,0,0,1-1.284.432A2.086,2.086,0,0,1,5.34,1.632,6.04,6.04,0,0,1,4.32.888Q3.84.456,3.5.12a.376.376,0,0,0-.072-.1.138.138,0,0,1-.048-.1q0-.072.12-.072A.762.762,0,0,1,3.72-.1,4.527,4.527,0,0,0,5.064.12a.637.637,0,0,0,.648-.408A2.074,2.074,0,0,0,5.88-1.08q0-4.176-.012-8.352t-.012-8.352H4.416q-.024.528-.024,1.056v2.22q0,.564.024,1.14l.12.024a.5.5,0,0,1,.48-.36.5.5,0,0,1,.468.228,1.011,1.011,0,0,1,.132.516.588.588,0,0,1-.192.516.806.806,0,0,1-.468.132h-.54q0,2.016-.072,4.032h.192a.634.634,0,0,1,.192-.24.451.451,0,0,1,.288-.12.488.488,0,0,1,.468.24,1.077,1.077,0,0,1,.132.528.557.557,0,0,1-.216.516,1,1,0,0,1-.528.132H4.3A28.924,28.924,0,0,1,3.84-3.348,8.616,8.616,0,0,1,2.28.216q-.24.312-.516.66a4.288,4.288,0,0,1-.588.612q-.12.1-.276.216a.557.557,0,0,1-.348.12q-.24,0-.24-.216a.364.364,0,0,1,.036-.132.389.389,0,0,1,.06-.108A13.244,13.244,0,0,0,1.032-.156a10.855,10.855,0,0,0,.408-1.6A24.507,24.507,0,0,0,1.8-5q.072-1.644.072-3.276,0-2.64-.048-5.28t-.048-5.256H8.448ZM22.488-18.1a1.076,1.076,0,0,1-.528,1.02,2.292,2.292,0,0,1-1.152.3H15.72q.216.072.456.156t.456.18a.34.34,0,0,1,.24.336q0,.144-.372.54t-.876.864q-.5.468-.948.84t-.612.492A8.041,8.041,0,0,1,16.3-10.68a12.27,12.27,0,0,1,1.152,3.372,18.888,18.888,0,0,1,.336,3.492Q17.784-3,17.7-2a7.755,7.755,0,0,1-.4,1.9,3.49,3.49,0,0,1-.948,1.476,2.532,2.532,0,0,1-1.764.576,1.864,1.864,0,0,1-.84-.252,6.5,6.5,0,0,1-.972-.636q-.492-.384-.912-.78t-.66-.66A1.6,1.6,0,0,1,11-.648.562.562,0,0,1,10.9-.936q0-.1.144-.1a.387.387,0,0,1,.168.048q.648.24,1.2.42a4.1,4.1,0,0,0,1.272.18.786.786,0,0,0,.7-.492,4.4,4.4,0,0,0,.408-1.176,11.79,11.79,0,0,0,.2-1.32q.06-.636.06-.948,0-.192-.012-.4t-.012-.4a11.158,11.158,0,0,1-1.848,1.656A16.364,16.364,0,0,1,11.04-2.184l-.672.3q-.456.2-.912.36a2.356,2.356,0,0,1-.672.156.212.212,0,0,1-.24-.24.355.355,0,0,1,.12-.276q.12-.108.216-.2a18.234,18.234,0,0,0,2.808-2.856A24.08,24.08,0,0,0,13.9-8.28l.96.552q-.048-.5-.12-1.008t-.192-1.008a19.182,19.182,0,0,1-2.5,2.232A8.179,8.179,0,0,1,9-6.12H8.928q-.216,0-.216-.192a.242.242,0,0,1,.048-.156,1.309,1.309,0,0,1,.1-.108,22.151,22.151,0,0,0,2.136-2.4,14.778,14.778,0,0,0,1.632-2.76l1.536.672q-.24-.408-.516-.816a4.15,4.15,0,0,0-.612-.72,12.792,12.792,0,0,1-1.6,1.02,11.255,11.255,0,0,1-1.74.78q-.168.048-.432.144a1.37,1.37,0,0,1-.456.1.318.318,0,0,1-.156-.048.156.156,0,0,1-.084-.144A.3.3,0,0,1,8.7-10.98q.132-.108.18-.156a14.484,14.484,0,0,0,1.692-1.62A17.441,17.441,0,0,0,12.1-14.724a11.49,11.49,0,0,0,1.1-2.052H9.36v-1.008H19.44a1.764,1.764,0,0,1,.42-1.14,1.318,1.318,0,0,1,1.068-.516,1.718,1.718,0,0,1,1.056.384A1.164,1.164,0,0,1,22.488-18.1ZM23.856-2.28a.909.909,0,0,1-.348.708,1.135,1.135,0,0,1-.756.3,2.187,2.187,0,0,1-1.152-.4,5.786,5.786,0,0,1-.984-.756,10.365,10.365,0,0,1-1.9-2.628,20.262,20.262,0,0,1-1.284-3.132q-.516-1.632-.852-3.144,1.128-.768,2.208-1.644t2.064-1.836q.1.1.432.468t.732.828q.4.456.684.8a1.372,1.372,0,0,1,.288.42.278.278,0,0,1-.048.192,1.636,1.636,0,0,1-.576.228q-.48.132-1.1.288T20.1-11.3q-.54.12-.756.192.168,1.248.516,2.724a26.293,26.293,0,0,0,.864,2.9,14.359,14.359,0,0,0,1.164,2.508,1.4,1.4,0,0,1,.444-.3,1.3,1.3,0,0,1,.516-.108.9.9,0,0,1,.7.372A1.149,1.149,0,0,1,23.856-2.28ZM48.24-.816A1.257,1.257,0,0,1,47.664.336,2.352,2.352,0,0,1,46.392.7H26.832V-.48h8.544V-8.04H28.824V-9.216h6.552v-6.768H27.84v-1.224H43.656a2.563,2.563,0,0,1,.468-1.392,1.51,1.51,0,0,1,1.308-.576,1.924,1.924,0,0,1,1.26.468,1.477,1.477,0,0,1,.564,1.188,1.351,1.351,0,0,1-.516,1.14,1.934,1.934,0,0,1-1.212.4h-6.84v6.768H42.72a1.854,1.854,0,0,1,.444-1.272,1.561,1.561,0,0,1,1.236-.5,1.588,1.588,0,0,1,1.068.432,1.329,1.329,0,0,1,.492,1.032,1.265,1.265,0,0,1-.54,1.116,2.087,2.087,0,0,1-1.212.372h-5.52V-.48h6.024a2.427,2.427,0,0,1,.468-1.38,1.488,1.488,0,0,1,1.284-.612A1.833,1.833,0,0,1,47.7-2,1.5,1.5,0,0,1,48.24-.816ZM60.216,2.736a13.074,13.074,0,0,1-5.052-4.824,13.282,13.282,0,0,1-1.692-6.768,14.162,14.162,0,0,1,1.692-7.032,14.4,14.4,0,0,1,5.052-5.136l.336.672a7.352,7.352,0,0,0-.888.84,10.034,10.034,0,0,0-.744.936,11.9,11.9,0,0,0-1.476,3,18.311,18.311,0,0,0-.768,3.348,25.586,25.586,0,0,0-.228,3.372,23.463,23.463,0,0,0,.192,2.9,18.025,18.025,0,0,0,.66,3.06A12.072,12.072,0,0,0,58.56-.084a7.411,7.411,0,0,0,1.992,2.148ZM70.848-.936A5.475,5.475,0,0,1,70.68.42a2.267,2.267,0,0,1-.612,1.092,1.768,1.768,0,0,1-1.284.432,2.086,2.086,0,0,1-1.044-.312A6.04,6.04,0,0,1,66.72.888Q66.24.456,65.9.12a.376.376,0,0,0-.072-.1.138.138,0,0,1-.048-.1q0-.072.12-.072A.762.762,0,0,1,66.12-.1,4.527,4.527,0,0,0,67.464.12a.637.637,0,0,0,.648-.408,2.074,2.074,0,0,0,.168-.792q0-4.176-.012-8.352t-.012-8.352h-1.44q-.024.528-.024,1.056v2.22q0,.564.024,1.14l.12.024a.5.5,0,0,1,.48-.36.5.5,0,0,1,.468.228,1.011,1.011,0,0,1,.132.516.588.588,0,0,1-.192.516.806.806,0,0,1-.468.132h-.54q0,2.016-.072,4.032h.192a.634.634,0,0,1,.192-.24.451.451,0,0,1,.288-.12.488.488,0,0,1,.468.24,1.077,1.077,0,0,1,.132.528.557.557,0,0,1-.216.516,1,1,0,0,1-.528.132H66.7a28.925,28.925,0,0,1-.456,3.876A8.616,8.616,0,0,1,64.68.216q-.24.312-.516.66a4.288,4.288,0,0,1-.588.612q-.12.1-.276.216a.557.557,0,0,1-.348.12q-.24,0-.24-.216a.364.364,0,0,1,.036-.132.389.389,0,0,1,.06-.108,13.244,13.244,0,0,0,.624-1.524,10.855,10.855,0,0,0,.408-1.6A24.508,24.508,0,0,0,64.2-5q.072-1.644.072-3.276,0-2.64-.048-5.28t-.048-5.256h6.672ZM84.888-18.1a1.076,1.076,0,0,1-.528,1.02,2.292,2.292,0,0,1-1.152.3H78.12q.216.072.456.156t.456.18a.34.34,0,0,1,.24.336q0,.144-.372.54t-.876.864q-.5.468-.948.84t-.612.492A8.041,8.041,0,0,1,78.7-10.68a12.27,12.27,0,0,1,1.152,3.372,18.887,18.887,0,0,1,.336,3.492Q80.184-3,80.1-2a7.755,7.755,0,0,1-.4,1.9,3.49,3.49,0,0,1-.948,1.476,2.532,2.532,0,0,1-1.764.576,1.864,1.864,0,0,1-.84-.252,6.5,6.5,0,0,1-.972-.636q-.492-.384-.912-.78t-.66-.66a1.6,1.6,0,0,1-.2-.264A.562.562,0,0,1,73.3-.936q0-.1.144-.1a.387.387,0,0,1,.168.048q.648.24,1.2.42a4.1,4.1,0,0,0,1.272.18.786.786,0,0,0,.7-.492,4.4,4.4,0,0,0,.408-1.176,11.79,11.79,0,0,0,.2-1.32q.06-.636.06-.948,0-.192-.012-.4t-.012-.4a11.158,11.158,0,0,1-1.848,1.656A16.364,16.364,0,0,1,73.44-2.184l-.672.3q-.456.2-.912.36a2.356,2.356,0,0,1-.672.156.212.212,0,0,1-.24-.24.355.355,0,0,1,.12-.276q.12-.108.216-.2a18.234,18.234,0,0,0,2.808-2.856A24.081,24.081,0,0,0,76.3-8.28l.96.552q-.048-.5-.12-1.008t-.192-1.008a19.181,19.181,0,0,1-2.5,2.232A8.179,8.179,0,0,1,71.4-6.12h-.072q-.216,0-.216-.192a.242.242,0,0,1,.048-.156,1.308,1.308,0,0,1,.1-.108,22.15,22.15,0,0,0,2.136-2.4,14.778,14.778,0,0,0,1.632-2.76l1.536.672q-.24-.408-.516-.816a4.15,4.15,0,0,0-.612-.72,12.792,12.792,0,0,1-1.6,1.02,11.255,11.255,0,0,1-1.74.78q-.168.048-.432.144a1.37,1.37,0,0,1-.456.1.318.318,0,0,1-.156-.048.156.156,0,0,1-.084-.144.3.3,0,0,1,.132-.228q.132-.108.18-.156a14.485,14.485,0,0,0,1.692-1.62A17.441,17.441,0,0,0,74.5-14.724a11.491,11.491,0,0,0,1.1-2.052H71.76v-1.008H81.84a1.764,1.764,0,0,1,.42-1.14,1.318,1.318,0,0,1,1.068-.516,1.718,1.718,0,0,1,1.056.384A1.164,1.164,0,0,1,84.888-18.1ZM86.256-2.28a.908.908,0,0,1-.348.708,1.135,1.135,0,0,1-.756.3A2.187,2.187,0,0,1,84-1.668a5.786,5.786,0,0,1-.984-.756,10.365,10.365,0,0,1-1.9-2.628,20.262,20.262,0,0,1-1.284-3.132q-.516-1.632-.852-3.144,1.128-.768,2.208-1.644t2.064-1.836q.1.1.432.468t.732.828q.4.456.684.8a1.372,1.372,0,0,1,.288.42.278.278,0,0,1-.048.192,1.636,1.636,0,0,1-.576.228q-.48.132-1.1.288T82.5-11.3q-.54.12-.756.192.168,1.248.516,2.724a26.293,26.293,0,0,0,.864,2.9,14.359,14.359,0,0,0,1.164,2.508,1.4,1.4,0,0,1,.444-.3,1.3,1.3,0,0,1,.516-.108.9.9,0,0,1,.7.372A1.149,1.149,0,0,1,86.256-2.28ZM103.1-16.512V-18.24H96.1v5.784h1.968v-4.056Zm0,1.008h-2.328v3.048q.5,0,1.008-.012t1.008-.012a3.705,3.705,0,0,0,.228-.828,5.269,5.269,0,0,0,.084-.876Zm2.784,14.352A6.264,6.264,0,0,1,105.66.564a2.515,2.515,0,0,1-.828,1.3,2.58,2.58,0,0,1-1.68.492,3.065,3.065,0,0,1-1.164-.264,7.478,7.478,0,0,1-1.224-.648q-.588-.384-1-.7Q99.72.7,99.648.636A.172.172,0,0,1,99.576.5q0-.12.168-.12A.2.2,0,0,1,99.8.4a.2.2,0,0,0,.06.012,9.708,9.708,0,0,0,.984.144q.5.048,1.008.048a.979.979,0,0,0,.792-.312A1.617,1.617,0,0,0,103-.48a4.777,4.777,0,0,0,.084-.864V-8.328H96.336v1.8h3.84a1.055,1.055,0,0,1,.384-.66,1.113,1.113,0,0,1,.72-.252.95.95,0,0,1,.708.312,1.008,1.008,0,0,1,.3.72.872.872,0,0,1-.288.672.993.993,0,0,1-.7.264H96.336v1.848h3.816a1,1,0,0,1,.372-.66,1.174,1.174,0,0,1,.732-.228.968.968,0,0,1,.708.3.968.968,0,0,1,.3.708.872.872,0,0,1-.288.672.993.993,0,0,1-.7.264H96.336V2.184H93.7V-9.408h12.192Zm4.9-11.064a.762.762,0,0,1-.048.216,6.49,6.49,0,0,1-.48,1.176,10.775,10.775,0,0,1-.864,1.428,6.254,6.254,0,0,1-1.08,1.188,1.758,1.758,0,0,1-1.1.48q-.432,0-.432-.48,0-.144.024-.576t.072-.972q.048-.54.072-1.008t.024-.684H92.208V-7.9H89.424v-4.56h3.888V-19.32h12.7v4.728a7.413,7.413,0,0,1-.084,1.092,2.6,2.6,0,0,1-.4,1.044h4.944a.612.612,0,0,1,.216.036Q110.784-12.384,110.784-12.216Zm22.032,1.536a.738.738,0,0,1-.144.456,2.381,2.381,0,0,1-.6.48,12.718,12.718,0,0,1-.864,2.232,19.89,19.89,0,0,1-1.284,2.244,15.444,15.444,0,0,1-1.4,1.836,12.88,12.88,0,0,1-1.86,1.656,12.812,12.812,0,0,1-2.316,1.344,16.287,16.287,0,0,1-2.868.948,20.469,20.469,0,0,1-3.036.468q-.408.024-.816.036t-.648.012q-.1,0-.264.012t-.192-.18a.149.149,0,0,1,.108-.156q.108-.036.2-.06a10.594,10.594,0,0,0,1.248-.24A13.827,13.827,0,0,0,120.9-.66a14.863,14.863,0,0,0,2.64-1.7,13.113,13.113,0,0,0,2.148-2.172,17.04,17.04,0,0,0,1.284-1.92A13.82,13.82,0,0,0,127.98-8.58a5.571,5.571,0,0,0,.4-1.908q-.024-.384-.5-.384-.12,0-.276.012a2.333,2.333,0,0,0-.276.036q-.864.144-1.872.336t-2.028.42q-1.02.228-1.884.444t-1.416.408q-.168.1-.324.18a.83.83,0,0,1-.4.084,2.265,2.265,0,0,1-.72-.12,2.845,2.845,0,0,1-1.332-.876,2.5,2.5,0,0,1-.564-1.524,1.787,1.787,0,0,1,.012-.456,1.257,1.257,0,0,1,.276-.576,1.925,1.925,0,0,0,.78.516,5.425,5.425,0,0,0,1.068.3,5.444,5.444,0,0,0,.888.1q.6,0,1.62-.072t2.136-.168q1.116-.1,2.04-.2t1.356-.18a7.018,7.018,0,0,0,.828-.228,5.662,5.662,0,0,0,.66-.252,5.356,5.356,0,0,1,.516-.216,2.645,2.645,0,0,1,.492-.144,2.43,2.43,0,0,1,.852.156,4.164,4.164,0,0,1,.732.348q.336.216.756.528a4.787,4.787,0,0,1,.72.648A1.04,1.04,0,0,1,132.816-10.68Zm-3.12-5.16a.649.649,0,0,1-.384.624,3.679,3.679,0,0,1-.648.264q-.7.168-1.632.312t-1.884.24q-.948.1-1.692.1a7.532,7.532,0,0,1-1.62-.144A2.755,2.755,0,0,1,120.7-15a6.966,6.966,0,0,1-1.1-1.2q-.1-.12-.24-.288a.481.481,0,0,1-.144-.264q0-.288.24-.288a.553.553,0,0,1,.3.132,1.223,1.223,0,0,0,.324.18q.408.1.744.18a2.826,2.826,0,0,0,.816.06,19.815,19.815,0,0,0,2.112-.264,14.4,14.4,0,0,0,2.472-.648q.264-.1.528-.18a1.733,1.733,0,0,1,.528-.084,3.608,3.608,0,0,1,.7.108,2.679,2.679,0,0,1,.648.2,2.277,2.277,0,0,1,.72.576A1.374,1.374,0,0,1,129.7-15.84Zm30.912,7.056a1.071,1.071,0,0,1-.492.936,2.352,2.352,0,0,1-1.188.384h-2q-.78,0-1.428-.024-.312,0-.588-.012t-.564-.012q-2.112,0-3.792.06t-3.5.132q-.336.024-1.032.084t-1.488.144q-.792.084-1.44.144a8.547,8.547,0,0,0-.864.108,3.418,3.418,0,0,1-1.992-.564,1.945,1.945,0,0,1-.816-1.716,2.2,2.2,0,0,1,.2-.84.915.915,0,0,1,.516-.576,2.031,2.031,0,0,0,.78.72,3.313,3.313,0,0,0,.972.324,5.375,5.375,0,0,0,.864.084q.768,0,1.536.012t1.536-.012q1.272-.072,2.268-.144t2.268-.216q1.272-.144,2.232-.276t1.788-.324q.828-.192,1.668-.456a9.107,9.107,0,0,1,1.944.252,6.613,6.613,0,0,1,1.56.564,3.223,3.223,0,0,1,.684.528A1.009,1.009,0,0,1,160.608-8.784ZM182.3-4.92a1.68,1.68,0,0,1-.444,1.164,1.466,1.466,0,0,1-1.14.492,1.283,1.283,0,0,1-.888-.348,5.2,5.2,0,0,1-.672-.732q-.48-.648-1-1.284a8.71,8.71,0,0,0-1.14-1.164A19.754,19.754,0,0,1,174.06-3.54a15.038,15.038,0,0,1-3.336,2.172A24.168,24.168,0,0,1,166.584.12q-.12.024-.276.048a1.84,1.84,0,0,1-.276.024A1.547,1.547,0,0,1,165.84.18a.1.1,0,0,1-.1-.108q0-.1.144-.168l.192-.1a15.5,15.5,0,0,0,2.112-1.2,18,18,0,0,0,1.92-1.488q.768-.7,1.7-1.716t1.764-2.112a11.665,11.665,0,0,0,1.26-2q-.96-.72-2-1.356t-2.1-1.212q-.408-.216-.816-.456t-.816-.432l-.192-.1q-.1-.048-.216-.1a.6.6,0,0,0-.108-.072q-.084-.048-.084-.1,0-.1.192-.1h.216a10.428,10.428,0,0,1,1.668.156q.948.156,1.944.408t1.908.576a14.2,14.2,0,0,1,1.584.66q.24-.576.528-1.44t.5-1.74a6.3,6.3,0,0,0,.216-1.452,1.344,1.344,0,0,0-.348-.936,1.989,1.989,0,0,0-.828-.552,4.543,4.543,0,0,1,.912-.564,2.386,2.386,0,0,1,1.032-.252,2.575,2.575,0,0,1,1.368.456,4.667,4.667,0,0,1,1.224,1.116,2.185,2.185,0,0,1,.5,1.332.659.659,0,0,1-.2.456,2.059,2.059,0,0,1-.4.336q-.384,1.2-.8,2.4a18.687,18.687,0,0,1-1,2.328,5.109,5.109,0,0,1,1.068.672,11.514,11.514,0,0,1,.948.84,6.783,6.783,0,0,1,1.128,1.272A2.882,2.882,0,0,1,182.3-4.92Zm27.864-9q-.168.36-.36.828t-.36.8a28.327,28.327,0,0,1-1.62,2.868,19.331,19.331,0,0,1-2.364,2.892,20.539,20.539,0,0,1-1.884,1.692,25.1,25.1,0,0,1-2.352,1.668,25.573,25.573,0,0,1-2.592,1.428,16.12,16.12,0,0,1-2.628,1,1.445,1.445,0,0,1-.84-.1,9.949,9.949,0,0,1-1-.612,3.3,3.3,0,0,1-.9-.924q-.1-.168-.252-.432a1.415,1.415,0,0,1-.156-.72,4.113,4.113,0,0,1,.108-1.08,2.421,2.421,0,0,1,.516-1.056q.12.216.312.54a2.361,2.361,0,0,0,.48.576.989.989,0,0,0,.672.252A6.837,6.837,0,0,0,197-4.68a21.283,21.283,0,0,0,2.448-.972q1.26-.588,2.352-1.236a19.361,19.361,0,0,0,1.788-1.176q.96-.744,1.812-1.428t1.62-1.428l.864-.816a8.956,8.956,0,0,0,.816-.888q.192-.264.54-.7t.564-.7q.048-.072.1-.132a.63.63,0,0,0,.072-.108.23.23,0,0,1,.168-.072q.1,0,.084.144A.911.911,0,0,1,210.168-13.92Zm-10.608.744a2.351,2.351,0,0,1-.624,1.6,1.993,1.993,0,0,1-1.56.708,1.179,1.179,0,0,1-1-.42,2.429,2.429,0,0,1-.444-.9,4.809,4.809,0,0,0-.564-1.236,5.152,5.152,0,0,0-.984-1.152,3.2,3.2,0,0,0-1.356-.708q-.24-.072-.264-.168,0-.048.18-.132a3.086,3.086,0,0,1,.324-.132,5.1,5.1,0,0,1,1-.192,9.422,9.422,0,0,1,1-.072,8.42,8.42,0,0,1,1.356.12,5.686,5.686,0,0,1,1.4.42,2.852,2.852,0,0,1,1.1.852A2.229,2.229,0,0,1,199.56-13.176Zm21.888,4.32a13.283,13.283,0,0,1-1.692,6.768A13.074,13.074,0,0,1,214.7,2.736l-.336-.672a6.94,6.94,0,0,0,1.98-2.136A12.708,12.708,0,0,0,217.6-2.88a17.7,17.7,0,0,0,.66-3.06,23.749,23.749,0,0,0,.192-2.916,26.306,26.306,0,0,0-.228-3.42,17.92,17.92,0,0,0-.78-3.384A11.657,11.657,0,0,0,215.9-18.7a8.912,8.912,0,0,0-.7-.888,5.438,5.438,0,0,0-.84-.768l.336-.672a14.4,14.4,0,0,1,5.052,5.136A14.162,14.162,0,0,1,221.448-8.856Z" transform="translate(-0.312 21.024)" fill="#e7b81e"/></svg>