<svg xmlns="http://www.w3.org/2000/svg" width="331.704" height="35.64" viewBox="0 0 331.704 35.64"><path d="M12.672-1.4A8.213,8.213,0,0,1,12.42.63,3.4,3.4,0,0,1,11.5,2.268a2.652,2.652,0,0,1-1.926.648A3.13,3.13,0,0,1,8.01,2.448,9.06,9.06,0,0,1,6.48,1.332Q5.76.684,5.256.18A.564.564,0,0,0,5.148.036a.207.207,0,0,1-.072-.144q0-.108.18-.108a1.143,1.143,0,0,1,.324.072A6.79,6.79,0,0,0,7.6.18a.955.955,0,0,0,.972-.612A3.111,3.111,0,0,0,8.82-1.62q0-6.264-.018-12.528T8.784-26.676H6.624q-.036.792-.036,1.584v3.33q0,.846.036,1.71l.18.036a.744.744,0,0,1,.72-.54.742.742,0,0,1,.7.342,1.516,1.516,0,0,1,.2.774.881.881,0,0,1-.288.774,1.209,1.209,0,0,1-.7.2h-.81q0,3.024-.108,6.048H6.8a.95.95,0,0,1,.288-.36.676.676,0,0,1,.432-.18.731.731,0,0,1,.7.36,1.616,1.616,0,0,1,.2.792.835.835,0,0,1-.324.774,1.492,1.492,0,0,1-.792.2H6.444A43.387,43.387,0,0,1,5.76-5.022,12.924,12.924,0,0,1,3.42.324q-.36.468-.774.99a6.432,6.432,0,0,1-.882.918q-.18.144-.414.324a.835.835,0,0,1-.522.18q-.36,0-.36-.324a.546.546,0,0,1,.054-.2.584.584,0,0,1,.09-.162A19.866,19.866,0,0,0,1.548-.234,16.282,16.282,0,0,0,2.16-2.628,36.761,36.761,0,0,0,2.7-7.506q.108-2.466.108-4.914,0-3.96-.072-7.92t-.072-7.884H12.672Zm21.06-25.74a1.615,1.615,0,0,1-.792,1.53,3.438,3.438,0,0,1-1.728.45H23.58q.324.108.684.234t.684.27a.51.51,0,0,1,.36.5q0,.216-.558.81t-1.314,1.3q-.756.7-1.422,1.26t-.918.738a12.061,12.061,0,0,1,3.348,4.032,18.4,18.4,0,0,1,1.728,5.058,28.332,28.332,0,0,1,.5,5.238q0,1.224-.126,2.718a11.632,11.632,0,0,1-.594,2.844,5.235,5.235,0,0,1-1.422,2.214,3.8,3.8,0,0,1-2.646.864,2.8,2.8,0,0,1-1.26-.378,9.748,9.748,0,0,1-1.458-.954Q18.432,1.008,17.8.414t-.99-.99a2.4,2.4,0,0,1-.306-.4.843.843,0,0,1-.162-.432q0-.144.216-.144a.58.58,0,0,1,.252.072q.972.36,1.8.63a6.154,6.154,0,0,0,1.908.27,1.179,1.179,0,0,0,1.044-.738,6.6,6.6,0,0,0,.612-1.764,17.684,17.684,0,0,0,.306-1.98q.09-.954.09-1.422,0-.288-.018-.594t-.018-.594a16.737,16.737,0,0,1-2.772,2.484,24.546,24.546,0,0,1-3.2,1.908l-1.008.45q-.684.306-1.368.54a3.535,3.535,0,0,1-1.008.234.318.318,0,0,1-.36-.36A.532.532,0,0,1,13-2.826q.18-.162.324-.306a27.351,27.351,0,0,0,4.212-4.284,36.12,36.12,0,0,0,3.312-5l1.44.828q-.072-.756-.18-1.512t-.288-1.512a28.773,28.773,0,0,1-3.744,3.348A12.269,12.269,0,0,1,13.5-9.18h-.108q-.324,0-.324-.288A.363.363,0,0,1,13.14-9.7a1.964,1.964,0,0,1,.144-.162,33.227,33.227,0,0,0,3.2-3.6,22.167,22.167,0,0,0,2.448-4.14l2.3,1.008q-.36-.612-.774-1.224a6.225,6.225,0,0,0-.918-1.08,19.189,19.189,0,0,1-2.394,1.53,16.882,16.882,0,0,1-2.61,1.17q-.252.072-.648.216a2.055,2.055,0,0,1-.684.144.477.477,0,0,1-.234-.072.234.234,0,0,1-.126-.216.451.451,0,0,1,.2-.342q.2-.162.27-.234a21.727,21.727,0,0,0,2.538-2.43,26.162,26.162,0,0,0,2.286-2.952A17.236,17.236,0,0,0,19.8-25.164H14.04v-1.512H29.16a2.646,2.646,0,0,1,.63-1.71,1.977,1.977,0,0,1,1.6-.774,2.577,2.577,0,0,1,1.584.576A1.746,1.746,0,0,1,33.732-27.144ZM35.784-3.42a1.363,1.363,0,0,1-.522,1.062,1.7,1.7,0,0,1-1.134.45A3.281,3.281,0,0,1,32.4-2.5a8.679,8.679,0,0,1-1.476-1.134A15.548,15.548,0,0,1,28.08-7.578a30.393,30.393,0,0,1-1.926-4.7q-.774-2.448-1.278-4.716,1.692-1.152,3.312-2.466t3.1-2.754q.144.144.648.7t1.1,1.242q.594.684,1.026,1.206a2.058,2.058,0,0,1,.432.63.417.417,0,0,1-.072.288,2.454,2.454,0,0,1-.864.342q-.72.2-1.656.432t-1.746.414q-.81.18-1.134.288.252,1.872.774,4.086a39.439,39.439,0,0,0,1.3,4.356,21.539,21.539,0,0,0,1.746,3.762,2.106,2.106,0,0,1,.666-.45,1.947,1.947,0,0,1,.774-.162,1.352,1.352,0,0,1,1.044.558A1.724,1.724,0,0,1,35.784-3.42Zm36.576,2.2A1.885,1.885,0,0,1,71.5.5a3.529,3.529,0,0,1-1.908.54H40.248V-.72H53.064V-12.06H43.236v-1.764h9.828V-23.976H41.76v-1.836H65.484a3.845,3.845,0,0,1,.7-2.088,2.266,2.266,0,0,1,1.962-.864,2.886,2.886,0,0,1,1.89.7,2.216,2.216,0,0,1,.846,1.782,2.026,2.026,0,0,1-.774,1.71,2.9,2.9,0,0,1-1.818.594H58.032v10.152H64.08a2.781,2.781,0,0,1,.666-1.908,2.341,2.341,0,0,1,1.854-.756,2.382,2.382,0,0,1,1.6.648,1.994,1.994,0,0,1,.738,1.548,1.9,1.9,0,0,1-.81,1.674,3.131,3.131,0,0,1-1.818.558h-8.28V-.72h9.036a3.64,3.64,0,0,1,.7-2.07A2.233,2.233,0,0,1,69.7-3.708a2.75,2.75,0,0,1,1.854.7A2.255,2.255,0,0,1,72.36-1.224ZM90.324,4.1a19.611,19.611,0,0,1-7.578-7.236,19.924,19.924,0,0,1-2.538-10.152,21.243,21.243,0,0,1,2.538-10.548,21.6,21.6,0,0,1,7.578-7.7l.5,1.008a11.028,11.028,0,0,0-1.332,1.26,15.049,15.049,0,0,0-1.116,1.4,17.855,17.855,0,0,0-2.214,4.5,27.467,27.467,0,0,0-1.152,5.022,38.378,38.378,0,0,0-.342,5.058,35.194,35.194,0,0,0,.288,4.356,27.038,27.038,0,0,0,.99,4.59A18.108,18.108,0,0,0,87.84-.126,11.117,11.117,0,0,0,90.828,3.1ZM106.272-1.4A8.213,8.213,0,0,1,106.02.63a3.4,3.4,0,0,1-.918,1.638,2.652,2.652,0,0,1-1.926.648,3.13,3.13,0,0,1-1.566-.468,9.059,9.059,0,0,1-1.53-1.116Q99.36.684,98.856.18a.564.564,0,0,0-.108-.144.207.207,0,0,1-.072-.144q0-.108.18-.108a1.143,1.143,0,0,1,.324.072A6.79,6.79,0,0,0,101.2.18a.955.955,0,0,0,.972-.612,3.111,3.111,0,0,0,.252-1.188q0-6.264-.018-12.528t-.018-12.528h-2.16q-.036.792-.036,1.584v3.33q0,.846.036,1.71l.18.036a.744.744,0,0,1,.72-.54.742.742,0,0,1,.7.342,1.516,1.516,0,0,1,.2.774.881.881,0,0,1-.288.774,1.209,1.209,0,0,1-.7.2h-.81q0,3.024-.108,6.048h.288a.95.95,0,0,1,.288-.36.676.676,0,0,1,.432-.18.731.731,0,0,1,.7.36,1.616,1.616,0,0,1,.2.792.835.835,0,0,1-.324.774,1.492,1.492,0,0,1-.792.2h-.864a43.387,43.387,0,0,1-.684,5.814A12.924,12.924,0,0,1,97.02.324q-.36.468-.774.99a6.432,6.432,0,0,1-.882.918q-.18.144-.414.324a.835.835,0,0,1-.522.18q-.36,0-.36-.324a.546.546,0,0,1,.054-.2.583.583,0,0,1,.09-.162,19.866,19.866,0,0,0,.936-2.286,16.282,16.282,0,0,0,.612-2.394,36.76,36.76,0,0,0,.54-4.878q.108-2.466.108-4.914,0-3.96-.072-7.92t-.072-7.884h10.008Zm21.06-25.74a1.615,1.615,0,0,1-.792,1.53,3.438,3.438,0,0,1-1.728.45H117.18q.324.108.684.234t.684.27a.51.51,0,0,1,.36.5q0,.216-.558.81t-1.314,1.3q-.756.7-1.422,1.26t-.918.738a12.061,12.061,0,0,1,3.348,4.032,18.4,18.4,0,0,1,1.728,5.058,28.332,28.332,0,0,1,.5,5.238q0,1.224-.126,2.718a11.632,11.632,0,0,1-.594,2.844,5.235,5.235,0,0,1-1.422,2.214,3.8,3.8,0,0,1-2.646.864,2.8,2.8,0,0,1-1.26-.378,9.748,9.748,0,0,1-1.458-.954q-.738-.576-1.368-1.17t-.99-.99a2.4,2.4,0,0,1-.306-.4.843.843,0,0,1-.162-.432q0-.144.216-.144a.58.58,0,0,1,.252.072q.972.36,1.8.63a6.154,6.154,0,0,0,1.908.27,1.179,1.179,0,0,0,1.044-.738,6.6,6.6,0,0,0,.612-1.764,17.686,17.686,0,0,0,.306-1.98q.09-.954.09-1.422,0-.288-.018-.594t-.018-.594a16.737,16.737,0,0,1-2.772,2.484,24.547,24.547,0,0,1-3.2,1.908l-1.008.45q-.684.306-1.368.54a3.535,3.535,0,0,1-1.008.234.318.318,0,0,1-.36-.36.532.532,0,0,1,.18-.414q.18-.162.324-.306a27.351,27.351,0,0,0,4.212-4.284,36.12,36.12,0,0,0,3.312-5l1.44.828q-.072-.756-.18-1.512t-.288-1.512a28.773,28.773,0,0,1-3.744,3.348A12.269,12.269,0,0,1,107.1-9.18h-.108q-.324,0-.324-.288a.363.363,0,0,1,.072-.234,1.964,1.964,0,0,1,.144-.162,33.226,33.226,0,0,0,3.2-3.6,22.167,22.167,0,0,0,2.448-4.14l2.3,1.008q-.36-.612-.774-1.224a6.225,6.225,0,0,0-.918-1.08,19.189,19.189,0,0,1-2.394,1.53,16.882,16.882,0,0,1-2.61,1.17q-.252.072-.648.216a2.055,2.055,0,0,1-.684.144.477.477,0,0,1-.234-.072.234.234,0,0,1-.126-.216.451.451,0,0,1,.2-.342q.2-.162.27-.234a21.727,21.727,0,0,0,2.538-2.43,26.163,26.163,0,0,0,2.286-2.952,17.236,17.236,0,0,0,1.656-3.078h-5.76v-1.512h15.12a2.646,2.646,0,0,1,.63-1.71,1.977,1.977,0,0,1,1.6-.774,2.577,2.577,0,0,1,1.584.576A1.746,1.746,0,0,1,127.332-27.144ZM129.384-3.42a1.363,1.363,0,0,1-.522,1.062,1.7,1.7,0,0,1-1.134.45A3.281,3.281,0,0,1,126-2.5a8.679,8.679,0,0,1-1.476-1.134,15.548,15.548,0,0,1-2.844-3.942,30.393,30.393,0,0,1-1.926-4.7q-.774-2.448-1.278-4.716,1.692-1.152,3.312-2.466t3.1-2.754q.144.144.648.7t1.1,1.242q.594.684,1.026,1.206a2.058,2.058,0,0,1,.432.63.417.417,0,0,1-.072.288,2.454,2.454,0,0,1-.864.342q-.72.2-1.656.432t-1.746.414q-.81.18-1.134.288.252,1.872.774,4.086a39.439,39.439,0,0,0,1.3,4.356,21.539,21.539,0,0,0,1.746,3.762,2.106,2.106,0,0,1,.666-.45,1.947,1.947,0,0,1,.774-.162,1.352,1.352,0,0,1,1.044.558A1.724,1.724,0,0,1,129.384-3.42Zm25.272-21.348V-27.36H144.144v8.676H147.1v-6.084Zm0,1.512h-3.492v4.572q.756,0,1.512-.018t1.512-.018a5.558,5.558,0,0,0,.342-1.242,7.9,7.9,0,0,0,.126-1.314Zm4.176,21.528A9.4,9.4,0,0,1,158.49.846a3.773,3.773,0,0,1-1.242,1.944,3.87,3.87,0,0,1-2.52.738,4.6,4.6,0,0,1-1.746-.4,11.218,11.218,0,0,1-1.836-.972q-.882-.576-1.494-1.044-.072-.072-.18-.162a.257.257,0,0,1-.108-.2q0-.18.252-.18a.3.3,0,0,1,.09.018.3.3,0,0,0,.09.018,14.561,14.561,0,0,0,1.476.216q.756.072,1.512.072a1.469,1.469,0,0,0,1.188-.468,2.426,2.426,0,0,0,.522-1.152,7.165,7.165,0,0,0,.126-1.3V-12.492H144.5v2.7h5.76a1.583,1.583,0,0,1,.576-.99,1.67,1.67,0,0,1,1.08-.378,1.426,1.426,0,0,1,1.062.468,1.512,1.512,0,0,1,.45,1.08A1.307,1.307,0,0,1,153-8.6a1.49,1.49,0,0,1-1.044.4H144.5v2.772h5.724a1.494,1.494,0,0,1,.558-.99,1.762,1.762,0,0,1,1.1-.342,1.452,1.452,0,0,1,1.062.45,1.452,1.452,0,0,1,.45,1.062,1.307,1.307,0,0,1-.432,1.008,1.49,1.49,0,0,1-1.044.4H144.5V3.276h-3.96V-14.112h18.288Zm7.344-16.6A1.143,1.143,0,0,1,166.1-18a9.734,9.734,0,0,1-.72,1.764,16.162,16.162,0,0,1-1.3,2.142,9.381,9.381,0,0,1-1.62,1.782,2.637,2.637,0,0,1-1.656.72q-.648,0-.648-.72,0-.216.036-.864t.108-1.458q.072-.81.108-1.512t.036-1.026h-22.14v5.328h-4.176v-6.84h5.832v-10.3h19.044v7.092a11.119,11.119,0,0,1-.126,1.638,3.894,3.894,0,0,1-.594,1.566h7.416a.917.917,0,0,1,.324.054Q166.176-18.576,166.176-18.324Zm33.048,2.3a1.108,1.108,0,0,1-.216.684,3.572,3.572,0,0,1-.9.72,19.076,19.076,0,0,1-1.3,3.348A29.836,29.836,0,0,1,194.886-7.9a23.166,23.166,0,0,1-2.106,2.754,19.32,19.32,0,0,1-2.79,2.484,19.217,19.217,0,0,1-3.474,2.016,24.43,24.43,0,0,1-4.3,1.422,30.7,30.7,0,0,1-4.554.7q-.612.036-1.224.054t-.972.018q-.144,0-.4.018t-.288-.27a.223.223,0,0,1,.162-.234q.162-.054.306-.09a15.891,15.891,0,0,0,1.872-.36,20.74,20.74,0,0,0,4.23-1.6,22.294,22.294,0,0,0,3.96-2.556A19.669,19.669,0,0,0,188.532-6.8a25.56,25.56,0,0,0,1.926-2.88,20.731,20.731,0,0,0,1.512-3.186,8.356,8.356,0,0,0,.594-2.862q-.036-.576-.756-.576-.18,0-.414.018a3.5,3.5,0,0,0-.414.054q-1.3.216-2.808.5t-3.042.63q-1.53.342-2.826.666t-2.124.612q-.252.144-.486.27a1.245,1.245,0,0,1-.594.126,3.4,3.4,0,0,1-1.08-.18,4.268,4.268,0,0,1-2-1.314,3.744,3.744,0,0,1-.846-2.286,2.68,2.68,0,0,1,.018-.684,1.886,1.886,0,0,1,.414-.864,2.888,2.888,0,0,0,1.17.774,8.138,8.138,0,0,0,1.6.45,8.166,8.166,0,0,0,1.332.144q.9,0,2.43-.108t3.2-.252q1.674-.144,3.06-.306t2.034-.27a10.527,10.527,0,0,0,1.242-.342,8.493,8.493,0,0,0,.99-.378,8.033,8.033,0,0,1,.774-.324,3.968,3.968,0,0,1,.738-.216,3.645,3.645,0,0,1,1.278.234,6.245,6.245,0,0,1,1.1.522q.5.324,1.134.792a7.181,7.181,0,0,1,1.08.972A1.559,1.559,0,0,1,199.224-16.02Zm-4.68-7.74a.974.974,0,0,1-.576.936,5.519,5.519,0,0,1-.972.4q-1.044.252-2.448.468t-2.826.36q-1.422.144-2.538.144a11.3,11.3,0,0,1-2.43-.216,4.132,4.132,0,0,1-1.71-.828,10.448,10.448,0,0,1-1.656-1.8q-.144-.18-.36-.432a.721.721,0,0,1-.216-.4q0-.432.36-.432a.83.83,0,0,1,.45.2,1.835,1.835,0,0,0,.486.27q.612.144,1.116.27a4.239,4.239,0,0,0,1.224.09,29.724,29.724,0,0,0,3.168-.4,21.6,21.6,0,0,0,3.708-.972q.4-.144.792-.27a2.6,2.6,0,0,1,.792-.126,5.412,5.412,0,0,1,1.044.162,4.019,4.019,0,0,1,.972.306,3.415,3.415,0,0,1,1.08.864A2.061,2.061,0,0,1,194.544-23.76Zm46.368,10.584a1.607,1.607,0,0,1-.738,1.4,3.529,3.529,0,0,1-1.782.576h-3.006q-1.17,0-2.142-.036-.468,0-.882-.018t-.846-.018q-3.168,0-5.688.09t-5.256.2q-.5.036-1.548.126t-2.232.216q-1.188.126-2.16.216a12.821,12.821,0,0,0-1.3.162,5.127,5.127,0,0,1-2.988-.846,2.917,2.917,0,0,1-1.224-2.574,3.3,3.3,0,0,1,.306-1.26,1.372,1.372,0,0,1,.774-.864,3.046,3.046,0,0,0,1.17,1.08,4.97,4.97,0,0,0,1.458.486,8.063,8.063,0,0,0,1.3.126q1.152,0,2.3.018t2.3-.018q1.908-.108,3.4-.216t3.4-.324q1.908-.216,3.348-.414t2.682-.486q1.242-.288,2.5-.684a13.66,13.66,0,0,1,2.916.378,9.919,9.919,0,0,1,2.34.846,4.834,4.834,0,0,1,1.026.792A1.513,1.513,0,0,1,240.912-13.176Zm32.544,5.8a2.52,2.52,0,0,1-.666,1.746,2.2,2.2,0,0,1-1.71.738,1.924,1.924,0,0,1-1.332-.522,7.8,7.8,0,0,1-1.008-1.1q-.72-.972-1.494-1.926a13.064,13.064,0,0,0-1.71-1.746A29.63,29.63,0,0,1,261.09-5.31a22.556,22.556,0,0,1-5,3.258A36.252,36.252,0,0,1,249.876.18q-.18.036-.414.072a2.76,2.76,0,0,1-.414.036A2.32,2.32,0,0,1,248.76.27a.147.147,0,0,1-.144-.162q0-.144.216-.252l.288-.144a23.245,23.245,0,0,0,3.168-1.8,27,27,0,0,0,2.88-2.232q1.152-1.044,2.556-2.574t2.646-3.168a17.5,17.5,0,0,0,1.89-3.006q-1.44-1.08-3.006-2.034T256.1-16.92q-.612-.324-1.224-.684t-1.224-.648l-.288-.144q-.144-.072-.324-.144a.9.9,0,0,0-.162-.108q-.126-.072-.126-.144,0-.144.288-.144h.324a15.641,15.641,0,0,1,2.5.234q1.422.234,2.916.612t2.862.864a21.3,21.3,0,0,1,2.376.99q.36-.864.792-2.16t.756-2.61a9.448,9.448,0,0,0,.324-2.178,2.016,2.016,0,0,0-.522-1.4,2.984,2.984,0,0,0-1.242-.828,6.815,6.815,0,0,1,1.368-.846,3.579,3.579,0,0,1,1.548-.378,3.862,3.862,0,0,1,2.052.684,7,7,0,0,1,1.836,1.674,3.277,3.277,0,0,1,.756,2,.988.988,0,0,1-.306.684,3.089,3.089,0,0,1-.594.5q-.576,1.8-1.206,3.6A28.035,28.035,0,0,1,268.092-14a7.664,7.664,0,0,1,1.6,1.008,17.268,17.268,0,0,1,1.422,1.26,10.174,10.174,0,0,1,1.692,1.908A4.323,4.323,0,0,1,273.456-7.38Zm41.8-13.5q-.252.54-.54,1.242t-.54,1.206a42.485,42.485,0,0,1-2.43,4.3A29,29,0,0,1,308.2-9.792a30.813,30.813,0,0,1-2.826,2.538,37.657,37.657,0,0,1-3.528,2.5,38.359,38.359,0,0,1-3.888,2.142,24.18,24.18,0,0,1-3.942,1.494,2.168,2.168,0,0,1-1.26-.144,14.922,14.922,0,0,1-1.494-.918,4.95,4.95,0,0,1-1.35-1.386q-.144-.252-.378-.648a2.122,2.122,0,0,1-.234-1.08,6.169,6.169,0,0,1,.162-1.62,3.631,3.631,0,0,1,.774-1.584q.18.324.468.81a3.54,3.54,0,0,0,.72.864,1.483,1.483,0,0,0,1.008.378,10.255,10.255,0,0,0,3.078-.576,31.924,31.924,0,0,0,3.672-1.458q1.89-.882,3.528-1.854a29.043,29.043,0,0,0,2.682-1.764q1.44-1.116,2.718-2.142t2.43-2.142q.684-.648,1.3-1.224a13.432,13.432,0,0,0,1.224-1.332q.288-.4.81-1.044t.846-1.044q.072-.108.144-.2a.943.943,0,0,0,.108-.162.345.345,0,0,1,.252-.108q.144,0,.126.216A1.366,1.366,0,0,1,315.252-20.88ZM299.34-19.764a3.526,3.526,0,0,1-.936,2.394,2.99,2.99,0,0,1-2.34,1.062,1.768,1.768,0,0,1-1.494-.63,3.644,3.644,0,0,1-.666-1.35,7.213,7.213,0,0,0-.846-1.854,7.728,7.728,0,0,0-1.476-1.728,4.806,4.806,0,0,0-2.034-1.062q-.36-.108-.4-.252,0-.072.27-.2a4.63,4.63,0,0,1,.486-.2,7.654,7.654,0,0,1,1.494-.288,14.133,14.133,0,0,1,1.494-.108,12.631,12.631,0,0,1,2.034.18,8.529,8.529,0,0,1,2.106.63,4.278,4.278,0,0,1,1.656,1.278A3.344,3.344,0,0,1,299.34-19.764Zm32.832,6.48a19.924,19.924,0,0,1-2.538,10.152A19.61,19.61,0,0,1,322.056,4.1l-.5-1.008a10.41,10.41,0,0,0,2.97-3.2,19.061,19.061,0,0,0,1.872-4.212,26.544,26.544,0,0,0,.99-4.59,35.629,35.629,0,0,0,.288-4.374,39.461,39.461,0,0,0-.342-5.13,26.879,26.879,0,0,0-1.17-5.076,17.484,17.484,0,0,0-2.3-4.554,13.367,13.367,0,0,0-1.044-1.332,8.157,8.157,0,0,0-1.26-1.152l.5-1.008a21.6,21.6,0,0,1,7.578,7.7A21.243,21.243,0,0,1,332.172-13.284Z" transform="translate(-0.468 31.536)" fill="#e7b81e"/></svg>