<svg xmlns="http://www.w3.org/2000/svg" width="345.044" height="34.776" viewBox="0 0 345.044 34.776"><path d="M35.46-5.328A1.961,1.961,0,0,1,34.9-3.942a1.824,1.824,0,0,1-1.386.594,7.024,7.024,0,0,1-3.258-.828,14.374,14.374,0,0,1-3.1-2.2,26.824,26.824,0,0,1-2.808-3.006q-1.314-1.638-2.376-3.24T20.16-15.48h-.036v9.36h1.548a2.326,2.326,0,0,1,.594-1.386,1.67,1.67,0,0,1,1.314-.666,2.467,2.467,0,0,1,1.458.5,1.564,1.564,0,0,1,.7,1.332,1.551,1.551,0,0,1-.54,1.314,2.183,2.183,0,0,1-1.368.414H20.124v7.6H15.48v-7.6H10.512V-6.12H15.48v-9.756a34.939,34.939,0,0,1-3.186,5,36.833,36.833,0,0,1-4.23,4.716A20.441,20.441,0,0,1,3.24-2.736q-.36.144-.972.414a2.636,2.636,0,0,1-1.008.27q-.36,0-.36-.324a.6.6,0,0,1,.216-.4q.072-.072.252-.216T1.62-3.2a22.139,22.139,0,0,0,2.412-2.52Q5.22-7.164,6.264-8.712T8.1-11.664a40.386,40.386,0,0,0,2.106-4.356,47.332,47.332,0,0,0,1.6-4.536l3.672,1.4v-2.3H3.348v-1.728H15.48v-6.66h4.644v6.66H27.9a2.62,2.62,0,0,1,.738-1.908,2.527,2.527,0,0,1,1.89-.756,2.488,2.488,0,0,1,1.692.63,2.074,2.074,0,0,1,.72,1.638,1.85,1.85,0,0,1-.738,1.566,2.7,2.7,0,0,1-1.674.558h-10.4v2.7l3.456-1.4q.792,2.448,1.908,5.094a34.337,34.337,0,0,0,2.646,5.058,20.866,20.866,0,0,0,3.438,4.176,2.279,2.279,0,0,1,2.16-1.3,1.613,1.613,0,0,1,1.17.594A1.771,1.771,0,0,1,35.46-5.328Zm28.4-21.852H56.916v4.068h2.916a1.506,1.506,0,0,1,.54-1.008,1.576,1.576,0,0,1,1.044-.4,1.589,1.589,0,0,1,1.116.432A1.45,1.45,0,0,1,63-22.968a1.268,1.268,0,0,1-.432.972,1.4,1.4,0,0,1-.972.4h-4.68v3.672h4.716a2.008,2.008,0,0,0,1.638-.72,2.628,2.628,0,0,0,.594-1.728ZM51.876-11.52a1.283,1.283,0,0,1-.342.648,10.523,10.523,0,0,1-.81.9q-.468.468-.9.864t-.648.576a29.242,29.242,0,0,1-4.14,3.042A28.359,28.359,0,0,1,40.428-3.2L38.052-6.876q1.368-.468,2.718-.864T43.452-8.6v-10.08H39.168V-20.2h4.284v-8.856h4.212v8.892h.792a1.716,1.716,0,0,1,.522-1.224,1.63,1.63,0,0,1,1.206-.54,1.61,1.61,0,0,1,1.188.468,1.61,1.61,0,0,1,.468,1.188,1.324,1.324,0,0,1-.594,1.206,2.461,2.461,0,0,1-1.35.378H47.664v8.64q.18-.072.792-.342t1.332-.576q.72-.306,1.278-.54a6.181,6.181,0,0,1,.594-.234A.191.191,0,0,1,51.876-11.52Zm21.24-3.456a1.519,1.519,0,0,1-.612,1.332,2.433,2.433,0,0,1-1.44.432H60.372a10.463,10.463,0,0,1-.954,1.224q-.522.576-1.026,1.152H71.064q-.072,2.232-.252,4.464a35.728,35.728,0,0,1-.648,4.464A13.134,13.134,0,0,1,69.39.684a5.346,5.346,0,0,1-1.476,2.07,3.847,3.847,0,0,1-2.574.81,3.137,3.137,0,0,1-1.656-.54,9.027,9.027,0,0,1-1.6-1.278Q61.344,1.008,60.84.432a1.215,1.215,0,0,0-.162-.216A.414.414,0,0,1,60.552,0q0-.108.18-.108a.4.4,0,0,1,.126.018.988.988,0,0,1,.126.054,15.845,15.845,0,0,0,1.548.45,6.952,6.952,0,0,0,1.62.2,1.409,1.409,0,0,0,1.26-.864A8,8,0,0,0,66.15-2.34a22.492,22.492,0,0,0,.4-2.358q.126-1.134.162-1.71a17.75,17.75,0,0,1-4.266,4.626A25.3,25.3,0,0,1,56.988,1.4q-.648.288-1.62.63a19.862,19.862,0,0,1-1.944.576,7.37,7.37,0,0,1-1.692.234.969.969,0,0,1-.306-.054.223.223,0,0,1-.162-.234q0-.18.216-.252.828-.4,1.62-.828t1.548-.9A28,28,0,0,0,59.616-3.51,23.414,23.414,0,0,0,63.36-8.676L66.78-7.2q.036-.54.09-1.08t.054-1.08H60.768q.288.144.612.27a3.643,3.643,0,0,1,.612.306,18.47,18.47,0,0,1-3.15,3.708,23.405,23.405,0,0,1-4.1,3.006A21.217,21.217,0,0,1,50.256-.108q-.468.144-1.044.288a4.343,4.343,0,0,1-1.044.144A.888.888,0,0,1,47.9.27a.2.2,0,0,1-.162-.2A.266.266,0,0,1,47.9-.162a1.679,1.679,0,0,1,.27-.126,12.573,12.573,0,0,0,1.17-.7q.558-.378,1.1-.738A33.045,33.045,0,0,0,54.576-5.2,26.613,26.613,0,0,0,58-9.36H56.844q-.756.684-1.89,1.566T52.506-6.066a18.417,18.417,0,0,1-2.592,1.4,5.811,5.811,0,0,1-2.286.558.734.734,0,0,1-.252-.054.2.2,0,0,1-.144-.2.36.36,0,0,1,.126-.288,1.323,1.323,0,0,1,.27-.18,24.275,24.275,0,0,0,2.9-2.3,24.465,24.465,0,0,0,2.736-2.952,12.681,12.681,0,0,0,1.854-3.132h-5.58v-1.44H69.012a2.715,2.715,0,0,1,.558-1.53,1.678,1.678,0,0,1,1.422-.7,2.34,2.34,0,0,1,1.476.5A1.678,1.678,0,0,1,73.116-14.976Zm-4.824-6.336a5.7,5.7,0,0,1-.72,3.2,3.292,3.292,0,0,1-2.07,1.35,14.952,14.952,0,0,1-3.258.306H52.956v-12.2H68.292ZM111.1-3.348H97.524v4.1H109.44a1.458,1.458,0,0,0,1.26-.54,2.191,2.191,0,0,0,.4-1.332Zm-10.44-8.676q.18.756.324,1.782t.18,1.782h5.724q.18-.9.378-1.782t.378-1.782Zm9.432-3.1v-1.368H98.28v2.952h10.188A1.416,1.416,0,0,0,110.088-15.12ZM115.56-1.476a4.529,4.529,0,0,1-.63,2.682,2.749,2.749,0,0,1-1.764,1.062,14.75,14.75,0,0,1-2.718.216H93.276V-5H115.56Zm6.3-7.416a1.908,1.908,0,0,1-.738,1.494,2.378,2.378,0,0,1-1.566.63H88.02V-8.46H98.136l-.486-.486-.792-.792q-.414-.414-.738-.756a2.13,2.13,0,0,1-.324-.378.207.207,0,0,1,.072-.144,8.65,8.65,0,0,1,1.476-.522q.972-.27,1.548-.414-1.188-.036-2.358-.036H94.176v-6.12h20.16v2.628a3.8,3.8,0,0,1-.63,2.466,2.7,2.7,0,0,1-1.728.9,17.287,17.287,0,0,1-2.5.162q.648.18,1.332.378a12.615,12.615,0,0,1,1.3.45.792.792,0,0,1,.27.126.31.31,0,0,1,.126.27.58.58,0,0,1-.288.432q-.54.468-1.116.936t-1.152.9h6.948a1.422,1.422,0,0,1-.054-.216,1.312,1.312,0,0,1-.018-.216,1.957,1.957,0,0,1,.756-1.656,2.829,2.829,0,0,1,1.764-.576,2.794,2.794,0,0,1,1.746.594A1.95,1.95,0,0,1,121.86-8.892Zm-2.124-17.316a1.956,1.956,0,0,1-.666,1.53,2.324,2.324,0,0,1-1.6.594h-11.16v2.628h5.364a2.3,2.3,0,0,1,.684-1.476,2.012,2.012,0,0,1,1.476-.612,2.767,2.767,0,0,1,1.512.522,1.564,1.564,0,0,1,.792,1.35,1.671,1.671,0,0,1-.576,1.35,2.1,2.1,0,0,1-1.4.486H92.7v-1.62h9.324v-2.628H89.856v-1.692h12.1v-3.816h4.428v3.816h8.244a3,3,0,0,1,.72-1.89,2.241,2.241,0,0,1,1.8-.81,2.89,2.89,0,0,1,1.782.612A1.967,1.967,0,0,1,119.736-26.208ZM157-12.564a3.181,3.181,0,0,1-.324,1.206,8.775,8.775,0,0,1-.576,1.134,25.032,25.032,0,0,1-1.836,2.448,23.714,23.714,0,0,1-2.16,2.232,40.028,40.028,0,0,1-4.356,3.42A25.729,25.729,0,0,1,143.586.144a30.688,30.688,0,0,1-4.518,1.512q-2.412.612-5.4,1.152-1.224.216-2.682.342t-2.718.126a1.643,1.643,0,0,1-.486-.072q-.234-.072-.234-.432,0-.072.126-.162a1.623,1.623,0,0,1,.2-.126q.216-.072.45-.126t.486-.126q.612-.18,1.224-.342t1.188-.342a60.719,60.719,0,0,0,6.5-2.466,39.856,39.856,0,0,0,6.066-3.366,13.5,13.5,0,0,0-1.71-.54q-.882-.216-1.746-.432-.288-.072-.63-.126a3.223,3.223,0,0,1-.63-.162.4.4,0,0,1-.288-.4.311.311,0,0,1,.108-.216q.288-.252.594-.486t.558-.45q.648-.54,1.3-1.062t1.332-.99a8.822,8.822,0,0,1,1.908,1.512,12.564,12.564,0,0,1,1.512,1.908,27.926,27.926,0,0,0,2.61-2.592,24.349,24.349,0,0,0,2.214-2.88l-6.66.036a49.619,49.619,0,0,1-5,3.33A21.889,21.889,0,0,1,133.7-5.544q-.576.144-1.17.288a5.1,5.1,0,0,1-1.206.144A.646.646,0,0,1,131-5.22a.3.3,0,0,1-.18-.252.552.552,0,0,1,.144-.252.866.866,0,0,1,.216-.216,3.751,3.751,0,0,1,.378-.2,3.751,3.751,0,0,0,.378-.2q1.044-.54,2.052-1.188a31.134,31.134,0,0,0,4.59-3.438,31.85,31.85,0,0,0,3.87-4.266,37.45,37.45,0,0,1-6.984,2.592,29.617,29.617,0,0,1-7.416.9,3.381,3.381,0,0,1-.594-.072q-.378-.072-.378-.36a.386.386,0,0,1,.2-.288,1.288,1.288,0,0,1,.306-.18,3.825,3.825,0,0,1,.522-.18,4.5,4.5,0,0,1,.522-.108q.684-.216,1.332-.414t1.332-.414a50.446,50.446,0,0,0,4.986-1.836,38.543,38.543,0,0,0,4.7-2.412q-1.116-.288-2.25-.594t-2.286-.558a2.552,2.552,0,0,1-.324-.108.255.255,0,0,1-.18-.252.4.4,0,0,1,.144-.252q.216-.18.81-.666t1.314-1.044q.72-.558,1.314-.954a2,2,0,0,1,.81-.4,1.156,1.156,0,0,1,.738.4,6.606,6.606,0,0,1,.81.954q.4.558.738,1.08a8.807,8.807,0,0,1,.486.81,31.323,31.323,0,0,0,2.736-2.466,24.949,24.949,0,0,0,2.376-2.79h-6.444a45.531,45.531,0,0,1-5.544,3.51A20.5,20.5,0,0,1,130-19.188a6.434,6.434,0,0,1-1.188.108.833.833,0,0,1-.342-.072.283.283,0,0,1-.162-.288.5.5,0,0,1,.108-.36,3.566,3.566,0,0,1,.288-.252q.432-.288.9-.54t.936-.54a37.676,37.676,0,0,0,5.724-4.518,33.418,33.418,0,0,0,4.716-5.562q.288.108,1.026.4t1.584.63q.846.342,1.512.648a3.533,3.533,0,0,1,.81.45.417.417,0,0,1,.072.288q0,.252-.486.774a11.675,11.675,0,0,1-1.044.99q-.558.468-.81.684h10.368a1.116,1.116,0,0,1,.432.09.366.366,0,0,1,.216.378,2.527,2.527,0,0,1-.324,1.134,7.966,7.966,0,0,1-.612,1.026,20.74,20.74,0,0,1-3.582,3.744,35.837,35.837,0,0,1-4.266,2.988q.612.288,1.242.558t1.206.558a1.861,1.861,0,0,1,.342.18.363.363,0,0,1,.162.324q0,.288-.54.828a12.127,12.127,0,0,1-1.17,1.026q-.63.486-.882.7,2.664,0,5.328-.018t5.292-.018q.072,0,.108.108A.592.592,0,0,1,157-12.564Zm35.424-2.7q-.252,3.024-.684,6.03t-1.08,5.994a11.409,11.409,0,0,1-1.1,3.06A5.94,5.94,0,0,1,187.6,2a5.641,5.641,0,0,1-3.168.81A5.321,5.321,0,0,1,181.62,2a10.91,10.91,0,0,1-2.412-2,24.721,24.721,0,0,1-1.872-2.3.674.674,0,0,0-.126-.216.382.382,0,0,1-.09-.252q0-.144.18-.144a2.377,2.377,0,0,1,.738.36q.594.36,1.494.828a14.343,14.343,0,0,0,1.944.828,6.37,6.37,0,0,0,2.088.36A1.742,1.742,0,0,0,185-1.224a4.978,4.978,0,0,0,.828-1.584,16.339,16.339,0,0,0,.432-1.584q.5-2.3.774-4.626t.486-4.626h-7.668a34.248,34.248,0,0,1-1.188,3.834,23.72,23.72,0,0,1-1.728,3.654,13.941,13.941,0,0,1-1.386,2.016q-.774.936-1.6,1.836a13.916,13.916,0,0,1-3.078,2.52,23.508,23.508,0,0,1-3.618,1.728q-.468.18-1.008.36a3.3,3.3,0,0,1-1.044.18.456.456,0,0,1-.27-.09.276.276,0,0,1-.126-.234.448.448,0,0,1,.144-.324,1.893,1.893,0,0,1,.36-.288,3.274,3.274,0,0,0,.36-.252q.756-.5,1.512-1.08a13.864,13.864,0,0,0,1.4-1.224,21.713,21.713,0,0,0,4.122-5.778,28.2,28.2,0,0,0,2.25-6.624,43.22,43.22,0,0,0,.864-7.038l5.04.72q-.108,1.116-.288,2.232t-.4,2.232Zm4.14-7.848a1.755,1.755,0,0,1-.738,1.53,2.828,2.828,0,0,1-1.674.522H164.556v-1.728h13.1q-.216-1.8-.468-3.6a30.517,30.517,0,0,1-.288-3.636q1.188,0,2.448.054a21.625,21.625,0,0,1,2.412.234,5.633,5.633,0,0,1,.7.144,1.01,1.01,0,0,1,.594.36.268.268,0,0,1,.072.2v.2a5.357,5.357,0,0,1-.216,1.314q-.216.81-.558,1.728t-.684,1.71q-.342.792-.558,1.3h10.332a2.822,2.822,0,0,1,.792-1.854,2.455,2.455,0,0,1,1.836-.738,2.646,2.646,0,0,1,1.71.63A2.013,2.013,0,0,1,196.56-23.112Zm33.264,7.092a1.108,1.108,0,0,1-.216.684,3.572,3.572,0,0,1-.9.72,19.076,19.076,0,0,1-1.3,3.348A29.836,29.836,0,0,1,225.486-7.9a23.166,23.166,0,0,1-2.106,2.754,19.32,19.32,0,0,1-2.79,2.484,19.217,19.217,0,0,1-3.474,2.016,24.43,24.43,0,0,1-4.3,1.422,30.7,30.7,0,0,1-4.554.7q-.612.036-1.224.054t-.972.018q-.144,0-.4.018t-.288-.27a.223.223,0,0,1,.162-.234q.162-.054.306-.09a15.891,15.891,0,0,0,1.872-.36,20.74,20.74,0,0,0,4.23-1.6,22.294,22.294,0,0,0,3.96-2.556A19.669,19.669,0,0,0,219.132-6.8a25.56,25.56,0,0,0,1.926-2.88,20.731,20.731,0,0,0,1.512-3.186,8.356,8.356,0,0,0,.594-2.862q-.036-.576-.756-.576-.18,0-.414.018a3.5,3.5,0,0,0-.414.054q-1.3.216-2.808.5t-3.042.63q-1.53.342-2.826.666t-2.124.612q-.252.144-.486.27a1.245,1.245,0,0,1-.594.126,3.4,3.4,0,0,1-1.08-.18,4.268,4.268,0,0,1-2-1.314,3.744,3.744,0,0,1-.846-2.286,2.68,2.68,0,0,1,.018-.684,1.886,1.886,0,0,1,.414-.864,2.888,2.888,0,0,0,1.17.774,8.138,8.138,0,0,0,1.6.45,8.166,8.166,0,0,0,1.332.144q.9,0,2.43-.108t3.2-.252q1.674-.144,3.06-.306t2.034-.27a10.527,10.527,0,0,0,1.242-.342,8.493,8.493,0,0,0,.99-.378,8.033,8.033,0,0,1,.774-.324,3.968,3.968,0,0,1,.738-.216,3.645,3.645,0,0,1,1.278.234,6.245,6.245,0,0,1,1.1.522q.5.324,1.134.792a7.181,7.181,0,0,1,1.08.972A1.559,1.559,0,0,1,229.824-16.02Zm-4.68-7.74a.974.974,0,0,1-.576.936,5.519,5.519,0,0,1-.972.4q-1.044.252-2.448.468t-2.826.36q-1.422.144-2.538.144a11.3,11.3,0,0,1-2.43-.216,4.132,4.132,0,0,1-1.71-.828,10.448,10.448,0,0,1-1.656-1.8q-.144-.18-.36-.432a.721.721,0,0,1-.216-.4q0-.432.36-.432a.83.83,0,0,1,.45.2,1.835,1.835,0,0,0,.486.27q.612.144,1.116.27a4.239,4.239,0,0,0,1.224.09,29.724,29.724,0,0,0,3.168-.4,21.6,21.6,0,0,0,3.708-.972q.4-.144.792-.27a2.6,2.6,0,0,1,.792-.126,5.412,5.412,0,0,1,1.044.162,4.019,4.019,0,0,1,.972.306,3.415,3.415,0,0,1,1.08.864A2.061,2.061,0,0,1,225.144-23.76Zm46.368,10.584a1.607,1.607,0,0,1-.738,1.4,3.529,3.529,0,0,1-1.782.576h-3.006q-1.17,0-2.142-.036-.468,0-.882-.018t-.846-.018q-3.168,0-5.688.09t-5.256.2q-.5.036-1.548.126t-2.232.216q-1.188.126-2.16.216a12.821,12.821,0,0,0-1.3.162,5.127,5.127,0,0,1-2.988-.846,2.917,2.917,0,0,1-1.224-2.574,3.3,3.3,0,0,1,.306-1.26,1.372,1.372,0,0,1,.774-.864,3.046,3.046,0,0,0,1.17,1.08,4.97,4.97,0,0,0,1.458.486,8.063,8.063,0,0,0,1.3.126q1.152,0,2.3.018t2.3-.018q1.908-.108,3.4-.216t3.4-.324q1.908-.216,3.348-.414t2.682-.486q1.242-.288,2.5-.684a13.66,13.66,0,0,1,2.916.378,9.919,9.919,0,0,1,2.34.846,4.834,4.834,0,0,1,1.026.792A1.513,1.513,0,0,1,271.512-13.176Zm32.544,5.8a2.52,2.52,0,0,1-.666,1.746,2.2,2.2,0,0,1-1.71.738,1.924,1.924,0,0,1-1.332-.522,7.8,7.8,0,0,1-1.008-1.1q-.72-.972-1.494-1.926a13.066,13.066,0,0,0-1.71-1.746A29.631,29.631,0,0,1,291.69-5.31a22.557,22.557,0,0,1-5,3.258A36.253,36.253,0,0,1,280.476.18q-.18.036-.414.072a2.759,2.759,0,0,1-.414.036A2.32,2.32,0,0,1,279.36.27a.147.147,0,0,1-.144-.162q0-.144.216-.252l.288-.144a23.247,23.247,0,0,0,3.168-1.8,27,27,0,0,0,2.88-2.232q1.152-1.044,2.556-2.574t2.646-3.168a17.493,17.493,0,0,0,1.89-3.006q-1.44-1.08-3.006-2.034T286.7-16.92q-.612-.324-1.224-.684t-1.224-.648l-.288-.144q-.144-.072-.324-.144a.894.894,0,0,0-.162-.108q-.126-.072-.126-.144,0-.144.288-.144h.324a15.642,15.642,0,0,1,2.5.234q1.422.234,2.916.612t2.862.864a21.294,21.294,0,0,1,2.376.99q.36-.864.792-2.16t.756-2.61a9.448,9.448,0,0,0,.324-2.178,2.016,2.016,0,0,0-.522-1.4,2.984,2.984,0,0,0-1.242-.828,6.814,6.814,0,0,1,1.368-.846,3.579,3.579,0,0,1,1.548-.378,3.862,3.862,0,0,1,2.052.684,7,7,0,0,1,1.836,1.674,3.277,3.277,0,0,1,.756,2,.988.988,0,0,1-.306.684,3.09,3.09,0,0,1-.594.5q-.576,1.8-1.206,3.6A28.03,28.03,0,0,1,298.692-14a7.663,7.663,0,0,1,1.6,1.008,17.268,17.268,0,0,1,1.422,1.26,10.173,10.173,0,0,1,1.692,1.908A4.323,4.323,0,0,1,304.056-7.38Zm41.8-13.5q-.252.54-.54,1.242t-.54,1.206a42.485,42.485,0,0,1-2.43,4.3A29,29,0,0,1,338.8-9.792a30.813,30.813,0,0,1-2.826,2.538,37.657,37.657,0,0,1-3.528,2.5,38.359,38.359,0,0,1-3.888,2.142,24.18,24.18,0,0,1-3.942,1.494,2.168,2.168,0,0,1-1.26-.144,14.922,14.922,0,0,1-1.494-.918,4.95,4.95,0,0,1-1.35-1.386q-.144-.252-.378-.648a2.122,2.122,0,0,1-.234-1.08,6.169,6.169,0,0,1,.162-1.62,3.631,3.631,0,0,1,.774-1.584q.18.324.468.81a3.54,3.54,0,0,0,.72.864,1.483,1.483,0,0,0,1.008.378,10.255,10.255,0,0,0,3.078-.576,31.924,31.924,0,0,0,3.672-1.458q1.89-.882,3.528-1.854a29.043,29.043,0,0,0,2.682-1.764q1.44-1.116,2.718-2.142t2.43-2.142q.684-.648,1.3-1.224a13.432,13.432,0,0,0,1.224-1.332q.288-.4.81-1.044t.846-1.044q.072-.108.144-.2a.945.945,0,0,0,.108-.162.345.345,0,0,1,.252-.108q.144,0,.126.216A1.366,1.366,0,0,1,345.852-20.88ZM329.94-19.764A3.526,3.526,0,0,1,329-17.37a2.99,2.99,0,0,1-2.34,1.062,1.768,1.768,0,0,1-1.494-.63,3.644,3.644,0,0,1-.666-1.35,7.213,7.213,0,0,0-.846-1.854,7.728,7.728,0,0,0-1.476-1.728,4.806,4.806,0,0,0-2.034-1.062q-.36-.108-.4-.252,0-.072.27-.2a4.63,4.63,0,0,1,.486-.2A7.654,7.654,0,0,1,322-23.868a14.133,14.133,0,0,1,1.494-.108,12.631,12.631,0,0,1,2.034.18,8.529,8.529,0,0,1,2.106.63,4.278,4.278,0,0,1,1.656,1.278A3.344,3.344,0,0,1,329.94-19.764Z" transform="translate(-0.9 31.212)" fill="#e7b81e"/></svg>