<svg xmlns="http://www.w3.org/2000/svg" width="230.029" height="23.184" viewBox="0 0 230.029 23.184"><path d="M23.64-3.552a1.307,1.307,0,0,1-.372.924,1.216,1.216,0,0,1-.924.4,4.683,4.683,0,0,1-2.172-.552,9.583,9.583,0,0,1-2.064-1.464,17.882,17.882,0,0,1-1.872-2q-.876-1.092-1.584-2.16T13.44-10.32h-.024v6.24h1.032a1.551,1.551,0,0,1,.4-.924,1.114,1.114,0,0,1,.876-.444,1.645,1.645,0,0,1,.972.336,1.043,1.043,0,0,1,.468.888,1.034,1.034,0,0,1-.36.876,1.456,1.456,0,0,1-.912.276H13.416V1.992h-3.1V-3.072H7.008V-4.08H10.32v-6.5A23.293,23.293,0,0,1,8.2-7.248,24.556,24.556,0,0,1,5.376-4.1,13.627,13.627,0,0,1,2.16-1.824q-.24.1-.648.276a1.758,1.758,0,0,1-.672.18q-.24,0-.24-.216a.4.4,0,0,1,.144-.264Q.792-1.9.912-1.992t.168-.144a14.759,14.759,0,0,0,1.608-1.68q.792-.96,1.488-1.992T5.4-7.776a26.924,26.924,0,0,0,1.4-2.9A31.555,31.555,0,0,0,7.872-13.7l2.448.936V-14.3H2.232v-1.152H10.32V-19.9h3.1v4.44H18.6a1.747,1.747,0,0,1,.492-1.272,1.685,1.685,0,0,1,1.26-.5,1.658,1.658,0,0,1,1.128.42,1.383,1.383,0,0,1,.48,1.092,1.233,1.233,0,0,1-.492,1.044,1.8,1.8,0,0,1-1.116.372H13.416v1.8l2.3-.936q.528,1.632,1.272,3.4a22.891,22.891,0,0,0,1.764,3.372,13.91,13.91,0,0,0,2.292,2.784,1.519,1.519,0,0,1,1.44-.864,1.075,1.075,0,0,1,.78.4A1.181,1.181,0,0,1,23.64-3.552ZM42.576-18.12H37.944v2.712h1.944a1,1,0,0,1,.36-.672,1.051,1.051,0,0,1,.7-.264,1.059,1.059,0,0,1,.744.288.966.966,0,0,1,.312.744.845.845,0,0,1-.288.648.935.935,0,0,1-.648.264h-3.12v2.448h3.144a1.339,1.339,0,0,0,1.092-.48,1.752,1.752,0,0,0,.4-1.152ZM34.584-7.68a.856.856,0,0,1-.228.432,7.015,7.015,0,0,1-.54.6q-.312.312-.6.576t-.432.384a19.5,19.5,0,0,1-2.76,2.028,18.906,18.906,0,0,1-3.072,1.524L25.368-4.584Q26.28-4.9,27.18-5.16t1.788-.576v-6.72H26.112v-1.008h2.856v-5.9h2.808v5.928H32.3a1.144,1.144,0,0,1,.348-.816,1.087,1.087,0,0,1,.8-.36,1.073,1.073,0,0,1,.792.312,1.073,1.073,0,0,1,.312.792.882.882,0,0,1-.4.8,1.64,1.64,0,0,1-.9.252H31.776V-6.7q.12-.048.528-.228t.888-.384l.852-.36a4.12,4.12,0,0,1,.4-.156A.127.127,0,0,1,34.584-7.68Zm14.16-2.3a1.013,1.013,0,0,1-.408.888,1.622,1.622,0,0,1-.96.288H40.248a6.976,6.976,0,0,1-.636.816q-.348.384-.684.768h8.448q-.048,1.488-.168,2.976a23.82,23.82,0,0,1-.432,2.976A8.756,8.756,0,0,1,46.26.456a3.564,3.564,0,0,1-.984,1.38,2.564,2.564,0,0,1-1.716.54,2.091,2.091,0,0,1-1.1-.36,6.018,6.018,0,0,1-1.068-.852Q40.9.672,40.56.288a.81.81,0,0,0-.108-.144A.276.276,0,0,1,40.368,0q0-.072.12-.072a.266.266,0,0,1,.084.012.658.658,0,0,1,.084.036,10.563,10.563,0,0,0,1.032.3,4.635,4.635,0,0,0,1.08.132.939.939,0,0,0,.84-.576A5.337,5.337,0,0,0,44.1-1.56a15,15,0,0,0,.264-1.572q.084-.756.108-1.14a11.834,11.834,0,0,1-2.844,3.084A16.865,16.865,0,0,1,37.992.936q-.432.192-1.08.42a13.241,13.241,0,0,1-1.3.384,4.913,4.913,0,0,1-1.128.156.646.646,0,0,1-.2-.036.149.149,0,0,1-.108-.156q0-.12.144-.168.552-.264,1.08-.552t1.032-.6A18.667,18.667,0,0,0,39.744-2.34a15.609,15.609,0,0,0,2.5-3.444l2.28.984q.024-.36.06-.72t.036-.72h-4.1q.192.1.408.18a2.429,2.429,0,0,1,.408.2,12.314,12.314,0,0,1-2.1,2.472,15.6,15.6,0,0,1-2.736,2A14.145,14.145,0,0,1,33.5-.072q-.312.1-.7.192a2.9,2.9,0,0,1-.7.1.592.592,0,0,1-.18-.036.134.134,0,0,1-.108-.132.177.177,0,0,1,.108-.156,1.12,1.12,0,0,1,.18-.084,8.382,8.382,0,0,0,.78-.468q.372-.252.732-.492a22.03,22.03,0,0,0,2.76-2.316,17.742,17.742,0,0,0,2.28-2.772H37.9q-.5.456-1.26,1.044T35-4.044a12.278,12.278,0,0,1-1.728.936,3.874,3.874,0,0,1-1.524.372.489.489,0,0,1-.168-.036.132.132,0,0,1-.1-.132.24.24,0,0,1,.084-.192.882.882,0,0,1,.18-.12,16.183,16.183,0,0,0,1.932-1.536A16.31,16.31,0,0,0,35.508-6.72a8.454,8.454,0,0,0,1.236-2.088h-3.72v-.96H46.008a1.81,1.81,0,0,1,.372-1.02,1.118,1.118,0,0,1,.948-.468,1.56,1.56,0,0,1,.984.336A1.119,1.119,0,0,1,48.744-9.984Zm-3.216-4.224a3.8,3.8,0,0,1-.48,2.136,2.194,2.194,0,0,1-1.38.9,9.968,9.968,0,0,1-2.172.2H35.3V-19.1H45.528ZM74.064-2.232H65.016V.5H72.96a.972.972,0,0,0,.84-.36,1.461,1.461,0,0,0,.264-.888ZM67.1-8.016q.12.5.216,1.188t.12,1.188h3.816q.12-.6.252-1.188t.252-1.188Zm6.288-2.064v-.912H65.52v1.968h6.792A.944.944,0,0,0,73.392-10.08Zm3.648,9.1A3.019,3.019,0,0,1,76.62.8a1.833,1.833,0,0,1-1.176.708,9.833,9.833,0,0,1-1.812.144H62.184V-3.336H77.04Zm4.2-4.944a1.272,1.272,0,0,1-.492,1,1.585,1.585,0,0,1-1.044.42H58.68V-5.64h6.744L65.1-5.964l-.528-.528Q64.3-6.768,64.08-7a1.42,1.42,0,0,1-.216-.252.138.138,0,0,1,.048-.1,5.767,5.767,0,0,1,.984-.348q.648-.18,1.032-.276-.792-.024-1.572-.024H62.784v-4.08h13.44v1.752a2.536,2.536,0,0,1-.42,1.644,1.8,1.8,0,0,1-1.152.6,11.525,11.525,0,0,1-1.668.108q.432.12.888.252a8.409,8.409,0,0,1,.864.3.528.528,0,0,1,.18.084.207.207,0,0,1,.084.18.387.387,0,0,1-.192.288q-.36.312-.744.624t-.768.6h4.632a.948.948,0,0,1-.036-.144.874.874,0,0,1-.012-.144,1.3,1.3,0,0,1,.5-1.1,1.886,1.886,0,0,1,1.176-.384,1.863,1.863,0,0,1,1.164.4A1.3,1.3,0,0,1,81.24-5.928ZM79.824-17.472a1.3,1.3,0,0,1-.444,1.02,1.549,1.549,0,0,1-1.068.4h-7.44V-14.3h3.576a1.53,1.53,0,0,1,.456-.984,1.341,1.341,0,0,1,.984-.408,1.844,1.844,0,0,1,1.008.348,1.043,1.043,0,0,1,.528.9,1.114,1.114,0,0,1-.384.9,1.4,1.4,0,0,1-.936.324H61.8V-14.3h6.216v-1.752H59.9v-1.128h8.064v-2.544H70.92v2.544h5.5a2,2,0,0,1,.48-1.26,1.494,1.494,0,0,1,1.2-.54,1.926,1.926,0,0,1,1.188.408A1.311,1.311,0,0,1,79.824-17.472Zm24.84,9.1a2.121,2.121,0,0,1-.216.8,5.85,5.85,0,0,1-.384.756,16.688,16.688,0,0,1-1.224,1.632A15.811,15.811,0,0,1,101.4-3.7a26.685,26.685,0,0,1-2.9,2.28A17.153,17.153,0,0,1,95.724.1,20.459,20.459,0,0,1,92.712,1.1q-1.608.408-3.6.768-.816.144-1.788.228t-1.812.084a1.1,1.1,0,0,1-.324-.048q-.156-.048-.156-.288,0-.048.084-.108a1.082,1.082,0,0,1,.132-.084q.144-.048.3-.084t.324-.084q.408-.12.816-.228t.792-.228A40.478,40.478,0,0,0,91.812-.612a26.57,26.57,0,0,0,4.044-2.244,9,9,0,0,0-1.14-.36L93.552-3.5q-.192-.048-.42-.084a2.149,2.149,0,0,1-.42-.108.264.264,0,0,1-.192-.264.207.207,0,0,1,.072-.144q.192-.168.4-.324t.372-.3q.432-.36.864-.708t.888-.66a5.881,5.881,0,0,1,1.272,1.008,8.376,8.376,0,0,1,1.008,1.272,18.617,18.617,0,0,0,1.74-1.728,16.232,16.232,0,0,0,1.476-1.92l-4.44.024a33.079,33.079,0,0,1-3.336,2.22,14.593,14.593,0,0,1-3.7,1.524l-.78.192a3.4,3.4,0,0,1-.8.1.43.43,0,0,1-.216-.072.2.2,0,0,1-.12-.168.368.368,0,0,1,.1-.168.578.578,0,0,1,.144-.144,2.5,2.5,0,0,1,.252-.132,2.5,2.5,0,0,0,.252-.132q.7-.36,1.368-.792a20.755,20.755,0,0,0,3.06-2.292,21.234,21.234,0,0,0,2.58-2.844,24.967,24.967,0,0,1-4.656,1.728,19.745,19.745,0,0,1-4.944.6,2.254,2.254,0,0,1-.4-.048q-.252-.048-.252-.24a.257.257,0,0,1,.132-.192.859.859,0,0,1,.2-.12,2.551,2.551,0,0,1,.348-.12,3,3,0,0,1,.348-.072q.456-.144.888-.276t.888-.276a33.63,33.63,0,0,0,3.324-1.224A25.7,25.7,0,0,0,93.984-12q-.744-.192-1.5-.4t-1.524-.372a1.7,1.7,0,0,1-.216-.072.17.17,0,0,1-.12-.168.263.263,0,0,1,.1-.168q.144-.12.54-.444t.876-.7q.48-.372.876-.636a1.331,1.331,0,0,1,.54-.264.771.771,0,0,1,.492.264,4.4,4.4,0,0,1,.54.636q.264.372.492.72a5.873,5.873,0,0,1,.324.54A20.882,20.882,0,0,0,97.224-14.7a16.633,16.633,0,0,0,1.584-1.86h-4.3a30.354,30.354,0,0,1-3.7,2.34,13.665,13.665,0,0,1-4.152,1.428,4.289,4.289,0,0,1-.792.072.555.555,0,0,1-.228-.048.189.189,0,0,1-.108-.192.331.331,0,0,1,.072-.24,2.379,2.379,0,0,1,.192-.168q.288-.192.6-.36t.624-.36A25.118,25.118,0,0,0,90.84-17.1a22.279,22.279,0,0,0,3.144-3.708q.192.072.684.264t1.056.42q.564.228,1.008.432a2.356,2.356,0,0,1,.54.3.278.278,0,0,1,.048.192q0,.168-.324.516a7.783,7.783,0,0,1-.7.66q-.372.312-.54.456h6.912a.744.744,0,0,1,.288.06.244.244,0,0,1,.144.252,1.684,1.684,0,0,1-.216.756,5.31,5.31,0,0,1-.408.684,13.826,13.826,0,0,1-2.388,2.5,23.892,23.892,0,0,1-2.844,1.992q.408.192.828.372t.8.372a1.241,1.241,0,0,1,.228.12.242.242,0,0,1,.108.216q0,.192-.36.552a8.084,8.084,0,0,1-.78.684q-.42.324-.588.468,1.776,0,3.552-.012t3.528-.012q.048,0,.072.072A.4.4,0,0,1,104.664-8.376Zm23.616-1.8q-.168,2.016-.456,4.02t-.72,4a7.606,7.606,0,0,1-.732,2.04,3.96,3.96,0,0,1-1.308,1.452,3.76,3.76,0,0,1-2.112.54,3.547,3.547,0,0,1-1.872-.54A7.274,7.274,0,0,1,119.472,0a16.48,16.48,0,0,1-1.248-1.536.449.449,0,0,0-.084-.144.254.254,0,0,1-.06-.168q0-.1.12-.1a1.585,1.585,0,0,1,.492.24q.4.24,1,.552a9.562,9.562,0,0,0,1.3.552,4.247,4.247,0,0,0,1.392.24,1.161,1.161,0,0,0,.96-.456,3.318,3.318,0,0,0,.552-1.056,10.892,10.892,0,0,0,.288-1.056q.336-1.536.516-3.084t.324-3.084H119.9a22.832,22.832,0,0,1-.792,2.556A15.813,15.813,0,0,1,117.96-4.1a9.293,9.293,0,0,1-.924,1.344q-.516.624-1.068,1.224a9.277,9.277,0,0,1-2.052,1.68A15.672,15.672,0,0,1,111.5,1.3q-.312.12-.672.24a2.2,2.2,0,0,1-.7.12.3.3,0,0,1-.18-.06.184.184,0,0,1-.084-.156.3.3,0,0,1,.1-.216,1.262,1.262,0,0,1,.24-.192,2.183,2.183,0,0,0,.24-.168q.5-.336,1.008-.72a9.244,9.244,0,0,0,.936-.816,14.475,14.475,0,0,0,2.748-3.852,18.8,18.8,0,0,0,1.5-4.416,28.813,28.813,0,0,0,.576-4.692l3.36.48q-.072.744-.192,1.488t-.264,1.488Zm2.76-5.232a1.17,1.17,0,0,1-.492,1.02,1.885,1.885,0,0,1-1.116.348H109.7v-1.152h8.736q-.144-1.2-.312-2.4a20.344,20.344,0,0,1-.192-2.424q.792,0,1.632.036a14.416,14.416,0,0,1,1.608.156,3.755,3.755,0,0,1,.468.1.673.673,0,0,1,.4.24.178.178,0,0,1,.048.132v.132a3.571,3.571,0,0,1-.144.876q-.144.54-.372,1.152t-.456,1.14q-.228.528-.372.864h6.888a1.881,1.881,0,0,1,.528-1.236,1.636,1.636,0,0,1,1.224-.492,1.764,1.764,0,0,1,1.14.42A1.342,1.342,0,0,1,131.04-15.408Zm22.176,4.728a.738.738,0,0,1-.144.456,2.381,2.381,0,0,1-.6.48,12.718,12.718,0,0,1-.864,2.232,19.89,19.89,0,0,1-1.284,2.244,15.444,15.444,0,0,1-1.4,1.836,12.88,12.88,0,0,1-1.86,1.656,12.812,12.812,0,0,1-2.316,1.344,16.287,16.287,0,0,1-2.868.948,20.469,20.469,0,0,1-3.036.468q-.408.024-.816.036t-.648.012q-.1,0-.264.012t-.192-.18a.149.149,0,0,1,.108-.156q.108-.036.2-.06a10.594,10.594,0,0,0,1.248-.24A13.827,13.827,0,0,0,141.3-.66a14.863,14.863,0,0,0,2.64-1.7,13.113,13.113,0,0,0,2.148-2.172,17.041,17.041,0,0,0,1.284-1.92A13.82,13.82,0,0,0,148.38-8.58a5.571,5.571,0,0,0,.4-1.908q-.024-.384-.5-.384-.12,0-.276.012a2.333,2.333,0,0,0-.276.036q-.864.144-1.872.336t-2.028.42q-1.02.228-1.884.444t-1.416.408q-.168.1-.324.18a.83.83,0,0,1-.4.084,2.265,2.265,0,0,1-.72-.12,2.845,2.845,0,0,1-1.332-.876,2.5,2.5,0,0,1-.564-1.524,1.787,1.787,0,0,1,.012-.456,1.257,1.257,0,0,1,.276-.576,1.925,1.925,0,0,0,.78.516,5.425,5.425,0,0,0,1.068.3,5.444,5.444,0,0,0,.888.1q.6,0,1.62-.072t2.136-.168q1.116-.1,2.04-.2t1.356-.18a7.018,7.018,0,0,0,.828-.228,5.663,5.663,0,0,0,.66-.252,5.356,5.356,0,0,1,.516-.216,2.645,2.645,0,0,1,.492-.144,2.43,2.43,0,0,1,.852.156,4.164,4.164,0,0,1,.732.348q.336.216.756.528a4.787,4.787,0,0,1,.72.648A1.04,1.04,0,0,1,153.216-10.68Zm-3.12-5.16a.649.649,0,0,1-.384.624,3.679,3.679,0,0,1-.648.264q-.7.168-1.632.312t-1.884.24q-.948.1-1.692.1a7.533,7.533,0,0,1-1.62-.144A2.755,2.755,0,0,1,141.1-15a6.966,6.966,0,0,1-1.1-1.2q-.1-.12-.24-.288a.481.481,0,0,1-.144-.264q0-.288.24-.288a.553.553,0,0,1,.3.132,1.224,1.224,0,0,0,.324.18q.408.1.744.18a2.826,2.826,0,0,0,.816.06,19.815,19.815,0,0,0,2.112-.264,14.4,14.4,0,0,0,2.472-.648q.264-.1.528-.18a1.733,1.733,0,0,1,.528-.084,3.608,3.608,0,0,1,.7.108,2.679,2.679,0,0,1,.648.2,2.277,2.277,0,0,1,.72.576A1.374,1.374,0,0,1,150.1-15.84Zm30.912,7.056a1.071,1.071,0,0,1-.492.936,2.352,2.352,0,0,1-1.188.384h-2q-.78,0-1.428-.024-.312,0-.588-.012t-.564-.012q-2.112,0-3.792.06t-3.5.132q-.336.024-1.032.084t-1.488.144q-.792.084-1.44.144a8.547,8.547,0,0,0-.864.108,3.418,3.418,0,0,1-1.992-.564,1.945,1.945,0,0,1-.816-1.716,2.2,2.2,0,0,1,.2-.84.915.915,0,0,1,.516-.576,2.031,2.031,0,0,0,.78.72,3.313,3.313,0,0,0,.972.324,5.375,5.375,0,0,0,.864.084q.768,0,1.536.012t1.536-.012q1.272-.072,2.268-.144t2.268-.216q1.272-.144,2.232-.276t1.788-.324q.828-.192,1.668-.456a9.107,9.107,0,0,1,1.944.252,6.613,6.613,0,0,1,1.56.564,3.223,3.223,0,0,1,.684.528A1.009,1.009,0,0,1,181.008-8.784ZM202.7-4.92a1.68,1.68,0,0,1-.444,1.164,1.466,1.466,0,0,1-1.14.492,1.283,1.283,0,0,1-.888-.348,5.2,5.2,0,0,1-.672-.732q-.48-.648-1-1.284a8.71,8.71,0,0,0-1.14-1.164A19.754,19.754,0,0,1,194.46-3.54a15.038,15.038,0,0,1-3.336,2.172A24.168,24.168,0,0,1,186.984.12q-.12.024-.276.048a1.84,1.84,0,0,1-.276.024A1.546,1.546,0,0,1,186.24.18a.1.1,0,0,1-.1-.108q0-.1.144-.168l.192-.1a15.5,15.5,0,0,0,2.112-1.2,18,18,0,0,0,1.92-1.488q.768-.7,1.7-1.716t1.764-2.112a11.663,11.663,0,0,0,1.26-2q-.96-.72-2-1.356t-2.1-1.212q-.408-.216-.816-.456t-.816-.432l-.192-.1q-.1-.048-.216-.1a.6.6,0,0,0-.108-.072q-.084-.048-.084-.1,0-.1.192-.1h.216a10.428,10.428,0,0,1,1.668.156q.948.156,1.944.408t1.908.576a14.2,14.2,0,0,1,1.584.66q.24-.576.528-1.44t.5-1.74a6.3,6.3,0,0,0,.216-1.452,1.344,1.344,0,0,0-.348-.936,1.989,1.989,0,0,0-.828-.552,4.543,4.543,0,0,1,.912-.564,2.386,2.386,0,0,1,1.032-.252,2.575,2.575,0,0,1,1.368.456,4.667,4.667,0,0,1,1.224,1.116,2.185,2.185,0,0,1,.5,1.332.659.659,0,0,1-.2.456,2.059,2.059,0,0,1-.4.336q-.384,1.2-.8,2.4a18.687,18.687,0,0,1-1,2.328,5.109,5.109,0,0,1,1.068.672,11.514,11.514,0,0,1,.948.84,6.783,6.783,0,0,1,1.128,1.272A2.882,2.882,0,0,1,202.7-4.92Zm27.864-9q-.168.36-.36.828t-.36.8a28.327,28.327,0,0,1-1.62,2.868,19.331,19.331,0,0,1-2.364,2.892,20.541,20.541,0,0,1-1.884,1.692,25.1,25.1,0,0,1-2.352,1.668,25.575,25.575,0,0,1-2.592,1.428,16.12,16.12,0,0,1-2.628,1,1.445,1.445,0,0,1-.84-.1,9.949,9.949,0,0,1-1-.612,3.3,3.3,0,0,1-.9-.924q-.1-.168-.252-.432a1.415,1.415,0,0,1-.156-.72,4.113,4.113,0,0,1,.108-1.08,2.421,2.421,0,0,1,.516-1.056q.12.216.312.54a2.361,2.361,0,0,0,.48.576.989.989,0,0,0,.672.252A6.837,6.837,0,0,0,217.4-4.68a21.281,21.281,0,0,0,2.448-.972q1.26-.588,2.352-1.236a19.362,19.362,0,0,0,1.788-1.176q.96-.744,1.812-1.428t1.62-1.428l.864-.816a8.954,8.954,0,0,0,.816-.888q.192-.264.54-.7t.564-.7q.048-.072.1-.132a.63.63,0,0,0,.072-.108.23.23,0,0,1,.168-.072q.1,0,.084.144A.911.911,0,0,1,230.568-13.92Zm-10.608.744a2.351,2.351,0,0,1-.624,1.6,1.993,1.993,0,0,1-1.56.708,1.179,1.179,0,0,1-1-.42,2.429,2.429,0,0,1-.444-.9,4.809,4.809,0,0,0-.564-1.236,5.152,5.152,0,0,0-.984-1.152,3.2,3.2,0,0,0-1.356-.708q-.24-.072-.264-.168,0-.048.18-.132a3.086,3.086,0,0,1,.324-.132,5.1,5.1,0,0,1,1-.192,9.422,9.422,0,0,1,1-.072,8.42,8.42,0,0,1,1.356.12,5.686,5.686,0,0,1,1.4.42,2.852,2.852,0,0,1,1.1.852A2.229,2.229,0,0,1,219.96-13.176Z" transform="translate(-0.6 20.808)" fill="#e7b81e"/></svg>