<svg xmlns="http://www.w3.org/2000/svg" width="408.872" height="33.228" viewBox="0 0 408.872 33.228"><path d="M7.488-5Q7.236-5,7-5.022T6.516-5.04a7.18,7.18,0,0,0-.774.072,5.953,5.953,0,0,0-1.062.234q-.5.162-.5.486,0,.144.378.234a2.719,2.719,0,0,0,.522.09,2.358,2.358,0,0,0,1.3-.324Q6.876-4.572,7.488-5ZM23.328-5.8a5.162,5.162,0,0,1-.882,3.2,4.556,4.556,0,0,1-2.358,1.6,11.339,11.339,0,0,1-3.312.45,2.547,2.547,0,0,1-1.008-.234.821.821,0,0,1-.54-.81v-.324a1.057,1.057,0,0,0-.468-.81q-.468-.378-.792-.594a6.421,6.421,0,0,0-1.422-.738,9.074,9.074,0,0,0-1.566-.414q-.612.792-1.188,1.566a8.206,8.206,0,0,0-.972,1.71,1.232,1.232,0,0,1-.09.252A2.012,2.012,0,0,1,8.6-.72a1.814,1.814,0,0,1-.81.7,2.441,2.441,0,0,1-1.062.27,5.844,5.844,0,0,1-2.2-.45,5.017,5.017,0,0,1-1.89-1.314A3.02,3.02,0,0,1,1.872-3.6a2.105,2.105,0,0,1,.27-.954,2.091,2.091,0,0,1,.63-.774,3.31,3.31,0,0,1,1.458-.54,10.516,10.516,0,0,1,1.6-.144q.612,0,1.26.054t1.3.126q1.044-.72,2.088-1.368T12.6-8.46q.5-.288,1.08-.684A4.505,4.505,0,0,1,14.8-9.72l.072.108a5.74,5.74,0,0,1-.414.576q-.234.288-.45.576-.576.756-1.188,1.494A13.207,13.207,0,0,0,11.7-5.4q1.08.144,2.178.36a11.443,11.443,0,0,0,2.214.216,2.409,2.409,0,0,0,1.53-.4A1.83,1.83,0,0,0,18.108-6.7a3.831,3.831,0,0,0-.5-2,6,6,0,0,0-1.26-1.494q-.756-.648-1.53-1.278a6.494,6.494,0,0,1-1.278-1.368,3.02,3.02,0,0,1-.5-1.746,3.7,3.7,0,0,1,.72-2.2,10.354,10.354,0,0,1,1.71-1.854q.99-.846,1.782-1.53a6.239,6.239,0,0,1-2.52-1.98,4.9,4.9,0,0,1-.972-3.024,5.052,5.052,0,0,1,.072-.684,4.14,4.14,0,0,1,.234-.882q.162-.414.45-.414a3.22,3.22,0,0,0,1.62,2.034,5.138,5.138,0,0,0,2.52.7,2.516,2.516,0,0,0,.612-.072,2.367,2.367,0,0,1,.576-.072,3.766,3.766,0,0,1,2.466.81,2.828,2.828,0,0,1,.99,2.322,1.384,1.384,0,0,1-.756,1.332,4.684,4.684,0,0,1-1.548.5,8.081,8.081,0,0,0-1.656.4,10.39,10.39,0,0,0-1.908.864A6.571,6.571,0,0,0,15.858-17.1a2.184,2.184,0,0,0-.63,1.512.867.867,0,0,0,.234.612,3.22,3.22,0,0,0,.486.432q1.224.864,2.43,1.674A18.5,18.5,0,0,1,20.7-11.016a7.667,7.667,0,0,1,1.242,1.458,9.971,9.971,0,0,1,.99,1.872A5.088,5.088,0,0,1,23.328-5.8Zm10.116-1.08a3.478,3.478,0,0,1-.918,2.394A2.981,2.981,0,0,1,30.2-3.456a1.92,1.92,0,0,1-1.224-.4,1.644,1.644,0,0,1-.612-1.08,13.084,13.084,0,0,1-.2-1.494,8.583,8.583,0,0,0-.234-1.458,7.853,7.853,0,0,0-.828-2.178A4.784,4.784,0,0,0,25.6-11.718a3.967,3.967,0,0,0-2.268-.63,4.367,4.367,0,0,0-.54.036,4.639,4.639,0,0,1-.576.036l-.036-.288a7,7,0,0,1,2.088-.846,9.77,9.77,0,0,1,2.232-.27,6.3,6.3,0,0,1,3.348.972,8.124,8.124,0,0,1,2.592,2.52A5.961,5.961,0,0,1,33.444-6.876Zm-4.1-16.056q0,1.62-1.548,1.62a1.17,1.17,0,0,1-.846-.378,2.153,2.153,0,0,1-.522-.774,6.325,6.325,0,0,0-.342-.774q-.2-.378-.414-.738a4.149,4.149,0,0,0-.666-.9,2.928,2.928,0,0,0-.882-.648.621.621,0,0,0-.18-.09q-.072-.018-.072-.162,0-.108.144-.144a1.082,1.082,0,0,1,.18-.036,9.8,9.8,0,0,1,1.314.09,5.7,5.7,0,0,1,1.242.306,5.111,5.111,0,0,1,1.71.972A2.1,2.1,0,0,1,29.34-22.932Zm4.068-2.088a1.34,1.34,0,0,1-.45,1.08,1.543,1.543,0,0,1-1.1.468,1.366,1.366,0,0,1-.756-.234,1.592,1.592,0,0,1-.54-.558,7.957,7.957,0,0,0-1.692-2.124,6.217,6.217,0,0,0-.81-.612q-.45-.288-.918-.54-.108-.072-.108-.144,0-.108.378-.162t.774-.072q.4-.018.5-.018a10.048,10.048,0,0,1,2,.216,4.708,4.708,0,0,1,1.872.81,2.117,2.117,0,0,1,.846,1.746Zm33.8,15.552A7.544,7.544,0,0,1,65.88-4.86a9.685,9.685,0,0,1-3.816,2.952A19.614,19.614,0,0,1,57.24-.4q-2.7.5-5.04.72-.432.036-.882.054T50.4.4a1.79,1.79,0,0,1-.306-.054q-.234-.054-.234-.2,0-.216.324-.27t.468-.09a34.224,34.224,0,0,0,4.122-.954,17.492,17.492,0,0,0,4-1.728,9.247,9.247,0,0,0,3.006-2.808,7.2,7.2,0,0,0,1.152-4.122,4.051,4.051,0,0,0-1.494-3.42A5.748,5.748,0,0,0,57.816-14.4a6.836,6.836,0,0,0-2.376.468,15.391,15.391,0,0,0-2.5,1.206,17.946,17.946,0,0,0-2.3,1.62A15.39,15.39,0,0,0,48.852-9.4a4.541,4.541,0,0,1-.81.7,1.843,1.843,0,0,1-1.062.306,3.869,3.869,0,0,1-2.016-.558,4.613,4.613,0,0,1-1.53-1.476,3.666,3.666,0,0,1-.594-2.034v-.234a.736.736,0,0,1,.036-.234,3.313,3.313,0,0,0,1.242.5,7.768,7.768,0,0,0,1.314.108,4.188,4.188,0,0,0,1.206-.234q.738-.234,1.494-.54t1.188-.486A37.751,37.751,0,0,1,53.766-15.5a14.267,14.267,0,0,1,4.806-.774,12.9,12.9,0,0,1,4.14.666,7.1,7.1,0,0,1,3.24,2.16A5.966,5.966,0,0,1,67.212-9.468ZM93.42-22.86q0-.18-.414-.414t-.882-.45q-.468-.216-.648-.288a10.653,10.653,0,0,0-.432,1.278q-.18.666-.288,1.314.18-.072.828-.342a13.168,13.168,0,0,0,1.242-.594Q93.42-22.68,93.42-22.86ZM106.092-7.992a7.4,7.4,0,0,1-.936,3.8,8.9,8.9,0,0,1-2.5,2.736A13.955,13.955,0,0,1,99.108.378a28.88,28.88,0,0,1-4.086,1.116A36.549,36.549,0,0,1,90.9,2.07q-2.016.162-3.636.2h-.288q-.252,0-.7-.018t-.45-.378q0-.252.306-.342t.45-.126q1.044-.18,2.124-.288a15.7,15.7,0,0,0,2.124-.36,29.21,29.21,0,0,0,3.42-1.134A15.425,15.425,0,0,0,97.524-2.16a8.973,8.973,0,0,0,2.448-2.592,6.5,6.5,0,0,0,.936-3.492,4.778,4.778,0,0,0-.774-2.844,3.078,3.078,0,0,0-2.682-1.08,5.435,5.435,0,0,0-1.08.126,5.759,5.759,0,0,0-1.044.306,6.046,6.046,0,0,0-3.06,2.574,13.839,13.839,0,0,0-1.4,3.8v.144a1.292,1.292,0,0,1-.576,1.026,1.831,1.831,0,0,1-1.116.45,3.141,3.141,0,0,1-1.926-.63,4.279,4.279,0,0,1-1.314-1.6,4.52,4.52,0,0,1-.468-1.98,6.508,6.508,0,0,1,.18-1.512q.18-.756.324-1.476.288-1.548.612-3.1t.612-3.1H86.4a5.156,5.156,0,0,1-3.2-1.008A8.119,8.119,0,0,1,81-20.7q-.072-.18-.216-.486a1.238,1.238,0,0,1-.144-.486q0-.4.252-.4a.6.6,0,0,1,.45.216q.2.216.342.4a2.664,2.664,0,0,0,1.35.882,7.344,7.344,0,0,0,1.638.162q.792,0,1.53-.072t1.53-.216q.144-1.008.27-2.052a17.117,17.117,0,0,0,.126-2.052,3.339,3.339,0,0,0-.09-.864q-.09-.324-.666-.5a2.812,2.812,0,0,0-.63-.126q-.45-.054-.45-.306a.479.479,0,0,1,.054-.216,1.648,1.648,0,0,0,.09-.216,3.36,3.36,0,0,1,1.3-1.3,3.623,3.623,0,0,1,1.764-.432,3.337,3.337,0,0,1,1.242.288,4.011,4.011,0,0,1,1.224.774,1.469,1.469,0,0,1,.522,1.1,2.454,2.454,0,0,1-.216.918q-.216.522-.4.882a4.071,4.071,0,0,0,1.692.486q1.008.09,1.764.09a1.945,1.945,0,0,0,.576-.144,2.211,2.211,0,0,1,.756-.144,1.952,1.952,0,0,1,1.512.63,2.186,2.186,0,0,1,.576,1.53,2.255,2.255,0,0,1-.684,1.584A6.555,6.555,0,0,1,96.3-19.494a18.232,18.232,0,0,1-2.3.99q-1.224.432-2.322.7t-1.782.378q-.216,1.584-.306,3.222t-.09,3.258a4.408,4.408,0,0,0,.072.684q.072.432.432.432,1.332-1.08,2.7-2.052a13.738,13.738,0,0,1,2.916-1.584,9.024,9.024,0,0,1,3.348-.612,9.413,9.413,0,0,1,3.528.648,5.861,5.861,0,0,1,2.61,2A5.663,5.663,0,0,1,106.092-7.992Zm29.664-11.2a.583.583,0,0,0-.108-.36,3.268,3.268,0,0,0-.54-.36q-.432-.252-.882-.522t-.666-.378l-1.008.468q.4.576.81,1.152t.846,1.152q.18-.108.54-.306a5.172,5.172,0,0,0,.684-.45Q135.756-19.044,135.756-19.188ZM141.768-7.74a3.777,3.777,0,0,1-.63,2.16,2.235,2.235,0,0,1-2,.936,2.591,2.591,0,0,1-1.206-.288,6.662,6.662,0,0,1-1.062-.684,13.492,13.492,0,0,0-3.294-2.232,8.757,8.757,0,0,0-3.87-.9,7.916,7.916,0,0,0-1.98.27,4.135,4.135,0,0,0-1.764.918,2.343,2.343,0,0,0-.72,1.836,1.9,1.9,0,0,0,.5,1.4,3,3,0,0,0,1.278.738,7.118,7.118,0,0,0,1.6.288q.828.054,1.476.054a12.78,12.78,0,0,0,1.512-.09,12.484,12.484,0,0,1,1.476-.09,3.744,3.744,0,0,1,1.692.414,3.594,3.594,0,0,1,1.35,1.152,2.828,2.828,0,0,1,.522,1.674,1.568,1.568,0,0,1-.792,1.422,4.9,4.9,0,0,1-1.818.648,11.477,11.477,0,0,1-1.746.162,13.665,13.665,0,0,1-3.456-.45A18.486,18.486,0,0,1,125.532.4a7.062,7.062,0,0,1-2.646-2.214,5.518,5.518,0,0,1-.99-3.294,3.606,3.606,0,0,1,.738-2.3,5.681,5.681,0,0,1,1.89-1.53,9.577,9.577,0,0,1,2.448-.864,11.871,11.871,0,0,1,2.412-.27,19.63,19.63,0,0,1,3.042.234q1.494.234,2.97.594a.285.285,0,0,0,.18.036.532.532,0,0,0,.414-.18.623.623,0,0,0,.162-.432.8.8,0,0,0-.036-.252q-.036-.108-.072-.252a12.094,12.094,0,0,0-.594-1.908A8,8,0,0,0,134.46-14q-1.584.5-3.222.936a13,13,0,0,1-3.33.432,9.934,9.934,0,0,1-4.77-1.188,10.613,10.613,0,0,1-3.69-3.276q-.072-.144-.144-.324a.884.884,0,0,1-.072-.324q0-.4.288-.4a.55.55,0,0,1,.4.18l.324.324a6.546,6.546,0,0,0,2.448,1.548,8.362,8.362,0,0,0,2.844.5,15.673,15.673,0,0,0,3.546-.45,16.734,16.734,0,0,0,3.366-1.134q-.36-.612-.774-1.224t-.81-1.224a7.432,7.432,0,0,1-1.584.324q-.792.072-1.62.072h-.576a5.4,5.4,0,0,1-2.808-.846,6.974,6.974,0,0,1-2.2-2,2.077,2.077,0,0,0-.144-.306.717.717,0,0,1-.108-.306.678.678,0,0,1,.054-.27.2.2,0,0,1,.2-.126,3.857,3.857,0,0,0,1.422.558,7.413,7.413,0,0,0,1.494.2q.9,0,1.8-.09a5.169,5.169,0,0,0,1.728-.486q-.54-.864-1.17-1.71a7.04,7.04,0,0,0-1.422-1.44,4,4,0,0,0-1.944-.738,1.106,1.106,0,0,1,.558-.972,3.654,3.654,0,0,1,1.278-.5,6.293,6.293,0,0,1,1.188-.144,5.812,5.812,0,0,1,1.692.288,4.385,4.385,0,0,1,1.6.864,1.9,1.9,0,0,1,.666,1.512,1.032,1.032,0,0,1-.108.468,1.916,1.916,0,0,0,.126.468q.09.216.2.432h.828a4.571,4.571,0,0,1,1.242.216,3.868,3.868,0,0,1,1.3.648,1.316,1.316,0,0,1,.558,1.08,1.242,1.242,0,0,1-.648,1.116,11.377,11.377,0,0,0,1.368.558,4.828,4.828,0,0,0,1.476.2,3.734,3.734,0,0,0,.72-.234,3.317,3.317,0,0,1,1.188-.234,2.557,2.557,0,0,1,1.728.558,2.089,2.089,0,0,1,.648,1.674,1.97,1.97,0,0,1-.522,1.3,5.962,5.962,0,0,1-1.3,1.116,13.629,13.629,0,0,1-1.566.882q-.792.378-1.332.594.612.576,1.44,1.44t1.62,1.854a12.163,12.163,0,0,1,1.314,2A4.106,4.106,0,0,1,141.768-7.74Zm.216-16.416q0,1.62-1.512,1.62a1.325,1.325,0,0,1-.882-.36,1.575,1.575,0,0,1-.522-.756,7.119,7.119,0,0,0-.324-.81,5.142,5.142,0,0,0-.432-.738,4.269,4.269,0,0,0-1.584-1.548.7.7,0,0,0-.126-.09.152.152,0,0,1-.09-.126.147.147,0,0,1,.144-.162,1.909,1.909,0,0,1,.216-.018,9.012,9.012,0,0,1,2.484.36,4.3,4.3,0,0,1,2.088,1.3A1.889,1.889,0,0,1,141.984-24.156Zm4.176-2.16a1.574,1.574,0,0,1-.45,1.1,1.44,1.44,0,0,1-1.1.486,1.325,1.325,0,0,1-1.26-.756,7.331,7.331,0,0,0-.756-1.152,7.2,7.2,0,0,0-.936-.972,8.968,8.968,0,0,0-.846-.612q-.45-.288-.882-.54-.108-.072-.108-.144,0-.144.36-.18t.738-.054q.378-.018.486-.018a11.218,11.218,0,0,1,2.016.2,4.388,4.388,0,0,1,1.872.792,2.136,2.136,0,0,1,.828,1.746Zm32.364,12.2a17.036,17.036,0,0,1-1.278,6.966,12.623,12.623,0,0,1-3.582,4.734,17.741,17.741,0,0,1-5.4,2.952,36.855,36.855,0,0,1-6.732,1.62,2.023,2.023,0,0,1-.4.036h-.4q-.468,0-.468-.36,0-.252.486-.414t.63-.2q1.3-.4,2.538-.81a20.224,20.224,0,0,0,2.43-.99,11.889,11.889,0,0,0,4.536-3.762,12.775,12.775,0,0,0,2.016-4.95,31.968,31.968,0,0,0,.5-5.8q0-.4-.018-1.242t-.108-1.854A15.794,15.794,0,0,0,173-20.106a4.627,4.627,0,0,0-.576-1.512,1.135,1.135,0,0,0-.99-.594,1.6,1.6,0,0,0-1.3.7,10.933,10.933,0,0,0-.864,1.278,13.336,13.336,0,0,0-1.242,3.4,16.424,16.424,0,0,0-.414,3.582q0,.828.072,1.656t.216,1.656a3.579,3.579,0,0,1,.054.378q.018.2.018.378a2.183,2.183,0,0,1-.378,1.314,1.429,1.429,0,0,1-1.242.522,3.268,3.268,0,0,1-2.07-.72,6.2,6.2,0,0,1-1.548-1.818,10.12,10.12,0,0,1-.972-2.322,8.256,8.256,0,0,1-.342-2.2,27.018,27.018,0,0,1,.414-4.716q.414-2.34.63-4.644.036-.324.054-.63t.018-.594a3.294,3.294,0,0,0-.288-1.386,1.917,1.917,0,0,0-1.008-.954,1.328,1.328,0,0,1-.234-.144.306.306,0,0,1-.09-.252.344.344,0,0,1,.378-.378q.378-.018.63-.018a8.012,8.012,0,0,1,2.358.4,5.785,5.785,0,0,1,2.2,1.224,2.731,2.731,0,0,1,.918,2.124,4.137,4.137,0,0,1-.18,1.206,8.523,8.523,0,0,1-.432,1.134q-.756,1.764-1.35,3.546a11.7,11.7,0,0,0-.594,3.726q0,.216.018.756a4.076,4.076,0,0,0,.162,1.026q.144.486.468.486.216,0,.27-.45t.09-.594a25.278,25.278,0,0,1,.63-2.7,24.007,24.007,0,0,1,1.008-2.826,13.96,13.96,0,0,1,1.314-2.43,6.306,6.306,0,0,1,1.71-1.8,4.108,4.108,0,0,1,2.394-.684,4.042,4.042,0,0,1,2.16.648,5.4,5.4,0,0,1,2.214,2.466,12.091,12.091,0,0,1,.99,3.4A24.245,24.245,0,0,1,178.524-14.112Zm26.46,3.06a.378.378,0,0,1-.054.2.836.836,0,0,1-.126.162,10.376,10.376,0,0,1-1.1,1.08q-.594.5-1.242.972a20.355,20.355,0,0,1-4.482,2.52,31.6,31.6,0,0,1-4.95,1.548,8.6,8.6,0,0,1-1.08.216,8.439,8.439,0,0,1-1.116.072.477.477,0,0,1-.234-.072.234.234,0,0,1-.126-.216q0-.18.4-.36.288-.144.7-.324t.558-.252A27.6,27.6,0,0,0,197.3-8.73a20.362,20.362,0,0,0,4.158-4.446q.612.324,1.242.7t1.242.7l.432.216q.216.108.468.252Q204.984-11.268,204.984-11.052Zm10.044-9.18a1.7,1.7,0,0,1-.684,1.512,2.862,2.862,0,0,1-1.656.468h-5.976l.4.2a2.653,2.653,0,0,1,.4.234.513.513,0,0,1,.324.432q0,.288-.522.612t-.7.468q-.432.252-.864.522t-.864.558a8.621,8.621,0,0,1,3.348,3.024,14.912,14.912,0,0,1,1.926,4.32,17.42,17.42,0,0,1,.63,4.536,11.361,11.361,0,0,1-.45,3.222,4.952,4.952,0,0,1-1.566,2.466,4.676,4.676,0,0,1-3.1.936,3.992,3.992,0,0,1-1.062-.18,10.556,10.556,0,0,1-1.224-.432q-.594-.252-.99-.432l-.936-.54A9.646,9.646,0,0,1,200.178.81q-.594-.486-.594-.774,0-.072.144-.108a1.082,1.082,0,0,1,.18-.036h.144q.864.18,1.674.414a6.132,6.132,0,0,0,1.71.234,2.264,2.264,0,0,0,1.674-.594,3.34,3.34,0,0,0,.846-1.512,9,9,0,0,0,.306-1.89q.054-.972.054-1.764a39.746,39.746,0,0,1-4.77,3.276A26.822,26.822,0,0,1,196.182.468a18.475,18.475,0,0,1-5.706.9.755.755,0,0,1-.306-.072.255.255,0,0,1-.162-.252.292.292,0,0,1,.252-.288q.828-.324,1.638-.63t1.6-.666a32.266,32.266,0,0,0,6.048-3.672,18.9,18.9,0,0,0,4.68-5.256l2.016.756a10.018,10.018,0,0,0-.54-2.016,9.955,9.955,0,0,0-1.152-2,6.92,6.92,0,0,0-1.62-1.566,22.571,22.571,0,0,1-4.59,2.124,15.572,15.572,0,0,1-4.986.828h-.468q-.288,0-.288-.252a.346.346,0,0,1,.216-.324q1.044-.5,2.07-1.026t2.034-1.1q1.368-.828,2.808-1.908a14.129,14.129,0,0,0,2.448-2.3H197.6v-1.584h13.212a1.663,1.663,0,0,0-.018-.234,1.66,1.66,0,0,1-.018-.234,1.59,1.59,0,0,1,.666-1.332,2.315,2.315,0,0,1,1.422-.5,2.473,2.473,0,0,1,1.494.486A1.65,1.65,0,0,1,215.028-20.232ZM224.5-1.548a1.432,1.432,0,0,1-.7,1.386,3.25,3.25,0,0,1-1.566.378,5.669,5.669,0,0,1-1.566-.306,12.6,12.6,0,0,1-1.53-.558A17.209,17.209,0,0,1,215.01-3.51a24.364,24.364,0,0,1-3.258-3.762,19.323,19.323,0,0,1-1.584-2.736l-1.368-2.88q2.3-1.008,4.608-2a32.391,32.391,0,0,0,4.428-2.322q.252.216.792.63t1.134.936a13.362,13.362,0,0,1,1.008.972,1.256,1.256,0,0,1,.414.738.485.485,0,0,1-.306.468,3.748,3.748,0,0,1-.558.216,7.166,7.166,0,0,1-1.08.216q-.576.072-1.116.144l-2.232.36q-1.116.18-2.268.288a29.406,29.406,0,0,0,2.79,5.652,19,19,0,0,0,4.158,4.716,2.253,2.253,0,0,1,.81-1.044,2.1,2.1,0,0,1,1.242-.4,1.881,1.881,0,0,1,1.3.522A1.622,1.622,0,0,1,224.5-1.548ZM222.84-24.48a4.346,4.346,0,0,1-.576,1.818,14.141,14.141,0,0,1-1.458,2.268,12.307,12.307,0,0,1-1.836,1.926,2.8,2.8,0,0,1-1.674.792q-.576,0-.54-.5v-.072q0-.072.108-.936t.27-2q.162-1.134.234-1.926H196.524v5.436h-4.248V-24.8h12.672q-.324-1.26-.63-2.556t-.594-2.592l5.076.072a2.078,2.078,0,0,1,.792.18.625.625,0,0,1,.432.612,3.663,3.663,0,0,1-.378,1.26q-.378.864-.828,1.728t-.7,1.3h14.436Q222.84-24.8,222.84-24.48ZM241.2-6.732a.73.73,0,0,1-.144.4,21.03,21.03,0,0,1-2.5,2.844,22.638,22.638,0,0,1-3.2,2.574A16.426,16.426,0,0,1,231.984.828q-.4.144-1.188.4a4.362,4.362,0,0,1-1.188.252.58.58,0,0,1-.252-.072.231.231,0,0,1-.144-.216.488.488,0,0,1,.144-.36l.288-.288a30.316,30.316,0,0,0,3.942-4.3,33.169,33.169,0,0,0,3.078-4.95q1.044.4,2.142.756a19.2,19.2,0,0,1,2.106.828A.4.4,0,0,1,241.2-6.732ZM261.648,0a1.213,1.213,0,0,1-.576,1.044,2.023,2.023,0,0,1-1.152.4,7.269,7.269,0,0,1-3.078-.792,19.422,19.422,0,0,1-3.312-2.016,24,24,0,0,1-2.952-2.592,15.987,15.987,0,0,1-2.034-2.52,1.32,1.32,0,0,0-.108-.234.535.535,0,0,1-.072-.27q0-.216.324-.36.972-.4,2-.7a13.479,13.479,0,0,0,2-.774q1.152,2.2,2.466,4.446A16.251,16.251,0,0,0,258.3-.468a2.313,2.313,0,0,1,.594-.9,1.382,1.382,0,0,1,.99-.4,1.751,1.751,0,0,1,1.3.468A1.751,1.751,0,0,1,261.648,0Zm-.288-10.116a1.4,1.4,0,0,1-.576,1.188,2.106,2.106,0,0,1-1.3.432,5.348,5.348,0,0,1-3.222-1.062,22.294,22.294,0,0,1-2.646-2.25,13.363,13.363,0,0,1-3.24.864q-1.764.252-3.348.468V2.772h-4.5v-12.96q-2.952.288-5.868.612t-5.868.432L229.752-12.6q2.16,0,4.3-.018t4.3-.054q1.44-1.188,2.754-2.484t2.61-2.592q-3.492.108-7.02.108-.288,0-.774-.036t-.486-.468a1.13,1.13,0,0,1,.018-.18.639.639,0,0,1,.054-.18.893.893,0,0,1,.216-.27q.144-.126.288-.234,1.188-1.152,2.376-2.268a30.4,30.4,0,0,0,2.268-2.376q-2.2.18-4.392.234t-4.428.054h-.846a5.63,5.63,0,0,1-1.206-.126q-.576-.126-.576-.414a.28.28,0,0,1,.18-.288,2.554,2.554,0,0,1,.324-.108,20.75,20.75,0,0,1,2.106-.324q1.062-.108,2.106-.252,4.5-.72,8.964-1.872a49.008,49.008,0,0,0,8.6-3.1q.216.144.882.648t1.44,1.08q.774.576,1.332,1.062t.558.666a.386.386,0,0,1-.18.36,2.518,2.518,0,0,1-.36.18,9.617,9.617,0,0,1-1.656.468q-1.044.216-2.25.4t-2.3.324q-1.1.144-1.854.252a3.487,3.487,0,0,1,.63.2q.414.162.414.45,0,.216-.63.63t-1.6.954q-.972.54-2,1.044t-1.836.882q-.81.378-1.1.522,1.872.144,3.744.2t3.744.126q.72,0,1.656-.036a5.571,5.571,0,0,1,1.62.144.784.784,0,0,1,.306.126.35.35,0,0,1,.126.306.488.488,0,0,1-.144.36,9.916,9.916,0,0,1-1.062.774q-.882.594-2.124,1.35t-2.538,1.53l-2.322,1.386q-1.026.612-1.422.864,2.448-.072,4.932-.18t4.932-.324a10.612,10.612,0,0,1-.954-1.1q-.45-.594-.882-1.17l4.392-1.98q.4.864.936,2.106t1.17,2.412a9.694,9.694,0,0,0,1.242,1.854,1.473,1.473,0,0,1,.666-.576,2.1,2.1,0,0,1,.846-.18,1.363,1.363,0,0,1,1.062.522A1.662,1.662,0,0,1,261.36-10.116Zm33.264-5.9a1.108,1.108,0,0,1-.216.684,3.572,3.572,0,0,1-.9.72,19.074,19.074,0,0,1-1.3,3.348A29.84,29.84,0,0,1,290.286-7.9a23.166,23.166,0,0,1-2.106,2.754,19.322,19.322,0,0,1-2.79,2.484,19.217,19.217,0,0,1-3.474,2.016,24.431,24.431,0,0,1-4.3,1.422,30.7,30.7,0,0,1-4.554.7q-.612.036-1.224.054t-.972.018q-.144,0-.4.018t-.288-.27a.223.223,0,0,1,.162-.234q.162-.054.306-.09a15.893,15.893,0,0,0,1.872-.36,20.74,20.74,0,0,0,4.23-1.6,22.293,22.293,0,0,0,3.96-2.556A19.67,19.67,0,0,0,283.932-6.8a25.56,25.56,0,0,0,1.926-2.88,20.729,20.729,0,0,0,1.512-3.186,8.356,8.356,0,0,0,.594-2.862q-.036-.576-.756-.576-.18,0-.414.018a3.5,3.5,0,0,0-.414.054q-1.3.216-2.808.5t-3.042.63q-1.53.342-2.826.666t-2.124.612q-.252.144-.486.27a1.245,1.245,0,0,1-.594.126,3.4,3.4,0,0,1-1.08-.18,4.268,4.268,0,0,1-2-1.314,3.744,3.744,0,0,1-.846-2.286,2.68,2.68,0,0,1,.018-.684,1.886,1.886,0,0,1,.414-.864,2.888,2.888,0,0,0,1.17.774,8.138,8.138,0,0,0,1.6.45,8.166,8.166,0,0,0,1.332.144q.9,0,2.43-.108t3.2-.252q1.674-.144,3.06-.306t2.034-.27a10.526,10.526,0,0,0,1.242-.342,8.5,8.5,0,0,0,.99-.378,8.031,8.031,0,0,1,.774-.324,3.968,3.968,0,0,1,.738-.216,3.645,3.645,0,0,1,1.278.234,6.245,6.245,0,0,1,1.1.522q.5.324,1.134.792a7.181,7.181,0,0,1,1.08.972A1.559,1.559,0,0,1,294.624-16.02Zm-4.68-7.74a.974.974,0,0,1-.576.936,5.519,5.519,0,0,1-.972.4q-1.044.252-2.448.468t-2.826.36q-1.422.144-2.538.144a11.3,11.3,0,0,1-2.43-.216,4.132,4.132,0,0,1-1.71-.828,10.449,10.449,0,0,1-1.656-1.8q-.144-.18-.36-.432a.721.721,0,0,1-.216-.4q0-.432.36-.432a.83.83,0,0,1,.45.2,1.834,1.834,0,0,0,.486.27q.612.144,1.116.27a4.239,4.239,0,0,0,1.224.09,29.724,29.724,0,0,0,3.168-.4,21.6,21.6,0,0,0,3.708-.972q.4-.144.792-.27a2.6,2.6,0,0,1,.792-.126,5.412,5.412,0,0,1,1.044.162,4.018,4.018,0,0,1,.972.306,3.415,3.415,0,0,1,1.08.864A2.061,2.061,0,0,1,289.944-23.76Zm46.368,10.584a1.607,1.607,0,0,1-.738,1.4,3.529,3.529,0,0,1-1.782.576h-3.006q-1.17,0-2.142-.036-.468,0-.882-.018t-.846-.018q-3.168,0-5.688.09t-5.256.2q-.5.036-1.548.126t-2.232.216q-1.188.126-2.16.216a12.821,12.821,0,0,0-1.3.162,5.127,5.127,0,0,1-2.988-.846,2.917,2.917,0,0,1-1.224-2.574,3.3,3.3,0,0,1,.306-1.26,1.372,1.372,0,0,1,.774-.864,3.046,3.046,0,0,0,1.17,1.08,4.969,4.969,0,0,0,1.458.486,8.063,8.063,0,0,0,1.3.126q1.152,0,2.3.018t2.3-.018q1.908-.108,3.4-.216t3.4-.324q1.908-.216,3.348-.414t2.682-.486q1.242-.288,2.5-.684a13.66,13.66,0,0,1,2.916.378,9.919,9.919,0,0,1,2.34.846,4.834,4.834,0,0,1,1.026.792A1.513,1.513,0,0,1,336.312-13.176Zm32.544,5.8a2.52,2.52,0,0,1-.666,1.746,2.2,2.2,0,0,1-1.71.738,1.924,1.924,0,0,1-1.332-.522,7.8,7.8,0,0,1-1.008-1.1q-.72-.972-1.494-1.926a13.064,13.064,0,0,0-1.71-1.746A29.631,29.631,0,0,1,356.49-5.31a22.557,22.557,0,0,1-5,3.258A36.253,36.253,0,0,1,345.276.18q-.18.036-.414.072a2.759,2.759,0,0,1-.414.036A2.32,2.32,0,0,1,344.16.27a.147.147,0,0,1-.144-.162q0-.144.216-.252l.288-.144a23.247,23.247,0,0,0,3.168-1.8,27,27,0,0,0,2.88-2.232q1.152-1.044,2.556-2.574t2.646-3.168a17.493,17.493,0,0,0,1.89-3.006q-1.44-1.08-3.006-2.034T351.5-16.92q-.612-.324-1.224-.684t-1.224-.648l-.288-.144q-.144-.072-.324-.144a.894.894,0,0,0-.162-.108q-.126-.072-.126-.144,0-.144.288-.144h.324a15.642,15.642,0,0,1,2.5.234q1.422.234,2.916.612t2.862.864a21.294,21.294,0,0,1,2.376.99q.36-.864.792-2.16t.756-2.61a9.448,9.448,0,0,0,.324-2.178,2.016,2.016,0,0,0-.522-1.4,2.984,2.984,0,0,0-1.242-.828,6.814,6.814,0,0,1,1.368-.846,3.579,3.579,0,0,1,1.548-.378,3.862,3.862,0,0,1,2.052.684,7,7,0,0,1,1.836,1.674,3.277,3.277,0,0,1,.756,2,.988.988,0,0,1-.306.684,3.09,3.09,0,0,1-.594.5q-.576,1.8-1.206,3.6A28.03,28.03,0,0,1,363.492-14a7.663,7.663,0,0,1,1.6,1.008,17.268,17.268,0,0,1,1.422,1.26,10.175,10.175,0,0,1,1.692,1.908A4.323,4.323,0,0,1,368.856-7.38Zm41.8-13.5q-.252.54-.54,1.242t-.54,1.206a42.485,42.485,0,0,1-2.43,4.3A29,29,0,0,1,403.6-9.792a30.813,30.813,0,0,1-2.826,2.538,37.657,37.657,0,0,1-3.528,2.5,38.359,38.359,0,0,1-3.888,2.142,24.18,24.18,0,0,1-3.942,1.494,2.168,2.168,0,0,1-1.26-.144,14.922,14.922,0,0,1-1.494-.918,4.95,4.95,0,0,1-1.35-1.386q-.144-.252-.378-.648a2.122,2.122,0,0,1-.234-1.08,6.169,6.169,0,0,1,.162-1.62,3.631,3.631,0,0,1,.774-1.584q.18.324.468.81a3.54,3.54,0,0,0,.72.864,1.483,1.483,0,0,0,1.008.378,10.255,10.255,0,0,0,3.078-.576,31.924,31.924,0,0,0,3.672-1.458q1.89-.882,3.528-1.854a29.043,29.043,0,0,0,2.682-1.764q1.44-1.116,2.718-2.142t2.43-2.142q.684-.648,1.3-1.224a13.432,13.432,0,0,0,1.224-1.332q.288-.4.81-1.044t.846-1.044q.072-.108.144-.2a.945.945,0,0,0,.108-.162.345.345,0,0,1,.252-.108q.144,0,.126.216A1.366,1.366,0,0,1,410.652-20.88ZM394.74-19.764a3.526,3.526,0,0,1-.936,2.394,2.99,2.99,0,0,1-2.34,1.062,1.768,1.768,0,0,1-1.494-.63,3.644,3.644,0,0,1-.666-1.35,7.213,7.213,0,0,0-.846-1.854,7.728,7.728,0,0,0-1.476-1.728,4.806,4.806,0,0,0-2.034-1.062q-.36-.108-.4-.252,0-.072.27-.2a4.63,4.63,0,0,1,.486-.2,7.654,7.654,0,0,1,1.494-.288,14.133,14.133,0,0,1,1.494-.108,12.631,12.631,0,0,1,2.034.18,8.529,8.529,0,0,1,2.106.63,4.278,4.278,0,0,1,1.656,1.278A3.344,3.344,0,0,1,394.74-19.764Z" transform="translate(-1.872 29.952)" fill="#e7b81e"/></svg>