<svg xmlns="http://www.w3.org/2000/svg" width="297.684" height="85.192" viewBox="0 0 297.684 85.192"><path d="M35.136-1.188A1.634,1.634,0,0,1,34.812-.18a2.682,2.682,0,0,1-.828.72,13.575,13.575,0,0,1-3.132,1.35,26.553,26.553,0,0,1-3.726.846,23,23,0,0,1-3.438.288h-.072A26.209,26.209,0,0,1,16.7,2.16a18.459,18.459,0,0,1-6.228-3.168q-.5-.4-1.134-.972A12.61,12.61,0,0,1,8.28-3.06a8.326,8.326,0,0,0-.972-.882A1.806,1.806,0,0,0,6.3-4.428a.676.676,0,0,0-.4.126A1,1,0,0,0,5.616-4a1.278,1.278,0,0,1-.2.378,3.328,3.328,0,0,0-.234.378,10.345,10.345,0,0,1-.9,1.368A13.16,13.16,0,0,1,3.258-.63,14.524,14.524,0,0,1,1.8.774,2.243,2.243,0,0,1,.432,1.4.223.223,0,0,1,.18,1.152a1.206,1.206,0,0,1,.2-.378q.2-.306.414-.7a8.067,8.067,0,0,0,.432-.846q.18-.414.252-.594A24.735,24.735,0,0,0,3.1-6.822a57.034,57.034,0,0,0,.756-5.706l3.96.72Q7.6-10.26,7.218-8.514a23.942,23.942,0,0,1-.774,2.862,3.3,3.3,0,0,1,1.08.162A9.588,9.588,0,0,1,8.64-5V-15.7H2.3v-1.62H8.28v-4.968H3.708V-23.9H8.28v-5.9h4.032v5.9h.612a2.247,2.247,0,0,1,.5-1.08,1.34,1.34,0,0,1,1.08-.468,1.709,1.709,0,0,1,1.17.468,1.487,1.487,0,0,1,.522,1.152,1.435,1.435,0,0,1-.5,1.08,1.6,1.6,0,0,1-1.116.468H12.312v4.968h.972a1.516,1.516,0,0,1,.486-1.1,1.516,1.516,0,0,1,1.1-.486,1.574,1.574,0,0,1,1.1.45,1.4,1.4,0,0,1,.486,1.062q0,1.692-1.872,1.692H12.492v4.536h.54a2.1,2.1,0,0,1,.558-1.026,1.351,1.351,0,0,1,.99-.414,1.534,1.534,0,0,1,1.062.45,1.366,1.366,0,0,1,.486,1.026,1.576,1.576,0,0,1-.4,1.044,1.263,1.263,0,0,1-1.008.468H12.492V-2.88A34.508,34.508,0,0,0,20.16-.594a45.121,45.121,0,0,0,7.992.738q.972,0,1.944-.018A14.272,14.272,0,0,0,32-.036a1.377,1.377,0,0,1-.5-1.152,1.312,1.312,0,0,1,.648-1.1,2.174,2.174,0,0,1,1.224-.45,1.984,1.984,0,0,1,1.206.414A1.336,1.336,0,0,1,35.136-1.188Zm.612-4.356a1.442,1.442,0,0,1-.594,1.3,2.5,2.5,0,0,1-1.422.4,5.413,5.413,0,0,1-2.448-.594A10.785,10.785,0,0,1,29.07-5.922Q28.044-6.8,27.216-7.668A19.966,19.966,0,0,1,23.292-4.95a16.268,16.268,0,0,1-4.5,1.566,4.834,4.834,0,0,1-1.08.108.286.286,0,0,1-.324-.324q0-.18.792-.54.288-.18.594-.36t.414-.252a25.16,25.16,0,0,0,3.294-2.376,22.064,22.064,0,0,0,2.826-2.88,13.246,13.246,0,0,1-1.764-3.6,29.887,29.887,0,0,1-1.062-4.32q-.378-2.232-.594-4.032H20.736v11.268a5.143,5.143,0,0,0,.774-.18q.486-.144.954-.288.5-.18.882-.306a3.681,3.681,0,0,1,.414-.126q.288,0,.288.216a.6.6,0,0,1-.054.234.625.625,0,0,1-.126.2,4.09,4.09,0,0,1-.648.828q-.4.4-.792.756a11.651,11.651,0,0,1-2.7,1.764,13.125,13.125,0,0,1-2.844,1.008V-23.544h4.86q-.216-3.1-.324-6.3h4.464q0,.792-.018,1.548t-.018,1.548q0,1.584.108,3.2h4.572a1.808,1.808,0,0,1,.558-1.386,1.951,1.951,0,0,1,1.386-.522,1.818,1.818,0,0,1,1.3.558,1.733,1.733,0,0,1,.576,1.278,1.438,1.438,0,0,1-.558,1.26,2.335,2.335,0,0,1-1.386.4H26.028q.144,2.088.432,4.176a26.635,26.635,0,0,0,.9,4.1H27.4a28.57,28.57,0,0,0,2.016-6.12l3.924,2.3a31.409,31.409,0,0,1-1.656,4.068A18.488,18.488,0,0,1,29.3-9.756a15.924,15.924,0,0,0,1.512,2,12.433,12.433,0,0,0,1.8,1.71A1.321,1.321,0,0,1,33.3-6.8a2.171,2.171,0,0,1,.972-.252,1.388,1.388,0,0,1,1.008.486A1.469,1.469,0,0,1,35.748-5.544ZM32.472-28.332q0,.216-.522.7a11.518,11.518,0,0,1-1.242.99A17.446,17.446,0,0,1,28.836-25.4a3.46,3.46,0,0,1-1.368.558.35.35,0,0,1-.4-.4,1.807,1.807,0,0,1,.162-.54q.162-.4.378-1.044.324-.936.666-1.98t.45-1.332q.72.324,1.836.72a8.505,8.505,0,0,1,1.728.792A.325.325,0,0,1,32.472-28.332ZM50.364-19.98a2.517,2.517,0,0,1-.522,1.1q-.522.774-1.224,1.71t-1.35,1.71q-.648.774-.936,1.062h.936V2.088h-4.14V-11.376q-.324.252-.972.666t-1.386.846a13.055,13.055,0,0,1-1.4.72,2.855,2.855,0,0,1-1.026.288q-.216,0-.216-.144a.272.272,0,0,1,.072-.162q.072-.09.108-.126a40.1,40.1,0,0,0,4.5-5.994,48,48,0,0,0,3.42-6.678l3.6,1.476.36.144Q50.364-20.268,50.364-19.98Zm.252-7.7a.792.792,0,0,1-.18.432,15.947,15.947,0,0,1-2.2,2.574,25.722,25.722,0,0,1-2.628,2.214,12.739,12.739,0,0,1-1.44.918q-.756.414-1.548.81a5.91,5.91,0,0,1-.648.306q-.468.2-.936.36a2.4,2.4,0,0,1-.684.162.212.212,0,0,1-.18-.108.35.35,0,0,1-.072-.18.382.382,0,0,1,.09-.252q.09-.108.162-.18a33.132,33.132,0,0,0,3.33-4.392,35.309,35.309,0,0,0,2.5-4.86l3.78,1.656a1.485,1.485,0,0,1,.4.2Q50.616-27.864,50.616-27.684ZM72.9,1.4a1.355,1.355,0,0,1-.612,1.224,2.464,2.464,0,0,1-1.368.4,10.99,10.99,0,0,1-3.6-.648A20.891,20.891,0,0,1,63.7.72,21.672,21.672,0,0,1,60.66-1.368a12.158,12.158,0,0,1-2.484,1.6,25.327,25.327,0,0,1-3.168,1.314,25.981,25.981,0,0,1-3.33.9,15.287,15.287,0,0,1-2.934.324.969.969,0,0,1-.306-.054.223.223,0,0,1-.162-.234q0-.216.288-.288.612-.216,1.188-.45T50.9,1.26A28.682,28.682,0,0,0,54.648-.846a24.2,24.2,0,0,0,3.384-2.646Q57.24-4.212,56.484-5t-1.44-1.62L58.5-8.892q.432.792.936,1.548T60.48-5.868a18.066,18.066,0,0,0,1.332-2,23.363,23.363,0,0,0,1.08-2.106H57.744a31.449,31.449,0,0,1-3.6,3.978,14.215,14.215,0,0,1-4.5,2.9q-.216.072-.522.2a1.481,1.481,0,0,1-.558.126q-.288,0-.288-.216a.392.392,0,0,1,.144-.306q.144-.126.252-.234a15.667,15.667,0,0,0,1.746-1.818q.81-.99,1.53-2,.9-1.26,1.71-2.592a18.676,18.676,0,0,0,1.386-2.772q-1.3.216-2.61.414t-2.646.342l-.9-3.348q.828,0,2-.036A3.664,3.664,0,0,0,52.74-15.8a10.158,10.158,0,0,0,1.314-1.08q.81-.756,1.692-1.692t1.656-1.8q.774-.864,1.206-1.368l-1.764.144-1.764.144q-.612.036-1.26.126a9.41,9.41,0,0,1-1.3.09,1.92,1.92,0,0,1-.684-.18q-.432-.18-.432-.5a.791.791,0,0,1,.108-.468q.4-.5.99-1.17T53.568-24.8q1.188-1.4,2.286-2.9T58-30.708l4.68,1.764a.811.811,0,0,1,.288.144.342.342,0,0,1,.144.288.408.408,0,0,1-.108.27q-.108.126-.216.234a7.484,7.484,0,0,1-1.062.81q-.594.378-1.134.774-1.152.828-2.34,1.674t-2.34,1.674q1.4-.108,2.808-.2t2.844-.162q.792-.036,1.566-.09t1.566-.054a2.128,2.128,0,0,1,.72.144.537.537,0,0,1,.4.54.987.987,0,0,1-.072.45,1.558,1.558,0,0,1-.324.342,6.352,6.352,0,0,1-.864.684q-.576.4-1.152.774t-.972.666q-1.584,1.116-3.2,2.25t-3.2,2.322q2.232-.108,4.536-.288a19.86,19.86,0,0,0,4.464-.864l-.936-1.152q-.468-.576-.9-1.152l3.96-1.8q.54,1.332,1.062,2.718A14.688,14.688,0,0,0,69.516-15.3a1.657,1.657,0,0,1,.7-.414,2.667,2.667,0,0,1,.774-.126,1.285,1.285,0,0,1,.936.45,1.366,1.366,0,0,1,.432.954,1.589,1.589,0,0,1-.558,1.224,1.852,1.852,0,0,1-1.278.5,3.559,3.559,0,0,1-1.764-.486,8.43,8.43,0,0,1-1.6-1.17q-.738-.684-1.35-1.3a6.693,6.693,0,0,1-2.646,1.584,26.314,26.314,0,0,1-3.042.72,9.308,9.308,0,0,1-.63.9,9.308,9.308,0,0,0-.63.9h8.748a1.076,1.076,0,0,1,.45.09.371.371,0,0,1,.2.378,2.356,2.356,0,0,1-.18.738q-.18.486-.288.738A18.475,18.475,0,0,1,66.546-7.47a25.419,25.419,0,0,1-1.674,2.25,15.736,15.736,0,0,1-1.728,1.8A30.187,30.187,0,0,0,66.1-.9a22.549,22.549,0,0,0,3.276,2.052A1.975,1.975,0,0,1,70,.108a1.654,1.654,0,0,1,1.134-.432,1.76,1.76,0,0,1,1.242.486A1.622,1.622,0,0,1,72.9,1.4Zm38.088.072a1.359,1.359,0,0,1-.63,1.062,1.968,1.968,0,0,1-1.17.486,11.727,11.727,0,0,1-1.3-.072q-.648-.072-1.26-.18A21.356,21.356,0,0,1,99.738.306a21.388,21.388,0,0,1-5.562-4.77A15.007,15.007,0,0,1,90.756-.7,14.72,14.72,0,0,1,86.22,1.62q-.576.18-1.188.378t-1.224.342a15.446,15.446,0,0,1-1.836.324L80.1,2.88q-.252.036-.54.09a3.119,3.119,0,0,1-.576.054,1.357,1.357,0,0,1-.378-.072.286.286,0,0,1-.234-.288.311.311,0,0,1,.144-.252.936.936,0,0,1,.252-.144,1.323,1.323,0,0,1,.306-.108q.162-.036.306-.072a18.442,18.442,0,0,0,1.944-.648A25.53,25.53,0,0,0,83.862.216a24.365,24.365,0,0,0,2.538-1.6A12.747,12.747,0,0,0,88.488-3.24a12.266,12.266,0,0,0,2.106-3.312,14.769,14.769,0,0,0,.972-3.546q.27-1.854.378-3.906A25.953,25.953,0,0,1,88.9-12.96q-1.566.432-3.15.756,1.008.36,2.016.684t1.98.72a2.477,2.477,0,0,1,.306.144q.126.072.126.324,0,.216-.612.738a15.75,15.75,0,0,1-1.476,1.1q-.864.576-1.6,1.044t-.99.612l-1.134.612A11.728,11.728,0,0,1,83-5.6a3.6,3.6,0,0,1-1.278.27.991.991,0,0,1-.27-.072q-.2-.072-.2-.18a.718.718,0,0,1,.162-.432,3.378,3.378,0,0,1,.306-.36q1.044-1.4,2.016-2.826a27.257,27.257,0,0,0,1.764-2.97q-1.44.252-2.862.432a23.057,23.057,0,0,1-2.9.18,1.723,1.723,0,0,1-.5-.09.347.347,0,0,1-.288-.342.414.414,0,0,1,.126-.216.791.791,0,0,1,.2-.18q.252-.072.54-.144a5.365,5.365,0,0,1,.54-.108q.648-.18,1.3-.342t1.26-.378q1.728-.576,3.42-1.242t3.312-1.494q-1.08-.36-2.214-.63a14.424,14.424,0,0,1-2.178-.7,2.012,2.012,0,0,0-.216-.126.2.2,0,0,1-.108-.2.317.317,0,0,1,.09-.234,1.3,1.3,0,0,1,.2-.162,13.6,13.6,0,0,1,1.71-1.08,16.7,16.7,0,0,0,1.71-1.044,12.96,12.96,0,0,1,1.62,1.422,14.885,14.885,0,0,1,1.4,1.638,15.445,15.445,0,0,0,1.368-.846q.648-.45,1.332-.882-.9-.324-1.818-.63t-1.854-.63q-.144-.072-.432-.18t-.288-.324q0-.144.45-.486t1.08-.738q.63-.4,1.17-.7t.684-.414a9.157,9.157,0,0,1,1.494,1.224,14.349,14.349,0,0,1,1.242,1.476q.972-.9,1.854-1.854t1.674-2l-6.552-.036a35.99,35.99,0,0,1-4.212,2.7,31.016,31.016,0,0,1-4.572,2.052q-.36.108-1.116.288t-1.512.324a6.694,6.694,0,0,1-1.152.144.633.633,0,0,1-.306-.09.266.266,0,0,1-.162-.234.39.39,0,0,1,.18-.288,1.8,1.8,0,0,1,.252-.18q.5-.288,1.026-.576a11.483,11.483,0,0,0,.99-.612,40.958,40.958,0,0,0,5.418-4.374,34.877,34.877,0,0,0,4.518-5.274l3.348,1.332q.4.144.774.288t.738.324a.325.325,0,0,1,.18.288q0,.144-.324.486t-.756.738q-.432.4-.828.738T95-25.7H105.7a.318.318,0,0,1,.36.36,1.909,1.909,0,0,1-.342,1.008,10.17,10.17,0,0,1-.63.9,25.918,25.918,0,0,1-5,4.824,36.6,36.6,0,0,1-5.94,3.636l1.422.144,1.386.144a18.916,18.916,0,0,1-.414,3.546q-.378,1.782-.918,3.474l1.62-.612a25.831,25.831,0,0,0,4.032,5.688,17.194,17.194,0,0,0,5.724,3.96,3.1,3.1,0,0,1,.792-1.26,1.829,1.829,0,0,1,1.332-.576,1.753,1.753,0,0,1,1.332.576A1.932,1.932,0,0,1,110.988,1.476ZM107.28-13q0,.288-.594.81a14.093,14.093,0,0,1-1.422,1.08q-.828.558-1.53.99t-.954.576q-.4.216-1.116.558t-1.458.612A3.7,3.7,0,0,1,99-8.1a.58.58,0,0,1-.252-.072.231.231,0,0,1-.144-.216.444.444,0,0,1,.072-.252l.144-.216a32.861,32.861,0,0,0,2.232-3.276q1.008-1.692,1.872-3.528.936.4,2.088,1.026t2.016,1.206A.522.522,0,0,1,107.28-13Zm33.444-1.116a17.036,17.036,0,0,1-1.278,6.966,12.623,12.623,0,0,1-3.582,4.734,17.742,17.742,0,0,1-5.4,2.952,36.854,36.854,0,0,1-6.732,1.62,2.023,2.023,0,0,1-.4.036h-.4q-.468,0-.468-.36,0-.252.486-.414t.63-.2q1.3-.4,2.538-.81a20.223,20.223,0,0,0,2.43-.99,11.889,11.889,0,0,0,4.536-3.762,12.775,12.775,0,0,0,2.016-4.95,31.969,31.969,0,0,0,.5-5.8q0-.4-.018-1.242t-.108-1.854a15.8,15.8,0,0,0-.288-1.926,4.627,4.627,0,0,0-.576-1.512,1.135,1.135,0,0,0-.99-.594,1.6,1.6,0,0,0-1.3.7,10.935,10.935,0,0,0-.864,1.278,13.336,13.336,0,0,0-1.242,3.4,16.425,16.425,0,0,0-.414,3.582q0,.828.072,1.656t.216,1.656a3.583,3.583,0,0,1,.054.378q.018.2.018.378a2.183,2.183,0,0,1-.378,1.314,1.429,1.429,0,0,1-1.242.522,3.268,3.268,0,0,1-2.07-.72,6.2,6.2,0,0,1-1.548-1.818,10.119,10.119,0,0,1-.972-2.322,8.255,8.255,0,0,1-.342-2.2,27.018,27.018,0,0,1,.414-4.716q.414-2.34.63-4.644.036-.324.054-.63t.018-.594a3.294,3.294,0,0,0-.288-1.386,1.917,1.917,0,0,0-1.008-.954,1.328,1.328,0,0,1-.234-.144.306.306,0,0,1-.09-.252.344.344,0,0,1,.378-.378q.378-.018.63-.018a8.012,8.012,0,0,1,2.358.4,5.786,5.786,0,0,1,2.2,1.224,2.731,2.731,0,0,1,.918,2.124,4.137,4.137,0,0,1-.18,1.206,8.521,8.521,0,0,1-.432,1.134q-.756,1.764-1.35,3.546a11.7,11.7,0,0,0-.594,3.726q0,.216.018.756a4.075,4.075,0,0,0,.162,1.026q.144.486.468.486.216,0,.27-.45t.09-.594a25.278,25.278,0,0,1,.63-2.7,24.007,24.007,0,0,1,1.008-2.826A13.959,13.959,0,0,1,131-21.492a6.305,6.305,0,0,1,1.71-1.8,4.108,4.108,0,0,1,2.394-.684,4.042,4.042,0,0,1,2.16.648,5.4,5.4,0,0,1,2.214,2.466,12.09,12.09,0,0,1,.99,3.4A24.245,24.245,0,0,1,140.724-14.112Zm30.24,6.336v6.8a17.549,17.549,0,0,0,2.07-.414q1.026-.27,2.034-.558-.684-.828-1.3-1.656t-1.224-1.692a21.984,21.984,0,0,0,2.664-1.188q1.3-.684,2.628-1.3Zm-2.232-11.268v-2.34h-1.548v2.34Zm0-3.672v-2.3h-1.548v2.3Zm5.04,3.672v-2.34h-1.62v2.34Zm0-3.672v-2.3h-1.62v2.3Zm5.544-2.3h-2.052v1.764a1.912,1.912,0,0,0,.27-.018,1.912,1.912,0,0,1,.27-.018,1.006,1.006,0,0,1,.738.306,1.006,1.006,0,0,1,.306.738.843.843,0,0,1-.522.864,2.755,2.755,0,0,1-1.062.216v2.124a2.362,2.362,0,0,0,1.512-.432,1.74,1.74,0,0,0,.54-1.44ZM160.884-10.152a.618.618,0,0,1-.036.252q-.5,2.376-1.314,4.95A38.882,38.882,0,0,1,157.68-.144a8.472,8.472,0,0,1-.45.846.884.884,0,0,1-.81.45,1.887,1.887,0,0,1-.828-.378,13.465,13.465,0,0,1-1.242-.936q-.666-.558-1.224-1.044t-.774-.7q1.368-1.44,2.736-2.9t2.664-3.006q.5-.612.99-1.242t.99-1.206a2.421,2.421,0,0,1,.306-.324.558.558,0,0,1,.342-.18.423.423,0,0,1,.4.18A.824.824,0,0,1,160.884-10.152ZM160.6-14.94a.652.652,0,0,1-.27.558.982.982,0,0,1-.594.2,1.092,1.092,0,0,1-.324-.036q-1.692-.4-3.384-.9a27.764,27.764,0,0,0-3.456-.792l1.692-3.06q.18-.324.486-.774a.883.883,0,0,1,.738-.45,2.572,2.572,0,0,1,1.278.63,14.931,14.931,0,0,1,1.728,1.53,14.615,14.615,0,0,1,1.494,1.764A2.681,2.681,0,0,1,160.6-14.94ZM186.228,1.476a1.3,1.3,0,0,1-.558,1.1,1.935,1.935,0,0,1-1.17.414,10.02,10.02,0,0,1-4.644-1.17,15.634,15.634,0,0,1-3.924-2.826,9.2,9.2,0,0,1-3.978,2.736,14.728,14.728,0,0,1-4.806.9l.036-10.4h-.792a15.94,15.94,0,0,1-1.458,5.2,12.643,12.643,0,0,1-3.294,4.266q-.216.18-.666.54a8.189,8.189,0,0,1-.9.63,1.548,1.548,0,0,1-.738.27q-.324,0-.324-.252a.373.373,0,0,1,.108-.234,1.1,1.1,0,0,0,.144-.2A17.07,17.07,0,0,0,160.542.36a15.856,15.856,0,0,0,.954-2.268,18.057,18.057,0,0,0,.9-4.374q.18-2.25.18-4.446,0-1.368-.036-2.7t-.036-2.664h18.18a1.966,1.966,0,0,1,.594-1.3,1.733,1.733,0,0,1,1.278-.576,2.934,2.934,0,0,1,1.512.45,1.441,1.441,0,0,1,.756,1.314,1.427,1.427,0,0,1-.612,1.3,2.592,2.592,0,0,1-1.44.4H166.644v3.24q0,.468-.036.954t-.036.99h14.616a1.334,1.334,0,0,1,.63-1.152,2.24,2.24,0,0,1,1.278-.432,1.93,1.93,0,0,1,1.242.45,1.433,1.433,0,0,1,.558,1.17,1.348,1.348,0,0,1-.486,1.134,1.9,1.9,0,0,1-1.206.378h-2.268a5.194,5.194,0,0,1,.5.486q.36.378.684.756t.324.522a.432.432,0,0,1-.36.432,2.343,2.343,0,0,1-.774.162,5.973,5.973,0,0,0-.81.09q-.756.108-1.494.234t-1.494.234a10.661,10.661,0,0,0,1.332,2.25,18.771,18.771,0,0,0,2,2.268A12.266,12.266,0,0,0,182.88,1.3a1.658,1.658,0,0,1,.576-1.008,1.623,1.623,0,0,1,1.08-.4,1.747,1.747,0,0,1,1.17.45A1.434,1.434,0,0,1,186.228,1.476ZM161.712-22.716a.617.617,0,0,1-.27.522.933.933,0,0,1-.558.2,5.6,5.6,0,0,1-1.1-.27q-.882-.27-2.016-.666t-2.142-.72q-1.008-.324-1.44-.432.18-.288.5-.828t.684-1.17q.36-.63.684-1.134a4.632,4.632,0,0,1,.468-.648,2.5,2.5,0,0,1,.306-.216.69.69,0,0,1,.342-.072,1.135,1.135,0,0,1,.612.18,5,5,0,0,1,.972.864q.648.684,1.332,1.566a17.559,17.559,0,0,1,1.152,1.656A2.622,2.622,0,0,1,161.712-22.716Zm18.648,10.3a1.069,1.069,0,0,1-.576,1.026,2.5,2.5,0,0,1-1.188.306H168.3V-12.6h8.964a1.376,1.376,0,0,1,.576-.936,1.792,1.792,0,0,1,1.044-.324,1.435,1.435,0,0,1,1.008.45A1.353,1.353,0,0,1,180.36-12.42Zm2.952-8.388a2.543,2.543,0,0,1-.828,2.106,4.138,4.138,0,0,1-2.016.846,15.377,15.377,0,0,1-2.3.18H163.332v-8.892h5.328v-3.1h3.564v3.1h1.512v-3.06h3.636v3.06h5.94Zm31.464-1.476H204.192v2.808h6.156a1.971,1.971,0,0,1,.558-1.1,1.537,1.537,0,0,1,1.134-.45,1.543,1.543,0,0,1,1.1.468,1.458,1.458,0,0,1,.486,1.08,1.149,1.149,0,0,1-.558,1.08,2.361,2.361,0,0,1-1.206.324h-7.668V-15.8h8.784a1.44,1.44,0,0,0,1.422-.756,3.651,3.651,0,0,0,.378-1.656Zm8.712,15.336a1.486,1.486,0,0,1-.792,1.512,4.214,4.214,0,0,1-1.764.36h-9.324q.072.576.108,1.188t.036,1.224a15.861,15.861,0,0,1-.288,3.078,4.535,4.535,0,0,1-1.224,2.394,4.034,4.034,0,0,1-2.952.936,4.35,4.35,0,0,1-2.016-.522,9.876,9.876,0,0,1-1.89-1.278,16.53,16.53,0,0,1-1.53-1.476A.419.419,0,0,0,201.78.36a.147.147,0,0,1-.036-.108q0-.108.18-.108a1.185,1.185,0,0,1,.36.072,3.583,3.583,0,0,1,.54.108l.5.144a12.162,12.162,0,0,0,1.3.216,12.057,12.057,0,0,0,1.332.072,1.188,1.188,0,0,0,.99-.432A2.625,2.625,0,0,0,207.432-.7a4.684,4.684,0,0,0,.144-1.1q0-.828-.018-1.692t-.09-1.584h-10.3V-6.7h10.08q-.072-.72-.2-1.4t-.27-1.368l3.024.252a18.738,18.738,0,0,0,2.736-1.944h-11.88v-1.476q3.42-.072,6.84-.072h10.08a.9.9,0,0,1,.4.072q.144.072.144.36,0,.828-1.188,1.692a10.746,10.746,0,0,1-2.07,1.116q-1.206.5-2.3.846t-1.71.522a6.015,6.015,0,0,1,.234.7q.09.342.162.7H219.2a2.379,2.379,0,0,1,.648-1.476,1.937,1.937,0,0,1,1.476-.612,2.5,2.5,0,0,1,1.44.5A1.554,1.554,0,0,1,223.488-6.948Zm-.972-21.2a1.821,1.821,0,0,1-.738,1.62,3.083,3.083,0,0,1-1.782.5H198.072q0,2.88-.018,5.76t-.162,5.76A29.557,29.557,0,0,1,197.3-9.9a25.678,25.678,0,0,1-1.35,4.464,14.128,14.128,0,0,1-1.1,2.16,21.714,21.714,0,0,1-1.53,2.2A13.2,13.2,0,0,1,191.664.684q-.288.252-.756.612a1.46,1.46,0,0,1-.864.36q-.4,0-.4-.36a.513.513,0,0,1,.09-.306A2.009,2.009,0,0,0,189.9.72a27.684,27.684,0,0,0,1.674-3.15A19.115,19.115,0,0,0,192.708-5.8a28.832,28.832,0,0,0,.756-4.77q.18-2.43.18-4.842,0-3.06-.018-6.12t-.018-6.12h24.336a2.668,2.668,0,0,1,.63-1.674,1.99,1.99,0,0,1,1.6-.7,2.852,2.852,0,0,1,1.53.522A1.558,1.558,0,0,1,222.516-28.152Zm-3.384,8.82a6.044,6.044,0,0,1-.7,3.2,3.486,3.486,0,0,1-2.034,1.512,11.492,11.492,0,0,1-3.24.4H200.448v-9.612h18.684Zm16.308-4.824h-3.06V-9.5h.828a1.727,1.727,0,0,0,1.458-.63,3.494,3.494,0,0,0,.648-1.566,9.956,9.956,0,0,0,.144-1.89q-.018-.954-.018-1.6ZM239.4-14.4a11.737,11.737,0,0,1-.468,3.636,3.512,3.512,0,0,1-1.71,2.07,7.933,7.933,0,0,1-3.654.666h-4.932v-17.6H239.4ZM262.62-1.512A1.246,1.246,0,0,1,262.044-.5a1.874,1.874,0,0,1-1.116.432,5.368,5.368,0,0,1-2.97-.846,23.657,23.657,0,0,1-2.5-1.854q-.828-.756-1.764-1.8a25.223,25.223,0,0,1-1.746-2.178q-.81-1.134-1.386-2.07V3.1h-4.176V-8.316A24.487,24.487,0,0,1,241.65-3.06a26.574,26.574,0,0,1-6.066,3.6q-.288.108-.936.4t-1.3.54a3.047,3.047,0,0,1-.9.252.5.5,0,0,1-.252-.09.268.268,0,0,1-.144-.234.427.427,0,0,1,.162-.324,1.446,1.446,0,0,1,.306-.216q.576-.36,1.1-.7t1.062-.738a24.985,24.985,0,0,0,3.654-3.33,27.209,27.209,0,0,0,3.042-4.068,21.62,21.62,0,0,0,2.088-4.446l2.916.9V-14h-6.048V-15.7h6.048V-21.24h-5.4v-1.692h5.4v-6.12h4.176v6.12h3.564a2.4,2.4,0,0,1,.684-1.53,2.024,2.024,0,0,1,1.512-.63,2.22,2.22,0,0,1,1.422.54,1.687,1.687,0,0,1,.666,1.368,1.662,1.662,0,0,1-.684,1.476,2.8,2.8,0,0,1-1.62.468H250.56V-15.7h6.084a2.048,2.048,0,0,1,.684-1.44,2.091,2.091,0,0,1,1.476-.612,2.117,2.117,0,0,1,1.44.576,1.809,1.809,0,0,1,.648,1.4,1.523,1.523,0,0,1-.648,1.278,2.244,2.244,0,0,1-1.368.486H250.56v2.556l2.988-1.008a17.964,17.964,0,0,0,.936,2.43q.648,1.422,1.494,2.934a29.81,29.81,0,0,0,1.746,2.772,11.123,11.123,0,0,0,1.692,1.944,3.952,3.952,0,0,1,.7-.612A1.517,1.517,0,0,1,261-3.276a1.472,1.472,0,0,1,1.17.522A1.84,1.84,0,0,1,262.62-1.512ZM272.88-23.04h-2.412V-8.064h.756a1.171,1.171,0,0,0,1.134-.7,4.671,4.671,0,0,0,.432-1.584q.09-.882.09-1.422ZM292.14-7.92h-8.5v3.672h4.428a1.382,1.382,0,0,1,.468-1.116,1.722,1.722,0,0,1,1.152-.4,1.623,1.623,0,0,1,1.08.4,1.263,1.263,0,0,1,.468,1.008,1.648,1.648,0,0,1-.414,1.1,1.332,1.332,0,0,1-1.062.486h-6.12V1.116H290.2A1.522,1.522,0,0,0,291.744.2a4.643,4.643,0,0,0,.4-1.854Zm-6.588-5.22v-3.672H282.06v3.672Zm0-5.112V-22.1H282.06v3.852ZM293.8-22.1H289.4v3.852h.792a1.405,1.405,0,0,1,1.548-1.3,1.365,1.365,0,0,1,1.008.4,1.365,1.365,0,0,1,.4,1.008,1.21,1.21,0,0,1-.45.936,1.426,1.426,0,0,1-.954.4H289.4v3.672h1.944a2.058,2.058,0,0,0,1.818-.936,3.542,3.542,0,0,0,.63-2.016ZM276.7-13.32a15.278,15.278,0,0,1-.378,3.6,4.012,4.012,0,0,1-1.548,2.394,6.06,6.06,0,0,1-3.546.846H266.76V-24.7H276.7ZM296.1-1.728a4.58,4.58,0,0,1-.72,2.79,3.653,3.653,0,0,1-1.962,1.314,10.306,10.306,0,0,1-2.862.36H279.72V-9.54H296.1Zm1.764-14.292a4.223,4.223,0,0,1-.792,2.736,4.2,4.2,0,0,1-2.088,1.368,9.7,9.7,0,0,1-2.844.4H278.424v-12.2h10.62q.468-1.656.918-3.312t.882-3.312q.576.144,1.494.378t1.8.522a7.175,7.175,0,0,1,1.314.54.611.611,0,0,1,.324.5q0,.252-.684.9t-1.62,1.44q-.936.792-1.764,1.44t-1.116.9h7.272Zm-12.6-9.288q0,.936-.972.936a.957.957,0,0,1-.432-.09,2.038,2.038,0,0,1-.36-.234,6.5,6.5,0,0,1-.666-.612q-.306-.324-.63-.612-.684-.72-1.386-1.4T279.4-28.692q.288-.144.918-.414t1.368-.576q.738-.306,1.368-.522a3.34,3.34,0,0,1,.846-.216.647.647,0,0,1,.5.252,2.078,2.078,0,0,1,.306.81q.162.666.288,1.512t.2,1.548Q285.264-25.6,285.264-25.308ZM35.352,26.188q0,.576-.4.648a4.419,4.419,0,0,1-.792.072,2.063,2.063,0,0,0-.864.18,1.263,1.263,0,0,0-.612.612,6.182,6.182,0,0,0-.288,1.008q-.108.54-.216,1.008Q31,35.368,29.646,40.984T27,52.252H22.86q-1.188-4.5-2.52-8.928t-2.592-8.892q-1.26,4.464-2.628,8.91t-2.736,8.91H8.5q-.756-3.96-1.584-7.884T5.22,36.52L4.068,31.228q-.144-.72-.288-1.458t-.324-1.422a1.955,1.955,0,0,0-.522-1.026,1.13,1.13,0,0,0-.756-.216q-.45.018-1.1.018a.563.563,0,0,1-.522-.27A1.071,1.071,0,0,1,.4,26.3a.516.516,0,0,1,.27-.432.9.9,0,0,1,.486-.18q1.044,0,2.124.054t2.16.054q1.3,0,2.574-.054t2.538-.054A.6.6,0,0,1,11,25.9a.645.645,0,0,1,.2.432.717.717,0,0,1-.18.468.58.58,0,0,1-.468.216q-.252,0-.486-.018t-.486-.018a1.112,1.112,0,0,0-.774.2,1.046,1.046,0,0,0-.2.738q0,.18.018.378a3.581,3.581,0,0,0,.054.378q.72,4.68,1.638,9.36t1.71,9.4q1.008-3.528,2.088-7.038t1.98-7.038q.324-1.152.594-2.286t.558-2.25q.108-.5.234-.99t.27-.954a1.486,1.486,0,0,1,.414-.684,1.289,1.289,0,0,1,.774-.18,4.046,4.046,0,0,1,.792.072.751.751,0,0,1,.54.5,2.544,2.544,0,0,1,.306.882q.09.522.2.954.324,1.152.648,2.322t.648,2.358q1.044,3.6,2.07,7.182t2.07,7.218q.5-2.556,1.062-5.094T28.3,37.312q.36-1.98.738-3.96t.63-3.96q.072-.432.108-.882t.036-.882a1.19,1.19,0,0,0-.2-.522q-.2-.342-.45-.342H28.3a6.7,6.7,0,0,0-.7.036,7.07,7.07,0,0,1-.738.036.532.532,0,0,1-.414-.18.623.623,0,0,1-.162-.432q0-.648.54-.648.648,0,1.314.036t1.314.036q1.332,0,2.628-.036t2.628-.036Q35.352,25.576,35.352,26.188Zm35.1,10.188a1.246,1.246,0,0,1-.756,1.152,2.952,2.952,0,0,1-1.332.4q-.18,0-.36-.018t-.36-.054a27.832,27.832,0,0,0-2.844-.288q-1.44-.072-2.88-.072H60.66a11.411,11.411,0,0,0-1.26.072q-.216,2.016-.558,3.78a17.687,17.687,0,0,1-.954,3.276,13.766,13.766,0,0,1-2.25,3.924,13.988,13.988,0,0,1-5.49,3.942q-1.044.414-2.412.81a12.268,12.268,0,0,1-1.4.306,9.11,9.11,0,0,1-1.44.162l-.072-.144A15.057,15.057,0,0,0,48.24,51.6a16.565,16.565,0,0,0,2.628-2.484,17.541,17.541,0,0,0,2.862-5A22.766,22.766,0,0,0,54.936,38a9.7,9.7,0,0,0-1.152.252q-.828.216-1.872.522t-2.088.648q-1.044.342-1.872.63a8.277,8.277,0,0,0-1.152.468,2.115,2.115,0,0,1-.324.2.957.957,0,0,1-.432.09,2.822,2.822,0,0,1-.99-.234,5.45,5.45,0,0,1-1.026-.522,3.715,3.715,0,0,1-1.872-3.456,4.009,4.009,0,0,0,1.566.378,16.479,16.479,0,0,0,1.71.018q.5-.036,1.638-.144t2.556-.27q1.422-.162,2.844-.342t2.5-.36a8.787,8.787,0,0,0,.018-.954q-.018-.414-.018-.99,0-.288-.018-.9t-.09-1.206a1.909,1.909,0,0,0-.252-.846q-1.4.324-2.43.486t-2.142.27q-1.116.108-2.88.216a18.232,18.232,0,0,1-2.43-.018q-1.206-.09-1.638-.162,0-.288.216-.324.828-.144,1.62-.324Q46.3,30.8,48.15,30.2a30.568,30.568,0,0,0,3.69-1.458q1.8-.828,3.366-1.62a8.49,8.49,0,0,0,2.43-1.728.615.615,0,0,0,.108-.288q.036-.144-.306-.45a1.947,1.947,0,0,0-.666-.414,1.561,1.561,0,0,1,.756-.522,3.221,3.221,0,0,1,1.224-.234,4.5,4.5,0,0,1,1.152.126q.468.126.684.2a10.38,10.38,0,0,1,1.6.792,7.77,7.77,0,0,1,1.44,1.08,1.616,1.616,0,0,1,.594,1.116,1.234,1.234,0,0,1-.378.936,2.1,2.1,0,0,1-.882.5,10.636,10.636,0,0,1-1.224.54q-.756.288-1.584.594t-1.512.522q-.684.216-1.008.324a4.025,4.025,0,0,1,1.908.828,1.547,1.547,0,0,1,.648,1.044,1.226,1.226,0,0,1-.216.54,1.741,1.741,0,0,1-.36.468q-.036.648-.018,1.1t-.018,1.1a20.127,20.127,0,0,0,2.97-.612q1.53-.432,3.15-.9a7.246,7.246,0,0,1,1.926.18,5.1,5.1,0,0,1,1.782.828,5.208,5.208,0,0,1,.72.63A1.332,1.332,0,0,1,70.452,36.376Zm34.668.36a.986.986,0,0,1-.5.864,3.59,3.59,0,0,1-.864.432q-.792.792-1.674,1.692a25.092,25.092,0,0,1-1.926,1.764,20.016,20.016,0,0,1-1.674,1.3,15.647,15.647,0,0,1-1.638,1.008.586.586,0,0,0-.162.054.546.546,0,0,1-.2.054.679.679,0,0,1-.216-.036.166.166,0,0,1-.108-.18q0-.144.252-.4a11.518,11.518,0,0,0,.936-1.3q.5-.792.918-1.548t.594-1.116a6.1,6.1,0,0,0,.432-1.1,3.259,3.259,0,0,0,.144-.774.589.589,0,0,0-.18-.432.46.46,0,0,0-.468-.108,13.915,13.915,0,0,0-1.4.27,14.228,14.228,0,0,0-1.512.486,11.264,11.264,0,0,0-1.1.414,11.115,11.115,0,0,0-1.134.558q.252.828.594,2.142t.738,2.826q.4,1.512.756,2.988t.648,2.628q.288,1.152.4,1.728.072.252.126.468a1.775,1.775,0,0,1,.054.432,2.793,2.793,0,0,1-.7,1.944,2.006,2.006,0,0,1-1.458.684q-1.26,0-1.728-2.988-.216-1.224-.4-2.772t-.5-3.384q-.288-1.476-.558-3.042t-.558-2.718a23.058,23.058,0,0,0-2.394,1.152,18.436,18.436,0,0,0-2.214,1.44,2.486,2.486,0,0,1-.522.288,1.689,1.689,0,0,1-.63.108,1.247,1.247,0,0,1-.36-.054q-.18-.054-.36-.09a4.381,4.381,0,0,1-1.872-1.134,2.931,2.931,0,0,1-.684-2.07.443.443,0,0,1,.36-.5,3.377,3.377,0,0,0,.882.378,4.391,4.391,0,0,0,1.494.162,11.611,11.611,0,0,0,1.746-.36q1.062-.288,2.2-.648t1.962-.576Q90.4,36.664,90.09,35.8t-.63-1.764a3.024,3.024,0,0,0-.792-1.206,1.715,1.715,0,0,0-1.008-.486q-.216-.072-.072-.288a2.621,2.621,0,0,1,.918-.99,3,3,0,0,1,1.566-.342,3.585,3.585,0,0,1,1.4.288,3.344,3.344,0,0,1,1.08.684,1.06,1.06,0,0,1,.432.972q-.036.324-.072.576a3.823,3.823,0,0,0-.036.54,7.367,7.367,0,0,0,.162,1.548q.162.756.306,1.548.936-.36,2.07-.792t2.034-.792a4.878,4.878,0,0,0,1.728-.972,1.172,1.172,0,0,1,.486-.27,2.155,2.155,0,0,1,.486-.054,4.491,4.491,0,0,1,.774.09,8.13,8.13,0,0,1,.846.2,7,7,0,0,1,2.808,1.4,2.159,2.159,0,0,1,.4.432A1.1,1.1,0,0,1,105.12,36.736Zm42.192,2.088a1.607,1.607,0,0,1-.738,1.4,3.529,3.529,0,0,1-1.782.576h-3.006q-1.17,0-2.142-.036-.468,0-.882-.018t-.846-.018q-3.168,0-5.688.09t-5.256.2q-.5.036-1.548.126t-2.232.216q-1.188.126-2.16.216a12.82,12.82,0,0,0-1.3.162,5.127,5.127,0,0,1-2.988-.846,2.917,2.917,0,0,1-1.224-2.574,3.3,3.3,0,0,1,.306-1.26,1.372,1.372,0,0,1,.774-.864,3.046,3.046,0,0,0,1.17,1.08,4.969,4.969,0,0,0,1.458.486,8.063,8.063,0,0,0,1.3.126q1.152,0,2.3.018t2.3-.018q1.908-.108,3.4-.216t3.4-.324q1.908-.216,3.348-.414t2.682-.486q1.242-.288,2.5-.684a13.66,13.66,0,0,1,2.916.378,9.919,9.919,0,0,1,2.34.846,4.834,4.834,0,0,1,1.026.792A1.513,1.513,0,0,1,147.312,38.824Zm18.54-.756a2.918,2.918,0,0,1-.432,1.4,2.279,2.279,0,0,1-1.044.972,2.531,2.531,0,0,1-1.368.252,3.087,3.087,0,0,1-.954-.288,1.474,1.474,0,0,1-.774-.72,5.262,5.262,0,0,0-.36-.54,4.229,4.229,0,0,1-.4-.648,13.228,13.228,0,0,0-2-2.664,9.74,9.74,0,0,0-1.782-1.44,2.314,2.314,0,0,1,1.1-.414,8.562,8.562,0,0,1,1.368-.072q.7.018,1.206.054a8.853,8.853,0,0,1,1.782.36,8.433,8.433,0,0,1,1.818.792,4.35,4.35,0,0,1,1.386,1.242A2.544,2.544,0,0,1,165.852,38.068ZM184.5,31.732q0,.036-.342.774t-.882,1.674q-.72,1.26-1.692,2.844t-1.98,3.042a22.066,22.066,0,0,1-1.872,2.394,33.932,33.932,0,0,1-6.03,5.13,43.831,43.831,0,0,1-7.9,4.122q-.324.144-.666.27a2.118,2.118,0,0,1-.738.126,5.229,5.229,0,0,1-1.692-.324,5.05,5.05,0,0,1-1.62-.9,4.066,4.066,0,0,1-1.1-1.584,4.991,4.991,0,0,1-.342-1.782,3.654,3.654,0,0,1,.252-1.458,1.866,1.866,0,0,1,.2-.306q.126-.162.234-.162a2.653,2.653,0,0,0,.72.864q.4.288.648.468a1.365,1.365,0,0,0,.648.108,6.777,6.777,0,0,0,1.134-.108q.63-.108.81-.144a18.438,18.438,0,0,0,2.916-.972,40.991,40.991,0,0,0,4.158-2q2.286-1.242,4.59-2.79a45.016,45.016,0,0,0,5.382-4.338A32.735,32.735,0,0,0,183.6,31.84q.072-.108.234-.306a.433.433,0,0,1,.306-.2q.252,0,.306.126A.678.678,0,0,1,184.5,31.732ZM169.236,30.04a2.878,2.878,0,0,1-.324,1.368,2.381,2.381,0,0,1-1.044.99,3.106,3.106,0,0,1-1.4.342,2.243,2.243,0,0,1-1.224-.234,4.162,4.162,0,0,1-.648-.594q-.36-.432-.864-1.08a12.182,12.182,0,0,0-2.394-2.484,12.974,12.974,0,0,0-2.07-1.332,2.664,2.664,0,0,1,1.1-.486,9.467,9.467,0,0,1,1.44-.216q.738-.054,1.242-.054a11.26,11.26,0,0,1,1.62.126,9.075,9.075,0,0,1,1.764.45,5.775,5.775,0,0,1,1.98,1.314A2.642,2.642,0,0,1,169.236,30.04Zm49.9,18.9a1.4,1.4,0,0,1-.288.9,1.04,1.04,0,0,1-.864.36,4.468,4.468,0,0,1-1.188-.18q-1.476-.324-3.024-.594a17.987,17.987,0,0,0-3.1-.27q-2.628,0-5.22.18a22.644,22.644,0,0,0-5.148.972q-.432.144-.882.252a5.824,5.824,0,0,0-.882.288,2.552,2.552,0,0,1-1.08.216,2.76,2.76,0,0,1-1.206-.306,5.221,5.221,0,0,1-1.1-.7,2.848,2.848,0,0,1-.72-1.08,3.553,3.553,0,0,1-.252-1.3.738.738,0,0,1,.09-.324.371.371,0,0,1,.234-.216,2.728,2.728,0,0,0,1.476.684,10.354,10.354,0,0,0,1.62.144,17.191,17.191,0,0,0,1.746-.09q.882-.09,1.746-.126,1.476-.108,2.934-.234t2.934-.234q.18-1.152.324-2.3l.288-2.3q.072-.828.18-1.656a12.519,12.519,0,0,0,.108-1.62.7.7,0,0,0-.216-.612,1.1,1.1,0,0,0-.612-.144,5.771,5.771,0,0,0-1.386.252q-.918.252-1.836.594t-1.386.558q-.36.144-.828.288a2.954,2.954,0,0,1-.864.144,2,2,0,0,1-1.134-.414,3.766,3.766,0,0,1-.99-1.008,2.06,2.06,0,0,1-.4-1.134q0-.144.018-.45a.673.673,0,0,1,.162-.45,1.342,1.342,0,0,0,1.008.558,7.688,7.688,0,0,0,1.188.126,8.157,8.157,0,0,0,1.368-.18q.936-.18,2.034-.432t2.016-.522a8.768,8.768,0,0,0,1.278-.45,6.358,6.358,0,0,0,.684-.36,1.389,1.389,0,0,1,.72-.216,3.686,3.686,0,0,1,1.638.468,8.524,8.524,0,0,1,1.494.936,3.238,3.238,0,0,1,.63.666,1.463,1.463,0,0,1,.234.846,1.006,1.006,0,0,1-.306.738l-.594.594q-.432,1.8-.918,3.618t-.954,3.618q.756-.072,1.53-.162t1.53-.234q.4-.072,1.206-.27a5.665,5.665,0,0,1,1.134-.2,4.181,4.181,0,0,1,1.584.378,5.354,5.354,0,0,1,1.566.99A1.861,1.861,0,0,1,219.132,48.94Zm41.58-10.116a1.607,1.607,0,0,1-.738,1.4,3.529,3.529,0,0,1-1.782.576h-3.006q-1.17,0-2.142-.036-.468,0-.882-.018t-.846-.018q-3.168,0-5.688.09t-5.256.2q-.5.036-1.548.126t-2.232.216q-1.188.126-2.16.216a12.821,12.821,0,0,0-1.3.162,5.127,5.127,0,0,1-2.988-.846,2.917,2.917,0,0,1-1.224-2.574,3.3,3.3,0,0,1,.306-1.26A1.372,1.372,0,0,1,230,36.2a3.046,3.046,0,0,0,1.17,1.08,4.97,4.97,0,0,0,1.458.486,8.063,8.063,0,0,0,1.3.126q1.152,0,2.3.018t2.3-.018q1.908-.108,3.4-.216t3.4-.324q1.908-.216,3.348-.414t2.682-.486q1.242-.288,2.5-.684a13.66,13.66,0,0,1,2.916.378,9.919,9.919,0,0,1,2.34.846,4.833,4.833,0,0,1,1.026.792A1.513,1.513,0,0,1,260.712,38.824Z" transform="translate(-0.18 30.708)" fill="#e7b81e"/></svg>