<svg xmlns="http://www.w3.org/2000/svg" width="198.456" height="54.128" viewBox="0 0 198.456 54.128"><path d="M23.424-.792a1.089,1.089,0,0,1-.216.672,1.788,1.788,0,0,1-.552.48,9.05,9.05,0,0,1-2.088.9,17.7,17.7,0,0,1-2.484.564,15.33,15.33,0,0,1-2.292.192h-.048a17.473,17.473,0,0,1-4.608-.576A12.306,12.306,0,0,1,6.984-.672q-.336-.264-.756-.648a8.406,8.406,0,0,1-.708-.72,5.551,5.551,0,0,0-.648-.588A1.2,1.2,0,0,0,4.2-2.952a.45.45,0,0,0-.264.084.665.665,0,0,0-.192.2.852.852,0,0,1-.132.252,2.219,2.219,0,0,0-.156.252,6.9,6.9,0,0,1-.6.912,8.773,8.773,0,0,1-.684.828A9.683,9.683,0,0,1,1.2.516a1.5,1.5,0,0,1-.912.42A.148.148,0,0,1,.12.768.8.8,0,0,1,.252.516Q.384.312.528.048A5.378,5.378,0,0,0,.816-.516q.12-.276.168-.4a16.49,16.49,0,0,0,1.08-3.636,38.023,38.023,0,0,0,.5-3.8l2.64.48q-.144,1.032-.4,2.2A15.961,15.961,0,0,1,4.3-3.768a2.2,2.2,0,0,1,.72.108,6.392,6.392,0,0,1,.744.324v-7.128H1.536v-1.08H5.52v-3.312H2.472v-1.08H5.52v-3.936H8.208v3.936h.408a1.5,1.5,0,0,1,.336-.72.894.894,0,0,1,.72-.312,1.139,1.139,0,0,1,.78.312.991.991,0,0,1,.348.768.957.957,0,0,1-.336.72,1.07,1.07,0,0,1-.744.312H8.208v3.312h.648a1.01,1.01,0,0,1,.324-.732,1.01,1.01,0,0,1,.732-.324,1.049,1.049,0,0,1,.732.3.935.935,0,0,1,.324.708q0,1.128-1.248,1.128H8.328V-7.44h.36a1.4,1.4,0,0,1,.372-.684A.9.9,0,0,1,9.72-8.4a1.023,1.023,0,0,1,.708.3.911.911,0,0,1,.324.684,1.051,1.051,0,0,1-.264.7.842.842,0,0,1-.672.312H8.328V-1.92A23.005,23.005,0,0,0,13.44-.4,30.081,30.081,0,0,0,18.768.1q.648,0,1.3-.012a9.515,9.515,0,0,0,1.272-.108A.918.918,0,0,1,21-.792a.875.875,0,0,1,.432-.732,1.449,1.449,0,0,1,.816-.3,1.323,1.323,0,0,1,.8.276A.89.89,0,0,1,23.424-.792Zm.408-2.9a.962.962,0,0,1-.4.864,1.669,1.669,0,0,1-.948.264,3.608,3.608,0,0,1-1.632-.4,7.19,7.19,0,0,1-1.476-.984q-.684-.588-1.236-1.164A13.311,13.311,0,0,1,15.528-3.3a10.845,10.845,0,0,1-3,1.044,3.222,3.222,0,0,1-.72.072.191.191,0,0,1-.216-.216q0-.12.528-.36.192-.12.4-.24t.276-.168a16.773,16.773,0,0,0,2.2-1.584,14.709,14.709,0,0,0,1.884-1.92,8.831,8.831,0,0,1-1.176-2.4,19.925,19.925,0,0,1-.708-2.88q-.252-1.488-.4-2.688h-.768v7.512a3.428,3.428,0,0,0,.516-.12q.324-.1.636-.192.336-.12.588-.2a2.454,2.454,0,0,1,.276-.084q.192,0,.192.144A.4.4,0,0,1,16-7.428a.417.417,0,0,1-.084.132,2.727,2.727,0,0,1-.432.552q-.264.264-.528.5a7.767,7.767,0,0,1-1.8,1.176,8.75,8.75,0,0,1-1.9.672V-15.7H14.5q-.144-2.064-.216-4.2h2.976q0,.528-.012,1.032t-.012,1.032q0,1.056.072,2.136h3.048a1.205,1.205,0,0,1,.372-.924,1.3,1.3,0,0,1,.924-.348,1.212,1.212,0,0,1,.864.372,1.155,1.155,0,0,1,.384.852.959.959,0,0,1-.372.84,1.556,1.556,0,0,1-.924.264H17.352q.1,1.392.288,2.784a17.756,17.756,0,0,0,.6,2.736h.024a19.047,19.047,0,0,0,1.344-4.08l2.616,1.536a20.939,20.939,0,0,1-1.1,2.712A12.325,12.325,0,0,1,19.536-6.5a10.616,10.616,0,0,0,1.008,1.332,8.289,8.289,0,0,0,1.2,1.14.88.88,0,0,1,.456-.5,1.447,1.447,0,0,1,.648-.168.926.926,0,0,1,.672.324A.98.98,0,0,1,23.832-3.7ZM21.648-18.888q0,.144-.348.468a7.679,7.679,0,0,1-.828.66,11.631,11.631,0,0,1-1.248.828,2.306,2.306,0,0,1-.912.372.233.233,0,0,1-.264-.264,1.2,1.2,0,0,1,.108-.36q.108-.264.252-.7.216-.624.444-1.32t.3-.888q.48.216,1.224.48a5.67,5.67,0,0,1,1.152.528A.217.217,0,0,1,21.648-18.888ZM33.576-13.32a1.678,1.678,0,0,1-.348.732q-.348.516-.816,1.14t-.9,1.14q-.432.516-.624.708h.624V1.392h-2.76V-7.584q-.216.168-.648.444t-.924.564a8.7,8.7,0,0,1-.936.48,1.9,1.9,0,0,1-.684.192q-.144,0-.144-.1a.181.181,0,0,1,.048-.108q.048-.06.072-.084a26.733,26.733,0,0,0,3-4,32,32,0,0,0,2.28-4.452l2.4.984.24.1Q33.576-13.512,33.576-13.32Zm.168-5.136a.528.528,0,0,1-.12.288,10.631,10.631,0,0,1-1.464,1.716,17.148,17.148,0,0,1-1.752,1.476,8.493,8.493,0,0,1-.96.612q-.5.276-1.032.54a3.94,3.94,0,0,1-.432.2q-.312.132-.624.24a1.6,1.6,0,0,1-.456.108.141.141,0,0,1-.12-.072.233.233,0,0,1-.048-.12.254.254,0,0,1,.06-.168q.06-.072.108-.12a22.088,22.088,0,0,0,2.22-2.928,23.539,23.539,0,0,0,1.668-3.24l2.52,1.1a.99.99,0,0,1,.264.132Q33.744-18.576,33.744-18.456ZM48.6.936a.9.9,0,0,1-.408.816,1.643,1.643,0,0,1-.912.264,7.327,7.327,0,0,1-2.4-.432A13.927,13.927,0,0,1,42.468.48,14.448,14.448,0,0,1,40.44-.912,8.106,8.106,0,0,1,38.784.156a16.885,16.885,0,0,1-2.112.876,17.321,17.321,0,0,1-2.22.6,10.191,10.191,0,0,1-1.956.216.646.646,0,0,1-.2-.036.149.149,0,0,1-.108-.156q0-.144.192-.192.408-.144.792-.3T33.936.84a19.121,19.121,0,0,0,2.5-1.4,16.136,16.136,0,0,0,2.256-1.764q-.528-.48-1.032-1.008t-.96-1.08L39-5.928q.288.528.624,1.032t.7.984a12.044,12.044,0,0,0,.888-1.332,15.576,15.576,0,0,0,.72-1.4H38.5A20.966,20.966,0,0,1,36.1-4a9.477,9.477,0,0,1-3,1.932q-.144.048-.348.132a.987.987,0,0,1-.372.084q-.192,0-.192-.144a.261.261,0,0,1,.1-.2q.1-.084.168-.156a10.444,10.444,0,0,0,1.164-1.212q.54-.66,1.02-1.332.6-.84,1.14-1.728A12.451,12.451,0,0,0,36.7-8.472q-.864.144-1.74.276t-1.764.228l-.6-2.232q.552,0,1.332-.024a2.443,2.443,0,0,0,1.236-.312,6.772,6.772,0,0,0,.876-.72q.54-.5,1.128-1.128t1.1-1.2q.516-.576.8-.912l-1.176.1-1.176.1q-.408.024-.84.084a6.273,6.273,0,0,1-.864.06,1.28,1.28,0,0,1-.456-.12q-.288-.12-.288-.336a.527.527,0,0,1,.072-.312q.264-.336.66-.78t.708-.828q.792-.936,1.524-1.932t1.428-2l3.12,1.176a.541.541,0,0,1,.192.1.228.228,0,0,1,.1.192.272.272,0,0,1-.072.18q-.072.084-.144.156a4.99,4.99,0,0,1-.708.54q-.4.252-.756.516-.768.552-1.56,1.116t-1.56,1.116q.936-.072,1.872-.132t1.9-.108q.528-.024,1.044-.06t1.044-.036a1.418,1.418,0,0,1,.48.1.358.358,0,0,1,.264.36.658.658,0,0,1-.048.3,1.039,1.039,0,0,1-.216.228,4.235,4.235,0,0,1-.576.456q-.384.264-.768.516t-.648.444q-1.056.744-2.136,1.5t-2.136,1.548q1.488-.072,3.024-.192a13.24,13.24,0,0,0,2.976-.576l-.624-.768q-.312-.384-.6-.768l2.64-1.2q.36.888.708,1.812a9.792,9.792,0,0,0,.876,1.764,1.1,1.1,0,0,1,.468-.276,1.778,1.778,0,0,1,.516-.084.857.857,0,0,1,.624.3.911.911,0,0,1,.288.636,1.059,1.059,0,0,1-.372.816,1.235,1.235,0,0,1-.852.336A2.372,2.372,0,0,1,45.84-8.8a5.62,5.62,0,0,1-1.068-.78q-.492-.456-.9-.864a4.462,4.462,0,0,1-1.764,1.056,17.542,17.542,0,0,1-2.028.48,6.207,6.207,0,0,1-.42.6,6.206,6.206,0,0,0-.42.6h5.832a.717.717,0,0,1,.3.06.248.248,0,0,1,.132.252,1.57,1.57,0,0,1-.12.492q-.12.324-.192.492a12.316,12.316,0,0,1-.828,1.428,16.947,16.947,0,0,1-1.116,1.5A10.491,10.491,0,0,1,42.1-2.28,20.124,20.124,0,0,0,44.064-.6,15.033,15.033,0,0,0,46.248.768a1.317,1.317,0,0,1,.42-.7,1.1,1.1,0,0,1,.756-.288,1.174,1.174,0,0,1,.828.324A1.081,1.081,0,0,1,48.6.936ZM73.992.984a.906.906,0,0,1-.42.708,1.312,1.312,0,0,1-.78.324,7.818,7.818,0,0,1-.864-.048q-.432-.048-.84-.12A14.237,14.237,0,0,1,66.492.2a14.259,14.259,0,0,1-3.708-3.18A10,10,0,0,1,60.5-.468,9.813,9.813,0,0,1,57.48,1.08q-.384.12-.792.252t-.816.228a10.3,10.3,0,0,1-1.224.216L53.4,1.92q-.168.024-.36.06a2.08,2.08,0,0,1-.384.036.9.9,0,0,1-.252-.048.191.191,0,0,1-.156-.192.208.208,0,0,1,.1-.168.624.624,0,0,1,.168-.1.882.882,0,0,1,.2-.072l.2-.048a12.3,12.3,0,0,0,1.3-.432A17.02,17.02,0,0,0,55.908.144,16.243,16.243,0,0,0,57.6-.924,8.5,8.5,0,0,0,58.992-2.16a8.177,8.177,0,0,0,1.4-2.208,9.846,9.846,0,0,0,.648-2.364q.18-1.236.252-2.6a17.3,17.3,0,0,1-2.028.7q-1.044.288-2.1.5.672.24,1.344.456t1.32.48a1.651,1.651,0,0,1,.2.1q.084.048.084.216,0,.144-.408.492a10.5,10.5,0,0,1-.984.732q-.576.384-1.068.7T57-4.56l-.756.408a7.819,7.819,0,0,1-.912.42,2.4,2.4,0,0,1-.852.18A.661.661,0,0,1,54.3-3.6q-.132-.048-.132-.12a.479.479,0,0,1,.108-.288,2.253,2.253,0,0,1,.2-.24q.7-.936,1.344-1.884A18.172,18.172,0,0,0,57-8.112q-.96.168-1.908.288a15.371,15.371,0,0,1-1.932.12,1.149,1.149,0,0,1-.336-.06.232.232,0,0,1-.192-.228.276.276,0,0,1,.084-.144.527.527,0,0,1,.132-.12q.168-.048.36-.1a3.577,3.577,0,0,1,.36-.072q.432-.12.864-.228t.84-.252q1.152-.384,2.28-.828t2.208-1q-.72-.24-1.476-.42a9.616,9.616,0,0,1-1.452-.468,1.342,1.342,0,0,0-.144-.084.134.134,0,0,1-.072-.132.211.211,0,0,1,.06-.156.863.863,0,0,1,.132-.108,9.066,9.066,0,0,1,1.14-.72,11.13,11.13,0,0,0,1.14-.7,8.64,8.64,0,0,1,1.08.948,9.924,9.924,0,0,1,.936,1.092,10.3,10.3,0,0,0,.912-.564q.432-.3.888-.588-.6-.216-1.212-.42t-1.236-.42q-.1-.048-.288-.12t-.192-.216q0-.1.3-.324t.72-.492q.42-.264.78-.468t.456-.276a6.1,6.1,0,0,1,1,.816,9.566,9.566,0,0,1,.828.984q.648-.6,1.236-1.236t1.116-1.332l-4.368-.024a23.994,23.994,0,0,1-2.808,1.8,20.677,20.677,0,0,1-3.048,1.368q-.24.072-.744.192t-1.008.216a4.463,4.463,0,0,1-.768.1.422.422,0,0,1-.2-.06.177.177,0,0,1-.108-.156.26.26,0,0,1,.12-.192,1.2,1.2,0,0,1,.168-.12q.336-.192.684-.384a7.655,7.655,0,0,0,.66-.408A27.306,27.306,0,0,0,58.6-16.716a23.251,23.251,0,0,0,3.012-3.516l2.232.888q.264.1.516.192t.492.216a.217.217,0,0,1,.12.192q0,.1-.216.324t-.5.492q-.288.264-.552.492t-.36.3h7.128a.212.212,0,0,1,.24.24,1.272,1.272,0,0,1-.228.672,6.781,6.781,0,0,1-.42.6,17.278,17.278,0,0,1-3.336,3.216,24.4,24.4,0,0,1-3.96,2.424l.948.1.924.1a12.612,12.612,0,0,1-.276,2.364Q64.1-6.24,63.744-5.112l1.08-.408a17.221,17.221,0,0,0,2.688,3.792A11.463,11.463,0,0,0,71.328.912a2.066,2.066,0,0,1,.528-.84,1.219,1.219,0,0,1,.888-.384,1.169,1.169,0,0,1,.888.384A1.288,1.288,0,0,1,73.992.984ZM71.52-8.664q0,.192-.4.54a9.4,9.4,0,0,1-.948.72q-.552.372-1.02.66t-.636.384q-.264.144-.744.372T66.8-5.58a2.465,2.465,0,0,1-.8.18.387.387,0,0,1-.168-.048.154.154,0,0,1-.1-.144.3.3,0,0,1,.048-.168l.1-.144a21.908,21.908,0,0,0,1.488-2.184q.672-1.128,1.248-2.352.624.264,1.392.684t1.344.8A.348.348,0,0,1,71.52-8.664Zm22.3-.744a11.358,11.358,0,0,1-.852,4.644,8.415,8.415,0,0,1-2.388,3.156A11.828,11.828,0,0,1,86.976.36a24.57,24.57,0,0,1-4.488,1.08,1.349,1.349,0,0,1-.264.024H81.96q-.312,0-.312-.24,0-.168.324-.276t.42-.132q.864-.264,1.692-.54a13.482,13.482,0,0,0,1.62-.66,7.926,7.926,0,0,0,3.024-2.508,8.517,8.517,0,0,0,1.344-3.3,21.313,21.313,0,0,0,.336-3.864q0-.264-.012-.828t-.072-1.236a10.529,10.529,0,0,0-.192-1.284,3.085,3.085,0,0,0-.384-1.008.757.757,0,0,0-.66-.4,1.063,1.063,0,0,0-.864.468,7.291,7.291,0,0,0-.576.852,8.891,8.891,0,0,0-.828,2.268,10.95,10.95,0,0,0-.276,2.388q0,.552.048,1.1t.144,1.1a2.388,2.388,0,0,1,.036.252q.012.132.012.252a1.455,1.455,0,0,1-.252.876A.953.953,0,0,1,85.7-4.9a2.178,2.178,0,0,1-1.38-.48,4.13,4.13,0,0,1-1.032-1.212,6.746,6.746,0,0,1-.648-1.548A5.5,5.5,0,0,1,82.416-9.6a18.012,18.012,0,0,1,.276-3.144q.276-1.56.42-3.1.024-.216.036-.42t.012-.4a2.2,2.2,0,0,0-.192-.924,1.278,1.278,0,0,0-.672-.636.885.885,0,0,1-.156-.1.2.2,0,0,1-.06-.168.229.229,0,0,1,.252-.252q.252-.012.42-.012a5.341,5.341,0,0,1,1.572.264,3.857,3.857,0,0,1,1.464.816,1.821,1.821,0,0,1,.612,1.416,2.758,2.758,0,0,1-.12.8,5.681,5.681,0,0,1-.288.756q-.5,1.176-.9,2.364a7.8,7.8,0,0,0-.4,2.484q0,.144.012.5a2.717,2.717,0,0,0,.108.684q.1.324.312.324.144,0,.18-.3t.06-.4a16.853,16.853,0,0,1,.42-1.8,16,16,0,0,1,.672-1.884,9.306,9.306,0,0,1,.876-1.62,4.2,4.2,0,0,1,1.14-1.2,2.738,2.738,0,0,1,1.6-.456,2.7,2.7,0,0,1,1.44.432,3.6,3.6,0,0,1,1.476,1.644,8.06,8.06,0,0,1,.66,2.268A16.163,16.163,0,0,1,93.816-9.408Zm20.16,4.224V-.648a11.7,11.7,0,0,0,1.38-.276q.684-.18,1.356-.372-.456-.552-.864-1.1t-.816-1.128a14.656,14.656,0,0,0,1.776-.792q.864-.456,1.752-.864ZM112.488-12.7v-1.56h-1.032v1.56Zm0-2.448V-16.68h-1.032v1.536Zm3.36,2.448v-1.56h-1.08v1.56Zm0-2.448V-16.68h-1.08v1.536Zm3.7-1.536h-1.368V-15.5a1.275,1.275,0,0,0,.18-.012,1.274,1.274,0,0,1,.18-.012.67.67,0,0,1,.492.2.67.67,0,0,1,.2.492.562.562,0,0,1-.348.576,1.836,1.836,0,0,1-.708.144V-12.7a1.575,1.575,0,0,0,1.008-.288,1.16,1.16,0,0,0,.36-.96ZM107.256-6.768a.412.412,0,0,1-.024.168q-.336,1.584-.876,3.3A25.923,25.923,0,0,1,105.12-.1a5.65,5.65,0,0,1-.3.564.589.589,0,0,1-.54.3,1.258,1.258,0,0,1-.552-.252,8.976,8.976,0,0,1-.828-.624q-.444-.372-.816-.7t-.516-.468q.912-.96,1.824-1.932t1.776-2q.336-.408.66-.828t.66-.8a1.614,1.614,0,0,1,.2-.216.372.372,0,0,1,.228-.12.282.282,0,0,1,.264.12A.55.55,0,0,1,107.256-6.768Zm-.192-3.192a.434.434,0,0,1-.18.372.655.655,0,0,1-.4.132.728.728,0,0,1-.216-.024q-1.128-.264-2.256-.6a18.51,18.51,0,0,0-2.3-.528l1.128-2.04q.12-.216.324-.516a.589.589,0,0,1,.492-.3,1.715,1.715,0,0,1,.852.42,9.954,9.954,0,0,1,1.152,1.02,9.743,9.743,0,0,1,1,1.176A1.788,1.788,0,0,1,107.064-9.96ZM124.152.984a.868.868,0,0,1-.372.732,1.29,1.29,0,0,1-.78.276,6.68,6.68,0,0,1-3.1-.78,10.423,10.423,0,0,1-2.616-1.884,6.132,6.132,0,0,1-2.652,1.824,9.819,9.819,0,0,1-3.2.6l.024-6.936h-.528a10.627,10.627,0,0,1-.972,3.468,8.429,8.429,0,0,1-2.2,2.844q-.144.12-.444.36a5.459,5.459,0,0,1-.6.42,1.032,1.032,0,0,1-.492.18q-.216,0-.216-.168a.249.249,0,0,1,.072-.156.734.734,0,0,0,.1-.132A11.38,11.38,0,0,0,107.028.24a10.57,10.57,0,0,0,.636-1.512,12.038,12.038,0,0,0,.6-2.916q.12-1.5.12-2.964,0-.912-.024-1.8t-.024-1.776h12.12a1.311,1.311,0,0,1,.4-.864,1.155,1.155,0,0,1,.852-.384,1.956,1.956,0,0,1,1.008.3.961.961,0,0,1,.5.876.951.951,0,0,1-.408.864,1.728,1.728,0,0,1-.96.264H111.1v2.16q0,.312-.024.636t-.024.66h9.744a.889.889,0,0,1,.42-.768,1.493,1.493,0,0,1,.852-.288,1.287,1.287,0,0,1,.828.3.955.955,0,0,1,.372.78.9.9,0,0,1-.324.756,1.27,1.27,0,0,1-.8.252h-1.512a3.462,3.462,0,0,1,.336.324q.24.252.456.5t.216.348a.288.288,0,0,1-.24.288,1.562,1.562,0,0,1-.516.108,3.983,3.983,0,0,0-.54.06q-.5.072-1,.156t-1,.156a7.107,7.107,0,0,0,.888,1.5,12.513,12.513,0,0,0,1.332,1.512A8.178,8.178,0,0,0,121.92.864,1.105,1.105,0,0,1,122.3.192a1.082,1.082,0,0,1,.72-.264,1.164,1.164,0,0,1,.78.3A.956.956,0,0,1,124.152.984ZM107.808-15.144a.411.411,0,0,1-.18.348.622.622,0,0,1-.372.132,3.733,3.733,0,0,1-.732-.18q-.588-.18-1.344-.444t-1.428-.48q-.672-.216-.96-.288.12-.192.336-.552t.456-.78q.24-.42.456-.756a3.087,3.087,0,0,1,.312-.432,1.669,1.669,0,0,1,.2-.144.46.46,0,0,1,.228-.048.757.757,0,0,1,.408.12,3.335,3.335,0,0,1,.648.576q.432.456.888,1.044a11.707,11.707,0,0,1,.768,1.1A1.748,1.748,0,0,1,107.808-15.144ZM120.24-8.28a.713.713,0,0,1-.384.684,1.668,1.668,0,0,1-.792.2H112.2V-8.4h5.976a.918.918,0,0,1,.384-.624,1.2,1.2,0,0,1,.7-.216.957.957,0,0,1,.672.3A.9.9,0,0,1,120.24-8.28Zm1.968-5.592a1.7,1.7,0,0,1-.552,1.4,2.758,2.758,0,0,1-1.344.564,10.252,10.252,0,0,1-1.536.12h-9.888v-5.928h3.552v-2.064h2.376v2.064h1.008v-2.04h2.424v2.04h3.96Zm20.976-.984h-7.056v1.872h4.1a1.314,1.314,0,0,1,.372-.732,1.025,1.025,0,0,1,.756-.3,1.029,1.029,0,0,1,.732.312.972.972,0,0,1,.324.72.766.766,0,0,1-.372.72,1.574,1.574,0,0,1-.8.216h-5.112v1.512h5.856a.96.96,0,0,0,.948-.5,2.434,2.434,0,0,0,.252-1.1Zm5.808,10.224a.99.99,0,0,1-.528,1.008,2.81,2.81,0,0,1-1.176.24h-6.216q.048.384.072.792t.024.816a10.574,10.574,0,0,1-.192,2.052,3.023,3.023,0,0,1-.816,1.6,2.69,2.69,0,0,1-1.968.624,2.9,2.9,0,0,1-1.344-.348,6.584,6.584,0,0,1-1.26-.852,11.022,11.022,0,0,1-1.02-.984A.279.279,0,0,0,134.52.24.1.1,0,0,1,134.5.168q0-.072.12-.072a.79.79,0,0,1,.24.048,2.388,2.388,0,0,1,.36.072l.336.1a8.107,8.107,0,0,0,.864.144A8.038,8.038,0,0,0,137.3.5a.792.792,0,0,0,.66-.288,1.75,1.75,0,0,0,.324-.684,3.122,3.122,0,0,0,.1-.732q0-.552-.012-1.128t-.06-1.056h-6.864v-1.08h6.72q-.048-.48-.132-.936t-.18-.912l2.016.168a12.491,12.491,0,0,0,1.824-1.3h-7.92v-.984q2.28-.048,4.56-.048h6.72a.6.6,0,0,1,.264.048q.1.048.1.24,0,.552-.792,1.128a7.164,7.164,0,0,1-1.38.744q-.8.336-1.536.564t-1.14.348a4.007,4.007,0,0,1,.156.468q.06.228.108.468h5.3a1.586,1.586,0,0,1,.432-.984,1.291,1.291,0,0,1,.984-.408,1.666,1.666,0,0,1,.96.336A1.036,1.036,0,0,1,148.992-4.632Zm-.648-14.136a1.214,1.214,0,0,1-.492,1.08,2.056,2.056,0,0,1-1.188.336H132.048q0,1.92-.012,3.84t-.108,3.84a19.7,19.7,0,0,1-.4,3.072,17.12,17.12,0,0,1-.9,2.976,9.421,9.421,0,0,1-.732,1.44A14.474,14.474,0,0,1,128.88-.72a8.8,8.8,0,0,1-1.1,1.176q-.192.168-.5.408a.973.973,0,0,1-.576.24q-.264,0-.264-.24a.342.342,0,0,1,.06-.2A1.34,1.34,0,0,0,126.6.48a18.456,18.456,0,0,0,1.116-2.1,12.744,12.744,0,0,0,.756-2.244,19.221,19.221,0,0,0,.5-3.18q.12-1.62.12-3.228,0-2.04-.012-4.08t-.012-4.08H145.3a1.779,1.779,0,0,1,.42-1.116,1.327,1.327,0,0,1,1.068-.468,1.9,1.9,0,0,1,1.02.348A1.039,1.039,0,0,1,148.344-18.768Zm-2.256,5.88a4.03,4.03,0,0,1-.468,2.136,2.324,2.324,0,0,1-1.356,1.008,7.661,7.661,0,0,1-2.16.264h-8.472v-6.408h12.456ZM156.96-16.1h-2.04v9.768h.552a1.151,1.151,0,0,0,.972-.42,2.329,2.329,0,0,0,.432-1.044,6.637,6.637,0,0,0,.1-1.26q-.012-.636-.012-1.068Zm2.64,6.5a7.825,7.825,0,0,1-.312,2.424,2.341,2.341,0,0,1-1.14,1.38,5.288,5.288,0,0,1-2.436.444h-3.288V-17.088H159.6Zm15.48,8.592a.83.83,0,0,1-.384.672,1.25,1.25,0,0,1-.744.288,3.578,3.578,0,0,1-1.98-.564A15.772,15.772,0,0,1,170.3-1.848q-.552-.5-1.176-1.2A16.813,16.813,0,0,1,167.964-4.5q-.54-.756-.924-1.38V2.064h-2.784V-5.544a16.324,16.324,0,0,1-3.156,3.5,17.716,17.716,0,0,1-4.044,2.4q-.192.072-.624.264t-.864.36a2.031,2.031,0,0,1-.6.168.33.33,0,0,1-.168-.06.179.179,0,0,1-.1-.156.284.284,0,0,1,.108-.216.964.964,0,0,1,.2-.144q.384-.24.732-.468t.708-.492a16.657,16.657,0,0,0,2.436-2.22,18.139,18.139,0,0,0,2.028-2.712,14.414,14.414,0,0,0,1.392-2.964l1.944.6V-9.336h-4.032v-1.128h4.032v-3.7h-3.6v-1.128h3.6v-4.08h2.784v4.08h2.376a1.6,1.6,0,0,1,.456-1.02,1.349,1.349,0,0,1,1.008-.42,1.48,1.48,0,0,1,.948.36,1.125,1.125,0,0,1,.444.912,1.108,1.108,0,0,1-.456.984,1.866,1.866,0,0,1-1.08.312h-3.7v3.7H171.1a1.366,1.366,0,0,1,.456-.96,1.394,1.394,0,0,1,.984-.408,1.411,1.411,0,0,1,.96.384,1.206,1.206,0,0,1,.432.936,1.015,1.015,0,0,1-.432.852,1.5,1.5,0,0,1-.912.324H167.04v1.7l1.992-.672a11.978,11.978,0,0,0,.624,1.62q.432.948,1,1.956a19.877,19.877,0,0,0,1.164,1.848,7.416,7.416,0,0,0,1.128,1.3,2.635,2.635,0,0,1,.468-.408A1.011,1.011,0,0,1,174-2.184a.981.981,0,0,1,.78.348A1.227,1.227,0,0,1,175.08-1.008Zm6.84-14.352h-1.608v9.984h.5a.781.781,0,0,0,.756-.468A3.115,3.115,0,0,0,181.86-6.9q.06-.588.06-.948ZM194.76-5.28H189.1v2.448h2.952a.921.921,0,0,1,.312-.744,1.148,1.148,0,0,1,.768-.264,1.082,1.082,0,0,1,.72.264.842.842,0,0,1,.312.672,1.1,1.1,0,0,1-.276.732.888.888,0,0,1-.708.324H189.1V.744h4.368A1.015,1.015,0,0,0,194.5.132,3.1,3.1,0,0,0,194.76-1.1Zm-4.392-3.48v-2.448H188.04V-8.76Zm0-3.408v-2.568H188.04v2.568Zm5.5-2.568h-2.928v2.568h.528a.937.937,0,0,1,1.032-.864.91.91,0,0,1,.672.264.91.91,0,0,1,.264.672.807.807,0,0,1-.3.624.95.95,0,0,1-.636.264h-1.56V-8.76h1.3a1.372,1.372,0,0,0,1.212-.624,2.361,2.361,0,0,0,.42-1.344Zm-11.4,5.856a10.186,10.186,0,0,1-.252,2.4,2.675,2.675,0,0,1-1.032,1.6,4.04,4.04,0,0,1-2.364.564H177.84V-16.464h6.624ZM197.4-1.152a3.053,3.053,0,0,1-.48,1.86,2.435,2.435,0,0,1-1.308.876,6.871,6.871,0,0,1-1.908.24H186.48V-6.36H197.4Zm1.176-9.528a2.815,2.815,0,0,1-.528,1.824,2.8,2.8,0,0,1-1.392.912,6.465,6.465,0,0,1-1.9.264h-9.144v-8.136h7.08q.312-1.1.612-2.208t.588-2.208l1,.252q.612.156,1.2.348a4.784,4.784,0,0,1,.876.36.407.407,0,0,1,.216.336q0,.168-.456.6t-1.08.96q-.624.528-1.176.96t-.744.6h4.848Zm-8.4-6.192q0,.624-.648.624a.638.638,0,0,1-.288-.06,1.359,1.359,0,0,1-.24-.156,4.33,4.33,0,0,1-.444-.408q-.2-.216-.42-.408-.456-.48-.924-.936t-.948-.912q.192-.1.612-.276t.912-.384q.492-.2.912-.348a2.227,2.227,0,0,1,.564-.144.432.432,0,0,1,.336.168,1.385,1.385,0,0,1,.2.54q.108.444.192,1.008t.132,1.032Q190.176-17.064,190.176-16.872ZM23.568,14.792q0,.384-.264.432a2.946,2.946,0,0,1-.528.048,1.375,1.375,0,0,0-.576.12.842.842,0,0,0-.408.408,4.121,4.121,0,0,0-.192.672q-.072.36-.144.672-.792,3.768-1.692,7.512T18,32.168H15.24q-.792-3-1.68-5.952t-1.728-5.928q-.84,2.976-1.752,5.94t-1.824,5.94H5.664q-.5-2.64-1.056-5.256T3.48,21.68l-.768-3.528q-.1-.48-.192-.972T2.3,16.232a1.3,1.3,0,0,0-.348-.684.753.753,0,0,0-.5-.144q-.3.012-.732.012a.375.375,0,0,1-.348-.18.714.714,0,0,1-.108-.372.344.344,0,0,1,.18-.288.6.6,0,0,1,.324-.12q.7,0,1.416.036t1.44.036q.864,0,1.716-.036t1.692-.036a.4.4,0,0,1,.3.144.43.43,0,0,1,.132.288.478.478,0,0,1-.12.312.387.387,0,0,1-.312.144q-.168,0-.324-.012t-.324-.012a.742.742,0,0,0-.516.132.7.7,0,0,0-.132.492q0,.12.012.252a2.387,2.387,0,0,0,.036.252q.48,3.12,1.092,6.24t1.14,6.264Q8.688,26.6,9.408,24.26t1.32-4.692q.216-.768.4-1.524t.372-1.5q.072-.336.156-.66t.18-.636a.99.99,0,0,1,.276-.456.859.859,0,0,1,.516-.12,2.7,2.7,0,0,1,.528.048.5.5,0,0,1,.36.336,1.7,1.7,0,0,1,.2.588q.06.348.132.636.216.768.432,1.548t.432,1.572q.7,2.4,1.38,4.788T17.472,29q.336-1.7.708-3.4t.684-3.4q.24-1.32.492-2.64t.42-2.64q.048-.288.072-.588t.024-.588a.793.793,0,0,0-.132-.348q-.132-.228-.3-.228h-.576a4.469,4.469,0,0,0-.468.024,4.714,4.714,0,0,1-.492.024.355.355,0,0,1-.276-.12.416.416,0,0,1-.108-.288q0-.432.36-.432.432,0,.876.024t.876.024q.888,0,1.752-.024t1.752-.024Q23.568,14.384,23.568,14.792Zm23.4,6.792a.831.831,0,0,1-.5.768,1.968,1.968,0,0,1-.888.264q-.12,0-.24-.012t-.24-.036a18.554,18.554,0,0,0-1.9-.192q-.96-.048-1.92-.048h-.84a7.607,7.607,0,0,0-.84.048q-.144,1.344-.372,2.52a11.792,11.792,0,0,1-.636,2.184,9.178,9.178,0,0,1-1.5,2.616,9.326,9.326,0,0,1-3.66,2.628q-.7.276-1.608.54a8.178,8.178,0,0,1-.936.2,6.073,6.073,0,0,1-.96.108l-.048-.1a10.038,10.038,0,0,0,2.28-1.344,11.043,11.043,0,0,0,1.752-1.656,11.694,11.694,0,0,0,1.908-3.336,15.177,15.177,0,0,0,.8-4.08,6.465,6.465,0,0,0-.768.168q-.552.144-1.248.348t-1.392.432q-.7.228-1.248.42a5.518,5.518,0,0,0-.768.312,1.41,1.41,0,0,1-.216.132.638.638,0,0,1-.288.06,1.881,1.881,0,0,1-.66-.156,3.633,3.633,0,0,1-.684-.348,2.477,2.477,0,0,1-1.248-2.3,2.672,2.672,0,0,0,1.044.252,10.986,10.986,0,0,0,1.14.012q.336-.024,1.092-.1t1.7-.18q.948-.108,1.9-.228t1.668-.24a5.859,5.859,0,0,0,.012-.636q-.012-.276-.012-.66,0-.192-.012-.6t-.06-.8a1.273,1.273,0,0,0-.168-.564q-.936.216-1.62.324t-1.428.18q-.744.072-1.92.144a12.154,12.154,0,0,1-1.62-.012q-.8-.06-1.092-.108,0-.192.144-.216.552-.1,1.08-.216.912-.216,2.148-.612a20.379,20.379,0,0,0,2.46-.972q1.2-.552,2.244-1.08a5.66,5.66,0,0,0,1.62-1.152.41.41,0,0,0,.072-.192q.024-.1-.2-.3a1.3,1.3,0,0,0-.444-.276,1.041,1.041,0,0,1,.5-.348,2.147,2.147,0,0,1,.816-.156,3,3,0,0,1,.768.084q.312.084.456.132a6.92,6.92,0,0,1,1.068.528,5.18,5.18,0,0,1,.96.72,1.078,1.078,0,0,1,.4.744.823.823,0,0,1-.252.624,1.4,1.4,0,0,1-.588.336,7.091,7.091,0,0,1-.816.36q-.5.192-1.056.4t-1.008.348q-.456.144-.672.216a2.683,2.683,0,0,1,1.272.552,1.032,1.032,0,0,1,.432.7.817.817,0,0,1-.144.36,1.161,1.161,0,0,1-.24.312q-.024.432-.012.732t-.012.732a13.417,13.417,0,0,0,1.98-.408q1.02-.288,2.1-.6a4.831,4.831,0,0,1,1.284.12,3.4,3.4,0,0,1,1.188.552,3.472,3.472,0,0,1,.48.42A.888.888,0,0,1,46.968,21.584Zm23.112.24a.658.658,0,0,1-.336.576,2.393,2.393,0,0,1-.576.288q-.528.528-1.116,1.128a16.729,16.729,0,0,1-1.284,1.176,13.343,13.343,0,0,1-1.116.864,10.431,10.431,0,0,1-1.092.672.391.391,0,0,0-.108.036.364.364,0,0,1-.132.036.453.453,0,0,1-.144-.024.111.111,0,0,1-.072-.12q0-.1.168-.264a7.681,7.681,0,0,0,.624-.864q.336-.528.612-1.032t.4-.744a4.065,4.065,0,0,0,.288-.732,2.172,2.172,0,0,0,.1-.516.393.393,0,0,0-.12-.288.307.307,0,0,0-.312-.072,9.275,9.275,0,0,0-.936.18,9.486,9.486,0,0,0-1.008.324,7.51,7.51,0,0,0-.732.276,7.411,7.411,0,0,0-.756.372q.168.552.4,1.428t.492,1.884q.264,1.008.5,1.992t.432,1.752q.192.768.264,1.152.048.168.084.312a1.183,1.183,0,0,1,.036.288,1.862,1.862,0,0,1-.468,1.3,1.338,1.338,0,0,1-.972.456q-.84,0-1.152-1.992-.144-.816-.264-1.848T61.44,27.56q-.192-.984-.372-2.028T60.7,23.72a15.373,15.373,0,0,0-1.6.768,12.291,12.291,0,0,0-1.476.96,1.657,1.657,0,0,1-.348.192,1.126,1.126,0,0,1-.42.072.831.831,0,0,1-.24-.036q-.12-.036-.24-.06a2.921,2.921,0,0,1-1.248-.756,1.954,1.954,0,0,1-.456-1.38.3.3,0,0,1,.24-.336,2.252,2.252,0,0,0,.588.252,2.927,2.927,0,0,0,1,.108,7.741,7.741,0,0,0,1.164-.24q.708-.192,1.464-.432t1.308-.384q-.168-.672-.372-1.248t-.42-1.176a2.016,2.016,0,0,0-.528-.8,1.144,1.144,0,0,0-.672-.324q-.144-.048-.048-.192a1.748,1.748,0,0,1,.612-.66,2,2,0,0,1,1.044-.228,2.39,2.39,0,0,1,.936.192,2.229,2.229,0,0,1,.72.456.707.707,0,0,1,.288.648q-.024.216-.048.384a2.549,2.549,0,0,0-.024.36,4.912,4.912,0,0,0,.108,1.032q.108.5.2,1.032l1.38-.528q.756-.288,1.356-.528a3.252,3.252,0,0,0,1.152-.648.781.781,0,0,1,.324-.18A1.437,1.437,0,0,1,66.768,20a2.994,2.994,0,0,1,.516.06,5.42,5.42,0,0,1,.564.132,4.664,4.664,0,0,1,1.872.936,1.439,1.439,0,0,1,.264.288A.733.733,0,0,1,70.08,21.824Zm28.128,1.392a1.071,1.071,0,0,1-.492.936,2.352,2.352,0,0,1-1.188.384h-2q-.78,0-1.428-.024-.312,0-.588-.012t-.564-.012q-2.112,0-3.792.06t-3.5.132q-.336.024-1.032.084t-1.488.144q-.792.084-1.44.144a8.547,8.547,0,0,0-.864.108,3.418,3.418,0,0,1-1.992-.564,1.945,1.945,0,0,1-.816-1.716,2.2,2.2,0,0,1,.2-.84.915.915,0,0,1,.516-.576,2.031,2.031,0,0,0,.78.72,3.313,3.313,0,0,0,.972.324,5.376,5.376,0,0,0,.864.084q.768,0,1.536.012t1.536-.012q1.272-.072,2.268-.144t2.268-.216q1.272-.144,2.232-.276t1.788-.324q.828-.192,1.668-.456a9.107,9.107,0,0,1,1.944.252,6.612,6.612,0,0,1,1.56.564,3.222,3.222,0,0,1,.684.528A1.009,1.009,0,0,1,98.208,23.216Zm12.36-.5a1.945,1.945,0,0,1-.288.936,1.519,1.519,0,0,1-.7.648,1.687,1.687,0,0,1-.912.168,2.058,2.058,0,0,1-.636-.192.983.983,0,0,1-.516-.48,3.509,3.509,0,0,0-.24-.36,2.819,2.819,0,0,1-.264-.432,8.818,8.818,0,0,0-1.332-1.776,6.493,6.493,0,0,0-1.188-.96,1.543,1.543,0,0,1,.732-.276,5.708,5.708,0,0,1,.912-.048q.468.012.8.036a5.9,5.9,0,0,1,1.188.24,5.622,5.622,0,0,1,1.212.528,2.9,2.9,0,0,1,.924.828A1.7,1.7,0,0,1,110.568,22.712ZM123,18.488q0,.024-.228.516t-.588,1.116q-.48.84-1.128,1.9t-1.32,2.028a14.711,14.711,0,0,1-1.248,1.6,22.622,22.622,0,0,1-4.02,3.42,29.221,29.221,0,0,1-5.268,2.748q-.216.1-.444.18a1.412,1.412,0,0,1-.492.084,3.486,3.486,0,0,1-1.128-.216,3.367,3.367,0,0,1-1.08-.6,2.711,2.711,0,0,1-.732-1.056,3.327,3.327,0,0,1-.228-1.188,2.436,2.436,0,0,1,.168-.972,1.244,1.244,0,0,1,.132-.2q.084-.108.156-.108a1.769,1.769,0,0,0,.48.576l.432.312a.91.91,0,0,0,.432.072,4.518,4.518,0,0,0,.756-.072q.42-.072.54-.1a12.292,12.292,0,0,0,1.944-.648,27.328,27.328,0,0,0,2.772-1.332q1.524-.828,3.06-1.86a30.011,30.011,0,0,0,3.588-2.892A21.824,21.824,0,0,0,122.4,18.56q.048-.072.156-.2a.289.289,0,0,1,.2-.132q.168,0,.2.084A.452.452,0,0,1,123,18.488ZM112.824,17.36a1.919,1.919,0,0,1-.216.912,1.588,1.588,0,0,1-.7.66,2.07,2.07,0,0,1-.936.228A1.5,1.5,0,0,1,110.16,19a2.774,2.774,0,0,1-.432-.4q-.24-.288-.576-.72a8.121,8.121,0,0,0-1.6-1.656,8.649,8.649,0,0,0-1.38-.888,1.776,1.776,0,0,1,.732-.324,6.311,6.311,0,0,1,.96-.144q.492-.036.828-.036a7.506,7.506,0,0,1,1.08.084,6.05,6.05,0,0,1,1.176.3,3.85,3.85,0,0,1,1.32.876A1.762,1.762,0,0,1,112.824,17.36Zm33.264,12.6a.93.93,0,0,1-.192.6.693.693,0,0,1-.576.24,2.979,2.979,0,0,1-.792-.12q-.984-.216-2.016-.4a11.991,11.991,0,0,0-2.064-.18q-1.752,0-3.48.12a15.1,15.1,0,0,0-3.432.648q-.288.1-.588.168a3.882,3.882,0,0,0-.588.192,1.7,1.7,0,0,1-.72.144,1.84,1.84,0,0,1-.8-.2,3.481,3.481,0,0,1-.732-.468,1.9,1.9,0,0,1-.48-.72,2.369,2.369,0,0,1-.168-.864.492.492,0,0,1,.06-.216.247.247,0,0,1,.156-.144,1.819,1.819,0,0,0,.984.456,6.9,6.9,0,0,0,1.08.1,11.461,11.461,0,0,0,1.164-.06q.588-.06,1.164-.084.984-.072,1.956-.156t1.956-.156q.12-.768.216-1.536l.192-1.536q.048-.552.12-1.1a8.346,8.346,0,0,0,.072-1.08.464.464,0,0,0-.144-.408.733.733,0,0,0-.408-.1,3.847,3.847,0,0,0-.924.168q-.612.168-1.224.4t-.924.372q-.24.1-.552.192a1.969,1.969,0,0,1-.576.1,1.335,1.335,0,0,1-.756-.276,2.511,2.511,0,0,1-.66-.672,1.373,1.373,0,0,1-.264-.756q0-.1.012-.3a.449.449,0,0,1,.108-.3.9.9,0,0,0,.672.372,5.126,5.126,0,0,0,.792.084,5.438,5.438,0,0,0,.912-.12q.624-.12,1.356-.288t1.344-.348a5.845,5.845,0,0,0,.852-.3,4.238,4.238,0,0,0,.456-.24.926.926,0,0,1,.48-.144,2.457,2.457,0,0,1,1.092.312,5.683,5.683,0,0,1,1,.624,2.159,2.159,0,0,1,.42.444.976.976,0,0,1,.156.564.67.67,0,0,1-.2.492l-.4.4q-.288,1.2-.612,2.412t-.636,2.412q.5-.048,1.02-.108t1.02-.156q.264-.048.8-.18a3.777,3.777,0,0,1,.756-.132,2.787,2.787,0,0,1,1.056.252,3.57,3.57,0,0,1,1.044.66A1.241,1.241,0,0,1,146.088,29.96Zm27.72-6.744a1.071,1.071,0,0,1-.492.936,2.352,2.352,0,0,1-1.188.384h-2q-.78,0-1.428-.024-.312,0-.588-.012t-.564-.012q-2.112,0-3.792.06t-3.5.132q-.336.024-1.032.084t-1.488.144q-.792.084-1.44.144a8.547,8.547,0,0,0-.864.108,3.418,3.418,0,0,1-1.992-.564,1.945,1.945,0,0,1-.816-1.716,2.2,2.2,0,0,1,.2-.84.915.915,0,0,1,.516-.576,2.031,2.031,0,0,0,.78.72,3.313,3.313,0,0,0,.972.324,5.376,5.376,0,0,0,.864.084q.768,0,1.536.012t1.536-.012q1.272-.072,2.268-.144t2.268-.216q1.272-.144,2.232-.276t1.788-.324q.828-.192,1.668-.456a9.107,9.107,0,0,1,1.944.252,6.613,6.613,0,0,1,1.56.564,3.223,3.223,0,0,1,.684.528A1.009,1.009,0,0,1,173.808,23.216Z" transform="translate(-0.12 20.472)" fill="#e7b81e"/></svg>