<svg xmlns="http://www.w3.org/2000/svg" width="407.412" height="33.228" viewBox="0 0 407.412 33.228"><path d="M13.464-27.684a31.516,31.516,0,0,1-1.836,3.654q-1.044,1.782-2.2,3.474V2.016H5.292V-15.372q-.324.288-.972.828t-1.4,1.116a14.968,14.968,0,0,1-1.458.99,2.418,2.418,0,0,1-1.1.414q-.288,0-.288-.216a.387.387,0,0,1,.072-.216,1.761,1.761,0,0,0,.108-.18q1.044-1.3,1.98-2.718T4-18.252A52.818,52.818,0,0,0,6.642-23.76a43.74,43.74,0,0,0,1.926-5.8ZM35.388-1.116A1.73,1.73,0,0,1,34.74.414a2.773,2.773,0,0,1-1.62.45H13.032V-.72h8.5v-9.324H18.036q-.54.9-1.386,2.034A28.53,28.53,0,0,1,14.8-5.778,25.907,25.907,0,0,1,12.78-3.8a9.132,9.132,0,0,1-1.872,1.314,3.273,3.273,0,0,1-.342.144,1.106,1.106,0,0,1-.378.072q-.36,0-.36-.324a.889.889,0,0,1,.216-.5q.432-.54.846-1.08t.774-1.116A38.759,38.759,0,0,0,14.22-9.774a50.109,50.109,0,0,0,2.106-4.968,41.544,41.544,0,0,0,1.458-4.914H11.808v-1.692h6.444q.5-1.908.864-3.834t.576-3.906L24.84-28.08q-.36,1.692-.81,3.384T23-21.348h7.6a2.247,2.247,0,0,1,.666-1.548,2.068,2.068,0,0,1,1.566-.72,2.232,2.232,0,0,1,1.53.594,1.917,1.917,0,0,1,.666,1.494,1.629,1.629,0,0,1-.648,1.386,2.4,2.4,0,0,1-1.476.486H22.5q-.792,2.052-1.656,4.05a36.153,36.153,0,0,1-1.98,3.906h9.648a2.174,2.174,0,0,1,.684-1.476,2.033,2.033,0,0,1,1.476-.648,2.141,2.141,0,0,1,1.422.576,1.755,1.755,0,0,1,.666,1.368,1.691,1.691,0,0,1-.594,1.3,1.952,1.952,0,0,1-1.35.54H25.848V-.72h5.076a3.02,3.02,0,0,1,.63-1.728,1.971,1.971,0,0,1,1.674-.792,1.987,1.987,0,0,1,1.548.684A2.138,2.138,0,0,1,35.388-1.116ZM46.4-14.508v-5.04H44.568v5.04Zm0-6.408v-5.4H44.568v5.4Zm5.544-5.4H50.184v4.824a.959.959,0,0,1,.432-.108.977.977,0,0,1,.72.288.977.977,0,0,1,.288.72q0,.684-.432.864a2.607,2.607,0,0,1-1.008.18v5.04h.288A1.17,1.17,0,0,0,51.5-14.94,2.246,2.246,0,0,0,51.876-16a10.082,10.082,0,0,0,.072-1.134Zm5.436,20.88a.408.408,0,0,1-.108.27q-.108.126-.18.2a6.509,6.509,0,0,1-1.026.81q-.63.414-1.134.7a23.185,23.185,0,0,1-4.662,2.124A49.576,49.576,0,0,1,45.2.054Q42.624.612,40.212,1.08L38.268-2.412q2.016-.252,4.05-.522t4.014-.63V-7.74H40.32V-9.36h6.012v-3.6H40.68V-27.828h15.3V-18.5q0,3.132-1.35,4.3a6.952,6.952,0,0,1-4.41,1.242v3.6h2.052a1.854,1.854,0,0,1,.63-1.17,1.84,1.84,0,0,1,1.242-.45,1.841,1.841,0,0,1,1.206.468,1.448,1.448,0,0,1,.558,1.152,1.448,1.448,0,0,1-.522,1.206,1.992,1.992,0,0,1-1.278.414H50.22v3.564q.936-.18,1.872-.378t1.836-.378q.72-.18,1.44-.342t1.4-.306a.936.936,0,0,1,.288-.036Q57.384-5.616,57.384-5.436ZM72.864-16.56a5.708,5.708,0,0,1-.27,1.746,13.131,13.131,0,0,1-.666,1.674q-.252.468-.756,1.26a16.371,16.371,0,0,1-1.17,1.6,9.736,9.736,0,0,1-1.35,1.368,2.1,2.1,0,0,1-1.3.558q-.5,0-.5-.468a.936.936,0,0,1,.036-.288q.36-1.26.7-2.934a26.013,26.013,0,0,0,.45-2.934H65.3q0,3.348.018,6.732t.018,6.768a6.343,6.343,0,0,1-1.008,3.69A3.943,3.943,0,0,1,60.84,3.672,4.7,4.7,0,0,1,58.68,3.1a12.656,12.656,0,0,1-2.106-1.368q-.99-.792-1.782-1.44-.144-.144-.144-.216,0-.18.252-.18a.3.3,0,0,1,.09.018.3.3,0,0,0,.09.018q.4.108.81.216t.81.18q.684.144,1.386.252a9.105,9.105,0,0,0,1.386.108,1.216,1.216,0,0,0,1.1-.522A2.865,2.865,0,0,0,61-1.062a9.9,9.9,0,0,0,.09-1.242V-9.9q0-2.556-.036-5.076h-4.5V-16.56ZM70.74-27.936a8.753,8.753,0,0,1-2.016,5.094,11.829,11.829,0,0,1-4.5,3.222q.216.36.576,1.116a3.007,3.007,0,0,1,.36,1.152.879.879,0,0,1-.162.468.48.48,0,0,1-.414.252,1.465,1.465,0,0,1-.792-.252q-.468-.288-.918-.612t-.882-.684q-1.188-.936-2.448-1.782t-2.52-1.674q.18-.18.63-.594t.99-.9a12.942,12.942,0,0,1,1.008-.828,1.591,1.591,0,0,1,.612-.342q.18,0,.612.4a11.907,11.907,0,0,1,.918.954q.486.558.882,1.062t.54.72a16.632,16.632,0,0,0,1.53-2.466,12.076,12.076,0,0,0,.99-2.682H57.42v-1.62ZM105.624-16.02a1.108,1.108,0,0,1-.216.684,3.572,3.572,0,0,1-.9.72,19.076,19.076,0,0,1-1.3,3.348A29.833,29.833,0,0,1,101.286-7.9,23.166,23.166,0,0,1,99.18-5.148a19.321,19.321,0,0,1-2.79,2.484A19.217,19.217,0,0,1,92.916-.648a24.43,24.43,0,0,1-4.3,1.422,30.7,30.7,0,0,1-4.554.7q-.612.036-1.224.054t-.972.018q-.144,0-.4.018T81.18,1.3a.223.223,0,0,1,.162-.234q.162-.054.306-.09A15.892,15.892,0,0,0,83.52.612a20.74,20.74,0,0,0,4.23-1.6,22.294,22.294,0,0,0,3.96-2.556A19.669,19.669,0,0,0,94.932-6.8a25.559,25.559,0,0,0,1.926-2.88A20.729,20.729,0,0,0,98.37-12.87a8.356,8.356,0,0,0,.594-2.862q-.036-.576-.756-.576-.18,0-.414.018a3.5,3.5,0,0,0-.414.054q-1.3.216-2.808.5t-3.042.63q-1.53.342-2.826.666t-2.124.612q-.252.144-.486.27a1.245,1.245,0,0,1-.594.126,3.4,3.4,0,0,1-1.08-.18,4.268,4.268,0,0,1-2-1.314,3.744,3.744,0,0,1-.846-2.286,2.68,2.68,0,0,1,.018-.684,1.886,1.886,0,0,1,.414-.864,2.888,2.888,0,0,0,1.17.774,8.138,8.138,0,0,0,1.6.45,8.166,8.166,0,0,0,1.332.144q.9,0,2.43-.108t3.2-.252q1.674-.144,3.06-.306t2.034-.27a10.527,10.527,0,0,0,1.242-.342,8.494,8.494,0,0,0,.99-.378,8.034,8.034,0,0,1,.774-.324,3.968,3.968,0,0,1,.738-.216,3.645,3.645,0,0,1,1.278.234,6.245,6.245,0,0,1,1.1.522q.5.324,1.134.792a7.18,7.18,0,0,1,1.08.972A1.559,1.559,0,0,1,105.624-16.02Zm-4.68-7.74a.974.974,0,0,1-.576.936,5.519,5.519,0,0,1-.972.4q-1.044.252-2.448.468t-2.826.36q-1.422.144-2.538.144a11.3,11.3,0,0,1-2.43-.216,4.132,4.132,0,0,1-1.71-.828,10.448,10.448,0,0,1-1.656-1.8q-.144-.18-.36-.432a.721.721,0,0,1-.216-.4q0-.432.36-.432a.83.83,0,0,1,.45.2,1.835,1.835,0,0,0,.486.27q.612.144,1.116.27a4.239,4.239,0,0,0,1.224.09,29.723,29.723,0,0,0,3.168-.4,21.6,21.6,0,0,0,3.708-.972q.4-.144.792-.27a2.6,2.6,0,0,1,.792-.126,5.412,5.412,0,0,1,1.044.162,4.019,4.019,0,0,1,.972.306,3.415,3.415,0,0,1,1.08.864A2.061,2.061,0,0,1,100.944-23.76Zm46.368,10.584a1.607,1.607,0,0,1-.738,1.4,3.529,3.529,0,0,1-1.782.576h-3.006q-1.17,0-2.142-.036-.468,0-.882-.018t-.846-.018q-3.168,0-5.688.09t-5.256.2q-.5.036-1.548.126t-2.232.216q-1.188.126-2.16.216a12.82,12.82,0,0,0-1.3.162,5.127,5.127,0,0,1-2.988-.846,2.917,2.917,0,0,1-1.224-2.574,3.3,3.3,0,0,1,.306-1.26,1.372,1.372,0,0,1,.774-.864,3.046,3.046,0,0,0,1.17,1.08,4.969,4.969,0,0,0,1.458.486,8.063,8.063,0,0,0,1.3.126q1.152,0,2.3.018t2.3-.018q1.908-.108,3.4-.216t3.4-.324q1.908-.216,3.348-.414t2.682-.486q1.242-.288,2.5-.684a13.66,13.66,0,0,1,2.916.378,9.919,9.919,0,0,1,2.34.846,4.834,4.834,0,0,1,1.026.792A1.513,1.513,0,0,1,147.312-13.176Zm32.544,5.8a2.52,2.52,0,0,1-.666,1.746,2.2,2.2,0,0,1-1.71.738,1.924,1.924,0,0,1-1.332-.522,7.8,7.8,0,0,1-1.008-1.1q-.72-.972-1.494-1.926a13.065,13.065,0,0,0-1.71-1.746A29.63,29.63,0,0,1,167.49-5.31a22.556,22.556,0,0,1-5,3.258A36.252,36.252,0,0,1,156.276.18q-.18.036-.414.072a2.76,2.76,0,0,1-.414.036A2.32,2.32,0,0,1,155.16.27a.147.147,0,0,1-.144-.162q0-.144.216-.252l.288-.144a23.245,23.245,0,0,0,3.168-1.8,27,27,0,0,0,2.88-2.232q1.152-1.044,2.556-2.574t2.646-3.168a17.5,17.5,0,0,0,1.89-3.006q-1.44-1.08-3.006-2.034T162.5-16.92q-.612-.324-1.224-.684t-1.224-.648l-.288-.144q-.144-.072-.324-.144a.9.9,0,0,0-.162-.108q-.126-.072-.126-.144,0-.144.288-.144h.324a15.641,15.641,0,0,1,2.5.234q1.422.234,2.916.612t2.862.864a21.3,21.3,0,0,1,2.376.99q.36-.864.792-2.16t.756-2.61a9.449,9.449,0,0,0,.324-2.178,2.016,2.016,0,0,0-.522-1.4,2.984,2.984,0,0,0-1.242-.828,6.814,6.814,0,0,1,1.368-.846,3.579,3.579,0,0,1,1.548-.378,3.862,3.862,0,0,1,2.052.684,7,7,0,0,1,1.836,1.674,3.277,3.277,0,0,1,.756,2,.988.988,0,0,1-.306.684,3.089,3.089,0,0,1-.594.5q-.576,1.8-1.206,3.6A28.03,28.03,0,0,1,174.492-14a7.663,7.663,0,0,1,1.6,1.008,17.273,17.273,0,0,1,1.422,1.26,10.174,10.174,0,0,1,1.692,1.908A4.323,4.323,0,0,1,179.856-7.38Zm41.8-13.5q-.252.54-.54,1.242t-.54,1.206a42.491,42.491,0,0,1-2.43,4.3A29,29,0,0,1,214.6-9.792a30.813,30.813,0,0,1-2.826,2.538,37.654,37.654,0,0,1-3.528,2.5,38.357,38.357,0,0,1-3.888,2.142,24.179,24.179,0,0,1-3.942,1.494,2.168,2.168,0,0,1-1.26-.144,14.922,14.922,0,0,1-1.494-.918,4.95,4.95,0,0,1-1.35-1.386q-.144-.252-.378-.648a2.122,2.122,0,0,1-.234-1.08,6.169,6.169,0,0,1,.162-1.62,3.631,3.631,0,0,1,.774-1.584q.18.324.468.81a3.54,3.54,0,0,0,.72.864,1.483,1.483,0,0,0,1.008.378,10.255,10.255,0,0,0,3.078-.576,31.922,31.922,0,0,0,3.672-1.458q1.89-.882,3.528-1.854a29.043,29.043,0,0,0,2.682-1.764q1.44-1.116,2.718-2.142t2.43-2.142q.684-.648,1.3-1.224a13.432,13.432,0,0,0,1.224-1.332q.288-.4.81-1.044t.846-1.044q.072-.108.144-.2a.944.944,0,0,0,.108-.162.345.345,0,0,1,.252-.108q.144,0,.126.216A1.367,1.367,0,0,1,221.652-20.88ZM205.74-19.764a3.526,3.526,0,0,1-.936,2.394,2.99,2.99,0,0,1-2.34,1.062,1.768,1.768,0,0,1-1.494-.63,3.644,3.644,0,0,1-.666-1.35,7.212,7.212,0,0,0-.846-1.854,7.729,7.729,0,0,0-1.476-1.728,4.806,4.806,0,0,0-2.034-1.062q-.36-.108-.4-.252,0-.072.27-.2a4.629,4.629,0,0,1,.486-.2,7.655,7.655,0,0,1,1.494-.288,14.133,14.133,0,0,1,1.494-.108,12.631,12.631,0,0,1,2.034.18,8.529,8.529,0,0,1,2.106.63,4.278,4.278,0,0,1,1.656,1.278A3.344,3.344,0,0,1,205.74-19.764Zm54.432,3.456A9.235,9.235,0,0,1,258.084-13a10.037,10.037,0,0,1-3.24,2.232,9.624,9.624,0,0,1-3.852.792A11.375,11.375,0,0,1,248-10.4a28.739,28.739,0,0,1-3.114-1.044q-1.53-.612-2.826-1.152-.468-.216-.936-.45a5.623,5.623,0,0,0-.972-.378,9.628,9.628,0,0,0-1.962-.5,14.116,14.116,0,0,0-2.034-.144,8.7,8.7,0,0,0-2.466.306,6.418,6.418,0,0,0-1.908.936,19.622,19.622,0,0,0-1.926,1.6l-.432-.4a10.7,10.7,0,0,1,3.87-4.194,10.141,10.141,0,0,1,5.454-1.53,9.183,9.183,0,0,1,1.512.126,11.992,11.992,0,0,1,1.476.342,11.226,11.226,0,0,1,1.116.414q.54.234,1.08.45,1.26.54,2.538,1.062t2.61.918a14.5,14.5,0,0,0,1.908.378,15.107,15.107,0,0,0,1.944.126,10.317,10.317,0,0,0,3.834-.72,5.836,5.836,0,0,0,2.9-2.52Zm31.176-9.432a.842.842,0,0,1-.162.486.517.517,0,0,1-.45.234q-.468,0-.936-.018t-.936-.018a.536.536,0,0,0-.576.45,3.507,3.507,0,0,0-.108.81q0,.18.018.378t.018.378q0,3.276.018,6.516t.018,6.48a11.22,11.22,0,0,1-2.34,7.506Q283.572.216,278.64.216q-4.86,0-7.56-2.34t-2.7-7.38v-1.62q0-3.1.018-6.21t.018-6.246a7.3,7.3,0,0,0-.072-.882q-.072-.558-.5-.594a6.328,6.328,0,0,0-.954,0q-.486.036-.954.036a.681.681,0,0,1-.468-.2.6.6,0,0,1-.216-.45.722.722,0,0,1,.2-.5.634.634,0,0,1,.486-.216q.432,0,.846.036l.81.072q.828.036,1.656.054t1.62.018h1.6q.774,0,1.566-.036.5-.036.99-.09a8.637,8.637,0,0,1,.954-.054.531.531,0,0,1,.45.216.817.817,0,0,1,.162.5.691.691,0,0,1-.162.45.549.549,0,0,1-.45.2q-.468,0-.918-.036t-.918-.036a.446.446,0,0,0-.468.306,2.847,2.847,0,0,0-.144.594q-.036.576-.018,1.152t.018,1.152q0,3.24-.054,6.462t-.054,6.462q0,1.548.126,2.934a7.372,7.372,0,0,0,.63,2.466,3.7,3.7,0,0,0,1.6,1.692,6.294,6.294,0,0,0,3.042.612,6.558,6.558,0,0,0,4.14-1.206,6.718,6.718,0,0,0,2.232-3.168,12.876,12.876,0,0,0,.684-4.266q0-3.564-.144-7.128t-.144-7.128a.9.9,0,0,0-.252-.738,1.21,1.21,0,0,0-.756-.2,6.7,6.7,0,0,0-.7.036,7.069,7.069,0,0,1-.738.036.717.717,0,0,1-.468-.18.58.58,0,0,1-.216-.468.722.722,0,0,1,.2-.5.634.634,0,0,1,.486-.216q.576,0,1.116.054t1.116.09q.36.036.72.036h1.53q.414,0,.81-.036a8.853,8.853,0,0,0,1.134-.072,8.853,8.853,0,0,1,1.134-.072A.573.573,0,0,1,291.348-25.74ZM327.024-.648q0,.756-.612.756-1.3,0-2.574-.036T321.3.036q-1.224,0-2.448.054T316.4.144a.544.544,0,0,1-.5-.234.976.976,0,0,1-.144-.522.517.517,0,0,1,.234-.45.842.842,0,0,1,.486-.162,5.864,5.864,0,0,1,.648.036,5.864,5.864,0,0,0,.648.036h.36a.692.692,0,0,0,.666-.7q.054-.63.054-1.062v-18.72q-2.052,5.112-4.158,10.17T310.572-1.26h-2.808q-2.052-5.328-4.23-10.584t-4.266-10.584q0,4.932.072,9.846t.072,9.846q0,.432.054,1.026a.591.591,0,0,0,.666.594q.468,0,.9-.036t.9-.036a.564.564,0,0,1,.432.2.651.651,0,0,1,.18.45.817.817,0,0,1-.144.414.419.419,0,0,1-.36.234q-.648,0-1.3-.036t-1.3-.036q-1.152,0-2.34.036t-2.34.036q-.36,0-.468-.2a1.089,1.089,0,0,1-.108-.522.474.474,0,0,1,.234-.432.861.861,0,0,1,.45-.144,6.362,6.362,0,0,1,.666.036,6.363,6.363,0,0,0,.666.036,1.794,1.794,0,0,0,.882-.162q.27-.162.27-.846,0-5.472.054-10.962t.054-10.962a1.442,1.442,0,0,0-.2-.846.963.963,0,0,0-.81-.27q-.36,0-.72.036t-.72.036a.691.691,0,0,1-.5-.216.691.691,0,0,1-.216-.5q0-.684.72-.684.864,0,1.746.036t1.746.036h2.106a20.454,20.454,0,0,0,2.106-.108L310.752-6.66q1.944-4.932,4.086-9.81a101.476,101.476,0,0,0,3.762-9.954q.828.036,1.674.054t1.71.018q1.116,0,2.25-.072t2.25-.072a.4.4,0,0,1,.4.234,1.073,1.073,0,0,1,.108.45,1.327,1.327,0,0,1-.108.486.4.4,0,0,1-.4.27q-.5,0-1.026-.018t-1.026-.018a.548.548,0,0,0-.522.306,1.331,1.331,0,0,0-.162.63q0,2.088-.018,4.23t-.018,4.266q0,3.168.018,6.336t.018,6.336a6.192,6.192,0,0,0,.054.756,2.03,2.03,0,0,0,.252.774.674.674,0,0,0,.63.342q.432,0,.864-.036t.9-.036a.62.62,0,0,1,.4.144A.479.479,0,0,1,327.024-.648Zm19.152-10.044q-1.008-3.06-2.07-6.084t-2.034-6.084q-1.044,3.06-2.07,6.084t-2.07,6.084ZM356.976-.36q0,.54-.684.54h-.432a3.323,3.323,0,0,1-.468-.036q-.9-.072-1.854-.072h-4.266q-1.188,0-2.412.072a1.183,1.183,0,0,1-.288.036h-.288a.445.445,0,0,1-.5-.5q0-.432.306-.522a1.881,1.881,0,0,1,.7-.054q.4.036.648.036a1.415,1.415,0,0,0,.954-.27,1.229,1.229,0,0,0,.306-.954,6.673,6.673,0,0,0-.252-1.386q-.252-.99-.612-2.178t-.7-2.214l-.486-1.458h-9.18l-.324.972q-.252.756-.594,1.764t-.666,1.98q-.324.972-.54,1.674a4.741,4.741,0,0,0-.216.846,1.068,1.068,0,0,0,.36.936,1.63,1.63,0,0,0,.9.27q.54.018,1.044.018.18,0,.288.234a1.01,1.01,0,0,1,.108.414.363.363,0,0,1-.162.324.607.607,0,0,1-.342.108q-1.188,0-2.358-.054T332.64.108q-.576,0-1.152.036T330.3.18a.576.576,0,0,1-.36-.144.413.413,0,0,1-.18-.324.475.475,0,0,1,.288-.5,1.662,1.662,0,0,1,.666-.09q.378.018.63.018a.954.954,0,0,0,.774-.378,2.9,2.9,0,0,0,.45-.738q2.124-5.328,4.032-10.71t3.708-10.818q.144-.4.36-1.116a4.175,4.175,0,0,0,.216-1.08.766.766,0,0,0-.09-.378.633.633,0,0,1-.09-.306q0-.144.36-.216a7.162,7.162,0,0,1,.756-.108q.4-.036.5-.036l1.494-.216q.738-.108,1.494-.18l8.82,24.876a1.75,1.75,0,0,0,.774,1.1,3.067,3.067,0,0,0,1.314.234,1.41,1.41,0,0,1,.54.09Q356.976-.756,356.976-.36Zm35.6-.288q0,.756-.612.756-1.3,0-2.574-.036T386.856.036q-1.224,0-2.448.054T381.96.144a.544.544,0,0,1-.5-.234.976.976,0,0,1-.144-.522.517.517,0,0,1,.234-.45.842.842,0,0,1,.486-.162,5.864,5.864,0,0,1,.648.036,5.864,5.864,0,0,0,.648.036h.36a.692.692,0,0,0,.666-.7q.054-.63.054-1.062v-18.72q-2.052,5.112-4.158,10.17T376.128-1.26H373.32q-2.052-5.328-4.23-10.584t-4.266-10.584q0,4.932.072,9.846t.072,9.846q0,.432.054,1.026a.591.591,0,0,0,.666.594q.468,0,.9-.036t.9-.036a.564.564,0,0,1,.432.2.651.651,0,0,1,.18.45.817.817,0,0,1-.144.414.419.419,0,0,1-.36.234q-.648,0-1.3-.036T365,.036q-1.152,0-2.34.036t-2.34.036q-.36,0-.468-.2a1.089,1.089,0,0,1-.108-.522.474.474,0,0,1,.234-.432.861.861,0,0,1,.45-.144,6.362,6.362,0,0,1,.666.036,6.363,6.363,0,0,0,.666.036,1.794,1.794,0,0,0,.882-.162q.27-.162.27-.846,0-5.472.054-10.962t.054-10.962a1.442,1.442,0,0,0-.2-.846.963.963,0,0,0-.81-.27q-.36,0-.72.036t-.72.036a.691.691,0,0,1-.5-.216.691.691,0,0,1-.216-.5q0-.684.72-.684.864,0,1.746.036t1.746.036h2.106a20.454,20.454,0,0,0,2.106-.108L376.308-6.66q1.944-4.932,4.086-9.81a101.476,101.476,0,0,0,3.762-9.954q.828.036,1.674.054t1.71.018q1.116,0,2.25-.072t2.25-.072a.4.4,0,0,1,.4.234,1.073,1.073,0,0,1,.108.45,1.327,1.327,0,0,1-.108.486.4.4,0,0,1-.4.27q-.5,0-1.026-.018t-1.026-.018a.548.548,0,0,0-.522.306,1.331,1.331,0,0,0-.162.63q0,2.088-.018,4.23t-.018,4.266q0,3.168.018,6.336t.018,6.336a6.192,6.192,0,0,0,.054.756,2.03,2.03,0,0,0,.252.774.674.674,0,0,0,.63.342q.432,0,.864-.036t.9-.036a.62.62,0,0,1,.4.144A.479.479,0,0,1,392.58-.648Zm14.9-25.02q0,.612-.576.612-.432,0-.882-.018t-.882-.018a.512.512,0,0,0-.5.306,1.464,1.464,0,0,0-.144.63q0,1.26-.018,2.538t-.018,2.538q0,3.96.018,7.938T404.5-3.2q0,.252-.036.792a2.932,2.932,0,0,0,.09.99.522.522,0,0,0,.522.45q.468,0,.936-.036t.936-.036a.377.377,0,0,1,.36.2.924.924,0,0,1,.108.45.691.691,0,0,1-.162.45.549.549,0,0,1-.45.2q-1.224,0-2.43-.036T401.94.18q-1.224,0-2.448.036t-2.448.036a.572.572,0,0,1-.468-.144.791.791,0,0,1-.108-.468.887.887,0,0,1,.126-.486.453.453,0,0,1,.414-.2q.4,0,.792.036t.756.036a.712.712,0,0,0,.684-.324,1.888,1.888,0,0,0,.216-.774q.036-.45.036-.774l.036-20.664a9.142,9.142,0,0,0-.072-.954q-.072-.63-.5-.666h-.4a6.7,6.7,0,0,0-.7.036,6.7,6.7,0,0,1-.7.036.6.6,0,0,1-.684-.684.623.623,0,0,1,.162-.432.532.532,0,0,1,.414-.18q1.548,0,3.078.072t3.078.072q.936,0,1.89-.072t1.89-.072a.4.4,0,0,1,.4.216A1.032,1.032,0,0,1,407.484-25.668Z" transform="translate(-0.072 29.556)" fill="#e7b81e"/></svg>