<svg xmlns="http://www.w3.org/2000/svg" width="271.608" height="22.152" viewBox="0 0 271.608 22.152"><path d="M8.976-18.456A21.011,21.011,0,0,1,7.752-16.02q-.7,1.188-1.464,2.316V1.344H3.528V-10.248q-.216.192-.648.552t-.936.744a9.979,9.979,0,0,1-.972.66,1.612,1.612,0,0,1-.732.276q-.192,0-.192-.144A.258.258,0,0,1,.1-8.3a1.174,1.174,0,0,0,.072-.12q.7-.864,1.32-1.812t1.176-1.932A35.212,35.212,0,0,0,4.428-15.84,29.16,29.16,0,0,0,5.712-19.7ZM23.592-.744A1.153,1.153,0,0,1,23.16.276a1.849,1.849,0,0,1-1.08.3H8.688V-.48h5.664V-6.7H12.024q-.36.6-.924,1.356A19.02,19.02,0,0,1,9.864-3.852,17.272,17.272,0,0,1,8.52-2.532a6.088,6.088,0,0,1-1.248.876,2.182,2.182,0,0,1-.228.1.737.737,0,0,1-.252.048q-.24,0-.24-.216A.592.592,0,0,1,6.7-2.064q.288-.36.564-.72t.516-.744a25.84,25.84,0,0,0,1.7-2.988,33.406,33.406,0,0,0,1.4-3.312,27.7,27.7,0,0,0,.972-3.276H7.872v-1.128h4.3q.336-1.272.576-2.556t.384-2.6l3.432.672q-.24,1.128-.54,2.256t-.684,2.232H20.4a1.5,1.5,0,0,1,.444-1.032,1.379,1.379,0,0,1,1.044-.48,1.488,1.488,0,0,1,1.02.4,1.278,1.278,0,0,1,.444,1,1.086,1.086,0,0,1-.432.924,1.6,1.6,0,0,1-.984.324H15q-.528,1.368-1.1,2.7a24.1,24.1,0,0,1-1.32,2.6h6.432a1.45,1.45,0,0,1,.456-.984,1.356,1.356,0,0,1,.984-.432,1.427,1.427,0,0,1,.948.384,1.17,1.17,0,0,1,.444.912,1.128,1.128,0,0,1-.4.864,1.3,1.3,0,0,1-.9.36H17.232V-.48h3.384a2.013,2.013,0,0,1,.42-1.152,1.314,1.314,0,0,1,1.116-.528,1.325,1.325,0,0,1,1.032.456A1.425,1.425,0,0,1,23.592-.744Zm7.344-8.928v-3.36H29.712v3.36Zm0-4.272v-3.6H29.712v3.6Zm3.7-3.6H33.456v3.216a.639.639,0,0,1,.288-.072.651.651,0,0,1,.48.192.651.651,0,0,1,.192.48q0,.456-.288.576a1.738,1.738,0,0,1-.672.12v3.36h.192a.78.78,0,0,0,.684-.288,1.5,1.5,0,0,0,.252-.708,6.721,6.721,0,0,0,.048-.756Zm3.624,13.92a.272.272,0,0,1-.072.18q-.072.084-.12.132a4.339,4.339,0,0,1-.684.54q-.42.276-.756.468A15.456,15.456,0,0,1,33.516-.888a33.051,33.051,0,0,1-3.384.924Q28.416.408,26.808.72l-1.3-2.328q1.344-.168,2.7-.348t2.676-.42V-5.16H26.88V-6.24h4.008v-2.4H27.12v-9.912h10.2v6.216a3.682,3.682,0,0,1-.9,2.868,4.634,4.634,0,0,1-2.94.828v2.4h1.368a1.236,1.236,0,0,1,.42-.78,1.227,1.227,0,0,1,.828-.3,1.228,1.228,0,0,1,.8.312.965.965,0,0,1,.372.768.965.965,0,0,1-.348.8,1.328,1.328,0,0,1-.852.276H33.48v2.376q.624-.12,1.248-.252t1.224-.252q.48-.12.96-.228t.936-.2a.624.624,0,0,1,.192-.024Q38.256-3.744,38.256-3.624Zm10.32-7.416a3.805,3.805,0,0,1-.18,1.164,8.754,8.754,0,0,1-.444,1.116q-.168.312-.5.84a10.914,10.914,0,0,1-.78,1.068,6.491,6.491,0,0,1-.9.912,1.4,1.4,0,0,1-.864.372q-.336,0-.336-.312a.624.624,0,0,1,.024-.192q.24-.84.468-1.956a17.343,17.343,0,0,0,.3-1.956H43.536q0,2.232.012,4.488T43.56-.984a4.229,4.229,0,0,1-.672,2.46,2.629,2.629,0,0,1-2.328.972,3.134,3.134,0,0,1-1.44-.384,8.437,8.437,0,0,1-1.4-.912q-.66-.528-1.188-.96-.1-.1-.1-.144,0-.12.168-.12a.2.2,0,0,1,.06.012.2.2,0,0,0,.06.012q.264.072.54.144t.54.12q.456.1.924.168a6.07,6.07,0,0,0,.924.072A.811.811,0,0,0,40.38.108a1.91,1.91,0,0,0,.288-.816,6.6,6.6,0,0,0,.06-.828V-6.6q0-1.7-.024-3.384h-3V-11.04ZM47.16-18.624a5.836,5.836,0,0,1-1.344,3.4,7.886,7.886,0,0,1-3,2.148q.144.24.384.744a2,2,0,0,1,.24.768.586.586,0,0,1-.108.312.32.32,0,0,1-.276.168.977.977,0,0,1-.528-.168q-.312-.192-.612-.408t-.588-.456q-.792-.624-1.632-1.188t-1.68-1.116q.12-.12.42-.4t.66-.6a8.628,8.628,0,0,1,.672-.552,1.061,1.061,0,0,1,.408-.228q.12,0,.408.264a7.937,7.937,0,0,1,.612.636q.324.372.588.708t.36.48a11.089,11.089,0,0,0,1.02-1.644,8.051,8.051,0,0,0,.66-1.788H38.28v-1.08ZM70.416-10.68a.738.738,0,0,1-.144.456,2.381,2.381,0,0,1-.6.48,12.717,12.717,0,0,1-.864,2.232,19.889,19.889,0,0,1-1.284,2.244,15.445,15.445,0,0,1-1.4,1.836,12.88,12.88,0,0,1-1.86,1.656A12.811,12.811,0,0,1,61.944-.432a16.287,16.287,0,0,1-2.868.948A20.469,20.469,0,0,1,56.04.984q-.408.024-.816.036t-.648.012q-.1,0-.264.012T54.12.864a.149.149,0,0,1,.108-.156q.108-.036.2-.06A10.594,10.594,0,0,0,55.68.408,13.827,13.827,0,0,0,58.5-.66a14.863,14.863,0,0,0,2.64-1.7,13.113,13.113,0,0,0,2.148-2.172,17.04,17.04,0,0,0,1.284-1.92A13.819,13.819,0,0,0,65.58-8.58a5.571,5.571,0,0,0,.4-1.908q-.024-.384-.5-.384-.12,0-.276.012a2.333,2.333,0,0,0-.276.036q-.864.144-1.872.336t-2.028.42q-1.02.228-1.884.444t-1.416.408q-.168.1-.324.18a.83.83,0,0,1-.4.084,2.265,2.265,0,0,1-.72-.12,2.845,2.845,0,0,1-1.332-.876,2.5,2.5,0,0,1-.564-1.524,1.787,1.787,0,0,1,.012-.456,1.257,1.257,0,0,1,.276-.576,1.925,1.925,0,0,0,.78.516,5.425,5.425,0,0,0,1.068.3,5.444,5.444,0,0,0,.888.1q.6,0,1.62-.072t2.136-.168q1.116-.1,2.04-.2t1.356-.18a7.018,7.018,0,0,0,.828-.228,5.662,5.662,0,0,0,.66-.252,5.356,5.356,0,0,1,.516-.216,2.645,2.645,0,0,1,.492-.144,2.43,2.43,0,0,1,.852.156,4.163,4.163,0,0,1,.732.348q.336.216.756.528a4.787,4.787,0,0,1,.72.648A1.04,1.04,0,0,1,70.416-10.68ZM67.3-15.84a.649.649,0,0,1-.384.624,3.679,3.679,0,0,1-.648.264q-.7.168-1.632.312t-1.884.24q-.948.1-1.692.1a7.533,7.533,0,0,1-1.62-.144A2.755,2.755,0,0,1,58.3-15a6.966,6.966,0,0,1-1.1-1.2q-.1-.12-.24-.288a.481.481,0,0,1-.144-.264q0-.288.24-.288a.553.553,0,0,1,.3.132,1.223,1.223,0,0,0,.324.18q.408.1.744.18a2.826,2.826,0,0,0,.816.06,19.815,19.815,0,0,0,2.112-.264,14.4,14.4,0,0,0,2.472-.648q.264-.1.528-.18a1.733,1.733,0,0,1,.528-.084,3.608,3.608,0,0,1,.7.108,2.679,2.679,0,0,1,.648.2,2.277,2.277,0,0,1,.72.576A1.374,1.374,0,0,1,67.3-15.84ZM98.208-8.784a1.071,1.071,0,0,1-.492.936,2.352,2.352,0,0,1-1.188.384h-2q-.78,0-1.428-.024-.312,0-.588-.012t-.564-.012q-2.112,0-3.792.06t-3.5.132q-.336.024-1.032.084t-1.488.144q-.792.084-1.44.144a8.547,8.547,0,0,0-.864.108A3.418,3.418,0,0,1,77.832-7.4a1.945,1.945,0,0,1-.816-1.716,2.2,2.2,0,0,1,.2-.84.915.915,0,0,1,.516-.576,2.031,2.031,0,0,0,.78.72,3.313,3.313,0,0,0,.972.324,5.375,5.375,0,0,0,.864.084q.768,0,1.536.012t1.536-.012q1.272-.072,2.268-.144t2.268-.216q1.272-.144,2.232-.276t1.788-.324q.828-.192,1.668-.456a9.107,9.107,0,0,1,1.944.252,6.613,6.613,0,0,1,1.56.564,3.222,3.222,0,0,1,.684.528A1.009,1.009,0,0,1,98.208-8.784ZM119.9-4.92a1.68,1.68,0,0,1-.444,1.164,1.466,1.466,0,0,1-1.14.492,1.283,1.283,0,0,1-.888-.348,5.2,5.2,0,0,1-.672-.732q-.48-.648-1-1.284a8.71,8.71,0,0,0-1.14-1.164A19.754,19.754,0,0,1,111.66-3.54a15.038,15.038,0,0,1-3.336,2.172A24.168,24.168,0,0,1,104.184.12q-.12.024-.276.048a1.84,1.84,0,0,1-.276.024A1.547,1.547,0,0,1,103.44.18a.1.1,0,0,1-.1-.108q0-.1.144-.168l.192-.1a15.5,15.5,0,0,0,2.112-1.2,18,18,0,0,0,1.92-1.488q.768-.7,1.7-1.716t1.764-2.112a11.663,11.663,0,0,0,1.26-2q-.96-.72-2-1.356t-2.1-1.212q-.408-.216-.816-.456t-.816-.432l-.192-.1q-.1-.048-.216-.1a.6.6,0,0,0-.108-.072q-.084-.048-.084-.1,0-.1.192-.1h.216a10.428,10.428,0,0,1,1.668.156q.948.156,1.944.408t1.908.576a14.2,14.2,0,0,1,1.584.66q.24-.576.528-1.44t.5-1.74a6.3,6.3,0,0,0,.216-1.452,1.344,1.344,0,0,0-.348-.936,1.989,1.989,0,0,0-.828-.552,4.543,4.543,0,0,1,.912-.564,2.386,2.386,0,0,1,1.032-.252A2.575,2.575,0,0,1,117-17.3a4.667,4.667,0,0,1,1.224,1.116,2.185,2.185,0,0,1,.5,1.332.659.659,0,0,1-.2.456,2.059,2.059,0,0,1-.4.336q-.384,1.2-.8,2.4a18.687,18.687,0,0,1-1,2.328,5.109,5.109,0,0,1,1.068.672,11.513,11.513,0,0,1,.948.84,6.783,6.783,0,0,1,1.128,1.272A2.882,2.882,0,0,1,119.9-4.92Zm27.864-9q-.168.36-.36.828t-.36.8a28.327,28.327,0,0,1-1.62,2.868,19.331,19.331,0,0,1-2.364,2.892,20.539,20.539,0,0,1-1.884,1.692,25.1,25.1,0,0,1-2.352,1.668,25.573,25.573,0,0,1-2.592,1.428,16.12,16.12,0,0,1-2.628,1,1.445,1.445,0,0,1-.84-.1,9.949,9.949,0,0,1-1-.612,3.3,3.3,0,0,1-.9-.924q-.1-.168-.252-.432a1.415,1.415,0,0,1-.156-.72,4.113,4.113,0,0,1,.108-1.08,2.421,2.421,0,0,1,.516-1.056q.12.216.312.54a2.361,2.361,0,0,0,.48.576.989.989,0,0,0,.672.252A6.837,6.837,0,0,0,134.6-4.68a21.283,21.283,0,0,0,2.448-.972q1.26-.588,2.352-1.236a19.361,19.361,0,0,0,1.788-1.176q.96-.744,1.812-1.428t1.62-1.428l.864-.816a8.956,8.956,0,0,0,.816-.888q.192-.264.54-.7t.564-.7q.048-.072.1-.132a.63.63,0,0,0,.072-.108.23.23,0,0,1,.168-.072q.1,0,.084.144A.911.911,0,0,1,147.768-13.92Zm-10.608.744a2.351,2.351,0,0,1-.624,1.6,1.993,1.993,0,0,1-1.56.708,1.179,1.179,0,0,1-1-.42,2.429,2.429,0,0,1-.444-.9,4.809,4.809,0,0,0-.564-1.236,5.152,5.152,0,0,0-.984-1.152,3.2,3.2,0,0,0-1.356-.708q-.24-.072-.264-.168,0-.048.18-.132a3.086,3.086,0,0,1,.324-.132,5.1,5.1,0,0,1,1-.192,9.422,9.422,0,0,1,1-.072,8.42,8.42,0,0,1,1.356.12,5.686,5.686,0,0,1,1.4.42,2.852,2.852,0,0,1,1.1.852A2.229,2.229,0,0,1,137.16-13.176Zm36.288,2.3a6.157,6.157,0,0,1-1.392,2.208,6.691,6.691,0,0,1-2.16,1.488,6.416,6.416,0,0,1-2.568.528,7.583,7.583,0,0,1-1.992-.288,19.16,19.16,0,0,1-2.076-.7q-1.02-.408-1.884-.768-.312-.144-.624-.3a3.748,3.748,0,0,0-.648-.252,6.419,6.419,0,0,0-1.308-.336,9.41,9.41,0,0,0-1.356-.1,5.8,5.8,0,0,0-1.644.2,4.279,4.279,0,0,0-1.272.624,13.082,13.082,0,0,0-1.284,1.068l-.288-.264a7.134,7.134,0,0,1,2.58-2.8,6.76,6.76,0,0,1,3.636-1.02,6.121,6.121,0,0,1,1.008.084,8,8,0,0,1,.984.228,7.485,7.485,0,0,1,.744.276q.36.156.72.3.84.36,1.692.708t1.74.612a9.667,9.667,0,0,0,1.272.252,10.071,10.071,0,0,0,1.3.084,6.878,6.878,0,0,0,2.556-.48,3.891,3.891,0,0,0,1.932-1.68Zm20.784-6.288a.562.562,0,0,1-.108.324.345.345,0,0,1-.3.156q-.312,0-.624-.012t-.624-.012a.357.357,0,0,0-.384.3,2.338,2.338,0,0,0-.072.54q0,.12.012.252t.012.252q0,2.184.012,4.344t.012,4.32a7.48,7.48,0,0,1-1.56,5A6.015,6.015,0,0,1,185.76.144a7.452,7.452,0,0,1-5.04-1.56q-1.8-1.56-1.8-4.92v-1.08q0-2.064.012-4.14t.012-4.164a4.866,4.866,0,0,0-.048-.588q-.048-.372-.336-.4a4.219,4.219,0,0,0-.636,0q-.324.024-.636.024a.454.454,0,0,1-.312-.132.4.4,0,0,1-.144-.3.482.482,0,0,1,.132-.336.423.423,0,0,1,.324-.144q.288,0,.564.024l.54.048q.552.024,1.1.036t1.08.012h1.068q.516,0,1.044-.024.336-.024.66-.06a5.757,5.757,0,0,1,.636-.036.354.354,0,0,1,.3.144.544.544,0,0,1,.108.336.461.461,0,0,1-.108.3.366.366,0,0,1-.3.132q-.312,0-.612-.024t-.612-.024a.3.3,0,0,0-.312.2,1.9,1.9,0,0,0-.1.4q-.024.384-.012.768t.012.768q0,2.16-.036,4.308t-.036,4.308q0,1.032.084,1.956a4.915,4.915,0,0,0,.42,1.644,2.465,2.465,0,0,0,1.068,1.128,4.2,4.2,0,0,0,2.028.408,4.372,4.372,0,0,0,2.76-.8,4.479,4.479,0,0,0,1.488-2.112,8.584,8.584,0,0,0,.456-2.844q0-2.376-.1-4.752t-.1-4.752a.6.6,0,0,0-.168-.492.807.807,0,0,0-.5-.132,4.469,4.469,0,0,0-.468.024,4.714,4.714,0,0,1-.492.024.478.478,0,0,1-.312-.12.387.387,0,0,1-.144-.312.482.482,0,0,1,.132-.336.423.423,0,0,1,.324-.144q.384,0,.744.036t.744.06q.24.024.48.024h1.02q.276,0,.54-.024a5.9,5.9,0,0,0,.756-.048,5.9,5.9,0,0,1,.756-.048A.382.382,0,0,1,194.232-17.16ZM218.016-.432q0,.5-.408.5-.864,0-1.716-.024T214.2.024q-.816,0-1.632.036T210.936.1A.362.362,0,0,1,210.6-.06a.651.651,0,0,1-.1-.348.345.345,0,0,1,.156-.3.562.562,0,0,1,.324-.108,3.909,3.909,0,0,1,.432.024,3.909,3.909,0,0,0,.432.024h.24a.461.461,0,0,0,.444-.468q.036-.42.036-.708v-12.48q-1.368,3.408-2.772,6.78t-2.748,6.8h-1.872q-1.368-3.552-2.82-7.056t-2.844-7.056q0,3.288.048,6.564t.048,6.564q0,.288.036.684a.394.394,0,0,0,.444.4q.312,0,.6-.024t.6-.024a.376.376,0,0,1,.288.132.434.434,0,0,1,.12.3.545.545,0,0,1-.1.276.279.279,0,0,1-.24.156q-.432,0-.864-.024t-.864-.024q-.768,0-1.56.024t-1.56.024q-.24,0-.312-.132a.726.726,0,0,1-.072-.348.316.316,0,0,1,.156-.288.574.574,0,0,1,.3-.1,4.242,4.242,0,0,1,.444.024,4.242,4.242,0,0,0,.444.024,1.2,1.2,0,0,0,.588-.108q.18-.108.18-.564,0-3.648.036-7.308t.036-7.308a.961.961,0,0,0-.132-.564.642.642,0,0,0-.54-.18q-.24,0-.48.024t-.48.024a.46.46,0,0,1-.336-.144.46.46,0,0,1-.144-.336q0-.456.48-.456.576,0,1.164.024t1.164.024h1.4a13.636,13.636,0,0,0,1.4-.072L207.168-4.44q1.3-3.288,2.724-6.54a67.652,67.652,0,0,0,2.508-6.636q.552.024,1.116.036t1.14.012q.744,0,1.5-.048t1.5-.048a.265.265,0,0,1,.264.156.715.715,0,0,1,.072.3.884.884,0,0,1-.072.324.263.263,0,0,1-.264.18q-.336,0-.684-.012t-.684-.012a.365.365,0,0,0-.348.2.887.887,0,0,0-.108.42q0,1.392-.012,2.82t-.012,2.844q0,2.112.012,4.224t.012,4.224a4.129,4.129,0,0,0,.036.5,1.353,1.353,0,0,0,.168.516.45.45,0,0,0,.42.228q.288,0,.576-.024t.6-.024a.413.413,0,0,1,.264.1A.32.32,0,0,1,218.016-.432Zm12.768-6.7q-.672-2.04-1.38-4.056t-1.356-4.056q-.7,2.04-1.38,4.056t-1.38,4.056Zm7.2,6.888q0,.36-.456.36h-.288A2.216,2.216,0,0,1,236.928.1q-.6-.048-1.236-.048h-2.844q-.792,0-1.608.048a.789.789,0,0,1-.192.024h-.192a.3.3,0,0,1-.336-.336q0-.288.2-.348a1.254,1.254,0,0,1,.468-.036q.264.024.432.024a.943.943,0,0,0,.636-.18.819.819,0,0,0,.2-.636,4.449,4.449,0,0,0-.168-.924q-.168-.66-.408-1.452t-.468-1.476l-.324-.972h-6.12l-.216.648q-.168.5-.4,1.176t-.444,1.32q-.216.648-.36,1.116a3.162,3.162,0,0,0-.144.564.712.712,0,0,0,.24.624,1.087,1.087,0,0,0,.6.18q.36.012.7.012.12,0,.192.156a.673.673,0,0,1,.072.276.242.242,0,0,1-.108.216.4.4,0,0,1-.228.072q-.792,0-1.572-.036T221.76.072q-.384,0-.768.024T220.2.12a.384.384,0,0,1-.24-.1.275.275,0,0,1-.12-.216.317.317,0,0,1,.192-.336,1.108,1.108,0,0,1,.444-.06q.252.012.42.012a.636.636,0,0,0,.516-.252,1.936,1.936,0,0,0,.3-.492q1.416-3.552,2.688-7.14t2.472-7.212q.1-.264.24-.744a2.784,2.784,0,0,0,.144-.72.511.511,0,0,0-.06-.252.422.422,0,0,1-.06-.2q0-.1.24-.144a4.774,4.774,0,0,1,.5-.072q.264-.024.336-.024l1-.144q.492-.072,1-.12l5.88,16.584a1.166,1.166,0,0,0,.516.732,2.045,2.045,0,0,0,.876.156.94.94,0,0,1,.36.06Q237.984-.5,237.984-.24ZM261.72-.432q0,.5-.408.5-.864,0-1.716-.024T257.9.024q-.816,0-1.632.036T254.64.1A.362.362,0,0,1,254.3-.06a.651.651,0,0,1-.1-.348.345.345,0,0,1,.156-.3.562.562,0,0,1,.324-.108,3.909,3.909,0,0,1,.432.024,3.909,3.909,0,0,0,.432.024h.24a.461.461,0,0,0,.444-.468q.036-.42.036-.708v-12.48q-1.368,3.408-2.772,6.78t-2.748,6.8H248.88q-1.368-3.552-2.82-7.056t-2.844-7.056q0,3.288.048,6.564t.048,6.564q0,.288.036.684a.394.394,0,0,0,.444.4q.312,0,.6-.024t.6-.024a.376.376,0,0,1,.288.132.434.434,0,0,1,.12.3.545.545,0,0,1-.1.276.279.279,0,0,1-.24.156q-.432,0-.864-.024t-.864-.024q-.768,0-1.56.024t-1.56.024q-.24,0-.312-.132a.726.726,0,0,1-.072-.348.316.316,0,0,1,.156-.288.574.574,0,0,1,.3-.1,4.242,4.242,0,0,1,.444.024,4.242,4.242,0,0,0,.444.024,1.2,1.2,0,0,0,.588-.108q.18-.108.18-.564,0-3.648.036-7.308t.036-7.308a.961.961,0,0,0-.132-.564.642.642,0,0,0-.54-.18q-.24,0-.48.024t-.48.024a.46.46,0,0,1-.336-.144.46.46,0,0,1-.144-.336q0-.456.48-.456.576,0,1.164.024t1.164.024h1.4a13.636,13.636,0,0,0,1.4-.072L250.872-4.44q1.3-3.288,2.724-6.54a67.652,67.652,0,0,0,2.508-6.636q.552.024,1.116.036t1.14.012q.744,0,1.5-.048t1.5-.048a.265.265,0,0,1,.264.156.715.715,0,0,1,.072.3.884.884,0,0,1-.072.324.263.263,0,0,1-.264.18q-.336,0-.684-.012t-.684-.012a.366.366,0,0,0-.348.2.887.887,0,0,0-.108.42q0,1.392-.012,2.82t-.012,2.844q0,2.112.012,4.224t.012,4.224a4.131,4.131,0,0,0,.036.5,1.354,1.354,0,0,0,.168.516.45.45,0,0,0,.42.228q.288,0,.576-.024t.6-.024a.413.413,0,0,1,.264.1A.32.32,0,0,1,261.72-.432Zm9.936-16.68q0,.408-.384.408-.288,0-.588-.012t-.588-.012a.341.341,0,0,0-.336.2.976.976,0,0,0-.1.42q0,.84-.012,1.692t-.012,1.692q0,2.64.012,5.292t.012,5.292q0,.168-.024.528a1.954,1.954,0,0,0,.06.66.348.348,0,0,0,.348.3q.312,0,.624-.024T271.3-.7a.252.252,0,0,1,.24.132.616.616,0,0,1,.072.3.461.461,0,0,1-.108.3.366.366,0,0,1-.3.132q-.816,0-1.62-.024T267.96.12q-.816,0-1.632.024T264.7.168a.381.381,0,0,1-.312-.1.527.527,0,0,1-.072-.312.592.592,0,0,1,.084-.324.3.3,0,0,1,.276-.132q.264,0,.528.024t.5.024a.475.475,0,0,0,.456-.216,1.259,1.259,0,0,0,.144-.516q.024-.3.024-.516l.024-13.776a6.092,6.092,0,0,0-.048-.636q-.048-.42-.336-.444H265.7a4.469,4.469,0,0,0-.468.024,4.469,4.469,0,0,1-.468.024.4.4,0,0,1-.456-.456.416.416,0,0,1,.108-.288.355.355,0,0,1,.276-.12q1.032,0,2.052.048t2.052.048q.624,0,1.26-.048t1.26-.048a.268.268,0,0,1,.264.144A.688.688,0,0,1,271.656-17.112Z" transform="translate(-0.048 19.704)" fill="#e7b81e"/></svg>