<svg xmlns="http://www.w3.org/2000/svg" width="199.08" height="54.056" viewBox="0 0 199.08 54.056"><path d="M13.176-5.184V-.648a11.7,11.7,0,0,0,1.38-.276q.684-.18,1.356-.372-.456-.552-.864-1.1t-.816-1.128a14.656,14.656,0,0,0,1.776-.792q.864-.456,1.752-.864ZM11.688-12.7v-1.56H10.656v1.56Zm0-2.448V-16.68H10.656v1.536Zm3.36,2.448v-1.56h-1.08v1.56Zm0-2.448V-16.68h-1.08v1.536Zm3.7-1.536H17.376V-15.5a1.275,1.275,0,0,0,.18-.012,1.274,1.274,0,0,1,.18-.012.671.671,0,0,1,.492.2.671.671,0,0,1,.2.492.562.562,0,0,1-.348.576,1.836,1.836,0,0,1-.708.144V-12.7a1.575,1.575,0,0,0,1.008-.288,1.16,1.16,0,0,0,.36-.96ZM6.456-6.768a.412.412,0,0,1-.024.168Q6.1-5.016,5.556-3.3A25.922,25.922,0,0,1,4.32-.1a5.65,5.65,0,0,1-.3.564.589.589,0,0,1-.54.3A1.258,1.258,0,0,1,2.928.516,8.977,8.977,0,0,1,2.1-.108Q1.656-.48,1.284-.8T.768-1.272Q1.68-2.232,2.592-3.2t1.776-2q.336-.408.66-.828t.66-.8a1.614,1.614,0,0,1,.2-.216.372.372,0,0,1,.228-.12.282.282,0,0,1,.264.12A.55.55,0,0,1,6.456-6.768ZM6.264-9.96a.434.434,0,0,1-.18.372.655.655,0,0,1-.4.132.728.728,0,0,1-.216-.024q-1.128-.264-2.256-.6a18.509,18.509,0,0,0-2.3-.528l1.128-2.04q.12-.216.324-.516a.589.589,0,0,1,.492-.3,1.715,1.715,0,0,1,.852.42,9.955,9.955,0,0,1,1.152,1.02,9.743,9.743,0,0,1,1,1.176A1.788,1.788,0,0,1,6.264-9.96ZM23.352.984a.868.868,0,0,1-.372.732,1.29,1.29,0,0,1-.78.276,6.68,6.68,0,0,1-3.1-.78A10.423,10.423,0,0,1,16.488-.672a6.132,6.132,0,0,1-2.652,1.824,9.819,9.819,0,0,1-3.2.6l.024-6.936h-.528a10.627,10.627,0,0,1-.972,3.468,8.429,8.429,0,0,1-2.2,2.844q-.144.12-.444.36a5.459,5.459,0,0,1-.6.42,1.032,1.032,0,0,1-.492.18q-.216,0-.216-.168a.249.249,0,0,1,.072-.156.734.734,0,0,0,.1-.132A11.38,11.38,0,0,0,6.228.24a10.569,10.569,0,0,0,.636-1.512,12.038,12.038,0,0,0,.6-2.916q.12-1.5.12-2.964,0-.912-.024-1.8t-.024-1.776h12.12a1.311,1.311,0,0,1,.4-.864,1.155,1.155,0,0,1,.852-.384,1.956,1.956,0,0,1,1.008.3.961.961,0,0,1,.5.876.951.951,0,0,1-.408.864,1.728,1.728,0,0,1-.96.264H10.3v2.16q0,.312-.024.636t-.024.66h9.744a.889.889,0,0,1,.42-.768,1.493,1.493,0,0,1,.852-.288,1.287,1.287,0,0,1,.828.3.955.955,0,0,1,.372.78.9.9,0,0,1-.324.756,1.27,1.27,0,0,1-.8.252H19.824a3.462,3.462,0,0,1,.336.324q.24.252.456.5t.216.348a.288.288,0,0,1-.24.288,1.562,1.562,0,0,1-.516.108,3.982,3.982,0,0,0-.54.06q-.5.072-1,.156t-1,.156a7.107,7.107,0,0,0,.888,1.5A12.513,12.513,0,0,0,19.764-.228,8.177,8.177,0,0,0,21.12.864,1.105,1.105,0,0,1,21.5.192a1.082,1.082,0,0,1,.72-.264,1.164,1.164,0,0,1,.78.3A.956.956,0,0,1,23.352.984ZM7.008-15.144a.411.411,0,0,1-.18.348.622.622,0,0,1-.372.132,3.733,3.733,0,0,1-.732-.18q-.588-.18-1.344-.444t-1.428-.48q-.672-.216-.96-.288.12-.192.336-.552t.456-.78q.24-.42.456-.756a3.087,3.087,0,0,1,.312-.432,1.669,1.669,0,0,1,.2-.144.46.46,0,0,1,.228-.048.757.757,0,0,1,.408.12,3.335,3.335,0,0,1,.648.576q.432.456.888,1.044a11.708,11.708,0,0,1,.768,1.1A1.748,1.748,0,0,1,7.008-15.144ZM19.44-8.28a.713.713,0,0,1-.384.684,1.668,1.668,0,0,1-.792.2H11.4V-8.4h5.976a.918.918,0,0,1,.384-.624,1.2,1.2,0,0,1,.7-.216.957.957,0,0,1,.672.3A.9.9,0,0,1,19.44-8.28Zm1.968-5.592a1.7,1.7,0,0,1-.552,1.4,2.758,2.758,0,0,1-1.344.564,10.252,10.252,0,0,1-1.536.12H8.088v-5.928H11.64v-2.064h2.376v2.064h1.008v-2.04h2.424v2.04h3.96Zm20.976-.984H35.328v1.872h4.1a1.314,1.314,0,0,1,.372-.732,1.025,1.025,0,0,1,.756-.3,1.029,1.029,0,0,1,.732.312.972.972,0,0,1,.324.72.766.766,0,0,1-.372.72,1.574,1.574,0,0,1-.8.216H35.328v1.512h5.856a.96.96,0,0,0,.948-.5,2.434,2.434,0,0,0,.252-1.1ZM48.192-4.632a.99.99,0,0,1-.528,1.008,2.81,2.81,0,0,1-1.176.24H40.272q.048.384.072.792t.024.816A10.574,10.574,0,0,1,40.176.276a3.023,3.023,0,0,1-.816,1.6,2.69,2.69,0,0,1-1.968.624,2.9,2.9,0,0,1-1.344-.348,6.584,6.584,0,0,1-1.26-.852,11.02,11.02,0,0,1-1.02-.984A.279.279,0,0,0,33.72.24.1.1,0,0,1,33.7.168q0-.072.12-.072a.79.79,0,0,1,.24.048,2.388,2.388,0,0,1,.36.072l.336.1a8.108,8.108,0,0,0,.864.144A8.038,8.038,0,0,0,36.5.5a.792.792,0,0,0,.66-.288,1.75,1.75,0,0,0,.324-.684,3.122,3.122,0,0,0,.1-.732q0-.552-.012-1.128t-.06-1.056H30.648v-1.08h6.72q-.048-.48-.132-.936t-.18-.912l2.016.168A12.492,12.492,0,0,0,40.9-7.44h-7.92v-.984q2.28-.048,4.56-.048h6.72a.6.6,0,0,1,.264.048q.1.048.1.24,0,.552-.792,1.128a7.164,7.164,0,0,1-1.38.744q-.8.336-1.536.564t-1.14.348a4.01,4.01,0,0,1,.156.468q.06.228.108.468h5.3a1.586,1.586,0,0,1,.432-.984,1.291,1.291,0,0,1,.984-.408,1.666,1.666,0,0,1,.96.336A1.036,1.036,0,0,1,48.192-4.632Zm-.648-14.136a1.214,1.214,0,0,1-.492,1.08,2.056,2.056,0,0,1-1.188.336H31.248q0,1.92-.012,3.84t-.108,3.84a19.7,19.7,0,0,1-.4,3.072,17.118,17.118,0,0,1-.9,2.976,9.419,9.419,0,0,1-.732,1.44A14.474,14.474,0,0,1,28.08-.72a8.8,8.8,0,0,1-1.1,1.176q-.192.168-.5.408a.973.973,0,0,1-.576.24q-.264,0-.264-.24a.342.342,0,0,1,.06-.2A1.34,1.34,0,0,0,25.8.48a18.456,18.456,0,0,0,1.116-2.1,12.744,12.744,0,0,0,.756-2.244,19.221,19.221,0,0,0,.5-3.18q.12-1.62.12-3.228,0-2.04-.012-4.08t-.012-4.08H44.5a1.778,1.778,0,0,1,.42-1.116,1.327,1.327,0,0,1,1.068-.468,1.9,1.9,0,0,1,1.02.348A1.039,1.039,0,0,1,47.544-18.768Zm-2.256,5.88a4.03,4.03,0,0,1-.468,2.136,2.324,2.324,0,0,1-1.356,1.008,7.661,7.661,0,0,1-2.16.264H32.832v-6.408H45.288Zm15.576,5.64V-9.6H57.216v2.352Zm0-3.408v-2.16H57.216v2.16Zm6.7-2.16H63.624v2.16h1.248a1,1,0,0,1,.372-.576,1,1,0,0,1,.636-.24,1.114,1.114,0,0,1,.744.264.894.894,0,0,1,.312.72.765.765,0,0,1-.336.636,1.146,1.146,0,0,1-.7.252h-2.28v2.352h2.592a1.1,1.1,0,0,0,1.032-.54,2.288,2.288,0,0,0,.312-1.164ZM60.816-4.584a16.2,16.2,0,0,1-3.84,3.768,14.04,14.04,0,0,1-4.944,2.184q-.24.048-.5.108a2.376,2.376,0,0,1-.528.06.387.387,0,0,1-.168-.048.154.154,0,0,1-.1-.144.193.193,0,0,1,.1-.144,1.452,1.452,0,0,0,.12-.1q.36-.192.708-.408T52.344.24a18.138,18.138,0,0,0,3.12-2.772,15.571,15.571,0,0,0,2.376-3.4ZM74.208.024A1.233,1.233,0,0,1,73.824.9a1.177,1.177,0,0,1-.864.4,4.1,4.1,0,0,1-.624-.048q-.312-.048-.624-.12A10.624,10.624,0,0,1,68.688-.12,16.592,16.592,0,0,1,65.916-2.2a21.983,21.983,0,0,1-2.244-2.388L66.36-5.976a38.259,38.259,0,0,0,2.268,3.228,11.087,11.087,0,0,0,2.916,2.6,1.648,1.648,0,0,1,.552-.7,1.37,1.37,0,0,1,.84-.288,1.323,1.323,0,0,1,.876.336A1.033,1.033,0,0,1,74.208.024Zm-1.176-16.9a1.126,1.126,0,0,1-.408.972,1.7,1.7,0,0,1-1.032.3H63.624v1.776H70.44v4.368A2.839,2.839,0,0,1,69.432-6.9a4.944,4.944,0,0,1-2.736.66H63.624V1.944h-2.76V-6.24H54.6v-7.584h6.264V-15.6H52.176v-1.128h8.64V-19.9h2.808v3.168h6.5a1.709,1.709,0,0,1,.444-1.056,1.321,1.321,0,0,1,1.02-.432,1.474,1.474,0,0,1,.984.4A1.215,1.215,0,0,1,73.032-16.872Zm18.912,4.68h-8.76V-7.7H90.12a1.927,1.927,0,0,0,1.428-.42,2.059,2.059,0,0,0,.4-1.428ZM84.5-4.248a.605.605,0,0,1-.2.384q-.2.216-.324.336a17.488,17.488,0,0,1-2.928,2.376A12.012,12.012,0,0,1,77.592.336q-.288.072-.576.132a2.817,2.817,0,0,1-.576.06.592.592,0,0,1-.18-.036A.134.134,0,0,1,76.152.36a.2.2,0,0,1,.1-.18A.816.816,0,0,1,76.416.1a10.226,10.226,0,0,0,2.04-1.584,19.922,19.922,0,0,0,1.92-2.172A21.531,21.531,0,0,0,81.84-5.808q.336.168.84.408t.984.492a4.52,4.52,0,0,1,.744.468A.228.228,0,0,1,84.5-4.248ZM94.872-9.6a2.617,2.617,0,0,1-.744,2.124,3.987,3.987,0,0,1-2.16.756,14.086,14.086,0,0,1-1.536.06q-.768-.012-1.536-.012v5.664A7.214,7.214,0,0,1,88.7.756a2.069,2.069,0,0,1-.768,1.188,2.913,2.913,0,0,1-1.752.432,3.021,3.021,0,0,1-1.332-.384,10.749,10.749,0,0,1-1.464-.9q-.708-.516-1.14-.9a.37.37,0,0,0-.1-.108q-.072-.06-.072-.108,0-.1.144-.1a2.311,2.311,0,0,1,.66.1A4.818,4.818,0,0,0,83.52.12q.288.048.588.084A4.933,4.933,0,0,0,84.7.24q.936,0,1.14-.5a3.416,3.416,0,0,0,.2-1.272q0-1.272-.012-2.568t-.012-2.568H80.4V-13.32H94.872Zm4.44,9.24A.846.846,0,0,1,98.8.432,2.144,2.144,0,0,1,97.824.7a4.665,4.665,0,0,1-1.7-.348,10.5,10.5,0,0,1-1.764-.9,18.226,18.226,0,0,1-1.644-1.164q-.768-.612-1.344-1.14-.1-.1-.372-.36t-.528-.54q-.252-.276-.252-.372a.217.217,0,0,1,.12-.192,8.662,8.662,0,0,1,1.248-.732q.672-.324,1.3-.66.48.816,1.152,1.776t1.416,1.848A13.3,13.3,0,0,0,96.912-.576a1.041,1.041,0,0,1,.4-.732,1.151,1.151,0,0,1,.756-.324,1.177,1.177,0,0,1,.864.4A1.233,1.233,0,0,1,99.312-.36Zm-.888-16.272a1.1,1.1,0,0,1-.492,1.02,2.146,2.146,0,0,1-1.14.3H76.872V-16.44H86.04q-.12-.984-.228-1.944t-.18-1.92q.192,0,.792.036t1.284.1q.684.06,1.224.12a1.559,1.559,0,0,1,.612.132.455.455,0,0,1,.168.36,2.136,2.136,0,0,1-.156.624q-.156.432-.372.936t-.42.936a6.644,6.644,0,0,1-.324.624h6.816a1.989,1.989,0,0,1,.456-1.224,1.439,1.439,0,0,1,1.176-.528,1.474,1.474,0,0,1,1.1.444A1.536,1.536,0,0,1,98.424-16.632Zm23.5,14.208a2.836,2.836,0,0,1-.444,1.62,1.453,1.453,0,0,1-1.284.66,1.871,1.871,0,0,1-.924-.264,3.114,3.114,0,0,1-.816-.66,1.669,1.669,0,0,1-.42-.8,7.27,7.27,0,0,0-.684-1.944,9.214,9.214,0,0,0-1.032-1.572,7.517,7.517,0,0,0-1.092-1.1,2.341,2.341,0,0,0-.864-.492,20.2,20.2,0,0,1-1.368,1.752,16.552,16.552,0,0,1-1.92,1.9,14.638,14.638,0,0,1-3.264,2.052A20.162,20.162,0,0,1,103.44.12q-.168.024-.372.072a1.727,1.727,0,0,1-.4.048,1.9,1.9,0,0,1-.312-.024q-.144-.024-.144-.12,0-.048.132-.12a1.385,1.385,0,0,1,.2-.1q.144-.048.42-.132a4.47,4.47,0,0,0,.444-.156,11.823,11.823,0,0,0,3-1.6A16.5,16.5,0,0,0,108.984-4.3q.792-.864,1.512-1.812t1.248-1.764q.384-.624.8-1.488t.8-1.764q.384-.9.648-1.62a5.648,5.648,0,0,0,.264-.96q.048-.336.048-.36v-.024a.187.187,0,0,0-.132-.192.954.954,0,0,0-.324-.048H113.6a.672.672,0,0,0-.252.048q-.288.1-.864.336t-1.212.552q-.636.312-1.176.624a2.811,2.811,0,0,0-.756.576,1.044,1.044,0,0,1-.768.312,1.488,1.488,0,0,1-.36-.048q-.192-.048-.336-.1a4.486,4.486,0,0,1-.912-.624,9.358,9.358,0,0,1-.672-.7,2.994,2.994,0,0,1-.3-.552,1.707,1.707,0,0,1-.132-.672,1.311,1.311,0,0,1,.024-.432q.048-.216.1-.408a1.2,1.2,0,0,1,.12-.168.26.26,0,0,1,.192-.12,1.141,1.141,0,0,0,.42.552,2.075,2.075,0,0,0,.624.312,1.9,1.9,0,0,0,.468.1h.36a2.641,2.641,0,0,0,.408-.024q.384-.048,1.044-.168t1.44-.3q.78-.18,1.476-.372a8.428,8.428,0,0,0,1.452-.54q.54-.276.684-.372a1.271,1.271,0,0,1,.816-.288,5.281,5.281,0,0,1,1.812.336,3.615,3.615,0,0,1,1.5.984.66.66,0,0,1,.168.324,1.636,1.636,0,0,1,.048.372,1.518,1.518,0,0,1-.312.672,6.757,6.757,0,0,1-.744.864q-.384.888-.936,1.908t-1.152,2q-.6.984-1.176,1.8a8.772,8.772,0,0,1,2.856.444,7.773,7.773,0,0,1,2.016,1.068,7.359,7.359,0,0,1,1.464,1.44,4,4,0,0,1,.66,1.14A3.048,3.048,0,0,1,121.92-2.424Zm23.4-10.488q0,.456-.96.888-.456,1.08-1,2.184a21.319,21.319,0,0,1-1.116,2.016q.384.192.84.444a3.929,3.929,0,0,1,.768.54A2.557,2.557,0,0,1,144.888-4.9a3.11,3.11,0,0,1-.084.732,1.138,1.138,0,0,1-.348.588,1.947,1.947,0,0,1-.588.4,2.216,2.216,0,0,1-.9.156,1.332,1.332,0,0,1-.852-.348,2.422,2.422,0,0,1-.636-.78,2.449,2.449,0,0,0-.384-.5q-.288-.312-.552-.576a17.689,17.689,0,0,1-1.884,2.124,11.6,11.6,0,0,1-2.2,1.632,15.848,15.848,0,0,1-2.856,1.26q-.576.192-1.584.432t-1.992.408q-.312.048-.816.1t-.936.072q-.432.024-.552.024-.288,0-.288-.192a.149.149,0,0,1,.1-.156,1.307,1.307,0,0,1,.24-.06,10.248,10.248,0,0,0,1.836-.516q1-.372,1.956-.828a12.808,12.808,0,0,0,2.04-1.2,19.847,19.847,0,0,0,1.9-1.536,16.5,16.5,0,0,0,1.584-1.668,12.451,12.451,0,0,0,1.2-1.692,7.542,7.542,0,0,0-1.2-.744q-.744-.384-1.5-.7A7.964,7.964,0,0,0,134.28-8.9l-.228-.048q-.108-.024-.108-.1,0-.144.264-.24a.935.935,0,0,1,.276-.06q.156-.012.324-.036.192,0,.4-.012t.372-.012q.936,0,1.908.084a7.886,7.886,0,0,1,1.932.42,7.4,7.4,0,0,0,.36-.828q.216-.564.456-1.236t.4-1.272a3.969,3.969,0,0,0,.156-.912q0-.336-.288-.336a2.553,2.553,0,0,0-.588.12q-.42.12-.828.252t-.576.2a1.442,1.442,0,0,1-.4.132,2.156,2.156,0,0,1-.372.036,1.176,1.176,0,0,1-.744-.264q-.384.552-.828,1.116t-.852,1.068q-.6.672-1.188,1.224a13.445,13.445,0,0,1-1.356,1.1q-.168.12-.72.444t-1.032.588a5.693,5.693,0,0,1-.564.24,1.828,1.828,0,0,1-.4.12q-.192,0-.192-.1,0-.048.108-.156a.778.778,0,0,1,.156-.132,5.809,5.809,0,0,1,.444-.444,4.055,4.055,0,0,0,.372-.372,13.9,13.9,0,0,0,1.176-1.368q.48-.648.912-1.32a18.382,18.382,0,0,0,.912-1.62,14.7,14.7,0,0,0,.816-1.944,5.61,5.61,0,0,0,.336-1.764q0-.168-.444-.432a2.946,2.946,0,0,0-.9-.36.742.742,0,0,1,.372-.6,2.826,2.826,0,0,1,.9-.408,3.753,3.753,0,0,1,.984-.144,3.816,3.816,0,0,1,1.368.2,3.2,3.2,0,0,1,1.116.624,1.161,1.161,0,0,1,.444.876,1.727,1.727,0,0,1-.36,1.008,8.025,8.025,0,0,1-.372.744q-.18.312-.444.72a.728.728,0,0,0,.216.024,1.275,1.275,0,0,0,.18-.012,1.108,1.108,0,0,1,.156-.012q.48-.12.948-.252t.852-.228a6.556,6.556,0,0,0,.744-.456q.336-.24.552-.384.1-.048.3-.144a.849.849,0,0,1,.348-.1,2.346,2.346,0,0,1,.672.108,3.052,3.052,0,0,1,.816.42,5.57,5.57,0,0,1,.816.708,4.938,4.938,0,0,1,.6.708,2.344,2.344,0,0,1,.276.468A.916.916,0,0,1,145.32-12.912Zm22.728-2.856a.812.812,0,0,1-.228.636,1.923,1.923,0,0,1-.612.348q-.624.768-1.272,1.524t-1.344,1.452a5.18,5.18,0,0,1,.624.468.87.87,0,0,1,.384.612,1.068,1.068,0,0,1-.192.528,1.683,1.683,0,0,0-.24.648,1.748,1.748,0,0,0-.024.288v.288q0,1.9.036,3.792t.156,3.792q.048.288.072.588t.024.588a2.214,2.214,0,0,1-.18.828,2.2,2.2,0,0,1-.516.768,1.076,1.076,0,0,1-.768.324,1.447,1.447,0,0,1-1.092-.5,3.356,3.356,0,0,1-.708-1.188,3.723,3.723,0,0,1-.24-1.212A1.745,1.745,0,0,1,162-1.7q.072-.24.12-.48.12-.48.252-.972a4.759,4.759,0,0,0,.156-1.02q.1-.912.156-1.8t.06-1.776q0-.528-.012-1.044T162.72-9.84A16.748,16.748,0,0,1,159.276-7.4a21.787,21.787,0,0,1-3.9,1.6q-.168.024-.6.132a3.027,3.027,0,0,1-.576.108q-.048,0-.156-.012t-.108-.108q0-.072.216-.192t.444-.24a2.692,2.692,0,0,1,.3-.144,18.547,18.547,0,0,0,3.288-2.4,26.911,26.911,0,0,0,2.808-2.952q.264-.336.732-.96t.96-1.344a11.971,11.971,0,0,0,.828-1.392,2.607,2.607,0,0,0,.336-1.08.456.456,0,0,0-.264-.4A2.606,2.606,0,0,0,163-17.04q-.324-.1-.516-.168.024-.168.312-.348a4.69,4.69,0,0,1,.7-.348q.408-.168.768-.276a2.084,2.084,0,0,1,.528-.108,2.373,2.373,0,0,1,.792.144,3.757,3.757,0,0,1,.72.336,2.768,2.768,0,0,1,.672.5,7.774,7.774,0,0,1,.744.8A1.253,1.253,0,0,1,168.048-15.768Zm18.36,3.48a.865.865,0,0,1-.072.384.956.956,0,0,1-.24.288A20.251,20.251,0,0,1,185-7.008a10.807,10.807,0,0,1-2.34,3.72q-.456.5-.96.972a10.117,10.117,0,0,1-1.128.9,8.794,8.794,0,0,1-.912.576q-.48.264-.96.5-.264.144-.528.264a1.267,1.267,0,0,1-.528.12q-.192.048-.24-.1a.532.532,0,0,1,.024-.168.406.406,0,0,1,.168-.168q.384-.264.864-.66a8.139,8.139,0,0,0,.888-.852,13.2,13.2,0,0,0,1.74-2.5,15.27,15.27,0,0,0,1.164-2.688q.192-.6.384-1.4t.312-1.644a10.933,10.933,0,0,0,.12-1.536,2.474,2.474,0,0,0-.1-.624,1.85,1.85,0,0,0-.372-.7,1.673,1.673,0,0,0-.852-.5.252.252,0,0,1,.084-.18,1.055,1.055,0,0,1,.156-.132,2.03,2.03,0,0,1,.78-.348,3.488,3.488,0,0,1,.8-.132,2.717,2.717,0,0,1,1.5.408,3.582,3.582,0,0,1,.984.888A1.5,1.5,0,0,1,186.408-12.288Zm13.392-.36q-.192.624-.552,1.524a12.628,12.628,0,0,1-.84,1.716q-.432.7-.9,1.44a10.53,10.53,0,0,1-1.044,1.392,22.97,22.97,0,0,1-2.34,2.292,13.088,13.088,0,0,1-3.348,2.076,2.7,2.7,0,0,1-.576.492,1.472,1.472,0,0,1-.744.156,1.11,1.11,0,0,1-.456-.1q-.312-.072-.648-.624a5.326,5.326,0,0,1-.4-.828,7.2,7.2,0,0,1-.288-.924,3.289,3.289,0,0,1-.108-.7.431.431,0,0,1,.072-.264.872.872,0,0,1,.216-.192.908.908,0,0,0,.24-.336.906.906,0,0,0,.1-.312q.024-.816.036-1.572t.012-1.5q0-1.872-.06-3.228t-.108-1.764a2.94,2.94,0,0,0-.036-.432,3.284,3.284,0,0,0-.084-.408,1.017,1.017,0,0,0-.444-.588,2.971,2.971,0,0,0-.972-.468q.048-.336.66-.624a3.145,3.145,0,0,1,1.356-.288,1.669,1.669,0,0,1,.324.036q.18.036.348.084a3.013,3.013,0,0,1,.624.3q.384.228.768.5a4.955,4.955,0,0,1,.6.492,1.549,1.549,0,0,1,.276.372.887.887,0,0,1,.108.42.8.8,0,0,1-.192.5,1.756,1.756,0,0,0-.384.672q-.072.384-.12.9t-.1,1.116q-.1,1.392-.168,2.784t-.072,2.784A16.752,16.752,0,0,0,193.3-6.9a14.882,14.882,0,0,0,3.024-2.2q.456-.408.96-.948t.948-1.08q.444-.54.684-.9.192-.24.36-.468a2.112,2.112,0,0,0,.264-.468l.1-.1a.182.182,0,0,1,.168-.024q.048,0,.048.156A.739.739,0,0,1,199.8-12.648ZM7.776,24.824a9.507,9.507,0,0,0-1.476.312,5.5,5.5,0,0,0-1.38.624,6.022,6.022,0,0,0-.684.516,7.653,7.653,0,0,0-.816.792,1.19,1.19,0,0,0-.372.708q0,.24.384.324a2.964,2.964,0,0,0,.552.084,2.129,2.129,0,0,0,1.152-.348A5.281,5.281,0,0,0,6.18,26.96a10.641,10.641,0,0,0,.9-1.1Q7.488,25.28,7.776,24.824Zm14.976,3.12a1.859,1.859,0,0,1-.312,1.032,1.042,1.042,0,0,1-.936.48,1.439,1.439,0,0,1-.768-.24,4.545,4.545,0,0,1-.648-.48q-.384-.336-.78-.648t-.828-.6a9.717,9.717,0,0,1-2.076,2.9,9.468,9.468,0,0,1-2.76,1.788A18.93,18.93,0,0,1,10.2,33.248l-.444.1a2.153,2.153,0,0,1-.444.048,1.3,1.3,0,0,1-.228-.024.15.15,0,0,1-.132-.168q0-.144.18-.216a2.345,2.345,0,0,1,.276-.1l1.008-.384a8.738,8.738,0,0,0,.96-.432A9.207,9.207,0,0,0,14.3,29.564a11.253,11.253,0,0,0,1.752-3.42,14.672,14.672,0,0,0-3.024-1.092A15.289,15.289,0,0,0,9.84,24.7q-.456.888-.912,1.764t-.936,1.74a6.59,6.59,0,0,1-1.44,1.764,3.1,3.1,0,0,1-2.112.8A1.829,1.829,0,0,1,3.2,30.392a3.049,3.049,0,0,1-.756-1.08,1.811,1.811,0,0,1-.7-.6,1.49,1.49,0,0,1-.264-.864,1.565,1.565,0,0,1,.168-.684,3.984,3.984,0,0,1,.36-.612,6.636,6.636,0,0,1,2.448-2.124,12.367,12.367,0,0,1,3.072-1.116l.624-.144a4.207,4.207,0,0,1,.624-.1q.768-1.416,1.524-2.94a19.147,19.147,0,0,0,1.212-3.06,1.109,1.109,0,0,0,.036-.132.556.556,0,0,0,.012-.108q0-.1-.144-.1a1.3,1.3,0,0,0-.684.3,8.964,8.964,0,0,0-.828.672q-.408.372-.6.564a.868.868,0,0,1-.6.24,2.247,2.247,0,0,1-1.644-.6,2.181,2.181,0,0,1-.612-1.632,2.155,2.155,0,0,1,.168-.768.948.948,0,0,1,.528-.576,1.119,1.119,0,0,0,.5.636,1.654,1.654,0,0,0,.792.18,3.963,3.963,0,0,0,.888-.144q.576-.144,1.152-.348t.84-.324q.384-.168.768-.384a7.906,7.906,0,0,0,.72-.456,4.88,4.88,0,0,1,1.26.192,3.369,3.369,0,0,1,1.224.6,1.333,1.333,0,0,1,.516,1.1,1.181,1.181,0,0,1-.288.852,2.88,2.88,0,0,1-.744.54,3.807,3.807,0,0,0-1,.936A16.963,16.963,0,0,0,12.66,19.9q-.564.888-1.044,1.692l-.768,1.284a17.643,17.643,0,0,1,2.856.228,23.258,23.258,0,0,1,2.784.636q.024-.192.036-.372T16.536,23a.953.953,0,0,0-.432-.9,2.147,2.147,0,0,0-1.008-.276.593.593,0,0,1,.252-.432,3.473,3.473,0,0,1,.576-.4,2.631,2.631,0,0,1,.492-.228,4.025,4.025,0,0,1,.444-.12,2.266,2.266,0,0,1,.468-.048,2.973,2.973,0,0,1,1.224.324,4.519,4.519,0,0,1,1.224.828,1.507,1.507,0,0,1,.528,1.1.536.536,0,0,1-.1.324,1.411,1.411,0,0,1-.24.252,1.5,1.5,0,0,0-.408.672q-.1.36-.192.768l.288.144.288.144a1.063,1.063,0,0,0,.06-.324q.012-.2.108-.228a4.961,4.961,0,0,0,.948.972q.54.42,1.068.9A2,2,0,0,1,22.752,27.944Zm22.8-6.1a.99.99,0,0,1-.4.816,1.382,1.382,0,0,1-.876.312,1.852,1.852,0,0,1-.2-.012q-.108-.012-.228-.036a7.939,7.939,0,0,0-1.512-.144q-.216,0-.444.012t-.444.012a3.958,3.958,0,0,0-2.556.9,6.169,6.169,0,0,0-1.716,2.148,7.955,7.955,0,0,0-.3.8,2.751,2.751,0,0,0-.132.828,2.272,2.272,0,0,0,.552,1.7,3,3,0,0,0,1.656.7,6.351,6.351,0,0,0,.672.06,5.567,5.567,0,0,1,.648.06,2.24,2.24,0,0,1,1.548.888,2.671,2.671,0,0,1,.636,1.7.921.921,0,0,1-.288.732,1.5,1.5,0,0,1-.708.336,4.215,4.215,0,0,1-.828.084,5.934,5.934,0,0,1-1.368-.192,11.085,11.085,0,0,1-1.536-.492,5.422,5.422,0,0,1-1.224-.66,3.95,3.95,0,0,1-1.356-1.692,5.843,5.843,0,0,1-.372-2.148,4.529,4.529,0,0,1,.456-1.848,12.957,12.957,0,0,1,1.092-1.944,11.753,11.753,0,0,1,1.188-1.512q-1.44.6-3.06,1.332a15.176,15.176,0,0,0-2.868,1.668,2.16,2.16,0,0,1-.312.216,2.16,2.16,0,0,0-.312.216,2.407,2.407,0,0,1-.468.3,1.313,1.313,0,0,1-.564.108.564.564,0,0,1-.576-.336,1.694,1.694,0,0,1-.144-.672,6.182,6.182,0,0,1,.06-.792,2.631,2.631,0,0,1,.252-.84.944.944,0,0,1,.552-.5q.6-.216,1.164-.372a4.405,4.405,0,0,0,1.116-.492,10.992,10.992,0,0,0,2.724-2.484,16.507,16.507,0,0,0,1.98-3.084q.048-.12.168-.4t.228-.552a1.313,1.313,0,0,0,.108-.372q0-.192-.168-.192a1.224,1.224,0,0,0-.612.24,5.949,5.949,0,0,0-.768.6q-.4.36-.72.684l-.516.516a1.744,1.744,0,0,1-.456.312,1.2,1.2,0,0,1-.528.144,1.182,1.182,0,0,1-1.176-.648,3.167,3.167,0,0,1-.312-1.392,3.672,3.672,0,0,1,.1-.756,2.95,2.95,0,0,1,.312-.828.847.847,0,0,1,.576-.456,4.551,4.551,0,0,0,.216.96.722.722,0,0,0,.768.5,2.815,2.815,0,0,0,1.3-.348,11.417,11.417,0,0,0,1.32-.8q.648-.456,1.212-.8a1.922,1.922,0,0,1,.948-.348,4.032,4.032,0,0,1,1.212.192,2.484,2.484,0,0,1,1.032.612,1.54,1.54,0,0,1,.42,1.14,1.6,1.6,0,0,1-.288.984,2.843,2.843,0,0,1-.792.7,3.986,3.986,0,0,1-.5.3,2.2,2.2,0,0,0-.48.324q-.432.384-.852.828t-.828.852q-.888.912-1.776,1.86t-1.8,1.884a27.912,27.912,0,0,0,3.372-1.344q1.668-.792,3.276-1.56a2.129,2.129,0,0,0,.492-.312.812.812,0,0,1,.54-.192,5.756,5.756,0,0,1,1.02.108,5.448,5.448,0,0,1,1.152.348,2.924,2.924,0,0,1,.936.612A1.254,1.254,0,0,1,45.552,21.848Zm24.816,5.04a4.5,4.5,0,0,1-.744,2.616,5.72,5.72,0,0,1-1.98,1.764,11.334,11.334,0,0,1-2.688,1.056,19.4,19.4,0,0,1-2.9.516q-1.452.144-2.6.144-.408,0-.864-.012a3.884,3.884,0,0,1-.84-.108l-.024-.24.444-.048.444-.048A14.905,14.905,0,0,0,61.2,32a19.672,19.672,0,0,0,2.472-.912A5.8,5.8,0,0,0,66,29.288a4.571,4.571,0,0,0,.84-2.808,2.09,2.09,0,0,0-.78-1.728,2.816,2.816,0,0,0-1.812-.624,4.553,4.553,0,0,0-2.292.624,5.613,5.613,0,0,0-1.788,1.584,2.734,2.734,0,0,0-.456.9q-.12.444-.288.948a.985.985,0,0,1-.492.54,1.486,1.486,0,0,1-.732.228,1.4,1.4,0,0,1-1.032-.408,2.467,2.467,0,0,1-.6-1,3.6,3.6,0,0,1-.192-1.116,15.228,15.228,0,0,1,.264-2.82,24.628,24.628,0,0,1,.672-2.724q.12-.36.3-.96a7.492,7.492,0,0,1,.444-1.14,1.536,1.536,0,0,1,.576-.708l.12.048q-.024.168-.036.324t-.012.324a4.425,4.425,0,0,0,.06.672,1.678,1.678,0,0,0,.228.648,1.182,1.182,0,0,0,.324.4.642.642,0,0,1,.18.54.754.754,0,0,1-.012.12.875.875,0,0,0-.012.144q-.168.816-.36,1.644a7.466,7.466,0,0,0-.192,1.692,2.33,2.33,0,0,0,.084.456q.084.336.252.336a.75.75,0,0,0,.384-.168q.24-.168.336-.24A15.833,15.833,0,0,1,62.6,23.288a6.463,6.463,0,0,1,3.036-.72,5.527,5.527,0,0,1,2.388.5,4.071,4.071,0,0,1,1.7,1.476A4.179,4.179,0,0,1,70.368,26.888ZM65.4,16.472a1.21,1.21,0,0,1-.42.948,1.422,1.422,0,0,1-.972.372,2.752,2.752,0,0,1-.516-.048,4.905,4.905,0,0,1-.492-.12,6.694,6.694,0,0,0-1.8-.24,6.432,6.432,0,0,0-1.1.1,4.727,4.727,0,0,0-1.056.312l-.1-.072a2.739,2.739,0,0,1,.672-.78,4.45,4.45,0,0,1,.864-.54,4.354,4.354,0,0,1-1.224-1.152,2.58,2.58,0,0,1-.552-1.56,1.051,1.051,0,0,1,.264-.7,2.6,2.6,0,0,0,1.2.8,6.257,6.257,0,0,0,1.548.312q.8.06,1.476.06a1.79,1.79,0,0,1,1.056.36,3.024,3.024,0,0,1,.828.888A2,2,0,0,1,65.4,16.472Zm32.808,6.744a1.071,1.071,0,0,1-.492.936,2.352,2.352,0,0,1-1.188.384h-2q-.78,0-1.428-.024-.312,0-.588-.012t-.564-.012q-2.112,0-3.792.06t-3.5.132q-.336.024-1.032.084t-1.488.144q-.792.084-1.44.144a8.547,8.547,0,0,0-.864.108,3.418,3.418,0,0,1-1.992-.564,1.945,1.945,0,0,1-.816-1.716,2.2,2.2,0,0,1,.2-.84.915.915,0,0,1,.516-.576,2.031,2.031,0,0,0,.78.72,3.313,3.313,0,0,0,.972.324,5.376,5.376,0,0,0,.864.084q.768,0,1.536.012t1.536-.012q1.272-.072,2.268-.144t2.268-.216q1.272-.144,2.232-.276t1.788-.324q.828-.192,1.668-.456a9.107,9.107,0,0,1,1.944.252,6.612,6.612,0,0,1,1.56.564,3.222,3.222,0,0,1,.684.528A1.009,1.009,0,0,1,98.208,23.216ZM108.624,26a7.844,7.844,0,0,1-.8-1.488,16.659,16.659,0,0,1-.564-1.608,8.4,8.4,0,0,0-1.02,1.812,5.449,5.449,0,0,0-.372,2.052,3.366,3.366,0,0,0,.084.684.441.441,0,0,0,.468.4,1.289,1.289,0,0,0,.792-.36,7.027,7.027,0,0,0,.816-.8Q108.408,26.24,108.624,26Zm3.624-6.768a5.973,5.973,0,0,0-1.608.636,12.062,12.062,0,0,0-1.416.972,5.934,5.934,0,0,0,.4,1.284,8,8,0,0,0,.636,1.188q.576-.96,1.092-1.992A19.789,19.789,0,0,0,112.248,19.232Zm10.2,4.728a6.605,6.605,0,0,1-.828,3.372,7.527,7.527,0,0,1-2.208,2.4,12.837,12.837,0,0,1-3.036,1.572,21.5,21.5,0,0,1-3.288.912q-.192.024-.624.108t-.84.144a4.606,4.606,0,0,1-.576.06.612.612,0,0,1-.216-.036q-.1-.036-.1-.2,0-.12.168-.18l.24-.084q.5-.12,1.008-.264t1.008-.312a9.462,9.462,0,0,0,2.94-1.668,8.047,8.047,0,0,0,2.064-2.6,7.3,7.3,0,0,0,.756-3.312,5.782,5.782,0,0,0-.5-2.472,4.029,4.029,0,0,0-1.488-1.716,4.287,4.287,0,0,0-2.448-.612q-.72,1.2-1.356,2.472t-1.14,2.592a1.927,1.927,0,0,0,.3,1.14,8.914,8.914,0,0,0,.6.756,1.15,1.15,0,0,1,.3.792.987.987,0,0,1-.312.78,1.151,1.151,0,0,1-.792.276,2.265,2.265,0,0,1-.852-.18,5.788,5.788,0,0,1-.8-.4,11.57,11.57,0,0,1-.96,1.38,7.161,7.161,0,0,1-1.344,1.308,2.58,2.58,0,0,1-1.56.552,1.278,1.278,0,0,1-.96-.324,1.838,1.838,0,0,1-.444-.8q-.132-.48-.3-.96a1.414,1.414,0,0,0-.324-.588,4.513,4.513,0,0,0-.42-.372,1.332,1.332,0,0,1-.36-.444,1.783,1.783,0,0,1-.144-.8,3.979,3.979,0,0,1,.552-1.932,10.055,10.055,0,0,1,1.344-1.872,11.137,11.137,0,0,1,1.488-1.4,5.371,5.371,0,0,0-.108-.78q-.084-.4-.132-.78a5.054,5.054,0,0,0-.312-1.2,3.093,3.093,0,0,0-.7-1.008,2.655,2.655,0,0,0-.3-.3,2.655,2.655,0,0,1-.3-.3,1.834,1.834,0,0,1-.264-.384,1.009,1.009,0,0,1-.1-.456q0-.048.072-.06t.1.012q.672.384,1.356.768t1.356.744a2.03,2.03,0,0,1,.648.456,1.688,1.688,0,0,1,.36.7,5.183,5.183,0,0,1,.156.672,6.3,6.3,0,0,0,.156.7q.864-.456,1.764-.852a8.047,8.047,0,0,1,1.86-.564q.216-.624.42-1.272a4.371,4.371,0,0,0,.2-1.32.84.84,0,0,0-.42-.792,2.98,2.98,0,0,0-.9-.336.672.672,0,0,1,.372-.552,3.772,3.772,0,0,1,.828-.4q.456-.156.672-.2a3.952,3.952,0,0,1,.444-.072,4.242,4.242,0,0,1,.444-.024,3.252,3.252,0,0,1,2,.828,1.209,1.209,0,0,1,.42.9,1.066,1.066,0,0,1-.348.792q-.348.336-.66.624a3.19,3.19,0,0,0-.54.72q-.3.5-.492.792h.408a9.9,9.9,0,0,1,2.544.324,6.668,6.668,0,0,1,2.232,1.056,5.143,5.143,0,0,1,1.608,1.98A5.765,5.765,0,0,1,122.448,23.96Zm25.224-.216a12.429,12.429,0,0,1-.372,3.072,7.943,7.943,0,0,1-1.176,2.616,5.681,5.681,0,0,1-2.076,1.812,6.6,6.6,0,0,1-3.072.66,4,4,0,0,1-4.032-3.384,5.693,5.693,0,0,1-.084-.828q-.012-.42-.012-.8,0-.48.036-.972t.036-.972q0-.24-.024-.552a1.242,1.242,0,0,0-.168-.552.515.515,0,0,0-.48-.24,1.81,1.81,0,0,0-.924.276,4.642,4.642,0,0,0-.8.588,4.794,4.794,0,0,0-.876,1.1,11.779,11.779,0,0,0-.768,1.524,16.645,16.645,0,0,0-.588,1.62,10.752,10.752,0,0,0-.336,1.392,5.527,5.527,0,0,0-.06.636,2.463,2.463,0,0,1-.108.636.829.829,0,0,1-.444.54,1.525,1.525,0,0,1-.708.18,1.742,1.742,0,0,1-1.176-.372,1.936,1.936,0,0,1-.6-.96,4.478,4.478,0,0,1-.168-1.236V29.48a1.793,1.793,0,0,1,.216-.924q.192-.276.5-.8.12-.216.228-.432t.2-.432q.264-.48.54-.96t.564-.936q1.176-1.992,2.34-3.912T135.5,17.1q.192-.336.4-.684a2.769,2.769,0,0,0,.3-.732,2.073,2.073,0,0,0,.12-.648,1.487,1.487,0,0,0-.3-.924,1.285,1.285,0,0,0-.828-.492.766.766,0,0,1,.5-.42,2.966,2.966,0,0,1,.768-.12q.408-.012.672-.012a2.371,2.371,0,0,1,1.236.336,2.69,2.69,0,0,1,.912.888,2.249,2.249,0,0,1,.348,1.224.872.872,0,0,1-.288.672q-.288.264-.552.48a4.083,4.083,0,0,0-.372.372q-.18.2-.372.4a32.72,32.72,0,0,0-3.888,5.5q-.24.408-.48.8a7.376,7.376,0,0,0-.432.828,10.646,10.646,0,0,1,1.116-.96,7.041,7.041,0,0,1,1.356-.8,3.384,3.384,0,0,1,1.392-.324,1.961,1.961,0,0,1,1.944,1.272,3.479,3.479,0,0,1,.288,1.2q.048.672.084,1.368a5.749,5.749,0,0,0,.2,1.284,1.834,1.834,0,0,0,.612.948,2.084,2.084,0,0,0,1.332.36,4.161,4.161,0,0,0,2.76-.864,7.649,7.649,0,0,0,1.8-2.3,9.147,9.147,0,0,0,.708-1.86,7.542,7.542,0,0,0,.3-1.98.357.357,0,0,1,.048-.18.118.118,0,0,1,.144-.06,1.644,1.644,0,0,1,.216.612,6.688,6.688,0,0,1,.1.8Q147.672,23.48,147.672,23.744Z" transform="translate(-0.768 20.304)" fill="#e7b81e"/></svg>