<svg xmlns="http://www.w3.org/2000/svg" width="533.556" height="34.2" viewBox="0 0 533.556 34.2"><path d="M19.764-7.776v6.8a17.549,17.549,0,0,0,2.07-.414q1.026-.27,2.034-.558-.684-.828-1.3-1.656T21.348-5.292A21.984,21.984,0,0,0,24.012-6.48q1.3-.684,2.628-1.3ZM17.532-19.044v-2.34H15.984v2.34Zm0-3.672v-2.3H15.984v2.3Zm5.04,3.672v-2.34h-1.62v2.34Zm0-3.672v-2.3h-1.62v2.3Zm5.544-2.3H26.064v1.764a1.912,1.912,0,0,0,.27-.018,1.912,1.912,0,0,1,.27-.018,1.006,1.006,0,0,1,.738.306,1.006,1.006,0,0,1,.306.738.843.843,0,0,1-.522.864,2.755,2.755,0,0,1-1.062.216v2.124a2.362,2.362,0,0,0,1.512-.432,1.74,1.74,0,0,0,.54-1.44ZM9.684-10.152a.618.618,0,0,1-.036.252q-.5,2.376-1.314,4.95A38.883,38.883,0,0,1,6.48-.144,8.475,8.475,0,0,1,6.03.7a.884.884,0,0,1-.81.45A1.887,1.887,0,0,1,4.392.774,13.465,13.465,0,0,1,3.15-.162Q2.484-.72,1.926-1.206t-.774-.7q1.368-1.44,2.736-2.9T6.552-7.812q.5-.612.99-1.242t.99-1.206a2.421,2.421,0,0,1,.306-.324.558.558,0,0,1,.342-.18.423.423,0,0,1,.4.18A.824.824,0,0,1,9.684-10.152ZM9.4-14.94a.652.652,0,0,1-.27.558.982.982,0,0,1-.594.2,1.092,1.092,0,0,1-.324-.036q-1.692-.4-3.384-.9a27.764,27.764,0,0,0-3.456-.792l1.692-3.06q.18-.324.486-.774a.883.883,0,0,1,.738-.45,2.572,2.572,0,0,1,1.278.63,14.932,14.932,0,0,1,1.728,1.53,14.614,14.614,0,0,1,1.494,1.764A2.681,2.681,0,0,1,9.4-14.94ZM35.028,1.476a1.3,1.3,0,0,1-.558,1.1,1.935,1.935,0,0,1-1.17.414,10.02,10.02,0,0,1-4.644-1.17,15.634,15.634,0,0,1-3.924-2.826,9.2,9.2,0,0,1-3.978,2.736,14.728,14.728,0,0,1-4.806.9l.036-10.4h-.792a15.941,15.941,0,0,1-1.458,5.2A12.643,12.643,0,0,1,10.44,1.692q-.216.18-.666.54a8.189,8.189,0,0,1-.9.63,1.548,1.548,0,0,1-.738.27q-.324,0-.324-.252a.373.373,0,0,1,.108-.234,1.1,1.1,0,0,0,.144-.2A17.07,17.07,0,0,0,9.342.36,15.854,15.854,0,0,0,10.3-1.908a18.057,18.057,0,0,0,.9-4.374q.18-2.25.18-4.446,0-1.368-.036-2.7T11.3-16.092h18.18a1.966,1.966,0,0,1,.594-1.3,1.733,1.733,0,0,1,1.278-.576,2.934,2.934,0,0,1,1.512.45,1.441,1.441,0,0,1,.756,1.314,1.427,1.427,0,0,1-.612,1.3,2.592,2.592,0,0,1-1.44.4H15.444v3.24q0,.468-.036.954t-.036.99H29.988a1.334,1.334,0,0,1,.63-1.152,2.24,2.24,0,0,1,1.278-.432,1.93,1.93,0,0,1,1.242.45,1.433,1.433,0,0,1,.558,1.17,1.348,1.348,0,0,1-.486,1.134A1.9,1.9,0,0,1,32-7.776H29.736a5.193,5.193,0,0,1,.5.486q.36.378.684.756t.324.522a.432.432,0,0,1-.36.432,2.343,2.343,0,0,1-.774.162,5.973,5.973,0,0,0-.81.09q-.756.108-1.494.234t-1.494.234a10.661,10.661,0,0,0,1.332,2.25,18.77,18.77,0,0,0,2,2.268A12.266,12.266,0,0,0,31.68,1.3,1.658,1.658,0,0,1,32.256.288a1.623,1.623,0,0,1,1.08-.4,1.746,1.746,0,0,1,1.17.45A1.434,1.434,0,0,1,35.028,1.476ZM10.512-22.716a.617.617,0,0,1-.27.522.933.933,0,0,1-.558.2,5.6,5.6,0,0,1-1.1-.27q-.882-.27-2.016-.666t-2.142-.72q-1.008-.324-1.44-.432.18-.288.5-.828t.684-1.17q.36-.63.684-1.134a4.631,4.631,0,0,1,.468-.648,2.5,2.5,0,0,1,.306-.216.69.69,0,0,1,.342-.072,1.135,1.135,0,0,1,.612.18,5,5,0,0,1,.972.864q.648.684,1.332,1.566a17.561,17.561,0,0,1,1.152,1.656A2.622,2.622,0,0,1,10.512-22.716ZM29.16-12.42a1.069,1.069,0,0,1-.576,1.026,2.5,2.5,0,0,1-1.188.306H17.1V-12.6h8.964a1.376,1.376,0,0,1,.576-.936,1.792,1.792,0,0,1,1.044-.324,1.435,1.435,0,0,1,1.008.45A1.353,1.353,0,0,1,29.16-12.42Zm2.952-8.388a2.543,2.543,0,0,1-.828,2.106,4.138,4.138,0,0,1-2.016.846,15.377,15.377,0,0,1-2.3.18H12.132v-8.892H17.46v-3.1h3.564v3.1h1.512v-3.06h3.636v3.06h5.94Zm31.464-1.476H52.992v2.808h6.156a1.971,1.971,0,0,1,.558-1.1,1.537,1.537,0,0,1,1.134-.45,1.543,1.543,0,0,1,1.1.468,1.458,1.458,0,0,1,.486,1.08,1.149,1.149,0,0,1-.558,1.08,2.361,2.361,0,0,1-1.206.324H52.992V-15.8h8.784A1.44,1.44,0,0,0,63.2-16.56a3.65,3.65,0,0,0,.378-1.656ZM72.288-6.948A1.486,1.486,0,0,1,71.5-5.436a4.214,4.214,0,0,1-1.764.36H60.408q.072.576.108,1.188t.036,1.224A15.861,15.861,0,0,1,60.264.414,4.535,4.535,0,0,1,59.04,2.808a4.034,4.034,0,0,1-2.952.936,4.35,4.35,0,0,1-2.016-.522,9.876,9.876,0,0,1-1.89-1.278A16.531,16.531,0,0,1,50.652.468.419.419,0,0,0,50.58.36a.147.147,0,0,1-.036-.108q0-.108.18-.108a1.185,1.185,0,0,1,.36.072,3.582,3.582,0,0,1,.54.108l.5.144a12.162,12.162,0,0,0,1.3.216,12.057,12.057,0,0,0,1.332.072,1.188,1.188,0,0,0,.99-.432A2.625,2.625,0,0,0,56.232-.7a4.684,4.684,0,0,0,.144-1.1q0-.828-.018-1.692t-.09-1.584h-10.3V-6.7h10.08q-.072-.72-.2-1.4t-.27-1.368l3.024.252a18.737,18.737,0,0,0,2.736-1.944H49.464v-1.476q3.42-.072,6.84-.072h10.08a.9.9,0,0,1,.4.072q.144.072.144.36,0,.828-1.188,1.692a10.747,10.747,0,0,1-2.07,1.116q-1.206.5-2.3.846t-1.71.522a6.016,6.016,0,0,1,.234.7q.09.342.162.7H68a2.379,2.379,0,0,1,.648-1.476,1.937,1.937,0,0,1,1.476-.612,2.5,2.5,0,0,1,1.44.5A1.554,1.554,0,0,1,72.288-6.948Zm-.972-21.2a1.821,1.821,0,0,1-.738,1.62,3.083,3.083,0,0,1-1.782.5H46.872q0,2.88-.018,5.76t-.162,5.76A29.555,29.555,0,0,1,46.1-9.9a25.678,25.678,0,0,1-1.35,4.464,14.129,14.129,0,0,1-1.1,2.16,21.712,21.712,0,0,1-1.53,2.2A13.2,13.2,0,0,1,40.464.684q-.288.252-.756.612a1.46,1.46,0,0,1-.864.36q-.4,0-.4-.36a.513.513,0,0,1,.09-.306A2.01,2.01,0,0,0,38.7.72a27.683,27.683,0,0,0,1.674-3.15A19.116,19.116,0,0,0,41.508-5.8a28.831,28.831,0,0,0,.756-4.77q.18-2.43.18-4.842,0-3.06-.018-6.12t-.018-6.12H66.744a2.668,2.668,0,0,1,.63-1.674,1.99,1.99,0,0,1,1.6-.7,2.852,2.852,0,0,1,1.53.522A1.558,1.558,0,0,1,71.316-28.152Zm-3.384,8.82a6.044,6.044,0,0,1-.7,3.2A3.486,3.486,0,0,1,65.2-14.616a11.492,11.492,0,0,1-3.24.4H49.248v-9.612H67.932ZM91.3-10.872V-14.4H85.824v3.528Zm0-5.112v-3.24H85.824v3.24Zm10.044-3.24h-5.9v3.24h1.872a1.492,1.492,0,0,1,.558-.864,1.5,1.5,0,0,1,.954-.36,1.672,1.672,0,0,1,1.116.4,1.34,1.34,0,0,1,.468,1.08,1.148,1.148,0,0,1-.5.954,1.72,1.72,0,0,1-1.044.378h-3.42v3.528h3.888a1.646,1.646,0,0,0,1.548-.81,3.432,3.432,0,0,0,.468-1.746ZM91.224-6.876a24.3,24.3,0,0,1-5.76,5.652,21.06,21.06,0,0,1-7.416,3.276q-.36.072-.756.162a3.564,3.564,0,0,1-.792.09.58.58,0,0,1-.252-.072.231.231,0,0,1-.144-.216.29.29,0,0,1,.144-.216,2.179,2.179,0,0,0,.18-.144q.54-.288,1.062-.612T78.516.36A27.207,27.207,0,0,0,83.2-3.8,23.357,23.357,0,0,0,86.76-8.892ZM111.312.036a1.85,1.85,0,0,1-.576,1.314,1.766,1.766,0,0,1-1.3.594,6.147,6.147,0,0,1-.936-.072q-.468-.072-.936-.18A15.937,15.937,0,0,1,103.032-.18a24.888,24.888,0,0,1-4.158-3.114,32.973,32.973,0,0,1-3.366-3.582L99.54-8.964a57.39,57.39,0,0,0,3.4,4.842,16.631,16.631,0,0,0,4.374,3.906,2.472,2.472,0,0,1,.828-1.044,2.055,2.055,0,0,1,1.26-.432,1.984,1.984,0,0,1,1.314.5A1.55,1.55,0,0,1,111.312.036Zm-1.764-25.344a1.689,1.689,0,0,1-.612,1.458,2.544,2.544,0,0,1-1.548.45H95.436v2.664H105.66v6.552q0,2.844-1.512,3.834a7.417,7.417,0,0,1-4.1.99H95.436V2.916H91.3V-9.36H81.9V-20.736h9.4V-23.4H78.264v-1.692h12.96v-4.752h4.212v4.752h9.756a2.564,2.564,0,0,1,.666-1.584,1.981,1.981,0,0,1,1.53-.648,2.211,2.211,0,0,1,1.476.594A1.823,1.823,0,0,1,109.548-25.308Zm28.368,7.02h-13.14v6.732h10.4a2.891,2.891,0,0,0,2.142-.63,3.089,3.089,0,0,0,.594-2.142ZM126.756-6.372a.908.908,0,0,1-.306.576q-.306.324-.486.5a26.233,26.233,0,0,1-4.392,3.564A18.017,18.017,0,0,1,116.388.5q-.432.108-.864.2a4.226,4.226,0,0,1-.864.09.888.888,0,0,1-.27-.054.2.2,0,0,1-.162-.2.3.3,0,0,1,.144-.27,1.224,1.224,0,0,1,.252-.126,15.338,15.338,0,0,0,3.06-2.376,29.881,29.881,0,0,0,2.88-3.258,32.3,32.3,0,0,0,2.2-3.222q.5.252,1.26.612t1.476.738a6.78,6.78,0,0,1,1.116.7A.342.342,0,0,1,126.756-6.372ZM142.308-14.4a3.925,3.925,0,0,1-1.116,3.186,5.98,5.98,0,0,1-3.24,1.134,21.129,21.129,0,0,1-2.3.09q-1.152-.018-2.3-.018v8.5a10.821,10.821,0,0,1-.288,2.646A3.1,3.1,0,0,1,131.9,2.916a4.37,4.37,0,0,1-2.628.648,4.532,4.532,0,0,1-2-.576,16.123,16.123,0,0,1-2.2-1.35q-1.062-.774-1.71-1.35a.555.555,0,0,0-.144-.162q-.108-.09-.108-.162,0-.144.216-.144a3.467,3.467,0,0,1,.99.144,7.227,7.227,0,0,0,.954.216q.432.072.882.126a7.4,7.4,0,0,0,.882.054q1.4,0,1.71-.756A5.124,5.124,0,0,0,129.06-2.3q0-1.908-.018-3.852t-.018-3.852H120.6V-19.98h21.708Zm6.66,13.86a1.27,1.27,0,0,1-.774,1.188,3.215,3.215,0,0,1-1.458.4A7,7,0,0,1,144.18.522a15.743,15.743,0,0,1-2.646-1.35,27.342,27.342,0,0,1-2.466-1.746q-1.152-.918-2.016-1.71-.144-.144-.558-.54t-.792-.81q-.378-.414-.378-.558a.325.325,0,0,1,.18-.288,12.992,12.992,0,0,1,1.872-1.1q1.008-.486,1.944-.99.72,1.224,1.728,2.664t2.124,2.772a19.948,19.948,0,0,0,2.2,2.268,1.562,1.562,0,0,1,.594-1.1,1.726,1.726,0,0,1,1.134-.486,1.766,1.766,0,0,1,1.3.594A1.85,1.85,0,0,1,148.968-.54Zm-1.332-24.408a1.648,1.648,0,0,1-.738,1.53,3.219,3.219,0,0,1-1.71.45h-29.88V-24.66H129.06q-.18-1.476-.342-2.916t-.27-2.88q.288,0,1.188.054t1.926.144q1.026.09,1.836.18a2.338,2.338,0,0,1,.918.2.682.682,0,0,1,.252.54,3.2,3.2,0,0,1-.234.936q-.234.648-.558,1.4t-.63,1.4a9.964,9.964,0,0,1-.486.936h10.224a2.984,2.984,0,0,1,.684-1.836,2.158,2.158,0,0,1,1.764-.792,2.211,2.211,0,0,1,1.656.666A2.3,2.3,0,0,1,147.636-24.948ZM182.88-3.636a4.254,4.254,0,0,1-.666,2.43,2.179,2.179,0,0,1-1.926.99,2.806,2.806,0,0,1-1.386-.4,4.672,4.672,0,0,1-1.224-.99,2.5,2.5,0,0,1-.63-1.206,10.905,10.905,0,0,0-1.026-2.916,13.821,13.821,0,0,0-1.548-2.358,11.276,11.276,0,0,0-1.638-1.656,3.512,3.512,0,0,0-1.3-.738,30.294,30.294,0,0,1-2.052,2.628A24.828,24.828,0,0,1,166.608-5a21.957,21.957,0,0,1-4.9,3.078A30.243,30.243,0,0,1,155.16.18q-.252.036-.558.108a2.59,2.59,0,0,1-.594.072,2.851,2.851,0,0,1-.468-.036q-.216-.036-.216-.18,0-.072.2-.18a2.077,2.077,0,0,1,.306-.144q.216-.072.63-.2a6.7,6.7,0,0,0,.666-.234,17.735,17.735,0,0,0,4.5-2.394,24.749,24.749,0,0,0,3.852-3.438q1.188-1.3,2.268-2.718t1.872-2.646q.576-.936,1.206-2.232t1.206-2.646q.576-1.35.972-2.43a8.471,8.471,0,0,0,.4-1.44q.072-.5.072-.54v-.036a.28.28,0,0,0-.2-.288,1.431,1.431,0,0,0-.486-.072h-.378a1.008,1.008,0,0,0-.378.072q-.432.144-1.3.5t-1.818.828q-.954.468-1.764.936a4.217,4.217,0,0,0-1.134.864,1.566,1.566,0,0,1-1.152.468,2.232,2.232,0,0,1-.54-.072q-.288-.072-.5-.144a6.729,6.729,0,0,1-1.368-.936,14.037,14.037,0,0,1-1.008-1.044,4.491,4.491,0,0,1-.45-.828,2.56,2.56,0,0,1-.2-1.008,1.966,1.966,0,0,1,.036-.648q.072-.324.144-.612a1.8,1.8,0,0,1,.18-.252.39.39,0,0,1,.288-.18,1.711,1.711,0,0,0,.63.828,3.112,3.112,0,0,0,.936.468,2.846,2.846,0,0,0,.7.144h.54a3.962,3.962,0,0,0,.612-.036q.576-.072,1.566-.252t2.16-.45q1.17-.27,2.214-.558a12.642,12.642,0,0,0,2.178-.81q.81-.414,1.026-.558a1.907,1.907,0,0,1,1.224-.432,7.922,7.922,0,0,1,2.718.5,5.422,5.422,0,0,1,2.25,1.476.99.99,0,0,1,.252.486,2.454,2.454,0,0,1,.072.558,2.277,2.277,0,0,1-.468,1.008,10.136,10.136,0,0,1-1.116,1.3q-.576,1.332-1.4,2.862T173.808-14q-.9,1.476-1.764,2.7a13.158,13.158,0,0,1,4.284.666,11.659,11.659,0,0,1,3.024,1.6,11.039,11.039,0,0,1,2.2,2.16,5.993,5.993,0,0,1,.99,1.71A4.571,4.571,0,0,1,182.88-3.636Zm35.1-15.732q0,.684-1.44,1.332-.684,1.62-1.494,3.276a31.98,31.98,0,0,1-1.674,3.024q.576.288,1.26.666a5.893,5.893,0,0,1,1.152.81,3.835,3.835,0,0,1,1.548,2.916,4.665,4.665,0,0,1-.126,1.1,1.707,1.707,0,0,1-.522.882,2.921,2.921,0,0,1-.882.594,3.325,3.325,0,0,1-1.35.234,2,2,0,0,1-1.278-.522,3.633,3.633,0,0,1-.954-1.17,3.674,3.674,0,0,0-.576-.756q-.432-.468-.828-.864a26.532,26.532,0,0,1-2.826,3.186A17.4,17.4,0,0,1,204.7-2.214a23.772,23.772,0,0,1-4.284,1.89q-.864.288-2.376.648t-2.988.612q-.468.072-1.224.144t-1.4.108q-.648.036-.828.036-.432,0-.432-.288A.223.223,0,0,1,191.3.7a1.96,1.96,0,0,1,.36-.09,15.373,15.373,0,0,0,2.754-.774q1.494-.558,2.934-1.242a19.214,19.214,0,0,0,3.06-1.8,29.772,29.772,0,0,0,2.844-2.3,24.752,24.752,0,0,0,2.376-2.5,18.677,18.677,0,0,0,1.8-2.538,11.313,11.313,0,0,0-1.8-1.116q-1.116-.576-2.25-1.044a11.946,11.946,0,0,0-1.962-.648q-.18-.036-.342-.072t-.162-.144q0-.216.4-.36a1.4,1.4,0,0,1,.414-.09q.234-.018.486-.054.288,0,.594-.018t.558-.018q1.4,0,2.862.126a11.829,11.829,0,0,1,2.9.63,11.1,11.1,0,0,0,.54-1.242q.324-.846.684-1.854t.594-1.908a5.953,5.953,0,0,0,.234-1.368q0-.5-.432-.5a3.829,3.829,0,0,0-.882.18q-.63.18-1.242.378t-.864.306a2.163,2.163,0,0,1-.594.2,3.234,3.234,0,0,1-.558.054,1.764,1.764,0,0,1-1.116-.4q-.576.828-1.242,1.674t-1.278,1.6q-.9,1.008-1.782,1.836a20.168,20.168,0,0,1-2.034,1.656q-.252.18-1.08.666t-1.548.882a8.539,8.539,0,0,1-.846.36,2.742,2.742,0,0,1-.594.18q-.288,0-.288-.144,0-.072.162-.234a1.166,1.166,0,0,1,.234-.2,8.718,8.718,0,0,1,.666-.666,6.082,6.082,0,0,0,.558-.558,20.847,20.847,0,0,0,1.764-2.052q.72-.972,1.368-1.98a27.581,27.581,0,0,0,1.368-2.43,22.055,22.055,0,0,0,1.224-2.916,8.416,8.416,0,0,0,.5-2.646q0-.252-.666-.648a4.419,4.419,0,0,0-1.35-.54,1.114,1.114,0,0,1,.558-.9,4.239,4.239,0,0,1,1.35-.612,5.63,5.63,0,0,1,1.476-.216,5.723,5.723,0,0,1,2.052.306,4.793,4.793,0,0,1,1.674.936,1.742,1.742,0,0,1,.666,1.314,2.59,2.59,0,0,1-.54,1.512,12.038,12.038,0,0,1-.558,1.116q-.27.468-.666,1.08a1.092,1.092,0,0,0,.324.036,1.912,1.912,0,0,0,.27-.018,1.662,1.662,0,0,1,.234-.018q.72-.18,1.422-.378t1.278-.342a9.835,9.835,0,0,0,1.116-.684q.5-.36.828-.576.144-.072.45-.216a1.274,1.274,0,0,1,.522-.144,3.52,3.52,0,0,1,1.008.162,4.578,4.578,0,0,1,1.224.63,8.353,8.353,0,0,1,1.224,1.062,7.4,7.4,0,0,1,.9,1.062,3.518,3.518,0,0,1,.414.7A1.374,1.374,0,0,1,217.98-19.368Zm34.092-4.284a1.218,1.218,0,0,1-.342.954,2.884,2.884,0,0,1-.918.522q-.936,1.152-1.908,2.286t-2.016,2.178a7.771,7.771,0,0,1,.936.7,1.305,1.305,0,0,1,.576.918,1.6,1.6,0,0,1-.288.792,2.524,2.524,0,0,0-.36.972,2.623,2.623,0,0,0-.036.432v.432q0,2.844.054,5.688T248-2.088q.072.432.108.882t.036.882a3.321,3.321,0,0,1-.27,1.242A3.306,3.306,0,0,1,247.1,2.07a1.614,1.614,0,0,1-1.152.486,2.171,2.171,0,0,1-1.638-.756A5.034,5.034,0,0,1,243.252.018a5.584,5.584,0,0,1-.36-1.818A2.617,2.617,0,0,1,243-2.556q.108-.36.18-.72.18-.72.378-1.458a7.137,7.137,0,0,0,.234-1.53q.144-1.368.234-2.7t.09-2.664q0-.792-.018-1.566t-.018-1.566a25.121,25.121,0,0,1-5.166,3.654,32.681,32.681,0,0,1-5.85,2.394q-.252.036-.9.2a4.54,4.54,0,0,1-.864.162q-.072,0-.234-.018t-.162-.162q0-.108.324-.288t.666-.36a4.04,4.04,0,0,1,.45-.216,27.821,27.821,0,0,0,4.932-3.6,40.368,40.368,0,0,0,4.212-4.428q.4-.5,1.1-1.44t1.44-2.016a17.957,17.957,0,0,0,1.242-2.088,3.91,3.91,0,0,0,.5-1.62.684.684,0,0,0-.4-.594,3.908,3.908,0,0,0-.882-.378q-.486-.144-.774-.252.036-.252.468-.522a7.034,7.034,0,0,1,1.044-.522q.612-.252,1.152-.414a3.126,3.126,0,0,1,.792-.162,3.56,3.56,0,0,1,1.188.216,5.636,5.636,0,0,1,1.08.5,4.153,4.153,0,0,1,1.008.756,11.658,11.658,0,0,1,1.116,1.206A1.879,1.879,0,0,1,252.072-23.652Zm27.54,5.22a1.3,1.3,0,0,1-.108.576,1.433,1.433,0,0,1-.36.432,30.377,30.377,0,0,1-1.638,6.912A16.21,16.21,0,0,1,274-4.932q-.684.756-1.44,1.458a15.176,15.176,0,0,1-1.692,1.35,13.19,13.19,0,0,1-1.368.864q-.72.4-1.44.756-.4.216-.792.4a1.9,1.9,0,0,1-.792.18q-.288.072-.36-.144a.8.8,0,0,1,.036-.252.609.609,0,0,1,.252-.252q.576-.4,1.3-.99a12.21,12.21,0,0,0,1.332-1.278,19.8,19.8,0,0,0,2.61-3.744,22.9,22.9,0,0,0,1.746-4.032q.288-.9.576-2.106t.468-2.466a16.4,16.4,0,0,0,.18-2.3,3.712,3.712,0,0,0-.144-.936,2.774,2.774,0,0,0-.558-1.044,2.509,2.509,0,0,0-1.278-.756.378.378,0,0,1,.126-.27,1.582,1.582,0,0,1,.234-.2,3.044,3.044,0,0,1,1.17-.522,5.232,5.232,0,0,1,1.206-.2,4.076,4.076,0,0,1,2.25.612,5.373,5.373,0,0,1,1.476,1.332A2.243,2.243,0,0,1,279.612-18.432Zm20.088-.54q-.288.936-.828,2.286a18.946,18.946,0,0,1-1.26,2.574q-.648,1.044-1.35,2.16A15.8,15.8,0,0,1,294.7-9.864a34.461,34.461,0,0,1-3.51,3.438,19.632,19.632,0,0,1-5.022,3.114,4.05,4.05,0,0,1-.864.738,2.207,2.207,0,0,1-1.116.234,1.666,1.666,0,0,1-.684-.144q-.468-.108-.972-.936a7.988,7.988,0,0,1-.594-1.242,10.786,10.786,0,0,1-.432-1.386,4.935,4.935,0,0,1-.162-1.044.647.647,0,0,1,.108-.4,1.307,1.307,0,0,1,.324-.288,1.361,1.361,0,0,0,.36-.5,1.36,1.36,0,0,0,.144-.468q.036-1.224.054-2.358t.018-2.25q0-2.808-.09-4.842t-.162-2.646a4.409,4.409,0,0,0-.054-.648,4.921,4.921,0,0,0-.126-.612,1.525,1.525,0,0,0-.666-.882,4.457,4.457,0,0,0-1.458-.7q.072-.5.99-.936a4.717,4.717,0,0,1,2.034-.432A2.5,2.5,0,0,1,283.3-25q.27.054.522.126a4.519,4.519,0,0,1,.936.45q.576.342,1.152.756a7.433,7.433,0,0,1,.9.738,2.324,2.324,0,0,1,.414.558,1.331,1.331,0,0,1,.162.63,1.194,1.194,0,0,1-.288.756,2.634,2.634,0,0,0-.576,1.008q-.108.576-.18,1.35t-.144,1.674q-.144,2.088-.252,4.176T285.84-8.6a25.128,25.128,0,0,0,4.1-1.746,22.324,22.324,0,0,0,4.536-3.294q.684-.612,1.44-1.422t1.422-1.62q.666-.81,1.026-1.35.288-.36.54-.7a3.168,3.168,0,0,0,.4-.7l.144-.144a.273.273,0,0,1,.252-.036q.072,0,.072.234A1.108,1.108,0,0,1,299.7-18.972Zm25.164,8.208a14.26,14.26,0,0,0-2.214.468,8.248,8.248,0,0,0-2.07.936,9.031,9.031,0,0,0-1.026.774A11.478,11.478,0,0,0,318.33-7.4a1.785,1.785,0,0,0-.558,1.062q0,.36.576.486a4.446,4.446,0,0,0,.828.126,3.194,3.194,0,0,0,1.728-.522A7.921,7.921,0,0,0,322.47-7.56a15.959,15.959,0,0,0,1.35-1.656Q324.432-10.08,324.864-10.764Zm22.464,4.68a2.788,2.788,0,0,1-.468,1.548,1.563,1.563,0,0,1-1.4.72,2.159,2.159,0,0,1-1.152-.36,6.818,6.818,0,0,1-.972-.72q-.576-.5-1.17-.972t-1.242-.9a14.576,14.576,0,0,1-3.114,4.356A14.2,14.2,0,0,1,333.666.27a28.394,28.394,0,0,1-5.166,1.6q-.324.072-.666.144a3.229,3.229,0,0,1-.666.072,1.951,1.951,0,0,1-.342-.036.226.226,0,0,1-.2-.252q0-.216.27-.324a3.517,3.517,0,0,1,.414-.144l1.512-.576a13.105,13.105,0,0,0,1.44-.648,13.81,13.81,0,0,0,4.392-3.762,16.879,16.879,0,0,0,2.628-5.13,22.009,22.009,0,0,0-4.536-1.638,22.932,22.932,0,0,0-4.788-.522q-.684,1.332-1.368,2.646t-1.4,2.61a9.886,9.886,0,0,1-2.16,2.646,4.646,4.646,0,0,1-3.168,1.206,2.744,2.744,0,0,1-1.854-.576,4.574,4.574,0,0,1-1.134-1.62,2.717,2.717,0,0,1-1.044-.9,2.235,2.235,0,0,1-.4-1.3,2.348,2.348,0,0,1,.252-1.026,5.978,5.978,0,0,1,.54-.918,9.955,9.955,0,0,1,3.672-3.186,18.549,18.549,0,0,1,4.608-1.674l.936-.216a6.311,6.311,0,0,1,.936-.144q1.152-2.124,2.286-4.41a28.719,28.719,0,0,0,1.818-4.59,1.66,1.66,0,0,0,.054-.2.835.835,0,0,0,.018-.162q0-.144-.216-.144a1.954,1.954,0,0,0-1.026.45,13.447,13.447,0,0,0-1.242,1.008q-.612.558-.9.846a1.3,1.3,0,0,1-.9.36,3.37,3.37,0,0,1-2.466-.9,3.271,3.271,0,0,1-.918-2.448,3.233,3.233,0,0,1,.252-1.152,1.422,1.422,0,0,1,.792-.864,1.679,1.679,0,0,0,.756.954,2.48,2.48,0,0,0,1.188.27,5.945,5.945,0,0,0,1.332-.216q.864-.216,1.728-.522t1.26-.486q.576-.252,1.152-.576a11.858,11.858,0,0,0,1.08-.684,7.32,7.32,0,0,1,1.89.288,5.053,5.053,0,0,1,1.836.9,2,2,0,0,1,.774,1.656,1.772,1.772,0,0,1-.432,1.278,4.32,4.32,0,0,1-1.116.81,5.71,5.71,0,0,0-1.494,1.4,25.445,25.445,0,0,0-1.692,2.376q-.846,1.332-1.566,2.538t-1.152,1.926a26.464,26.464,0,0,1,4.284.342,34.886,34.886,0,0,1,4.176.954q.036-.288.054-.558T338-13.5a1.43,1.43,0,0,0-.648-1.35,3.22,3.22,0,0,0-1.512-.414.89.89,0,0,1,.378-.648,5.209,5.209,0,0,1,.864-.594,3.948,3.948,0,0,1,.738-.342,6.038,6.038,0,0,1,.666-.18,3.4,3.4,0,0,1,.7-.072,4.46,4.46,0,0,1,1.836.486,6.778,6.778,0,0,1,1.836,1.242,2.26,2.26,0,0,1,.792,1.656.8.8,0,0,1-.144.486,2.116,2.116,0,0,1-.36.378,2.247,2.247,0,0,0-.612,1.008q-.144.54-.288,1.152l.432.216.432.216a1.594,1.594,0,0,0,.09-.486q.018-.306.162-.342A7.442,7.442,0,0,0,344.79-9.63q.81.63,1.6,1.35A3.007,3.007,0,0,1,347.328-6.084Zm34.2-9.144A1.484,1.484,0,0,1,380.934-14a2.073,2.073,0,0,1-1.314.468,2.777,2.777,0,0,1-.306-.018q-.162-.018-.342-.054a11.908,11.908,0,0,0-2.268-.216q-.324,0-.666.018t-.666.018a5.937,5.937,0,0,0-3.834,1.35,9.254,9.254,0,0,0-2.574,3.222,11.93,11.93,0,0,0-.45,1.206,4.127,4.127,0,0,0-.2,1.242,3.408,3.408,0,0,0,.828,2.556,4.492,4.492,0,0,0,2.484,1.044,9.527,9.527,0,0,0,1.008.09,8.35,8.35,0,0,1,.972.09,3.36,3.36,0,0,1,2.322,1.332A4.006,4.006,0,0,1,376.884.9a1.381,1.381,0,0,1-.432,1.1,2.248,2.248,0,0,1-1.062.5,6.322,6.322,0,0,1-1.242.126A8.9,8.9,0,0,1,372.1,2.34a16.626,16.626,0,0,1-2.3-.738,8.133,8.133,0,0,1-1.836-.99,5.926,5.926,0,0,1-2.034-2.538,8.765,8.765,0,0,1-.558-3.222,6.793,6.793,0,0,1,.684-2.772,19.434,19.434,0,0,1,1.638-2.916,17.634,17.634,0,0,1,1.782-2.268q-2.16.9-4.59,2a22.764,22.764,0,0,0-4.3,2.5,3.241,3.241,0,0,1-.468.324,3.239,3.239,0,0,0-.468.324,3.612,3.612,0,0,1-.7.45,1.97,1.97,0,0,1-.846.162.846.846,0,0,1-.864-.5,2.541,2.541,0,0,1-.216-1.008,9.274,9.274,0,0,1,.09-1.188,3.947,3.947,0,0,1,.378-1.26,1.416,1.416,0,0,1,.828-.756q.9-.324,1.746-.558a6.608,6.608,0,0,0,1.674-.738,16.488,16.488,0,0,0,4.086-3.726,24.76,24.76,0,0,0,2.97-4.626q.072-.18.252-.594t.342-.828a1.97,1.97,0,0,0,.162-.558q0-.288-.252-.288a1.837,1.837,0,0,0-.918.36,8.926,8.926,0,0,0-1.152.9q-.594.54-1.08,1.026l-.774.774a2.616,2.616,0,0,1-.684.468,1.792,1.792,0,0,1-.792.216,1.772,1.772,0,0,1-1.764-.972,4.751,4.751,0,0,1-.468-2.088,5.509,5.509,0,0,1,.144-1.134,4.425,4.425,0,0,1,.468-1.242,1.271,1.271,0,0,1,.864-.684,6.827,6.827,0,0,0,.324,1.44,1.083,1.083,0,0,0,1.152.756,4.223,4.223,0,0,0,1.944-.522,17.127,17.127,0,0,0,1.98-1.206q.972-.684,1.818-1.206a2.882,2.882,0,0,1,1.422-.522,6.048,6.048,0,0,1,1.818.288,3.726,3.726,0,0,1,1.548.918,2.311,2.311,0,0,1,.63,1.71,2.394,2.394,0,0,1-.432,1.476,4.264,4.264,0,0,1-1.188,1.044,5.981,5.981,0,0,1-.756.45,3.3,3.3,0,0,0-.72.486q-.648.576-1.278,1.242t-1.242,1.278q-1.332,1.368-2.664,2.79t-2.7,2.826a41.868,41.868,0,0,0,5.058-2.016q2.5-1.188,4.914-2.34a3.193,3.193,0,0,0,.738-.468,1.217,1.217,0,0,1,.81-.288,8.634,8.634,0,0,1,1.53.162,8.173,8.173,0,0,1,1.728.522,4.385,4.385,0,0,1,1.4.918A1.882,1.882,0,0,1,381.528-15.228Zm37.224,7.56a6.748,6.748,0,0,1-1.116,3.924,8.58,8.58,0,0,1-2.97,2.646A17,17,0,0,1,410.634.486a29.106,29.106,0,0,1-4.356.774q-2.178.216-3.906.216-.612,0-1.3-.018a5.826,5.826,0,0,1-1.26-.162l-.036-.36.666-.072.666-.072A22.358,22.358,0,0,0,405,0a29.507,29.507,0,0,0,3.708-1.368,8.707,8.707,0,0,0,3.492-2.7,6.856,6.856,0,0,0,1.26-4.212,3.135,3.135,0,0,0-1.17-2.592,4.224,4.224,0,0,0-2.718-.936,6.83,6.83,0,0,0-3.438.936A8.418,8.418,0,0,0,403.452-8.5a4.1,4.1,0,0,0-.684,1.35q-.18.666-.432,1.422a1.478,1.478,0,0,1-.738.81,2.229,2.229,0,0,1-1.1.342,2.1,2.1,0,0,1-1.548-.612,3.7,3.7,0,0,1-.9-1.494,5.4,5.4,0,0,1-.288-1.674,22.841,22.841,0,0,1,.4-4.23,36.947,36.947,0,0,1,1.008-4.086q.18-.54.45-1.44a11.239,11.239,0,0,1,.666-1.71,2.3,2.3,0,0,1,.864-1.062l.18.072q-.036.252-.054.486t-.018.486a6.637,6.637,0,0,0,.09,1.008,2.516,2.516,0,0,0,.342.972,1.773,1.773,0,0,0,.486.594.963.963,0,0,1,.27.81,1.132,1.132,0,0,1-.018.18,1.312,1.312,0,0,0-.018.216q-.252,1.224-.54,2.466a11.2,11.2,0,0,0-.288,2.538,3.493,3.493,0,0,0,.126.684q.126.5.378.5a1.125,1.125,0,0,0,.576-.252q.36-.252.5-.36a23.748,23.748,0,0,1,3.942-2.592,9.7,9.7,0,0,1,4.554-1.08,8.29,8.29,0,0,1,3.582.756,6.107,6.107,0,0,1,2.556,2.214A6.268,6.268,0,0,1,418.752-7.668ZM411.3-23.292a1.815,1.815,0,0,1-.63,1.422,2.133,2.133,0,0,1-1.458.558,4.127,4.127,0,0,1-.774-.072,7.361,7.361,0,0,1-.738-.18,10.041,10.041,0,0,0-2.7-.36,9.648,9.648,0,0,0-1.656.144,7.091,7.091,0,0,0-1.584.468l-.144-.108a4.108,4.108,0,0,1,1.008-1.17,6.675,6.675,0,0,1,1.3-.81,6.531,6.531,0,0,1-1.836-1.728,3.87,3.87,0,0,1-.828-2.34,1.576,1.576,0,0,1,.4-1.044,3.9,3.9,0,0,0,1.8,1.206,9.385,9.385,0,0,0,2.322.468q1.206.09,2.214.09a2.685,2.685,0,0,1,1.584.54,4.537,4.537,0,0,1,1.242,1.332A3.007,3.007,0,0,1,411.3-23.292Zm49.212,10.116a1.607,1.607,0,0,1-.738,1.4,3.529,3.529,0,0,1-1.782.576h-3.006q-1.17,0-2.142-.036-.468,0-.882-.018t-.846-.018q-3.168,0-5.688.09t-5.256.2q-.5.036-1.548.126t-2.232.216q-1.188.126-2.16.216a12.821,12.821,0,0,0-1.3.162,5.127,5.127,0,0,1-2.988-.846,2.917,2.917,0,0,1-1.224-2.574,3.3,3.3,0,0,1,.306-1.26,1.372,1.372,0,0,1,.774-.864,3.046,3.046,0,0,0,1.17,1.08,4.969,4.969,0,0,0,1.458.486,8.063,8.063,0,0,0,1.3.126q1.152,0,2.3.018t2.3-.018q1.908-.108,3.4-.216t3.4-.324q1.908-.216,3.348-.414t2.682-.486q1.242-.288,2.5-.684a13.66,13.66,0,0,1,2.916.378,9.919,9.919,0,0,1,2.34.846,4.834,4.834,0,0,1,1.026.792A1.513,1.513,0,0,1,460.512-13.176ZM476.136-9a11.765,11.765,0,0,1-1.206-2.232,24.993,24.993,0,0,1-.846-2.412,12.6,12.6,0,0,0-1.53,2.718A8.173,8.173,0,0,0,472-7.848a5.051,5.051,0,0,0,.126,1.026.661.661,0,0,0,.7.594,1.934,1.934,0,0,0,1.188-.54,10.54,10.54,0,0,0,1.224-1.206Q475.812-8.64,476.136-9Zm5.436-10.152a8.96,8.96,0,0,0-2.412.954,18.093,18.093,0,0,0-2.124,1.458,8.9,8.9,0,0,0,.594,1.926,12,12,0,0,0,.954,1.782q.864-1.44,1.638-2.988A29.681,29.681,0,0,0,481.572-19.152Zm15.3,7.092A9.908,9.908,0,0,1,495.63-7a11.29,11.29,0,0,1-3.312,3.6,19.256,19.256,0,0,1-4.554,2.358A32.253,32.253,0,0,1,482.832.324q-.288.036-.936.162T480.636.7a6.909,6.909,0,0,1-.864.09.917.917,0,0,1-.324-.054Q479.3.684,479.3.432q0-.18.252-.27t.36-.126q.756-.18,1.512-.4t1.512-.468a14.193,14.193,0,0,0,4.41-2.5,12.071,12.071,0,0,0,3.1-3.906A10.951,10.951,0,0,0,491.58-12.2a8.673,8.673,0,0,0-.756-3.708,6.043,6.043,0,0,0-2.232-2.574,6.43,6.43,0,0,0-3.672-.918q-1.08,1.8-2.034,3.708t-1.71,3.888a2.89,2.89,0,0,0,.45,1.71,13.368,13.368,0,0,0,.9,1.134,1.726,1.726,0,0,1,.45,1.188,1.48,1.48,0,0,1-.468,1.17,1.727,1.727,0,0,1-1.188.414,3.4,3.4,0,0,1-1.278-.27,8.683,8.683,0,0,1-1.206-.594,17.356,17.356,0,0,1-1.44,2.07,10.742,10.742,0,0,1-2.016,1.962,3.87,3.87,0,0,1-2.34.828,1.916,1.916,0,0,1-1.44-.486,2.757,2.757,0,0,1-.666-1.206q-.2-.72-.45-1.44A2.122,2.122,0,0,0,470-6.21a6.77,6.77,0,0,0-.63-.558,2,2,0,0,1-.54-.666,2.674,2.674,0,0,1-.216-1.206,5.969,5.969,0,0,1,.828-2.9,15.082,15.082,0,0,1,2.016-2.808,16.7,16.7,0,0,1,2.232-2.106,8.053,8.053,0,0,0-.162-1.17q-.126-.594-.2-1.17a7.581,7.581,0,0,0-.468-1.8,4.639,4.639,0,0,0-1.044-1.512,3.98,3.98,0,0,0-.45-.45,3.983,3.983,0,0,1-.45-.45,2.751,2.751,0,0,1-.4-.576,1.514,1.514,0,0,1-.144-.684q0-.072.108-.09t.144.018q1.008.576,2.034,1.152t2.034,1.116a3.046,3.046,0,0,1,.972.684,2.532,2.532,0,0,1,.54,1.044,7.779,7.779,0,0,1,.234,1.008,9.454,9.454,0,0,0,.234,1.044q1.3-.684,2.646-1.278a12.07,12.07,0,0,1,2.79-.846q.324-.936.63-1.908a6.556,6.556,0,0,0,.306-1.98,1.26,1.26,0,0,0-.63-1.188,4.469,4.469,0,0,0-1.35-.5,1.008,1.008,0,0,1,.558-.828,5.658,5.658,0,0,1,1.242-.594q.684-.234,1.008-.306a5.928,5.928,0,0,1,.666-.108,6.363,6.363,0,0,1,.666-.036,4.4,4.4,0,0,1,1.512.324,4.4,4.4,0,0,1,1.494.918,1.813,1.813,0,0,1,.63,1.35,1.6,1.6,0,0,1-.522,1.188q-.522.5-.99.936a4.785,4.785,0,0,0-.81,1.08q-.45.756-.738,1.188h.612a14.85,14.85,0,0,1,3.816.486,10,10,0,0,1,3.348,1.584,7.715,7.715,0,0,1,2.412,2.97A8.647,8.647,0,0,1,496.872-12.06Zm37.836-.324a18.643,18.643,0,0,1-.558,4.608,11.915,11.915,0,0,1-1.764,3.924,8.522,8.522,0,0,1-3.114,2.718,9.9,9.9,0,0,1-4.608.99,5.992,5.992,0,0,1-3.978-1.4,5.969,5.969,0,0,1-2.07-3.672,8.541,8.541,0,0,1-.126-1.242q-.018-.63-.018-1.206,0-.72.054-1.458t.054-1.458q0-.36-.036-.828a1.863,1.863,0,0,0-.252-.828.773.773,0,0,0-.72-.36,2.715,2.715,0,0,0-1.386.414,6.962,6.962,0,0,0-1.206.882,7.191,7.191,0,0,0-1.314,1.656,17.667,17.667,0,0,0-1.152,2.286,24.961,24.961,0,0,0-.882,2.43,16.116,16.116,0,0,0-.5,2.088,8.284,8.284,0,0,0-.09.954,3.7,3.7,0,0,1-.162.954,1.244,1.244,0,0,1-.666.81,2.288,2.288,0,0,1-1.062.27,2.613,2.613,0,0,1-1.764-.558,2.9,2.9,0,0,1-.9-1.44,6.717,6.717,0,0,1-.252-1.854V-3.78a2.69,2.69,0,0,1,.324-1.386q.288-.414.756-1.206.18-.324.342-.648t.306-.648q.4-.72.81-1.44t.846-1.4q1.764-2.988,3.51-5.868t3.33-5.976q.288-.5.594-1.026a4.152,4.152,0,0,0,.45-1.1,3.11,3.11,0,0,0,.18-.972,2.231,2.231,0,0,0-.45-1.386,1.928,1.928,0,0,0-1.242-.738,1.149,1.149,0,0,1,.756-.63,4.448,4.448,0,0,1,1.152-.18q.612-.018,1.008-.018a3.556,3.556,0,0,1,1.854.5,4.036,4.036,0,0,1,1.368,1.332,3.373,3.373,0,0,1,.522,1.836,1.307,1.307,0,0,1-.432,1.008q-.432.4-.828.72a6.125,6.125,0,0,0-.558.558q-.27.306-.558.594a49.08,49.08,0,0,0-5.832,8.244q-.36.612-.72,1.206a11.043,11.043,0,0,0-.648,1.242,15.963,15.963,0,0,1,1.674-1.44,10.56,10.56,0,0,1,2.034-1.206,5.076,5.076,0,0,1,2.088-.486,2.941,2.941,0,0,1,2.916,1.908,5.217,5.217,0,0,1,.432,1.8q.072,1.008.126,2.052a8.619,8.619,0,0,0,.306,1.926,2.752,2.752,0,0,0,.918,1.422,3.125,3.125,0,0,0,2,.54,6.241,6.241,0,0,0,4.14-1.3A11.473,11.473,0,0,0,532.4-9.4a13.719,13.719,0,0,0,1.062-2.79,11.313,11.313,0,0,0,.45-2.97.535.535,0,0,1,.072-.27.177.177,0,0,1,.216-.09,2.465,2.465,0,0,1,.324.918,10.032,10.032,0,0,1,.144,1.206Q534.708-12.78,534.708-12.384Z" transform="translate(-1.152 30.456)" fill="#e7b81e"/></svg>