<svg xmlns="http://www.w3.org/2000/svg" width="334.856" height="34.632" viewBox="0 0 334.856 34.632"><path d="M27.36-7.128H18.108V.756h6.12A3.135,3.135,0,0,0,26.64-.036a3.491,3.491,0,0,0,.72-2.412ZM13.5-27.216a30.03,30.03,0,0,1-1.512,3.1q-.936,1.692-1.98,3.294a27.683,27.683,0,0,1-2.052,2.79H9.828V2.412H5.688V-15.12q-.324.324-.99.882T3.24-13.1a14.349,14.349,0,0,1-1.512.972,2.607,2.607,0,0,1-1.152.4.255.255,0,0,1-.288-.288A1.069,1.069,0,0,1,.54-12.51a5.078,5.078,0,0,1,.324-.414A36.756,36.756,0,0,0,4.086-17.91,54.232,54.232,0,0,0,6.75-23.58,43.627,43.627,0,0,0,8.6-29.232ZM31.752-2.952a6.164,6.164,0,0,1-.774,3.42,3.768,3.768,0,0,1-2.214,1.548,13.164,13.164,0,0,1-3.456.4H13.86V-8.676H31.752Zm-.18-10.836a1.467,1.467,0,0,1-.63,1.3,2.456,2.456,0,0,1-1.422.432H14v-1.728H27.36a1.9,1.9,0,0,1,.7-1.35,2.17,2.17,0,0,1,1.422-.522,2.206,2.206,0,0,1,1.4.558A1.656,1.656,0,0,1,31.572-13.788Zm0-4.788a1.41,1.41,0,0,1-.648,1.278,2.559,2.559,0,0,1-1.4.414H14v-1.728H27.36a1.869,1.869,0,0,1,.7-1.314,2.17,2.17,0,0,1,1.422-.522,2.206,2.206,0,0,1,1.4.558A1.656,1.656,0,0,1,31.572-18.576Zm3.672-5.4a1.7,1.7,0,0,1-.7,1.476,2.678,2.678,0,0,1-1.6.5H12.06v-1.692h8.568q-.36-1.548-.684-3.078t-.54-3.078q.36,0,1.188.036t1.782.054q.954.018,1.71.072a5.109,5.109,0,0,1,.972.126.82.82,0,0,1,.342.162.557.557,0,0,1,.09.378,4.679,4.679,0,0,1-.18,1.026q-.18.7-.45,1.548t-.522,1.6q-.252.756-.36,1.152h6.552a2.863,2.863,0,0,1,.648-1.782,2.119,2.119,0,0,1,1.728-.738,2.422,2.422,0,0,1,1.674.594A2.082,2.082,0,0,1,35.244-23.976Zm9.972,5.724a1.691,1.691,0,0,1-.126.612q-.126.324-.234.612a19.16,19.16,0,0,1-1.71,3.2,11.987,11.987,0,0,1-2.358,2.736q-.216.18-.792.576a1.82,1.82,0,0,1-.864.4q-.468,0-.468-.4a.592.592,0,0,1,.018-.144.7.7,0,0,1,.054-.144,25.969,25.969,0,0,0,1.422-4.446q.522-2.322.81-4.59.648.144,1.3.342t1.3.378q.324.072.684.162a5.992,5.992,0,0,1,.648.2A.51.51,0,0,1,45.216-18.252Zm9.468,4.284q0,.5-.468.5a.989.989,0,0,1-.414-.09,3.75,3.75,0,0,1-.378-.2,4.741,4.741,0,0,1-.774-.648q-.522-.5-1.116-1.134t-1.1-1.188q-.5-.558-.72-.81.036.972.054,1.944t.018,1.944a39.15,39.15,0,0,1-.306,4.86A14.01,14.01,0,0,1,48.06-4.14a6.87,6.87,0,0,1-.7,1.17q-.414.558-.81,1.1A7.275,7.275,0,0,1,45.288-.63Q44.46.036,43.6.63a15.7,15.7,0,0,1-1.548.954q-.18.108-.738.36t-1.134.486a2.722,2.722,0,0,1-.756.234.318.318,0,0,1-.36-.36q0-.108.162-.234a1.7,1.7,0,0,1,.234-.162q1.008-.828,1.89-1.674a10.263,10.263,0,0,0,1.566-1.926,12.96,12.96,0,0,0,2.106-5.292,36.57,36.57,0,0,0,.45-5.724q0-3.852-.072-7.722t-.072-7.722h4.464q0,2.124-.018,4.248t-.054,4.248q.216-.144.72-.54t1.026-.738a1.791,1.791,0,0,1,.7-.342.717.717,0,0,1,.684.432,3.355,3.355,0,0,1,.252.792q.144.612.288,1.278t.216.954q.216.9.486,1.764t.522,1.728A1.185,1.185,0,0,1,54.684-13.968Zm9.828-.612a.477.477,0,0,1-.54.54,1.533,1.533,0,0,1-.684-.18,9.836,9.836,0,0,1-.882-.666q-.594-.486-1.26-1.1T59.9-17.154q-.576-.558-.864-.846V1.476H54.9V-28.152h4.14v8.244l.864-.864q.432-.432.828-.864a2.991,2.991,0,0,1,.414-.342.842.842,0,0,1,.486-.162.6.6,0,0,1,.468.2,1.118,1.118,0,0,1,.252.45q.072.144.306.882t.54,1.728l.612,1.98q.306.99.5,1.638T64.512-14.58ZM69.084,2.664H64.728V-28.4h4.356ZM103.1-24.408h-5.8v3.132H99.4a1.783,1.783,0,0,1,.45-1.08,1.4,1.4,0,0,1,1.062-.4,1.491,1.491,0,0,1,.936.378,1.111,1.111,0,0,1,.468.882,1.416,1.416,0,0,1-1.62,1.584H97.308v2.664H101.2a1.729,1.729,0,0,0,1.476-.576,2.521,2.521,0,0,0,.432-1.548ZM92.2-10.836a1.231,1.231,0,0,1-.72,1.188,3.2,3.2,0,0,1-1.44.36h-4q-.072.4-.144.81t-.18.81l1.62-.54a7.627,7.627,0,0,0,.4.936q.324.684.72,1.566t.792,1.728q.4.846.648,1.4a5.918,5.918,0,0,1,.252.594q0,.612-.54.612a2,2,0,0,1-1.026-.5,14.992,14.992,0,0,1-1.4-1.224q-.738-.72-1.35-1.386t-.9-.99a9.9,9.9,0,0,1-2.3,3.69A14.586,14.586,0,0,1,79.128.828a8.3,8.3,0,0,1-1.062.5,3.181,3.181,0,0,1-1.134.288.772.772,0,0,1-.2-.036.146.146,0,0,1-.126-.144.342.342,0,0,1,.144-.288A2.35,2.35,0,0,0,77,.936,18.313,18.313,0,0,0,78.714-.7,10.467,10.467,0,0,0,80.1-2.592a15.6,15.6,0,0,0,1.386-3.24,18.594,18.594,0,0,0,.7-3.456H76.644v-1.476H82.26a13.058,13.058,0,0,0,.072-1.368V-13.5H77.976v-1.512h4.356V-16.47q0-.738-.036-1.458l4.212.144q0,.684-.018,1.368t-.054,1.4H87.7a1.434,1.434,0,0,1,.522-1.134,1.746,1.746,0,0,1,1.17-.45,1.415,1.415,0,0,1,1.08.522,1.629,1.629,0,0,1,.468,1.1,1.219,1.219,0,0,1-.558,1.152A2.5,2.5,0,0,1,89.1-13.5H86.4l-.072,1.368q-.036.684-.108,1.368h2.52a1.533,1.533,0,0,1,.576-1.188,1.833,1.833,0,0,1,1.224-.5,1.614,1.614,0,0,1,1.152.486A1.528,1.528,0,0,1,92.2-10.836Zm3.24,4.68a3.168,3.168,0,0,1-.36,1.242,15.247,15.247,0,0,1-.9,1.638q-.54.864-1.08,1.584t-.864,1.08a11.131,11.131,0,0,1-1.4,1.188,3.245,3.245,0,0,0-.4.252.792.792,0,0,1-.432.18q-.324,0-.324-.288a.757.757,0,0,1,.018-.18A.7.7,0,0,1,89.748.4,20.086,20.086,0,0,0,91.026-3.42q.45-1.98.81-3.96l3.42.936A.28.28,0,0,1,95.436-6.156ZM81.5-18.468a.788.788,0,0,1-.18.486.564.564,0,0,1-.468.234.963.963,0,0,1-.756-.324,16.075,16.075,0,0,1-1.692-2.2q-.792-1.224-1.62-2.268.216-.072.738-.27t1.134-.414q.612-.216,1.116-.378a2.934,2.934,0,0,1,.648-.162.828.828,0,0,1,.432.09.6.6,0,0,1,.216.378,6.91,6.91,0,0,1,.234,1.4q.09.972.144,1.944T81.5-18.468ZM98.712-6.48q0,.54-.072,1.62t-.2,2.124a6.911,6.911,0,0,1-.306,1.512.714.714,0,0,1-.72.576.386.386,0,0,1-.36-.18,1.99,1.99,0,0,1-.18-.4q-.288-1.368-.594-2.736t-.666-2.7q.684-.144,1.368-.234a10.476,10.476,0,0,1,1.368-.09.291.291,0,0,1,.27.162A.694.694,0,0,1,98.712-6.48Zm2.88-.4q0,.252-.054.918T101.43-4.5q-.054.792-.126,1.422a4,4,0,0,1-.144.81,1.574,1.574,0,0,1-.234.432.536.536,0,0,1-.414.288.73.73,0,0,1-.414-.09.65.65,0,0,1-.2-.378q-.252-1.224-.432-2.448t-.432-2.448q.576-.072,1.152-.2a5.376,5.376,0,0,1,1.152-.126q.18,0,.216.126A.856.856,0,0,1,101.592-6.876ZM85.824-23.9q0,.972-.036,2.034a18.054,18.054,0,0,1-.18,2.034,4.306,4.306,0,0,1-.2.864.649.649,0,0,1-.666.5.871.871,0,0,1-.792-.4,10.488,10.488,0,0,1-.756-1.368q-.432-.9-.828-1.854t-.648-1.53q.18-.036.684-.162t1.116-.288q.612-.162,1.08-.27a3.881,3.881,0,0,1,.576-.108,1.049,1.049,0,0,1,.468.09Q85.824-24.264,85.824-23.9ZM104.508-7.272q0,.252-.054,1.026t-.2,1.638a9.432,9.432,0,0,1-.36,1.494q-.216.63-.54.63-.468,0-.576-.54l-.828-4.284q.54-.072,1.116-.2a5.218,5.218,0,0,1,1.116-.126Q104.508-7.632,104.508-7.272ZM92.556-23.508a1.87,1.87,0,0,1-.486.864,15.049,15.049,0,0,1-1.26,1.368q-.774.756-1.6,1.458a14.564,14.564,0,0,1-1.53,1.152,2.314,2.314,0,0,1-1.026.45.3.3,0,0,1-.18-.108.3.3,0,0,1-.108-.18.557.557,0,0,1,.054-.252,1.648,1.648,0,0,0,.09-.216q.612-1.548,1.116-3.15a25.741,25.741,0,0,0,.792-3.222q.216.108.864.36t1.422.558q.774.306,1.314.558T92.556-23.508Zm-.4-4.1q0,.216-.288.36a8.174,8.174,0,0,1-1.152.432q-.612.18-1.188.324-3.276.792-6.66,1.53a31.844,31.844,0,0,1-6.8.738.408.408,0,0,1-.27-.108.324.324,0,0,1-.126-.252q0-.108.234-.27a1.578,1.578,0,0,1,.594-.234,7.954,7.954,0,0,0,.864-.27q.432-.162.576-.2,2.772-1.044,5.508-2.3A46.1,46.1,0,0,0,88.7-30.708l.72.576q.54.432,1.17.972t1.1.99Q92.16-27.72,92.16-27.612ZM111.1-14a1.454,1.454,0,0,1-.738,1.4,3.335,3.335,0,0,1-1.6.4H97.308v2.2H109.62q-.036,1.26-.072,3.024a34.522,34.522,0,0,1-.27,3.618A15.49,15.49,0,0,1,108.45.09a6.328,6.328,0,0,1-1.71,2.592,4.231,4.231,0,0,1-2.916.99,4.079,4.079,0,0,1-1.386-.378,16.2,16.2,0,0,1-1.89-.936A17.519,17.519,0,0,1,98.892,1.3q-.684-.5-.684-.756A.141.141,0,0,1,98.316.4.592.592,0,0,1,98.5.36a3.282,3.282,0,0,1,.5.054,5.26,5.26,0,0,1,.576.126q.612.108,1.206.2a8.543,8.543,0,0,0,1.278.09,1.662,1.662,0,0,0,.234-.018,1.912,1.912,0,0,1,.27-.018,2.252,2.252,0,0,0,1.494-.648,3.22,3.22,0,0,0,.7-1.35,9.559,9.559,0,0,0,.288-1.638q.144-1.44.2-2.9t.054-2.9H93.456V-25.92H95.9q.5-1.26.936-2.5t.792-2.538a18.656,18.656,0,0,1,2.2.432q1.116.288,2.2.576a1.784,1.784,0,0,1,.54.18.487.487,0,0,1,.288.468q0,.252-.63.774a14.693,14.693,0,0,1-1.512,1.08q-.882.558-1.656.99t-1.062.576h9.216v5.58q0,2.556-1.44,3.51a6.736,6.736,0,0,1-3.78.954h-4.68v2.16h9.612a1.092,1.092,0,0,1-.036-.324,1.706,1.706,0,0,1,.684-1.332,2.168,2.168,0,0,1,1.4-.576,2.247,2.247,0,0,1,1.44.558A1.688,1.688,0,0,1,111.1-14Zm28.188-5.58H123.948v8.532h9.18a2.334,2.334,0,0,1,.684-1.458,1.983,1.983,0,0,1,1.476-.63,2.444,2.444,0,0,1,1.44.522,1.6,1.6,0,0,1,.72,1.35,1.8,1.8,0,0,1-.648,1.512,2.559,2.559,0,0,1-1.62.5H123.948V0h11.34a3.547,3.547,0,0,0,3.042-1.278,5.238,5.238,0,0,0,.954-3.222ZM144-4.392a6.19,6.19,0,0,1-1.008,3.744A5.431,5.431,0,0,1,140.256,1.3a12.133,12.133,0,0,1-3.852.576H119.628V-21.636H144Zm-8.964-23.8q0,.324-.738,1.044t-1.836,1.6q-1.1.882-2.286,1.692t-2.124,1.35a3.424,3.424,0,0,1-1.26.54H126.5a.607.607,0,0,1-.342-.108.363.363,0,0,1-.162-.324.608.608,0,0,1,.072-.306q.072-.126.144-.27.972-1.764,1.782-3.636t1.458-3.78l1.8.576,1.8.576q.4.108.792.234a5.241,5.241,0,0,1,.756.306,1.085,1.085,0,0,1,.306.18A.4.4,0,0,1,135.036-28.188Zm41.112,1.044h-7.236v4.176h3.348a1.441,1.441,0,0,1,.54-.99,1.62,1.62,0,0,1,1.044-.378,1.37,1.37,0,0,1,1.044.468,1.5,1.5,0,0,1,.432,1.044,1.263,1.263,0,0,1-.45.954,1.394,1.394,0,0,1-.954.414h-5v3.636h5.256a1.648,1.648,0,0,0,1.566-.72,3.411,3.411,0,0,0,.414-1.728Zm-15.12,16.02a9.949,9.949,0,0,1-.234,1.818q-.234,1.17-.612,2.592t-.828,2.826q-.45,1.4-.864,2.538T157.788.4a9.563,9.563,0,0,1-.5.864.959.959,0,0,1-.828.5,1.8,1.8,0,0,1-.774-.4q-.558-.4-1.224-.954T153.252-.648q-.54-.5-.756-.72,1.692-1.8,3.24-3.726a48.492,48.492,0,0,0,2.88-3.978q.324-.5.63-1.008t.594-.972a3.266,3.266,0,0,1,.306-.414.581.581,0,0,1,.45-.234.348.348,0,0,1,.324.2A.791.791,0,0,1,161.028-11.124Zm-.108-4.14a.907.907,0,0,1-.2.576.669.669,0,0,1-.558.252.618.618,0,0,1-.252-.036q-1.656-.432-3.4-.9t-3.438-.756l1.764-3.2q.144-.252.414-.756t.594-.5a2.54,2.54,0,0,1,1.224.612,14.459,14.459,0,0,1,1.71,1.512,15.13,15.13,0,0,1,1.512,1.782A2.731,2.731,0,0,1,160.92-15.264Zm25.452.216a1.756,1.756,0,0,1-.594,1.494,2.527,2.527,0,0,1-1.566.45h-11.2q-.432.612-.918,1.188t-.99,1.116H184q-.036,2.2-.252,4.374t-.612,4.338a12.544,12.544,0,0,1-.738,2.682,5.5,5.5,0,0,1-1.494,2.16,3.864,3.864,0,0,1-2.628.846,3.035,3.035,0,0,1-1.548-.468,8.8,8.8,0,0,1-1.494-1.116q-.7-.648-1.206-1.152a3.849,3.849,0,0,0-.342-.378.643.643,0,0,1-.234-.414.1.1,0,0,1,.108-.108.5.5,0,0,1,.216.036q.756.252,1.548.486A5.566,5.566,0,0,0,176.9.72a1.31,1.31,0,0,0,1.134-.594,4.805,4.805,0,0,0,.648-1.368q.234-.774.342-1.314a27.317,27.317,0,0,0,.5-3.42q.144-1.728.288-3.42H176q.864.468,1.71.954t1.638,1.026a16.626,16.626,0,0,1-3.726,4.7,24.261,24.261,0,0,1-4.95,3.474q-1.008.5-2.088.972a10.432,10.432,0,0,1-2.232.684q-.4.072-.864.162a4.6,4.6,0,0,1-.864.09q-.324,0-.324-.216a.258.258,0,0,1,.144-.252q.648-.4,1.278-.738a12.476,12.476,0,0,0,1.242-.774,28.15,28.15,0,0,0,3.384-2.826,31.325,31.325,0,0,0,3.132-3.528,20.817,20.817,0,0,0,2.3-3.726h-3.276q.5.216.972.45t.936.45a21.536,21.536,0,0,1-4.86,4.932,20.915,20.915,0,0,1-6.192,3.132q-.648.18-1.4.378a5.686,5.686,0,0,1-1.44.2,1.842,1.842,0,0,1-.27-.036q-.2-.036-.2-.18t.18-.216q.5-.252.954-.486t.918-.486q.828-.5,1.656-1.044a19.082,19.082,0,0,0,1.584-1.152,26.588,26.588,0,0,0,2.9-2.754A23.737,23.737,0,0,0,170.64-9.4h-1.008a30.174,30.174,0,0,1-4.266,3.348A14.254,14.254,0,0,1,160.38-4h-.108q-.36,0-.36-.288a.317.317,0,0,1,.09-.234l.162-.162q.4-.324.81-.612t.81-.612a21.84,21.84,0,0,0,3.258-3.312,22.02,22.02,0,0,0,2.5-3.888H161.6V-14.58h20.448a2.406,2.406,0,0,1,.594-1.692,2.111,2.111,0,0,1,1.638-.648,2.206,2.206,0,0,1,1.4.558A1.656,1.656,0,0,1,186.372-15.048Zm-24.912-8.1a.912.912,0,0,1-.18.54.584.584,0,0,1-.5.252,3.6,3.6,0,0,1-.558-.162q-.486-.162-1.116-.378t-1.17-.414a6.252,6.252,0,0,0-.72-.234q-.756-.252-1.512-.486t-1.512-.414q.4-.648.828-1.3T155.88-27q.216-.324.432-.684a4.484,4.484,0,0,1,.468-.648,2.147,2.147,0,0,1,.27-.288.568.568,0,0,1,.378-.108q.4,0,1.062.72a14.717,14.717,0,0,1,1.35,1.728,20.57,20.57,0,0,1,1.152,1.89A3.3,3.3,0,0,1,161.46-23.148Zm19.08,1.908a5.688,5.688,0,0,1-.72,3.222,3.326,3.326,0,0,1-2.088,1.332,15.206,15.206,0,0,1-3.276.306h-9.5V-28.62H180.54Zm38.484,5.22a1.108,1.108,0,0,1-.216.684,3.572,3.572,0,0,1-.9.72,19.076,19.076,0,0,1-1.3,3.348A29.836,29.836,0,0,1,214.686-7.9a23.167,23.167,0,0,1-2.106,2.754,19.32,19.32,0,0,1-2.79,2.484,19.217,19.217,0,0,1-3.474,2.016,24.43,24.43,0,0,1-4.3,1.422,30.7,30.7,0,0,1-4.554.7q-.612.036-1.224.054t-.972.018q-.144,0-.4.018t-.288-.27a.223.223,0,0,1,.162-.234q.162-.054.306-.09a15.891,15.891,0,0,0,1.872-.36,20.74,20.74,0,0,0,4.23-1.6,22.294,22.294,0,0,0,3.96-2.556A19.669,19.669,0,0,0,208.332-6.8a25.56,25.56,0,0,0,1.926-2.88,20.731,20.731,0,0,0,1.512-3.186,8.356,8.356,0,0,0,.594-2.862q-.036-.576-.756-.576-.18,0-.414.018a3.5,3.5,0,0,0-.414.054q-1.3.216-2.808.5t-3.042.63q-1.53.342-2.826.666t-2.124.612q-.252.144-.486.27a1.245,1.245,0,0,1-.594.126,3.4,3.4,0,0,1-1.08-.18,4.268,4.268,0,0,1-2-1.314,3.744,3.744,0,0,1-.846-2.286,2.68,2.68,0,0,1,.018-.684,1.886,1.886,0,0,1,.414-.864,2.888,2.888,0,0,0,1.17.774,8.138,8.138,0,0,0,1.6.45,8.166,8.166,0,0,0,1.332.144q.9,0,2.43-.108t3.2-.252q1.674-.144,3.06-.306t2.034-.27a10.527,10.527,0,0,0,1.242-.342,8.493,8.493,0,0,0,.99-.378,8.033,8.033,0,0,1,.774-.324,3.967,3.967,0,0,1,.738-.216,3.645,3.645,0,0,1,1.278.234,6.245,6.245,0,0,1,1.1.522q.5.324,1.134.792a7.181,7.181,0,0,1,1.08.972A1.559,1.559,0,0,1,219.024-16.02Zm-4.68-7.74a.974.974,0,0,1-.576.936,5.519,5.519,0,0,1-.972.4q-1.044.252-2.448.468t-2.826.36q-1.422.144-2.538.144a11.3,11.3,0,0,1-2.43-.216,4.132,4.132,0,0,1-1.71-.828,10.448,10.448,0,0,1-1.656-1.8q-.144-.18-.36-.432a.721.721,0,0,1-.216-.4q0-.432.36-.432a.83.83,0,0,1,.45.2,1.835,1.835,0,0,0,.486.27q.612.144,1.116.27a4.239,4.239,0,0,0,1.224.09,29.724,29.724,0,0,0,3.168-.4,21.6,21.6,0,0,0,3.708-.972q.4-.144.792-.27a2.6,2.6,0,0,1,.792-.126,5.412,5.412,0,0,1,1.044.162,4.019,4.019,0,0,1,.972.306,3.415,3.415,0,0,1,1.08.864A2.061,2.061,0,0,1,214.344-23.76Zm46.368,10.584a1.607,1.607,0,0,1-.738,1.4,3.529,3.529,0,0,1-1.782.576h-3.006q-1.17,0-2.142-.036-.468,0-.882-.018t-.846-.018q-3.168,0-5.688.09t-5.256.2q-.5.036-1.548.126t-2.232.216q-1.188.126-2.16.216a12.821,12.821,0,0,0-1.3.162,5.127,5.127,0,0,1-2.988-.846,2.917,2.917,0,0,1-1.224-2.574,3.3,3.3,0,0,1,.306-1.26A1.372,1.372,0,0,1,230-15.8a3.046,3.046,0,0,0,1.17,1.08,4.97,4.97,0,0,0,1.458.486,8.063,8.063,0,0,0,1.3.126q1.152,0,2.3.018t2.3-.018q1.908-.108,3.4-.216t3.4-.324q1.908-.216,3.348-.414t2.682-.486q1.242-.288,2.5-.684a13.66,13.66,0,0,1,2.916.378,9.919,9.919,0,0,1,2.34.846,4.833,4.833,0,0,1,1.026.792A1.513,1.513,0,0,1,260.712-13.176Zm32.544,5.8a2.52,2.52,0,0,1-.666,1.746,2.2,2.2,0,0,1-1.71.738,1.924,1.924,0,0,1-1.332-.522,7.8,7.8,0,0,1-1.008-1.1q-.72-.972-1.494-1.926a13.066,13.066,0,0,0-1.71-1.746A29.631,29.631,0,0,1,280.89-5.31a22.557,22.557,0,0,1-5,3.258A36.253,36.253,0,0,1,269.676.18q-.18.036-.414.072a2.759,2.759,0,0,1-.414.036A2.32,2.32,0,0,1,268.56.27a.147.147,0,0,1-.144-.162q0-.144.216-.252l.288-.144a23.247,23.247,0,0,0,3.168-1.8,27,27,0,0,0,2.88-2.232q1.152-1.044,2.556-2.574t2.646-3.168a17.493,17.493,0,0,0,1.89-3.006q-1.44-1.08-3.006-2.034T275.9-16.92q-.612-.324-1.224-.684t-1.224-.648l-.288-.144q-.144-.072-.324-.144a.894.894,0,0,0-.162-.108q-.126-.072-.126-.144,0-.144.288-.144h.324a15.642,15.642,0,0,1,2.5.234q1.422.234,2.916.612t2.862.864a21.294,21.294,0,0,1,2.376.99q.36-.864.792-2.16t.756-2.61a9.448,9.448,0,0,0,.324-2.178,2.016,2.016,0,0,0-.522-1.4,2.984,2.984,0,0,0-1.242-.828,6.814,6.814,0,0,1,1.368-.846,3.579,3.579,0,0,1,1.548-.378,3.862,3.862,0,0,1,2.052.684,7,7,0,0,1,1.836,1.674,3.277,3.277,0,0,1,.756,2,.988.988,0,0,1-.306.684,3.09,3.09,0,0,1-.594.5q-.576,1.8-1.206,3.6A28.03,28.03,0,0,1,287.892-14a7.663,7.663,0,0,1,1.6,1.008,17.268,17.268,0,0,1,1.422,1.26,10.173,10.173,0,0,1,1.692,1.908A4.323,4.323,0,0,1,293.256-7.38Zm41.8-13.5q-.252.54-.54,1.242t-.54,1.206a42.485,42.485,0,0,1-2.43,4.3A29,29,0,0,1,328-9.792a30.813,30.813,0,0,1-2.826,2.538,37.657,37.657,0,0,1-3.528,2.5,38.359,38.359,0,0,1-3.888,2.142,24.18,24.18,0,0,1-3.942,1.494,2.168,2.168,0,0,1-1.26-.144,14.922,14.922,0,0,1-1.494-.918,4.95,4.95,0,0,1-1.35-1.386q-.144-.252-.378-.648a2.122,2.122,0,0,1-.234-1.08,6.169,6.169,0,0,1,.162-1.62,3.631,3.631,0,0,1,.774-1.584q.18.324.468.81a3.54,3.54,0,0,0,.72.864,1.483,1.483,0,0,0,1.008.378,10.255,10.255,0,0,0,3.078-.576,31.924,31.924,0,0,0,3.672-1.458q1.89-.882,3.528-1.854a29.043,29.043,0,0,0,2.682-1.764q1.44-1.116,2.718-2.142t2.43-2.142q.684-.648,1.3-1.224a13.432,13.432,0,0,0,1.224-1.332q.288-.4.81-1.044t.846-1.044q.072-.108.144-.2a.943.943,0,0,0,.108-.162.345.345,0,0,1,.252-.108q.144,0,.126.216A1.366,1.366,0,0,1,335.052-20.88ZM319.14-19.764a3.526,3.526,0,0,1-.936,2.394,2.99,2.99,0,0,1-2.34,1.062,1.768,1.768,0,0,1-1.494-.63,3.644,3.644,0,0,1-.666-1.35,7.213,7.213,0,0,0-.846-1.854,7.728,7.728,0,0,0-1.476-1.728,4.806,4.806,0,0,0-2.034-1.062q-.36-.108-.4-.252,0-.072.27-.2a4.63,4.63,0,0,1,.486-.2,7.654,7.654,0,0,1,1.494-.288,14.133,14.133,0,0,1,1.494-.108,12.631,12.631,0,0,1,2.034.18,8.529,8.529,0,0,1,2.106.63,4.278,4.278,0,0,1,1.656,1.278A3.344,3.344,0,0,1,319.14-19.764Z" transform="translate(-0.288 30.96)" fill="#e7b81e"/></svg>