<svg xmlns="http://www.w3.org/2000/svg" width="223.237" height="23.088" viewBox="0 0 223.237 23.088"><path d="M18.24-4.752H12.072V.5h4.08A2.09,2.09,0,0,0,17.76-.024a2.327,2.327,0,0,0,.48-1.608ZM9-18.144A20.02,20.02,0,0,1,7.992-16.08q-.624,1.128-1.32,2.2A18.455,18.455,0,0,1,5.3-12.024H6.552V1.608H3.792V-10.08q-.216.216-.66.588t-.972.756a9.566,9.566,0,0,1-1.008.648,1.738,1.738,0,0,1-.768.264.17.17,0,0,1-.192-.192A.713.713,0,0,1,.36-8.34a3.386,3.386,0,0,1,.216-.276A24.5,24.5,0,0,0,2.724-11.94,36.155,36.155,0,0,0,4.5-15.72a29.085,29.085,0,0,0,1.236-3.768ZM21.168-1.968a4.11,4.11,0,0,1-.516,2.28,2.512,2.512,0,0,1-1.476,1.032,8.776,8.776,0,0,1-2.3.264H9.24V-5.784H21.168Zm-.12-7.224a.978.978,0,0,1-.42.864,1.637,1.637,0,0,1-.948.288H9.336V-9.192h8.9a1.266,1.266,0,0,1,.468-.9,1.447,1.447,0,0,1,.948-.348,1.471,1.471,0,0,1,.936.372A1.1,1.1,0,0,1,21.048-9.192Zm0-3.192a.94.94,0,0,1-.432.852,1.706,1.706,0,0,1-.936.276H9.336v-1.152h8.9a1.246,1.246,0,0,1,.468-.876,1.447,1.447,0,0,1,.948-.348,1.471,1.471,0,0,1,.936.372A1.1,1.1,0,0,1,21.048-12.384Zm2.448-3.6a1.135,1.135,0,0,1-.468.984,1.785,1.785,0,0,1-1.068.336H8.04v-1.128h5.712q-.24-1.032-.456-2.052t-.36-2.052q.24,0,.792.024t1.188.036q.636.012,1.14.048a3.406,3.406,0,0,1,.648.084.546.546,0,0,1,.228.108.371.371,0,0,1,.06.252,3.119,3.119,0,0,1-.12.684q-.12.468-.3,1.032t-.348,1.068q-.168.5-.24.768h4.368a1.908,1.908,0,0,1,.432-1.188,1.413,1.413,0,0,1,1.152-.492,1.614,1.614,0,0,1,1.116.4A1.388,1.388,0,0,1,23.5-15.984Zm6.648,3.816a1.128,1.128,0,0,1-.084.408q-.084.216-.156.408a12.773,12.773,0,0,1-1.14,2.136,7.991,7.991,0,0,1-1.572,1.824q-.144.12-.528.384a1.213,1.213,0,0,1-.576.264q-.312,0-.312-.264a.4.4,0,0,1,.012-.1.469.469,0,0,1,.036-.1,17.312,17.312,0,0,0,.948-2.964q.348-1.548.54-3.06.432.1.864.228t.864.252q.216.048.456.108a4,4,0,0,1,.432.132A.34.34,0,0,1,30.144-12.168Zm6.312,2.856q0,.336-.312.336a.66.66,0,0,1-.276-.06,2.5,2.5,0,0,1-.252-.132A3.16,3.16,0,0,1,35.1-9.6q-.348-.336-.744-.756t-.732-.792q-.336-.372-.48-.54.024.648.036,1.3t.012,1.3a26.1,26.1,0,0,1-.2,3.24,9.34,9.34,0,0,1-.948,3.1,4.58,4.58,0,0,1-.468.78q-.276.372-.54.732a4.85,4.85,0,0,1-.84.828q-.552.444-1.128.84a10.468,10.468,0,0,1-1.032.636q-.12.072-.492.24t-.756.324a1.815,1.815,0,0,1-.5.156.212.212,0,0,1-.24-.24q0-.072.108-.156a1.131,1.131,0,0,1,.156-.108Q26.976.72,27.564.156a6.842,6.842,0,0,0,1.044-1.284,8.64,8.64,0,0,0,1.4-3.528,24.38,24.38,0,0,0,.3-3.816q0-2.568-.048-5.148t-.048-5.148h2.976q0,1.416-.012,2.832T33.144-13.1q.144-.1.48-.36t.684-.492a1.194,1.194,0,0,1,.468-.228.478.478,0,0,1,.456.288,2.237,2.237,0,0,1,.168.528q.1.408.192.852t.144.636q.144.6.324,1.176t.348,1.152A.79.79,0,0,1,36.456-9.312Zm6.552-.408a.318.318,0,0,1-.36.36,1.022,1.022,0,0,1-.456-.12,6.557,6.557,0,0,1-.588-.444q-.4-.324-.84-.732t-.828-.78q-.384-.372-.576-.564V.984H36.6V-18.768h2.76v5.5l.576-.576q.288-.288.552-.576a1.994,1.994,0,0,1,.276-.228.562.562,0,0,1,.324-.108.4.4,0,0,1,.312.132.745.745,0,0,1,.168.3q.048.1.2.588t.36,1.152l.408,1.32q.2.66.336,1.092T43.008-9.72Zm3.048,11.5h-2.9V-18.936h2.9Zm22.68-18.048H64.872v2.088h1.392a1.189,1.189,0,0,1,.3-.72.932.932,0,0,1,.708-.264.994.994,0,0,1,.624.252.741.741,0,0,1,.312.588.944.944,0,0,1-1.08,1.056H64.872V-11.5h2.592a1.153,1.153,0,0,0,.984-.384,1.681,1.681,0,0,0,.288-1.032ZM61.464-7.224a.821.821,0,0,1-.48.792,2.13,2.13,0,0,1-.96.24H57.36q-.048.264-.1.54t-.12.54l1.08-.36a5.085,5.085,0,0,0,.264.624q.216.456.48,1.044T59.5-2.652q.264.564.432.936a3.945,3.945,0,0,1,.168.4q0,.408-.36.408a1.336,1.336,0,0,1-.684-.336,9.994,9.994,0,0,1-.936-.816q-.492-.48-.9-.924t-.6-.66a6.6,6.6,0,0,1-1.536,2.46A9.724,9.724,0,0,1,52.752.552a5.535,5.535,0,0,1-.708.336,2.121,2.121,0,0,1-.756.192.515.515,0,0,1-.132-.024.1.1,0,0,1-.084-.1.228.228,0,0,1,.1-.192,1.567,1.567,0,0,0,.168-.144,12.209,12.209,0,0,0,1.14-1.092,6.978,6.978,0,0,0,.924-1.26,10.4,10.4,0,0,0,.924-2.16,12.4,12.4,0,0,0,.468-2.3H51.1v-.984H54.84a8.706,8.706,0,0,0,.048-.912V-9h-2.9v-1.008h2.9v-.972q0-.492-.024-.972l2.808.1q0,.456-.012.912t-.036.936h.84a.956.956,0,0,1,.348-.756,1.164,1.164,0,0,1,.78-.3.943.943,0,0,1,.72.348,1.086,1.086,0,0,1,.312.732.812.812,0,0,1-.372.768A1.665,1.665,0,0,1,59.4-9H57.6l-.048.912q-.024.456-.072.912h1.68a1.022,1.022,0,0,1,.384-.792A1.222,1.222,0,0,1,60.36-8.3a1.076,1.076,0,0,1,.768.324A1.019,1.019,0,0,1,61.464-7.224Zm2.16,3.12a2.112,2.112,0,0,1-.24.828,10.166,10.166,0,0,1-.6,1.092q-.36.576-.72,1.056t-.576.72a7.421,7.421,0,0,1-.936.792,2.164,2.164,0,0,0-.264.168A.528.528,0,0,1,60,.672q-.216,0-.216-.192A.5.5,0,0,1,59.8.36a.469.469,0,0,1,.036-.1,13.391,13.391,0,0,0,.852-2.544q.3-1.32.54-2.64L63.5-4.3A.187.187,0,0,1,63.624-4.1Zm-9.288-8.208a.525.525,0,0,1-.12.324.376.376,0,0,1-.312.156.642.642,0,0,1-.5-.216,10.717,10.717,0,0,1-1.128-1.464q-.528-.816-1.08-1.512.144-.048.492-.18t.756-.276q.408-.144.744-.252a1.956,1.956,0,0,1,.432-.108.552.552,0,0,1,.288.06.4.4,0,0,1,.144.252,4.606,4.606,0,0,1,.156.936q.06.648.1,1.3T54.336-12.312ZM65.808-4.32q0,.36-.048,1.08t-.132,1.416a4.608,4.608,0,0,1-.2,1.008.476.476,0,0,1-.48.384.258.258,0,0,1-.24-.12,1.327,1.327,0,0,1-.12-.264q-.192-.912-.4-1.824t-.444-1.8q.456-.1.912-.156a6.984,6.984,0,0,1,.912-.06.194.194,0,0,1,.18.108A.463.463,0,0,1,65.808-4.32Zm1.92-.264q0,.168-.036.612T67.62-3q-.036.528-.084.948a2.664,2.664,0,0,1-.1.54,1.049,1.049,0,0,1-.156.288.358.358,0,0,1-.276.192.487.487,0,0,1-.276-.06.433.433,0,0,1-.132-.252q-.168-.816-.288-1.632t-.288-1.632q.384-.048.768-.132a3.584,3.584,0,0,1,.768-.084q.12,0,.144.084A.57.57,0,0,1,67.728-4.584ZM57.216-15.936q0,.648-.024,1.356a12.037,12.037,0,0,1-.12,1.356,2.871,2.871,0,0,1-.132.576.433.433,0,0,1-.444.336.58.58,0,0,1-.528-.264,6.992,6.992,0,0,1-.5-.912q-.288-.6-.552-1.236t-.432-1.02q.12-.024.456-.108t.744-.192q.408-.108.72-.18a2.587,2.587,0,0,1,.384-.072.7.7,0,0,1,.312.06Q57.216-16.176,57.216-15.936ZM69.672-4.848q0,.168-.036.684T69.5-3.072a6.287,6.287,0,0,1-.24,1q-.144.42-.36.42-.312,0-.384-.36l-.552-2.856q.36-.048.744-.132a3.478,3.478,0,0,1,.744-.084Q69.672-5.088,69.672-4.848ZM61.7-15.672a1.247,1.247,0,0,1-.324.576,10.033,10.033,0,0,1-.84.912q-.516.5-1.068.972a9.709,9.709,0,0,1-1.02.768,1.543,1.543,0,0,1-.684.3.2.2,0,0,1-.12-.072.2.2,0,0,1-.072-.12.371.371,0,0,1,.036-.168,1.1,1.1,0,0,0,.06-.144q.408-1.032.744-2.1a17.161,17.161,0,0,0,.528-2.148q.144.072.576.24t.948.372q.516.2.876.372T61.7-15.672Zm-.264-2.736q0,.144-.192.24a5.449,5.449,0,0,1-.768.288q-.408.12-.792.216-2.184.528-4.44,1.02a21.229,21.229,0,0,1-4.536.492.272.272,0,0,1-.18-.072.216.216,0,0,1-.084-.168q0-.072.156-.18a1.052,1.052,0,0,1,.4-.156,5.3,5.3,0,0,0,.576-.18q.288-.108.384-.132,1.848-.7,3.672-1.536a30.733,30.733,0,0,0,3.5-1.9l.48.384q.36.288.78.648t.732.66Q61.44-18.48,61.44-18.408ZM74.064-9.336a.969.969,0,0,1-.492.936,2.224,2.224,0,0,1-1.068.264H64.872v1.464H73.08q-.024.84-.048,2.016a23.013,23.013,0,0,1-.18,2.412A10.327,10.327,0,0,1,72.3.06a4.219,4.219,0,0,1-1.14,1.728,2.82,2.82,0,0,1-1.944.66,2.719,2.719,0,0,1-.924-.252,10.8,10.8,0,0,1-1.26-.624,11.68,11.68,0,0,1-1.1-.708q-.456-.336-.456-.5a.094.094,0,0,1,.072-.1.4.4,0,0,1,.12-.024A2.188,2.188,0,0,1,66,.276a3.506,3.506,0,0,1,.384.084q.408.072.8.132a5.7,5.7,0,0,0,.852.06A1.108,1.108,0,0,0,68.2.54a1.274,1.274,0,0,1,.18-.012,1.5,1.5,0,0,0,1-.432,2.147,2.147,0,0,0,.468-.9A6.373,6.373,0,0,0,70.032-1.9q.1-.96.132-1.932T70.2-5.76H62.3V-17.28h1.632q.336-.84.624-1.668t.528-1.692a12.437,12.437,0,0,1,1.464.288q.744.192,1.464.384a1.189,1.189,0,0,1,.36.12.325.325,0,0,1,.192.312q0,.168-.42.516a9.8,9.8,0,0,1-1.008.72q-.588.372-1.1.66t-.708.384h6.144v3.72a2.6,2.6,0,0,1-.96,2.34,4.491,4.491,0,0,1-2.52.636h-3.12v1.44H71.28a.728.728,0,0,1-.024-.216,1.137,1.137,0,0,1,.456-.888,1.445,1.445,0,0,1,.936-.384,1.5,1.5,0,0,1,.96.372A1.125,1.125,0,0,1,74.064-9.336Zm18.792-3.72H82.632v5.688h6.12a1.556,1.556,0,0,1,.456-.972,1.322,1.322,0,0,1,.984-.42,1.629,1.629,0,0,1,.96.348,1.066,1.066,0,0,1,.48.9A1.2,1.2,0,0,1,91.2-6.5a1.706,1.706,0,0,1-1.08.336H82.632V0h7.56A2.365,2.365,0,0,0,92.22-.852,3.492,3.492,0,0,0,92.856-3ZM96-2.928a4.127,4.127,0,0,1-.672,2.5A3.621,3.621,0,0,1,93.5.864a8.089,8.089,0,0,1-2.568.384H79.752V-14.424H96ZM90.024-18.792q0,.216-.492.7t-1.224,1.068q-.732.588-1.524,1.128t-1.416.9a2.283,2.283,0,0,1-.84.36h-.192a.4.4,0,0,1-.228-.072A.242.242,0,0,1,84-14.928a.405.405,0,0,1,.048-.2q.048-.084.1-.18.648-1.176,1.188-2.424t.972-2.52l1.2.384,1.2.384q.264.072.528.156a3.493,3.493,0,0,1,.5.2.723.723,0,0,1,.2.12A.269.269,0,0,1,90.024-18.792Zm27.408.7h-4.824v2.784h2.232a.96.96,0,0,1,.36-.66,1.08,1.08,0,0,1,.7-.252.913.913,0,0,1,.7.312,1,1,0,0,1,.288.7.842.842,0,0,1-.3.636.929.929,0,0,1-.636.276h-3.336v2.424h3.5a1.1,1.1,0,0,0,1.044-.48,2.274,2.274,0,0,0,.276-1.152Zm-10.08,10.68A6.632,6.632,0,0,1,107.2-6.2q-.156.78-.408,1.728t-.552,1.884q-.3.936-.576,1.692T105.192.264a6.374,6.374,0,0,1-.336.576.64.64,0,0,1-.552.336,1.2,1.2,0,0,1-.516-.264q-.372-.264-.816-.636t-.8-.708q-.36-.336-.5-.48,1.128-1.2,2.16-2.484a32.329,32.329,0,0,0,1.92-2.652q.216-.336.42-.672t.4-.648a2.177,2.177,0,0,1,.2-.276.387.387,0,0,1,.3-.156.232.232,0,0,1,.216.132A.527.527,0,0,1,107.352-7.416Zm-.072-2.76a.6.6,0,0,1-.132.384.446.446,0,0,1-.372.168.412.412,0,0,1-.168-.024q-1.1-.288-2.268-.6t-2.292-.5l1.176-2.136q.1-.168.276-.5t.4-.336a1.693,1.693,0,0,1,.816.408,9.641,9.641,0,0,1,1.14,1.008,10.086,10.086,0,0,1,1.008,1.188A1.821,1.821,0,0,1,107.28-10.176Zm16.968.144a1.171,1.171,0,0,1-.4,1,1.685,1.685,0,0,1-1.044.3h-7.464q-.288.408-.612.792t-.66.744h8.592q-.024,1.464-.168,2.916t-.408,2.892A8.363,8.363,0,0,1,121.6.4a3.664,3.664,0,0,1-1,1.44,2.576,2.576,0,0,1-1.752.564,2.024,2.024,0,0,1-1.032-.312,5.868,5.868,0,0,1-1-.744q-.468-.432-.8-.768a2.567,2.567,0,0,0-.228-.252.429.429,0,0,1-.156-.276.064.064,0,0,1,.072-.072.334.334,0,0,1,.144.024q.5.168,1.032.324a3.711,3.711,0,0,0,1.056.156.873.873,0,0,0,.756-.4,3.2,3.2,0,0,0,.432-.912q.156-.516.228-.876a18.214,18.214,0,0,0,.336-2.28q.1-1.152.192-2.28h-2.544q.576.312,1.14.636t1.092.684a11.084,11.084,0,0,1-2.484,3.132A16.174,16.174,0,0,1,113.784.5q-.672.336-1.392.648a6.954,6.954,0,0,1-1.488.456q-.264.048-.576.108a3.066,3.066,0,0,1-.576.06q-.216,0-.216-.144a.172.172,0,0,1,.1-.168q.432-.264.852-.492a8.315,8.315,0,0,0,.828-.516,18.768,18.768,0,0,0,2.256-1.884,20.884,20.884,0,0,0,2.088-2.352,13.878,13.878,0,0,0,1.536-2.484h-2.184q.336.144.648.3t.624.3a14.357,14.357,0,0,1-3.24,3.288,13.944,13.944,0,0,1-4.128,2.088q-.432.12-.936.252a3.791,3.791,0,0,1-.96.132,1.228,1.228,0,0,1-.18-.024q-.132-.024-.132-.12t.12-.144q.336-.168.636-.324t.612-.324q.552-.336,1.1-.7a12.721,12.721,0,0,0,1.056-.768,17.725,17.725,0,0,0,1.932-1.836,15.824,15.824,0,0,0,1.6-2.124h-.672a20.116,20.116,0,0,1-2.844,2.232,9.5,9.5,0,0,1-3.324,1.368h-.072q-.24,0-.24-.192a.211.211,0,0,1,.06-.156l.108-.108q.264-.216.54-.408t.54-.408a14.56,14.56,0,0,0,2.172-2.208A14.68,14.68,0,0,0,111.7-8.736h-3.96V-9.72h13.632a1.6,1.6,0,0,1,.4-1.128,1.407,1.407,0,0,1,1.092-.432,1.471,1.471,0,0,1,.936.372A1.1,1.1,0,0,1,124.248-10.032Zm-16.608-5.4a.608.608,0,0,1-.12.36.389.389,0,0,1-.336.168,2.4,2.4,0,0,1-.372-.108q-.324-.108-.744-.252t-.78-.276a4.169,4.169,0,0,0-.48-.156q-.5-.168-1.008-.324t-1.008-.276q.264-.432.552-.864t.576-.84q.144-.216.288-.456a2.99,2.99,0,0,1,.312-.432,1.432,1.432,0,0,1,.18-.192.379.379,0,0,1,.252-.072q.264,0,.708.48a9.811,9.811,0,0,1,.9,1.152,13.715,13.715,0,0,1,.768,1.26A2.2,2.2,0,0,1,107.64-15.432Zm12.72,1.272a3.792,3.792,0,0,1-.48,2.148,2.217,2.217,0,0,1-1.392.888,10.137,10.137,0,0,1-2.184.2h-6.336v-8.16H120.36Zm25.656,3.48a.739.739,0,0,1-.144.456,2.381,2.381,0,0,1-.6.48,12.717,12.717,0,0,1-.864,2.232,19.89,19.89,0,0,1-1.284,2.244,15.444,15.444,0,0,1-1.4,1.836,12.881,12.881,0,0,1-1.86,1.656,12.812,12.812,0,0,1-2.316,1.344,16.287,16.287,0,0,1-2.868.948,20.469,20.469,0,0,1-3.036.468q-.408.024-.816.036t-.648.012q-.1,0-.264.012t-.192-.18a.149.149,0,0,1,.108-.156q.108-.036.2-.06a10.594,10.594,0,0,0,1.248-.24A13.827,13.827,0,0,0,134.1-.66a14.863,14.863,0,0,0,2.64-1.7,13.113,13.113,0,0,0,2.148-2.172,17.041,17.041,0,0,0,1.284-1.92A13.819,13.819,0,0,0,141.18-8.58a5.571,5.571,0,0,0,.4-1.908q-.024-.384-.5-.384-.12,0-.276.012a2.333,2.333,0,0,0-.276.036q-.864.144-1.872.336t-2.028.42q-1.02.228-1.884.444t-1.416.408q-.168.1-.324.18a.83.83,0,0,1-.4.084,2.265,2.265,0,0,1-.72-.12,2.845,2.845,0,0,1-1.332-.876,2.5,2.5,0,0,1-.564-1.524,1.787,1.787,0,0,1,.012-.456,1.257,1.257,0,0,1,.276-.576,1.925,1.925,0,0,0,.78.516,5.425,5.425,0,0,0,1.068.3,5.444,5.444,0,0,0,.888.1q.6,0,1.62-.072t2.136-.168q1.116-.1,2.04-.2t1.356-.18a7.018,7.018,0,0,0,.828-.228,5.662,5.662,0,0,0,.66-.252,5.356,5.356,0,0,1,.516-.216,2.646,2.646,0,0,1,.492-.144,2.43,2.43,0,0,1,.852.156,4.164,4.164,0,0,1,.732.348q.336.216.756.528a4.787,4.787,0,0,1,.72.648A1.04,1.04,0,0,1,146.016-10.68Zm-3.12-5.16a.649.649,0,0,1-.384.624,3.679,3.679,0,0,1-.648.264q-.7.168-1.632.312t-1.884.24q-.948.1-1.692.1a7.533,7.533,0,0,1-1.62-.144A2.755,2.755,0,0,1,133.9-15a6.966,6.966,0,0,1-1.1-1.2q-.1-.12-.24-.288a.481.481,0,0,1-.144-.264q0-.288.24-.288a.553.553,0,0,1,.3.132,1.224,1.224,0,0,0,.324.18q.408.1.744.18a2.826,2.826,0,0,0,.816.06,19.815,19.815,0,0,0,2.112-.264,14.4,14.4,0,0,0,2.472-.648q.264-.1.528-.18a1.733,1.733,0,0,1,.528-.084,3.608,3.608,0,0,1,.7.108,2.679,2.679,0,0,1,.648.2,2.277,2.277,0,0,1,.72.576A1.374,1.374,0,0,1,142.9-15.84Zm30.912,7.056a1.071,1.071,0,0,1-.492.936,2.352,2.352,0,0,1-1.188.384h-2q-.78,0-1.428-.024-.312,0-.588-.012t-.564-.012q-2.112,0-3.792.06t-3.5.132q-.336.024-1.032.084t-1.488.144q-.792.084-1.44.144a8.547,8.547,0,0,0-.864.108,3.418,3.418,0,0,1-1.992-.564,1.945,1.945,0,0,1-.816-1.716,2.2,2.2,0,0,1,.2-.84.915.915,0,0,1,.516-.576,2.031,2.031,0,0,0,.78.72,3.313,3.313,0,0,0,.972.324,5.375,5.375,0,0,0,.864.084q.768,0,1.536.012t1.536-.012q1.272-.072,2.268-.144t2.268-.216q1.272-.144,2.232-.276t1.788-.324q.828-.192,1.668-.456a9.107,9.107,0,0,1,1.944.252,6.613,6.613,0,0,1,1.56.564,3.223,3.223,0,0,1,.684.528A1.009,1.009,0,0,1,173.808-8.784ZM195.5-4.92a1.68,1.68,0,0,1-.444,1.164,1.466,1.466,0,0,1-1.14.492,1.283,1.283,0,0,1-.888-.348,5.2,5.2,0,0,1-.672-.732q-.48-.648-1-1.284a8.71,8.71,0,0,0-1.14-1.164A19.754,19.754,0,0,1,187.26-3.54a15.038,15.038,0,0,1-3.336,2.172A24.168,24.168,0,0,1,179.784.12q-.12.024-.276.048a1.84,1.84,0,0,1-.276.024A1.546,1.546,0,0,1,179.04.18a.1.1,0,0,1-.1-.108q0-.1.144-.168l.192-.1a15.5,15.5,0,0,0,2.112-1.2,18,18,0,0,0,1.92-1.488q.768-.7,1.7-1.716t1.764-2.112a11.663,11.663,0,0,0,1.26-2q-.96-.72-2-1.356t-2.1-1.212q-.408-.216-.816-.456t-.816-.432l-.192-.1q-.1-.048-.216-.1a.6.6,0,0,0-.108-.072q-.084-.048-.084-.1,0-.1.192-.1h.216a10.428,10.428,0,0,1,1.668.156q.948.156,1.944.408t1.908.576a14.2,14.2,0,0,1,1.584.66q.24-.576.528-1.44t.5-1.74a6.3,6.3,0,0,0,.216-1.452,1.344,1.344,0,0,0-.348-.936,1.989,1.989,0,0,0-.828-.552,4.543,4.543,0,0,1,.912-.564,2.386,2.386,0,0,1,1.032-.252,2.575,2.575,0,0,1,1.368.456,4.667,4.667,0,0,1,1.224,1.116,2.185,2.185,0,0,1,.5,1.332.659.659,0,0,1-.2.456,2.059,2.059,0,0,1-.4.336q-.384,1.2-.8,2.4a18.687,18.687,0,0,1-1,2.328A5.109,5.109,0,0,1,193-8.664a11.514,11.514,0,0,1,.948.84,6.783,6.783,0,0,1,1.128,1.272A2.882,2.882,0,0,1,195.5-4.92Zm27.864-9q-.168.36-.36.828t-.36.8a28.327,28.327,0,0,1-1.62,2.868,19.331,19.331,0,0,1-2.364,2.892,20.539,20.539,0,0,1-1.884,1.692,25.1,25.1,0,0,1-2.352,1.668,25.573,25.573,0,0,1-2.592,1.428,16.12,16.12,0,0,1-2.628,1,1.445,1.445,0,0,1-.84-.1,9.949,9.949,0,0,1-1-.612,3.3,3.3,0,0,1-.9-.924q-.1-.168-.252-.432a1.415,1.415,0,0,1-.156-.72,4.113,4.113,0,0,1,.108-1.08,2.421,2.421,0,0,1,.516-1.056q.12.216.312.54a2.361,2.361,0,0,0,.48.576.989.989,0,0,0,.672.252A6.837,6.837,0,0,0,210.2-4.68a21.283,21.283,0,0,0,2.448-.972q1.26-.588,2.352-1.236a19.361,19.361,0,0,0,1.788-1.176q.96-.744,1.812-1.428t1.62-1.428l.864-.816a8.956,8.956,0,0,0,.816-.888q.192-.264.54-.7t.564-.7q.048-.072.1-.132a.63.63,0,0,0,.072-.108.23.23,0,0,1,.168-.072q.1,0,.084.144A.911.911,0,0,1,223.368-13.92Zm-10.608.744a2.351,2.351,0,0,1-.624,1.6,1.993,1.993,0,0,1-1.56.708,1.179,1.179,0,0,1-1-.42,2.429,2.429,0,0,1-.444-.9,4.809,4.809,0,0,0-.564-1.236,5.152,5.152,0,0,0-.984-1.152,3.2,3.2,0,0,0-1.356-.708q-.24-.072-.264-.168,0-.048.18-.132a3.086,3.086,0,0,1,.324-.132,5.1,5.1,0,0,1,1-.192,9.422,9.422,0,0,1,1-.072,8.42,8.42,0,0,1,1.356.12,5.686,5.686,0,0,1,1.4.42,2.852,2.852,0,0,1,1.1.852A2.229,2.229,0,0,1,212.76-13.176Z" transform="translate(-0.192 20.64)" fill="#e7b81e"/></svg>