<svg xmlns="http://www.w3.org/2000/svg" width="198.181" height="54.176" viewBox="0 0 198.181 54.176"><path d="M11.28-10.224h-.912V-4.56q.648,0,.78-.372a2.621,2.621,0,0,0,.132-.876ZM13.152-6.24A2.965,2.965,0,0,1,12.7-4.356a2.389,2.389,0,0,1-1.848.54H8.376V-6.7A5,5,0,0,1,7.5-7.26a8.4,8.4,0,0,1-.8-.684V1.9H3.936V-7.848a9.7,9.7,0,0,1-.828,1.764A10.742,10.742,0,0,1,1.812-4.3a5.553,5.553,0,0,1-1.5,1.224.368.368,0,0,1-.144.048q-.12,0-.12-.144a2.034,2.034,0,0,1,.12-.36q.12-.312.288-.684A4.077,4.077,0,0,0,.648-4.68,28.694,28.694,0,0,0,2.28-12.12l1.7.408v-1.512H.792v-1.008H3.936v-5.184H6.7v5.184h.552a1.174,1.174,0,0,1,.324-.828,1.054,1.054,0,0,1,.8-.348,1.2,1.2,0,0,1,.8.324,1,1,0,0,1,.372.78,1.213,1.213,0,0,1-.264.72.945.945,0,0,1-.816.36H6.7v2.232q.216-.12.432-.216L7.56-11.4q.12.96.312,2.136a13.662,13.662,0,0,0,.5,2.112v-3.864h4.776ZM23.184-.1a1.186,1.186,0,0,1-.408.888,1.274,1.274,0,0,1-.888.384H7.7V.048H20.328a1.389,1.389,0,0,1,.42-1.02,1.389,1.389,0,0,1,1.02-.42,1.5,1.5,0,0,1,.984.36A1.161,1.161,0,0,1,23.184-.1Zm.288-3.576a.987.987,0,0,1-.48.852,1.706,1.706,0,0,1-.96.324,1.381,1.381,0,0,1-.756-.24.757.757,0,0,1-.372-.672,1.08,1.08,0,0,1,.252-.7,1.326,1.326,0,0,1,.588-.432,4.652,4.652,0,0,0-.576-.612q-.312-.276-.648-.564a14.058,14.058,0,0,1-1.092,1.8,9.707,9.707,0,0,1-1.5,1.68A5.033,5.033,0,0,1,16.1-1.176a.412.412,0,0,1-.168.024q-.168,0-.168-.12a.864.864,0,0,1,.144-.264q.144-.216.3-.432t.2-.288a13.294,13.294,0,0,0,1.3-2.484q.528-1.332.912-2.652-.5-.408-1-.768T16.536-8.9q-.024.72-.072,1.8t-.192,2.256a10.367,10.367,0,0,1-.5,2.2,4.457,4.457,0,0,1-1,1.668A2.233,2.233,0,0,1,13.1-.336a1.623,1.623,0,0,1-.816-.18q-.312-.18-.744-.492-.12-.12-.48-.444a6.6,6.6,0,0,1-.624-.636q-.1-.144-.2-.276a.412.412,0,0,1-.108-.18.085.085,0,0,1,.1-.1,2.026,2.026,0,0,1,.324.084q.276.084.588.156a4.89,4.89,0,0,0,.588.156,2.781,2.781,0,0,0,.54.06,1.04,1.04,0,0,0,.924-.648A5.39,5.39,0,0,0,13.7-4.488a17.361,17.361,0,0,0,.216-2.076q.048-1.068.048-1.932V-12.48H10.224l1.752-4.536H8.352v-1.152H18.768a1.55,1.55,0,0,1,.408-1.044,1.285,1.285,0,0,1,1.008-.468,1.691,1.691,0,0,1,1.008.348,1.066,1.066,0,0,1,.48.9,1.4,1.4,0,0,1-.384,1.032,1.4,1.4,0,0,1-1.032.384H15.072L13.416-13.44h3.24q0,.936-.012,2.016t-.06,2.016l1.344-1.608q.312.288.612.552t.612.576a9.046,9.046,0,0,0,.192-1.308q.048-.66.1-1.308h-2.3v-1.008H22.32q-.1,1.464-.336,2.952a21.878,21.878,0,0,1-.672,2.9A12.964,12.964,0,0,1,22.2-6.5a12.237,12.237,0,0,1,.888,1.476A3.054,3.054,0,0,1,23.472-3.672Zm25.2,3.024A1.244,1.244,0,0,1,48.156.408a1.866,1.866,0,0,1-1.14.384H26.544v-1.2h8.9V-18.5h3.144v7.44H43.08a1.965,1.965,0,0,1,.444-1.176,1.354,1.354,0,0,1,1.116-.528,1.6,1.6,0,0,1,1.08.42A1.331,1.331,0,0,1,46.2-11.3a1.4,1.4,0,0,1-.456,1.056,1.518,1.518,0,0,1-1.08.432H38.592V-.408h6.864a2.045,2.045,0,0,1,.468-1.164,1.367,1.367,0,0,1,1.116-.516,1.815,1.815,0,0,1,1.128.384A1.255,1.255,0,0,1,48.672-.648ZM57.84-6.936a4.306,4.306,0,0,1-.264,1.068,16.006,16.006,0,0,1-.624,1.5q-.384.816-.8,1.62T55.356-1.3a6.8,6.8,0,0,1-.636.96,2.046,2.046,0,0,1-.348.36.7.7,0,0,1-.444.192,1.135,1.135,0,0,1-.6-.252,7.65,7.65,0,0,1-.744-.6,9.515,9.515,0,0,1-.7-.7,6.379,6.379,0,0,0-.5-.516q1.32-.936,2.544-1.98a29.034,29.034,0,0,0,2.328-2.22q.24-.264.468-.564a5.282,5.282,0,0,1,.468-.54.461.461,0,0,1,.336-.144.366.366,0,0,1,.228.084.222.222,0,0,1,.084.228ZM57.072-9.96a.461.461,0,0,1-.144.336.461.461,0,0,1-.336.144.2.2,0,0,1-.06-.012.266.266,0,0,0-.084-.012q-1.176-.312-2.4-.552t-2.424-.48l1.392-2.208a2.259,2.259,0,0,1,.336-.4.675.675,0,0,1,.48-.18,1.188,1.188,0,0,1,.576.276,8.248,8.248,0,0,1,.84.708,11.638,11.638,0,0,1,.864.912q.408.48.684.876A1.246,1.246,0,0,1,57.072-9.96Zm5.256,3.1a1.206,1.206,0,0,1-.312.564,7.619,7.619,0,0,1-.8.852q-.492.456-1.02.9t-.96.744a2.354,2.354,0,0,1-.624.348.842.842,0,0,1-.24.024.207.207,0,0,1-.144-.072.207.207,0,0,1-.072-.144.8.8,0,0,1,.072-.312q.432-.984.792-1.992t.648-2.04l2.4.792A.321.321,0,0,1,62.328-6.864ZM73.848.72a1.006,1.006,0,0,1-.372.732,1.112,1.112,0,0,1-.756.348,4.7,4.7,0,0,1-.948-.12,5.789,5.789,0,0,1-.924-.264A12.278,12.278,0,0,1,67.512-.5,12.735,12.735,0,0,1,64.9-3.312,8.585,8.585,0,0,1,63.324-1.14,8.036,8.036,0,0,1,61.332.276a16.219,16.219,0,0,1-2.508,1q-.6.168-1.392.384a5.449,5.449,0,0,1-1.416.216,1.509,1.509,0,0,1-.24-.024.154.154,0,0,1-.144-.168.233.233,0,0,1,.168-.216q.48-.216.984-.408a8.737,8.737,0,0,0,.96-.432,12.856,12.856,0,0,0,1.98-1.272A8.844,8.844,0,0,0,61.392-2.3a8.488,8.488,0,0,0,1.332-2.484,11.41,11.41,0,0,0,.5-2.568q.108-1.332.132-2.8.48.024.936.072l.912.1h.42a1.73,1.73,0,0,1,.42.048.2.2,0,0,1,.192.216,15.945,15.945,0,0,1-.168,2.3,22.1,22.1,0,0,1-.456,2.28l1.056-.528a15.921,15.921,0,0,0,1.932,3.4A11.562,11.562,0,0,0,71.4.456a1.075,1.075,0,0,1,.456-.576,1.308,1.308,0,0,1,.72-.216,1.493,1.493,0,0,1,.852.288A.889.889,0,0,1,73.848.72ZM57.576-15.6a.5.5,0,0,1-.144.348.444.444,0,0,1-.336.156.107.107,0,0,1-.048-.012.167.167,0,0,0-.072-.012q-1.176-.312-2.388-.564t-2.436-.468l1.416-2.232a1.654,1.654,0,0,1,.348-.408.767.767,0,0,1,.492-.144,1.132,1.132,0,0,1,.564.276,8.226,8.226,0,0,1,.816.708q.444.432.852.912a10.891,10.891,0,0,1,.672.864A1.213,1.213,0,0,1,57.576-15.6ZM71.664-6.936q0,.192-.468.564a10.525,10.525,0,0,1-1.128.768q-.66.4-1.224.708a5.788,5.788,0,0,1-.78.384,1.512,1.512,0,0,1-.48.072q-.24,0-.24-.264a.351.351,0,0,1,.072-.216q.432-.816.816-1.644t.72-1.692q.576.216,1.152.456t1.152.5a2.024,2.024,0,0,1,.264.132A.255.255,0,0,1,71.664-6.936ZM62.352-16.968a1.263,1.263,0,0,1-.312.576,10.277,10.277,0,0,1-.8.912q-.492.5-1.02.984t-.972.828a2.185,2.185,0,0,1-.636.4.267.267,0,0,1-.12.024h-.12a.207.207,0,0,1-.144-.072.207.207,0,0,1-.072-.144.762.762,0,0,1,.048-.216,40.9,40.9,0,0,0,1.392-4.44q.264.072.84.264t1.14.372a2.544,2.544,0,0,1,.708.3Q62.352-17.136,62.352-16.968ZM73.536-9.24a1.087,1.087,0,0,1-.36.8,1.144,1.144,0,0,1-.816.348,3.488,3.488,0,0,1-.636-.06,4.56,4.56,0,0,1-.612-.156A10.075,10.075,0,0,1,67.548-10.3,17.325,17.325,0,0,1,64.8-13.32a7.792,7.792,0,0,1-2.484,3.1A12.721,12.721,0,0,1,58.7-8.5q-.192.048-.552.156t-.708.192a2.479,2.479,0,0,1-.54.084.5.5,0,0,1-.2-.048.154.154,0,0,1-.108-.144q0-.168.1-.216l.192-.1a13.952,13.952,0,0,0,1.656-.9,10.158,10.158,0,0,0,1.488-1.14A8.751,8.751,0,0,0,61.788-12.7a8.29,8.29,0,0,0,.888-2.172,13.655,13.655,0,0,0,.36-2.364q.084-1.248.132-2.688.48.048.96.108t.96.108q.192.024.456.036a2.339,2.339,0,0,1,.456.06q.12.024.132.1a1.219,1.219,0,0,1,.012.192,11.724,11.724,0,0,1-.216,2.124q-.216,1.164-.48,2.1l1.2-.552a18.8,18.8,0,0,0,1.884,3.42,10.877,10.877,0,0,0,2.7,2.772,1.206,1.206,0,0,1,.492-.552,1.329,1.329,0,0,1,.708-.216,1.173,1.173,0,0,1,.72.312A.876.876,0,0,1,73.536-9.24Zm-1.848-7.92q0,.144-.372.432a10.141,10.141,0,0,1-.924.624q-.552.336-1.14.636t-1.044.5a1.943,1.943,0,0,1-.624.2.463.463,0,0,1-.228-.06.214.214,0,0,1-.108-.2.389.389,0,0,1,.072-.24q.456-.84.864-1.668t.768-1.716q.456.192.9.42t.9.444q.192.1.42.192a2.045,2.045,0,0,1,.4.216A.236.236,0,0,1,71.688-17.16Zm16.7,11.4v-1.7H86.856v1.7Zm4.488-1.7H91.056v1.7h.768a2.11,2.11,0,0,0,.672-.132.508.508,0,0,0,.384-.516ZM99.048-.456a1.1,1.1,0,0,1-.312.768,2.981,2.981,0,0,1-.744.576,8.544,8.544,0,0,1-.768.384,11.128,11.128,0,0,1-2.172.672,11.664,11.664,0,0,1-2.268.216q-.6,0-1.308-.06a6.679,6.679,0,0,1-1.38-.264,3.32,3.32,0,0,1-1.176-.624,2.035,2.035,0,0,1-.672-1.14Q87.72.384,87.192.72a7.238,7.238,0,0,1-1.1.576,10.541,10.541,0,0,1-1.992.576,11.262,11.262,0,0,1-2.064.192H81.84L81.864-4.1H84.48V-2.5h.96a1.221,1.221,0,0,1,.372-.732,1.01,1.01,0,0,1,.732-.324,1.147,1.147,0,0,1,.768.288.935.935,0,0,1,.336.744.793.793,0,0,1-.348.7,1.3,1.3,0,0,1-.756.24H84.48V.192q.936-.1,1.86-.264t1.836-.36V-4.1h2.712v1.728A18.753,18.753,0,0,0,92.6-3.324,18.385,18.385,0,0,0,94.2-4.44q.12.1.444.348t.7.552q.372.3.636.552t.264.372a.194.194,0,0,1-.072.156,1.689,1.689,0,0,1-.144.108,3.768,3.768,0,0,1-.624.192q-.48.12-1.14.252t-1.344.252q-.684.12-1.224.2t-.78.108V-.7A1.2,1.2,0,0,0,91.536.456a2.744,2.744,0,0,0,1.32.336q1.008,0,2.136-.108a10.865,10.865,0,0,0,2.088-.4,1.2,1.2,0,0,1-.336-.312.7.7,0,0,1-.168-.432,1,1,0,0,1,.384-.816,1.3,1.3,0,0,1,.84-.312,1.321,1.321,0,0,1,.852.324A1,1,0,0,1,99.048-.456Zm-1.584-10.7a.835.835,0,0,1-.432.792,1.851,1.851,0,0,1-.912.24H81.5q0,1.272-.012,2.712a22.639,22.639,0,0,1-.2,2.856,9.7,9.7,0,0,1-.72,2.616,5.144,5.144,0,0,1-.612,1.08q-.372.5-.78.984-.168.192-.516.528T77.9,1.32a7.545,7.545,0,0,1-.792.576,1.3,1.3,0,0,1-.648.24q-.288,0-.288-.24a.553.553,0,0,1,.192-.384q.264-.312.5-.624A3.585,3.585,0,0,0,77.28.216a10.2,10.2,0,0,0,1.188-3.648,34.158,34.158,0,0,0,.2-3.84q0-.984-.012-1.944t-.012-1.92h7.344q-.072-.336-.168-.684t-.216-.66a2.446,2.446,0,0,1-1.152.264,3.023,3.023,0,0,1-.528-.072q-.36-.072-.756-.18a3.212,3.212,0,0,1-.684-.264q-.288-.156-.288-.324,0-.144.216-.144a3.36,3.36,0,0,1,.552.048,3.359,3.359,0,0,0,.552.048.318.318,0,0,0,.336-.252,1.643,1.643,0,0,0,.072-.444v-2.232H81v1.416a12.058,12.058,0,0,1,1.032-1.176,5.309,5.309,0,0,1,.648.492,7.383,7.383,0,0,1,.756.744,1.131,1.131,0,0,1,.348.684.194.194,0,0,1-.108.18.463.463,0,0,1-.228.06,2.824,2.824,0,0,1-.456-.084q-.36-.084-.8-.216t-.792-.24a1.472,1.472,0,0,1-.4-.156v2.04H78.48v-4.584h7.968v2.712a4.469,4.469,0,0,1-.024.468,1.158,1.158,0,0,1-.144.444q.552.024,1.116.072a7.973,7.973,0,0,1,1.092.168v-3.864h7.968v2.712a1.914,1.914,0,0,1-.516,1.452,2.056,2.056,0,0,1-1.476.492,3.241,3.241,0,0,1-.516-.072q-.372-.072-.768-.18a3.212,3.212,0,0,1-.684-.264q-.288-.156-.288-.324,0-.144.216-.144a3.359,3.359,0,0,1,.552.048,3.36,3.36,0,0,0,.552.048.3.3,0,0,0,.324-.264,2.035,2.035,0,0,0,.06-.432v-2.232h-2.9v1.416a5.686,5.686,0,0,1,.492-.612q.276-.3.54-.564a5.309,5.309,0,0,1,.648.492,7.383,7.383,0,0,1,.756.744,1.131,1.131,0,0,1,.348.684.194.194,0,0,1-.108.18.463.463,0,0,1-.228.06A2.824,2.824,0,0,1,93-13.716q-.36-.084-.8-.216t-.792-.24a1.473,1.473,0,0,1-.4-.156v2.04h-2.4q-.1.288-.2.576t-.228.576h6.792a1.012,1.012,0,0,1,.408-.828,1.4,1.4,0,0,1,.888-.324,1.2,1.2,0,0,1,.8.36A1.039,1.039,0,0,1,97.464-11.16ZM95.952-6.648A1.539,1.539,0,0,1,95.628-5.6a1.844,1.844,0,0,1-.84.54,4.788,4.788,0,0,1-1.08.216q-.564.048-1.068.048H81.816v-.96h2.5v-1.7H81.864V-8.4h2.448V-9.72h2.544V-8.4h1.536V-9.744h2.664V-8.4h4.872q.024.432.024.876ZM87.072-18.84a1.032,1.032,0,0,1-.336.744,1.032,1.032,0,0,1-.744.336H77.568v-1.032h6.768a1.127,1.127,0,0,1,.444-.864,1.446,1.446,0,0,1,.924-.336,1.532,1.532,0,0,1,.912.336A.989.989,0,0,1,87.072-18.84Zm10.656,0a1.066,1.066,0,0,1-.324.732.98.98,0,0,1-.732.348H88.128v-1.032h6.888a1.14,1.14,0,0,1,.432-.864,1.4,1.4,0,0,1,.912-.336,1.532,1.532,0,0,1,.912.336A.989.989,0,0,1,97.728-18.84ZM16.368,24.536q0-2.472-.012-4.932t-.012-4.932H7.56v3.384h4.968V17.84a1.25,1.25,0,0,1,.456-.96,1.451,1.451,0,0,1,.984-.408,1.389,1.389,0,0,1,.972.42,1.277,1.277,0,0,1,.444.948,1.209,1.209,0,0,1-1.368,1.368H7.56v3.12h4.968v-.192a1.25,1.25,0,0,1,.456-.96,1.451,1.451,0,0,1,.984-.408,1.389,1.389,0,0,1,.972.42,1.277,1.277,0,0,1,.444.948,1.173,1.173,0,0,1-.42,1.008,1.743,1.743,0,0,1-1.068.312H7.56v3.768h6.384a2.163,2.163,0,0,0,1.812-.78A3,3,0,0,0,16.368,24.536Zm-5.76,5.9a.237.237,0,0,1-.108.228q-.108.06-.228.132a23.954,23.954,0,0,1-4.116,1.824,13.915,13.915,0,0,1-4.452.72.5.5,0,0,1-.2-.048.17.17,0,0,1-.108-.168.213.213,0,0,1,.168-.2q.168-.06.264-.084A16.334,16.334,0,0,0,5.256,31a20.3,20.3,0,0,0,3-2.484q.12.072.48.348t.8.612q.444.336.756.612T10.608,30.44Zm11.64,2.3a.965.965,0,0,1-.372.768,1.228,1.228,0,0,1-.8.312,4.963,4.963,0,0,1-1.44-.252,13.533,13.533,0,0,1-1.608-.612q-.792-.36-1.344-.672-.7-.408-1.44-.864a11.06,11.06,0,0,1-1.368-.984.72.72,0,0,1-.144-.132.272.272,0,0,1-.072-.18.24.24,0,0,1,.084-.192,1.65,1.65,0,0,1,.156-.12q.192-.12.4-.24t.372-.216q.408-.216.8-.432t.78-.456a14.68,14.68,0,0,0,1.74,2.112q1,1.008,2.028,1.872a.873.873,0,0,1,.4-.552,1.178,1.178,0,0,1,.66-.216,1.271,1.271,0,0,1,.816.288A.934.934,0,0,1,22.248,32.744Zm-2.88-8.736a4.631,4.631,0,0,1-.648,2.6A3.571,3.571,0,0,1,16.932,28a7.656,7.656,0,0,1-2.652.42H4.728V13.472h14.64Zm18.12-5.352a1.023,1.023,0,0,1-.42.732,5.663,5.663,0,0,1-1.032.708q-.612.336-1.188.588a9.07,9.07,0,0,1-.888.348,9.837,9.837,0,0,1-.348,1.392,9.838,9.838,0,0,0-.348,1.392q.192-.168.636-.5t.9-.648q.456-.312.672-.432l.072.1a8.721,8.721,0,0,0-.9,1.188q-.42.66-.756,1.284t-.648,1.26a9.232,9.232,0,0,0-.528,1.332q-.216.744-.456,1.5t-.432,1.524q-.072.312-.132.612a6.251,6.251,0,0,1-.156.612,2.121,2.121,0,0,1-.624,1.152,1.841,1.841,0,0,1-1.272.408,1,1,0,0,1-.828-.42,2.824,2.824,0,0,1-.48-.984,3.733,3.733,0,0,1-.156-.972,1.367,1.367,0,0,1,.24-.816q.24-.336.48-.72.5-.744,1.032-1.716t1.008-2.052q.48-1.08.84-2.112a13.822,13.822,0,0,0,.528-1.9q-.384.048-.768.072t-.792.024a4.142,4.142,0,0,1-1.008-.12,2.647,2.647,0,0,1-.912-.432,3.468,3.468,0,0,1-.936-1.1,7.3,7.3,0,0,1-.624-1.32.837.837,0,0,0-.036-.144.837.837,0,0,1-.036-.144.212.212,0,0,1,.24-.24q.144,0,.276.2a4.347,4.347,0,0,0,.348.456,2.082,2.082,0,0,0,.588.456,2.016,2.016,0,0,0,.972.2,6.8,6.8,0,0,0,1.62-.216,10.057,10.057,0,0,0,1.548-.5,8.693,8.693,0,0,0,.528-2.832.774.774,0,0,0-.324-.636,2.184,2.184,0,0,0-.732-.372,3.568,3.568,0,0,0-.72-.144,1.494,1.494,0,0,1,.66-.7,3.383,3.383,0,0,1,1.02-.372,5.187,5.187,0,0,1,.984-.108,1.9,1.9,0,0,1,.852.24,3.133,3.133,0,0,1,.828.612,1.14,1.14,0,0,1,.36.8.993.993,0,0,1-.072.372q-.072.18-.168.372-.168.36-.336.732a6.019,6.019,0,0,0-.288.78q.192.024.408.072a1.884,1.884,0,0,0,.408.048q.12,0,.252-.012t.252-.012a.632.632,0,0,1,.6.384A1.619,1.619,0,0,1,37.488,18.656Zm8.664,12.168a1.094,1.094,0,0,1-.5.948,3.051,3.051,0,0,1-.984.468,6.417,6.417,0,0,1-.888.132q-.456.036-.912.036h-.432a9.021,9.021,0,0,1-2.94-.5,4.494,4.494,0,0,1-2.136-1.56,4.668,4.668,0,0,1-.8-2.856,3.229,3.229,0,0,1,.18-.948,2.284,2.284,0,0,1,.444-.852l-.024.24a3.219,3.219,0,0,0,.516,1.98,3.087,3.087,0,0,0,1.464,1.1,5.711,5.711,0,0,0,2.028.348h.216a.789.789,0,0,0,.192-.024,8.58,8.58,0,0,0,1.368-.264l.576-.168a4.607,4.607,0,0,1,1.248.168,2.125,2.125,0,0,1,1,.588A1.629,1.629,0,0,1,46.152,30.824ZM45.48,20.7a1.463,1.463,0,0,1-.36.96,1.136,1.136,0,0,1-.912.432,2.29,2.29,0,0,0-.756-.264,4.761,4.761,0,0,0-.8-.072,6.9,6.9,0,0,0-1.416.168,6.566,6.566,0,0,0-1.368.432q-.072,0-.072-.1,0-.144.264-.408a7.589,7.589,0,0,1,.624-.552q.36-.288.7-.516a5.006,5.006,0,0,1,.48-.3,5.179,5.179,0,0,0-1.368-.372A10.222,10.222,0,0,0,39.072,20q-.24,0-.5.024t-.528.072l-.12-.1a1.973,1.973,0,0,1,.336-.348q.192-.156.36-.3a4.935,4.935,0,0,1,1.74-.8,7.519,7.519,0,0,1,1.908-.276,3.777,3.777,0,0,1,1.38.3,3.694,3.694,0,0,1,1.3.852A1.766,1.766,0,0,1,45.48,20.7Zm-1.488-4.512A.923.923,0,0,1,42.96,17.24a.84.84,0,0,1-.576-.24,1.25,1.25,0,0,1-.36-.528,2.564,2.564,0,0,0-.2-.516q-.132-.252-.276-.492a2.766,2.766,0,0,0-.444-.6,1.861,1.861,0,0,0-.612-.432.414.414,0,0,0-.12-.06q-.048-.012-.048-.108,0-.072.1-.1a.656.656,0,0,1,.144-.024A5.623,5.623,0,0,1,42.2,14.4a3.106,3.106,0,0,1,1.4.876,1.423,1.423,0,0,1,.288.4A1.213,1.213,0,0,1,43.992,16.184Zm2.832-1.392a1.092,1.092,0,0,1-.3.744.921.921,0,0,1-.708.336.911.911,0,0,1-.5-.156,1,1,0,0,1-.36-.4,5.072,5.072,0,0,0-1.128-1.392,4.678,4.678,0,0,0-.552-.432q-.288-.192-.6-.36-.072-.072-.072-.1,0-.072.252-.108t.516-.048q.264-.012.336-.012.288,0,.6.024t.6.072a3.312,3.312,0,0,1,1.3.612A1.449,1.449,0,0,1,46.824,14.792Zm24.192,9.744a9.2,9.2,0,0,1-1.38,4.02,8.475,8.475,0,0,1-2.952,2.832,8.094,8.094,0,0,1-4.116,1.044,5.67,5.67,0,0,1-4.14-1.512,5.875,5.875,0,0,1-1.668-4.1q-.024-.36-.024-.732v-.756q0-2.064.144-4.14t.144-4.164q0-.336-.024-.816a3.917,3.917,0,0,0-.156-.924,1.007,1.007,0,0,0-.492-.636,1.553,1.553,0,0,0-.492-.168q-.276-.048-.492-.072a.754.754,0,0,1,.516-.588,4.453,4.453,0,0,1,1.02-.3,5.3,5.3,0,0,1,.816-.1,2.26,2.26,0,0,1,1.44.492,3.478,3.478,0,0,1,.984,1.236,3.39,3.39,0,0,1,.36,1.488q0,.168-.012.312t-.036.288q-.168.84-.348,1.692t-.3,1.692q-.216,1.344-.348,2.724T59.328,26.1q0,3.72,3.7,3.72a7.986,7.986,0,0,0,3.24-.684,8.953,8.953,0,0,0,2.76-1.884,8.144,8.144,0,0,0,1.824-2.76ZM87.5,19.64H84.192v2.52h1.344a1.128,1.128,0,0,1,.288-.624.8.8,0,0,1,.624-.264.877.877,0,1,1,.024,1.752h-2.28v2.448h2.232a.9.9,0,0,0,.792-.444,1.638,1.638,0,0,0,.288-.9Zm7.848-.072a.756.756,0,0,1-.648.336H93.48q0,1.056.024,2.112t-.024,2.112h.384a1.012,1.012,0,0,1,.288-.6.844.844,0,0,1,.624-.24.592.592,0,0,1,.336.1,1.049,1.049,0,0,1,.24.216Zm0-5.136H93.48V18.9h.384a1.047,1.047,0,0,1,.276-.6.8.8,0,0,1,.612-.24.6.6,0,0,1,.348.108,1.178,1.178,0,0,1,.252.228ZM81.144,25.184a7.912,7.912,0,0,1-.132,1.152q-.132.792-.348,1.788T80.2,30.1q-.252.984-.48,1.752a4.933,4.933,0,0,1-.42,1.08,1,1,0,0,1-.276.336.653.653,0,0,1-.42.144.739.739,0,0,1-.408-.108,3.065,3.065,0,0,1-.336-.252q-.528-.456-1.008-.948t-.96-.972A22.506,22.506,0,0,0,78.2,28.244q1.044-1.548,1.932-3.156a4.213,4.213,0,0,1,.228-.384.431.431,0,0,1,.348-.24.339.339,0,0,1,.348.264A1.541,1.541,0,0,1,81.144,25.184Zm-.144-3a.5.5,0,0,1-.18.4.621.621,0,0,1-.42.156,3.812,3.812,0,0,1-.648-.12q-.5-.12-1.008-.276t-.72-.2q-.528-.144-1.068-.276t-1.092-.228q.336-.624.66-1.236a13.674,13.674,0,0,1,.708-1.188,2.284,2.284,0,0,1,.24-.288.454.454,0,0,1,.336-.12,1.112,1.112,0,0,1,.564.288q.372.288.828.72a11.636,11.636,0,0,1,.864.912,9.616,9.616,0,0,1,.672.876A1.274,1.274,0,0,1,81,22.184Zm.144-5.256a.4.4,0,0,1-.456.456,2.927,2.927,0,0,1-.672-.156q-.5-.156-1.02-.348t-.732-.264q-.456-.168-.924-.3t-.948-.228q.216-.408.468-.828t.492-.8q.12-.216.24-.444a2.13,2.13,0,0,1,.264-.4,1.238,1.238,0,0,1,.264-.24.592.592,0,0,1,.336-.1,1.206,1.206,0,0,1,.756.456,8.333,8.333,0,0,1,.888,1.1,11.25,11.25,0,0,1,.744,1.236A2.234,2.234,0,0,1,81.144,16.928ZM98.136,31.04a5.75,5.75,0,0,1-.192,1.488,2.439,2.439,0,0,1-.7,1.188,2,2,0,0,1-1.416.468,2.46,2.46,0,0,1-1.332-.42,6.531,6.531,0,0,1-1.212-1,9.939,9.939,0,0,1-.912-1.08.421.421,0,0,1-.048-.12q0-.12.1-.12a1.409,1.409,0,0,1,.432.168,7.068,7.068,0,0,0,.816.336,2.89,2.89,0,0,0,.96.168.572.572,0,0,0,.588-.3,1.683,1.683,0,0,0,.132-.684V24.8a.818.818,0,0,1-.648.312h-1.3a15.879,15.879,0,0,1-.4,2.472,9.6,9.6,0,0,1-.9,2.352,9.135,9.135,0,0,1-1.488,1.944,7.129,7.129,0,0,1-1.944,1.464q-.1.048-.372.168a1.179,1.179,0,0,1-.4.12.532.532,0,0,1-.168-.024q-.072-.024-.072-.168a.249.249,0,0,1,.072-.156q.072-.084.12-.132.48-.48.912-.972a6.352,6.352,0,0,0,.768-1.092q.216-.408.408-.816a5.3,5.3,0,0,0,.312-.84,1.935,1.935,0,0,1-.312.168.9.9,0,0,1-.36.072h-2.52v4.272H84.5V29.672H80.832v-1.1H84.5V26.384H81.7V18.728h2.832V16.64H81.336V15.56h3.192V12.32h2.616v3.24h.936a1.345,1.345,0,0,1,.348-.8,1.014,1.014,0,0,1,.78-.324,1.117,1.117,0,0,1,.78.324,1.028,1.028,0,0,1,.348.78,1.153,1.153,0,0,1-.3.744.9.9,0,0,1-.708.36H87.144v2.088h2.832v4.824a2.712,2.712,0,0,1-.8,2.076,2.941,2.941,0,0,1-2.1.756v2.184h1.464a1.243,1.243,0,0,1,.348-.744,1.048,1.048,0,0,1,1.3-.156,1.418,1.418,0,0,1,.42.4,3.253,3.253,0,0,0,.192-.888q.072-.624.108-1.38t.048-1.416q.012-.66.012-1,0-2.5-.06-5t-.108-5h7.344Zm22.68-9.72a.739.739,0,0,1-.144.456,2.382,2.382,0,0,1-.6.48,12.718,12.718,0,0,1-.864,2.232,19.89,19.89,0,0,1-1.284,2.244,15.445,15.445,0,0,1-1.4,1.836,12.838,12.838,0,0,1-4.176,3,16.287,16.287,0,0,1-2.868.948,20.47,20.47,0,0,1-3.036.468q-.408.024-.816.036t-.648.012q-.1,0-.264.012t-.192-.18a.149.149,0,0,1,.108-.156q.108-.036.2-.06a10.594,10.594,0,0,0,1.248-.24,13.827,13.827,0,0,0,2.82-1.068,14.863,14.863,0,0,0,2.64-1.7,13.113,13.113,0,0,0,2.148-2.172,17.04,17.04,0,0,0,1.284-1.92,13.82,13.82,0,0,0,1.008-2.124,5.571,5.571,0,0,0,.4-1.908q-.024-.384-.5-.384-.12,0-.276.012a2.333,2.333,0,0,0-.276.036q-.864.144-1.872.336t-2.028.42q-1.02.228-1.884.444t-1.416.408q-.168.1-.324.18a.83.83,0,0,1-.4.084,2.265,2.265,0,0,1-.72-.12,2.845,2.845,0,0,1-1.332-.876,2.5,2.5,0,0,1-.564-1.524,1.787,1.787,0,0,1,.012-.456,1.257,1.257,0,0,1,.276-.576,1.925,1.925,0,0,0,.78.516,6.033,6.033,0,0,0,1.956.4q.6,0,1.62-.072t2.136-.168q1.116-.1,2.04-.2t1.356-.18a7.018,7.018,0,0,0,.828-.228,5.661,5.661,0,0,0,.66-.252,5.355,5.355,0,0,1,.516-.216,2.645,2.645,0,0,1,.492-.144,2.43,2.43,0,0,1,.852.156,4.163,4.163,0,0,1,.732.348q.336.216.756.528a4.787,4.787,0,0,1,.72.648A1.04,1.04,0,0,1,120.816,21.32Zm-3.12-5.16a.649.649,0,0,1-.384.624,3.679,3.679,0,0,1-.648.264q-.7.168-1.632.312t-1.884.24q-.948.1-1.692.1a7.533,7.533,0,0,1-1.62-.144A2.755,2.755,0,0,1,108.7,17a6.966,6.966,0,0,1-1.1-1.2q-.1-.12-.24-.288a.481.481,0,0,1-.144-.264q0-.288.24-.288a.553.553,0,0,1,.3.132,1.223,1.223,0,0,0,.324.18q.408.1.744.18a2.826,2.826,0,0,0,.816.06,19.815,19.815,0,0,0,2.112-.264,14.4,14.4,0,0,0,2.472-.648q.264-.1.528-.18a1.733,1.733,0,0,1,.528-.084,3.608,3.608,0,0,1,.7.108,2.679,2.679,0,0,1,.648.2,2.277,2.277,0,0,1,.72.576A1.374,1.374,0,0,1,117.7,16.16Zm30.912,7.056a1.071,1.071,0,0,1-.492.936,2.352,2.352,0,0,1-1.188.384h-2q-.78,0-1.428-.024-.312,0-.588-.012t-.564-.012q-2.112,0-3.792.06t-3.5.132q-.336.024-1.032.084t-1.488.144q-.792.084-1.44.144a8.547,8.547,0,0,0-.864.108,3.418,3.418,0,0,1-1.992-.564,1.945,1.945,0,0,1-.816-1.716,2.2,2.2,0,0,1,.2-.84.915.915,0,0,1,.516-.576,2.031,2.031,0,0,0,.78.72,3.313,3.313,0,0,0,.972.324,5.376,5.376,0,0,0,.864.084q.768,0,1.536.012t1.536-.012q1.272-.072,2.268-.144t2.268-.216q1.272-.144,2.232-.276t1.788-.324q.828-.192,1.668-.456a9.107,9.107,0,0,1,1.944.252,6.613,6.613,0,0,1,1.56.564,3.223,3.223,0,0,1,.684.528A1.009,1.009,0,0,1,148.608,23.216Zm21.7,3.864a1.68,1.68,0,0,1-.444,1.164,1.466,1.466,0,0,1-1.14.492,1.283,1.283,0,0,1-.888-.348,5.2,5.2,0,0,1-.672-.732q-.48-.648-1-1.284a8.71,8.71,0,0,0-1.14-1.164,19.754,19.754,0,0,1-2.964,3.252,15.038,15.038,0,0,1-3.336,2.172,24.168,24.168,0,0,1-4.14,1.488q-.12.024-.276.048a1.839,1.839,0,0,1-.276.024,1.547,1.547,0,0,1-.192-.012.1.1,0,0,1-.1-.108q0-.1.144-.168l.192-.1a15.5,15.5,0,0,0,2.112-1.2,18,18,0,0,0,1.92-1.488q.768-.7,1.7-1.716t1.764-2.112a11.665,11.665,0,0,0,1.26-2q-.96-.72-2-1.356t-2.1-1.212q-.408-.216-.816-.456t-.816-.432l-.192-.1q-.1-.048-.216-.1a.6.6,0,0,0-.108-.072q-.084-.048-.084-.1,0-.1.192-.1h.216a10.428,10.428,0,0,1,1.668.156q.948.156,1.944.408t1.908.576a14.2,14.2,0,0,1,1.584.66q.24-.576.528-1.44t.5-1.74a6.3,6.3,0,0,0,.216-1.452,1.344,1.344,0,0,0-.348-.936,1.989,1.989,0,0,0-.828-.552,4.543,4.543,0,0,1,.912-.564,2.386,2.386,0,0,1,1.032-.252,2.575,2.575,0,0,1,1.368.456,4.667,4.667,0,0,1,1.224,1.116,2.185,2.185,0,0,1,.5,1.332.659.659,0,0,1-.2.456,2.059,2.059,0,0,1-.4.336q-.384,1.2-.8,2.4a18.687,18.687,0,0,1-1,2.328,5.109,5.109,0,0,1,1.068.672,11.515,11.515,0,0,1,.948.84,6.783,6.783,0,0,1,1.128,1.272A2.882,2.882,0,0,1,170.3,27.08Zm27.864-9q-.168.36-.36.828t-.36.8a28.327,28.327,0,0,1-1.62,2.868,19.331,19.331,0,0,1-2.364,2.892,20.539,20.539,0,0,1-1.884,1.692,25.1,25.1,0,0,1-2.352,1.668,25.573,25.573,0,0,1-2.592,1.428,16.12,16.12,0,0,1-2.628,1,1.445,1.445,0,0,1-.84-.1,9.949,9.949,0,0,1-1-.612,3.3,3.3,0,0,1-.9-.924q-.1-.168-.252-.432a1.415,1.415,0,0,1-.156-.72,4.113,4.113,0,0,1,.108-1.08,2.421,2.421,0,0,1,.516-1.056q.12.216.312.54a2.361,2.361,0,0,0,.48.576.989.989,0,0,0,.672.252A6.837,6.837,0,0,0,185,27.32a21.283,21.283,0,0,0,2.448-.972q1.26-.588,2.352-1.236a19.361,19.361,0,0,0,1.788-1.176q.96-.744,1.812-1.428t1.62-1.428l.864-.816a8.956,8.956,0,0,0,.816-.888q.192-.264.54-.7t.564-.7q.048-.072.1-.132a.63.63,0,0,0,.072-.108.23.23,0,0,1,.168-.072q.1,0,.084.144A.911.911,0,0,1,198.168,18.08Zm-10.608.744a2.351,2.351,0,0,1-.624,1.6,1.993,1.993,0,0,1-1.56.708,1.179,1.179,0,0,1-1-.42,2.429,2.429,0,0,1-.444-.9,4.809,4.809,0,0,0-.564-1.236,5.152,5.152,0,0,0-.984-1.152,3.2,3.2,0,0,0-1.356-.708q-.24-.072-.264-.168,0-.048.18-.132a3.086,3.086,0,0,1,.324-.132,5.1,5.1,0,0,1,1-.192,9.421,9.421,0,0,1,1-.072,8.42,8.42,0,0,1,1.356.12,5.686,5.686,0,0,1,1.4.42,2.852,2.852,0,0,1,1.1.852A2.229,2.229,0,0,1,187.56,18.824Z" transform="translate(-0.048 19.992)" fill="#e7b81e"/></svg>