<svg xmlns="http://www.w3.org/2000/svg" width="459.272" height="33.265" viewBox="0 0 459.272 33.265"><path d="M16.92-15.336H15.552v8.5q.972,0,1.17-.558a3.932,3.932,0,0,0,.2-1.314ZM19.728-9.36a4.448,4.448,0,0,1-.684,2.826,3.584,3.584,0,0,1-2.772.81H12.564v-4.32a7.5,7.5,0,0,1-1.314-.846,12.605,12.605,0,0,1-1.206-1.026V2.844H5.9V-11.772A14.554,14.554,0,0,1,4.662-9.126,16.113,16.113,0,0,1,2.718-6.444,8.33,8.33,0,0,1,.468-4.608a.553.553,0,0,1-.216.072q-.18,0-.18-.216a3.051,3.051,0,0,1,.18-.54q.18-.468.432-1.026a6.115,6.115,0,0,0,.288-.7A43.04,43.04,0,0,0,3.42-18.18l2.556.612v-2.268H1.188v-1.512H5.9v-7.776h4.14v7.776h.828a1.76,1.76,0,0,1,.486-1.242,1.581,1.581,0,0,1,1.206-.522,1.8,1.8,0,0,1,1.206.486,1.5,1.5,0,0,1,.558,1.17,1.82,1.82,0,0,1-.4,1.08,1.417,1.417,0,0,1-1.224.54H10.044v3.348q.324-.18.648-.324l.648-.288q.18,1.44.468,3.2a20.493,20.493,0,0,0,.756,3.168v-5.8h7.164ZM34.776-.144a1.779,1.779,0,0,1-.612,1.332,1.91,1.91,0,0,1-1.332.576H11.556V.072H30.492a2.083,2.083,0,0,1,.63-1.53,2.083,2.083,0,0,1,1.53-.63,2.242,2.242,0,0,1,1.476.54A1.741,1.741,0,0,1,34.776-.144Zm.432-5.364a1.48,1.48,0,0,1-.72,1.278,2.559,2.559,0,0,1-1.44.486,2.071,2.071,0,0,1-1.134-.36,1.136,1.136,0,0,1-.558-1.008,1.621,1.621,0,0,1,.378-1.044,1.989,1.989,0,0,1,.882-.648,6.977,6.977,0,0,0-.864-.918q-.468-.414-.972-.846a21.086,21.086,0,0,1-1.638,2.7,14.561,14.561,0,0,1-2.25,2.52,7.55,7.55,0,0,1-2.736,1.584.618.618,0,0,1-.252.036q-.252,0-.252-.18a1.3,1.3,0,0,1,.216-.4q.216-.324.45-.648t.306-.432A19.941,19.941,0,0,0,26.568-7.11q.792-2,1.368-3.978-.756-.612-1.494-1.152T24.8-13.356q-.036,1.08-.108,2.7t-.288,3.384a15.551,15.551,0,0,1-.756,3.294,6.685,6.685,0,0,1-1.494,2.5,3.349,3.349,0,0,1-2.5.972,2.434,2.434,0,0,1-1.224-.27q-.468-.27-1.116-.738-.18-.18-.72-.666a9.9,9.9,0,0,1-.936-.954q-.144-.216-.306-.414a.618.618,0,0,1-.162-.27.127.127,0,0,1,.144-.144,3.039,3.039,0,0,1,.486.126q.414.126.882.234a7.336,7.336,0,0,0,.882.234,4.171,4.171,0,0,0,.81.09,1.56,1.56,0,0,0,1.386-.972,8.086,8.086,0,0,0,.774-2.484,26.041,26.041,0,0,0,.324-3.114q.072-1.6.072-2.9V-18.72H15.336l2.628-6.8H12.528v-1.728H28.152a2.325,2.325,0,0,1,.612-1.566,1.928,1.928,0,0,1,1.512-.7A2.537,2.537,0,0,1,31.788-29a1.6,1.6,0,0,1,.72,1.35,2.092,2.092,0,0,1-.576,1.548,2.092,2.092,0,0,1-1.548.576H22.608L20.124-20.16h4.86q0,1.4-.018,3.024t-.09,3.024l2.016-2.412q.468.432.918.828t.918.864a13.57,13.57,0,0,0,.288-1.962q.072-.99.144-1.962H25.7v-1.512H33.48q-.144,2.2-.5,4.428a32.816,32.816,0,0,1-1.008,4.356A19.447,19.447,0,0,1,33.3-9.756a18.354,18.354,0,0,1,1.332,2.214A4.581,4.581,0,0,1,35.208-5.508Zm37.8,4.536A1.866,1.866,0,0,1,72.234.612a2.8,2.8,0,0,1-1.71.576H39.816v-1.8H53.172V-27.756h4.716V-16.6H64.62a2.948,2.948,0,0,1,.666-1.764,2.032,2.032,0,0,1,1.674-.792,2.4,2.4,0,0,1,1.62.63,2,2,0,0,1,.72,1.566,2.1,2.1,0,0,1-.684,1.584,2.276,2.276,0,0,1-1.62.648H57.888V-.612h10.3a3.067,3.067,0,0,1,.7-1.746,2.05,2.05,0,0,1,1.674-.774,2.723,2.723,0,0,1,1.692.576A1.882,1.882,0,0,1,73.008-.972ZM86.76-10.4a6.459,6.459,0,0,1-.4,1.6,24.011,24.011,0,0,1-.936,2.25q-.576,1.224-1.206,2.43T83.034-1.944A10.2,10.2,0,0,1,82.08-.5a3.069,3.069,0,0,1-.522.54,1.048,1.048,0,0,1-.666.288,1.7,1.7,0,0,1-.9-.378,11.475,11.475,0,0,1-1.116-.9A14.271,14.271,0,0,1,77.832-2a9.569,9.569,0,0,0-.756-.774q1.98-1.4,3.816-2.97a43.552,43.552,0,0,0,3.492-3.33q.36-.4.7-.846a7.923,7.923,0,0,1,.7-.81.691.691,0,0,1,.5-.216.549.549,0,0,1,.342.126.333.333,0,0,1,.126.342ZM85.608-14.94a.691.691,0,0,1-.216.5.691.691,0,0,1-.5.216.3.3,0,0,1-.09-.018.4.4,0,0,0-.126-.018q-1.764-.468-3.6-.828t-3.636-.72l2.088-3.312a3.389,3.389,0,0,1,.5-.594,1.012,1.012,0,0,1,.72-.27,1.782,1.782,0,0,1,.864.414,12.372,12.372,0,0,1,1.26,1.062,17.456,17.456,0,0,1,1.3,1.368q.612.72,1.026,1.314A1.869,1.869,0,0,1,85.608-14.94ZM93.492-10.3a1.809,1.809,0,0,1-.468.846,11.429,11.429,0,0,1-1.206,1.278q-.738.684-1.53,1.35t-1.44,1.116a3.531,3.531,0,0,1-.936.522,1.263,1.263,0,0,1-.36.036.311.311,0,0,1-.216-.108.311.311,0,0,1-.108-.216,1.2,1.2,0,0,1,.108-.468q.648-1.476,1.188-2.988t.972-3.06L93.1-10.8A.481.481,0,0,1,93.492-10.3ZM110.772,1.08a1.509,1.509,0,0,1-.558,1.1,1.668,1.668,0,0,1-1.134.522,7.046,7.046,0,0,1-1.422-.18,8.683,8.683,0,0,1-1.386-.4,18.417,18.417,0,0,1-5-2.88,19.1,19.1,0,0,1-3.924-4.212A12.877,12.877,0,0,1,94.986-1.71,12.055,12.055,0,0,1,92,.414a24.329,24.329,0,0,1-3.762,1.494q-.9.252-2.088.576a8.173,8.173,0,0,1-2.124.324,2.263,2.263,0,0,1-.36-.036.231.231,0,0,1-.216-.252A.349.349,0,0,1,83.7,2.2q.72-.324,1.476-.612a13.105,13.105,0,0,0,1.44-.648,19.284,19.284,0,0,0,2.97-1.908,13.266,13.266,0,0,0,2.5-2.484,12.732,12.732,0,0,0,2-3.726,17.115,17.115,0,0,0,.756-3.852q.162-2,.2-4.194.72.036,1.4.108l1.368.144h.63a2.6,2.6,0,0,1,.63.072.293.293,0,0,1,.288.324,23.919,23.919,0,0,1-.252,3.456,33.156,33.156,0,0,1-.684,3.42l1.584-.792a23.882,23.882,0,0,0,2.9,5.094A17.342,17.342,0,0,0,107.1.684a1.613,1.613,0,0,1,.684-.864,1.962,1.962,0,0,1,1.08-.324,2.24,2.24,0,0,1,1.278.432A1.334,1.334,0,0,1,110.772,1.08ZM86.364-23.4a.751.751,0,0,1-.216.522.666.666,0,0,1-.5.234.16.16,0,0,1-.072-.018.251.251,0,0,0-.108-.018q-1.764-.468-3.582-.846t-3.654-.7l2.124-3.348a2.48,2.48,0,0,1,.522-.612,1.15,1.15,0,0,1,.738-.216,1.7,1.7,0,0,1,.846.414,12.339,12.339,0,0,1,1.224,1.062q.666.648,1.278,1.368a16.337,16.337,0,0,1,1.008,1.3A1.82,1.82,0,0,1,86.364-23.4Zm21.132,13q0,.288-.7.846A15.786,15.786,0,0,1,105.1-8.406q-.99.594-1.836,1.062a8.682,8.682,0,0,1-1.17.576,2.267,2.267,0,0,1-.72.108q-.36,0-.36-.4a.527.527,0,0,1,.108-.324q.648-1.224,1.224-2.466t1.08-2.538q.864.324,1.728.684t1.728.756a3.036,3.036,0,0,1,.4.2A.383.383,0,0,1,107.5-10.4ZM93.528-25.452a1.894,1.894,0,0,1-.468.864,15.416,15.416,0,0,1-1.206,1.368q-.738.756-1.53,1.476T88.866-20.5a3.277,3.277,0,0,1-.954.594.4.4,0,0,1-.18.036h-.18a.311.311,0,0,1-.216-.108.311.311,0,0,1-.108-.216,1.143,1.143,0,0,1,.072-.324,61.346,61.346,0,0,0,2.088-6.66q.4.108,1.26.4t1.71.558a3.816,3.816,0,0,1,1.062.45Q93.528-25.7,93.528-25.452ZM110.3-13.86a1.63,1.63,0,0,1-.54,1.206,1.716,1.716,0,0,1-1.224.522,5.232,5.232,0,0,1-.954-.09,6.839,6.839,0,0,1-.918-.234,15.113,15.113,0,0,1-5.346-2.988A25.989,25.989,0,0,1,97.2-19.98a11.688,11.688,0,0,1-3.726,4.644,19.081,19.081,0,0,1-5.418,2.592q-.288.072-.828.234t-1.062.288a3.718,3.718,0,0,1-.81.126.755.755,0,0,1-.306-.072.232.232,0,0,1-.162-.216q0-.252.144-.324l.288-.144A20.927,20.927,0,0,0,87.8-14.2a15.236,15.236,0,0,0,2.232-1.71,13.126,13.126,0,0,0,2.646-3.132A12.434,12.434,0,0,0,94.014-22.3a20.484,20.484,0,0,0,.54-3.546q.126-1.872.2-4.032.72.072,1.44.162t1.44.162q.288.036.684.054a3.509,3.509,0,0,1,.684.09q.18.036.2.144a1.829,1.829,0,0,1,.018.288,17.586,17.586,0,0,1-.324,3.186q-.324,1.746-.72,3.15l1.8-.828a28.206,28.206,0,0,0,2.826,5.13,16.315,16.315,0,0,0,4.05,4.158,1.808,1.808,0,0,1,.738-.828,1.993,1.993,0,0,1,1.062-.324,1.76,1.76,0,0,1,1.08.468A1.314,1.314,0,0,1,110.3-13.86Zm-2.772-11.88q0,.216-.558.648a15.211,15.211,0,0,1-1.386.936q-.828.5-1.71.954t-1.566.756a2.914,2.914,0,0,1-.936.306.694.694,0,0,1-.342-.09.321.321,0,0,1-.162-.306.583.583,0,0,1,.108-.36q.684-1.26,1.3-2.5t1.152-2.574q.684.288,1.35.63t1.35.666q.288.144.63.288a3.067,3.067,0,0,1,.594.324A.354.354,0,0,1,107.532-25.74Zm25.056,17.1V-11.2h-2.3V-8.64ZM139.32-11.2h-2.736V-8.64h1.152a3.165,3.165,0,0,0,1.008-.2.762.762,0,0,0,.576-.774ZM148.572-.684A1.645,1.645,0,0,1,148.1.468a4.472,4.472,0,0,1-1.116.864,12.817,12.817,0,0,1-1.152.576,16.692,16.692,0,0,1-3.258,1.008,17.5,17.5,0,0,1-3.4.324q-.9,0-1.962-.09a10.018,10.018,0,0,1-2.07-.4,4.98,4.98,0,0,1-1.764-.936,3.052,3.052,0,0,1-1.008-1.71q-.792.468-1.584.972a10.857,10.857,0,0,1-1.656.864,15.812,15.812,0,0,1-2.988.864,16.893,16.893,0,0,1-3.1.288h-.288l.036-9.252h3.924v2.412h1.44a1.831,1.831,0,0,1,.558-1.1,1.516,1.516,0,0,1,1.1-.486,1.72,1.72,0,0,1,1.152.432,1.4,1.4,0,0,1,.5,1.116,1.189,1.189,0,0,1-.522,1.044,1.957,1.957,0,0,1-1.134.36h-3.1V.288q1.4-.144,2.79-.4t2.754-.54V-6.156h4.068v2.592a28.131,28.131,0,0,0,2.574-1.422A27.579,27.579,0,0,0,141.3-6.66q.18.144.666.522t1.044.828q.558.45.954.828t.4.558a.29.29,0,0,1-.108.234,2.532,2.532,0,0,1-.216.162,5.652,5.652,0,0,1-.936.288q-.72.18-1.71.378t-2.016.378q-1.026.18-1.836.306t-1.17.162v.972A1.8,1.8,0,0,0,137.3.684a4.117,4.117,0,0,0,1.98.5q1.512,0,3.2-.162A16.3,16.3,0,0,0,145.62.432a1.8,1.8,0,0,1-.5-.468,1.054,1.054,0,0,1-.252-.648,1.5,1.5,0,0,1,.576-1.224,1.955,1.955,0,0,1,1.26-.468,1.981,1.981,0,0,1,1.278.486A1.5,1.5,0,0,1,148.572-.684ZM146.2-16.74a1.252,1.252,0,0,1-.648,1.188,2.776,2.776,0,0,1-1.368.36H122.256q0,1.908-.018,4.068a33.958,33.958,0,0,1-.306,4.284,14.546,14.546,0,0,1-1.08,3.924,7.715,7.715,0,0,1-.918,1.62q-.558.756-1.17,1.476-.252.288-.774.792T116.856,1.98a11.318,11.318,0,0,1-1.188.864,1.949,1.949,0,0,1-.972.36q-.432,0-.432-.36a.83.83,0,0,1,.288-.576q.4-.468.756-.936A5.378,5.378,0,0,0,115.92.324,15.3,15.3,0,0,0,117.7-5.148a51.234,51.234,0,0,0,.306-5.76q0-1.476-.018-2.916t-.018-2.88h11.016q-.108-.5-.252-1.026t-.324-.99a3.669,3.669,0,0,1-1.728.4,4.535,4.535,0,0,1-.792-.108q-.54-.108-1.134-.27a4.819,4.819,0,0,1-1.026-.4q-.432-.234-.432-.486,0-.216.324-.216a5.039,5.039,0,0,1,.828.072,5.039,5.039,0,0,0,.828.072.477.477,0,0,0,.5-.378,2.465,2.465,0,0,0,.108-.666v-3.348H121.5v2.124a18.089,18.089,0,0,1,1.548-1.764,7.963,7.963,0,0,1,.972.738,11.073,11.073,0,0,1,1.134,1.116,1.7,1.7,0,0,1,.522,1.026.291.291,0,0,1-.162.27.694.694,0,0,1-.342.09,4.236,4.236,0,0,1-.684-.126q-.54-.126-1.206-.324t-1.188-.36a2.209,2.209,0,0,1-.594-.234v3.06h-3.78v-6.876h11.952v4.068a6.7,6.7,0,0,1-.036.7,1.737,1.737,0,0,1-.216.666q.828.036,1.674.108a11.959,11.959,0,0,1,1.638.252v-5.8h11.952v4.068a2.871,2.871,0,0,1-.774,2.178,3.084,3.084,0,0,1-2.214.738,4.861,4.861,0,0,1-.774-.108q-.558-.108-1.152-.27a4.818,4.818,0,0,1-1.026-.4q-.432-.234-.432-.486,0-.216.324-.216a5.039,5.039,0,0,1,.828.072,5.039,5.039,0,0,0,.828.072.455.455,0,0,0,.486-.4,3.052,3.052,0,0,0,.09-.648v-3.348h-4.356v2.124a8.526,8.526,0,0,1,.738-.918q.414-.45.81-.846a7.963,7.963,0,0,1,.972.738,11.074,11.074,0,0,1,1.134,1.116,1.7,1.7,0,0,1,.522,1.026.291.291,0,0,1-.162.27.694.694,0,0,1-.342.09,4.236,4.236,0,0,1-.684-.126q-.54-.126-1.206-.324t-1.188-.36a2.209,2.209,0,0,1-.594-.234v3.06h-3.6q-.144.432-.306.864t-.342.864h10.188a1.518,1.518,0,0,1,.612-1.242,2.1,2.1,0,0,1,1.332-.486,1.8,1.8,0,0,1,1.206.54A1.559,1.559,0,0,1,146.2-16.74Zm-2.268,6.768a2.308,2.308,0,0,1-.486,1.566,2.765,2.765,0,0,1-1.26.81,7.182,7.182,0,0,1-1.62.324q-.846.072-1.6.072H122.724V-8.64h3.744V-11.2H122.8v-1.4h3.672v-1.98h3.816v1.98h2.3v-2.016h4V-12.6h7.308q.036.648.036,1.314ZM130.608-28.26a1.548,1.548,0,0,1-.5,1.116,1.548,1.548,0,0,1-1.116.5H116.352v-1.548H126.5a1.691,1.691,0,0,1,.666-1.3,2.169,2.169,0,0,1,1.386-.5,2.3,2.3,0,0,1,1.368.5A1.484,1.484,0,0,1,130.608-28.26Zm15.984,0a1.6,1.6,0,0,1-.486,1.1,1.469,1.469,0,0,1-1.1.522H132.192v-1.548h10.332a1.711,1.711,0,0,1,.648-1.3,2.1,2.1,0,0,1,1.368-.5,2.3,2.3,0,0,1,1.368.5A1.484,1.484,0,0,1,146.592-28.26ZM186.552-11.2q0-3.708-.018-7.4t-.018-7.4H173.34v5.076h7.452v-.324a1.876,1.876,0,0,1,.684-1.44,2.176,2.176,0,0,1,1.476-.612,2.083,2.083,0,0,1,1.458.63,1.916,1.916,0,0,1,.666,1.422,1.814,1.814,0,0,1-2.052,2.052H173.34v4.68h7.452V-14.8a1.876,1.876,0,0,1,.684-1.44,2.176,2.176,0,0,1,1.476-.612,2.083,2.083,0,0,1,1.458.63,1.916,1.916,0,0,1,.666,1.422,1.759,1.759,0,0,1-.63,1.512,2.615,2.615,0,0,1-1.6.468h-9.5v5.652h9.576a3.244,3.244,0,0,0,2.718-1.17A4.494,4.494,0,0,0,186.552-11.2Zm-8.64,8.856A.356.356,0,0,1,177.75-2q-.162.09-.342.2A35.932,35.932,0,0,1,171.234.936a20.872,20.872,0,0,1-6.678,1.08.755.755,0,0,1-.306-.072.255.255,0,0,1-.162-.252.319.319,0,0,1,.252-.306q.252-.09.4-.126a24.5,24.5,0,0,0,5.148-2.754,30.452,30.452,0,0,0,4.5-3.726q.18.108.72.522t1.206.918q.666.5,1.134.918T177.912-2.34Zm17.46,3.456a1.448,1.448,0,0,1-.558,1.152,1.841,1.841,0,0,1-1.206.468,7.444,7.444,0,0,1-2.16-.378,20.3,20.3,0,0,1-2.412-.918Q187.848.9,187.02.432q-1.044-.612-2.16-1.3a16.591,16.591,0,0,1-2.052-1.476,1.079,1.079,0,0,1-.216-.2.408.408,0,0,1-.108-.27.36.36,0,0,1,.126-.288,2.474,2.474,0,0,1,.234-.18q.288-.18.594-.36T184-3.96q.612-.324,1.206-.648t1.17-.684a22.021,22.021,0,0,0,2.61,3.168q1.494,1.512,3.042,2.808a1.31,1.31,0,0,1,.594-.828,1.767,1.767,0,0,1,.99-.324,1.907,1.907,0,0,1,1.224.432A1.4,1.4,0,0,1,195.372,1.116Zm-4.32-13.1a6.946,6.946,0,0,1-.972,3.906A5.357,5.357,0,0,1,187.4-5.994a11.484,11.484,0,0,1-3.978.63H169.092V-27.792h21.96Zm27.18-8.028a1.535,1.535,0,0,1-.63,1.1,8.494,8.494,0,0,1-1.548,1.062q-.918.5-1.782.882a13.606,13.606,0,0,1-1.332.522,14.753,14.753,0,0,1-.522,2.088,14.757,14.757,0,0,0-.522,2.088q.288-.252.954-.756T214.2-14q.684-.468,1.008-.648l.108.144a13.08,13.08,0,0,0-1.35,1.782q-.63.99-1.134,1.926t-.972,1.89a13.847,13.847,0,0,0-.792,2q-.324,1.116-.684,2.25t-.648,2.286q-.108.468-.2.918a9.381,9.381,0,0,1-.234.918,3.182,3.182,0,0,1-.936,1.728,2.762,2.762,0,0,1-1.908.612,1.5,1.5,0,0,1-1.242-.63,4.236,4.236,0,0,1-.72-1.476,5.6,5.6,0,0,1-.234-1.458,2.051,2.051,0,0,1,.36-1.224q.36-.5.72-1.08.756-1.116,1.548-2.574T208.4-9.72q.72-1.62,1.26-3.168a20.733,20.733,0,0,0,.792-2.844q-.576.072-1.152.108t-1.188.036a6.213,6.213,0,0,1-1.512-.18,3.971,3.971,0,0,1-1.368-.648,5.2,5.2,0,0,1-1.4-1.656,10.958,10.958,0,0,1-.936-1.98,1.255,1.255,0,0,0-.054-.216,1.256,1.256,0,0,1-.054-.216.318.318,0,0,1,.36-.36q.216,0,.414.306a6.523,6.523,0,0,0,.522.684,3.123,3.123,0,0,0,.882.684,3.023,3.023,0,0,0,1.458.306,10.2,10.2,0,0,0,2.43-.324,15.086,15.086,0,0,0,2.322-.756,11.883,11.883,0,0,0,.576-2.106,11.876,11.876,0,0,0,.216-2.142,1.161,1.161,0,0,0-.486-.954,3.276,3.276,0,0,0-1.1-.558,5.352,5.352,0,0,0-1.08-.216,2.241,2.241,0,0,1,.99-1.044,5.074,5.074,0,0,1,1.53-.558,7.78,7.78,0,0,1,1.476-.162,2.842,2.842,0,0,1,1.278.36,4.7,4.7,0,0,1,1.242.918,1.71,1.71,0,0,1,.54,1.206,1.489,1.489,0,0,1-.108.558q-.108.27-.252.558-.252.54-.5,1.1a9.029,9.029,0,0,0-.432,1.17q.288.036.612.108a2.826,2.826,0,0,0,.612.072q.18,0,.378-.018t.378-.018a.947.947,0,0,1,.9.576A2.428,2.428,0,0,1,218.232-20.016Zm13,18.252a1.64,1.64,0,0,1-.756,1.422A4.576,4.576,0,0,1,229,.36a9.624,9.624,0,0,1-1.332.2q-.684.054-1.368.054h-.648a13.531,13.531,0,0,1-4.41-.756,6.74,6.74,0,0,1-3.2-2.34,7,7,0,0,1-1.206-4.284,4.844,4.844,0,0,1,.27-1.422,3.426,3.426,0,0,1,.666-1.278l-.036.36a4.829,4.829,0,0,0,.774,2.97,4.631,4.631,0,0,0,2.2,1.656,8.566,8.566,0,0,0,3.042.522h.324A1.183,1.183,0,0,0,224.352-4a12.87,12.87,0,0,0,2.052-.4l.864-.252a6.91,6.91,0,0,1,1.872.252,3.187,3.187,0,0,1,1.494.882A2.444,2.444,0,0,1,231.228-1.764ZM230.22-16.956a2.2,2.2,0,0,1-.54,1.44,1.7,1.7,0,0,1-1.368.648,3.435,3.435,0,0,0-1.134-.4,7.142,7.142,0,0,0-1.206-.108,10.355,10.355,0,0,0-2.124.252,9.849,9.849,0,0,0-2.052.648q-.108,0-.108-.144,0-.216.4-.612a11.386,11.386,0,0,1,.936-.828q.54-.432,1.044-.774a7.509,7.509,0,0,1,.72-.45,7.768,7.768,0,0,0-2.052-.558A15.334,15.334,0,0,0,220.608-18q-.36,0-.756.036t-.792.108L218.88-18a2.959,2.959,0,0,1,.5-.522q.288-.234.54-.45a7.4,7.4,0,0,1,2.61-1.206,11.279,11.279,0,0,1,2.862-.414,5.666,5.666,0,0,1,2.07.45,5.541,5.541,0,0,1,1.944,1.278A2.65,2.65,0,0,1,230.22-16.956Zm-2.232-6.768a1.384,1.384,0,0,1-1.548,1.584,1.26,1.26,0,0,1-.864-.36,1.875,1.875,0,0,1-.54-.792,3.846,3.846,0,0,0-.306-.774q-.2-.378-.414-.738a4.15,4.15,0,0,0-.666-.9,2.792,2.792,0,0,0-.918-.648.621.621,0,0,0-.18-.09q-.072-.018-.072-.162,0-.108.144-.144a.985.985,0,0,1,.216-.036,8.435,8.435,0,0,1,2.466.378,4.659,4.659,0,0,1,2.106,1.314,2.134,2.134,0,0,1,.432.594A1.819,1.819,0,0,1,227.988-23.724Zm4.248-2.088a1.638,1.638,0,0,1-.45,1.116,1.381,1.381,0,0,1-1.062.5,1.366,1.366,0,0,1-.756-.234,1.505,1.505,0,0,1-.54-.594,7.608,7.608,0,0,0-1.692-2.088,7.017,7.017,0,0,0-.828-.648q-.432-.288-.9-.54-.108-.108-.108-.144,0-.108.378-.162t.774-.072q.4-.018.5-.018.432,0,.9.036t.9.108a4.968,4.968,0,0,1,1.944.918A2.174,2.174,0,0,1,232.236-25.812ZM268.524-11.2a13.8,13.8,0,0,1-2.07,6.03,12.712,12.712,0,0,1-4.428,4.248A12.142,12.142,0,0,1,255.852.648a8.505,8.505,0,0,1-6.21-2.268,8.813,8.813,0,0,1-2.5-6.156q-.036-.54-.036-1.1v-1.134q0-3.1.216-6.21t.216-6.246q0-.5-.036-1.224a5.875,5.875,0,0,0-.234-1.386,1.51,1.51,0,0,0-.738-.954,2.33,2.33,0,0,0-.738-.252q-.414-.072-.738-.108a1.131,1.131,0,0,1,.774-.882,6.679,6.679,0,0,1,1.53-.45,7.951,7.951,0,0,1,1.224-.144,3.39,3.39,0,0,1,2.16.738,5.217,5.217,0,0,1,1.476,1.854,5.086,5.086,0,0,1,.54,2.232q0,.252-.018.468t-.054.432q-.252,1.26-.522,2.538t-.45,2.538q-.324,2.016-.522,4.086t-.2,4.122q0,5.58,5.544,5.58A11.98,11.98,0,0,0,261.4-4.3a13.431,13.431,0,0,0,4.14-2.826,12.216,12.216,0,0,0,2.736-4.14Zm24.732-7.344h-4.968v3.78H290.3a1.691,1.691,0,0,1,.432-.936,1.206,1.206,0,0,1,.936-.4,1.273,1.273,0,0,1,.918.414,1.273,1.273,0,0,1,.414.918,1.266,1.266,0,0,1-.36.936,1.266,1.266,0,0,1-.936.36h-3.42v3.672h3.348a1.347,1.347,0,0,0,1.188-.666,2.458,2.458,0,0,0,.432-1.35Zm11.772-.108a1.134,1.134,0,0,1-.972.5H302.22q0,1.584.036,3.168t-.036,3.168h.576a1.518,1.518,0,0,1,.432-.9,1.266,1.266,0,0,1,.936-.36.887.887,0,0,1,.5.144,1.573,1.573,0,0,1,.36.324Zm0-7.7H302.22v6.7h.576a1.57,1.57,0,0,1,.414-.9,1.206,1.206,0,0,1,.918-.36.9.9,0,0,1,.522.162,1.766,1.766,0,0,1,.378.342ZM283.716-10.224a11.87,11.87,0,0,1-.2,1.728q-.2,1.188-.522,2.682t-.7,2.97q-.378,1.476-.72,2.628a7.4,7.4,0,0,1-.63,1.62,1.5,1.5,0,0,1-.414.5.979.979,0,0,1-.63.216,1.108,1.108,0,0,1-.612-.162,4.6,4.6,0,0,1-.5-.378Q277.992.9,277.272.162T275.832-1.3a33.76,33.76,0,0,0,3.474-4.338q1.566-2.322,2.9-4.734a6.317,6.317,0,0,1,.342-.576.647.647,0,0,1,.522-.36.508.508,0,0,1,.522.4A2.311,2.311,0,0,1,283.716-10.224Zm-.216-4.5a.752.752,0,0,1-.27.594.932.932,0,0,1-.63.234,5.718,5.718,0,0,1-.972-.18q-.756-.18-1.512-.414t-1.08-.306q-.792-.216-1.6-.414t-1.638-.342q.5-.936.99-1.854a20.515,20.515,0,0,1,1.062-1.782,3.425,3.425,0,0,1,.36-.432.681.681,0,0,1,.5-.18,1.668,1.668,0,0,1,.846.432q.558.432,1.242,1.08a17.45,17.45,0,0,1,1.3,1.368,14.427,14.427,0,0,1,1.008,1.314A1.91,1.91,0,0,1,283.5-14.724Zm.216-7.884a.6.6,0,0,1-.684.684,4.39,4.39,0,0,1-1.008-.234q-.756-.234-1.53-.522t-1.1-.4q-.684-.252-1.386-.45t-1.422-.342q.324-.612.7-1.242t.738-1.206q.18-.324.36-.666a3.2,3.2,0,0,1,.4-.594,1.857,1.857,0,0,1,.4-.36.887.887,0,0,1,.5-.144,1.808,1.808,0,0,1,1.134.684,12.5,12.5,0,0,1,1.332,1.656,16.876,16.876,0,0,1,1.116,1.854A3.35,3.35,0,0,1,283.716-22.608ZM309.2-1.44a8.626,8.626,0,0,1-.288,2.232,3.658,3.658,0,0,1-1.044,1.782,3,3,0,0,1-2.124.7,3.69,3.69,0,0,1-2-.63,9.8,9.8,0,0,1-1.818-1.494,14.911,14.911,0,0,1-1.368-1.62.631.631,0,0,1-.072-.18q0-.18.144-.18a2.113,2.113,0,0,1,.648.252,10.6,10.6,0,0,0,1.224.5,4.335,4.335,0,0,0,1.44.252.858.858,0,0,0,.882-.45,2.524,2.524,0,0,0,.2-1.026v-9.5a1.226,1.226,0,0,1-.972.468h-1.944a23.821,23.821,0,0,1-.594,3.708,14.4,14.4,0,0,1-1.35,3.528A13.7,13.7,0,0,1,297.936-.18a10.693,10.693,0,0,1-2.916,2.2q-.144.072-.558.252a1.768,1.768,0,0,1-.594.18.8.8,0,0,1-.252-.036q-.108-.036-.108-.252a.373.373,0,0,1,.108-.234q.108-.126.18-.2.72-.72,1.368-1.458a9.53,9.53,0,0,0,1.152-1.638q.324-.612.612-1.224a7.952,7.952,0,0,0,.468-1.26,2.9,2.9,0,0,1-.468.252,1.356,1.356,0,0,1-.54.108h-3.78V2.916h-3.852V-3.492h-5.508V-5.148h5.508V-8.424h-4.212V-19.908h4.248V-23.04H284v-1.62h4.788v-4.86h3.924v4.86h1.4a2.017,2.017,0,0,1,.522-1.206,1.521,1.521,0,0,1,1.17-.486,1.675,1.675,0,0,1,1.17.486,1.542,1.542,0,0,1,.522,1.17,1.729,1.729,0,0,1-.45,1.116,1.347,1.347,0,0,1-1.062.54h-3.276v3.132h4.248v7.236a4.068,4.068,0,0,1-1.206,3.114,4.412,4.412,0,0,1-3.15,1.134v3.276h2.2a1.865,1.865,0,0,1,.522-1.116,1.507,1.507,0,0,1,1.134-.468,1.512,1.512,0,0,1,.81.234,2.127,2.127,0,0,1,.63.594,4.88,4.88,0,0,0,.288-1.332q.108-.936.162-2.07t.072-2.124q.018-.99.018-1.494,0-3.744-.09-7.506t-.162-7.506H309.2Zm34.02-14.58a1.108,1.108,0,0,1-.216.684,3.572,3.572,0,0,1-.9.72,19.074,19.074,0,0,1-1.3,3.348A29.84,29.84,0,0,1,338.886-7.9a23.166,23.166,0,0,1-2.106,2.754,19.322,19.322,0,0,1-2.79,2.484,19.217,19.217,0,0,1-3.474,2.016,24.431,24.431,0,0,1-4.3,1.422,30.7,30.7,0,0,1-4.554.7q-.612.036-1.224.054t-.972.018q-.144,0-.4.018t-.288-.27a.223.223,0,0,1,.162-.234q.162-.054.306-.09a15.893,15.893,0,0,0,1.872-.36,20.74,20.74,0,0,0,4.23-1.6,22.293,22.293,0,0,0,3.96-2.556A19.67,19.67,0,0,0,332.532-6.8a25.56,25.56,0,0,0,1.926-2.88,20.729,20.729,0,0,0,1.512-3.186,8.356,8.356,0,0,0,.594-2.862q-.036-.576-.756-.576-.18,0-.414.018a3.5,3.5,0,0,0-.414.054q-1.3.216-2.808.5t-3.042.63q-1.53.342-2.826.666t-2.124.612q-.252.144-.486.27a1.245,1.245,0,0,1-.594.126,3.4,3.4,0,0,1-1.08-.18,4.268,4.268,0,0,1-2-1.314,3.744,3.744,0,0,1-.846-2.286,2.68,2.68,0,0,1,.018-.684,1.886,1.886,0,0,1,.414-.864,2.888,2.888,0,0,0,1.17.774,8.138,8.138,0,0,0,1.6.45,8.166,8.166,0,0,0,1.332.144q.9,0,2.43-.108t3.2-.252q1.674-.144,3.06-.306t2.034-.27a10.526,10.526,0,0,0,1.242-.342,8.493,8.493,0,0,0,.99-.378,8.036,8.036,0,0,1,.774-.324,3.968,3.968,0,0,1,.738-.216,3.645,3.645,0,0,1,1.278.234,6.243,6.243,0,0,1,1.1.522q.5.324,1.134.792a7.181,7.181,0,0,1,1.08.972A1.559,1.559,0,0,1,343.224-16.02Zm-4.68-7.74a.974.974,0,0,1-.576.936,5.519,5.519,0,0,1-.972.4q-1.044.252-2.448.468t-2.826.36q-1.422.144-2.538.144a11.3,11.3,0,0,1-2.43-.216,4.132,4.132,0,0,1-1.71-.828,10.449,10.449,0,0,1-1.656-1.8q-.144-.18-.36-.432a.721.721,0,0,1-.216-.4q0-.432.36-.432a.83.83,0,0,1,.45.2,1.834,1.834,0,0,0,.486.27q.612.144,1.116.27a4.239,4.239,0,0,0,1.224.09,29.724,29.724,0,0,0,3.168-.4,21.6,21.6,0,0,0,3.708-.972q.4-.144.792-.27a2.6,2.6,0,0,1,.792-.126,5.412,5.412,0,0,1,1.044.162,4.019,4.019,0,0,1,.972.306,3.416,3.416,0,0,1,1.08.864A2.061,2.061,0,0,1,338.544-23.76Zm46.368,10.584a1.607,1.607,0,0,1-.738,1.4,3.529,3.529,0,0,1-1.782.576h-3.006q-1.17,0-2.142-.036-.468,0-.882-.018t-.846-.018q-3.168,0-5.688.09t-5.256.2q-.5.036-1.548.126t-2.232.216q-1.188.126-2.16.216a12.821,12.821,0,0,0-1.3.162,5.127,5.127,0,0,1-2.988-.846,2.917,2.917,0,0,1-1.224-2.574,3.3,3.3,0,0,1,.306-1.26,1.372,1.372,0,0,1,.774-.864,3.046,3.046,0,0,0,1.17,1.08,4.969,4.969,0,0,0,1.458.486,8.063,8.063,0,0,0,1.3.126q1.152,0,2.3.018t2.3-.018q1.908-.108,3.4-.216t3.4-.324q1.908-.216,3.348-.414t2.682-.486q1.242-.288,2.5-.684a13.66,13.66,0,0,1,2.916.378,9.919,9.919,0,0,1,2.34.846,4.834,4.834,0,0,1,1.026.792A1.513,1.513,0,0,1,384.912-13.176Zm32.544,5.8a2.52,2.52,0,0,1-.666,1.746,2.2,2.2,0,0,1-1.71.738,1.924,1.924,0,0,1-1.332-.522,7.8,7.8,0,0,1-1.008-1.1q-.72-.972-1.494-1.926a13.064,13.064,0,0,0-1.71-1.746A29.631,29.631,0,0,1,405.09-5.31a22.557,22.557,0,0,1-5,3.258A36.253,36.253,0,0,1,393.876.18q-.18.036-.414.072a2.759,2.759,0,0,1-.414.036A2.32,2.32,0,0,1,392.76.27a.147.147,0,0,1-.144-.162q0-.144.216-.252l.288-.144a23.247,23.247,0,0,0,3.168-1.8,27,27,0,0,0,2.88-2.232q1.152-1.044,2.556-2.574t2.646-3.168a17.493,17.493,0,0,0,1.89-3.006q-1.44-1.08-3.006-2.034T400.1-16.92q-.612-.324-1.224-.684t-1.224-.648l-.288-.144q-.144-.072-.324-.144a.894.894,0,0,0-.162-.108q-.126-.072-.126-.144,0-.144.288-.144h.324a15.642,15.642,0,0,1,2.5.234q1.422.234,2.916.612t2.862.864a21.294,21.294,0,0,1,2.376.99q.36-.864.792-2.16t.756-2.61a9.448,9.448,0,0,0,.324-2.178,2.016,2.016,0,0,0-.522-1.4,2.984,2.984,0,0,0-1.242-.828,6.814,6.814,0,0,1,1.368-.846,3.579,3.579,0,0,1,1.548-.378,3.862,3.862,0,0,1,2.052.684,7,7,0,0,1,1.836,1.674,3.277,3.277,0,0,1,.756,2,.988.988,0,0,1-.306.684,3.09,3.09,0,0,1-.594.5q-.576,1.8-1.206,3.6A28.03,28.03,0,0,1,412.092-14a7.663,7.663,0,0,1,1.6,1.008,17.268,17.268,0,0,1,1.422,1.26,10.175,10.175,0,0,1,1.692,1.908A4.323,4.323,0,0,1,417.456-7.38Zm41.8-13.5q-.252.54-.54,1.242t-.54,1.206a42.485,42.485,0,0,1-2.43,4.3A29,29,0,0,1,452.2-9.792a30.813,30.813,0,0,1-2.826,2.538,37.657,37.657,0,0,1-3.528,2.5,38.359,38.359,0,0,1-3.888,2.142,24.18,24.18,0,0,1-3.942,1.494,2.168,2.168,0,0,1-1.26-.144,14.922,14.922,0,0,1-1.494-.918,4.95,4.95,0,0,1-1.35-1.386q-.144-.252-.378-.648a2.122,2.122,0,0,1-.234-1.08,6.169,6.169,0,0,1,.162-1.62,3.631,3.631,0,0,1,.774-1.584q.18.324.468.81a3.54,3.54,0,0,0,.72.864,1.483,1.483,0,0,0,1.008.378,10.255,10.255,0,0,0,3.078-.576,31.924,31.924,0,0,0,3.672-1.458q1.89-.882,3.528-1.854a29.043,29.043,0,0,0,2.682-1.764q1.44-1.116,2.718-2.142t2.43-2.142q.684-.648,1.3-1.224a13.432,13.432,0,0,0,1.224-1.332q.288-.4.81-1.044t.846-1.044q.072-.108.144-.2a.943.943,0,0,0,.108-.162.345.345,0,0,1,.252-.108q.144,0,.126.216A1.366,1.366,0,0,1,459.252-20.88ZM443.34-19.764a3.526,3.526,0,0,1-.936,2.394,2.99,2.99,0,0,1-2.34,1.062,1.768,1.768,0,0,1-1.494-.63,3.644,3.644,0,0,1-.666-1.35,7.213,7.213,0,0,0-.846-1.854,7.728,7.728,0,0,0-1.476-1.728,4.806,4.806,0,0,0-2.034-1.062q-.36-.108-.4-.252,0-.072.27-.2a4.63,4.63,0,0,1,.486-.2,7.654,7.654,0,0,1,1.494-.288,14.133,14.133,0,0,1,1.494-.108,12.631,12.631,0,0,1,2.034.18,8.529,8.529,0,0,1,2.106.63,4.278,4.278,0,0,1,1.656,1.278A3.344,3.344,0,0,1,443.34-19.764Z" transform="translate(-0.072 29.988)" fill="#e7b81e"/></svg>