<svg xmlns="http://www.w3.org/2000/svg" width="47.496" height="21.936" viewBox="0 0 47.496 21.936"><path d="M7.392-13.536a.714.714,0,0,1-.108.372.375.375,0,0,1-.348.18.4.4,0,0,1-.276-.1q-.108-.1-.228-.192-.288-.336-.684-.828T4.98-15.12q-.372-.528-.612-.912.24-.1.768-.252t1.044-.3a3.193,3.193,0,0,1,.732-.144q.24,0,.276.108a1.632,1.632,0,0,1,.06.3q.072.648.108,1.38T7.392-13.536Zm4.488-3.792H4.152v4.584H8.088q.168-1.032.36-2.052t.336-2.052q.432.1.864.2t.864.228q.168.048.348.084a1.754,1.754,0,0,1,.348.108q.24.1.24.264a1.658,1.658,0,0,1-.324.576q-.324.456-.78,1.02t-.84,1.02q-.384.456-.528.6H10.44a1.488,1.488,0,0,1,.4-.78,1.028,1.028,0,0,1,.78-.348.674.674,0,0,1,.132.012.674.674,0,0,0,.132.012Zm2.664,15.5A8.611,8.611,0,0,1,14.388-.18a2.527,2.527,0,0,1-.66,1.32,2.1,2.1,0,0,1-1.56.516,3.272,3.272,0,0,1-1.224-.288A9.094,9.094,0,0,1,9.612.684,7.907,7.907,0,0,1,8.568-.072Q8.52-.12,8.448-.18a.193.193,0,0,1-.072-.156q0-.12.168-.12a.167.167,0,0,1,.072.012.107.107,0,0,0,.048.012q.5.12,1.008.216a5.5,5.5,0,0,0,1.032.1.962.962,0,0,0,.78-.3,1.5,1.5,0,0,0,.324-.732,5.107,5.107,0,0,0,.072-.84V-11.76h-2.9v8.376A.424.424,0,0,0,9.4-3.6a1.4,1.4,0,0,0,.132-.516q.024-.3.024-.492v-5.544H11.28v5.088a4.943,4.943,0,0,1-.228,1.74,1.226,1.226,0,0,1-.828.744A6.35,6.35,0,0,1,8.5-2.4H4.752v-7.8h1.7v6.888h.576V-11.76H4.152V1.512H1.608V-18.312H14.544Zm7.608-.816a15.58,15.58,0,0,1-.084,1.62A4.641,4.641,0,0,1,21.7.42a2.332,2.332,0,0,1-.888,1.02,3.056,3.056,0,0,1-1.656.384,3.813,3.813,0,0,1-1.728-.408A7.915,7.915,0,0,1,15.912.432q-.048-.048-.3-.276T15.144-.3q-.216-.228-.216-.276a.085.085,0,0,1,.1-.1H15.1q.7.168,1.392.348a5.633,5.633,0,0,0,1.416.18,1.054,1.054,0,0,0,.984-.48,2.543,2.543,0,0,0,.336-1.14q.048-.66.048-1.14v-16.1h2.88ZM18.216-4.776H15.672V-17.64h2.544ZM42.36-3.36V-6.384H41.328V-3.36Zm-2.712,0v-9.6h-.816v9.6ZM42.36-7.3v-2.28H41.328V-7.3Zm2.712-5.664h-.864v9.576a.9.9,0,0,0,.588-.528,2.917,2.917,0,0,0,.228-.9q.048-.492.048-.828ZM42.36-10.488V-12.96H41.328v2.472ZM49.1-.432A1.264,1.264,0,0,1,48.528.6a4.772,4.772,0,0,1-1.488.708,15.458,15.458,0,0,1-1.908.444q-1,.168-1.836.228T42,2.04a23.168,23.168,0,0,1-3.2-.216A8.554,8.554,0,0,1,35.76.768a13.621,13.621,0,0,1-1.788-1.26,12.68,12.68,0,0,1-1.548-1.524A11.354,11.354,0,0,1,30.144.168a10.37,10.37,0,0,1-2.808,1.44q-.384.12-.912.264a3.61,3.61,0,0,1-.936.144q-.24,0-.24-.216a.178.178,0,0,1,.12-.156l.168-.084q.6-.312,1.164-.672A11.466,11.466,0,0,0,27.792.1,11.767,11.767,0,0,0,29.568-1.62,15.452,15.452,0,0,0,30.96-3.648q-.072-.1-.24-.312t-.348-.42a1.141,1.141,0,0,0-.276-.252.552.552,0,0,0-.312-.1h-.336q-.144,0-.144-.168,0-.1.216-.3a5.8,5.8,0,0,1,.468-.4,2.8,2.8,0,0,1,.348-.24,4.932,4.932,0,0,1,.684.336q.324.192.636.408a9.478,9.478,0,0,0,.372-.96q.156-.48.276-.96H30.672a7.423,7.423,0,0,1-.648.9q-.456.564-1.032,1.188t-1.2,1.2a9.076,9.076,0,0,1-1.176.936,1.823,1.823,0,0,1-.936.36q-.216,0-.216-.192a.342.342,0,0,1,.06-.2q.06-.084.132-.18a21.1,21.1,0,0,0,1.452-2.184,27.071,27.071,0,0,0,1.332-2.58,15.233,15.233,0,0,0,.888-2.46H25.944v-1.032h3.912V-13.2H27.192v-1.056h2.664v-1.872h-3.48v-1.056h3.48V-19.9H32.5v2.712H33.5a1.254,1.254,0,0,1,.384-.8,1.1,1.1,0,0,1,.792-.324,1.335,1.335,0,0,1,.84.3.944.944,0,0,1,.384.78,1.035,1.035,0,0,1-.324.816,1.235,1.235,0,0,1-.852.288H32.5v1.872h.984a1,1,0,0,1,.372-.6,1.033,1.033,0,0,1,.66-.24.955.955,0,0,1,.66.276.866.866,0,0,1,.3.66.834.834,0,0,1-.336.708,1.211,1.211,0,0,1-.744.252H32.5v1.944h1.488a1.114,1.114,0,0,1,.348-.732,1.074,1.074,0,0,1,.756-.276,1.153,1.153,0,0,1,.72.288.844.844,0,0,1,.36.672.988.988,0,0,1-.336.792,1.211,1.211,0,0,1-.816.288h-4.08l1.152.432q-.168.456-.384.9t-.456.876h4.44a14.776,14.776,0,0,1-.9,2.328,17.423,17.423,0,0,1-1.26,2.16,11.077,11.077,0,0,0,3.12,2.46A14.044,14.044,0,0,0,40.368.264a19.458,19.458,0,0,0,3.96.408A10.824,10.824,0,0,0,46.656.408,1.1,1.1,0,0,1,46.4.024a1.247,1.247,0,0,1-.084-.456,1.057,1.057,0,0,1,.42-.864,1.446,1.446,0,0,1,.924-.336,1.706,1.706,0,0,1,.96.324A1.007,1.007,0,0,1,49.1-.432Zm-.672-17.712a1.054,1.054,0,0,1-.432.912,1.638,1.638,0,0,1-.984.312H43.56a5.305,5.305,0,0,1-.6,1.02q-.408.564-.876,1.092t-.828.912H47.64V-6.36a7.108,7.108,0,0,1-.264,2,2.712,2.712,0,0,1-.948,1.428,3.145,3.145,0,0,1-1.956.528H36.6V-13.9h3.048A29.132,29.132,0,0,0,40.3-16.92h-3.96v-1.032h9.288a1.4,1.4,0,0,1,.4-1,1.311,1.311,0,0,1,1-.42,1.683,1.683,0,0,1,.984.3A1.048,1.048,0,0,1,48.432-18.144Z" transform="translate(-1.608 19.896)" fill="#e7b81e"/></svg>