<svg xmlns="http://www.w3.org/2000/svg" width="71.244" height="32.903" viewBox="0 0 71.244 32.903"><path d="M11.088-20.3a1.071,1.071,0,0,1-.162.558.563.563,0,0,1-.522.27.6.6,0,0,1-.414-.144q-.162-.144-.342-.288-.432-.5-1.026-1.242T7.47-22.68q-.558-.792-.918-1.368.36-.144,1.152-.378t1.566-.45a4.79,4.79,0,0,1,1.1-.216q.36,0,.414.162a2.449,2.449,0,0,1,.09.45q.108.972.162,2.07T11.088-20.3Zm6.732-5.688H6.228v6.876h5.9q.252-1.548.54-3.078t.5-3.078q.648.144,1.3.306t1.3.342q.252.072.522.126a2.632,2.632,0,0,1,.522.162q.36.144.36.4a2.487,2.487,0,0,1-.486.864q-.486.684-1.17,1.53t-1.26,1.53q-.576.684-.792.9h2.2a2.233,2.233,0,0,1,.594-1.17,1.542,1.542,0,0,1,1.17-.522,1.011,1.011,0,0,1,.2.018,1.011,1.011,0,0,0,.2.018Zm4,23.256A12.917,12.917,0,0,1,21.582-.27a3.79,3.79,0,0,1-.99,1.98,3.143,3.143,0,0,1-2.34.774,4.908,4.908,0,0,1-1.836-.432,13.641,13.641,0,0,1-2-1.026A11.861,11.861,0,0,1,12.852-.108q-.072-.072-.18-.162A.29.29,0,0,1,12.564-.5q0-.18.252-.18a.251.251,0,0,1,.108.018A.16.16,0,0,0,13-.648q.756.18,1.512.324a8.255,8.255,0,0,0,1.548.144,1.443,1.443,0,0,0,1.17-.45,2.243,2.243,0,0,0,.486-1.1,7.66,7.66,0,0,0,.108-1.26V-17.64H13.464V-5.076a.636.636,0,0,0,.63-.324,2.094,2.094,0,0,0,.2-.774q.036-.45.036-.738v-8.316H16.92V-7.6a7.414,7.414,0,0,1-.342,2.61A1.84,1.84,0,0,1,15.336-3.87a9.525,9.525,0,0,1-2.592.27H7.128V-15.3H9.684V-4.968h.864V-17.64H6.228V2.268H2.412V-27.468h19.4ZM33.228-3.96A23.37,23.37,0,0,1,33.1-1.53,6.961,6.961,0,0,1,32.544.63a3.5,3.5,0,0,1-1.332,1.53,4.584,4.584,0,0,1-2.484.576,5.719,5.719,0,0,1-2.592-.612A11.872,11.872,0,0,1,23.868.648Q23.8.576,23.418.234t-.7-.684q-.324-.342-.324-.414a.127.127,0,0,1,.144-.144h.108q1.044.252,2.088.522a8.449,8.449,0,0,0,2.124.27,1.581,1.581,0,0,0,1.476-.72,3.814,3.814,0,0,0,.5-1.71q.072-.99.072-1.71V-28.512h4.32Zm-5.9-3.2H23.508v-19.3h3.816ZM63.54-5.04V-9.576H61.992V-5.04Zm-4.068,0v-14.4H58.248v14.4Zm4.068-5.9v-3.42H61.992v3.42Zm4.068-8.5h-1.3V-5.076a1.346,1.346,0,0,0,.882-.792,4.376,4.376,0,0,0,.342-1.35q.072-.738.072-1.242ZM63.54-15.732V-19.44H61.992v3.708ZM73.656-.648A1.9,1.9,0,0,1,72.792.9,7.157,7.157,0,0,1,70.56,1.962a23.187,23.187,0,0,1-2.862.666q-1.494.252-2.754.342T63,3.06a34.752,34.752,0,0,1-4.806-.324A12.831,12.831,0,0,1,53.64,1.152a20.432,20.432,0,0,1-2.682-1.89,19.02,19.02,0,0,1-2.322-2.286A17.03,17.03,0,0,1,45.216.252,15.555,15.555,0,0,1,41,2.412q-.576.18-1.368.4a5.415,5.415,0,0,1-1.4.216q-.36,0-.36-.324a.267.267,0,0,1,.18-.234L38.3,2.34q.9-.468,1.746-1.008A17.2,17.2,0,0,0,41.688.144,17.651,17.651,0,0,0,44.352-2.43,23.178,23.178,0,0,0,46.44-5.472q-.108-.144-.36-.468t-.522-.63a1.711,1.711,0,0,0-.414-.378.827.827,0,0,0-.468-.144h-.5q-.216,0-.216-.252,0-.144.324-.45a8.7,8.7,0,0,1,.7-.594,4.2,4.2,0,0,1,.522-.36,7.4,7.4,0,0,1,1.026.5q.486.288.954.612a14.219,14.219,0,0,0,.558-1.44q.234-.72.414-1.44H46.008a11.134,11.134,0,0,1-.972,1.35q-.684.846-1.548,1.782t-1.8,1.8a13.614,13.614,0,0,1-1.764,1.4,2.734,2.734,0,0,1-1.4.54q-.324,0-.324-.288a.513.513,0,0,1,.09-.306q.09-.126.2-.27a31.646,31.646,0,0,0,2.178-3.276,40.607,40.607,0,0,0,2-3.87,22.85,22.85,0,0,0,1.332-3.69H38.916v-1.548h5.868V-19.8h-4v-1.584h4v-2.808h-5.22v-1.584h5.22v-4.068h3.96v4.068h1.512a1.881,1.881,0,0,1,.576-1.206,1.655,1.655,0,0,1,1.188-.486,2,2,0,0,1,1.26.45,1.416,1.416,0,0,1,.576,1.17,1.552,1.552,0,0,1-.486,1.224,1.852,1.852,0,0,1-1.278.432H48.744v2.808H50.22a1.5,1.5,0,0,1,.558-.9,1.549,1.549,0,0,1,.99-.36,1.432,1.432,0,0,1,.99.414,1.3,1.3,0,0,1,.45.99,1.251,1.251,0,0,1-.5,1.062,1.817,1.817,0,0,1-1.116.378H48.744v2.916h2.232a1.672,1.672,0,0,1,.522-1.1,1.61,1.61,0,0,1,1.134-.414,1.729,1.729,0,0,1,1.08.432,1.267,1.267,0,0,1,.54,1.008,1.482,1.482,0,0,1-.5,1.188,1.817,1.817,0,0,1-1.224.432H46.4l1.728.648q-.252.684-.576,1.35t-.684,1.314h6.66a22.164,22.164,0,0,1-1.35,3.492,26.134,26.134,0,0,1-1.89,3.24,16.615,16.615,0,0,0,4.68,3.69,21.066,21.066,0,0,0,5.58,2,29.187,29.187,0,0,0,5.94.612,16.235,16.235,0,0,0,3.492-.4,1.657,1.657,0,0,1-.378-.576,1.87,1.87,0,0,1-.126-.684,1.586,1.586,0,0,1,.63-1.3,2.169,2.169,0,0,1,1.386-.5,2.559,2.559,0,0,1,1.44.486A1.51,1.51,0,0,1,73.656-.648ZM72.648-27.216A1.581,1.581,0,0,1,72-25.848a2.457,2.457,0,0,1-1.476.468H65.34a7.958,7.958,0,0,1-.9,1.53q-.612.846-1.314,1.638t-1.242,1.368H71.46v11.3a10.662,10.662,0,0,1-.4,3.006,4.068,4.068,0,0,1-1.422,2.142,4.718,4.718,0,0,1-2.934.792H54.9V-20.844h4.572a43.7,43.7,0,0,0,.972-4.536H54.5v-1.548H68.436a2.1,2.1,0,0,1,.594-1.494,1.967,1.967,0,0,1,1.494-.63A2.525,2.525,0,0,1,72-28.6,1.572,1.572,0,0,1,72.648-27.216Z" transform="translate(-2.412 29.844)" fill="#e7b81e"/></svg>