<svg xmlns="http://www.w3.org/2000/svg" width="600" height="136.365" viewBox="0 0 600 136.365"><g transform="translate(-398 -960)"><g transform="translate(998 960) rotate(90)"><path d="M0,0H136.363V600H0Z" fill="#7b0000"/><path d="M2,2V598H134.363V2H2M0,0H136.363V600H0Z" fill="#fff"/><path d="M7.757,52.585a7.429,7.429,0,0,0,1.284-8.248,7.433,7.433,0,0,0,8.25-1.284c2.569-2.571,2.607-6.795.3-10.008a8.741,8.741,0,0,1-7.2-2.615A9.5,9.5,0,0,1,9.4,29.244c-2.307-3.213-2.271-7.437.3-10.008a7.429,7.429,0,0,1,8.248-1.284A7.43,7.43,0,0,1,19.235,9.7c2.569-2.569,6.793-2.607,10.006-.3a9.314,9.314,0,0,1,1.185.991,8.742,8.742,0,0,1,2.615,7.2c3.214,2.309,7.437,2.271,10.009-.3a7.43,7.43,0,0,0,1.285-8.248,7.434,7.434,0,0,0,8.25-1.284A7.342,7.342,0,0,0,54.042,0H0V54.045A7.339,7.339,0,0,0,7.757,52.585Z" transform="translate(0.001 0.001)" fill="#fff"/><path d="M7.757,1.961a7.43,7.43,0,0,1,1.284,8.248,7.434,7.434,0,0,1,8.25,1.287c2.569,2.569,2.607,6.793.3,10.006a8.742,8.742,0,0,0-7.2,2.615A9.357,9.357,0,0,0,9.4,25.3c-2.307,3.214-2.271,7.435.3,10.006A7.429,7.429,0,0,0,17.948,36.6a7.43,7.43,0,0,0,1.287,8.25c2.569,2.569,6.793,2.607,10.006.3a9.338,9.338,0,0,0,1.185-.993,8.742,8.742,0,0,0,2.615-7.2c3.214-2.307,7.437-2.271,10.009.3A7.43,7.43,0,0,1,44.335,45.5a7.434,7.434,0,0,1,8.25,1.287,7.34,7.34,0,0,1,1.458,7.76H0V.5A7.334,7.334,0,0,1,7.757,1.961Z" transform="translate(0.001 545.452)" fill="#fff"/><path d="M46.789,52.585A7.425,7.425,0,0,1,45.5,44.337a7.43,7.43,0,0,1-8.248-1.284c-2.571-2.571-2.607-6.795-.3-10.008a8.742,8.742,0,0,0,7.2-2.615,9.517,9.517,0,0,0,.993-1.186c2.307-3.213,2.268-7.437-.3-10.008a7.433,7.433,0,0,0-8.25-1.284A7.433,7.433,0,0,0,35.311,9.7C32.74,7.132,28.516,7.093,25.3,9.4a9.5,9.5,0,0,0-1.186.991,8.74,8.74,0,0,0-2.615,7.2c-3.214,2.309-7.438,2.271-10.006-.3a7.431,7.431,0,0,1-1.287-8.248A7.43,7.43,0,0,1,1.961,7.76,7.338,7.338,0,0,1,.5,0H54.543l0,54.045A7.339,7.339,0,0,1,46.789,52.585Z" transform="translate(81.818 0.001)" fill="#fff"/><path d="M46.789,1.961A7.426,7.426,0,0,0,45.5,10.209,7.43,7.43,0,0,0,37.254,11.5c-2.571,2.569-2.607,6.793-.3,10.006a8.742,8.742,0,0,1,7.2,2.615,9.369,9.369,0,0,1,.993,1.188c2.307,3.214,2.268,7.435-.3,10.006A7.437,7.437,0,0,1,36.6,36.6a7.43,7.43,0,0,1-1.284,8.248c-2.571,2.569-6.795,2.607-10.009.3a9.527,9.527,0,0,1-1.186-.993,8.74,8.74,0,0,1-2.615-7.2c-3.214-2.307-7.438-2.271-10.006.3A7.431,7.431,0,0,0,10.209,45.5a7.43,7.43,0,0,0-8.248,1.287A7.336,7.336,0,0,0,.5,54.548H54.543L54.546.5A7.333,7.333,0,0,0,46.789,1.961Z" transform="translate(81.818 545.452)" fill="#fff"/></g><text transform="translate(594 1066.129)" fill="#fff" font-size="51" font-family="KaiseiTokumin-Bold, Kaisei Tokumin" font-weight="700" letter-spacing="0.025em"><tspan x="0" y="0">イベント</tspan></text><text transform="translate(547 998.603)" fill="#fff" font-size="21" font-family="DIN2014-Bold, 'DIN \32 014'" font-weight="700" letter-spacing="0.05em"><tspan x="0" y="0">EVENT &amp; CAMPAIGN, PRESENT</tspan></text></g></svg>